<svg xmlns="http://www.w3.org/2000/svg" width="275.84" height="169.368" viewBox="0 0 258.59964 158.78223"><path d="M117.229 0c-11.15 0-18.16 5.908-18.098 15.25.032 4.802 4.012 14.186 7.668 18.08l2.539 2.707-2.93 1.586c-10.921 5.912-17.093 8.6-19.804 8.63-4.284.044-18.9 4.74-15.206 4.884 4.93.192 19.164-3.71 27.393-7.508 4.297-1.983 7.813-3.306 7.813-2.941 0 .364-1.048 2.75-2.329 5.3-1.28 2.551-3.55 8.355-5.043 12.899-1.493 4.543-4.383 10.89-6.421 14.105-2.04 3.215-3.707 6.147-3.707 6.514s-3.201 5.358-7.112 11.092c-5.22 7.653-8.093 10.708-10.806 11.486-2.034.583-4.315 2.04-5.07 3.238-2.252 3.57.614 6.395 8.109 7.995l6.754 1.443-5.625.225c-3.094.123-6.89.363-8.434.535-3.838.426-6.304-2.678-8.996-11.326-1.253-4.026-2.684-8.444-3.182-9.819-.571-1.579.312-1.023 2.399 1.506 4.785 5.801 7.487 4.36 6.556-3.496-.808-6.826-7.419-23.532-10.965-27.71-2.363-2.783-2.389-2.785-4.302-.306-1.06 1.372-1.773 3.661-1.586 5.088.187 1.427-.7 4.182-1.971 6.121-1.997 3.048-2.11 4.19-.846 8.412 1.158 3.863 1.938 4.735 3.73 4.166 1.845-.585 2.754.627 4.88 6.5 1.437 3.971 3.251 9.75 4.031 12.844 2.254 8.946 3.83 10 14.955 10 9.601 0 9.63.01 9.035 3.125-.518 2.71-1.282 3.14-5.763 3.23-2.842.058-11.562.48-19.38.938-16.81.985-15.242 2.59-18.386-18.803-1.388-9.438-1.813-17.428-1.287-24.115.535-6.809.39-9.402-.457-8.125-1.984 2.991-1.394 23.216 1.094 37.5 1.256 7.219 2.046 13.547 1.755 14.063-.29.515-15.137.937-32.992.937H0v1.524l1.666-.016 38.182-.367 2.816 6.793c1.548 3.736 3.912 7.785 5.252 8.998 3.136 2.838 3.122 1.41-.027-2.92-1.355-1.863-3.313-5.452-4.352-7.979-1.887-4.59-1.888-4.594 1.526-5.27 3.078-.608 28.422-1.328 32.634-.927 2.663.254.824 6.858-3.804 13.66-2.2 3.233-4.481 6.207-5.069 6.608-.587.4-1.187 2.347-1.332 4.326-.352 4.798 3.594 5.846 5.283 1.402 1.038-2.73 2.05-3.153 8.442-3.53 10.916-.641 18.512.465 18.512 2.698 0 1.042 1.11 1.875 2.5 1.875 1.988 0 2.446-.745 2.236-3.646-.145-2.006-.734-3.974-1.307-4.375-1.679-1.175-6.075-9.27-6.97-12.836-.454-1.807-1.2-4.264-1.659-5.461-.782-2.039.622-2.122 22.182-1.32 26.874.999 44.915 1.009 51.342.029 3.782-.577 4.707-.277 5.344 1.728.423 1.335 1.975 3.486 3.447 4.78l2.676 2.351-2.33-4.023c-1.282-2.213-1.992-4.364-1.579-4.778.414-.413 8.118-.35 17.121.14 11.883.645 16.372 1.322 16.372 2.468 0 1.96-8.506 17.145-10.186 18.183-1.394.862-4.814 7.098-4.814 8.778 0 .609 1.747 1.107 3.884 1.107 3.434 0 3.802-.336 3.162-2.883-.665-2.65-.142-3.002 6.502-4.375 3.975-.82 10.655-1.492 14.846-1.492 7.005 0 7.568.202 6.967 2.5-.53 2.03-.038 2.5 2.617 2.5 2.788 0 3.272-.543 3.272-3.685 0-2.718-1.11-4.533-4.217-6.903-4.137-3.155-10.732-13.63-9.412-14.949.369-.369 11.46-.31 24.648.13l12.227.411V125h-10.746c-14.167 0-22.5-.463-22.5-1.25 0-.687-1.44-1.25-3.2-1.25-1.814 0-2.864-.54-2.425-1.25.424-.687 2.182-1.25 3.906-1.25 4.626 0 7.545-1.988 8.984-6.117 1.406-4.032.907-5.133-2.322-5.133-1.176 0-2.783-.778-3.572-1.728-.79-.95-5.357-2.99-10.153-4.532-4.795-1.541-8.707-3.154-8.693-3.584.033-.996 15.83-11.406 17.309-11.406 2.412 0 6.7-13.198 7.345-22.607.587-8.562.987-9.796 3.569-10.973 5.165-2.353 9.766-11.173 9.824-18.834.05-6.556-.133-6.931-5.358-10.937C237.49 21.788 233.69 20 231.75 20c-4.64 0-14.573 6.515-16.953 11.117-2.857 5.526-2.548 16.527.576 20.498 2.725 3.464 10.21 6.543 13.156 5.413 1.218-.468 1.825.118 1.825 1.761 0 2.724-.014 2.728-10.625 2.518-8.783-.174-20.529-4.341-20.823-7.389-.108-1.123-.152-2.857-.097-3.851.14-2.566-3.626-5.031-6.584-4.311-1.76.428-3.987-.916-7.5-4.531-4.336-4.46-4.741-5.338-3.065-6.621 2.268-1.736 6.194-7.223 6.194-8.657 0-1.56-6.518.3-10.27 2.932l-3.393 2.381-5.25-6.955c-4.514-5.979-10.167-10.555-13.037-10.555-2.569 0 1.807 7.842 7.746 13.881l6.891 7.006-9.377 7.058c-6.16 4.637-10.376 6.95-12.283 6.745-2.342-.254-2.846.23-2.606 2.498.164 1.547-.234 2.812-.884 2.812-1.11 0-23.65-10.897-31.912-15.428l-3.75-2.056 3.769-.008c9.597-.02 16.835-8.451 17.86-20.805.518-6.259.293-6.906-3.852-11.05C123.718.614 122.282 0 117.229 0zm-1.547 1.86c4.553.1 9.648 2.059 11.51 4.716 4.147 5.922 1.328 19.503-5.1 24.559-6.416 5.046-13.528 2.61-18.006-6.168-3.778-7.406-3.318-14.432 1.223-18.674 2.038-1.904 5.346-3.79 7.353-4.191.947-.19 1.969-.266 3.02-.242zm43.2 15.142c1.792.142 5.937 4.077 9.985 9.723 2.277 3.176 3.666 5.775 3.084 5.775-1.9 0-14.404-13.46-13.902-14.965.132-.397.42-.566.834-.533zm11.704 2.004c-.378.06.016 1.423 1.207 4.037 1.174 2.576 2.04 3.016 4.687 2.385 4.293-1.023 5.124-1.55 5.124-3.252 0-1.027-.42-1.006-1.5.074-2.292 2.292-3.869 1.789-3.14-1.002.36-1.376.146-2.186-.478-1.8-.623.385-1.146 1.651-1.162 2.814-.021 1.65-.562 1.428-2.47-1.012-1.213-1.55-1.974-2.29-2.268-2.244zm61.459 3.32c2.725.083 5.432 1.348 8.338 3.774 3.703 3.092 4.292 4.324 4.176 8.758-.163 6.212-5.019 14.15-10.819 17.687-5.449 3.322-9.952 3.08-14.54-.781-3.52-2.96-3.846-3.883-3.846-10.838 0-7.384.162-7.761 5.646-13.016 4.011-3.843 7.542-5.69 11.045-5.584zm-48.518 5.756c.232.01.406.081.534.21.827.827-5.13 5.942-13.635 11.708-3.55 2.406-8.923 6.203-11.94 8.438-3.017 2.234-5.75 3.634-6.074 3.109-.324-.525 5.306-5.446 12.512-10.937 12.453-9.49 16.98-12.588 18.603-12.528zm-26.037 1.092c-.292-.014-.499.02-.59.111-.363.364.688 1.201 2.334 1.86 4.85 1.94 7.136 1.323 2.536-.684-1.736-.757-3.402-1.244-4.28-1.287zM162.3 35c-.99 0-2.147.563-2.571 1.25-.425.688.385 1.25 1.8 1.25 1.416 0 2.575-.562 2.575-1.25 0-.687-.813-1.25-1.803-1.25zm25.626 1.25c-.647 0-1.523.563-1.947 1.25-.425.688.103 1.25 1.175 1.25s1.95-.562 1.95-1.25c0-.687-.531-1.25-1.178-1.25zm-10.678 1.5c1.41-.144 11.856 9.697 11.856 11.26 0 2.242-2.477.672-7.456-4.729-2.9-3.146-4.928-6.065-4.507-6.486a.17.17 0 0 1 .107-.045zM109.4 38.91l16.678 8.313c15.195 7.573 16.514 8.494 14.82 10.365-1.591 1.759-1.605 2.263-.101 3.512 1.351 1.121 2.583 1.03 5.344-.397 1.973-1.02 5.185-2.18 7.138-2.58 2.29-.469 3.322-1.323 2.907-2.406-.67-1.746 3.288-5.93 9.876-10.438l3.834-2.625-.365 3.987c-.312 3.392-.227 3.534.574.953 1.333-4.292 3.272-4.463 4.866-.428 1.084 2.747 1.385 2.945 1.459.96.051-1.376-.714-3.568-1.701-4.872-3.992-5.273-.121-4.029 5.714 1.838 3.43 3.449 5.938 6.757 5.57 7.352-1.242 2.01.89 5.27 3.075 4.699 1.177-.308 3.472.444 5.1 1.672 2.058 1.553 3.603 1.889 5.074 1.101 1.402-.75 3.732-.451 6.916.889 2.64 1.111 7.613 2.403 11.05 2.87l6.25.853-4.374 1.898c-2.407 1.044-8.764 2.64-14.127 3.549-9.416 1.594-9.881 1.555-13.483-1.108-6.424-4.75-9.326-2.294-8.724 7.383.146 2.352-.101 2.688-.999 1.36-1.011-1.499-1.5-1.455-3.236.28-1.744 1.745-1.834 2.834-.61 7.391.79 2.94 2.029 5.714 2.753 6.164 1.58.984 7.058 19.118 7.127 23.59.026 1.738.924 4.41 1.994 5.938l1.945 2.777h-8.803c-8.753 0-8.815-.023-10.494-4.062-3.91-9.407-6.31-22.968-6.142-34.688.133-9.29-.113-11.194-1.133-8.75-2.085 4.997-.436 24.375 3.084 36.244 1.732 5.841 3.053 10.714 2.935 10.828-.117.115-2.984.376-6.37.582l-6.159.377-3.703-8.703c-2.862-6.722-3.737-10.737-3.844-17.644-.076-4.918-.635-8.636-1.242-8.262-1.985 1.224.244 17.437 3.523 25.635 1.764 4.408 3.208 8.392 3.208 8.853 0 .462-5.204.714-11.563.56-6.36-.153-20.641-.447-31.736-.653l-20.172-.377-.592-3.094c-.475-2.487-.074-3.11 2.047-3.174 2.41-.072 2.368-.196-.484-1.408-2.954-1.255-2.748-1.427 3.75-3.133 3.78-.993 7.4-2.321 8.044-2.951 2.25-2.202 1.96-6.088-.554-7.434-2.41-1.29-2.355-1.577 1.86-9.945l4.339-8.62-5.63-9.777c-6.514-11.31-6.538-13.283-.329-26.886l3.816-8.358zm85.186 8.787a.31.31 0 0 1 .213.082c.388.389-.761 2.172-2.553 3.963-3.432 3.432-4.392 3.92-4.392 2.227 0-1.447 5.386-6.338 6.732-6.272zm34.707 16.85c.133.009.23.04.283.094 1.298 1.297.879 5.81-1.181 12.748-1.71 5.754-2.305 6.509-4.688 5.947-1.501-.354-7.004-1.026-12.23-1.494l-9.504-.85 1.642 7.942c.903 4.368 1.146 8.115.54 8.326-.607.21-.209 1.944.886 3.851 2.297 4.003 1.407 7.64-1.871 7.64-3.363 0-7.816 3.56-7.816 6.247 0 2.868 1.16 3.636 8.59 5.684l5.785 1.595-6.875-.033c-10.094-.049-11.047-.536-12.479-6.392-.703-2.874-2.164-8.229-3.248-11.899s-1.646-6.998-1.248-7.396c.398-.398.725.126.725 1.166 0 1.885 3.762 6.027 5.474 6.027.497 0 1.716-1.945 2.71-4.322 1.667-3.99 1.35-11.156-1.104-24.957-.113-.635 4.956-1.87 11.265-2.744 7.106-.986 13.826-2.786 17.66-4.729 2.979-1.51 5.751-2.51 6.684-2.451zM50.076 66.291c1.04.208 2.848 2.69 5.06 7.147 1.964 3.953 4.272 9.776 5.13 12.941.858 3.165 1.362 7.102 1.12 8.75-.393 2.689-.802 2.389-3.972-2.926-3.502-5.873-8.282-19.56-8.3-23.765-.008-1.578.338-2.272.962-2.147zm49.02 1.21c.398 0 2.824 3.65 5.39 8.11l4.664 8.112-4.265 8.451-4.266 8.451H89.244c-6.256 0-11.379-.135-11.383-.3-.004-.166 2.395-3.822 5.332-8.126 2.937-4.303 7.554-11.62 10.26-16.261 2.706-4.641 5.244-8.438 5.643-8.438zm87.84 1.439c.514.006.79.328.644.855-.193.703.615 2.022 1.797 2.93 2.595 1.993 5.338 17.997 4.16 24.275-1.036 5.521-2.674 5.381-5.127-.437-4.238-10.053-5.462-26.387-2.062-27.52.217-.072.416-.105.588-.103zM45.602 77.5c.15 0 .417.417.888 1.25.584 1.031 1.447 3.14 1.92 4.688.474 1.548.326 2.812-.328 2.812-1.222 0-2.71-4.176-2.674-7.5.01-.833.043-1.25.194-1.25zm159.439 6.25l6.094.125c3.351.069 7.482.512 9.177.985 2.89.805 2.617 1.15-4.335 5.5-8.147 5.095-9.373 5.477-9.373 2.921 0-.945-.352-3.476-.782-5.625l-.781-3.906zm-184.465 5c-3.994 0-2.7 25.41 1.631 32.02 1.074 1.639 2.611 2.98 3.414 2.98.803 0 .523-.703-.621-1.562-4.679-3.514-7.071-23.168-3.844-31.578.393-1.023.132-1.86-.58-1.86zM3.22 95.625l-.182 7.108c-.1 3.908.365 8.549 1.035 10.312.67 1.764 1.548 3.205 1.95 3.205.4 0 .3-.692-.223-1.539-.524-.847-1.318-5.488-1.766-10.312l-.814-8.774zm135.77 1.875c-1.419 0-2.355 5.476-1.497 8.756.895 3.423 1.222 2.722 1.895-4.068.255-2.578.076-4.688-.399-4.688zm-54.43 5.162c8.385-.103 19.015.615 20.687 1.649 2.907 1.796-1.096 5.473-7.441 6.834-10.216 2.19-27.485 1.203-29.903-1.71-2.275-2.741 1.668-5.406 9.434-6.376 1.881-.235 4.427-.362 7.223-.397zm125.64 1.088c.604 0 1.799.844 2.655 1.875 1.3 1.567 1.118 1.875-1.098 1.875-1.525 0-2.652-.797-2.652-1.875 0-1.031.492-1.875 1.095-1.875zm5.254.164c.15-.08.813.247 2.088.926 1.547.824 2.813 1.76 2.813 2.08 0 1.324-2.313.436-3.91-1.5-.778-.943-1.14-1.426-.99-1.506zm1.225 5.117a55.54 55.54 0 0 1 5.691.313c6.534.7 7.985 1.264 7.985 3.103 0 1.237-.91 3.002-2.022 3.924-2.58 2.142-25.18 3.023-28.291 1.104-6.484-4 3.664-8.49 16.637-8.444zm-129.963 8.47c2.897 0 3.478.646 4.22 4.687.474 2.578 2.14 7.877 3.704 11.775l2.841 7.088-7 .064c-3.85.036-8.967.643-11.369 1.35-2.401.707-4.535 1.285-4.74 1.285-.205 0 1.016-2.39 2.713-5.312s3.802-8.828 4.678-13.125c1.478-7.252 1.833-7.813 4.953-7.813zm128.535 3.903c.434.018.806.135 1.014.342.415.416-.323.71-1.641.657-1.456-.06-1.751-.357-.754-.756.451-.181.947-.26 1.381-.243zm-.668 3.596c2.857 0 3.823 1.383 10.459 14.985.172.352-2.922.64-6.875.64s-8.453.46-10 1.022c-3.528 1.281-3.51.897.313-6.647 1.718-3.392 3.125-7.03 3.125-8.084 0-1.186 1.135-1.916 2.978-1.916zm3.272 17.553c9.972-.02 11.932 1.94 2.939 2.94a933.93 933.93 0 0 1-13.564 1.394l-6.25.582 5-2.451c3.107-1.524 7.602-2.456 11.875-2.465zm-110.766.502c-.27-.016-.218 1.44-.09 4.752.126 3.262.612 5.933 1.078 5.937 2.222.016 4.496-3.916 3.78-6.535-.712-2.6-.818-2.63-1.282-.383-.431 2.092-.748 1.909-2.156-1.25-.716-1.607-1.12-2.51-1.33-2.521zM87.854 144c3.093 0 7.03.45 8.75 1 2.03.65-1.036 1.002-8.75 1.002-7.715 0-10.78-.352-8.75-1.002 1.718-.55 5.656-1 8.75-1zm-26.608.586c-.3-.087-.815.435-1.517 1.664-.983 1.719-1.808 3.828-1.833 4.688-.075 2.66 2.123 1.719 2.918-1.25.834-3.113.933-4.956.432-5.102zm130.295.414c-1.353 0-6.111 9.415-6.16 12.188-.048 2.752 1.932 1.669 2.146-1.174.114-1.506 1.358-4.295 2.766-6.2 2.893-3.913 3.126-4.814 1.248-4.814zm51.102 0c-1.198 0-1.206.333-.04 1.5.825.825 1.577 2.935 1.67 4.688.164 3.064.19 3.076.723.285.693-3.632-.34-6.473-2.353-6.473zm5.974.479c-.448.02-.763.518-.763 1.322 0 1.072.562 1.95 1.25 1.95.687 0 1.25-.53 1.25-1.177s-.563-1.524-1.25-1.949a.86.86 0 0 0-.487-.146zm-192.187.771c-.592 0-1.076 1.406-1.076 3.125s.214 3.125.478 3.125.748-1.406 1.076-3.125c.329-1.719.114-3.125-.478-3.125zm129.82 1.486c-.277.053-.784.402-1.521 1.014-1.032.856-1.872 2.754-1.868 4.217h-.002c.007 2.305.257 2.181 1.875-.922 1.62-3.104 2.125-4.424 1.516-4.309zm46.05 1.014c.304 0 .554.563.554 1.25 0 .688-.597 1.25-1.325 1.25s-.975-.562-.55-1.25c.424-.687 1.019-1.25 1.322-1.25zm-34.446 3.75c.687 0 1.25.563 1.25 1.25 0 .688-.563 1.25-1.25 1.25-.688 0-1.25-.562-1.25-1.25 0-.687.562-1.25 1.25-1.25z"/><path fill="none" d="M-8.586-6.021h1.515V1.05h-1.515zM-7.576 13.172h271.731v179.302H-7.576z"/><path fill="none" d="M-5.556-3.496H264.66v199.505H-5.556z"/></svg>