<svg xmlns="http://www.w3.org/2000/svg" version="1" width="700.259" height="516.397"><path d="M207 59h463l29-57H178" fill="#ff99cb"/><path d="M238 118h402l30-59H207" fill="#ffcb99"/><path d="M270 181h338l32-63H238" fill="#feff99"/><path d="M303 245h273l32-64H270" fill="#cefecc"/><path d="M337 311h205l34-66H303" fill="#cff"/><path d="M373 382h133l36-71H337" fill="#ca9bfb"/><path d="M440 512l66-130H373" fill="#fff"/><path d="M440 512L178 2h521zM0 382h506M0 311h542M0 245h576M0 181h608M0 118h640M0 59h670M0 2h178" fill="none" stroke="gray" stroke-width="4"/><text style="line-height:125%;-inkscape-font-specification:Ubuntu" x="-.545" y="356.91" font-weight="400" font-size="12.5" letter-spacing="0" word-spacing="0" font-family="Ubuntu" fill="red"><tspan x="-.545" y="356.91" font-size="30"><tspan fill="#fff">181496</tspan> (-518)</tspan></text><text y="160.885" x="-.545" style="line-height:125%;-inkscape-font-specification:Ubuntu" font-weight="400" font-size="12.5" letter-spacing="0" word-spacing="0" font-family="Ubuntu" fill="red"><tspan y="160.885" x="-.545" font-size="30"><tspan fill="#fff">184196</tspan> (-3156)</tspan></text><text style="line-height:125%;-inkscape-font-specification:Ubuntu" x="-.545" y="288.41" font-weight="400" font-size="12.5" letter-spacing="0" word-spacing="0" font-family="Ubuntu" fill="red"><tspan x="-.545" y="288.41" font-size="30"><tspan fill="#fff">182014</tspan> (-1751)</tspan></text><text style="line-height:125%;-inkscape-font-specification:Ubuntu" x="-1.415" y="223.44" font-weight="400" font-size="12.5" letter-spacing="0" word-spacing="0" font-family="Ubuntu" fill="red"><tspan x="-1.415" y="223.44" font-size="30"><tspan fill="#fff">183765</tspan> (-431)</tspan></text><text style="line-height:125%;-inkscape-font-specification:Ubuntu" x="-1.415" y="98.91" font-weight="400" font-size="12.5" letter-spacing="0" word-spacing="0" font-family="Ubuntu" fill="red"><tspan x="-1.415" y="98.91" font-size="30"><tspan fill="#fff">187352</tspan> (-2699)</tspan></text><text y="45.914" x="-.305" style="line-height:125%;-inkscape-font-specification:Ubuntu" font-weight="400" font-size="12.5" letter-spacing="0" word-spacing="0" font-family="Ubuntu" fill="#fff"><tspan y="41.915" x="-.305" font-size="30">190051</tspan></text><text y="38.75" x="239.861" style="line-height:125%;-inkscape-font-specification:Ubuntu" font-weight="400" font-size="12.5" letter-spacing="0" word-spacing="0" font-family="Ubuntu"><tspan y="38.75" x="239.861" font-size="30">GHTorrent, 01.01.2018, ≥50🟊</tspan></text><text y="97.365" x="360.784" style="line-height:125%;-inkscape-font-specification:Ubuntu" font-weight="400" font-size="12.5" letter-spacing="0" word-spacing="0" font-family="Ubuntu"><tspan y="97.365" x="360.784" font-size="30">- duplicates</tspan></text><text y="160.945" x="371.59" style="line-height:125%;-inkscape-font-specification:Ubuntu" font-weight="400" font-size="12.5" letter-spacing="0" word-spacing="0" font-family="Ubuntu"><tspan y="160.945" x="371.59" font-size="30">- removed</tspan></text><text y="221.865" x="364.09" style="line-height:125%;-inkscape-font-specification:Ubuntu" font-weight="400" font-size="12.5" letter-spacing="0" word-spacing="0" font-family="Ubuntu"><tspan y="221.865" x="364.09" font-size="30">- corrupted</tspan></text><text y="286.82" x="398.933" style="line-height:125%;-inkscape-font-specification:Ubuntu" font-weight="400" font-size="12.5" letter-spacing="0" word-spacing="0" font-family="Ubuntu"><tspan y="286.82" x="398.933" font-size="30">- bugs</tspan></text><text y="357.96" x="385.494" style="line-height:125%;-inkscape-font-specification:Ubuntu" font-weight="400" font-size="12.5" letter-spacing="0" word-spacing="0" font-family="Ubuntu"><tspan y="357.96" x="385.494" font-size="30">indexed</tspan></text></svg>