<svg xmlns="http://www.w3.org/2000/svg" xmlns:xlink="http://www.w3.org/1999/xlink" height="781.9" viewBox="0 0 720 586.425" width="960" id="svg438"><defs id="defs4" stroke-linejoin="round"><style id="style2">*{stroke-linecap:butt;stroke-linejoin:round}</style></defs><g id="figure_1" transform="translate(0 10.425)" stroke-linejoin="round"><g id="patch_1"><path d="M0 576h720V0H0z" id="path6" fill="#fff" fill-opacity="0"/></g><g id="axes_1"><g id="patch_2"><path d="M86.175 543.7H707.2V14.8H86.175z" id="path9" fill="#fff" fill-opacity="0"/></g><g id="patch_3"><path clip-path="url(#pb87b5902c5)" d="M114.403 543.7h48.72V141.995h-48.72z" id="path12" fill="#040273" stroke="#fff" stroke-linejoin="miter"/></g><g id="patch_4"><path clip-path="url(#pb87b5902c5)" d="M171.72 543.7h48.72V133.13h-48.72z" id="path15" fill="#040273" stroke="#fff" stroke-linejoin="miter"/></g><g id="patch_5"><path clip-path="url(#pb87b5902c5)" d="M229.037 543.7h48.719V116.268h-48.72z" id="path18" fill="#040273" stroke="#fff" stroke-linejoin="miter"/></g><g id="patch_6"><path clip-path="url(#pb87b5902c5)" d="M286.353 543.7h48.72V181.152h-48.72z" id="path21" fill="#040273" stroke="#fff" stroke-linejoin="miter"/></g><g id="patch_7"><path clip-path="url(#pb87b5902c5)" d="M343.67 543.7h48.719V188.405h-48.72z" id="path24" fill="#040273" stroke="#fff" stroke-linejoin="miter"/></g><g id="patch_8"><path clip-path="url(#pb87b5902c5)" d="M400.986 543.7h48.72V120.775h-48.72z" id="path27" fill="#040273" stroke="#fff" stroke-linejoin="miter"/></g><g id="patch_9"><path clip-path="url(#pb87b5902c5)" d="M458.303 543.7h48.719V166.302h-48.72z" id="path30" fill="#040273" stroke="#fff" stroke-linejoin="miter"/></g><g id="patch_10"><path clip-path="url(#pb87b5902c5)" d="M515.62 543.7h48.718V113.82H515.62z" id="path33" fill="#040273" stroke="#fff" stroke-linejoin="miter"/></g><g id="patch_11"><path clip-path="url(#pb87b5902c5)" d="M572.936 543.7h48.719V146.888h-48.72z" id="path36" fill="#040273" stroke="#fff" stroke-linejoin="miter"/></g><g id="patch_12"><path clip-path="url(#pb87b5902c5)" d="M630.253 543.7h48.719V119.474h-48.72z" id="path39" fill="#040273" stroke="#fff" stroke-linejoin="miter"/></g><g id="patch_13"><path clip-path="url(#pb87b5902c5)" d="M114.403 141.995h48.72V39.985h-48.72z" id="path42" fill="#ff7f0e" stroke="#fff" stroke-linejoin="miter"/></g><g id="patch_14"><path clip-path="url(#pb87b5902c5)" d="M171.72 133.13h48.72V39.986h-48.72z" id="path45" fill="#ff7f0e" stroke="#fff" stroke-linejoin="miter"/></g><g id="patch_15"><path clip-path="url(#pb87b5902c5)" d="M229.037 116.268h48.719V39.986h-48.72z" id="path48" fill="#ff7f0e" stroke="#fff" stroke-linejoin="miter"/></g><g id="patch_16"><path clip-path="url(#pb87b5902c5)" d="M286.353 181.152h48.72V39.986h-48.72z" id="path51" fill="#ff7f0e" stroke="#fff" stroke-linejoin="miter"/></g><g id="patch_17"><path clip-path="url(#pb87b5902c5)" d="M343.67 188.405h48.719V39.985h-48.72z" id="path54" fill="#ff7f0e" stroke="#fff" stroke-linejoin="miter"/></g><g id="patch_18"><path clip-path="url(#pb87b5902c5)" d="M400.986 120.775h48.72v-80.79h-48.72z" id="path57" fill="#ff7f0e" stroke="#fff" stroke-linejoin="miter"/></g><g id="patch_19"><path clip-path="url(#pb87b5902c5)" d="M458.303 166.302h48.719V39.986h-48.72z" id="path60" fill="#ff7f0e" stroke="#fff" stroke-linejoin="miter"/></g><g id="patch_20"><path clip-path="url(#pb87b5902c5)" d="M515.62 113.82h48.718V39.985H515.62z" id="path63" fill="#ff7f0e" stroke="#fff" stroke-linejoin="miter"/></g><g id="patch_21"><path clip-path="url(#pb87b5902c5)" d="M572.936 146.888h48.719V39.986h-48.72z" id="path66" fill="#ff7f0e" stroke="#fff" stroke-linejoin="miter"/></g><g id="patch_22"><path clip-path="url(#pb87b5902c5)" d="M630.253 119.474h48.719V39.986h-48.72z" id="path69" fill="#ff7f0e" stroke="#fff" stroke-linejoin="miter"/></g><g id="matplotlib.axis_1"><g id="xtick_1"><g id="text_1"><defs id="defs74"><path d="M64.406 67.281v-10.39q-4.984 4.64-10.625 6.922-5.64 2.296-11.984 2.296-12.5 0-19.14-7.64-6.641-7.64-6.641-22.094 0-14.406 6.64-22.047 6.64-7.64 19.14-7.64 6.345 0 11.985 2.296 5.64 2.297 10.625 6.938V5.609Q59.234 2.094 53.437.33q-5.78-1.75-12.218-1.75-16.563 0-26.094 10.124-9.516 10.14-9.516 27.672 0 17.578 9.516 27.703 9.531 10.14 26.094 10.14 6.531 0 12.312-1.734 5.797-1.734 10.875-5.203z" id="DejaVuSans-43" fill="#fff"/></defs><g transform="matrix(.18 0 0 -.18 132.478 560.877)" id="g78"><use xlink:href="#DejaVuSans-43" id="use76" width="100%" height="100%"/></g></g></g><g id="xtick_2"><g id="text_2"><defs id="defs85"><path d="M9.813 72.906h9.859V5.078q0-13.187-5-19.14-5-5.954-16.094-5.954h-3.75v8.297h3.078q6.531 0 9.219 3.672Q9.813-4.39 9.813 5.078z" id="DejaVuSans-4a" fill="#fff"/><path d="M53.516 70.516V60.89q-5.61 2.687-10.594 4-4.984 1.328-9.625 1.328-8.047 0-12.422-3.125t-4.375-8.89q0-4.845 2.906-7.313 2.907-2.453 11.016-3.97l5.953-1.218q11.031-2.11 16.281-7.406 5.25-5.297 5.25-14.172 0-10.61-7.11-16.078-7.093-5.469-20.812-5.469-5.172 0-11.015 1.172Q13.14.922 6.89 3.219v10.156q6-3.36 11.765-5.078 5.766-1.703 11.328-1.703 8.438 0 13.032 3.312 4.593 3.328 4.593 9.485 0 5.359-3.297 8.39-3.296 3.032-10.812 4.547L27.484 33.5q-11.03 2.188-15.968 6.875-4.922 4.688-4.922 13.047 0 9.672 6.812 15.234 6.813 5.563 18.766 5.563 5.14 0 10.453-.938 5.328-.922 10.89-2.765z" id="DejaVuSans-53" fill="#fff"/></defs><g transform="matrix(.18 0 0 -.18 187.71 560.877)" id="g91"><use xlink:href="#DejaVuSans-4a" id="use87" width="100%" height="100%"/><use x="29.492" xlink:href="#DejaVuSans-53" id="use89" width="100%" height="100%"/></g></g></g><g id="xtick_3"><g id="text_3"><defs id="defs97"><path d="M46 62.703V35.5h27.188v-8.297H46V0h-8.203v27.203H10.594V35.5h27.203v27.203z" id="DejaVuSans-2b" fill="#fff"/></defs><g transform="matrix(.18 0 0 -.18 232.028 560.877)" id="g105"><use xlink:href="#DejaVuSans-43" id="use99" width="100%" height="100%"/><use x="69.824" xlink:href="#DejaVuSans-2b" id="use101" width="100%" height="100%"/><use x="153.613" xlink:href="#DejaVuSans-2b" id="use103" width="100%" height="100%"/></g></g></g><g id="xtick_4"><g id="text_4"><defs id="defs112"><path d="M34.281 27.484q-10.89 0-15.093-2.484-4.204-2.484-4.204-8.5 0-4.781 3.157-7.594 3.156-2.797 8.562-2.797 7.485 0 12 5.297 4.516 5.297 4.516 14.078v2zm17.922 3.72V0H43.22v8.297Q40.14 3.328 35.547.953q-4.594-2.375-11.234-2.375-8.391 0-13.36 4.719Q6 8.016 6 15.922q0 9.219 6.172 13.906 6.187 4.688 18.437 4.688h12.61v.89q0 6.203-4.078 9.594-4.078 3.39-11.453 3.39-4.688 0-9.141-1.124-4.438-1.125-8.531-3.375v8.312q4.921 1.906 9.562 2.844 4.64.953 9.031.953 11.875 0 17.735-6.156 5.86-6.14 5.86-18.64z" id="DejaVuSans-61" fill="#fff"/><path d="M2.984 54.688H12.5L29.594 8.797l17.093 45.89h9.516L35.687 0H23.485z" id="DejaVuSans-76" fill="#fff"/></defs><g transform="matrix(.18 0 0 -.18 291.7 560.877)" id="g122"><use xlink:href="#DejaVuSans-4a" id="use114" width="100%" height="100%"/><use x="29.492" xlink:href="#DejaVuSans-61" id="use116" width="100%" height="100%"/><use x="90.771" xlink:href="#DejaVuSans-76" id="use118" width="100%" height="100%"/><use x="149.951" xlink:href="#DejaVuSans-61" id="use120" width="100%" height="100%"/></g></g></g><g id="xtick_5"><g id="text_5"><defs id="defs129"><path d="M19.672 64.797v-27.39h12.406q6.89 0 10.64 3.562 3.766 3.562 3.766 10.156 0 6.547-3.765 10.11-3.75 3.562-10.64 3.562zm-9.86 8.11h22.266q12.266 0 18.531-5.548 6.282-5.546 6.282-16.234 0-10.797-6.282-16.313-6.265-5.515-18.53-5.515H19.671V0h-9.86z" id="DejaVuSans-50" fill="#fff"/><path d="M9.813 72.906h9.859v-29.89h35.844v29.89h9.859V0h-9.86v34.719H19.673V0h-9.86z" id="DejaVuSans-48" fill="#fff"/></defs><g transform="matrix(.18 0 0 -.18 350.408 560.877)" id="g137"><use xlink:href="#DejaVuSans-50" id="use131" width="100%" height="100%"/><use x="60.303" xlink:href="#DejaVuSans-48" id="use133" width="100%" height="100%"/><use x="135.498" xlink:href="#DejaVuSans-50" id="use135" width="100%" height="100%"/></g></g></g><g id="xtick_6"><g id="text_6"><defs id="defs144"><path d="M59.516 10.406v19.578h-16.11v8.11h25.875V6.78Q63.578 2.734 56.687.656 49.813-1.422 42-1.422q-17.094 0-26.75 9.985-9.64 10-9.64 27.812 0 17.875 9.64 27.86 9.656 9.984 26.75 9.984 7.125 0 13.547-1.766 6.422-1.75 11.844-5.172v-10.5q-5.47 4.64-11.625 6.985-6.157 2.343-12.938 2.343-13.39 0-20.11-7.468-6.702-7.47-6.702-22.266 0-14.75 6.703-22.219 6.718-7.469 20.11-7.469 5.218 0 9.312.907 4.109.906 7.375 2.812z" id="DejaVuSans-47" fill="#fff"/><path d="M30.61 48.39q-7.22 0-11.422-5.64-4.204-5.64-4.204-15.453 0-9.813 4.172-15.453 4.188-5.64 11.453-5.64 7.188 0 11.375 5.655 4.203 5.672 4.203 15.438 0 9.719-4.203 15.406-4.187 5.688-11.375 5.688zm0 7.61q11.718 0 18.406-7.625 6.703-7.61 6.703-21.078 0-13.422-6.703-21.078-6.688-7.64-18.407-7.64-11.765 0-18.437 7.64-6.656 7.656-6.656 21.078 0 13.469 6.656 21.078Q18.844 56 30.609 56z" id="DejaVuSans-6f" fill="#fff"/></defs><g transform="matrix(.18 0 0 -.18 412.865 560.877)" id="g150"><use xlink:href="#DejaVuSans-47" id="use146" width="100%" height="100%"/><use x="77.49" xlink:href="#DejaVuSans-6f" id="use148" width="100%" height="100%"/></g></g></g><g id="xtick_7"><g id="text_7"><defs id="defs159"><path d="M32.172-5.078q-3.797-9.766-7.422-12.735-3.61-2.984-9.656-2.984H7.906v7.516h5.282q3.703 0 5.75 1.765Q21-9.766 23.483-3.219l1.61 4.094-22.11 53.813H12.5l17.094-42.766 17.093 42.766h9.516z" id="DejaVuSans-79" fill="#fff"/><path d="M18.313 70.219V54.688h18.5v-6.985h-18.5V18.016q0-6.688 1.828-8.594 1.828-1.906 7.453-1.906h9.218V0h-9.218q-10.407 0-14.36 3.875-3.953 3.89-3.953 14.14v29.688H2.687v6.984h6.594V70.22z" id="DejaVuSans-74" fill="#fff"/><path d="M54.89 33.016V0h-8.984v32.719q0 7.765-3.031 11.61-3.031 3.858-9.078 3.858-7.281 0-11.484-4.64-4.204-4.625-4.204-12.64V0H9.08v75.984h9.03V46.188q3.235 4.937 7.594 7.374Q30.078 56 35.797 56q9.422 0 14.25-5.828 4.844-5.828 4.844-17.156z" id="DejaVuSans-68" fill="#fff"/><path d="M54.89 33.016V0h-8.984v32.719q0 7.765-3.031 11.61-3.031 3.858-9.078 3.858-7.281 0-11.484-4.64-4.204-4.625-4.204-12.64V0H9.08v54.688h9.03v-8.5q3.235 4.937 7.594 7.374Q30.078 56 35.797 56q9.422 0 14.25-5.828 4.844-5.828 4.844-17.156z" id="DejaVuSans-6e" fill="#fff"/></defs><g transform="matrix(.18 0 0 -.18 451.466 560.877)" id="g173"><use xlink:href="#DejaVuSans-50" id="use161" width="100%" height="100%"/><use x="60.303" xlink:href="#DejaVuSans-79" id="use163" width="100%" height="100%"/><use x="119.482" xlink:href="#DejaVuSans-74" id="use165" width="100%" height="100%"/><use x="158.691" xlink:href="#DejaVuSans-68" id="use167" width="100%" height="100%"/><use x="222.07" xlink:href="#DejaVuSans-6f" id="use169" width="100%" height="100%"/><use x="283.252" xlink:href="#DejaVuSans-6e" id="use171" width="100%" height="100%"/></g></g></g><g id="xtick_8"><g id="text_8"><defs id="defs182"><path d="M39.406 66.219q-10.75 0-17.078-8.016-6.312-8-6.312-21.828 0-13.766 6.312-21.781 6.328-8 17.078-8 10.735 0 17.016 8 6.281 8.015 6.281 21.781 0 13.828-6.281 21.828-6.281 8.016-17.016 8.016zm0 8q15.328 0 24.5-10.281 9.188-10.282 9.188-27.563 0-17.234-9.188-27.516-9.172-10.28-24.5-10.28-15.375 0-24.593 10.25-9.204 10.265-9.204 27.546t9.204 27.563q9.218 10.28 24.593 10.28z" id="DejaVuSans-4f" fill="#fff"/><path d="M48.688 27.297q0 9.906-4.079 15.547-4.078 5.64-11.203 5.64-7.14 0-11.218-5.64-4.079-5.64-4.079-15.547 0-9.906 4.078-15.547 4.079-5.64 11.22-5.64 7.124 0 11.202 5.64t4.078 15.547zM18.108 46.39q2.844 4.875 7.157 7.234Q29.594 56 35.594 56q9.968 0 16.187-7.906 6.235-7.907 6.235-20.797T51.78 6.484q-6.218-7.906-16.187-7.906-6 0-10.328 2.375-4.313 2.375-7.157 7.25V0H9.08v75.984h9.03z" id="DejaVuSans-62" fill="#fff"/><path d="M9.422 54.688h8.984V-.984q0-10.438-3.984-15.125-3.969-4.688-12.813-4.688h-3.421v7.61H.594q5.125 0 6.968 2.374 1.86 2.36 1.86 9.829zm0 21.296h8.984v-11.39H9.422z" id="DejaVuSans-6a" fill="#fff"/><path d="M4.89 31.39h26.313v-8H4.891z" id="DejaVuSans-2d" fill="#fff"/></defs><g transform="matrix(.18 0 0 -.18 515.149 560.877)" id="g194"><use xlink:href="#DejaVuSans-4f" id="use184" width="100%" height="100%"/><use x="78.711" xlink:href="#DejaVuSans-62" id="use186" width="100%" height="100%"/><use x="142.188" xlink:href="#DejaVuSans-6a" id="use188" width="100%" height="100%"/><use x="169.971" xlink:href="#DejaVuSans-2d" id="use190" width="100%" height="100%"/><use x="206.055" xlink:href="#DejaVuSans-43" id="use192" width="100%" height="100%"/></g></g></g><g id="xtick_9"><g id="text_9"><defs id="defs200"><path d="M51.125 44H36.922l-4.11-16.313h14.313zm-7.328 27.781l-5.078-20.265h14.265L58.11 71.78h7.813L60.89 51.516h15.234V44h-17.14l-4-16.313h15.53V20.22H53.079L48 0h-7.813l5.032 20.219H30.906L25.875 0h-7.86l5.079 20.219H7.719v7.468h17.187L29 44H13.281v7.516h17.625l4.985 20.265z" id="DejaVuSans-23" fill="#fff"/></defs><g transform="matrix(.18 0 0 -.18 583.47 560.877)" id="g206"><use xlink:href="#DejaVuSans-43" id="use202" width="100%" height="100%"/><use x="69.824" xlink:href="#DejaVuSans-23" id="use204" width="100%" height="100%"/></g></g></g><g id="xtick_10"><g id="text_10"><defs id="defs213"><path d="M44.39 34.188q3.172-1.079 6.172-4.594 3-3.516 6.032-9.672L66.609 0H56l-9.313 18.703q-3.624 7.328-7.015 9.719-3.39 2.39-9.25 2.39h-10.75V0h-9.86v72.906h22.266q12.5 0 18.656-5.234 6.157-5.219 6.157-15.766 0-6.89-3.203-11.437-3.204-4.532-9.297-6.282zM19.673 64.797V38.922h12.406q7.125 0 10.766 3.297 3.64 3.297 3.64 9.687 0 6.39-3.64 9.64-3.64 3.25-10.766 3.25z" id="DejaVuSans-52" fill="#fff"/><path d="M8.5 21.578v33.11h8.984V21.922q0-7.766 3.016-11.656 3.031-3.875 9.094-3.875 7.265 0 11.484 4.64 4.234 4.64 4.234 12.656v31h8.985V0h-8.984v8.406Q42.047 3.422 37.718 1q-4.313-2.422-10.032-2.422-9.421 0-14.312 5.86Q8.5 10.296 8.5 21.578zM31.11 56z" id="DejaVuSans-75" fill="#fff"/></defs><g transform="matrix(.18 0 0 -.18 631.62 560.877)" id="g223"><use xlink:href="#DejaVuSans-52" id="use215" width="100%" height="100%"/><use x="69.42" xlink:href="#DejaVuSans-75" id="use217" width="100%" height="100%"/><use x="132.799" xlink:href="#DejaVuSans-62" id="use219" width="100%" height="100%"/><use x="196.275" xlink:href="#DejaVuSans-79" id="use221" width="100%" height="100%"/></g></g></g></g><g id="matplotlib.axis_2"><g id="ytick_1"><g id="line2d_11"><defs id="defs229"><path d="M0 0h-4" id="mae564dba34" fill="#fff" stroke="#fff" stroke-width=".8"/></defs><g id="g233"><use x="86.175" xlink:href="#mae564dba34" y="543.7" id="use231" width="100%" height="100%" stroke="#fff" stroke-width=".8"/></g></g><g id="text_11"><defs id="defs237"><path d="M31.781 66.406q-7.61 0-11.453-7.5Q16.5 51.422 16.5 36.375q0-14.984 3.828-22.484 3.844-7.5 11.453-7.5 7.672 0 11.5 7.5 3.844 7.5 3.844 22.484 0 15.047-3.844 22.531-3.828 7.5-11.5 7.5zm0 7.813q12.266 0 18.735-9.703 6.468-9.688 6.468-28.141 0-18.406-6.468-28.11-6.47-9.687-18.735-9.687-12.25 0-18.718 9.688-6.47 9.703-6.47 28.109 0 18.453 6.47 28.14Q19.53 74.22 31.78 74.22z" id="DejaVuSans-30" fill="#fff"/></defs><g transform="matrix(.18 0 0 -.18 67.222 550.539)" id="g241"><use xlink:href="#DejaVuSans-30" id="use239" width="100%" height="100%"/></g></g></g><g id="ytick_2"><g id="line2d_12"><g id="g247"><use x="86.175" xlink:href="#mae564dba34" y="442.957" id="use245" width="100%" height="100%" stroke="#fff" stroke-width=".8"/></g></g><g id="text_12"><defs id="defs251"><path d="M19.188 8.297h34.421V0H7.33v8.297q5.609 5.812 15.296 15.594 9.703 9.797 12.188 12.64 4.734 5.313 6.609 9 1.89 3.688 1.89 7.25 0 5.813-4.078 9.469-4.078 3.672-10.625 3.672-4.64 0-9.797-1.61-5.14-1.609-11-4.89v9.969Q13.767 71.78 18.938 73q5.188 1.219 9.485 1.219 11.328 0 18.062-5.672 6.735-5.656 6.735-15.125 0-4.5-1.688-8.531-1.672-4.016-6.125-9.485-1.218-1.422-7.765-8.187-6.532-6.766-18.453-18.922z" id="DejaVuSans-32" fill="#fff"/></defs><g transform="matrix(.18 0 0 -.18 55.77 449.796)" id="g257"><use xlink:href="#DejaVuSans-32" id="use253" width="100%" height="100%"/><use x="63.623" xlink:href="#DejaVuSans-30" id="use255" width="100%" height="100%"/></g></g></g><g id="ytick_3"><g id="line2d_13"><g id="g263"><use x="86.175" xlink:href="#mae564dba34" y="342.214" id="use261" width="100%" height="100%" stroke="#fff" stroke-width=".8"/></g></g><g id="text_13"><defs id="defs267"><path d="M37.797 64.313L12.89 25.39h24.906zm-2.594 8.593H47.61V25.391h10.407v-8.203H47.609V0h-9.812v17.188H4.89v9.515z" id="DejaVuSans-34" fill="#fff"/></defs><g transform="matrix(.18 0 0 -.18 55.77 349.053)" id="g273"><use xlink:href="#DejaVuSans-34" id="use269" width="100%" height="100%"/><use x="63.623" xlink:href="#DejaVuSans-30" id="use271" width="100%" height="100%"/></g></g></g><g id="ytick_4"><g id="line2d_14"><g id="g279"><use x="86.175" xlink:href="#mae564dba34" y="241.471" id="use277" width="100%" height="100%" stroke="#fff" stroke-width=".8"/></g></g><g id="text_14"><defs id="defs283"><path d="M33.016 40.375q-6.641 0-10.532-4.547-3.875-4.531-3.875-12.437 0-7.86 3.875-12.438 3.891-4.562 10.532-4.562 6.64 0 10.515 4.562 3.875 4.578 3.875 12.438 0 7.906-3.875 12.437-3.875 4.547-10.515 4.547zm19.578 30.922v-8.984q-3.719 1.75-7.5 2.671-3.782.938-7.5.938-9.766 0-14.922-6.594-5.14-6.594-5.875-19.922 2.875 4.25 7.219 6.516 4.359 2.266 9.578 2.266 10.984 0 17.36-6.672 6.374-6.657 6.374-18.125 0-11.235-6.64-18.032-6.641-6.78-17.672-6.78-12.657 0-19.344 9.687-6.688 9.703-6.688 28.109 0 17.281 8.204 27.563 8.203 10.28 22.015 10.28 3.719 0 7.5-.734t7.89-2.187z" id="DejaVuSans-36" fill="#fff"/></defs><g transform="matrix(.18 0 0 -.18 55.77 248.31)" id="g289"><use xlink:href="#DejaVuSans-36" id="use285" width="100%" height="100%"/><use x="63.623" xlink:href="#DejaVuSans-30" id="use287" width="100%" height="100%"/></g></g></g><g id="ytick_5"><g id="line2d_15"><g id="g295"><use x="86.175" xlink:href="#mae564dba34" y="140.729" id="use293" width="100%" height="100%" stroke="#fff" stroke-width=".8"/></g></g><g id="text_15"><defs id="defs299"><path d="M31.781 34.625q-7.031 0-11.062-3.766-4.016-3.765-4.016-10.343 0-6.594 4.016-10.36Q24.75 6.391 31.78 6.391q7.032 0 11.078 3.78 4.063 3.798 4.063 10.345 0 6.578-4.031 10.343-4.016 3.766-11.11 3.766zm-9.86 4.188q-6.343 1.562-9.89 5.906Q8.5 49.079 8.5 55.329q0 8.733 6.219 13.812 6.234 5.078 17.062 5.078 10.89 0 17.094-5.078 6.203-5.079 6.203-13.813 0-6.25-3.547-10.61-3.531-4.343-9.828-5.906 7.125-1.656 11.094-6.5 3.984-4.828 3.984-11.796 0-10.61-6.468-16.282-6.47-5.656-18.532-5.656-12.047 0-18.531 5.656-6.469 5.672-6.469 16.282 0 6.968 4 11.797 4.016 4.843 11.14 6.5zM18.314 54.39q0-5.657 3.53-8.828 3.548-3.172 9.938-3.172 6.36 0 9.938 3.172 3.593 3.171 3.593 8.828 0 5.672-3.593 8.843-3.578 3.172-9.938 3.172-6.39 0-9.937-3.172-3.532-3.172-3.532-8.843z" id="DejaVuSans-38" fill="#fff"/></defs><g transform="matrix(.18 0 0 -.18 55.77 147.567)" id="g305"><use xlink:href="#DejaVuSans-38" id="use301" width="100%" height="100%"/><use x="63.623" xlink:href="#DejaVuSans-30" id="use303" width="100%" height="100%"/></g></g></g><g id="ytick_6"><g id="line2d_16"><g id="g311"><use x="86.175" xlink:href="#mae564dba34" y="39.986" id="use309" width="100%" height="100%" stroke="#fff" stroke-width=".8"/></g></g><g id="text_16"><defs id="defs315"><path d="M12.406 8.297h16.11v55.625l-17.532-3.516v8.985l17.438 3.515h9.86V8.296H54.39V0H12.406z" id="DejaVuSans-31" fill="#fff"/></defs><g transform="matrix(.18 0 0 -.18 44.318 46.824)" id="g323"><use xlink:href="#DejaVuSans-31" id="use317" width="100%" height="100%"/><use x="63.623" xlink:href="#DejaVuSans-30" id="use319" width="100%" height="100%"/><use x="127.246" xlink:href="#DejaVuSans-30" id="use321" width="100%" height="100%"/></g></g></g><g id="text_17"><defs id="defs336"><path d="M72.703 32.078q-4.25 0-6.672-3.61-2.406-3.609-2.406-10.062 0-6.343 2.406-9.984 2.422-3.64 6.672-3.64 4.156 0 6.563 3.64 2.421 3.64 2.421 9.984 0 6.407-2.421 10.032-2.407 3.64-6.563 3.64zm0 6.203q7.719 0 12.25-5.375 4.547-5.36 4.547-14.5 0-9.125-4.563-14.484-4.562-5.344-12.234-5.344-7.812 0-12.36 5.344-4.53 5.36-4.53 14.484 0 9.188 4.562 14.532 4.563 5.343 12.328 5.343zm-50.39 29.735q-4.204 0-6.625-3.641-2.407-3.625-2.407-9.984 0-6.438 2.39-10.063 2.392-3.61 6.642-3.61t6.656 3.61q2.422 3.625 2.422 10.063 0 6.297-2.438 9.953-2.437 3.672-6.64 3.672zm44.093 6.203h7.813l-45.61-75.64h-7.812zm-44.094 0q7.72 0 12.297-5.344 4.594-5.344 4.594-14.484 0-9.22-4.562-14.547-4.563-5.328-12.328-5.328-7.766 0-12.282 5.343-4.515 5.36-4.515 14.532 0 9.093 4.53 14.453 4.548 5.375 12.267 5.375z" id="DejaVuSans-25" fill="#fff"/><path d="M37.11 75.984V68.5h-8.594q-4.828 0-6.72-1.953-1.874-1.953-1.874-7.031v-4.828h14.797v-6.985H19.922V0H10.89v47.703H2.297v6.984h8.594V58.5q0 9.125 4.25 13.297 4.25 4.187 13.468 4.187z" id="DejaVuSans-66" fill="#fff"/><path d="M56.203 29.594v-4.39H14.891q.593-9.282 5.593-14.142 5-4.859 13.938-4.859 5.172 0 10.031 1.266 4.86 1.265 9.656 3.812v-8.5Q49.266.734 44.187-.344 39.11-1.422 33.892-1.422q-13.094 0-20.735 7.61-7.64 7.625-7.64 20.625 0 13.421 7.25 21.296Q20.016 56 32.328 56q11.031 0 17.453-7.11 6.422-7.093 6.422-19.296zm-8.984 2.64q-.094 7.36-4.125 11.75-4.032 4.407-10.672 4.407-7.516 0-12.031-4.25-4.516-4.25-5.203-11.97z" id="DejaVuSans-65" fill="#fff"/><path d="M41.11 46.297q-1.516.875-3.297 1.281Q36.03 48 33.89 48q-7.625 0-11.703-4.953-4.079-4.953-4.079-14.234V0H9.08v54.688h9.03v-8.5q2.844 4.984 7.375 7.39Q30.031 56 36.531 56q.922 0 2.047-.125 1.125-.11 2.484-.36z" id="DejaVuSans-72" fill="#fff"/><path d="M9.422 75.984h8.984V0H9.422z" id="DejaVuSans-6c" fill="#fff"/><path d="M44.281 53.078v-8.5q-3.797 1.953-7.906 2.922-4.094.984-8.5.984-6.688 0-10.031-2.047-3.344-2.046-3.344-6.156 0-3.125 2.39-4.906 2.391-1.781 9.626-3.39l3.078-.688q9.562-2.047 13.593-5.781 4.032-3.735 4.032-10.422 0-7.625-6.032-12.078-6.03-4.438-16.578-4.438-4.39 0-9.156.86Q10.688.296 5.422 2v9.281q4.984-2.594 9.812-3.89 4.829-1.282 9.579-1.282 6.343 0 9.75 2.172 3.421 2.172 3.421 6.125 0 3.656-2.468 5.61-2.453 1.953-10.813 3.765l-3.125.735q-8.344 1.75-12.062 5.39-3.704 3.64-3.704 9.985 0 7.718 5.47 11.906Q16.75 56 26.811 56q4.97 0 9.36-.734 4.406-.72 8.11-2.188z" id="DejaVuSans-73" fill="#fff"/><path d="M48.781 52.594v-8.407q-3.812 2.11-7.64 3.157-3.828 1.047-7.735 1.047-8.75 0-13.593-5.547-4.829-5.532-4.829-15.547 0-10.016 4.829-15.563 4.843-5.53 13.593-5.53 3.907 0 7.735 1.046 3.828 1.047 7.64 3.156V2.094Q45.016.344 40.984-.531q-4.015-.89-8.562-.89-12.36 0-19.64 7.765-7.266 7.765-7.266 20.953 0 13.375 7.343 21.031Q20.22 56 33.016 56q4.14 0 8.093-.86 3.953-.843 7.672-2.546z" id="DejaVuSans-63" fill="#fff"/><path d="M45.406 46.39v29.594h8.985V0h-8.985v8.203Q42.578 3.328 38.25.953q-4.313-2.375-10.375-2.375-9.906 0-16.14 7.906-6.22 7.922-6.22 20.813 0 12.89 6.22 20.797Q17.968 56 27.874 56q6.063 0 10.375-2.375 4.328-2.36 7.156-7.234zm-30.61-19.093q0-9.906 4.079-15.547 4.078-5.64 11.203-5.64 7.125 0 11.219 5.64 4.11 5.64 4.11 15.547 0 9.906-4.11 15.547-4.094 5.64-11.219 5.64-7.125 0-11.203-5.64-4.078-5.64-4.078-15.547z" id="DejaVuSans-64" fill="#fff"/></defs><g transform="matrix(0 -.2 -.2 0 25.158 402.633)" id="g386"><use xlink:href="#DejaVuSans-25" id="use338" width="100%" height="100%"/><use x="95.02" xlink:href="#DejaVuSans-20" id="use340" width="100%" height="100%"/><use x="126.807" xlink:href="#DejaVuSans-6f" id="use342" width="100%" height="100%"/><use x="187.988" xlink:href="#DejaVuSans-66" id="use344" width="100%" height="100%"/><use x="223.193" xlink:href="#DejaVuSans-20" id="use346" width="100%" height="100%"/><use x="254.98" xlink:href="#DejaVuSans-6f" id="use348" width="100%" height="100%"/><use x="316.162" xlink:href="#DejaVuSans-76" id="use350" width="100%" height="100%"/><use x="375.342" xlink:href="#DejaVuSans-65" id="use352" width="100%" height="100%"/><use x="436.865" xlink:href="#DejaVuSans-72" id="use354" width="100%" height="100%"/><use x="477.979" xlink:href="#DejaVuSans-61" id="use356" width="100%" height="100%"/><use x="539.258" xlink:href="#DejaVuSans-6c" id="use358" width="100%" height="100%"/><use x="567.041" xlink:href="#DejaVuSans-6c" id="use360" width="100%" height="100%"/><use x="594.824" xlink:href="#DejaVuSans-20" id="use362" width="100%" height="100%"/><use x="626.611" xlink:href="#DejaVuSans-73" id="use364" width="100%" height="100%"/><use x="678.711" xlink:href="#DejaVuSans-6f" id="use366" width="100%" height="100%"/><use x="739.893" xlink:href="#DejaVuSans-75" id="use368" width="100%" height="100%"/><use x="803.271" xlink:href="#DejaVuSans-72" id="use370" width="100%" height="100%"/><use x="844.354" xlink:href="#DejaVuSans-63" id="use372" width="100%" height="100%"/><use x="899.334" xlink:href="#DejaVuSans-65" id="use374" width="100%" height="100%"/><use x="960.857" xlink:href="#DejaVuSans-20" id="use376" width="100%" height="100%"/><use x="992.645" xlink:href="#DejaVuSans-63" id="use378" width="100%" height="100%"/><use x="1047.625" xlink:href="#DejaVuSans-6f" id="use380" width="100%" height="100%"/><use x="1108.807" xlink:href="#DejaVuSans-64" id="use382" width="100%" height="100%"/><use x="1172.283" xlink:href="#DejaVuSans-65" id="use384" width="100%" height="100%"/></g></g></g><g id="patch_23"><path d="M86.175 543.7V14.8" id="path390" fill="none" stroke="#fff" stroke-width=".8" stroke-linecap="square" stroke-linejoin="miter"/></g><g id="legend_1"><g id="patch_25"><path d="M231.03 6.292h44v-15.4h-44z" id="path393" fill="#040273" stroke="#fff" stroke-linejoin="miter"/></g><g id="text_18"><g transform="matrix(.22 0 0 -.22 292.63 6.292)" id="g404"><use xlink:href="#DejaVuSans-43" id="use396" width="100%" height="100%"/><use x="69.824" xlink:href="#DejaVuSans-6f" id="use398" width="100%" height="100%"/><use x="131.006" xlink:href="#DejaVuSans-64" id="use400" width="100%" height="100%"/><use x="194.482" xlink:href="#DejaVuSans-65" id="use402" width="100%" height="100%"/></g></g><g id="patch_26"><path d="M392.958 6.292h44v-15.4h-44z" id="path407" fill="#ff7f0e" stroke="#fff" stroke-linejoin="miter"/></g><g id="text_19"><defs id="defs411"><path d="M52 44.188q3.375 6.062 8.063 8.937Q64.75 56 71.093 56q8.548 0 13.188-5.984 4.64-5.97 4.64-17V0h-9.03v32.719q0 7.86-2.797 11.656-2.781 3.813-8.485 3.813-6.984 0-11.046-4.641-4.047-4.625-4.047-12.64V0h-9.032v32.719q0 7.906-2.78 11.687-2.782 3.782-8.595 3.782-6.89 0-10.953-4.657-4.047-4.656-4.047-12.625V0H9.08v54.688h9.03v-8.5q3.078 5.03 7.375 7.421Q29.781 56 35.687 56q5.97 0 10.141-3.031Q50 49.953 52 44.187z" id="DejaVuSans-6d" fill="#fff"/></defs><g transform="matrix(.22 0 0 -.22 454.558 6.292)" id="g427"><use xlink:href="#DejaVuSans-43" id="use413" width="100%" height="100%"/><use x="69.824" xlink:href="#DejaVuSans-6f" id="use415" width="100%" height="100%"/><use x="131.006" xlink:href="#DejaVuSans-6d" id="use417" width="100%" height="100%"/><use x="228.418" xlink:href="#DejaVuSans-6d" id="use419" width="100%" height="100%"/><use x="325.83" xlink:href="#DejaVuSans-65" id="use421" width="100%" height="100%"/><use x="387.354" xlink:href="#DejaVuSans-6e" id="use423" width="100%" height="100%"/><use x="450.732" xlink:href="#DejaVuSans-74" id="use425" width="100%" height="100%"/></g></g></g></g></g><defs id="defs436"><clipPath id="pb87b5902c5" stroke-linejoin="round"><path id="rect433" d="M86.175 14.8H707.2v528.9H86.175z"/></clipPath></defs></svg>