<svg xmlns="http://www.w3.org/2000/svg" width="146.283" height="118.102" viewBox="0 0 38.704 31.248"><path d="M21.199 30.71l16.885-11.649c.912-.628.803-1.638-.23-2.256l-3.668-2.192-4.205 2.79c.388.66.198 1.424-.6 1.959-.81.54-2.012.692-3.07.458l-4.292 2.847c.378.702.152 1.519-.7 2.088-1.198.802-3.153.802-4.35 0-1.187-.795-1.163-2.069.036-2.847.895-.58 2.199-.724 3.292-.43l4.007-2.625H13.726c-.146.183-.34.356-.58.509-1.198.756-3.097.756-4.227 0-1.12-.75-1.043-1.954.153-2.688 1.188-.728 3.044-.728 4.164 0 .278.181.487.391.624.616h10.585a1.98 1.98 0 0 1 .625-.616c.85-.552 2.12-.684 3.199-.402l4.147-2.716-11.37-6.796c-.917-.547-2.393-.547-3.309 0L.85 16.855c-1.033.617-1.142 1.628-.23 2.258L17.426 30.71c1.038.717 2.734.717 3.772 0" fill="#701008"/><path d="M34.186 14.613l-4.205 2.79c.388.66.198 1.424-.6 1.959-.81.54-2.012.692-3.07.458l-4.292 2.847c.378.702.152 1.519-.7 2.088-1.198.802-3.153.802-4.35 0-1.187-.795-1.163-2.069.036-2.847.895-.58 2.199-.724 3.292-.43l4.007-2.625H13.726c-.146.183-.34.356-.58.509-1.198.756-3.097.756-4.227 0-1.12-.75-1.043-1.954.153-2.688 1.188-.728 3.044-.728 4.164 0 .278.181.487.391.624.616h10.585a1.98 1.98 0 0 1 .625-.616c.85-.552 2.12-.684 3.199-.402l4.147-2.716" fill="#fff" fill-opacity=".376"/><path d="M21.199 29.123l16.885-11.65c.912-.627.803-1.638-.23-2.256l-3.668-2.191-4.205 2.789c.388.66.198 1.425-.6 1.959-.81.54-2.012.693-3.07.459l-4.292 2.847c.378.702.152 1.518-.7 2.088-1.198.801-3.153.801-4.35 0-1.187-.795-1.163-2.07.036-2.848.895-.58 2.199-.723 3.292-.43l4.007-2.624H13.726c-.146.182-.34.355-.58.508-1.198.756-3.097.756-4.227 0-1.12-.75-1.043-1.953.153-2.687 1.188-.729 3.044-.729 4.164 0 .278.18.487.39.624.615h10.585a1.98 1.98 0 0 1 .625-.615c.85-.552 2.12-.685 3.199-.402l4.147-2.717-11.37-6.795c-.917-.547-2.393-.547-3.309 0L.85 15.267c-1.033.618-1.142 1.628-.23 2.258l16.807 11.598c1.038.716 2.734.716 3.772 0" fill="#95150b"/><path d="M34.186 13.026l-4.205 2.789c.388.66.198 1.425-.6 1.959-.81.54-2.012.693-3.07.459l-4.292 2.847c.378.702.152 1.518-.7 2.088-1.198.801-3.153.801-4.35 0-1.187-.795-1.163-2.07.036-2.848.895-.58 2.199-.723 3.292-.43l4.007-2.624H13.726c-.146.182-.34.355-.58.508-1.198.756-3.097.756-4.227 0-1.12-.75-1.043-1.953.153-2.687 1.188-.729 3.044-.729 4.164 0 .278.18.487.39.624.615h10.585a1.98 1.98 0 0 1 .625-.615c.85-.552 2.12-.685 3.199-.402l4.147-2.717" fill="#fff" fill-opacity=".376"/><path d="M21.199 27.535l16.885-11.649c.912-.628.803-1.638-.23-2.256l-3.668-2.192-4.205 2.79c.388.66.198 1.424-.6 1.959-.81.54-2.012.692-3.07.458l-4.292 2.847c.378.702.152 1.519-.7 2.088-1.198.802-3.153.802-4.35 0-1.187-.795-1.163-2.069.036-2.847.895-.58 2.199-.724 3.292-.43l4.007-2.625H13.726c-.146.183-.34.356-.58.509-1.198.756-3.097.756-4.227 0-1.12-.75-1.043-1.954.153-2.688 1.188-.728 3.044-.728 4.164 0 .278.181.487.391.624.616h10.585a1.98 1.98 0 0 1 .625-.616c.85-.552 2.12-.684 3.199-.402l4.147-2.716-11.37-6.796c-.917-.547-2.393-.547-3.309 0L.85 13.68c-1.033.617-1.142 1.628-.23 2.258l16.807 11.597c1.038.717 2.734.717 3.772 0" fill="#ba1a0e"/><path d="M34.186 11.438l-4.205 2.79c.388.66.198 1.424-.6 1.959-.81.54-2.012.692-3.07.458l-4.292 2.847c.378.702.152 1.519-.7 2.088-1.198.802-3.153.802-4.35 0-1.187-.795-1.163-2.069.036-2.847.895-.58 2.199-.724 3.292-.43l4.007-2.625H13.726c-.146.183-.34.356-.58.509-1.198.756-3.097.756-4.227 0-1.12-.75-1.043-1.954.153-2.688 1.188-.728 3.044-.728 4.164 0 .278.181.487.391.624.616h10.585a1.98 1.98 0 0 1 .625-.616c.85-.552 2.12-.684 3.199-.402l4.147-2.716" fill="#fff" fill-opacity=".376"/><g><path d="M21.199 25.948l16.885-11.65c.912-.627.803-1.638-.23-2.256l-3.668-2.191-4.205 2.789c.388.66.198 1.425-.6 1.959-.81.54-2.012.693-3.07.459l-4.292 2.847c.378.702.152 1.518-.7 2.088-1.198.801-3.153.801-4.35 0-1.187-.795-1.163-2.07.036-2.848.895-.58 2.199-.723 3.292-.43l4.007-2.624H13.726c-.146.182-.34.355-.58.508-1.198.756-3.097.756-4.227 0-1.12-.75-1.043-1.953.153-2.687 1.188-.729 3.044-.729 4.164 0 .278.18.487.39.624.615h10.585a1.98 1.98 0 0 1 .625-.615c.85-.552 2.12-.685 3.199-.402l4.147-2.717-11.37-6.795c-.917-.547-2.393-.547-3.309 0L.85 12.092C-.183 12.71-.292 13.72.62 14.35l16.807 11.598c1.038.716 2.734.716 3.772 0" fill="#df1f11"/><path d="M34.186 9.85l-4.205 2.79c.388.66.198 1.425-.6 1.959-.81.54-2.012.693-3.07.459l-4.292 2.847c.378.702.152 1.518-.7 2.088-1.198.801-3.153.801-4.35 0-1.187-.795-1.163-2.07.036-2.848.895-.58 2.199-.723 3.292-.43l4.007-2.624H13.726c-.146.182-.34.355-.58.508-1.198.756-3.097.756-4.227 0-1.12-.75-1.043-1.953.153-2.687 1.188-.729 3.044-.729 4.164 0 .278.18.487.39.624.615h10.585a1.98 1.98 0 0 1 .625-.615c.85-.552 2.12-.685 3.199-.402l4.147-2.717" fill="#fff" fill-opacity=".376"/></g><g><path d="M21.199 24.36l16.885-11.649c.912-.628.803-1.638-.23-2.256l-3.668-2.192-4.205 2.79c.388.66.198 1.424-.6 1.959-.81.54-2.012.692-3.07.458l-4.292 2.847c.378.702.152 1.519-.7 2.088-1.198.802-3.153.802-4.35 0-1.187-.795-1.163-2.069.036-2.847.895-.58 2.199-.724 3.292-.43l4.007-2.625H13.726c-.146.183-.34.356-.58.509-1.198.756-3.097.756-4.227 0-1.12-.75-1.043-1.954.153-2.688 1.188-.728 3.044-.728 4.164 0 .278.181.487.391.624.616h10.585a1.98 1.98 0 0 1 .625-.616c.85-.552 2.12-.684 3.199-.402l4.147-2.716L21.046.41c-.917-.547-2.393-.547-3.309 0L.85 10.505c-1.033.617-1.142 1.628-.23 2.258L17.426 24.36c1.038.717 2.734.717 3.772 0" fill="#ef3c2f"/><path d="M34.186 8.263l-4.205 2.79c.388.66.198 1.424-.6 1.959-.81.54-2.012.692-3.07.458l-4.292 2.847c.378.702.152 1.519-.7 2.088-1.198.802-3.153.802-4.35 0-1.187-.795-1.163-2.069.036-2.847.895-.58 2.199-.724 3.292-.43l4.007-2.625H13.726c-.146.183-.34.356-.58.509-1.198.756-3.097.756-4.227 0-1.12-.75-1.043-1.954.153-2.688 1.188-.728 3.044-.728 4.164 0 .278.181.487.391.624.616h10.585a1.98 1.98 0 0 1 .625-.616c.85-.552 2.12-.684 3.199-.402l4.147-2.716" fill="#fff" fill-opacity=".376"/></g></svg>