<svg xmlns="http://www.w3.org/2000/svg" version="1.2" width="480.076" height="149.707" viewBox="0 0 12702 3961" preserveAspectRatio="xMidYMid" fill-rule="evenodd" stroke-width="28.222" stroke-linejoin="round"><defs class="ClipPathGroup"><clipPath id="a"><path d="M0 0h21000v29700H0z"/></clipPath></defs><g class="SlideGroup"><g class="Slide" clip-path="url(#a)" transform="translate(-2269 -2270)"><g class="Page"><g class="com.sun.star.drawing.LineShape"><path class="BoundingBox" fill="none" d="M2269 3390h12702v301H2269z"/><path d="M2270 3540h12270" fill="none" stroke="#000"/><path d="M14970 3540l-450-150v300z"/></g><g class="com.sun.star.drawing.EllipseShape"><path class="BoundingBox" fill="none" d="M10525 2270h2541v1270h-2541z"/><path d="M10525 3538c0-233 54-431 170-633 117-202 263-348 465-465s401-170 635-170 433 53 635 170 348 263 465 465c116 202 170 400 170 633z" fill="#50b0b9"/></g><g class="com.sun.star.drawing.LineShape"><path class="BoundingBox" fill="none" d="M2269 5930h12702v301H2269z"/><path d="M2270 6080h12270" fill="none" stroke="#000"/><path d="M14970 6080l-450-150v300z"/></g><g class="com.sun.star.drawing.EllipseShape"><path class="BoundingBox" fill="none" d="M4150 4810h2541v1270H4150z"/><path d="M4150 6078c0-233 54-431 170-633 117-202 263-348 465-465s401-170 635-170 433 53 635 170 348 263 465 465c116 202 170 400 170 633z" fill="#50b0b9"/></g></g></g></g></svg>