<svg xmlns="http://www.w3.org/2000/svg" version="1.2" width="642.524" height="337.823" viewBox="0 0 17000.111 8938.222" preserveAspectRatio="xMidYMid" fill-rule="evenodd" stroke-width="28.222" stroke-linejoin="round"><defs class="ClipPathGroup"><clipPath id="a"><path d="M0 0h21000v29700H0z"/></clipPath></defs><g class="SlideGroup"><g class="Slide" clip-path="url(#a)" transform="translate(-1794 -2236.889)"><g class="Page"><g class="com.sun.star.drawing.CustomShape"><path class="BoundingBox" fill="none" d="M2269 2269h4335v2543H2269z"/><path d="M3540 2270c234 0 433 53 635 170 203 117 348 262 465 465 117 202 171 401 171 635s-54 433-171 635c-117 203-262 348-465 465-202 117-401 171-635 171s-433-54-635-171c-203-117-348-262-465-465-117-202-170-401-170-635-1-234 53-433 170-635 117-203 262-348 465-465 202-117 401-170 635-170z" fill="#fff"/><path d="M3540 2270c234 0 433 53 635 170 203 117 348 262 465 465 117 202 171 401 171 635s-54 433-171 635c-117 203-262 348-465 465-202 117-401 171-635 171s-433-54-635-171c-203-117-348-262-465-465-117-202-170-401-170-635-1-234 53-433 170-635 117-203 262-348 465-465 202-117 401-170 635-170z" fill="none" stroke="#000"/><path d="M3128 2933c22 0 40 9 59 29 18 20 32 46 43 81 11 34 16 69 16 109s-5 75-16 109c-11 35-25 61-43 81-19 20-37 29-59 29s-40-9-59-29c-18-20-32-46-43-81-11-34-15-69-15-109s4-75 15-109c11-35 25-61 43-81 19-20 37-29 59-29z"/><path d="M3128 2933c22 0 40 9 59 29 18 20 32 46 43 81 11 34 16 69 16 109s-5 75-16 109c-11 35-25 61-43 81-19 20-37 29-59 29s-40-9-59-29c-18-20-32-46-43-81-11-34-15-69-15-109s4-75 15-109c11-35 25-61 43-81 19-20 37-29 59-29z" fill="none" stroke="#000"/><path d="M3950 2933c22 0 40 9 59 29 18 20 32 46 43 81 11 34 16 69 16 109s-5 75-16 109c-11 35-25 61-43 81-19 20-37 29-59 29s-40-9-59-29c-18-20-32-46-43-81-11-34-15-69-15-109s4-75 15-109c11-35 25-61 43-81 19-20 37-29 59-29z" fill="#ccc"/><path d="M3950 2933c22 0 40 9 59 29 18 20 32 46 43 81 11 34 16 69 16 109s-5 75-16 109c-11 35-25 61-43 81-19 20-37 29-59 29s-40-9-59-29c-18-20-32-46-43-81-11-34-15-69-15-109s4-75 15-109c11-35 25-61 43-81 19-20 37-29 59-29z" stroke="#000"/><path d="M2842 3976c449 472 947 472 1396 0" fill="none" stroke="#000"/><g aria-label="User A" fill="#fff"><path d="M5129.105 3401.62q-31.75 0-59.69-8.89-27.305-9.525-47.625-30.48-19.685-21.59-31.115-55.88-11.43-34.29-11.43-84.455V2977.44h52.705v245.745q0 37.465 7.62 62.865t20.32 40.64q13.335 15.24 31.115 22.225 17.78 6.35 38.1 6.35 20.955 0 38.735-6.35 17.78-6.985 31.115-22.225 13.335-15.24 20.955-40.64 7.62-25.4 7.62-62.865V2977.44h50.8v244.475q0 50.165-11.43 84.455t-31.75 55.88q-19.685 20.955-46.99 30.48-27.305 8.89-59.055 8.89zM5463.512 3401.62q-33.02 0-62.865-12.065t-52.07-30.48l26.035-34.925q20.32 16.51 41.275 26.67 21.59 10.16 49.53 10.16 30.48 0 45.72-13.97 15.24-13.97 15.24-34.29 0-12.065-6.35-20.955-6.35-8.89-16.51-15.24-9.525-6.985-22.225-12.065l-25.4-10.16q-16.51-5.715-33.02-12.7-16.51-7.62-29.845-17.78-12.7-10.795-20.955-24.765-8.255-13.97-8.255-33.655 0-18.415 6.985-34.29 7.62-16.51 20.955-27.94 13.97-12.065 33.655-18.415 19.685-6.985 44.45-6.985 29.21 0 53.34 10.16 24.765 10.16 42.545 24.765l-24.765 33.02q-15.875-12.065-33.02-19.685-17.145-7.62-37.465-7.62-29.21 0-43.18 13.335-13.335 13.335-13.335 31.115 0 10.795 5.715 19.05 5.715 7.62 15.24 13.97 9.525 5.715 21.59 10.795 12.7 4.445 26.035 9.525 16.51 6.35 33.02 13.335 17.145 6.985 30.48 17.78 13.335 10.16 21.59 25.4 8.89 15.24 8.89 36.83 0 19.05-7.62 35.56-6.985 16.51-21.59 29.21-13.97 12.7-35.56 19.685-20.955 7.62-48.26 7.62zM5774.612 3401.62q-31.115 0-58.42-10.795-26.67-11.43-46.99-31.75-19.685-20.955-31.115-50.8t-11.43-67.945q0-38.1 11.43-67.945 12.065-30.48 31.115-51.435 19.685-20.955 44.45-31.75 24.765-11.43 51.435-11.43 29.21 0 52.07 10.16 23.495 10.16 38.735 29.21 15.875 19.05 24.13 45.72 8.255 26.67 8.255 59.69 0 8.255-.635 16.51 0 7.62-1.27 13.335h-208.28q3.175 49.53 30.48 78.74 27.94 28.575 72.39 28.575 22.225 0 40.64-6.35 19.05-6.985 36.195-17.78l18.415 34.29q-20.32 12.7-45.085 22.225-24.765 9.525-56.515 9.525zm-97.155-186.69h165.1q0-46.99-20.32-71.12-19.685-24.765-55.88-24.765-16.51 0-31.75 6.35-14.605 6.35-26.67 19.05-12.065 12.065-20.32 29.845-7.62 17.78-10.16 40.64zM5964.537 3394v-308.61h43.18l4.445 55.88h1.905q15.875-29.21 38.1-46.355 22.86-17.145 49.53-17.145 18.415 0 33.02 6.35l-10.16 45.72q-7.62-2.54-13.97-3.81-6.35-1.27-15.875-1.27-19.685 0-41.275 15.875-20.955 15.875-36.83 55.245V3394zM6388.637 3160.955l-19.685 63.5h125.095l-19.685-63.5q-11.43-34.925-21.59-69.215-10.16-34.925-20.32-71.12h-2.54q-9.525 36.195-19.685 71.12-10.16 34.29-21.59 69.215zm-127 233.045l140.97-416.56h59.69l140.97 416.56h-56.515l-39.37-127h-151.765l-40.005 127z"/></g></g><g class="com.sun.star.drawing.CustomShape"><path class="BoundingBox" fill="none" d="M2269 8619h4339v2543H2269z"/><path d="M3540 8620c234 0 433 53 635 170 203 117 348 262 465 465 117 202 171 401 171 635s-54 433-171 635c-117 203-262 348-465 465-202 117-401 171-635 171s-433-54-635-171c-203-117-348-262-465-465-117-202-170-401-170-635-1-234 53-433 170-635 117-203 262-348 465-465 202-117 401-170 635-170z" fill="#fff"/><path d="M3540 8620c234 0 433 53 635 170 203 117 348 262 465 465 117 202 171 401 171 635s-54 433-171 635c-117 203-262 348-465 465-202 117-401 171-635 171s-433-54-635-171c-203-117-348-262-465-465-117-202-170-401-170-635-1-234 53-433 170-635 117-203 262-348 465-465 202-117 401-170 635-170z" fill="none" stroke="#000"/><path d="M3128 9283c22 0 40 9 59 29 18 20 32 46 43 81 11 34 16 69 16 109s-5 75-16 110c-11 34-25 60-43 80-19 20-37 29-59 29s-40-9-59-29c-18-20-32-46-43-80-11-35-15-70-15-110s4-75 15-109c11-35 25-61 43-81 19-20 37-29 59-29z"/><path d="M3128 9283c22 0 40 9 59 29 18 20 32 46 43 81 11 34 16 69 16 109s-5 75-16 110c-11 34-25 60-43 80-19 20-37 29-59 29s-40-9-59-29c-18-20-32-46-43-80-11-35-15-70-15-110s4-75 15-109c11-35 25-61 43-81 19-20 37-29 59-29z" fill="none" stroke="#000"/><path d="M3950 9283c22 0 40 9 59 29 18 20 32 46 43 81 11 34 16 69 16 109s-5 75-16 110c-11 34-25 60-43 80-19 20-37 29-59 29s-40-9-59-29c-18-20-32-46-43-80-11-35-15-70-15-110s4-75 15-109c11-35 25-61 43-81 19-20 37-29 59-29z" fill="#ccc"/><path d="M3950 9283c22 0 40 9 59 29 18 20 32 46 43 81 11 34 16 69 16 109s-5 75-16 110c-11 34-25 60-43 80-19 20-37 29-59 29s-40-9-59-29c-18-20-32-46-43-80-11-35-15-70-15-110s4-75 15-109c11-35 25-61 43-81 19-20 37-29 59-29z" stroke="#000"/><path d="M2842 10326c449 472 947 472 1396 0" fill="none" stroke="#000"/><g aria-label="User B" fill="#fff"><path d="M5129.105 10496.62q-31.75 0-59.69-8.89-27.305-9.525-47.625-30.48-19.685-21.59-31.115-55.88-11.43-34.29-11.43-84.455v-244.475h52.705v245.745q0 37.465 7.62 62.865t20.32 40.64q13.335 15.24 31.115 22.225 17.78 6.35 38.1 6.35 20.955 0 38.735-6.35 17.78-6.985 31.115-22.225 13.335-15.24 20.955-40.64 7.62-25.4 7.62-62.865v-245.745h50.8v244.475q0 50.165-11.43 84.455t-31.75 55.88q-19.685 20.955-46.99 30.48-27.305 8.89-59.055 8.89zM5463.512 10496.62q-33.02 0-62.865-12.065t-52.07-30.48l26.035-34.925q20.32 16.51 41.275 26.67 21.59 10.16 49.53 10.16 30.48 0 45.72-13.97 15.24-13.97 15.24-34.29 0-12.065-6.35-20.955-6.35-8.89-16.51-15.24-9.525-6.985-22.225-12.065l-25.4-10.16q-16.51-5.715-33.02-12.7-16.51-7.62-29.845-17.78-12.7-10.795-20.955-24.765-8.255-13.97-8.255-33.655 0-18.415 6.985-34.29 7.62-16.51 20.955-27.94 13.97-12.065 33.655-18.415 19.685-6.985 44.45-6.985 29.21 0 53.34 10.16 24.765 10.16 42.545 24.765l-24.765 33.02q-15.875-12.065-33.02-19.685-17.145-7.62-37.465-7.62-29.21 0-43.18 13.335-13.335 13.335-13.335 31.115 0 10.795 5.715 19.05 5.715 7.62 15.24 13.97 9.525 5.715 21.59 10.795 12.7 4.445 26.035 9.525 16.51 6.35 33.02 13.335 17.145 6.985 30.48 17.78 13.335 10.16 21.59 25.4 8.89 15.24 8.89 36.83 0 19.05-7.62 35.56-6.985 16.51-21.59 29.21-13.97 12.7-35.56 19.685-20.955 7.62-48.26 7.62zM5774.612 10496.62q-31.115 0-58.42-10.795-26.67-11.43-46.99-31.75-19.685-20.955-31.115-50.8t-11.43-67.945q0-38.1 11.43-67.945 12.065-30.48 31.115-51.435 19.685-20.955 44.45-31.75 24.765-11.43 51.435-11.43 29.21 0 52.07 10.16 23.495 10.16 38.735 29.21 15.875 19.05 24.13 45.72 8.255 26.67 8.255 59.69 0 8.255-.635 16.51 0 7.62-1.27 13.335h-208.28q3.175 49.53 30.48 78.74 27.94 28.575 72.39 28.575 22.225 0 40.64-6.35 19.05-6.985 36.195-17.78l18.415 34.29q-20.32 12.7-45.085 22.225-24.765 9.525-56.515 9.525zm-97.155-186.69h165.1q0-46.99-20.32-71.12-19.685-24.765-55.88-24.765-16.51 0-31.75 6.35-14.605 6.35-26.67 19.05-12.065 12.065-20.32 29.845-7.62 17.78-10.16 40.64zM5964.537 10489v-308.61h43.18l4.445 55.88h1.905q15.875-29.21 38.1-46.355 22.86-17.145 49.53-17.145 18.415 0 33.02 6.35l-10.16 45.72q-7.62-2.54-13.97-3.81-6.35-1.27-15.875-1.27-19.685 0-41.275 15.875-20.955 15.875-36.83 55.245V10489zM6316.882 10489v-416.56h123.825q31.75 0 57.785 5.715 26.67 5.715 45.085 17.78 19.05 12.065 29.21 31.75 10.795 19.05 10.795 46.355 0 31.115-15.875 56.515-15.24 24.765-45.085 34.29v2.54q38.1 6.985 61.595 31.75 23.495 24.765 23.495 67.945 0 30.48-11.43 53.34-11.43 22.86-32.385 38.1-20.955 15.24-50.165 22.86-29.21 7.62-64.135 7.62zm52.705-239.395h61.595q53.34 0 76.835-18.415 23.495-18.415 23.495-50.165 0-36.195-24.765-51.435-24.13-15.24-73.025-15.24h-64.135zm0 197.485h72.39q53.975 0 83.82-19.685 29.845-20.32 29.845-62.23 0-38.735-29.21-56.515-29.21-18.415-84.455-18.415h-72.39z"/></g></g><g class="com.sun.star.drawing.CustomShape"><path class="BoundingBox" fill="none" d="M6079 6079h2544v1274H6079z"/><path d="M6291 6080c-106 0-211 105-211 211v848c0 106 105 212 211 212h2118c106 0 212-106 212-212v-848c0-106-106-211-212-211z" fill="none" stroke="#fff"/><g aria-label="File" fill="#fff"><path d="M6935.15 6942v-416.56h240.03v44.45h-187.325v140.97h158.75v44.45h-158.75V6942zM7243.85 6942v-308.61h52.07V6942zm26.67-372.11q-15.24 0-26.036-9.525-10.16-9.525-10.16-24.13 0-15.24 10.16-24.13 10.795-9.525 26.035-9.525t25.4 9.525q10.795 8.89 10.795 24.13 0 14.605-10.795 24.13-10.16 9.525-25.4 9.525zM7455.364 6949.62q-29.845 0-42.545-17.78-12.7-17.78-12.7-52.07v-389.89h52.07v393.7q0 12.7 4.445 17.78 4.445 5.08 10.16 5.08h4.445q2.54 0 6.985-1.27l6.985 39.37q-5.08 2.54-12.065 3.81-6.985 1.27-17.78 1.27zM7687.685 6949.62q-31.116 0-58.42-10.795-26.67-11.43-46.99-31.75-19.685-20.955-31.115-50.8t-11.43-67.945q0-38.1 11.43-67.945 12.065-30.48 31.115-51.435 19.685-20.955 44.45-31.75 24.764-11.43 51.434-11.43 29.21 0 52.07 10.16 23.496 10.16 38.736 29.21 15.874 19.05 24.13 45.72 8.254 26.67 8.254 59.69 0 8.255-.634 16.51 0 7.62-1.27 13.335h-208.28q3.174 49.53 30.48 78.74 27.94 28.575 72.39 28.575 22.224 0 40.64-6.35 19.05-6.985 36.194-17.78l18.416 34.29q-20.32 12.7-45.086 22.225-24.764 9.525-56.514 9.525zm-97.156-186.69h165.1q0-46.99-20.32-71.12-19.684-24.765-55.88-24.765-16.51 0-31.75 6.35-14.604 6.35-26.67 19.05-12.064 12.065-20.32 29.845-7.62 17.78-10.16 40.64z"/></g></g><g class="com.sun.star.drawing.ConnectorShape"><path class="BoundingBox" fill="none" d="M1794 6614h4701v2380H1794z"/><path d="M4438 8992c0-1518 405-2050 1215-2233" fill="none" stroke="#fff"/><path d="M6080 6715l-464-100 33 298z" fill="#fff"/><g aria-label="Commit 1" fill="#fff"><path d="M1976.63 8087.62q-39.37 0-72.39-14.605t-57.785-41.91q-24.13-27.94-38.1-67.945-13.335-40.64-13.335-91.44 0-50.165 13.97-90.17t38.735-67.945q24.765-27.94 58.42-42.545 33.655-15.24 73.66-15.24 38.1 0 66.675 15.875 29.21 15.24 47.625 35.56l-28.575 34.29q-16.51-17.78-37.465-28.575-20.955-10.795-47.625-10.795-29.845 0-53.975 12.065-24.13 11.43-41.275 33.655-17.145 21.59-26.67 52.705-8.89 31.115-8.89 69.85 0 39.37 8.89 71.12 9.525 31.115 26.035 53.34 16.51 22.225 40.005 34.29 24.13 12.065 53.975 12.065 30.48 0 53.34-12.065 22.86-12.7 43.18-34.925l29.21 33.02q-24.765 28.575-55.88 44.45-31.115 15.875-71.755 15.875zM2296.233 8087.62q-28.575 0-54.61-10.795-25.4-10.795-45.085-31.115-19.685-20.955-31.75-50.8-11.43-30.48-11.43-68.58 0-38.735 11.43-68.58 12.065-30.48 31.75-51.435 19.685-20.955 45.085-31.75 26.035-10.795 54.61-10.795t53.975 10.795q26.035 10.795 45.72 31.75t31.115 51.435q12.065 29.845 12.065 68.58 0 38.1-12.065 68.58-11.43 29.845-31.115 50.8-19.685 20.32-45.72 31.115-25.4 10.795-53.975 10.795zm0-43.18q19.685 0 36.195-8.255 16.51-8.89 27.94-24.13 12.065-15.875 18.415-37.465 6.35-21.59 6.35-48.26 0-26.67-6.35-48.26-6.35-22.225-18.415-38.1-11.43-15.875-27.94-24.13-16.51-8.89-36.195-8.89t-36.195 8.89q-16.51 8.255-28.575 24.13-11.43 15.875-17.78 38.1-6.35 21.59-6.35 48.26 0 26.67 6.35 48.26 6.35 21.59 17.78 37.465 12.065 15.24 28.575 24.13 16.51 8.255 36.195 8.255zM2521.004 8080v-308.61h43.18l4.445 44.45h1.905q20.32-22.225 43.815-36.83 24.13-15.24 52.07-15.24 35.56 0 55.245 15.875 20.32 15.24 29.845 43.18 24.13-26.67 48.26-42.545 24.765-16.51 53.34-16.51 47.625 0 70.485 30.48 23.495 30.48 23.495 90.17V8080h-52.07v-188.595q0-43.815-13.97-62.865-13.97-19.685-43.18-19.685-34.925 0-77.47 47.625V8080h-52.07v-188.595q0-43.815-13.97-62.865-13.97-19.685-43.815-19.685-34.925 0-77.47 47.625V8080zM3046.863 8080v-308.61h43.18l4.445 44.45h1.905q20.32-22.225 43.815-36.83 24.13-15.24 52.07-15.24 35.56 0 55.245 15.875 20.32 15.24 29.845 43.18 24.13-26.67 48.26-42.545 24.765-16.51 53.34-16.51 47.625 0 70.485 30.48 23.495 30.48 23.495 90.17V8080h-52.07v-188.595q0-43.815-13.97-62.865-13.97-19.685-43.18-19.685-34.925 0-77.47 47.625V8080h-52.07v-188.595q0-43.815-13.97-62.865-13.97-19.685-43.815-19.685-34.925 0-77.47 47.625V8080zM3572.722 8080v-308.61h52.07V8080zm26.67-372.11q-15.24 0-26.035-9.525-10.16-9.525-10.16-24.13 0-15.24 10.16-24.13 10.795-9.525 26.035-9.525t25.4 9.525q10.795 8.89 10.795 24.13 0 14.605-10.795 24.13-10.16 9.525-25.4 9.525zM3826.147 8087.62q-24.765 0-41.91-7.62-16.51-7.62-27.305-20.955-10.16-13.335-14.605-32.385-4.445-19.05-4.445-41.91v-170.815h-45.72v-39.37l48.26-3.175 6.35-86.36h43.815v86.36h83.185v42.545h-83.185v171.45q0 28.575 10.16 44.45 10.795 15.24 37.465 15.24 8.255 0 17.78-2.54t17.145-5.715l10.16 39.37q-12.7 4.445-27.94 7.62-14.605 3.81-29.21 3.81zM4068.151 8080v-43.18h92.71v-298.45h-73.66v-33.655q27.94-5.08 48.26-12.065 20.955-7.62 37.465-17.78h40.005v361.95h83.82V8080z"/></g></g><g class="com.sun.star.drawing.ConnectorShape"><path class="BoundingBox" fill="none" d="M1794 4437h4701v2380H1794z"/><path d="M4438 4438c0 1518 405 2050 1215 2233" fill="none" stroke="#fff"/><path d="M6080 6715l-431-198-33 298z" fill="#fff"/><g aria-label="Commit 2" fill="#fff"><path d="M1976.63 5810.62q-39.37 0-72.39-14.605t-57.785-41.91q-24.13-27.94-38.1-67.945-13.335-40.64-13.335-91.44 0-50.165 13.97-90.17t38.735-67.945q24.765-27.94 58.42-42.545 33.655-15.24 73.66-15.24 38.1 0 66.675 15.875 29.21 15.24 47.625 35.56l-28.575 34.29q-16.51-17.78-37.465-28.575-20.955-10.795-47.625-10.795-29.845 0-53.975 12.065-24.13 11.43-41.275 33.655-17.145 21.59-26.67 52.705-8.89 31.115-8.89 69.85 0 39.37 8.89 71.12 9.525 31.115 26.035 53.34 16.51 22.225 40.005 34.29 24.13 12.065 53.975 12.065 30.48 0 53.34-12.065 22.86-12.7 43.18-34.925l29.21 33.02q-24.765 28.575-55.88 44.45-31.115 15.875-71.755 15.875zM2296.233 5810.62q-28.575 0-54.61-10.795-25.4-10.795-45.085-31.115-19.685-20.955-31.75-50.8-11.43-30.48-11.43-68.58 0-38.735 11.43-68.58 12.065-30.48 31.75-51.435 19.685-20.955 45.085-31.75 26.035-10.795 54.61-10.795t53.975 10.795q26.035 10.795 45.72 31.75t31.115 51.435q12.065 29.845 12.065 68.58 0 38.1-12.065 68.58-11.43 29.845-31.115 50.8-19.685 20.32-45.72 31.115-25.4 10.795-53.975 10.795zm0-43.18q19.685 0 36.195-8.255 16.51-8.89 27.94-24.13 12.065-15.875 18.415-37.465 6.35-21.59 6.35-48.26 0-26.67-6.35-48.26-6.35-22.225-18.415-38.1-11.43-15.875-27.94-24.13-16.51-8.89-36.195-8.89t-36.195 8.89q-16.51 8.255-28.575 24.13-11.43 15.875-17.78 38.1-6.35 21.59-6.35 48.26 0 26.67 6.35 48.26 6.35 21.59 17.78 37.465 12.065 15.24 28.575 24.13 16.51 8.255 36.195 8.255zM2521.004 5803v-308.61h43.18l4.445 44.45h1.905q20.32-22.225 43.815-36.83 24.13-15.24 52.07-15.24 35.56 0 55.245 15.875 20.32 15.24 29.845 43.18 24.13-26.67 48.26-42.545 24.765-16.51 53.34-16.51 47.625 0 70.485 30.48 23.495 30.48 23.495 90.17V5803h-52.07v-188.595q0-43.815-13.97-62.865-13.97-19.685-43.18-19.685-34.925 0-77.47 47.625V5803h-52.07v-188.595q0-43.815-13.97-62.865-13.97-19.685-43.815-19.685-34.925 0-77.47 47.625V5803zM3046.863 5803v-308.61h43.18l4.445 44.45h1.905q20.32-22.225 43.815-36.83 24.13-15.24 52.07-15.24 35.56 0 55.245 15.875 20.32 15.24 29.845 43.18 24.13-26.67 48.26-42.545 24.765-16.51 53.34-16.51 47.625 0 70.485 30.48 23.495 30.48 23.495 90.17V5803h-52.07v-188.595q0-43.815-13.97-62.865-13.97-19.685-43.18-19.685-34.925 0-77.47 47.625V5803h-52.07v-188.595q0-43.815-13.97-62.865-13.97-19.685-43.815-19.685-34.925 0-77.47 47.625V5803zM3572.722 5803v-308.61h52.07V5803zm26.67-372.11q-15.24 0-26.035-9.525-10.16-9.525-10.16-24.13 0-15.24 10.16-24.13 10.795-9.525 26.035-9.525t25.4 9.525q10.795 8.89 10.795 24.13 0 14.605-10.795 24.13-10.16 9.525-25.4 9.525zM3826.147 5810.62q-24.765 0-41.91-7.62-16.51-7.62-27.305-20.955-10.16-13.335-14.605-32.385-4.445-19.05-4.445-41.91v-170.815h-45.72v-39.37l48.26-3.175 6.35-86.36h43.815v86.36h83.185v42.545h-83.185v171.45q0 28.575 10.16 44.45 10.795 15.24 37.465 15.24 8.255 0 17.78-2.54t17.145-5.715l10.16 39.37q-12.7 4.445-27.94 7.62-14.605 3.81-29.21 3.81zM4043.386 5803v-31.115q45.72-45.72 81.28-82.55t59.69-67.945q24.13-31.75 36.83-57.785 12.7-26.67 12.7-51.435 0-34.925-19.05-57.15t-57.785-22.225q-25.4 0-46.99 14.605-21.59 13.97-39.37 34.29l-29.845-29.845q25.4-27.94 53.975-44.45 28.575-17.145 68.58-17.145 56.515 0 88.9 33.02 32.385 32.385 32.385 86.36 0 28.575-12.7 57.785-12.065 28.575-34.29 59.69-21.59 30.48-52.07 64.135-29.845 33.02-66.04 70.485 16.51-1.27 34.29-2.54 17.78-1.27 33.655-1.27h117.475V5803z"/></g></g><g class="com.sun.star.drawing.CustomShape"><path class="BoundingBox" fill="none" d="M11159 3539h2544v1274h-2544z"/><path d="M11371 3540c-106 0-211 105-211 211v848c0 106 105 212 211 212h2118c106 0 212-106 212-212v-848c0-106-106-211-212-211z" fill="none" stroke="#fff"/><g aria-label="File X" fill="#fff"><path d="M11789.15 4402v-416.56h240.03v44.45h-187.325v140.97h158.75v44.45h-158.75V4402zM12097.849 4402v-308.61h52.07V4402zm26.67-372.11q-15.24 0-26.035-9.525-10.16-9.525-10.16-24.13 0-15.24 10.16-24.13 10.795-9.525 26.035-9.525t25.4 9.525q10.795 8.89 10.795 24.13 0 14.605-10.795 24.13-10.16 9.525-25.4 9.525zM12309.364 4409.62q-29.845 0-42.545-17.78-12.7-17.78-12.7-52.07v-389.89h52.07v393.7q0 12.7 4.445 17.78 4.445 5.08 10.16 5.08h4.445q2.54 0 6.985-1.27l6.985 39.37q-5.08 2.54-12.065 3.81-6.985 1.27-17.78 1.27zM12541.685 4409.62q-31.115 0-58.42-10.795-26.67-11.43-46.99-31.75-19.685-20.955-31.115-50.8t-11.43-67.945q0-38.1 11.43-67.945 12.065-30.48 31.115-51.435 19.685-20.955 44.45-31.75 24.765-11.43 51.435-11.43 29.21 0 52.07 10.16 23.495 10.16 38.735 29.21 15.875 19.05 24.13 45.72 8.255 26.67 8.255 59.69 0 8.255-.635 16.51 0 7.62-1.27 13.335h-208.28q3.175 49.53 30.48 78.74 27.94 28.575 72.39 28.575 22.225 0 40.64-6.35 19.05-6.985 36.195-17.78l18.415 34.29q-20.32 12.7-45.085 22.225-24.765 9.525-56.515 9.525zm-97.155-186.69h165.1q0-46.99-20.32-71.12-19.685-24.765-55.88-24.765-16.51 0-31.75 6.35-14.605 6.35-26.67 19.05-12.065 12.065-20.32 29.845-7.62 17.78-10.16 40.64zM12815.568 4402l121.285-215.265-113.03-201.295h58.42l56.515 106.68q8.255 14.605 15.24 28.575 7.62 13.335 17.145 31.75h2.54q8.89-18.415 15.24-31.75 6.985-13.97 14.605-28.575l55.245-106.68h55.88l-113.665 203.835L13122.273 4402h-58.42l-60.96-112.395q-8.255-15.24-17.145-31.115-8.255-16.51-18.415-35.56h-2.54q-8.89 19.05-17.145 35.56-8.255 15.875-15.875 31.115L12871.448 4402z"/></g></g><g class="com.sun.star.drawing.CustomShape"><path class="BoundingBox" fill="none" d="M14969 3539h2544v1274h-2544z"/><path d="M15181 3540c-106 0-211 105-211 211v848c0 106 105 212 211 212h2118c106 0 212-106 212-212v-848c0-106-106-211-212-211z" fill="none" stroke="#fff"/><g aria-label="File Y" fill="#fff"><path d="M15611.15 4402v-416.56h240.03v44.45h-187.325v140.97h158.75v44.45h-158.75V4402zM15919.849 4402v-308.61h52.07V4402zm26.67-372.11q-15.24 0-26.035-9.525-10.16-9.525-10.16-24.13 0-15.24 10.16-24.13 10.795-9.525 26.035-9.525t25.4 9.525q10.795 8.89 10.795 24.13 0 14.605-10.795 24.13-10.16 9.525-25.4 9.525zM16131.364 4409.62q-29.845 0-42.545-17.78-12.7-17.78-12.7-52.07v-389.89h52.07v393.7q0 12.7 4.445 17.78 4.445 5.08 10.16 5.08h4.445q2.54 0 6.985-1.27l6.985 39.37q-5.08 2.54-12.065 3.81-6.985 1.27-17.78 1.27zM16363.685 4409.62q-31.115 0-58.42-10.795-26.67-11.43-46.99-31.75-19.685-20.955-31.115-50.8t-11.43-67.945q0-38.1 11.43-67.945 12.065-30.48 31.115-51.435 19.685-20.955 44.45-31.75 24.765-11.43 51.435-11.43 29.21 0 52.07 10.16 23.495 10.16 38.735 29.21 15.875 19.05 24.13 45.72 8.255 26.67 8.255 59.69 0 8.255-.635 16.51 0 7.62-1.27 13.335h-208.28q3.175 49.53 30.48 78.74 27.94 28.575 72.39 28.575 22.225 0 40.64-6.35 19.05-6.985 36.195-17.78l18.415 34.29q-20.32 12.7-45.085 22.225-24.765 9.525-56.515 9.525zm-97.155-186.69h165.1q0-46.99-20.32-71.12-19.685-24.765-55.88-24.765-16.51 0-31.75 6.35-14.605 6.35-26.67 19.05-12.065 12.065-20.32 29.845-7.62 17.78-10.16 40.64zM16752.503 4402v-161.29l-125.095-255.27h56.515l53.975 117.475q10.16 22.86 19.685 45.085 9.525 22.225 20.32 45.72h2.54q10.795-23.495 21.59-45.72 10.795-22.225 20.32-45.085l53.34-117.475h55.245l-125.095 255.27V4402z"/></g></g><g class="com.sun.star.drawing.CustomShape"><path class="BoundingBox" fill="none" d="M11159 8619h2544v1274h-2544z"/><path d="M11371 8620c-106 0-211 105-211 211v848c0 106 105 212 211 212h2118c106 0 212-106 212-212v-848c0-106-106-211-212-211z" fill="none" stroke="#fff"/><g aria-label="File X" fill="#fff"><path d="M11789.15 9482v-416.56h240.03v44.45h-187.325v140.97h158.75v44.45h-158.75V9482zM12097.849 9482v-308.61h52.07V9482zm26.67-372.11q-15.24 0-26.035-9.525-10.16-9.525-10.16-24.13 0-15.24 10.16-24.13 10.795-9.525 26.035-9.525t25.4 9.525q10.795 8.89 10.795 24.13 0 14.605-10.795 24.13-10.16 9.525-25.4 9.525zM12309.364 9489.62q-29.845 0-42.545-17.78-12.7-17.78-12.7-52.07v-389.89h52.07v393.7q0 12.7 4.445 17.78 4.445 5.08 10.16 5.08h4.445q2.54 0 6.985-1.27l6.985 39.37q-5.08 2.54-12.065 3.81-6.985 1.27-17.78 1.27zM12541.685 9489.62q-31.115 0-58.42-10.795-26.67-11.43-46.99-31.75-19.685-20.955-31.115-50.8t-11.43-67.945q0-38.1 11.43-67.945 12.065-30.48 31.115-51.435 19.685-20.955 44.45-31.75 24.765-11.43 51.435-11.43 29.21 0 52.07 10.16 23.495 10.16 38.735 29.21 15.875 19.05 24.13 45.72 8.255 26.67 8.255 59.69 0 8.255-.635 16.51 0 7.62-1.27 13.335h-208.28q3.175 49.53 30.48 78.74 27.94 28.575 72.39 28.575 22.225 0 40.64-6.35 19.05-6.985 36.195-17.78l18.415 34.29q-20.32 12.7-45.085 22.225-24.765 9.525-56.515 9.525zm-97.155-186.69h165.1q0-46.99-20.32-71.12-19.685-24.765-55.88-24.765-16.51 0-31.75 6.35-14.605 6.35-26.67 19.05-12.065 12.065-20.32 29.845-7.62 17.78-10.16 40.64zM12815.568 9482l121.285-215.265-113.03-201.295h58.42l56.515 106.68q8.255 14.605 15.24 28.575 7.62 13.335 17.145 31.75h2.54q8.89-18.415 15.24-31.75 6.985-13.97 14.605-28.575l55.245-106.68h55.88l-113.665 203.835L13122.273 9482h-58.42l-60.96-112.395q-8.255-15.24-17.145-31.115-8.255-16.51-18.415-35.56h-2.54q-8.89 19.05-17.145 35.56-8.255 15.875-15.875 31.115L12871.448 9482z"/></g></g><g class="com.sun.star.drawing.CustomShape"><path class="BoundingBox" fill="none" d="M14969 8619h2544v1274h-2544z"/><path d="M15181 8620c-106 0-211 105-211 211v848c0 106 105 212 211 212h2118c106 0 212-106 212-212v-848c0-106-106-211-212-211z" fill="none" stroke="#fff"/><g aria-label="File Z" fill="#fff"><path d="M15590.15 9482v-416.56h240.03v44.45h-187.325v140.97h158.75v44.45h-158.75V9482zM15898.849 9482v-308.61h52.07V9482zm26.67-372.11q-15.24 0-26.035-9.525-10.16-9.525-10.16-24.13 0-15.24 10.16-24.13 10.795-9.525 26.035-9.525t25.4 9.525q10.795 8.89 10.795 24.13 0 14.605-10.795 24.13-10.16 9.525-25.4 9.525zM16110.364 9489.62q-29.845 0-42.545-17.78-12.7-17.78-12.7-52.07v-389.89h52.07v393.7q0 12.7 4.445 17.78 4.445 5.08 10.16 5.08h4.445q2.54 0 6.985-1.27l6.985 39.37q-5.08 2.54-12.065 3.81-6.985 1.27-17.78 1.27zM16342.685 9489.62q-31.115 0-58.42-10.795-26.67-11.43-46.99-31.75-19.685-20.955-31.115-50.8t-11.43-67.945q0-38.1 11.43-67.945 12.065-30.48 31.115-51.435 19.685-20.955 44.45-31.75 24.765-11.43 51.435-11.43 29.21 0 52.07 10.16 23.495 10.16 38.735 29.21 15.875 19.05 24.13 45.72 8.255 26.67 8.255 59.69 0 8.255-.635 16.51 0 7.62-1.27 13.335h-208.28q3.175 49.53 30.48 78.74 27.94 28.575 72.39 28.575 22.225 0 40.64-6.35 19.05-6.985 36.195-17.78l18.415 34.29q-20.32 12.7-45.085 22.225-24.765 9.525-56.515 9.525zm-97.155-186.69h165.1q0-46.99-20.32-71.12-19.685-24.765-55.88-24.765-16.51 0-31.75 6.35-14.605 6.35-26.67 19.05-12.065 12.065-20.32 29.845-7.62 17.78-10.16 40.64zM16635.618 9482v-31.75l219.075-340.36h-199.39v-44.45h265.43v31.115l-219.71 340.36h221.615V9482z"/></g></g><g class="com.sun.star.drawing.CustomShape"><path class="BoundingBox" fill="none" d="M9889 7349h8893v3814H9889z"/><path d="M10567 7350h-42c-18 0-35 1-53 3M10420 7361c-18 4-35 8-52 14M10318 7393c-16 7-32 14-48 22M10224 7441c-15 9-30 19-45 30M10137 7503c-13 12-26 23-39 36M10061 7577c-12 13-23 27-34 41M9996 7661c-10 15-19 30-28 45M9944 7753c-8 17-15 33-21 49M9908 7853c-5 17-9 35-11 52M9891 7958c-1 9-1 18-1 27v26M9890 8064v53M9890 8170v53M9890 8276v54M9890 8383v53M9890 8489v53M9890 8595v53M9890 8701v53M9890 8807v53M9890 8914v53M9890 9020v53M9890 9126v53M9890 9232v53M9890 9338v53M9890 9444v54M9890 9551v53M9890 9657v53M9890 9763v53M9890 9869v53M9890 9975v53M9890 10082v53M9890 10188v53M9890 10294v53M9890 10400v53M9890 10506v19c0 11 0 23 1 34M9898 10612c3 17 7 35 11 52M9926 10715c6 16 13 32 21 48M9971 10810c9 16 19 31 29 45M10031 10898c11 14 23 28 35 41M10103 10977c13 12 26 24 40 35M10185 11044c14 10 29 20 44 29M10276 11099c16 8 32 15 48 22M10375 11138c17 5 34 10 51 13M10479 11159c15 1 31 2 46 2h7M10585 11161h53M10691 11161h53M10797 11161h53M10903 11161h53M11009 11161h54M11116 11161h53M11222 11161h53M11328 11161h53M11434 11161h53M11540 11161h54M11647 11161h53M11753 11161h53M11859 11161h53M11965 11161h53M12071 11161h53M12178 11161h53M12284 11161h53M12390 11161h53M12496 11161h53M12602 11161h53M12708 11161h54M12815 11161h53M12921 11161h53M13027 11161h53M13133 11161h53M13239 11161h53M13346 11161h53M13452 11161h53M13558 11161h53M13664 11161h53M13770 11161h53M13876 11161h54M13983 11161h53M14089 11161h53M14195 11161h53M14301 11161h53M14407 11161h53M14514 11161h53M14620 11161h53M14726 11161h53M14832 11161h53M14938 11161h53M15044 11161h54M15151 11161h53M15257 11161h53M15363 11161h53M15469 11161h53M15575 11161h53M15682 11161h53M15788 11161h53M15894 11161h53M16000 11161h53M16106 11161h53M16212 11161h54M16319 11161h53M16425 11161h53M16531 11161h53M16637 11161h53M16743 11161h53M16850 11161h53M16956 11161h53M17062 11161h53M17168 11161h53M17274 11161h53M17380 11161h54M17487 11161h53M17593 11161h53M17699 11161h53M17805 11161h53M17911 11161h53M18018 11161h53M18124 11161h21c11 0 21 0 32-1M18230 11154c17-3 34-7 51-12M18332 11126c16-6 33-13 49-21M18428 11080c15-8 30-18 45-28M18516 11021c14-11 27-23 40-35M18594 10949c13-13 24-26 36-40M18662 10867c10-14 20-29 29-44M18717 10776c8-16 15-32 22-48M18756 10678c6-17 10-35 14-52M18778 10574c1-17 2-33 2-49v-4M18780 10468v-54M18780 10361v-53M18780 10255v-53M18780 10149v-53M18780 10043v-53M18780 9937v-53M18780 9830v-53M18780 9724v-53M18780 9618v-53M18780 9512v-53M18780 9406v-53M18780 9300v-54M18780 9193v-53M18780 9087v-53M18780 8981v-53M18780 8875v-53M18780 8769v-53M18780 8662v-53M18780 8556v-53M18780 8450v-53M18780 8344v-53M18780 8238v-53M18780 8132v-54M18780 8025v-40-13M18776 7919c-3-17-6-35-10-52M18751 7816c-5-17-12-33-19-49M18709 7719c-8-16-17-31-27-46M18652 7629c-11-14-22-28-34-41M18582 7549c-12-13-25-25-39-36M18502 7479c-14-10-29-21-44-30M18413 7422c-16-9-32-16-48-23M18315 7379l-51-15M18212 7355c-18-3-35-4-53-5M18106 7350h-53M18000 7350h-53M17894 7350h-53M17788 7350h-54M17681 7350h-53M17575 7350h-53M17469 7350h-53M17363 7350h-53M17257 7350h-53M17150 7350h-53M17044 7350h-53M16938 7350h-53M16832 7350h-53M16726 7350h-53M16619 7350h-53M16513 7350h-53M16407 7350h-53M16301 7350h-53M16195 7350h-53M16089 7350h-54M15982 7350h-53M15876 7350h-53M15770 7350h-53M15664 7350h-53M15558 7350h-53M15451 7350h-53M15345 7350h-53M15239 7350h-53M15133 7350h-53M15027 7350h-53M14921 7350h-54M14814 7350h-53M14708 7350h-53M14602 7350h-53M14496 7350h-53M14390 7350h-53M14283 7350h-53M14177 7350h-53M14071 7350h-53M13965 7350h-53M13859 7350h-53M13753 7350h-54M13646 7350h-53M13540 7350h-53M13434 7350h-53M13328 7350h-53M13222 7350h-53M13115 7350h-53M13009 7350h-53M12903 7350h-53M12797 7350h-53M12691 7350h-53M12585 7350h-54M12478 7350h-53M12372 7350h-53M12266 7350h-53M12160 7350h-53M12054 7350h-53M11947 7350h-53M11841 7350h-53M11735 7350h-53M11629 7350h-53M11523 7350h-53M11417 7350h-54M11310 7350h-53M11204 7350h-53M11098 7350h-53M10992 7350h-53M10886 7350h-53M10779 7350h-53M10673 7350h-53" fill="none" stroke="#fff"/><g aria-label="Commit 2" fill="#fff"><path d="M13262.63 8295.62q-39.37 0-72.39-14.605t-57.785-41.91q-24.13-27.94-38.1-67.945-13.335-40.64-13.335-91.44 0-50.165 13.97-90.17t38.735-67.945q24.765-27.94 58.42-42.545 33.655-15.24 73.66-15.24 38.1 0 66.675 15.875 29.21 15.24 47.625 35.56l-28.575 34.29q-16.51-17.78-37.465-28.575-20.955-10.795-47.625-10.795-29.845 0-53.975 12.065-24.13 11.43-41.275 33.655-17.145 21.59-26.67 52.705-8.89 31.115-8.89 69.85 0 39.37 8.89 71.12 9.525 31.115 26.035 53.34 16.51 22.225 40.005 34.29 24.13 12.065 53.975 12.065 30.48 0 53.34-12.065 22.86-12.7 43.18-34.925l29.21 33.02q-24.765 28.575-55.88 44.45-31.115 15.875-71.755 15.875zM13582.233 8295.62q-28.575 0-54.61-10.795-25.4-10.795-45.085-31.115-19.685-20.955-31.75-50.8-11.43-30.48-11.43-68.58 0-38.735 11.43-68.58 12.065-30.48 31.75-51.435 19.685-20.955 45.085-31.75 26.035-10.795 54.61-10.795t53.975 10.795q26.035 10.795 45.72 31.75t31.115 51.435q12.065 29.845 12.065 68.58 0 38.1-12.065 68.58-11.43 29.845-31.115 50.8-19.685 20.32-45.72 31.115-25.4 10.795-53.975 10.795zm0-43.18q19.685 0 36.195-8.255 16.51-8.89 27.94-24.13 12.065-15.875 18.415-37.465 6.35-21.59 6.35-48.26 0-26.67-6.35-48.26-6.35-22.225-18.415-38.1-11.43-15.875-27.94-24.13-16.51-8.89-36.195-8.89t-36.195 8.89q-16.51 8.255-28.575 24.13-11.43 15.875-17.78 38.1-6.35 21.59-6.35 48.26 0 26.67 6.35 48.26 6.35 21.59 17.78 37.465 12.065 15.24 28.575 24.13 16.51 8.255 36.195 8.255zM13807.004 8288v-308.61h43.18l4.445 44.45h1.905q20.32-22.225 43.815-36.83 24.13-15.24 52.07-15.24 35.56 0 55.245 15.875 20.32 15.24 29.845 43.18 24.13-26.67 48.26-42.545 24.765-16.51 53.34-16.51 47.625 0 70.485 30.48 23.495 30.48 23.495 90.17V8288h-52.07v-188.595q0-43.815-13.97-62.865-13.97-19.685-43.18-19.685-34.925 0-77.47 47.625V8288h-52.07v-188.595q0-43.815-13.97-62.865-13.97-19.685-43.815-19.685-34.925 0-77.47 47.625V8288zM14332.863 8288v-308.61h43.18l4.445 44.45h1.905q20.32-22.225 43.815-36.83 24.13-15.24 52.07-15.24 35.56 0 55.245 15.875 20.32 15.24 29.845 43.18 24.13-26.67 48.26-42.545 24.765-16.51 53.34-16.51 47.625 0 70.485 30.48 23.495 30.48 23.495 90.17V8288h-52.07v-188.595q0-43.815-13.97-62.865-13.97-19.685-43.18-19.685-34.925 0-77.47 47.625V8288h-52.07v-188.595q0-43.815-13.97-62.865-13.97-19.685-43.815-19.685-34.925 0-77.47 47.625V8288zM14858.722 8288v-308.61h52.07V8288zm26.67-372.11q-15.24 0-26.035-9.525-10.16-9.525-10.16-24.13 0-15.24 10.16-24.13 10.795-9.525 26.035-9.525t25.4 9.525q10.795 8.89 10.795 24.13 0 14.605-10.795 24.13-10.16 9.525-25.4 9.525zM15112.147 8295.62q-24.765 0-41.91-7.62-16.51-7.62-27.305-20.955-10.16-13.335-14.605-32.385-4.445-19.05-4.445-41.91v-170.815h-45.72v-39.37l48.26-3.175 6.35-86.36h43.815v86.36h83.185v42.545h-83.185v171.45q0 28.575 10.16 44.45 10.795 15.24 37.465 15.24 8.255 0 17.78-2.54t17.145-5.715l10.16 39.37q-12.7 4.445-27.94 7.62-14.605 3.81-29.21 3.81zM15329.386 8288v-31.115q45.72-45.72 81.28-82.55t59.69-67.945q24.13-31.75 36.83-57.785 12.7-26.67 12.7-51.435 0-34.925-19.05-57.15t-57.785-22.225q-25.4 0-46.99 14.605-21.59 13.97-39.37 34.29l-29.845-29.845q25.4-27.94 53.975-44.45 28.575-17.145 68.58-17.145 56.515 0 88.9 33.02 32.385 32.385 32.385 86.36 0 28.575-12.7 57.785-12.065 28.575-34.29 59.69-21.59 30.48-52.07 64.135-29.845 33.02-66.04 70.485 16.51-1.27 34.29-2.54 17.78-1.27 33.655-1.27h117.475V8288z"/></g></g><g class="com.sun.star.drawing.CustomShape"><path class="BoundingBox" fill="none" d="M9889 2250h8893v3814H9889z"/><path d="M10567 2251h-42c-18 0-35 1-53 3M10420 2262c-18 4-35 8-52 14M10318 2294c-16 7-32 14-48 22M10224 2342c-15 9-30 19-45 30M10137 2404c-13 12-26 23-39 36M10061 2478c-12 13-23 27-34 41M9996 2562c-10 15-19 30-28 45M9944 2654c-8 17-15 33-21 49M9908 2754c-5 17-9 35-11 52M9891 2859c-1 9-1 18-1 27v26M9890 2965v53M9890 3071v53M9890 3177v54M9890 3284v53M9890 3390v53M9890 3496v53M9890 3602v53M9890 3708v53M9890 3815v53M9890 3921v53M9890 4027v53M9890 4133v53M9890 4239v53M9890 4345v54M9890 4452v53M9890 4558v53M9890 4664v53M9890 4770v53M9890 4876v53M9890 4983v53M9890 5089v53M9890 5195v53M9890 5301v53M9890 5407v19c0 11 0 23 1 34M9898 5513c3 17 7 35 11 52M9926 5616c6 16 13 32 21 48M9971 5711c9 16 19 31 29 45M10031 5799c11 14 23 28 35 41M10103 5878c13 12 26 24 40 35M10185 5945c14 10 29 20 44 29M10276 6000c16 8 32 15 48 22M10375 6039c17 5 34 10 51 13M10479 6060c15 1 31 2 46 2h7M10585 6062h53M10691 6062h53M10797 6062h53M10903 6062h53M11009 6062h54M11116 6062h53M11222 6062h53M11328 6062h53M11434 6062h53M11540 6062h54M11647 6062h53M11753 6062h53M11859 6062h53M11965 6062h53M12071 6062h53M12178 6062h53M12284 6062h53M12390 6062h53M12496 6062h53M12602 6062h53M12708 6062h54M12815 6062h53M12921 6062h53M13027 6062h53M13133 6062h53M13239 6062h53M13346 6062h53M13452 6062h53M13558 6062h53M13664 6062h53M13770 6062h53M13876 6062h54M13983 6062h53M14089 6062h53M14195 6062h53M14301 6062h53M14407 6062h53M14514 6062h53M14620 6062h53M14726 6062h53M14832 6062h53M14938 6062h53M15044 6062h54M15151 6062h53M15257 6062h53M15363 6062h53M15469 6062h53M15575 6062h53M15682 6062h53M15788 6062h53M15894 6062h53M16000 6062h53M16106 6062h53M16212 6062h54M16319 6062h53M16425 6062h53M16531 6062h53M16637 6062h53M16743 6062h53M16850 6062h53M16956 6062h53M17062 6062h53M17168 6062h53M17274 6062h53M17380 6062h54M17487 6062h53M17593 6062h53M17699 6062h53M17805 6062h53M17911 6062h53M18018 6062h53M18124 6062h21c11 0 21 0 32-1M18230 6055c17-3 34-7 51-12M18332 6027c16-6 33-13 49-21M18428 5981c15-8 30-18 45-28M18516 5922c14-11 27-23 40-35M18594 5850c13-13 24-26 36-40M18662 5768c10-14 20-29 29-44M18717 5677c8-16 15-32 22-48M18756 5579c6-17 10-35 14-52M18778 5475c1-17 2-33 2-49v-4M18780 5369v-54M18780 5262v-53M18780 5156v-53M18780 5050v-53M18780 4944v-53M18780 4838v-53M18780 4731v-53M18780 4625v-53M18780 4519v-53M18780 4413v-53M18780 4307v-53M18780 4201v-54M18780 4094v-53M18780 3988v-53M18780 3882v-53M18780 3776v-53M18780 3670v-53M18780 3563v-53M18780 3457v-53M18780 3351v-53M18780 3245v-53M18780 3139v-53M18780 3033v-54M18780 2926v-40-13M18776 2820c-3-17-6-35-10-52M18751 2717c-5-17-12-33-19-49M18709 2620c-8-16-17-31-27-46M18652 2530c-11-14-22-28-34-41M18582 2450c-12-13-25-25-39-36M18502 2380c-14-10-29-21-44-30M18413 2323c-16-9-32-16-48-23M18315 2280l-51-15M18212 2256c-18-3-35-4-53-5M18106 2251h-53M18000 2251h-53M17894 2251h-53M17788 2251h-54M17681 2251h-53M17575 2251h-53M17469 2251h-53M17363 2251h-53M17257 2251h-53M17150 2251h-53M17044 2251h-53M16938 2251h-53M16832 2251h-53M16726 2251h-53M16619 2251h-53M16513 2251h-53M16407 2251h-53M16301 2251h-53M16195 2251h-53M16089 2251h-54M15982 2251h-53M15876 2251h-53M15770 2251h-53M15664 2251h-53M15558 2251h-53M15451 2251h-53M15345 2251h-53M15239 2251h-53M15133 2251h-53M15027 2251h-53M14921 2251h-54M14814 2251h-53M14708 2251h-53M14602 2251h-53M14496 2251h-53M14390 2251h-53M14283 2251h-53M14177 2251h-53M14071 2251h-53M13965 2251h-53M13859 2251h-53M13753 2251h-54M13646 2251h-53M13540 2251h-53M13434 2251h-53M13328 2251h-53M13222 2251h-53M13115 2251h-53M13009 2251h-53M12903 2251h-53M12797 2251h-53M12691 2251h-53M12585 2251h-54M12478 2251h-53M12372 2251h-53M12266 2251h-53M12160 2251h-53M12054 2251h-53M11947 2251h-53M11841 2251h-53M11735 2251h-53M11629 2251h-53M11523 2251h-53M11417 2251h-54M11310 2251h-53M11204 2251h-53M11098 2251h-53M10992 2251h-53M10886 2251h-53M10779 2251h-53M10673 2251h-53" fill="none" stroke="#fff"/><g aria-label="Commit 1" fill="#fff"><path d="M13262.63 3196.62q-39.37 0-72.39-14.605t-57.785-41.91q-24.13-27.94-38.1-67.945-13.335-40.64-13.335-91.44 0-50.165 13.97-90.17t38.735-67.945q24.765-27.94 58.42-42.545 33.655-15.24 73.66-15.24 38.1 0 66.675 15.875 29.21 15.24 47.625 35.56l-28.575 34.29q-16.51-17.78-37.465-28.575-20.955-10.795-47.625-10.795-29.845 0-53.975 12.065-24.13 11.43-41.275 33.655-17.145 21.59-26.67 52.705-8.89 31.115-8.89 69.85 0 39.37 8.89 71.12 9.525 31.115 26.035 53.34 16.51 22.225 40.005 34.29 24.13 12.065 53.975 12.065 30.48 0 53.34-12.065 22.86-12.7 43.18-34.925l29.21 33.02q-24.765 28.575-55.88 44.45-31.115 15.875-71.755 15.875zM13582.233 3196.62q-28.575 0-54.61-10.795-25.4-10.795-45.085-31.115-19.685-20.955-31.75-50.8-11.43-30.48-11.43-68.58 0-38.735 11.43-68.58 12.065-30.48 31.75-51.435 19.685-20.955 45.085-31.75 26.035-10.795 54.61-10.795t53.975 10.795q26.035 10.795 45.72 31.75t31.115 51.435q12.065 29.845 12.065 68.58 0 38.1-12.065 68.58-11.43 29.845-31.115 50.8-19.685 20.32-45.72 31.115-25.4 10.795-53.975 10.795zm0-43.18q19.685 0 36.195-8.255 16.51-8.89 27.94-24.13 12.065-15.875 18.415-37.465 6.35-21.59 6.35-48.26 0-26.67-6.35-48.26-6.35-22.225-18.415-38.1-11.43-15.875-27.94-24.13-16.51-8.89-36.195-8.89t-36.195 8.89q-16.51 8.255-28.575 24.13-11.43 15.875-17.78 38.1-6.35 21.59-6.35 48.26 0 26.67 6.35 48.26 6.35 21.59 17.78 37.465 12.065 15.24 28.575 24.13 16.51 8.255 36.195 8.255zM13807.004 3189v-308.61h43.18l4.445 44.45h1.905q20.32-22.225 43.815-36.83 24.13-15.24 52.07-15.24 35.56 0 55.245 15.875 20.32 15.24 29.845 43.18 24.13-26.67 48.26-42.545 24.765-16.51 53.34-16.51 47.625 0 70.485 30.48 23.495 30.48 23.495 90.17V3189h-52.07v-188.595q0-43.815-13.97-62.865-13.97-19.685-43.18-19.685-34.925 0-77.47 47.625V3189h-52.07v-188.595q0-43.815-13.97-62.865-13.97-19.685-43.815-19.685-34.925 0-77.47 47.625V3189zM14332.863 3189v-308.61h43.18l4.445 44.45h1.905q20.32-22.225 43.815-36.83 24.13-15.24 52.07-15.24 35.56 0 55.245 15.875 20.32 15.24 29.845 43.18 24.13-26.67 48.26-42.545 24.765-16.51 53.34-16.51 47.625 0 70.485 30.48 23.495 30.48 23.495 90.17V3189h-52.07v-188.595q0-43.815-13.97-62.865-13.97-19.685-43.18-19.685-34.925 0-77.47 47.625V3189h-52.07v-188.595q0-43.815-13.97-62.865-13.97-19.685-43.815-19.685-34.925 0-77.47 47.625V3189zM14858.722 3189v-308.61h52.07V3189zm26.67-372.11q-15.24 0-26.035-9.525-10.16-9.525-10.16-24.13 0-15.24 10.16-24.13 10.795-9.525 26.035-9.525t25.4 9.525q10.795 8.89 10.795 24.13 0 14.605-10.795 24.13-10.16 9.525-25.4 9.525zM15112.147 3196.62q-24.765 0-41.91-7.62-16.51-7.62-27.305-20.955-10.16-13.335-14.605-32.385-4.445-19.05-4.445-41.91v-170.815h-45.72v-39.37l48.26-3.175 6.35-86.36h43.815v86.36h83.185v42.545h-83.185v171.45q0 28.575 10.16 44.45 10.795 15.24 37.465 15.24 8.255 0 17.78-2.54t17.145-5.715l10.16 39.37q-12.7 4.445-27.94 7.62-14.605 3.81-29.21 3.81zM15354.151 3189v-43.18h92.71v-298.45h-73.66v-33.655q27.94-5.08 48.26-12.065 20.955-7.62 37.465-17.78h40.005v361.95h83.82V3189z"/></g></g><g class="com.sun.star.drawing.ConnectorShape"><path class="BoundingBox" fill="none" d="M12330 4810h201v3811h-201z"/><path d="M12430 5097v3236" fill="none" stroke="#fff"/><path d="M12430 4810l-100 300h200zM12430 8620l100-300h-200z" fill="#fff"/></g></g></g></g></svg>