<svg xmlns="http://www.w3.org/2000/svg" version="1.2" width="481.067" height="401.953" viewBox="0 0 12728.236 10635" preserveAspectRatio="xMidYMid" fill-rule="evenodd" stroke-width="28.222" stroke-linejoin="round"><defs class="ClipPathGroup"><clipPath id="a"><path d="M0 0h21000v29700H0z"/></clipPath></defs><g class="SlideGroup"><g class="Slide" clip-path="url(#a)" transform="translate(-2255.876 -1270)"><g class="Page"><g class="com.sun.star.drawing.CustomShape"><path class="BoundingBox" fill="none" d="M2269 8619h2543v2543H2269z"/><path d="M3540 8620c234 0 433 53 635 170 203 117 348 262 465 465 117 202 171 401 171 635s-54 433-171 635c-117 203-262 348-465 465-202 117-401 171-635 171s-433-54-635-171c-203-117-348-262-465-465-117-202-170-401-170-635-1-234 53-433 170-635 117-203 262-348 465-465 202-117 401-170 635-170z" fill="#c78921" fill-opacity=".4" stroke="#fff" stroke-opacity=".4"/><path d="M3540 8620c234 0 433 53 635 170 203 117 348 262 465 465 117 202 171 401 171 635s-54 433-171 635c-117 203-262 348-465 465-202 117-401 171-635 171s-433-54-635-171c-203-117-348-262-465-465-117-202-170-401-170-635-1-234 53-433 170-635 117-203 262-348 465-465 202-117 401-170 635-170z" fill="none" stroke="#000"/><text class="TextShape"><tspan class="TextParagraph" font-size="564" font-weight="400" font-family="'Source Sans Pro',sans-serif"> <tspan class="TextPosition" x="2738" y="10085">  </tspan> </tspan></text></g><g class="com.sun.star.drawing.CustomShape"><path class="BoundingBox" fill="none" d="M2269 5444h2543v2543H2269z"/><path d="M3540 5445c234 0 433 53 635 170 203 117 348 262 465 465 117 202 171 401 171 635s-54 433-171 635c-117 203-262 348-465 465-202 117-401 170-635 170s-433-53-635-170c-203-117-348-262-465-465-117-202-170-401-170-635-1-234 53-433 170-635 117-203 262-348 465-465 202-117 401-170 635-170z" fill="#c78921" fill-opacity=".4" stroke="#fff" stroke-opacity=".4"/><path d="M3540 5445c234 0 433 53 635 170 203 117 348 262 465 465 117 202 171 401 171 635s-54 433-171 635c-117 203-262 348-465 465-202 117-401 170-635 170s-433-53-635-170c-203-117-348-262-465-465-117-202-170-401-170-635-1-234 53-433 170-635 117-203 262-348 465-465 202-117 401-170 635-170z" fill="none" stroke="#000"/><text class="TextShape"><tspan class="TextParagraph" font-size="564" font-weight="400" font-family="'Source Sans Pro',sans-serif"> <tspan class="TextPosition" x="2738" y="6910">  </tspan> </tspan></text></g><g class="com.sun.star.drawing.CustomShape"><path class="BoundingBox" fill="none" d="M2269 2269h2543v2543H2269z"/><path d="M3540 2270c234 0 433 53 635 170 203 117 348 262 465 465 117 202 171 401 171 635s-54 433-171 635c-117 203-262 348-465 465-202 117-401 171-635 171s-433-54-635-171c-203-117-348-262-465-465-117-202-170-401-170-635-1-234 53-433 170-635 117-203 262-348 465-465 202-117 401-170 635-170z" fill="#c78921" fill-opacity=".4" stroke="#fff" stroke-opacity=".4"/><path d="M3540 2270c234 0 433 53 635 170 203 117 348 262 465 465 117 202 171 401 171 635s-54 433-171 635c-117 203-262 348-465 465-202 117-401 171-635 171s-433-54-635-171c-203-117-348-262-465-465-117-202-170-401-170-635-1-234 53-433 170-635 117-203 262-348 465-465 202-117 401-170 635-170z" stroke="#000" fill="none"/><text class="TextShape"><tspan class="TextParagraph" font-size="564" font-weight="400" font-family="'Source Sans Pro',sans-serif"> <tspan class="TextPosition" x="2738" y="3735">  </tspan> </tspan></text></g><g class="com.sun.star.drawing.CustomShape"><path class="BoundingBox" fill="none" d="M7349 5444h2543v2543H7349z"/><path d="M8620 5445c234 0 433 53 635 170 203 117 348 262 465 465 117 202 171 401 171 635s-54 433-171 635c-117 203-262 348-465 465-202 117-401 170-635 170s-433-53-635-170c-203-117-348-262-465-465-117-202-170-401-170-635s53-433 170-635c117-203 262-348 465-465 202-117 401-170 635-170z" fill="#f0684f" fill-opacity=".4" stroke="#fff" stroke-opacity=".4"/><path d="M8620 5445c234 0 433 53 635 170 203 117 348 262 465 465 117 202 171 401 171 635s-54 433-171 635c-117 203-262 348-465 465-202 117-401 170-635 170s-433-53-635-170c-203-117-348-262-465-465-117-202-170-401-170-635s53-433 170-635c117-203 262-348 465-465 202-117 401-170 635-170z" fill="none" stroke="#000"/><text class="TextShape"><tspan class="TextParagraph" font-size="564" font-weight="400" font-family="'Source Sans Pro',sans-serif"> <tspan class="TextPosition" x="7375" y="6910">  </tspan> </tspan></text></g><g class="com.sun.star.drawing.ConnectorShape"><path class="BoundingBox" fill="none" d="M4810 7612h2914v2375H4810z"/><path d="M7722 7613c-2463 0-1229 1900-2489 2229" fill="none" stroke="#000"/><path d="M4810 9890l465 95-36-297z"/></g><g class="com.sun.star.drawing.ConnectorShape"><path class="BoundingBox" fill="none" d="M4810 6565h2542v301H4810z"/><path d="M7350 6715H5240" fill="none" stroke="#000"/><path d="M4810 6715l450 150v-300z"/></g><g class="com.sun.star.drawing.ConnectorShape"><path class="BoundingBox" fill="none" d="M4810 3444h2914v2375H4810z"/><path d="M7722 5817c-2463 0-1229-1900-2489-2229" fill="none" stroke="#000"/><path d="M4810 3540l429 202 36-297z"/></g><g class="com.sun.star.drawing.CustomShape"><path class="BoundingBox" fill="none" d="M7349 8619h2543v2543H7349z"/><path d="M8620 8620c234 0 433 53 635 170 203 117 348 262 465 465 117 202 171 401 171 635s-54 433-171 635c-117 203-262 348-465 465-202 117-401 171-635 171s-433-54-635-171c-203-117-348-262-465-465-117-202-170-401-170-635s53-433 170-635c117-203 262-348 465-465 202-117 401-170 635-170z" fill="#f0684f" fill-opacity=".4" stroke="#fff" stroke-opacity=".4"/><path d="M8620 8620c234 0 433 53 635 170 203 117 348 262 465 465 117 202 171 401 171 635s-54 433-171 635c-117 203-262 348-465 465-202 117-401 171-635 171s-433-54-635-171c-203-117-348-262-465-465-117-202-170-401-170-635s53-433 170-635c117-203 262-348 465-465 202-117 401-170 635-170z" fill="none" stroke="#000"/><text class="TextShape"><tspan class="TextParagraph" font-size="564" font-weight="400" font-family="'Source Sans Pro',sans-serif"> <tspan class="TextPosition" x="7375" y="10085">  </tspan> </tspan></text></g><g class="com.sun.star.drawing.CustomShape"><path class="BoundingBox" fill="none" d="M7349 2269h2543v2543H7349z"/><path d="M8620 2270c234 0 433 53 635 170 203 117 348 262 465 465 117 202 171 401 171 635s-54 433-171 635c-117 203-262 348-465 465-202 117-401 171-635 171s-433-54-635-171c-203-117-348-262-465-465-117-202-170-401-170-635s53-433 170-635c117-203 262-348 465-465 202-117 401-170 635-170z" fill="#f0684f" fill-opacity=".4" stroke="#fff" stroke-opacity=".4"/><path d="M8620 2270c234 0 433 53 635 170 203 117 348 262 465 465 117 202 171 401 171 635s-54 433-171 635c-117 203-262 348-465 465-202 117-401 171-635 171s-433-54-635-171c-203-117-348-262-465-465-117-202-170-401-170-635s53-433 170-635c117-203 262-348 465-465 202-117 401-170 635-170z" fill="none" stroke="#000"/><text class="TextShape"><tspan class="TextParagraph" font-size="564" font-weight="400" font-family="'Source Sans Pro',sans-serif"> <tspan class="TextPosition" x="7375" y="3735">  </tspan> </tspan></text></g><g class="com.sun.star.drawing.ConnectorShape"><path class="BoundingBox" fill="none" d="M8470 7985h301v637h-301z"/><path d="M8620 8620v-205" fill="none" stroke="#000"/><path d="M8620 7985l-150 450h300z"/></g><g class="com.sun.star.drawing.ConnectorShape"><path class="BoundingBox" fill="none" d="M8470 4810h301v637h-301z"/><path d="M8620 5445v-205" fill="none" stroke="#000"/><path d="M8620 4810l-150 450h300z"/></g><g class="com.sun.star.drawing.ConnectorShape"><path class="BoundingBox" fill="none" d="M8469 1270h302v1002h-302z"/><path d="M8620 2270c0-1125 0-460-1-578" fill="none" stroke="#000"/><path d="M8616 1270l-147 451 300-2z"/></g><g class="com.sun.star.drawing.ConnectorShape"><path class="BoundingBox" fill="none" d="M8469 11160h302v745h-302z"/><path d="M8616 11903c0-181 2 59 4-311" fill="none" stroke="#000"/><path d="M8620 11160l-151 450h300z"/></g><g class="com.sun.star.drawing.CustomShape"><path class="BoundingBox" fill="none" d="M12428 2269h2544v2543h-2544z"/><path d="M13700 2270c234 0 433 53 635 170 203 117 348 262 465 465 117 202 170 401 170 635s-53 433-170 635c-117 203-262 348-465 465-202 117-401 171-635 171s-433-54-635-171c-203-117-348-262-465-465-117-202-171-401-171-635s54-433 171-635c117-203 262-348 465-465 202-117 401-170 635-170z" fill="#50b0b9" fill-opacity=".4" stroke="#fff" stroke-opacity=".4"/><path d="M13700 2270c234 0 433 53 635 170 203 117 348 262 465 465 117 202 170 401 170 635s-53 433-170 635c-117 203-262 348-465 465-202 117-401 171-635 171s-433-54-635-171c-203-117-348-262-465-465-117-202-171-401-171-635s54-433 171-635c117-203 262-348 465-465 202-117 401-170 635-170z" fill="none" stroke="#000"/><text class="TextShape"><tspan class="TextParagraph" font-size="564" font-weight="400" font-family="'Source Sans Pro',sans-serif"> <tspan class="TextPosition" x="12593" y="3735">  </tspan> </tspan></text></g><g class="com.sun.star.drawing.CustomShape"><path class="BoundingBox" fill="none" d="M12428 7349h2544v2543h-2544z"/><path d="M13700 7350c234 0 433 53 635 170 203 117 348 262 465 465 117 202 170 401 170 635s-53 433-170 635c-117 203-262 348-465 465-202 117-401 171-635 171s-433-54-635-171c-203-117-348-262-465-465-117-202-171-401-171-635s54-433 171-635c117-203 262-348 465-465 202-117 401-170 635-170z" fill="#50b0b9" fill-opacity=".4" stroke="#fff" stroke-opacity=".4"/><path d="M13700 7350c234 0 433 53 635 170 203 117 348 262 465 465 117 202 170 401 170 635s-53 433-170 635c-117 203-262 348-465 465-202 117-401 171-635 171s-433-54-635-171c-203-117-348-262-465-465-117-202-171-401-171-635s54-433 171-635c117-203 262-348 465-465 202-117 401-170 635-170z" fill="none" stroke="#000"/><text class="TextShape"><tspan class="TextParagraph" font-size="564" font-weight="400" font-family="'Source Sans Pro',sans-serif"> <tspan class="TextPosition" x="12593" y="8815">  </tspan> </tspan></text></g><g class="com.sun.star.drawing.ConnectorShape"><path class="BoundingBox" fill="none" d="M9890 3390h2542v301H9890z"/><path d="M12430 3540h-2110" fill="none" stroke="#000"/><path d="M9890 3540l450 150v-300z"/></g><g class="com.sun.star.drawing.ConnectorShape"><path class="BoundingBox" fill="none" d="M9890 4437h2914v2375H9890z"/><path d="M12802 4438c-2463 0-1229 1900-2489 2229" fill="none" stroke="#000"/><path d="M9890 6715l465 95-36-297z"/></g><g class="com.sun.star.drawing.ConnectorShape"><path class="BoundingBox" fill="none" d="M9890 8619h2542v1392H9890z"/><path d="M12430 8620c-1905 0-833 1058-2109 1243" fill="none" stroke="#000"/><path d="M9890 9890l459 120-20-300z"/></g></g></g></g><g aria-label="Δfile1" style="line-height:125%" font-weight="400" font-size="564.445" font-family="sans-serif" letter-spacing="0" word-spacing="0" stroke-width="26.458" stroke-linejoin="miter"><path d="M698.95 2124.29l-112.998 310.334h226.274zm-188.515 356.637l157.096-411.483h63.115l156.82 411.483zM1194.494 2172.246v308.68h-50.988v-269.268h-139.182v269.269h-50.987v-269.27H904.83v-39.411h48.507v-21.498q0-50.436 23.702-74.414 23.978-24.253 73.312-24.253h50.987v42.168h-48.507q-27.285 0-38.034 11.024-10.473 11.024-10.473 39.688v27.285zm-50.988-119.614h50.987v64.217h-50.987zM1301.154 2052.08h50.712v428.847h-50.712zM1721.731 2313.908v24.805h-233.164q3.307 52.365 31.42 79.926 28.387 27.285 78.823 27.285 29.215 0 56.5-7.165 27.56-7.166 54.57-21.498v47.956q-27.285 11.575-55.948 17.639-28.664 6.063-58.154 6.063-73.862 0-117.133-42.995-42.995-42.995-42.995-116.306 0-75.792 40.79-120.165 41.066-44.649 110.519-44.649 62.287 0 98.392 40.24 36.38 39.962 36.38 108.864zm-50.712-14.883q-.55-41.616-23.426-66.421-22.6-24.805-60.083-24.805-42.443 0-68.075 23.978-25.356 23.978-29.214 67.524zM1821.777 2434.073h90.95v-313.917L1813.784 2140v-50.712l98.392-19.844h55.673v364.63h90.95v46.852h-237.022z" style="-inkscape-font-specification:'sans-serif, Normal';font-variant-ligatures:normal;font-variant-caps:normal;font-variant-numeric:normal;font-feature-settings:normal;text-align:start"/></g><g aria-label="Δfile2" style="line-height:125%" font-weight="400" font-size="564.445" font-family="sans-serif" letter-spacing="0" word-spacing="0" stroke-width="26.458" stroke-linejoin="miter"><path d="M701.156 5298.79l-113 310.335H814.43zM512.64 5655.427l157.096-411.483h63.114l156.821 411.483zM1196.698 5346.746v308.68h-50.987v-269.268h-139.182v269.269h-50.987v-269.269h-48.507v-39.412h48.507v-21.497q0-50.437 23.702-74.414 23.978-24.254 73.311-24.254h50.988v42.168h-48.507q-27.285 0-38.034 11.024-10.473 11.025-10.473 39.688v27.285zm-50.987-119.614h50.987v64.217h-50.987zM1303.359 5226.581h50.711v428.846h-50.711zM1723.936 5488.408v24.805h-233.164q3.307 52.366 31.42 79.926 28.387 27.286 78.823 27.286 29.214 0 56.5-7.166 27.56-7.166 54.57-21.498v47.956q-27.285 11.576-55.948 17.639-28.664 6.063-58.154 6.063-73.863 0-117.133-42.994-42.995-42.995-42.995-116.307 0-75.792 40.79-120.165 41.066-44.648 110.519-44.648 62.287 0 98.392 40.238 36.38 39.963 36.38 108.865zm-50.712-14.882q-.551-41.617-23.427-66.422-22.6-24.805-60.082-24.805-42.444 0-68.075 23.978-25.356 23.978-29.215 67.524zM1862.291 5608.573h194.304v46.854h-261.277v-46.854q31.695-32.797 86.266-87.918 54.846-55.398 68.902-71.383 26.733-30.041 37.207-50.712 10.748-20.946 10.748-41.065 0-32.798-23.15-53.468-22.876-20.67-59.808-20.67-26.182 0-55.397 9.094-28.939 9.095-62.011 27.561v-56.224q33.624-13.505 62.838-20.395 29.215-6.89 53.468-6.89 63.941 0 101.975 31.97 38.034 31.971 38.034 85.439 0 25.356-9.647 48.231-9.37 22.6-34.45 53.468-6.89 7.993-43.822 46.302-36.932 38.034-104.18 106.66z" style="-inkscape-font-specification:'sans-serif, Normal';font-variant-ligatures:normal;font-variant-caps:normal;font-variant-numeric:normal;font-feature-settings:normal;text-align:start"/></g><g aria-label="Δfile3" style="line-height:125%" font-weight="400" font-size="564.445" font-family="sans-serif" letter-spacing="0" word-spacing="0" stroke-width="26.458" stroke-linejoin="miter"><path d="M695.506 8474.29l-113 310.335H808.78zM506.99 8830.927l157.096-411.483h63.115l156.82 411.483zM1191.048 8522.246v308.68h-50.987v-269.268h-139.182v269.269h-50.987v-269.269h-48.507v-39.412h48.507v-21.497q0-50.437 23.702-74.414 23.978-24.254 73.311-24.254h50.988v42.168h-48.507q-27.285 0-38.034 11.024-10.473 11.025-10.473 39.688v27.285zm-50.987-119.614h50.987v64.217h-50.987zM1297.709 8402.081h50.711v428.846h-50.711zM1718.286 8663.908v24.805h-233.164q3.307 52.366 31.42 79.926 28.387 27.286 78.823 27.286 29.214 0 56.5-7.166 27.56-7.166 54.57-21.498v47.956q-27.285 11.576-55.948 17.639-28.664 6.063-58.154 6.063-73.863 0-117.133-42.994-42.995-42.995-42.995-116.307 0-75.792 40.79-120.165 41.066-44.648 110.519-44.648 62.287 0 98.392 40.238 36.38 39.963 36.38 108.865zm-50.712-14.882q-.551-41.617-23.426-66.422-22.6-24.804-60.083-24.804-42.444 0-68.075 23.977-25.356 23.978-29.215 67.524zM1977.357 8609.063q39.963 8.543 62.288 35.553 22.6 27.01 22.6 66.697 0 60.91-41.893 94.258-41.892 33.348-119.062 33.348-25.908 0-53.468-5.236-27.286-4.961-56.5-15.159v-53.743q23.151 13.505 50.712 20.395 27.56 6.89 57.602 6.89 52.365 0 79.65-20.67 27.561-20.671 27.561-60.083 0-36.38-25.631-56.775-25.356-20.67-70.831-20.67h-47.956v-45.752h50.16q41.066 0 62.84-16.26 21.772-16.537 21.772-47.405 0-31.695-22.6-48.507-22.324-17.088-64.216-17.088-22.876 0-49.059 4.961-26.182 4.961-57.602 15.434v-49.61q31.695-8.819 59.256-13.228 27.836-4.41 52.366-4.41 63.39 0 100.32 28.939 36.932 28.663 36.932 77.721 0 34.175-19.568 57.878-19.568 23.426-55.673 32.521z" style="-inkscape-font-specification:'sans-serif, Normal';font-variant-ligatures:normal;font-variant-caps:normal;font-variant-numeric:normal;font-feature-settings:normal;text-align:start"/></g><g aria-label="commit3" style="line-height:125%" font-weight="400" font-size="564.445" font-family="sans-serif" letter-spacing="0" word-spacing="0" stroke-width="26.458" stroke-linejoin="miter"><path d="M5403.717 8534.097v47.405q-21.497-11.851-43.27-17.64-21.497-6.062-43.546-6.062-49.334 0-76.619 31.419-27.285 31.143-27.285 87.643t27.285 87.919q27.285 31.144 76.619 31.144 22.049 0 43.546-5.788 21.773-6.064 43.27-17.915v46.854q-21.221 9.922-44.097 14.882-22.6 4.961-48.231 4.961-69.729 0-110.794-43.821-41.066-43.822-41.066-118.236 0-75.516 41.341-118.787 41.617-43.27 113.826-43.27 23.427 0 45.751 4.96 22.324 4.686 43.27 14.332zM5612.077 8557.8q-40.79 0-64.492 31.97-23.703 31.695-23.703 87.092t23.427 87.368q23.702 31.695 64.768 31.695 40.514 0 64.216-31.97 23.703-31.971 23.703-87.093 0-54.846-23.703-86.816-23.702-32.246-64.216-32.246zm0-42.995q66.146 0 103.904 42.994 37.758 42.995 37.758 119.063 0 75.792-37.758 119.063-37.758 42.994-103.904 42.994-66.422 0-104.18-42.994-37.482-43.27-37.482-119.063 0-76.068 37.482-119.063 37.758-42.994 104.18-42.994zM6077.854 8581.502q19.017-34.176 45.475-50.436 26.459-16.261 62.288-16.261 48.231 0 74.414 33.9 26.183 33.624 26.183 95.91v186.312h-50.988V8646.27q0-44.373-15.71-65.87-15.71-21.498-47.955-21.498-39.412 0-62.288 26.183-22.875 26.182-22.875 71.382v174.46h-50.988V8646.27q0-44.649-15.71-65.87-15.709-21.498-48.506-21.498-38.86 0-61.736 26.458-22.876 26.183-22.876 71.107v174.46h-50.987v-308.68h50.987v47.955q17.363-28.388 41.617-41.893 24.253-13.504 57.602-13.504 33.624 0 57.05 17.087 23.703 17.088 35.003 49.61zM6627.967 8581.502q19.017-34.176 45.475-50.436 26.459-16.261 62.288-16.261 48.231 0 74.414 33.9 26.183 33.624 26.183 95.91v186.312h-50.988V8646.27q0-44.373-15.71-65.87-15.71-21.498-47.955-21.498-39.412 0-62.288 26.183-22.875 26.182-22.875 71.382v174.46h-50.988V8646.27q0-44.649-15.71-65.87-15.709-21.498-48.506-21.498-38.86 0-61.736 26.458-22.876 26.183-22.876 71.107v174.46h-50.987v-308.68h50.987v47.955q17.364-28.388 41.617-41.893 24.254-13.504 57.602-13.504 33.624 0 57.05 17.087 23.703 17.088 35.003 49.61zM6937.75 8522.246h50.712v308.68h-50.712zm0-120.165h50.712v64.217h-50.712zM7144.456 8434.603v87.643h104.455v39.412h-104.455v167.57q0 37.758 10.198 48.506 10.473 10.75 42.167 10.75h52.09v42.443h-52.09q-58.704 0-81.028-21.773-22.324-22.049-22.324-79.927v-167.569h-37.207v-39.412h37.207v-87.643zM7491.722 8609.063q39.963 8.543 62.287 35.553 22.6 27.01 22.6 66.697 0 60.91-41.892 94.258-41.893 33.348-119.063 33.348-25.907 0-53.468-5.236-27.285-4.961-56.5-15.159v-53.743q23.152 13.505 50.712 20.395 27.561 6.89 57.603 6.89 52.365 0 79.65-20.67 27.561-20.671 27.561-60.083 0-36.38-25.632-56.775-25.356-20.67-70.83-20.67h-47.957v-45.752h50.161q41.066 0 62.839-16.26 21.773-16.537 21.773-47.405 0-31.695-22.6-48.507-22.324-17.088-64.217-17.088-22.875 0-49.058 4.961t-57.602 15.434v-49.61q31.695-8.819 59.256-13.228 27.836-4.41 52.365-4.41 63.39 0 100.321 28.939 36.932 28.663 36.932 77.721 0 34.175-19.568 57.878-19.568 23.426-55.673 32.521z" style="-inkscape-font-specification:'sans-serif, Normal';font-variant-ligatures:normal;font-variant-caps:normal;font-variant-numeric:normal;font-feature-settings:normal;text-align:start"/></g><g aria-label="commit2" style="line-height:125%" font-weight="400" font-size="564.445" font-family="sans-serif" letter-spacing="0" word-spacing="0" stroke-width="26.458" stroke-linejoin="miter"><path d="M5405.922 5358.597v47.405q-21.497-11.851-43.27-17.64-21.497-6.063-43.546-6.063-49.334 0-76.619 31.42-27.285 31.143-27.285 87.643t27.285 87.919q27.285 31.144 76.619 31.144 22.049 0 43.546-5.788 21.773-6.064 43.27-17.915v46.854q-21.221 9.921-44.097 14.882-22.6 4.961-48.231 4.961-69.729 0-110.794-43.821-41.066-43.822-41.066-118.236 0-75.517 41.341-118.787 41.617-43.27 113.826-43.27 23.427 0 45.751 4.96 22.324 4.686 43.27 14.332zM5614.282 5382.3q-40.79 0-64.492 31.97-23.702 31.695-23.702 87.092t23.426 87.368q23.702 31.695 64.768 31.695 40.514 0 64.217-31.97 23.702-31.971 23.702-87.093 0-54.846-23.702-86.816-23.703-32.246-64.217-32.246zm0-42.995q66.146 0 103.904 42.994 37.758 42.995 37.758 119.063 0 75.792-37.758 119.063-37.758 42.994-103.904 42.994-66.421 0-104.18-42.994-37.482-43.27-37.482-119.063 0-76.068 37.482-119.063 37.759-42.994 104.18-42.994zM6080.06 5406.002q19.016-34.176 45.474-50.437 26.459-16.26 62.288-16.26 48.231 0 74.414 33.9 26.183 33.624 26.183 95.91v186.312h-50.988V5470.77q0-44.373-15.71-65.87-15.71-21.498-47.955-21.498-39.412 0-62.288 26.183-22.875 26.182-22.875 71.382v174.46h-50.987V5470.77q0-44.649-15.71-65.87-15.71-21.498-48.507-21.498-38.86 0-61.736 26.458-22.876 26.183-22.876 71.107v174.46H5837.8v-308.68h50.987v47.955q17.364-28.388 41.617-41.893 24.253-13.504 57.602-13.504 33.624 0 57.05 17.087 23.703 17.088 35.003 49.61zM6630.172 5406.002q19.017-34.176 45.476-50.437 26.458-16.26 62.287-16.26 48.231 0 74.414 33.9 26.183 33.624 26.183 95.91v186.312h-50.988V5470.77q0-44.373-15.71-65.87-15.71-21.498-47.955-21.498-39.412 0-62.287 26.183-22.876 26.182-22.876 71.382v174.46h-50.987V5470.77q0-44.649-15.71-65.87-15.71-21.498-48.507-21.498-38.86 0-61.736 26.458-22.876 26.183-22.876 71.107v174.46h-50.987v-308.68h50.987v47.955q17.364-28.388 41.617-41.893 24.254-13.504 57.602-13.504 33.624 0 57.051 17.087 23.702 17.088 35.002 49.61zM6939.955 5346.746h50.712v308.68h-50.712zm0-120.165h50.712v64.217h-50.712zM7146.661 5259.103v87.643h104.456v39.412H7146.66v167.57q0 37.758 10.198 48.506 10.473 10.75 42.168 10.75h52.09v42.443h-52.09q-58.705 0-81.03-21.773-22.323-22.049-22.323-79.927v-167.569h-37.207v-39.412h37.207v-87.643zM7373.21 5608.573h194.304v46.854h-261.276v-46.854q31.695-32.797 86.265-87.918 54.846-55.398 68.902-71.383 26.734-30.041 37.207-50.712 10.75-20.946 10.75-41.065 0-32.798-23.152-53.468-22.875-20.67-59.807-20.67-26.183 0-55.397 9.094-28.939 9.095-62.012 27.561v-56.224q33.624-13.505 62.839-20.395 29.214-6.89 53.468-6.89 63.94 0 101.975 31.97 38.033 31.971 38.033 85.439 0 25.356-9.646 48.231-9.37 22.6-34.45 53.468-6.891 7.993-43.822 46.302-36.932 38.034-104.18 106.66z" style="-inkscape-font-specification:'sans-serif, Normal';font-variant-ligatures:normal;font-variant-caps:normal;font-variant-numeric:normal;font-feature-settings:normal;text-align:start"/></g><g aria-label="commit1" style="line-height:125%" font-weight="400" font-size="564.445" font-family="sans-serif" letter-spacing="0" word-spacing="0" stroke-width="26.458" stroke-linejoin="miter"><path d="M5403.717 2184.097v47.404q-21.497-11.85-43.27-17.638-21.497-6.064-43.546-6.064-49.334 0-76.619 31.42-27.285 31.143-27.285 87.643t27.285 87.919q27.285 31.143 76.619 31.143 22.049 0 43.546-5.787 21.773-6.064 43.27-17.915v46.853q-21.221 9.922-44.097 14.883-22.6 4.961-48.231 4.961-69.729 0-110.794-43.821-41.066-43.822-41.066-118.236 0-75.517 41.341-118.787 41.617-43.27 113.826-43.27 23.427 0 45.751 4.96 22.324 4.686 43.27 14.332zM5612.077 2207.8q-40.79 0-64.492 31.97-23.703 31.695-23.703 87.092t23.427 87.367q23.702 31.695 64.768 31.695 40.514 0 64.216-31.97 23.703-31.97 23.703-87.092 0-54.846-23.703-86.817-23.702-32.246-64.216-32.246zm0-42.996q66.146 0 103.904 42.995 37.758 42.995 37.758 119.063 0 75.792-37.758 119.062-37.758 42.995-103.904 42.995-66.422 0-104.18-42.995-37.482-43.27-37.482-119.062 0-76.068 37.482-119.063 37.758-42.995 104.18-42.995zM6077.854 2231.501q19.017-34.175 45.475-50.436 26.459-16.26 62.288-16.26 48.231 0 74.414 33.9 26.183 33.623 26.183 95.91v186.312h-50.988v-184.658q0-44.372-15.71-65.87-15.71-21.497-47.955-21.497-39.412 0-62.288 26.182-22.875 26.183-22.875 71.383v174.46h-50.988v-184.658q0-44.648-15.71-65.87-15.709-21.497-48.506-21.497-38.86 0-61.736 26.458-22.876 26.183-22.876 71.107v174.46h-50.987v-308.681h50.987v47.956q17.363-28.388 41.617-41.893 24.253-13.505 57.602-13.505 33.624 0 57.05 17.088 23.703 17.088 35.003 49.61zM6627.967 2231.501q19.017-34.175 45.475-50.436 26.459-16.26 62.288-16.26 48.231 0 74.414 33.9 26.183 33.623 26.183 95.91v186.312h-50.988v-184.658q0-44.372-15.71-65.87-15.71-21.497-47.955-21.497-39.412 0-62.288 26.182-22.875 26.183-22.875 71.383v174.46h-50.988v-184.658q0-44.648-15.71-65.87-15.709-21.497-48.506-21.497-38.86 0-61.736 26.458-22.876 26.183-22.876 71.107v174.46h-50.987v-308.681h50.987v47.956q17.364-28.388 41.617-41.893 24.254-13.505 57.602-13.505 33.624 0 57.05 17.088 23.703 17.088 35.003 49.61zM6937.75 2172.246h50.712v308.68h-50.712zm0-120.165h50.712v64.216h-50.712zM7144.456 2084.602v87.644h104.455v39.412h-104.455v167.57q0 37.758 10.198 48.506 10.473 10.749 42.167 10.749h52.09v42.444h-52.09q-58.704 0-81.028-21.773-22.324-22.05-22.324-79.927v-167.57h-37.207v-39.411h37.207v-87.643zM7332.696 2434.073h90.95v-313.917L7324.705 2140v-50.712l98.392-19.844h55.672v364.63h90.95v46.852h-237.022z" style="-inkscape-font-specification:'sans-serif, Normal';font-variant-ligatures:normal;font-variant-caps:normal;font-variant-numeric:normal;font-feature-settings:normal;text-align:start"/></g><g aria-label="author2" style="line-height:125%" font-weight="400" font-size="564.445" font-family="sans-serif" letter-spacing="0" word-spacing="0" stroke-width="26.458" stroke-linejoin="miter"><path d="M10537.839 7405.76q-61.461 0-85.163 14.056-23.702 14.056-23.702 47.955 0 27.01 17.639 42.995 17.914 15.71 48.507 15.71 42.168 0 67.524-29.766 25.631-30.041 25.631-79.65v-11.3zm101.148-20.947v176.114h-50.712v-46.854q-17.363 28.112-43.27 41.617-25.907 13.23-63.39 13.23-47.405 0-75.517-26.459-27.836-26.734-27.836-71.382 0-52.09 34.727-78.549 35.002-26.458 104.179-26.458h71.107v-4.96q0-35.003-23.151-54.02-22.875-19.293-64.492-19.293-26.458 0-51.539 6.34-25.08 6.338-48.231 19.016v-46.853q27.836-10.749 54.019-15.985 26.183-5.512 50.987-5.512 66.973 0 100.046 34.726 33.073 34.727 33.073 105.282zM10738.481 7439.108v-186.862h50.712v184.933q0 43.821 17.088 65.87 17.088 21.773 51.263 21.773 41.066 0 64.768-26.183 23.978-26.182 23.978-71.382v-175.01h50.711v308.68h-50.711v-47.405q-18.466 28.112-42.995 41.893-24.254 13.504-56.5 13.504-53.192 0-80.753-33.073t-27.561-96.738zm127.607-194.303zM11152.169 7164.603v87.643h104.455v39.412h-104.455v167.57q0 37.758 10.197 48.506 10.473 10.75 42.168 10.75h52.09v42.443h-52.09q-58.704 0-81.028-21.773-22.325-22.049-22.325-79.927v-167.569h-37.207v-39.412h37.207v-87.643zM11580.188 7374.616v186.31h-50.712V7376.27q0-43.822-17.088-65.595-17.088-21.773-51.263-21.773-41.066 0-64.768 26.183-23.702 26.182-23.702 71.382v174.46h-50.988V7132.08h50.988v168.12q18.19-27.836 42.719-41.616 24.805-13.78 57.051-13.78 53.192 0 80.477 33.073 27.286 32.797 27.286 96.738zM11801.501 7287.8q-40.79 0-64.493 31.97-23.702 31.695-23.702 87.092t23.427 87.368q23.702 31.695 64.768 31.695 40.514 0 64.216-31.97 23.702-31.971 23.702-87.093 0-54.846-23.702-86.816-23.702-32.246-64.216-32.246zm0-42.995q66.145 0 103.904 42.994 37.758 42.995 37.758 119.063 0 75.792-37.758 119.063-37.759 42.994-103.904 42.994-66.422 0-104.18-42.994-37.483-43.27-37.483-119.063 0-76.068 37.483-119.063 37.758-42.994 104.18-42.994zM12205.817 7299.65q-8.544-4.96-18.741-7.165-9.922-2.48-22.049-2.48-42.995 0-66.146 28.111-22.875 27.837-22.875 80.202v162.609h-50.988v-308.68h50.988v47.955q15.985-28.112 41.617-41.617 25.631-13.78 62.287-13.78 5.237 0 11.576.827 6.338.55 14.056 1.929zM12314.682 7514.073h194.304v46.854h-261.276v-46.854q31.694-32.797 86.265-87.918 54.846-55.398 68.902-71.383 26.734-30.041 37.207-50.712 10.748-20.946 10.748-41.065 0-32.798-23.151-53.468-22.875-20.67-59.806-20.67-26.183 0-55.398 9.094-28.938 9.095-62.011 27.561v-56.224q33.624-13.505 62.838-20.395 29.215-6.89 53.468-6.89 63.941 0 101.975 31.97 38.034 31.971 38.034 85.439 0 25.356-9.646 48.231-9.371 22.6-34.451 53.468-6.891 7.993-43.822 46.302-36.931 38.034-104.18 106.66z" style="-inkscape-font-specification:'sans-serif, Normal';font-variant-ligatures:normal;font-variant-caps:normal;font-variant-numeric:normal;font-feature-settings:normal;text-align:start"/></g><g aria-label="author1" style="line-height:125%" font-weight="400" font-size="564.445" font-family="sans-serif" letter-spacing="0" word-spacing="0" stroke-width="26.458" stroke-linejoin="miter"><path d="M10535.634 2325.76q-61.461 0-85.163 14.055-23.702 14.056-23.702 47.956 0 27.01 17.639 42.995 17.914 15.71 48.507 15.71 42.168 0 67.524-29.766 25.631-30.041 25.631-79.65v-11.3zm101.148-20.947v176.113h-50.712v-46.853q-17.363 28.112-43.27 41.617-25.907 13.23-63.39 13.23-47.405 0-75.517-26.46-27.836-26.733-27.836-71.382 0-52.09 34.727-78.548 35.002-26.458 104.179-26.458h71.107v-4.961q0-35.002-23.151-54.02-22.875-19.292-64.492-19.292-26.459 0-51.539 6.34-25.08 6.338-48.231 19.016v-46.853q27.836-10.749 54.019-15.985 26.183-5.513 50.987-5.513 66.973 0 100.046 34.727 33.073 34.727 33.073 105.282zM10736.276 2359.108v-186.862h50.712v184.933q0 43.821 17.088 65.87 17.088 21.773 51.263 21.773 41.065 0 64.768-26.183 23.978-26.183 23.978-71.382v-175.011h50.711v308.68h-50.711v-47.404q-18.466 28.112-42.995 41.892-24.254 13.505-56.5 13.505-53.192 0-80.753-33.073t-27.561-96.738zm127.607-194.304zM11149.964 2084.602v87.644h104.455v39.412h-104.455v167.57q0 37.758 10.197 48.506 10.473 10.749 42.168 10.749h52.09v42.444h-52.09q-58.704 0-81.029-21.773-22.324-22.05-22.324-79.927v-167.57h-37.207v-39.411h37.207v-87.643zM11577.982 2294.616v186.31h-50.711V2296.27q0-43.821-17.088-65.594-17.088-21.773-51.263-21.773-41.066 0-64.768 26.182-23.702 26.183-23.702 71.383v174.46h-50.988V2052.08h50.988v168.12q18.19-27.836 42.719-41.616 24.805-13.78 57.051-13.78 53.192 0 80.477 33.072 27.285 32.798 27.285 96.739zM11799.295 2207.8q-40.79 0-64.492 31.97-23.702 31.695-23.702 87.092t23.427 87.367q23.702 31.695 64.767 31.695 40.515 0 64.217-31.97 23.702-31.97 23.702-87.092 0-54.846-23.702-86.817-23.702-32.246-64.217-32.246zm0-42.996q66.146 0 103.905 42.995 37.758 42.995 37.758 119.063 0 75.792-37.758 119.062-37.759 42.995-103.905 42.995-66.421 0-104.179-42.995-37.483-43.27-37.483-119.062 0-76.068 37.483-119.063 37.758-42.995 104.179-42.995zM12203.612 2219.65q-8.544-4.96-18.741-7.165-9.922-2.48-22.049-2.48-42.995 0-66.146 28.111-22.875 27.836-22.875 80.202v162.608h-50.988v-308.68h50.988v47.956q15.985-28.112 41.617-41.617 25.631-13.78 62.287-13.78 5.236 0 11.575.826 6.339.551 14.056 1.93zM12274.168 2434.073h90.95v-313.917l-98.943 19.844v-50.712l98.392-19.844h55.673v364.63h90.95v46.852h-237.022z" style="-inkscape-font-specification:'sans-serif, Normal';font-variant-ligatures:normal;font-variant-caps:normal;font-variant-numeric:normal;font-feature-settings:normal;text-align:start"/></g></svg>