<?xml version="1.0" encoding="UTF-8" standalone="no"?>
<svg
   xmlns:dc="http://purl.org/dc/elements/1.1/"
   xmlns:cc="http://creativecommons.org/ns#"
   xmlns:rdf="http://www.w3.org/1999/02/22-rdf-syntax-ns#"
   xmlns:svg="http://www.w3.org/2000/svg"
   xmlns="http://www.w3.org/2000/svg"
   xmlns:sodipodi="http://sodipodi.sourceforge.net/DTD/sodipodi-0.dtd"
   xmlns:inkscape="http://www.inkscape.org/namespaces/inkscape"
   width="83.025"
   height="80.727"
   version="1.1"
   id="svg134"
   sodipodi:docname="msr.svg"
   inkscape:version="0.92.3 (2405546, 2018-03-11)"
   inkscape:export-filename="/home/vadim/Desktop/msr.png"
   inkscape:export-xdpi="713.42365"
   inkscape:export-ydpi="713.42365">
  <metadata
     id="metadata140">
    <rdf:RDF>
      <cc:Work
         rdf:about="">
        <dc:format>image/svg+xml</dc:format>
        <dc:type
           rdf:resource="http://purl.org/dc/dcmitype/StillImage" />
      </cc:Work>
    </rdf:RDF>
  </metadata>
  <defs
     id="defs138" />
  <sodipodi:namedview
     pagecolor="#ffffff"
     bordercolor="#666666"
     borderopacity="1"
     objecttolerance="10"
     gridtolerance="10"
     guidetolerance="10"
     inkscape:pageopacity="0"
     inkscape:pageshadow="2"
     inkscape:window-width="640"
     inkscape:window-height="480"
     id="namedview136"
     showgrid="false"
     inkscape:zoom="10.300861"
     inkscape:cx="55.122682"
     inkscape:cy="38.963664"
     inkscape:current-layer="svg134" />
  <path
     d="m 78.542,71.752 c -2.778,-0.244 -6.025,-1.217 -7.86,-2.355 -0.318,-0.198 -0.678,-0.492 -1.134,-0.928 -0.718,-0.687 -1.015,-0.917 -1.276,-0.99 -0.207,-0.056 -0.71,-0.585 -0.874,-0.917 -0.104,-0.211 -0.170484,-0.329161 -0.170484,-0.805161 0,-0.49 0.06848,-0.577839 0.221484,-1.024839 0.224,-0.657 0.874,-1.926 1.689,-3.3 0.66,-1.11 1.301,-2.304 1.354,-2.518 0.047,-0.188 0.332,-0.266 1.152,-0.315 0.873,-0.052 1.06,-0.095 1.291,-0.298 0.458,-0.402 1.218,-2.121 2.028,-4.583 0.368,-1.12 1.52,-5.158 1.52,-5.328 0,-0.186 -0.084,-0.285 -0.333,-0.391 -0.61,-0.26 -1.802135,-0.306528 -3.207135,-0.197528 -0.557,0.042 -0.571865,-0.0025 -0.830865,-0.122472 -0.46,-0.215 -1.564337,-1.340405 -1.564337,-1.592405 0,-0.168 0.227337,-0.257595 0.765337,-0.434595 0.603,-0.2 0.914,-0.354 1.044,-0.52 0.14,-0.178 0.194,-0.516 0.227,-1.437 0.05,-1.417 0.178,-2.23 0.43,-2.744 0.579,-1.178 2.56,-2.976 4.081,-3.702 0.576,-0.275 1.284,-0.525 1.488,-0.524 0.242,0 0.436,0.15 0.777,0.602 0.387,0.513 0.447,0.653 0.447,1.046 0,0.69 -0.593,3.069 -1.06,4.252 l -0.205,0.522 -0.025,-0.966 c -0.027,-1.03 -0.057,-1.165 -0.27,-1.218 -0.29,-0.073 -0.436,0.085 -0.848,0.92 -0.153,0.311 -0.475,0.88 -0.715,1.263 -0.732,1.17 -0.881,1.515 -0.946,2.178 -0.057,0.592 -0.231,0.848 -0.445,0.655 -0.132,-0.12 -0.2,-0.49 -0.2,-1.093 0,-0.934 -0.135,-1.253 -0.552,-1.3 -0.432,-0.049 -0.526,0.082 -0.77,1.077 -0.091,0.368 -0.207,0.726 -0.257,0.794 -0.139,0.188 -0.325,0.256 -0.77,0.28 -0.523,0.03 -0.627,0.053 -0.627,0.14 0,0.131 0.0573,0.36846 0.329302,0.49746 0.82,0.388 3.151698,0.73654 3.810698,0.56154 0.241,-0.064 0.249,-0.071 0.35,-0.363 0.07836,-0.207446 0.176831,-0.406729 0.294,-0.595 0.222,-0.346 0.86,-1.248 0.887,-1.222 0.01,0.01 -0.103,0.484 -0.16,0.836 -0.17,1.054 -0.132,1.368 0.18,1.473 0.24,0.081 0.284,0.152 0.28,0.443 -0.005,0.36 -0.218,0.97 -0.578,1.663 -0.72,1.38 -0.885,1.82 -1.002,2.663 -0.104,0.755 -0.33,1.62 -0.79,3.032 -0.78,2.399 -0.984,3.229 -0.992,4.045 -0.004,0.56 0,0.584 0.126,0.72 0.258,0.277 0.329,0.496 0.39,1.213 0.05,0.605 0.14,0.866 0.318,0.934 0.177,0.068 0.277,0.248 0.307,0.554 0.04,0.411 0.062,0.479 0.189,0.6 0.15,0.145 0.422,0.883 0.389,1.057 -0.03,0.159 0.325,0.698 0.93,1.413 0.673,0.795 1.363,1.65 1.533,1.9 0.303,0.444 0.117,0.68 -0.306,0.39 -0.225,-0.155 -0.43,-0.404 -0.884,-1.073 -0.529,-0.779 -1.612,-1.731 -2.246,-1.973 -0.319,-0.122 -0.555,-0.099 -1.354,0.131 -1.134,0.327 -2.3,0.838 -2.38,1.044 -0.035,0.092 0.182,0.405 0.655,0.949 0.207,0.236 0.412,0.506 0.456,0.598 0.077,0.16 0.075,0.18 -0.03,0.38 -0.06,0.115 -0.181,0.306 -0.27,0.424 -0.155,0.21 -0.157,0.217 -0.063,0.286 0.057,0.041 0.16,0.06 0.248,0.047 0.084,-0.014 0.525,-0.073 0.982,-0.133 0.657,-0.086 0.858,-0.096 0.957,-0.05 0.105,0.047 0.118,0.073 0.075,0.153 -0.0304,0.0618 -0.04776,0.1292 -0.051,0.198 0,0.088 0.03,0.103 0.21,0.102 0.116,0 0.334,-0.033 0.484,-0.073 0.333,-0.09 0.645,-0.097 0.645,-0.016 0,0.033 -0.026,0.187 -0.059,0.343 -0.105,0.51 0.075,0.85 0.59,1.123 0.327,0.172 0.694,0.261 1.075,0.261 0.356,0 0.809,0.09 1.03,0.202 0.11,0.056 0.231,0.176 0.297,0.294 0.202,0.358 0.686,0.5 1.363,0.397 0.865,-0.131 1.69,-0.492 2.187,-0.957 l 0.365484,-0.499936 v 0.543097 c 0,0.177 0.03748,0.474839 0.01948,0.682839 l 0.01948,0.448645 L 82.379,71.455 c -0.237123,-0.0299 -0.687,0.06 -1.145,0.151 -0.847,0.17 -1.82,0.223 -2.692,0.146 z"
     id="path963"
     style="fill:#9998c3;fill-opacity:1;stroke:#9996c5;stroke-width:0.07;stroke-miterlimit:4;stroke-dasharray:none;stroke-opacity:1"
     inkscape:connector-curvature="0"
     sodipodi:nodetypes="cccccsccccccscccscccccccsccccccccsccccscccccccccccccccccccccccccccccccccccccsccscccccsccscc" />
  <path
     d="m 9.168,47.955 c -0.224,-0.143 0.141,-0.73 -0.035,-0.621 -0.176,0.109 -0.444,0.447 -0.444,0.16 0,-0.481 -0.028,-0.78 -0.506,-0.302 -0.661,0.662 -0.676,0.628 -0.512,-1.21 0.135,-1.509 0.155,-1.534 1.064,-1.335 0.926,0.204 0.926,0.204 0.926,-1.411 0,-1.308 0.304,-2.208 1.594,-4.726 0.876,-1.71 1.543,-3.16 1.48,-3.222 -0.193,-0.194 -2.048,2.881 -3.432,5.691 -0.732,1.486 -1.39,2.534 -1.463,2.33 -0.073,-0.205 0.532,-1.696 1.344,-3.314 0.813,-1.618 1.416,-3.003 1.34,-3.078 -0.24,-0.241 -1.31,1.557 -2.496,4.197 -0.732,1.627 -1.427,2.705 -1.9,2.946 -1.107,0.562 -1.614,1.802 -1.58,3.863 0.015,1.01 -0.063,4.789 -0.176,8.397 -0.172,5.479 -0.29,6.626 -0.72,6.96 -0.666,0.52 -0.88,0.505 -1.488,-0.103 -0.734,-0.734 -0.615,-1.376 0.297,-1.606 0.623,-0.156 0.8,-0.406 0.8,-1.126 0,-0.807 -0.118,-0.925 -0.928,-0.925 -0.698,0 -1.094,0.259 -1.595,1.04 -0.72,1.126 -0.91,0.78 -0.302,-0.553 0.35,-0.767 0.715,-0.954 2.345,-1.198 0.59,-0.088 0.654,-0.412 0.82,-4.104 0.098,-2.204 0.28,-4.174 0.405,-4.376 0.125,-0.202 0.091,-0.975 -0.075,-1.718 -0.385,-1.712 0.533,-4.45 1.7,-5.075 0.498,-0.266 1.138,-1.291 1.837,-2.943 0.664,-1.568 1.866,-3.526 3.153,-5.138 2.003,-2.508 4.961,-5.32 5.27,-5.011 0.083,0.082 -0.425,1.222 -1.128,2.532 -3.352,6.255 -4.268,8.425 -4.401,10.431 -0.118,1.768 -0.064,1.989 0.53,2.177 0.364,0.116 1.045,0.666 1.513,1.223 1.001,1.19 4.794,2.79 6.616,2.792 0.66,0 1.2,-0.036 1.2,-0.081 0,-0.045 -0.134,-0.55 -0.297,-1.12 -0.362,-1.262 -0.168,-1.297 1,-0.178 l 0.897,0.86 v -1.207 c 0,-1.658 0.675,-1.364 1.257,0.547 0.25,0.825 0.575,1.5 0.72,1.5 0.145,0 0.263,-0.777 0.263,-1.726 0,-2.765 1.448,-2.728 1.658,0.043 0.08,1.05 0.2,1.284 0.545,1.069 0.76,-0.474 1.054,-3.488 0.519,-5.306 -0.429,-1.456 -0.615,-1.665 -2.063,-2.32 -0.876,-0.396 -1.735,-0.72 -1.91,-0.72 -0.174,0 -0.454,-0.245 -0.621,-0.544 -0.27,-0.484 -0.47,-0.41 -1.776,0.661 -1.09,0.893 -1.472,1.43 -1.472,2.073 0,0.477 -0.224,1.188 -0.498,1.579 -0.45,0.643 -0.45,0.779 0,1.422 0.56,0.8 0.674,2.489 0.168,2.489 -0.181,0 -0.405,-0.252 -0.496,-0.56 -0.091,-0.308 -0.375,-0.968 -0.63,-1.466 -0.568,-1.11 -0.59,-1.88 -0.066,-2.403 0.218,-0.219 0.545,-0.927 0.727,-1.574 0.412,-1.47 2.489,-3.128 4.3,-3.434 0.957,-0.162 1.295,-0.37 1.295,-0.8 0,-0.363 0.377,-0.712 1.008,-0.932 1.269,-0.442 1.248,-0.444 1.028,0.129 -0.241,0.629 0.862,0.634 2.954,0.015 1.373,-0.407 1.492,-0.407 0.95,0 -0.738,0.552 -0.113,0.623 0.866,0.1 0.523,-0.281 0.714,-0.275 0.814,0.025 0.084,0.252 0.462,0.075 1.056,-0.494 0.513,-0.492 0.924,-0.702 0.924,-0.472 0,0.228 0.199,0.338 0.441,0.245 0.243,-0.093 0.58,-0.03 0.75,0.14 0.198,0.198 0.455,0.131 0.718,-0.185 0.603,-0.727 1.047,-0.6 0.795,0.226 -0.2,0.657 -0.129,0.636 0.82,-0.24 0.722,-0.666 1.087,-0.832 1.19,-0.543 0.112,0.309 0.265,0.268 0.593,-0.16 0.366,-0.479 0.491,-0.5 0.735,-0.13 0.228,0.346 0.414,0.213 0.832,-0.595 0.526,-1.017 0.52,-1.063 -0.245,-1.887 C 39.539,33.18 38.652,31.952 38,30.915 l -1.187,-1.883 -2.921,0.22 c -2.557,0.193 -3.148,0.359 -4.738,1.324 -1.663,1.01 -3.813,1.49 -3.813,0.852 0,-0.139 0.718,-0.959 1.594,-1.822 1.007,-0.991 2.015,-2.456 2.736,-3.974 1.011,-2.13 3.25,-5.36 3.524,-5.085 0.246,0.246 -0.821,6.06 -1.273,6.932 -0.274,0.53 -0.39,1.03 -0.26,1.11 0.404,0.244 3.748,-0.394 3.862,-0.738 0.06,-0.177 0.393,-0.648 0.742,-1.047 l 0.633,-0.724 -0.123,1.04 c -0.084,0.704 0.01,1.04 0.293,1.04 0.229,0 0.658,0.468 0.953,1.04 1.013,1.96 3.013,4.391 3.768,4.58 2.277,0.572 3.736,-0.718 4.296,-3.8 0.621,-3.417 0.963,-4.893 1.403,-6.052 0.41,-1.08 0.499,-1.145 0.952,-0.691 0.454,0.453 0.64,0.393 2.005,-0.649 0.827,-0.631 1.71,-1.148 1.96,-1.148 0.257629,-0.0082 0.460614,-0.222303 0.455,-0.48 0,-0.543 0.501,-0.644 0.8,-0.16 0.11,0.176 0.442,0.315 0.74,0.31 0.445,-0.01 0.413,-0.117 -0.184,-0.615 -0.398,-0.333 -0.902,-0.677 -1.12,-0.765 -0.303,-0.123 -0.292,-0.234 0.044,-0.47 0.337,-0.235 -0.115,-0.702 -1.92,-1.986 -1.298,-0.924 -2.072,-1.595 -1.72,-1.492 0.352,0.102 1.504,0.468 2.56,0.812 1.056,0.344 3.856,1.152 6.222,1.797 5.982,1.63 6.539,1.885 6.287,2.887 -0.15,0.603 -0.075,0.802 0.306,0.802 0.65,0 1.745,-0.583 1.745,-0.928 0,-0.34 -3.909,-2.094 -5.777,-2.595 -3.008,-0.805 -5.973,-1.901 -7.683,-2.842 -1.767,-0.971 -1.797,-1.013 -4.149,-5.77 -1.303,-2.637 -2.414,-4.748 -2.47,-4.692 -0.323,0.322 2.67,6.812 4.33,9.387 0.388,0.603 0.391,0.72 0.02,0.72 -0.549,0 -2.167,-2.898 -4.199,-7.52 C 46.131514,6.5583044 45.566178,5.2782986 44.997,4 44.915,3.824 43.776,3.068 42.465,2.32 39.585,0.676 38.405,0.596 35.36,1.84 c -1.645,0.672 -2.691,1.41 -4.43,3.125 -2.158,2.126 -2.314,2.379 -2.96,4.8 -0.883,3.313 -1.586,7.782 -2.163,13.755 -0.255,2.64 -0.464,4.9 -0.465,5.024 -10e-4,0.332 -2.355,2.716 -2.529,2.542 -0.082,-0.081 0.489,-1.12 0.874,-1.64 C 24.393,28.49 24.612,27.35 25.345,20.8 26.582,9.752 27.846,6.28 31.658,3.464 33.263,2.277 38.273,0 39.276,0 c 0.212,0 1.663,0.554 3.225,1.231 1.562,0.677 3.97,1.711 5.352,2.297 2.021,0.858 2.663,1.305 3.284,2.288 0.992,1.572 3.559,7.871 3.698,9.076 0.117,1.02 0.298,1.106 7.356,3.525 1.875,0.643 3.877,1.453 4.448,1.8 l 1.04,0.633 -1.649,1.623 c -0.907,0.893 -1.649,1.875 -1.649,2.184 0,0.335 -0.386,0.695 -0.96,0.895 -1.14,0.398 -1.235,0.852 -0.24,1.147 l 0.72,0.214 -0.74,0.3 c -0.768,0.313 -0.688,0.947 0.12,0.947 0.253,0 0.46,0.216 0.46,0.48 0,0.264 0.173,0.48 0.384,0.48 0.299,0 0.299,0.085 0,0.384 -0.21,0.211 -0.384,0.474 -0.384,0.585 0,0.368 5.247,0.337 7.615,-0.045 2.657,-0.429 3.482,-0.177 4.61,1.407 l 0.651,0.914 -0.998,1.39 c -0.549,0.764 -0.998,1.455 -0.998,1.535 0,0.08 1.094,0.216 2.432,0.302 2.623,0.168 3.098,0.486 4.472,2.99 0.523,0.953 0.515,1.018 -0.303,2.313 -0.533,0.845 -0.84,1.785 -0.84,2.569 0,0.828 -0.21,1.427 -0.637,1.813 -0.494,0.446 -0.596,0.834 -0.458,1.73 0.142,0.914 0.009,1.38 -0.643,2.255 -0.453,0.606 -0.823,1.275 -0.823,1.486 0,0.21 -0.522,2.06 -1.16,4.108 -1.103,3.544 -1.133,3.755 -0.608,4.334 0.303,0.336 0.456,0.764 0.34,0.952 -0.117,0.189 0.007,0.562 0.274,0.83 0.333,0.332 0.406,0.706 0.23,1.18 -0.343,0.93 -0.996,1.109 -0.996,0.275 0,-0.367 -0.144,-0.667 -0.32,-0.667 -0.176,0 -0.32,-0.424 -0.32,-0.941 0,-0.518 -0.157,-1.038 -0.348,-1.157 -0.445,-0.274 -0.168,-1.851 0.848,-4.836 0.43,-1.261 0.78,-2.65 0.78,-3.087 0,-0.437 0.359,-1.42 0.797,-2.186 0.85,-1.489 1.03,-2.513 0.442,-2.513 -0.237,0 -0.298,-0.397 -0.177,-1.142 l 0.185,-1.142 -0.623,0.792 c -0.343,0.436 -0.624,0.967 -0.624,1.18 0,0.532 -4.178322,0.11622 -4.718341,-0.574675 C 71.570795,45.831092 71.553256,45.869831 72.757,45.76 c 0.702,0 0.867,-0.18 1.047,-1.14 0.158,-0.843 0.355,-1.111 0.756,-1.03 0.4,0.083 0.532,0.421 0.505,1.3 -0.023,0.731 0.111,1.19 0.346,1.19 0.211,0 0.36,-0.318 0.331,-0.706 -0.028,-0.388 0.298,-1.216 0.726,-1.84 0.428,-0.624 0.903,-1.458 1.057,-1.854 0.155,-0.396 0.428,-0.72 0.608,-0.72 0.348,0 0.42,0.31 0.367,1.6 l -0.033,0.8 0.338,-0.8 c 0.186,-0.44 0.531,-1.626 0.768,-2.635 0.397,-1.695 0.383,-1.893 -0.184,-2.613 -0.603,-0.767 -0.633,-0.77 -1.924,-0.263 -1.826,0.717 -4.338,3.05 -4.65,4.32 -0.14,0.567 -0.259,1.665 -0.264,2.44 -0.009,1.28 -0.098,1.439 -0.97,1.724 -1.336,0.438 -1.338,0.444 -0.341,1.485 0.739,0.77 1.075,0.9 1.959,0.757 0.586,-0.095 1.593,-0.074 2.236,0.047 0.902,0.169 1.132,0.343 1.003,0.758 -0.092,0.297 -0.528,1.836 -0.968,3.42 -0.441,1.584 -1.183,3.708 -1.649,4.72 -0.82,1.784 -0.885,1.84 -2.103,1.84 -0.691,0 -1.257,0.147 -1.257,0.326 0,0.179 -0.589,1.295 -1.309,2.48 -1.886,3.105 -2.3,4.44 -1.672,5.399 0.272,0.415 0.643,0.755 0.824,0.755 0.181,0 0.777,0.488 1.323,1.083 1.823,1.987 8.63,3.78 11.554,3.044 1.465,-0.37 2.294,-0.175 1.458,0.342 -0.97,0.6 -3.297,0.675 -5.88,0.19 -3.901,-0.73 -11.535,-0.004 -12.259,1.167 -0.154,0.25 -0.035,0.284 0.389,0.108 1.698,-0.705 3.175,-0.743 5.157,-0.13 1.545,0.476 2.163,0.54 2.664,0.271 0.816,-0.436 3.58,-0.282 3.741,0.21 0.184,0.557 -4.568,0.718 -6.28,0.212 -1.812,-0.536 -3.064,-0.521 -4.717,0.055 -0.897,0.312 -1.634,0.374 -2.277,0.19 -0.522,-0.15 -1.136,-0.158 -1.364,-0.017 -0.835,0.516 4.66,1.442 9.368,1.579 0.783,0.022 0.706,0.656 -0.08,0.656 -0.36,0 -0.64,0.213 -0.64,0.487 0,0.414 0.386,0.456 2.546,0.276 1.757,-0.147 2.846,-0.088 3.516,0.19 1.25,0.517 0.96,0.967 -0.625,0.967 -0.685,0 -2.075,0.216 -3.088,0.48 -2.79,0.727 -9.943,0.628 -12.429,-0.172 -1.254,-0.404 -2.839,-0.62 -4.57,-0.623 -2.094,-0.004 -2.69,-0.109 -2.84,-0.5 -0.104,-0.273 -0.64,-0.693 -1.19,-0.934 -0.818,-0.36 -0.876,-0.444 -0.319,-0.465 0.375,-0.014 0.879,-0.317 1.12,-0.672 0.302,-0.443 1.318,-0.86 3.24,-1.332 2.493,-0.611 2.8,-0.765 2.8,-1.411 0,-0.504 0.883,-1.535 2.903,-3.388 1.597,-1.465 3.095,-2.77 3.33,-2.902 0.584,-0.328 3.708,-5.115 4.883,-7.483 1.265,-2.55 1.809,-5.648 1.352,-7.698 -0.447,-2.002 -1.048,-2.885 -2.404,-3.532 -1.32,-0.63 -1.464,-1.206 -0.225,-0.9 1,0.247 2.542,1.597 2.818,2.468 0.203,0.64 0.782,0.802 0.782,0.22 0,-0.201 -0.765,-1.317 -1.7,-2.48 -0.936,-1.164 -1.98,-2.595 -2.32,-3.18 -0.55,-0.944 -0.747,-1.05 -1.74,-0.932 -0.616,0.073 -1.36,0.238 -1.652,0.368 -0.464,0.205 -0.51,0.061 -0.352,-1.117 0.12,-0.894 0.07,-1.283 -0.15,-1.148 -0.183,0.113 -0.784,0.048 -1.336,-0.144 -0.744,-0.26 -1.12,-0.254 -1.454,0.024 -0.356,0.296 -0.52,0.244 -0.782,-0.244 -0.38,-0.71 -0.178,-1.023 0.66,-1.023 0.667,0 0.787,-0.494 0.186,-0.771 -0.22,-0.102 0.156,-0.14 0.835,-0.087 l 1.234,0.097 -0.997,-0.82 c -1.137,-0.934 -1.292,-1.438 -0.352,-1.139 0.874,0.277 0.814,-0.36 -0.08,-0.86 -0.699,-0.391 -0.687,-0.408 0.4,-0.571 l 1.12,-0.169 -1.28,-0.766 c -1.402,-0.839 -1.075,-1.264 0.54,-0.701 1.068,0.372 1.417,0.284 1.074,-0.272 -0.116,-0.187 -0.626,-0.341 -1.134,-0.341 -1.19,0 -1.534,-0.56 -0.58,-0.942 0.678,-0.272 0.645,-0.302 -0.38,-0.352 l -1.12,-0.054 0.88,-0.348 c 1.17,-0.462 1.112,-0.798 -0.16,-0.94 l -1.04,-0.116 1.12,-0.56 c 1.093,-0.545 1.097,-0.553 0.16,-0.353 -0.528,0.114 -1.464,0.228 -2.08,0.256 -0.822,0.036 -1.166,0.218 -1.293,0.687 -0.142,0.517 -0.399,0.618 -1.36,0.535 -1.136,-0.098 -1.187,-0.06 -1.187,0.89 v 0.993 l -0.944,-0.488 c -1.218,-0.63 -1.296,-0.619 -1.296,0.19 0,0.53 -0.139,0.634 -0.64,0.48 l -1.249,-0.387 c -0.456,-0.142 -0.597,-0.041 -0.56,0.4 0.036,0.432 -0.143,0.569 -0.67,0.513 -0.531,-0.056 -0.72,0.09 -0.72,0.56 0,0.363 -0.215,0.636 -0.5,0.636 -0.274,0 -0.414,0.137 -0.31,0.305 0.172,0.277 -0.276,0.976 -1.35,2.108 -0.22,0.232 -0.4,0.566 -0.4,0.743 0,0.81 -1.692,0.784 -2.874,-0.043 -1,-0.7 -3.608,-0.746 -4.167,-0.073 -0.219,0.264 -0.704,0.48 -1.079,0.482 -0.374,0 -1.229,0.504 -1.898,1.12 -0.67,0.615 -1.409,1.118 -1.641,1.118 -0.233,0 -0.607,0.221 -0.832,0.492 -0.305,0.368 -0.748,0.441 -1.756,0.29 -1.263,-0.19 -1.357,-0.15 -1.506,0.628 -0.087,0.457 -0.02,0.83 0.151,0.83 0.171,0 0.223,0.348 0.117,0.774 -0.116,0.46 -0.045,0.823 0.175,0.896 0.242,0.08 0.084,0.617 -0.456,1.547 -0.548,0.942 -0.957,2.343 -1.212,4.143 -0.212,1.496 -0.58,3.08 -0.819,3.52 -0.384,0.708 -0.412,0.487 -0.248,-1.92 0.102,-1.496 0.312,-3.216 0.466,-3.822 0.411,-1.613 0.086,-1.602 -0.61,0.022 -0.479,1.117 -0.954,1.601 -2.28,2.323 -1.764,0.96 -1.67,0.955 -6.172,0.303 -1.257,-0.182 -1.55,0.164 -0.723,0.851 0.293,0.243 0.406,0.678 0.294,1.125 -0.185,0.74 1.789,4.853 3.982,8.3 1.191,1.872 1.207,1.971 0.343,2.197 -0.55,0.144 -0.605,0.282 -0.326,0.804 0.256,0.478 0.223,0.724 -0.136,1.023 -0.26,0.216 -0.474,0.874 -0.474,1.462 0,0.745 -0.195,1.174 -0.645,1.415 -0.354,0.19 -1.367,0.987 -2.25,1.77 -1.188,1.056 -1.874,1.428 -2.635,1.431 -1.487,0.007 -2.47,0.328 -2.47,0.808 0,1.059 5.326,1.099 10.13,0.076 3.479,-0.74 5.276,-1.575 6.614,-3.073 0.43,-0.481 0.396,-0.597 -0.349,-1.152 -0.65,-0.486 -0.786,-0.511 -0.636,-0.119 0.233,0.606 -1.416,2.233 -2.799,2.763 -1.454,0.557 -7.246,1.973 -8.072,1.973 -1.357,0 -0.73,-0.795 1.756,-2.225 1.498,-0.861 3.045,-1.493 3.916,-1.6 L 27.42,68.32 25.74,67.524 c -0.923,-0.437 -1.679,-0.902 -1.679,-1.032 0,-0.361 1.326,-1.14 2.382,-1.4 l 0.942,-0.232 -0.782,-0.304 c -0.747,-0.29 -0.753,-0.315 -0.142,-0.567 0.352,-0.145 1.019,-0.274 1.481,-0.287 0.463,-0.012 1.035,-0.256 1.273,-0.542 0.391,-0.472 0.284,-0.5 -1.161,-0.311 l -1.593,0.209 -1.367,-2.138 c -0.911,-1.424 -1.538,-2.895 -1.879,-4.409 -0.281,-1.249 -0.715,-2.67 -0.964,-3.157 -0.532,-1.042 -0.612,-0.996 2.665,-1.518 3.087,-0.491 3.625,-0.208 3.625,1.909 0,0.859 0.143,1.61 0.317,1.668 0.207,0.07 0.2,0.528 -0.019,1.32 -0.302,1.093 -0.262,1.277 0.404,1.844 0.406,0.347 1.137,0.72 1.624,0.828 0.666,0.148 0.802,0.297 0.55,0.6 -0.246,0.296 -0.078,0.645 0.635,1.318 0.533,0.503 0.829,1.256 0.97,1.614 0.142,0.363 0.248,0.449 0.564,0.88 0.306,0.313 1.04,1.043 1.622,2.1 l 1.057,1.923 h 1.887 c 2.094,0 2.743,-0.558 2.371,-2.039 -0.106,-0.424 -0.038,-0.867 0.152,-0.985 0.676,-0.418 0.309,-0.772 -2.854,-2.752 -0.88,-0.55 -1.69,-1.143 -2.65,-1.563 -1.304,-0.572 -3.645,-0.756 -3.645,-0.791 0,-0.071 3.251,0.189 3.442,0.307 0.19,0.117 1.412,0.252 2.714,0.298 2.69,0.096 3.788,-0.349 3.053,-1.234 -0.428,-0.516 -0.369,-2.394 0.109,-3.481 0.19,-0.432 0.095,-0.56 -0.416,-0.56 -0.493,0 -0.757,0.322 -1.041,1.27 -0.449,1.497 -1.034,1.392 -0.747,-0.134 0.196,-1.045 0.184,-1.057 -1.254,-1.273 -1.43,-0.214 -3.064,0.287 -3.563,1.095 -0.11,0.177 -0.345,0.322 -0.522,0.322 -0.178,0 -0.044,-0.396 0.297,-0.88 0.38,-0.54 0.71,-1.738 0.853,-3.096 0.128,-1.218 0.307,-2.406 0.396,-2.64 0.094,-0.244 -0.056,-0.424 -0.351,-0.424 -0.296,0 -0.515,-0.264 -0.515,-0.621 0,-0.817 -0.55,-1.131 -1.134,-0.647 -0.395,0.327 -0.466,0.188 -0.466,-0.914 0,-1.354 0.52,-2.051 0.977,-1.311 0.205,0.331 0.447,0.231 1.069,-0.44 0.955,-1.03 1.263,-1.1 1.016,-0.227 -0.649,2.287 -0.676,2.167 0.295,1.28 l 0.876,-0.8 -0.197,1.44 c -0.166,1.217 -0.14,1.329 0.173,0.72 0.501,-0.977 0.91,-0.906 0.922,0.16 0.009,0.8 0.048,0.83 0.435,0.32 0.598,-0.787 0.833,-0.698 0.846,0.32 l 0.011,0.88 0.425,-0.766 c 0.42,-0.759 0.426,-0.755 0.67,0.48 l 0.244,1.246 0.307,-0.882 c 0.387,-1.115 0.888,-0.837 0.902,0.5 0.01,0.968 0.035,0.99 0.48,0.4 0.258,-0.34 0.47,-0.893 0.47,-1.226 0,-0.93 0.774,-0.465 0.99,0.594 0.191,0.946 0.276,0.87 0.767,-0.686 0.251,-0.796 0.798,-0.2 0.845,0.919 l 0.042,1.021 0.197,-1.053 c 0.246,-1.306 0.804,-1.488 0.94,-0.307 0.136,1.188 0.698,1.124 0.698,-0.08 0,-0.528 0.148,-0.96 0.328,-0.96 0.18,0 0.415,0.432 0.52,0.96 0.197,0.985 0.752,1.34 0.752,0.48 0,-0.93 0.601,-0.467 0.729,0.56 0.095,0.765 0.142,0.623 0.18,-0.54 l 0.051,-1.58 0.898,0.86 c 1.07,1.026 1.34,1.08 1.115,0.22 -0.093,-0.358 -0.01,-0.64 0.19,-0.64 0.197,0 0.357,0.144 0.357,0.32 0,0.546 0.586,0.351 0.723,-0.24 0.103,-0.45 0.212,-0.387 0.554,0.32 0.537,1.11 0.963,1.13 0.963,0.045 v -0.836 l 0.634,0.756 0.634,0.755 -1.034,0.897 c -0.885596,0.750279 -1.787478,1.48112 -2.705,2.192 L 50,54.464 48.394,54.052 c -1.49,-0.381 -1.657,-0.363 -2.329,0.249 -1.054,0.96 -1.993,1.379 -3.091,1.379 -1.231,0 -1.699,0.82 -1.57,2.753 0.08,1.202 0.253,1.544 1.004,1.99 0.9,0.533 0.915,0.528 1.84,-0.57 0.514,-0.61 0.933,-1.344 0.933,-1.631 0,-0.578 0.97,-1.582 1.527,-1.582 0.802,0 0.729,0.756 -0.166,1.708 -2.492,2.653 -5.275,8.06 -5.653,10.984 -0.278,2.154 0.098,2.629 1.35,1.703 0.805,-0.595 0.913,-0.818 0.623,-1.282 -0.834,-1.336 2.352,-7.648 5.69,-11.27 1.157,-1.258 1.596,-1.523 2.517,-1.523 1.282,0 1.87,-0.596 0.851,-0.862 -0.741,-0.194 -0.732,-0.842 0.014,-0.987 0.253,-0.05 0.708,0.095 1.011,0.32 0.448,0.333 0.514,0.716 0.353,2.053 l -0.197,1.644 -1.48,0.201 c -1.465,0.2 -1.502,0.235 -3.71,3.556 -1.228,1.845 -2.344,3.355 -2.48,3.355 -0.408,0 -0.284,-0.768 0.246,-1.525 0.399,-0.57 0.407,-0.673 0.043,-0.533 -0.781,0.3 -2.139,3.398 -2.139,4.881 0,1.133 -0.238,1.677 -1.36,3.098 -1.422,1.802 -2.028,2.194 -1.75,1.13 0.33,-1.26 -0.398,-1.39 -5.606,-0.99 -5.607,0.431 -11.235,1.409 -12.364,2.148 -0.68,0.447 -1.184,0.462 -4.153,0.128 -1.857,-0.21 -3.492,-0.451 -3.632,-0.537 -0.354,-0.22 -0.319,-1.962 0.054,-2.658 0.217,-0.405 0.859,-0.642 2.16,-0.796 1.673,-0.197 2.029,-0.385 3.691,-1.948 1.257,-1.182 1.84,-1.976 1.84,-2.505 0,-0.426 0.213,-0.951 0.474,-1.167 0.367,-0.305 0.394,-0.54 0.122,-1.05 -0.292,-0.545 -0.227,-0.75 0.382,-1.21 l 0.734,-0.553 -0.976,-1.236 c -0.536,-0.68 -1.7,-2.685 -2.587,-4.454 -0.886,-1.77 -1.804,-3.365 -2.04,-3.545 -0.833,-0.637 -3.346,-1.398 -4.618,-1.398 -0.709,0 -1.568,-0.211 -1.91,-0.47 -0.341,-0.258 -1,-0.474 -1.465,-0.48 -0.465,-0.005 -1.185,-0.31 -1.6,-0.677 -0.653,-0.576 -0.669,-0.635 -0.116,-0.43 2.023,0.744 3.066,0.133 1.457,-1.187 -0.217,-0.178 -0.6,0.256 -0.722,-0.047 C 9.542,48.099 9.652,47.71 9.565,47.62 M 22.62,73.77 c 0.887,-0.407 0.777,-0.427 -1.451,-0.264 -1.349,0.099 -3.168,0.014 -4.127,-0.191 -1.628,-0.35 -2.3,-0.286 -1.84,0.173 0.114,0.115 1.47,0.31 3.013,0.433 1.543,0.124 2.95,0.24 3.125,0.257 0.176,0.018 0.752,-0.165 1.28,-0.408 z m 4.234,-1.323 c -0.107,-0.107 -0.383,-0.118 -0.614,-0.026 -0.255,0.103 -0.18,0.178 0.194,0.194 0.337,0.014 0.526,-0.062 0.42,-0.168 z m 4.911,-10.47 c -0.411,-0.412 -0.483,0.674 -0.105,1.597 0.197,0.48 1.855,2.526 1.942,1.772 0.057,-0.505 -1.647,-3.18 -1.837,-3.369 z M 30.461,44.48 c 0,-0.176 -0.153,-0.32 -0.34,-0.32 -0.187,0 -0.298,-0.252 -0.248,-0.56 0.051,-0.308 -0.026,-0.75 -0.171,-0.98 -0.162,-0.258 -0.058,-0.648 0.269,-1.008 0.743,-0.821 0.044,-1.166 -0.75,-0.371 -0.516,0.515 -0.578,0.832 -0.355,1.818 0.246,1.093 0.739,1.724 1.355,1.736 0.132,0.003 0.24,-0.139 0.24,-0.315 z m 39.735,-0.53 c 0.326,-0.295 0.586,-0.967 0.586,-1.52 0,-0.563 0.484,-1.79 1.12,-2.846 0.647,-1.072 1.12,-2.28 1.12,-2.86 0,-0.709 0.386,-1.462 1.32,-2.569 1.235,-1.465 1.292,-1.618 0.887,-2.376 -0.566,-1.057 -1.707,-1.467 -3.313,-1.19 -0.712,0.123 -2.452,0.208 -3.866,0.19 -2.187,-0.029 -2.626,0.056 -2.945,0.565 -0.301,0.483 -0.277,0.636 0.127,0.791 0.39,0.15 0.42,0.292 0.13,0.64 -0.267,0.322 -0.273,0.51 -0.02,0.665 0.254,0.157 0.254,0.333 0,0.64 -0.255,0.307 -0.255,0.483 0,0.64 0.248,0.153 0.251,0.337 0.011,0.626 -0.246,0.296 -0.206,0.52 0.144,0.81 0.633,0.526 0.617,0.964 -0.035,0.964 -0.416,0 -0.443,0.092 -0.136,0.461 0.44,0.53 1.33,0.32 1.106,-0.262 -0.197,-0.515 2.317,-3.189 3.613,-3.842 1.472,-0.743 2.455,-0.684 1.215,0.072 -1.804,1.1 -3.359,2.802 -3.359,3.678 0,0.498 -0.251,0.965 -0.628,1.167 -0.363,0.194 -0.552,0.533 -0.448,0.803 0.113,0.295 -0.121,0.605 -0.635,0.839 -0.985,0.449 -1.17,0.856 -0.817,1.804 0.21,0.563 0.518,0.72 1.413,0.72 0.937,0 1.244,0.174 1.69,0.958 0.626,1.1 0.905,1.17 1.72,0.432 z m -4.535,-2.503 c 0,-0.084 0.353,-0.383 0.783,-0.665 0.585,-0.383 0.93,-0.428 1.36,-0.177 0.53,0.308 0.52,0.336 -0.124,0.345 -0.385,0.006 -0.79,0.154 -0.899,0.33 -0.197,0.32 -1.12,0.457 -1.12,0.167 z M 65.24,38.98 c -0.102,-0.255 -0.178,-0.18 -0.193,0.193 -0.014,0.338 0.061,0.527 0.168,0.42 0.106,-0.106 0.117,-0.382 0.025,-0.613 z M 41.563,35.286 c -0.081,-0.311 -0.153,-0.134 -0.16,0.394 -0.006,0.528 0.06,0.783 0.148,0.566 0.088,-0.217 0.093,-0.649 0.012,-0.96 z m 8.28,-4.825 c 0.094,-0.296 0.475,-0.157 1.31,0.48 l 1.178,0.898 -0.21,-0.832 c -0.282,-1.128 0.005,-1.313 1.13,-0.73 1.058,0.546 1.491,0.434 0.738,-0.19 -1.09,-0.905 -0.467,-1.093 1.356,-0.407 0.275,0.103 0.334,-0.031 0.184,-0.42 -0.17,-0.445 -0.1,-0.523 0.317,-0.356 l 1.015,0.41 c 0.332,0.134 0.48,-0.003 0.48,-0.444 0,-0.73 1.568,-1.174 3.101,-0.879 0.495,0.095 0.72,0.088 0.5,-0.016 -0.581,-0.273 -0.492,-1.095 0.119,-1.095 0.414,0 0.442,-0.093 0.138,-0.459 -0.307,-0.37 -0.23,-0.54 0.402,-0.88 0.43,-0.231 1.173,-0.889 1.65,-1.461 0.827,-0.991 0.836,-1.04 0.199,-1.04 -0.803,0 -0.812,-0.075 -0.156,-1.343 0.474,-0.917 0.473,-0.975 -0.02,-0.786 -1.877,0.72 -4.919,1.16 -6.737,0.973 -2.979,-0.305 -4.785,0.244 -6.88,2.091 -1.55,1.367 -1.745,1.674 -1.665,2.627 0.232,2.772 1.29,5.88 1.603,4.713 0.064,-0.24 0.176,-0.623 0.249,-0.854 z M 51.736,8.097 C 51.464,7.447 50.903,6.47 50.489,5.927 49.691,4.882 47.584,3.571 47.245,3.91 c -0.11,0.11 0.28,1.179 0.867,2.374 0.89,1.806 1.307,3.361 2.289,3.453 1.866,0.174 1.89,-0.311 1.335,-1.64 z m -25.881,69.12 c 1.362,-0.687 1.88,-0.787 3.12,-0.6 0.817,0.122 1.486,0.37 1.486,0.55 0,0.205 -0.469,0.25 -1.239,0.12 -0.824484,-0.1396 -1.671739,-0.03821 -2.44,0.292 -2.042,0.853 -2.773,0.569 -0.927,-0.362 z m 17.497,0.674 c 0.038,-0.033 0.732,-0.284 1.542,-0.556 1.346,-0.453 1.623,-0.449 3.218,0.045 l 1.745,0.54 -3.287,0.016 c -1.808,0.008 -3.256,-0.012 -3.218,-0.045 z m -19.93,-1.952 c -1.534,-0.294 -1.534,-0.832 0,-0.627 1.046,0.141 1.988,0.004 3.451,-0.502 1.829,-0.633 2.149,-0.658 3.52,-0.27 1.705,0.48 2.93,0.487 3.398,0.018 0.175,-0.175 1.046,-0.296 1.934,-0.27 l 1.616,0.048 -1.28,0.192 c -0.704,0.106 -1.752,0.45 -2.33,0.766 -0.982,0.536 -1.17,0.54 -2.88,0.068 -1.668,-0.46 -1.985,-0.46 -3.59,0.004 -2.326,0.673 -2.887,0.756 -3.84,0.573 z m 17.28,-0.676 c 0,-0.142 0.503,-0.746 1.12,-1.343 1.288,-1.249 1.393,-1.14 0.448,0.462 -0.599,1.014 -1.569,1.559 -1.569,0.88 z m 2.88,-0.543 c 0,-0.264 0.139,-0.48 0.31,-0.48 0.17,0 0.226,0.216 0.125,0.48 -0.101,0.264 -0.24,0.48 -0.31,0.48 -0.069,0 -0.126,-0.216 -0.126,-0.48 z m 8.96,-1.722 c 0,-0.176 0.143,-0.41 0.32,-0.518 0.175,-0.109 0.32,-0.054 0.32,0.122 0,0.176 -0.145,0.41 -0.32,0.518 -0.177,0.109 -0.32,0.054 -0.32,-0.122 z M 78.986,70.88 c -0.114,-0.297 -0.6,-0.48 -1.275,-0.48 -1.195,0 -1.988,-0.674 -1.694,-1.44 0.15,-0.39 0.018,-0.445 -0.652,-0.277 -0.598,0.15 -0.773,0.103 -0.608,-0.164 0.17,-0.275 -0.133,-0.316 -1.152,-0.154 -1.274,0.202 -1.348,0.177 -0.937,-0.322 0.39,-0.472 0.36,-0.636 -0.24,-1.273 -0.377,-0.402 -0.687,-0.818 -0.687,-0.924 0,-0.303 2.987,-1.37 3.507,-1.253 0.742,0.168 2.001,1.27 2.628,2.3 0.533,0.877 1.225,1.273 1.225,0.702 0,-0.136 -0.65,-0.99 -1.445,-1.898 -2.226,-2.545 -1.195,-2.275 1.44,0.377 1.29,1.299 2.683,2.446 3.095,2.55 0.523,0.131 0.75,0.418 0.75,0.947 0,1.242 -3.533,2.41 -3.955,1.309 z M 49.74,69.412 c -0.824,-0.31 -0.913,-0.865 -0.278,-1.733 0.42,-0.575 0.48,-0.578 1.28,-0.054 0.46,0.302 0.838,0.757 0.838,1.011 0,0.672 -1,1.094 -1.84,0.776 z m 0.88,-1.119 c 0,-0.565 -0.689,-0.466 -0.886,0.127 -0.07,0.209 0.101,0.38 0.38,0.38 0.27939,-0.0011 0.505452,-0.227609 0.506,-0.507 z m 7.967,0.016 c 1.066,-1.213 1.321,-2.833 0.624,-3.949 -0.292,-0.467 -0.258,-0.75 0.16,-1.347 0.79,-1.128 0.696,-2.213 -0.191,-2.213 -0.842,0 -5.55,2.396 -5.912,3.009 -0.265,0.447 -1.688,1.29 -1.688,1 0,-0.536 1.957,-2.255 3.157,-2.774 0.768,-0.332 1.799,-0.89 2.29,-1.24 1.116,-0.794 2.61,-0.817 3.304,-0.05 0.653,0.721 0.664,1.152 0.057,2.08 -0.342,0.52 -0.419,1.183 -0.276,2.388 0.109,0.917 0.307,1.667 0.441,1.667 0.427,0 3.366,-3.592 5.033,-6.152 0.886,-1.36 1.913,-3.367 2.282,-4.462 0.803,-2.378 0.883,-5.263 0.174,-6.275 -0.466,-0.665 -0.456,-0.711 0.152,-0.711 1.74,0 1.872,3.936 0.266,7.873 -1.676,4.108 -6.098,9.746 -8.947,11.407 -1.974,1.15 -2.121,1.11 -0.926,-0.251 z M 7.643,67.633 C 7.853,67.086 7.749,67.088 5.5,67.678 l -0.8,0.21 0.756,-0.664 c 0.837,-0.736 1.68,-0.839 2.646,-0.322 0.51,0.274 0.563,0.435 0.26,0.8 -0.517,0.623 -0.968,0.58 -0.72,-0.07 z m 36.897,0.254 c 0,-0.188 0.59,-0.501 1.313,-0.696 1.518,-0.408 2.03,-0.22 0.704,0.26 -0.493,0.178 -1.149,0.426 -1.457,0.55 -0.325,0.132 -0.56,0.084 -0.56,-0.114 z M 53.5,67.84 c 0,-0.176 0.252,-0.322 0.56,-0.325 0.47,-0.004 0.484,-0.053 0.09,-0.303 -0.26,-0.163 -0.377,-0.391 -0.262,-0.507 0.345,-0.344 0.892,0.168 0.892,0.834 0,0.408 -0.22,0.621 -0.64,0.621 -0.352,0 -0.64,-0.144 -0.64,-0.32 z M 15.48,66.8 c 0.088,-0.907 0.237,-1.06 1.171,-1.2 l 1.072,-0.16 -0.979,-0.72 C 16.206,64.324 15.619,64 15.44,64 c -0.18,0 -1.12,0.507 -2.09,1.127 -0.968,0.62 -2.207,1.216 -2.751,1.325 -0.94,0.188 -0.984,0.151 -0.884,-0.726 0.078,-0.683 0.384,-1.055 1.173,-1.426 1.246,-0.586 1.344,-1.007 0.311,-1.335 -0.484,-0.154 -0.278,-0.193 0.6,-0.113 0.938,0.085 1.39,-0.012 1.51,-0.325 0.094,-0.246 0.5,-0.458 0.901,-0.47 0.581,-0.02 0.47,-0.145 -0.55,-0.617 -1.946,-0.901 -2.9,-0.815 -3.57,0.32 -0.312,0.528 -0.688,0.96 -0.835,0.96 -0.147,0 -0.757,0.535 -1.356,1.188 C 6.553,65.378 6.077,65.1 7.267,63.54 7.907,62.7 8.047,62.29 7.798,61.99 7.612,61.765 7.278,60.324 7.055,58.788 6.603,55.657 6.951,52.444 7.9,50.996 c 0.798,-1.219 0.897,-0.719 0.173,0.876 -0.493,1.087 -0.64,2.105 -0.646,4.467 -0.009,4.03 0.146,4.236 3.23,4.3 3.018,0.064 4.865,0.753 5.083,1.898 0.204,1.065 1.802,2.145 2.804,1.894 0.841,-0.212 2,0.638 1.99,1.459 -0.006,0.377 -0.161,0.31 -0.597,-0.256 -0.601,-0.782 -1.428,-0.697 -1.116,0.116 0.108,0.282 -0.311,0.754 -1.128,1.27 -1.802,1.137 -2.339,1.084 -2.213,-0.22 z M 9.02,61.619 c 0,-0.51 -0.58,-0.985 -0.86,-0.705 -0.264,0.263 0.147,1.166 0.53,1.166 0.182,0 0.33,-0.208 0.33,-0.461 z M 4.424,65.623 C 4.593,64.778 4.527,64.64 3.956,64.64 c -0.365,0 -0.804,0.25 -0.976,0.557 -0.171,0.307 -0.415,0.454 -0.541,0.328 -0.44,-0.44 0.588,-1.205 1.621,-1.205 1.27,0 2.038,0.768 1.548,1.547 -0.185,0.293 -0.571,0.58 -0.858,0.636 -0.424,0.083 -0.486,-0.082 -0.326,-0.88 z m 76.309,-0.149 -0.72,-0.765 0.738,-0.687 c 0.405,-0.378 1.028,-0.645 1.383,-0.595 0.514,0.074 0.667,0.373 0.745,1.453 0.09,1.247 0.035,1.36 -0.664,1.36 -0.42,0 -1.087,-0.345 -1.482,-0.766 z m -11.022,-0.73 c -0.412,-0.412 1.168,-1.685 2.736,-2.206 0.866,-0.288 1.655,-0.443 1.754,-0.344 0.34,0.34 -0.203,1.166 -0.77,1.17 -0.314,0.002 -1.197,0.362 -1.963,0.8 -1.58,0.903 -1.47,0.867 -1.757,0.58 z M 5.433,63.484 C 4.6,61.584 5.229,48.557 6.128,49.112 c 0.13,0.08 0.047,1.123 -0.184,2.317 -0.513,2.65 -0.566,8.272 -0.102,10.784 0.385,2.08 0.2,2.659 -0.409,1.271 z M 70.78,62.131 c 0,-0.319 1.434,-1.011 2.095,-1.011 0.828,0 0.494,0.501 -0.597,0.896 -1.26,0.455 -1.498,0.473 -1.498,0.115 z M 31.42,55.673 c 0,-0.183 0.223,-0.418 0.494,-0.523 0.75,-0.288 0.839,0.023 0.132,0.465 -0.396,0.247 -0.626,0.268 -0.626,0.058 z m 21.41,-0.988 c -0.353,-0.232 -0.142,-0.565 0.99,-1.558 1.14,-0.999 3.917,-2.75 5.499,-3.467 0.12,-0.055 0.05,0.266 -0.16,0.713 -0.208,0.446 -0.802,0.988 -1.318,1.203 -0.517,0.215 -1.755,1.069 -2.75,1.897 -1.308,1.089 -1.935,1.425 -2.26,1.212 z m 8.524,-4.403 c -0.105,-0.328 -0.042,-0.986 0.138,-1.46 0.378,-0.995 0.435,-2.1 0.083,-1.622 -0.321,0.438 -3.174,1.76 -3.797,1.76 -0.326,0 -0.438,-0.177 -0.315,-0.497 0.104,-0.273 -0.046,-0.856 -0.334,-1.296 -0.387,-0.592 -0.43,-0.893 -0.164,-1.16 0.266,-0.265 0.471,-0.092 0.79,0.668 l 0.432,1.026 0.777,-0.602 c 1.04,-0.806 2.44,-1.135 2.63,-0.618 0.081,0.22 0.25,0.013 0.376,-0.458 0.256,-0.961 1.067,-1.44 1.32,-0.78 0.091,0.237 -0.13,1.31 -0.492,2.384 -0.833,2.475 -0.826,2.613 0.142,2.613 1.108,0 2,-1 2.436,-2.73 0.271,-1.077 0.504,-1.43 0.886,-1.346 0.285,0.063 0.472,0.317 0.415,0.565 -0.057,0.248 -0.183,1.125 -0.28,1.948 -0.21,1.768 -0.86,2.203 -3.29,2.203 -1.246,0 -1.602,-0.122 -1.753,-0.598 z m -5.45,-2.161 c -0.571,-1.369 -0.575,-1.401 -0.172,-1.401 0.33,0 1.288,1.655 1.288,2.224 0,0.751 -0.662,0.263 -1.115,-0.823 z M 5.066,46.56 c -0.14,-0.368 -0.04,-0.78 0.265,-1.085 0.42,-0.42 0.488,-0.424 0.469,-0.024 -0.012,0.258 -0.131,0.746 -0.264,1.086 -0.233,0.593 -0.25,0.594 -0.47,0.023 z m 53.45,-0.693 c -0.118,-0.118 -0.214,-0.567 -0.214,-1 0,-0.662 0.076,-0.723 0.48,-0.387 0.264,0.22 0.48,0.669 0.48,1 0,0.603 -0.349,0.784 -0.746,0.387 z m -39.41,-8.373 c -2.102,-0.587 -2.552,-1.246 -1.582,-2.318 0.577,-0.637 1.288,-0.861 0.938,-0.296 -0.284,0.46 0.592,0.395 1.096,-0.08 0.333,-0.313 0.456,-0.315 0.568,-0.008 0.13,0.35 0.74,0.114 1.982,-0.767 0.07,-0.05 -0.057,-0.309 -0.28,-0.577 -0.334,-0.403 -0.314,-0.488 0.115,-0.488 0.649,0 0.669,-0.438 0.043,-0.957 -0.592,-0.492 -0.337,-0.963 0.522,-0.963 0.382,0 0.588,0.164 0.503,0.4 -0.08,0.22 0.082,0.66 0.36,0.98 0.432,0.494 0.44,0.62 0.051,0.86 -0.381,0.236 -0.358,0.387 0.143,0.94 0.59,0.652 0.585,0.66 -0.333,0.669 l -0.93,0.008 0.88,0.546 c 1.15,0.713 1.113,1.037 -0.119,1.037 -0.838,0 -0.937,0.075 -0.612,0.466 0.212,0.256 0.294,0.616 0.18,0.8 -0.28,0.453 -1.247,0.384 -3.524,-0.252 z m 8.808,-0.5 c 0.258,-0.245 0.791,-0.542 1.186,-0.66 0.55,-0.166 0.676,-0.106 0.538,0.254 -0.099,0.258 -0.494,0.553 -0.878,0.656 -1.112,0.298 -1.349,0.228 -0.846,-0.25 z m -2.12,-0.88 c -0.157,-0.254 0.387,-0.436 2.249,-0.752 1.09,-0.185 1.207,-0.15 0.868,0.26 -0.412,0.496 -2.874,0.885 -3.117,0.492 z m 12.23,-13.027 c -0.433,-0.48 -0.47,-0.68 -0.161,-0.872 0.228,-0.14 0.456,-0.085 0.527,0.128 0.187,0.562 1.032,0.456 1.032,-0.13 0,-0.278 -0.083,-0.867 0.137,-0.794 0.43,-0.102 0.663,0.902 0.663,1.328 0,1.022 -1.385,1.237 -2.197,0.34 z m -3.816,-1.11 c -0.124,-0.326 0.09,-0.74 0.589,-1.131 0.432,-0.34 0.785,-0.853 0.785,-1.14 0,-0.287 0.335,-0.65 0.744,-0.805 1.31,-0.497 1.868,-1.73 1.568,-3.461 -0.23,-1.33 -0.355,-1.51 -0.995,-1.439 -0.467,0.052 -0.683,-0.064 -0.599,-0.32 0.072,-0.22 0.589,-0.446 1.147,-0.501 0.96,-0.095 1.015,-0.042 1.015,0.986 0,0.598 0.097,1.184 0.214,1.301 0.367,0.367 1.386,-0.808 1.386,-1.597 0,-0.412 0.144,-0.75 0.32,-0.75 0.176,0 0.32,0.36 0.32,0.8 0,0.44 0.135,0.8 0.299,0.8 0.164,0 0.387,0.279 0.495,0.62 0.108,0.34 0.503,0.665 0.876,0.72 0.374,0.055 0.742,0.286 0.817,0.514 0.154,0.467 -1.38,0.22 -2.087,-0.337 -0.475,-0.375 -0.878,-0.101 -3.11,2.11 -0.879,0.873 -1.593,1.877 -1.6,2.249 -0.005,0.41 -0.257,0.72 -0.642,0.796 -0.347,0.067 -0.792,0.342 -0.988,0.61 -0.318,0.434 -0.378,0.432 -0.554,-0.025 z m 7.939,-0.418 c -0.287,-0.287 -0.441,-0.73 -0.343,-0.986 0.098,-0.256 0.178,-0.526 0.178,-0.6 0,-0.073 0.212,-0.133 0.47,-0.133 0.272,0 0.398,0.19 0.299,0.448 -0.227,0.59 0.468,1.003 0.923,0.548 0.53,-0.53 0.868,-0.432 0.868,0.25 0,1.032 -1.533,1.335 -2.395,0.473 z m -8.805,-3.43 c 0,-0.412 0.268,-0.992 0.594,-1.287 0.386,-0.349 0.541,-0.817 0.443,-1.33 -0.118,-0.617 -0.017,-0.792 0.455,-0.792 0.513,0 0.587,0.194 0.483,1.28 -0.073,0.767 -0.287,1.28 -0.534,1.28 -0.226,0 -0.502,0.36 -0.612,0.8 -0.254,1.011 -0.829,1.045 -0.829,0.05 z m 13.676,-0.08 c -0.105,-0.105 -0.124,-0.367 -0.042,-0.58 0.082,-0.214 -0.144,-0.655 -0.502,-0.979 -0.359,-0.324 -0.652,-0.786 -0.652,-1.026 0,-0.24 -0.357,-0.6 -0.793,-0.8 -0.437,-0.198 -0.879,-0.627 -0.982,-0.953 -0.103,-0.325 -0.47,-0.591 -0.816,-0.591 -0.346,0 -0.712,-0.216 -0.813,-0.48 -0.101,-0.264 -0.42,-0.485 -0.71,-0.49 -0.44,-0.009 -0.42,-0.09 0.114,-0.496 0.584,-0.444 0.679,-0.429 1.08,0.17 0.24,0.36 0.7,0.656 1.018,0.656 0.319,0 0.672,0.292 0.785,0.649 0.113,0.356 0.555,0.877 0.982,1.156 0.426,0.28 0.775,0.717 0.775,0.972 0,0.256 0.432,0.828 0.96,1.272 1.08,0.909 1.255,1.711 0.374,1.711 -0.323,0 -0.673,-0.086 -0.778,-0.191 z M 35.155,5.227 C 34.77,4.842 34.93,4.557 35.637,4.373 c 0.922,-0.241 1.346,0.055 0.88,0.615 -0.399,0.482 -1.012,0.589 -1.362,0.239 z"
     id="path2"
     inkscape:connector-curvature="0"
     sodipodi:nodetypes="csscccscccccccccccscssccccsccccccccccscccscssccccsccsccssccccscccccscscsccccccccccccscccccccccscccccccccccccccsccsscccccsccccccccccccsscccccccsccccssscsccccscccscccscccccsssccscscccssccccscscscccccccccccccccssccsccccccccccccccssccsccccccccscccccccscccccccccscccccccccccscccccccccccsccsccccssccsccccscccsccccccccccccccccscccscccccsccccsccccccccccccsccccccccccsccccsccccsccccscccsscscccccccccccccccccsccccccsscscccccssccsccccccccscccsscccccscccccccsccscccccccccscccccccsccccccccccccccsccsccccssccccccscscsccccccccccccsccccsccccsccsccccsccscscssccccccccccsccscccsccccccccccscccccscccsccccscccccccccccccccccccsssccscscscsccccccsccscccsccccsccccccccscscccccscccscccccccccccscccsscccsssccccsccccccccccscccccccccccccccscsscscssccccccccscscsccscccccsscssccscccccccccccsccccccccccsccscsccsscccscccsscsscccccccscscccccccsccccccccccccccccscsccccscccccsssssscccccccccsssscssssccscscsssccsccsscccsccscsssccs" />
  <path
     d="M33.195 20.547l.441-1.752"
     fill="none"
     stroke="#ffe0a2"
     stroke-width=".189"
     id="path4" />
  <path
     d="M35.244 14.88l1.055-1.199M40.381 13.12c1.01-1.123 1.084-1.123 1.084-1.123"
     fill="none"
     stroke="#fee1a2"
     stroke-width=".189"
     id="path6" />
  <path
     d="M49.501 15.782c-3.496-1.23-3.446-1.255-3.446-1.255"
     fill="none"
     stroke="#fee1a0"
     stroke-width=".189"
     id="path8" />
  <path
     d="M25.341 31.428l-2.528-.342"
     fill="none"
     stroke="#ffe0a2"
     stroke-width=".189"
     id="path10" />
  <path
     d="M25.297 31.325c-.034-.01-.55-.083-1.147-.163-.598-.079-1.083-.151-1.08-.16a2.33 2.33 0 0 1 .205-.173c.27-.214 1.39-1.337 1.662-1.667.337-.408.404-.52.42-.698a651.788 651.788 0 0 1 .635-6.66c.514-4.832 1.127-8.63 1.86-11.527.42-1.66.663-2.373.994-2.934l.135-.228 8.692.006 8.693.006.234.533a94.232 94.232 0 0 0 1.68 3.635c1.124 2.291 1.98 3.699 2.439 4.006.105.07.131.078.25.066a.439.439 0 0 0 .167-.043c.09-.074.019-.258-.281-.734-.994-1.573-2.472-4.485-3.518-6.93l-.228-.533.212-.007c.117-.004.226-.002.243.004.016.007.58 1.115 1.253 2.463 1.647 3.303 1.954 3.888 2.358 4.491.464.693.84 1.017 1.787 1.54 1.779.984 4.256 1.929 7.339 2.8.457.128 1.004.29 1.215.36a33.18 33.18 0 0 1 3.337 1.345l.347.163.007.866c.006.758.002.868-.031.88-.021.009-.108.023-.193.031-.18.019-.338-.017-.404-.09-.071-.078-.076-.332-.013-.618.068-.308.068-.547 0-.687-.159-.328-.71-.627-1.871-1.014-.867-.29-1.659-.517-5.222-1.5a155.475 155.475 0 0 1-6.153-1.81c-.634-.203-1.3-.415-1.48-.471-.269-.085-.324-.11-.314-.145.008-.033-.025-.055-.158-.1a230.34 230.34 0 0 1-2.773-.995 9.755 9.755 0 0 0-.488-.175c-.012 0-.021.025-.022.055v.056l-.034-.06c-.021-.038-.037-.047-.044-.027-.007.023-.037.01-.096-.04a4.429 4.429 0 0 0-.247-.188c-.454-.322-.783-.72-.97-1.173-.14-.344-.467-.608-.752-.608-.135 0-.387-.09-.55-.197-.194-.128-.369-.3-.518-.514-.211-.3-.36-.43-.49-.43-.096 0-.293.108-.553.302a3.287 3.287 0 0 0-.282.227.134.134 0 0 1-.091.041c-.065 0-.349.274-.846.817-.217.236-.299.341-.281.362.017.02.006.037-.037.057-.114.052-.236.385-.237.649-.001.453-.274 1.026-.68 1.427-.3.295-.542.381-.682.241-.13-.13-.225-.725-.225-1.42 0-.571-.052-.754-.241-.845-.106-.051-.134-.054-.475-.038-.4.018-.635.057-.927.154-.205.068-.457.22-.51.308-.024.04-.041.047-.064.028-.023-.02-.15.11-.513.52-.266.302-.495.563-.51.582-.022.029-.045.028-.148-.004a.859.859 0 0 0-.314-.026c-.416.026-.5.194-.402.804.045.277.032.486-.043.712-.072.215-.156.345-.368.57-.231.247-.325.381-.447.643-.139.3-.183.511-.166.804.016.274.043.385.125.505l.056.084-.212.844c-.116.464-.223.85-.237.86-.368.247-1.062 1.131-1.87 2.384a25.654 25.654 0 0 0-1.518 2.653c-.878 1.756-1.625 2.85-2.701 3.951-.892.914-1.366 1.434-1.548 1.702-.068.1-.085.112-.14.095zM29.009 7.084c.306-.521 2.258-2.508 3.383-3.446.997-.83 1.826-1.32 3.117-1.842.98-.396 1.836-.655 2.477-.748a5.683 5.683 0 0 1 1.337 0c.94.142 1.89.55 3.55 1.526.95.558 1.77 1.1 2.006 1.323.085.081.138.17.24.402.071.164.364.828.65 1.476l.556 1.259.035.08h-8.685c-6.94 0-8.68-.006-8.666-.03zm6.995-1.709c.177-.066.335-.176.478-.333.298-.326.305-.61.016-.72-.218-.083-.814-.012-1.17.14-.435.185-.5.45-.188.763.221.22.53.275.864.15zM46.991 6.823c-.27-.675-.46-1.279-.458-1.466l.001-.09.061.074c.069.084.449.765.764 1.37l.21.404h-.46z"
     fill="#ffe1a2"
     stroke="#ffe0a2"
     stroke-width=".005"
     id="path12" />
  <path
     d="M52.954 10.876c.58 1.074 1.072 2.634 1.337 4.197.142.84-1.2.046-1.648-.287-1.376-1.026-3.44-4.558-2.296-4.609.885-.039 1.305.023 2.273.137"
     fill="#e30e0e"
     fill-rule="evenodd"
     id="path14" />
  <path
     d="M65.216 21.169c0-.465.009-.845.02-.845.01 0 .206.095.433.21.45.23.793.442.888.55.057.065.057.075-.004.19-.116.218-.821.63-1.223.716l-.114.024z"
     fill="#ffe1a2"
     id="path16" />
  <path
     d="M34.207 21.977c-.992.004-1.027.109-1.027.109"
     fill="none"
     stroke="#9b9ac4"
     stroke-width=".189"
     id="path18" />
  <path
     d="M47.017 18.049l-3.83-1.475"
     fill="none"
     stroke="#9896c2"
     stroke-width=".189"
     id="path20" />
  <path
     d="M33.162 21.77c.066-.608.097-1.04.08-1.104-.01-.04.002-.09.027-.111.026-.021.138-.408.25-.861.183-.74.214-.832.304-.907.14-.118.254-.33.345-.638.042-.145.113-.334.157-.421.107-.211.322-.421.43-.421.126 0 .3-.196.392-.439.135-.362.185-.703.198-1.35l.012-.613.464-.525c.255-.289.47-.505.479-.48.028.083.202.117.578.113.66-.008.744.099.961 1.223.074.38.093.586.096 1.036.004.669-.046.918-.285 1.42-.134.282-.204.379-.45.622-.26.258-.339.312-.737.504-.267.128-.508.273-.602.359-.171.158-.29.36-.29.492 0 .284-.261.672-.769 1.144-.448.417-.604.635-.627.877l-.016.168-.395.023a3.783 3.783 0 0 0-.51.057l-.114.033z"
     fill="#9b96c1"
     stroke="#9896c2"
     stroke-width=".189"
     id="path22" />
  <path
     d="M45.06 17.18c-.965-.375-1.786-.685-1.824-.69-.039-.003-.105-.047-.146-.096-.11-.13-.373-.261-.696-.348-.441-.119-.781-.392-.877-.704-.092-.3-.305-.57-.501-.635-.176-.057-.254-.258-.293-.753-.032-.398-.095-.648-.189-.752-.046-.051-.001-.109.429-.559l.48-.502.207.022c.384.04.537.147.807.563.152.232.384.36.738.405.426.054.67.224.831.58.184.406.496.706 1.026.987.388.206.673.475.728.687.122.469.206.608.655 1.09.399.425.56.716.523.946l-.045.298c-.01.082-.038.148-.06.146-.02-.001-.828-.31-1.793-.685z"
     fill="#9896c2"
     stroke="#9896c2"
     stroke-width=".189"
     id="path24" />
  <path
     d="M39.558 21.419l-1.696.796"
     fill="none"
     stroke="#fccccd"
     stroke-width=".076"
     id="path26" />
  <path
     d="M44.337 20.507l-1.886-.667"
     fill="none"
     stroke="#fdcdce"
     stroke-width=".076"
     id="path28" />
  <path
     d="M42.52 33.893c-.332-.026-.737-.108-.875-.178-.567-.289-1.642-1.465-2.585-2.83-.381-.55-.712-1.096-1.08-1.776a3.225 3.225 0 0 0-.471-.663c-.178-.188-.294-.267-.421-.288-.191-.03-.254-.095-.305-.309-.041-.175-.024-.553.053-1.178.034-.282.063-.533.063-.558 0-.037-.071.035-.376.384-.605.692-.832.995-1.01 1.352-.076.15-.71.36-1.684.554-1.16.232-2.083.297-2.184.153-.078-.112.039-.582.249-1.001.096-.191.157-.363.269-.755.256-.899.632-2.724.875-4.26.038-.238.074-.44.08-.45.013-.022.132.015.132.042 0 .015.028.014.11-.003.06-.013.275-.03.477-.038.263-.01.369-.02.374-.035.004-.012.033.033.065.1.058.12.113.178.17.178.045 0 .144-.094.26-.245a1.84 1.84 0 0 1 1.066-.694c.365-.085.587-.354.626-.759.02-.224.12-.444.365-.81.434-.65.993-1.263 2.205-2.418.801-.763 1.183-1.074 1.506-1.229a.473.473 0 0 1 .275-.064c.16 0 .18.01.4.167.404.288 1.061.513 1.574.538.23.012.378-.018.444-.09l.038-.04 1.886.725c1.821.702 1.886.726 1.91.692.022-.034.024-.034.109.009.198.1.648.159.878.114.3-.059.423-.236.357-.518-.075-.324-.374-.714-.904-1.178-.572-.501-.914-.953-.971-1.282a.983.983 0 0 0-.204-.442c-.04-.05-.07-.096-.064-.101.005-.005.104.027.22.072.319.12 1.07.392 1.993.72l.919.326c.07.026.136.074.254.186.3.281.78.656 1.634 1.271.998.72 1.39 1.028 1.694 1.33.231.229.314.353.314.472 0 .084-.03.121-.204.254-.143.11-.185.219-.112.292.02.02.12.077.224.13.303.152.697.427 1.128.787.309.259.45.417.425.48-.016.043-.121.067-.286.067a.989.989 0 0 1-.483-.105c-.123-.058-.157-.09-.356-.323-.176-.206-.426-.244-.582-.088-.077.077-.115.183-.131.368-.015.165-.063.28-.153.361-.088.08-.147.104-.312.129-.344.053-1.074.488-2.061 1.23-.835.627-1.132.804-1.37.82-.18.011-.264-.032-.516-.266-.295-.275-.395-.312-.526-.193-.088.079-.233.37-.392.788-.458 1.202-.764 2.484-1.353 5.664-.15.804-.175.925-.272 1.299a6.494 6.494 0 0 1-.465 1.28c-.228.468-.449.782-.768 1.09-.471.457-.987.689-1.653.743-.23.02-.237.02-.492 0zM39.53 23.62c.46-.103.728-.479.695-.972-.028-.416-.184-.912-.345-1.095-.086-.098-.149-.135-.258-.15l-.1-.013-.833.391c-.458.215-.836.402-.839.414-.003.013-.035.044-.071.07-.223.154-.142.42.26.846.41.435.97.626 1.49.51zm4.254-1.612c.219-.064.349-.137.494-.28.207-.205.284-.42.265-.743-.013-.22-.05-.335-.13-.419a.314.314 0 0 1-.066-.084c0-.01-.417-.165-.926-.345l-.925-.327-.119.018c-.356.054-.397.074-.414.2a3.029 3.029 0 0 1-.101.349c-.127.375-.123.51.029.824.21.434.638.738 1.191.844.19.037.507.02.702-.037z"
     fill="#fdcdce"
     stroke="#fdcdce"
     stroke-width=".001"
     id="path30" />
  <path
     d="M23.741 38.403l-1.111-.657"
     fill="#d6d6fe"
     fill-rule="evenodd"
     stroke="#d6d7f9"
     stroke-width=".076"
     id="path32" />
  <path
     d="M23.18 38.025l-.506-.303.006-.156a.849.849 0 0 0-.172-.55c-.247-.348-.264-.417-.115-.472.044-.016.327-.039.637-.05.716-.029.944-.083.983-.235.055-.219-.217-.455-1.274-1.106l-.379-.234.726-.014c.794-.016.868-.028.882-.15.009-.072-.053-.157-.415-.567-.261-.297-.373-.474-.373-.589 0-.096.103-.223.255-.313.163-.097.27-.22.272-.318.003-.119-.055-.224-.278-.5-.336-.42-.428-.645-.418-1.017l.007-.24.075.013c.04.007.565.08 1.165.16.96.13 1.095.154 1.129.197.095.124.412.176.782.128.917-.12 1.999-.533 3.088-1.18 1.36-.808 2.06-1.03 3.746-1.19.434-.042 3.64-.287 3.746-.287.055 0 .133.114.682.986 1.248 1.984 1.979 3.016 2.654 3.753.364.397.484.596.484.808 0 .14-.075.342-.287.767-.359.72-.58.993-.737.908a.902.902 0 0 1-.18-.194c-.152-.207-.247-.254-.38-.186-.05.025-.163.135-.251.243a6.472 6.472 0 0 1-.29.328c-.111.115-.139.131-.21.125-.07-.007-.092-.026-.138-.117-.114-.226-.192-.25-.441-.13-.19.09-.432.277-.869.672-.625.566-.752.66-.808.604-.013-.013.014-.165.064-.367.096-.381.107-.522.047-.648-.11-.23-.42-.108-.808.316-.14.154-.24.239-.334.285-.166.08-.243.07-.416-.063a.775.775 0 0 0-.724-.139.89.89 0 0 1-.202.037c-.112 0-.231-.11-.251-.234-.009-.052-.035-.107-.058-.122-.103-.065-.411.125-.863.532-.402.362-.525.458-.7.546-.156.08-.27.092-.316.036a1.065 1.065 0 0 1-.084-.142c-.04-.08-.076-.114-.143-.136-.132-.043-.251-.008-.717.214-.431.205-.656.288-.848.314-.336.046-.327-.117.023-.39.19-.148.353-.297.353-.322 0-.078-.226-.034-1.09.214-1.228.353-1.817.477-2.37.5-.411.018-.586-.015-.7-.13-.103-.102-.103-.156-.002-.452.096-.283.086-.318-.095-.31-.166.006-1.105.328-1.386.474-.328.17-.533.388-.618.655-.007.024-.022.043-.033.042-.01 0-.247-.137-.526-.304zm4.951-.626c.682-.119 1.039-.266 1.316-.543.15-.15.185-.2.22-.324.03-.101.036-.165.02-.21-.02-.056-.036-.064-.167-.07-.487-.026-1.56.55-1.829.98-.119.19.015.241.44.167zm-1.387-1.128c.884-.067 1.8-.32 2.11-.581.103-.086.23-.282.23-.353 0-.04-.019-.061-.065-.073-.175-.044-.847.048-1.938.264-1.068.212-1.392.357-1.306.581.034.09.244.153.604.184.021.002.185-.008.365-.022zM52.006 31.577c-.533-.412-1.16-.88-1.338-.996-.39-.256-.66-.335-.77-.226-.043.044-.147.357-.308.932-.042.149-.122.271-.176.271-.119 0-.32-.3-.497-.744-.531-1.324-1.05-4.139-.896-4.863.112-.523.515-.991 1.821-2.117 1.307-1.125 2.571-1.733 4.033-1.939.712-.1 1.431-.102 2.547-.008 1.257.106 2.684.016 4.223-.265.914-.167 1.87-.418 2.547-.667.322-.119.417-.136.438-.08.021.055-.072.27-.405.934-.337.67-.403.834-.403 1.003 0 .189.062.214.59.235.441.018.498.037.468.158-.042.167-.603.857-1.106 1.358-.462.461-.817.75-1.205.979-.602.355-.67.499-.404.85.17.223.218.306.218.37 0 .07-.044.085-.307.108-.184.017-.237.031-.32.09-.336.237-.267.756.13.995l.135.08h-.126c-.069 0-.253-.021-.408-.048-.834-.143-1.526-.127-2.18.051-.273.074-.612.246-.753.381-.148.143-.204.27-.226.509-.028.298-.107.422-.27.422-.038 0-.362-.116-.72-.259-.718-.287-.805-.312-.868-.25-.059.06-.052.116.05.43.1.306.098.406-.01.422-.029.004-.256-.06-.503-.145-.763-.258-1.284-.349-1.463-.255-.078.04-.087.055-.085.146.002.137.107.282.376.523.447.399.563.543.499.62-.024.03-.063.036-.157.026-.187-.02-.401-.099-.881-.326-.604-.287-.695-.318-.922-.322-.168-.002-.198.005-.253.057-.098.091-.13.28-.095.546.023.172.204.968.268 1.175.007.024.004.043-.007.042-.012 0-.138-.092-.281-.203z"
     fill="#d6d6fe"
     stroke="#d6d7f9"
     stroke-width=".002"
     id="path34" />
  <path
     d="M8.484 50.362l.037-.967"
     fill="none"
     stroke="#dad8f4"
     stroke-width=".076"
     id="path36" />
  <path
     d="M6.635 64.788l-.893.546M4.061 64.32l-.539-.959"
     fill="none"
     stroke="#dbdcf8"
     stroke-width=".076"
     id="path38" />
  <path
     d="M5.73 65.129c-.13-.368-.664-.722-1.184-.782-.453-.052-.444-.045-.715-.526-.254-.451-.255-.455-.154-.533.328-.252.484-1.251.602-3.85.111-2.474.236-7.037.275-10.071.016-1.228.05-2.423.078-2.655.142-1.223.604-2.08 1.376-2.551.573-.35 1.021-.964 1.668-2.286 1.776-3.632 2.16-4.345 2.572-4.776.474-.496.227.176-.981 2.667-.751 1.548-1.194 2.557-1.362 3.103-.12.387-.126.47-.037.47.185 0 .588-.662 1.573-2.58 1.11-2.162 2.023-3.771 2.734-4.816.268-.394.54-.708.54-.623 0 .114-.48 1.15-1.415 3.057-1.517 3.095-1.598 3.337-1.656 5.01-.038 1.098-.068 1.257-.252 1.315-.054.017-.343-.017-.642-.077-.96-.191-.967-.18-1.123 1.654-.088 1.026-.074 1.326.06 1.326.043 0 .244-.145.447-.322.203-.178.39-.323.414-.323.054 0 .09.143.11.422.016.246.115.277.324.101l.15-.127-.026.298c-.032.354.004.371.297.14l.202-.16-.033.275c-.052.447.013.49.564.363.238-.055.941.755.941 1.084 0 .465-.953.511-2.146.106a2.899 2.899 0 0 0-.418-.12c-.05 0-.066.112-.066.466 0 .455-.003.47-.157.632-.614.653-1.039 1.724-1.285 3.243-.133.817-.187 2.95-.1 3.951.124 1.431.51 3.492.772 4.115l.188.45c.075.18-.049.49-.4 1.005-.69 1.01-.813 1.209-.865 1.399-.044.164-.097.228-.282.334a9.805 9.805 0 0 0-.383.232l-.156.102zm.291-.962c.08-.147.033-.811-.122-1.776-.261-1.619-.329-2.66-.33-5.075 0-2.587.11-4.146.418-5.99.181-1.077.262-1.892.208-2.104-.049-.195-.207-.166-.32.058-.669 1.325-1.113 10.03-.676 13.242.1.737.263 1.205.553 1.593.142.19.19.2.27.052zM5.46 46.774c.318-.747.457-1.577.274-1.637-.034-.01-.17.083-.305.209-.3.281-.475.652-.441.941.03.258.229.723.31.723.034 0 .107-.106.162-.236z"
     fill="#dbdcf8"
     stroke="#dbdcf8"
     stroke-width=".004"
     id="path40" />
  <path
     d="M38.696 22.657c-.096-.035-.237-.19-.3-.328-.033-.075-.09-.146-.126-.158-.036-.011-.065-.031-.065-.045 0-.018 1-.502 1.16-.561.018-.007.032.16.032.379 0 .441-.038.557-.22.669a.717.717 0 0 1-.481.044zM42.963 20.931c-.134-.089-.232-.244-.232-.37 0-.079.067-.494.087-.536.002-.004.308.1.682.232.534.189.66.244.59.262-.05.012-.172.09-.273.171-.355.289-.39.308-.577.307a.517.517 0 0 1-.277-.066zM30.028 44.751c-.574-.175-.968-.812-1.195-1.932-.152-.75-.062-1.094.407-1.56.388-.387.818-.55.98-.37.091.1.045.274-.14.536-.37.52-.405.58-.445.773-.039.183-.036.215.039.384.163.374.186.486.184.917-.003.53.069.689.31.689.042 0 .124.048.183.106.092.093.104.125.086.237-.034.212-.18.29-.409.22z"
     fill="#fff"
     stroke="#dbdcf8"
     stroke-width=".003"
     id="path42" />
  <path
     d="M32.584 46.048l-.948-.667"
     fill="#d7d7fc"
     fill-rule="evenodd"
     stroke="#d7d7fe"
     stroke-width=".076"
     id="path44" />
  <path
     d="M55.409 50.08l2.37-1.12"
     fill="none"
     stroke="#d7d7fe"
     stroke-width=".076"
     id="path48" />
  <path
     d="M49.187 50.914a6.16 6.16 0 0 1-.109-.495c-.094-.493-.28-.81-.49-.835-.115-.013-.138.009-.184.174a1.714 1.714 0 0 0-.053.378c0 .408-.214.508-.418.195-.117-.18-.155-.285-.373-1.038-.118-.408-.31-.674-.469-.651-.176.025-.28.323-.327.943-.046.599-.09.771-.225.883-.075.063-.098.056-.2-.062-.107-.125-.144-.253-.271-.932-.069-.365-.21-.594-.367-.594-.243 0-.467.467-.61 1.268-.045.258-.098.469-.116.469-.019 0-.046-.251-.06-.558-.038-.808-.257-1.328-.56-1.328-.163 0-.23.117-.47.82-.229.663-.329.855-.406.778-.028-.028-.093-.233-.145-.456-.174-.746-.485-1.216-.781-1.181-.16.018-.231.16-.295.585-.068.451-.22.817-.49 1.178-.23.309-.361.39-.366.224a49.15 49.15 0 0 0-.044-.737c-.051-.801-.16-1.111-.388-1.111-.247 0-.402.239-.656 1.017a4.77 4.77 0 0 1-.142.396c-.016.027-.11-.369-.21-.88-.192-.98-.266-1.228-.368-1.228-.087 0-.124.053-.46.66l-.296.535-.023-.66c-.04-1.194-.213-1.258-.968-.361-.261.31-.31.262-.312-.298-.001-.6-.133-.968-.346-.968-.131 0-.382.28-.61.682-.206.365-.21.368-.224.205-.008-.092.052-.647.132-1.233.081-.587.137-1.076.125-1.089-.012-.012-.094.046-.182.128-.755.702-1.33 1.208-1.374 1.208-.09 0-.06-.161.2-1.073.14-.488.257-.987.261-1.11.008-.209 0-.224-.128-.239-.115-.013-.24.086-.85.68-.409.397-.773.71-.848.73-.115.028-.165-.002-.368-.222-.13-.14-.279-.254-.333-.254-.145 0-.294.123-.389.322l-.084.178-.257-.186-.388-.28-.131-.094.093-.267c.128-.364.12-.473-.052-.623-.193-.17-.23-.342-.16-.75.1-.585.083-.727-.116-.908-.15-.138-.173-.19-.173-.386 0-.124.025-.345.055-.49.133-.626.267-.688 1.216-.56.703.097 1.235.117 1.516.06.122-.026.292-.137.508-.333.355-.321.509-.415.773-.471.372-.08.85-.397 1.712-1.137.82-.705 1.42-1.044 1.987-1.125.387-.054.66-.185.973-.465.397-.356 1.071-.505 2.076-.456 1.003.048 1.503.19 2.24.632.851.512 1.822.668 2.406.388.207-.1.278-.208.34-.523.044-.224.252-.528.691-1.01.81-.89 1.086-1.346 1.061-1.754l-.015-.255.198-.043c.463-.1.545-.192.616-.7.027-.187.084-.376.127-.42.06-.058.205-.083.574-.095.46-.016.501-.026.593-.144.073-.092.1-.2.1-.407 0-.482.093-.497 1.124-.176 1.239.384 1.262.378 1.312-.323.04-.563.094-.64.387-.553.11.033.568.25 1.02.481l.82.422.004-.61c.005-.75.052-1.107.163-1.218.076-.075.19-.083.996-.069 1.087.02 1.16-.002 1.346-.404.066-.141.12-.28.12-.31.002-.105.29-.326.513-.393.126-.038.536-.093.912-.123.683-.054 1.709-.195 2.167-.298.134-.03.25-.046.26-.036.01.01-.411.238-.936.508l-.955.49.72.084c.395.047.823.111.951.144.288.073.417.2.345.334-.066.123-.512.36-1.102.585-.257.098-.486.196-.509.219-.023.022.256.055.62.073.86.041 1.232.08 1.232.126 0 .02-.147.1-.328.176-.43.183-.614.34-.614.522 0 .301.303.44 1.088.496.81.059 1.113.18 1.245.499.048.114.047.16-.001.22-.096.115-.343.089-.953-.1-.8-.25-1.32-.347-1.49-.28-.36.143-.015.51 1.12 1.193.428.256.777.48.777.499 0 .018-.207.061-.46.097-1.204.167-1.476.242-1.387.383.02.03.207.16.415.286.872.528 1 1.058.206.852-1.081-.28-.914.183.486 1.344.454.376.624.543.563.556-.048.01-.44-.008-.872-.039-.984-.07-1.251-.019-.887.17.193.1.316.288.274.42-.045.143-.278.25-.546.25-.584 0-.9.206-.853.557.03.223.2.586.367.786.165.196.32.186.65-.04.242-.168.3-.187.574-.184.193.002.498.063.837.166.293.089.68.177.859.195l.325.033-2.508 2.92a391.279 391.279 0 0 0-2.546 2.977c-.04.064-.68.578-.72.578-.013 0-.119-.23-.235-.509-.304-.736-.475-1.055-.625-1.173-.175-.138-.199-.134-.403.07-.162.162-.173.193-.152.414.016.168.098.37.276.681.346.606.44.95.364 1.323-.059.285-.02.484.095.484.12 0 .025.09-.226.213-.15.074-.282.134-.293.134-.01 0-.007-.088.008-.197.036-.272-.055-.596-.311-1.106-.253-.503-.544-.944-.756-1.144-.114-.108-.187-.136-.315-.124-.263.025-.249.205.08 1.015.385.943.685 1.407 1.032 1.59.07.037-.05.111-.615.378-.567.268-.718.32-.775.273-.04-.033-.319-.356-.62-.72-.302-.362-.568-.66-.592-.66-.023 0-.042.28-.042.622 0 .95-.146 1.177-.503.78-.092-.102-.286-.413-.432-.69-.33-.632-.448-.701-.551-.325-.146.533-.59.811-.674.422-.08-.37-.26-.527-.488-.423-.161.073-.198.315-.11.73.073.35.062.472-.042.472-.131 0-.54-.326-1.209-.967-.385-.368-.724-.67-.752-.67-.033 0-.054.257-.058.707-.007.863-.062 1.776-.1 1.674zm9.854-4.843c.127-.049.225-.29.225-.553 0-.388-.133-.697-.427-.991-.292-.292-.442-.33-.517-.134-.096.252-.036 1.022.106 1.372.094.23.405.385.613.306z"
     fill="#d7d7fc"
     stroke="#d7d7fe"
     stroke-width=".004"
     id="path50" />
  <path
     d="M69.126 44.324c-.166-.11-.311-.3-.636-.837-.285-.47-.594-.764-.898-.856-.118-.036-.504-.08-.859-.1-.716-.04-.927-.104-1.127-.341-.158-.188-.32-.606-.364-.94-.067-.499.167-.786.986-1.212.227-.118.44-.271.515-.37.111-.146.124-.201.101-.428-.033-.318.043-.52.259-.683.598-.456.756-.705.819-1.287.103-.968 1.263-2.293 3.086-3.526.913-.617 1.047-.817.534-.798-.52.02-1.521.458-2.204.966-1.057.787-2.465 2.283-2.828 3.007a.64.64 0 0 0-.081.433c.083.603-.743.683-1.157.112-.084-.116-.134-.23-.111-.254.023-.023.163-.055.31-.071.367-.04.493-.126.493-.334 0-.177-.1-.321-.51-.739-.14-.141-.234-.282-.234-.349 0-.062.078-.234.174-.382.095-.148.173-.288.173-.311 0-.086-.115-.255-.254-.372-.078-.065-.143-.157-.143-.202 0-.045.09-.214.199-.374.109-.16.198-.325.198-.364 0-.04-.089-.163-.198-.274-.11-.111-.199-.23-.199-.263 0-.034.09-.195.199-.358.288-.432.272-.504-.156-.723-.307-.157-.333-.228-.194-.523a1.62 1.62 0 0 1 .27-.399c.312-.302.4-.313 2.635-.354 2.36-.042 2.833-.067 3.944-.205 1.194-.149 1.777-.085 2.447.27.484.256 1.01.943 1.103 1.44.053.285-.172.686-.856 1.524-1.216 1.49-1.47 1.949-1.554 2.806-.078.798-.406 1.632-1.202 3.053-.6 1.072-1.028 2.162-1.03 2.624-.001.276-.133.828-.268 1.122-.199.434-.83.964-1.148.962a.55.55 0 0 1-.234-.09zm-2.765-2.767c.151-.045.322-.138.395-.216.2-.215.424-.304.887-.352.236-.025.458-.046.492-.046.143-.002.043-.14-.215-.297-.315-.191-.69-.25-.982-.153-.24.08-.853.484-1.125.743l-.22.21.116.095c.143.116.303.12.652.016z"
     fill="#fefefc"
     stroke="#d7d7fe"
     stroke-width=".004"
     id="path52" />
  <path
     d="M64.649 43.332l-1.358 1.91"
     fill="none"
     stroke="#fbcfcb"
     stroke-width=".076"
     id="path54" />
  <path
     d="M62.431 50.166c-.332-.13-.28-.504.334-2.377.309-.942.505-1.72.558-2.213.036-.342.04-.35.706-1.295l.67-.95.372-.102c.93-.253 1.933-.34 2.208-.193.213.115.43.36.672.759.454.75 1.188 1.763 2.354 3.25 1.518 1.937 1.88 2.541 1.653 2.768-.178.178-.451-.033-.662-.511a4.13 4.13 0 0 0-.347-.6c-.455-.638-1.544-1.514-2.178-1.751-.384-.144-.905-.228-1.038-.167-.154.07-1.025-.075-1.025-.171 0-.248-.26-.462-.563-.462-.32 0-.493.296-.795 1.359-.285 1.007-.592 1.604-1.082 2.103-.374.382-.772.563-1.29.587-.227.01-.473-.005-.547-.034z"
     fill="#facbcb"
     stroke="#facbcb"
     stroke-width=".151"
     id="path58" />
  <path
     d="m 70.262,64.861 c 0.111,-0.051 0.437,-0.227 0.722,-0.392 1.083,-0.626 1.946,-1.01 2.432,-1.081 0.554,-0.082 0.927,-0.523 0.891,-1.05 -0.014,-0.207 -0.19,-0.234 -0.762,-0.119 -1.355,0.273 -2.65,0.897 -3.455,1.667 -0.485,0.462 -0.56,0.68 -0.32,0.93 0.155,0.163 0.218,0.17 0.491,0.045 z"
     id="path961" />
  <path
     d="m 71.893,62.17 c 1.288,-0.421 1.837,-0.92 1.16,-1.053 -0.432,-0.086 -1.693,0.366 -2.115,0.756 -0.2,0.186 -0.225,0.432 -0.05,0.499 0.15,0.058 0.306,0.027 1.005,-0.202 z"
     id="path959" />
  <path
     d="m 58.931,47.062 c 0.058,-0.066 1.522032,-1.751323 2.809032,-3.252323 1.288,-1.5 2.282193,-2.729 2.314193,-2.729 0.048,0 0.207896,-0.179324 0.267315,0.04243 0.05942,0.22175 0.01836,0.844574 -0.02664,1.247574 -0.092,0.827 -0.0099,0.99042 0.200068,1.01742 0.111,0.015 -0.02497,0.116903 -0.586968,0.908903 L 63.291,45.242 63.162,45.023004 c -0.365,-0.314 -0.916,0.12 -1.195,0.94 -0.067,0.195 -0.105516,0.367097 -0.150516,0.436097 l -0.132484,0.165903 -0.094,-0.129 c -0.13,-0.178 -0.386,-0.253 -0.718,-0.212 -0.334,0.042 -0.845,0.213 -1.209,0.404 -0.373,0.195 -0.852,0.569 -0.732,0.434 z"
     id="path64"
     style="fill:#6f6f91;fill-opacity:1;stroke:#6f6f91;stroke-width:0.05;stroke-miterlimit:4;stroke-dasharray:none;stroke-opacity:1"
     inkscape:connector-curvature="0"
     sodipodi:nodetypes="ccssccccccccccccc" />
  <path
     d="M29.062 54.071l-.204 1.342"
     fill="none"
     stroke="#9998c3"
     stroke-width=".076"
     id="path66" />
  <path
     d="M50.466 9.704c-.745-.119-.876-.31-2.235-3.246-.67-1.447-1.029-2.4-.951-2.526.066-.108.403-.023.889.224 1.457.74 2.448 1.773 3.261 3.4.608 1.214.708 1.76.37 2.01-.202.148-.85.216-1.334.138z"
     fill="#ffe1a2"
     stroke="#ffe1a2"
     stroke-width=".113"
     id="path68" />
  <path
     d="M17.173 72.557c-.698-.073-1.445-.295-1.61-.479-.187-.206-.094-.465.225-.628.419-.214.806-.292 1.757-.356 1.281-.087 1.598-.248 3.24-1.652.483-.413 1.13-.936 1.44-1.163.907-.667.945-.7 1.06-.924.061-.117.138-.525.171-.906.066-.762.218-1.192.557-1.578.257-.292.263-.456.034-.955-.097-.212-.157-.435-.134-.496.023-.06.205-.163.405-.227.485-.156.678-.286.678-.455 0-.203-.323-.812-1.006-1.902-1.407-2.241-3.029-5.32-3.598-6.83-.214-.566-.27-.817-.289-1.298-.033-.824-.047-.865-.442-1.3-.192-.212-.349-.427-.349-.476 0-.322.434-.33 2.425-.052 2.07.29 2.827.332 3.398.185.485-.125 1.638-.704 2.308-1.158.675-.459 1.052-.936 1.567-1.988.439-.895.574-1.101.664-1.011.021.02-.044.442-.144.936-.317 1.569-.521 3.532-.574 5.53-.018.656-.058 1.35-.09 1.544l-.06.35-.085-.21c-.048-.115-.113-.709-.146-1.319-.084-1.576-.274-1.92-1.155-2.096-.523-.104-1.527-.012-3.477.32-2.015.343-2.15.425-1.846 1.134.372.873.604 1.586.969 2.98.46 1.76.707 2.452 1.26 3.542.312.613 1.9 3.219 2.107 3.458.01.01.519-.044 1.132-.122 1.584-.202 1.613-.204 1.718-.139.077.048.068.096-.05.255-.24.321-.71.514-1.51.62-.801.106-1.308.24-1.578.417-.241.159-.147.253.5.5.29.11.74.228.74.252 0 .023-.396.075-.618.124-1.04.231-2.48.954-2.693 1.354-.072.134-.05.178.192.387.15.13.865.526 1.588.88.724.355 1.566.69 1.566.715 0 .024-.494.04-.793.066a8.133 8.133 0 0 0-2.27.555c-1.709.692-4.045 2.078-4.587 2.722-.44.524-.046.782.97.634 1.26-.183 5.534-1.228 7.13-1.743.973-.314 1.707-.76 2.468-1.5.68-.66.946-1.113.867-1.475-.026-.118-.017-.207.022-.207.093 0 .851.57 1.054.79.153.167.157.191.058.382-.147.285-1.046 1.122-1.59 1.481-1.002.662-2.288 1.164-4.164 1.626-3.166.78-7.057 1.154-9.412.906z"
     fill="#9998c3"
     stroke="#9998c3"
     stroke-width=".113"
     id="path70" />
  <path
     d="M18.611 48.64l.41.959"
     fill="#6f6f91"
     fill-rule="evenodd"
     stroke="#6f6f90"
     stroke-width=".076"
     id="path72" />
  <path
     d="M23.676 49.779c-.147-.193-.352-.672-.58-1.357-.333-.995-.603-1.515-.84-1.613-.335-.138-.46.283-.46 1.555v.662l-.528-.504c-.95-.904-1.243-1.135-1.407-1.111-.173.025-.148.267.13 1.29.11.405.192.757.182.784-.02.054-.377.095-.831.095h-.27l-.196-.457-.195-.456.097-.098c.244-.244.216-1.17-.059-1.91a3.145 3.145 0 0 0-.266-.513c-.213-.325-.34-.589-.34-.706 0-.118.13-.387.328-.682.283-.422.459-.958.513-1.564.047-.534.121-.712.482-1.166.401-.504 1.906-1.73 2.272-1.85.204-.068.28-.026.472.259.21.312.426.504.596.532.518.086 2.438.907 2.974 1.27.443.301.66.647.92 1.462.29.907.372 1.567.345 2.751-.032 1.375-.266 2.35-.656 2.74-.18.18-.31.21-.41.094-.097-.113-.135-.297-.204-.97-.095-.937-.24-1.498-.479-1.856-.154-.23-.287-.319-.481-.319-.19 0-.327.12-.465.41-.176.369-.239.762-.277 1.73-.04 1.037-.128 1.614-.246 1.614-.017 0-.072-.052-.12-.116z"
     fill="#6f6f91"
     stroke="#6f6f91"
     stroke-width=".113"
     id="path74" />
  <path
     d="M37.413 60.286c-1.128-.05-2.006-.15-2.43-.277-.362-.107-2.454-.317-3.17-.317-.2 0-.28-.014-.314-.054-.068-.083-.125-.106-.597-.244-.737-.216-1.356-.553-1.83-.997-.44-.411-.473-.632-.235-1.582.17-.68.218-1.171.127-1.31-.052-.08-.049-.133.043-.733.094-.612.107-.661.241-.89.3-.512.577-1.643.902-3.694.21-1.329.399-2.136.691-2.968.099-.28.76-1.636.835-1.714.022-.023.59.343.782.504.015.012.002.17-.03.352-.08.468-.061 1.59.03 1.728.084.128.155.12.375-.045.61-.455 1.054-.241 1.126.542.034.378.126.562.324.652.081.037.19.067.242.068.14 0 .26.066.305.164.031.068.025.144-.029.356-.083.329-.213 1.196-.336 2.252-.198 1.69-.463 2.697-.88 3.341-.234.362-.365.642-.365.78 0 .116.008.124.111.124.155 0 .384-.144.503-.316.15-.216.45-.476.73-.63.315-.174.891-.364 1.32-.437.915-.154 2.535.045 2.75.336.088.12.086.33-.009.907-.08.487-.09.866-.026 1.052.033.097.063.126.142.135.214.024.398-.277.69-1.132.203-.6.273-.745.441-.932.172-.19.372-.26.68-.238.135.01.27.039.301.064.08.067.05.26-.105.69-.202.564-.268.948-.29 1.714-.027.926.027 1.194.332 1.654a.832.832 0 0 1 .14.344c.017.153.011.167-.141.312-.265.255-.769.384-1.724.442-.616.037-.764.037-1.652-.003zm-5.54-4.558c.44-.222.744-.531.641-.654-.107-.13-.693.043-.933.276-.22.212-.228.483-.014.483a.97.97 0 0 0 .306-.105z"
     fill="#fefefc"
     stroke="#6f6f91"
     stroke-width=".004"
     id="path76" />
  <path
     d="M33.298 65.445c-.147-.081-.273-.184-.492-.403a8.54 8.54 0 0 1-1.017-1.255c-.217-.345-.358-.89-.358-1.385 0-.233.004-.275.04-.364.06-.155.146-.18.263-.074.144.13.789 1.14 1.234 1.93.313.559.558 1.081.61 1.303.06.264-.058.37-.28.248z"
     fill="#9998c3"
     stroke="#9998c3"
     stroke-width=".076"
     id="path78" />
  <path
     d="M51.537 55.386L50 54.464"
     fill="none"
     stroke="#facbcb"
     stroke-width=".076"
     id="path80" />
  <path
     d="M49.652 57.37l-2.456-.446"
     fill="#facbcb"
     fill-rule="evenodd"
     stroke="#facbcb"
     stroke-width=".076"
     id="path82" />
  <path
     d="M42.943 60.693c-.32-.131-.832-.458-1.032-.658-.363-.363-.504-.962-.505-2.146 0-.444.01-.626.044-.819.136-.752.45-1.163 1.01-1.317.073-.02.32-.047.547-.06.641-.035 1.008-.112 1.467-.309.547-.233.984-.529 1.626-1.097.456-.404.672-.498 1.075-.47.28.02.59.088 1.776.39.638.163 1.002.267 1.055.303.045.03.38.233.745.452.586.35.661.402.645.446a.814.814 0 0 0-.02.188c-.002.244.155.388.569.521.25.081.364.145.442.25.126.17-.104.378-.543.49-.225.056-.341.07-.89.101-.219.013-.465.04-.546.062a2.37 2.37 0 0 0-.638.3c-.083.06-.12.074-.12.048 0-.046.089-.027-1.25-.27l-1.138-.206-.065-.078c-.142-.17-.482-.23-.744-.131-.32.121-.773.517-1.024.896-.165.248-.232.406-.257.609-.059.474-.48 1.15-1.286 2.065-.433.492-.612.576-.943.44z"
     fill="#facbcb"
     stroke="#facbcb"
     stroke-width=".076"
     id="path84" />
  <path
     d="M52.861 72.48l5.158-3.488"
     fill="none"
     stroke="#d7d6fa"
     stroke-width=".076"
     id="path86" />
  <path
     d="M52.861 73.12l-1.399 3.066"
     fill="none"
     stroke="#d5d8fc"
     stroke-width=".076"
     id="path88" />
  <path
     d="M51.581 64.808l-4.304 2.239"
     fill="none"
     stroke="#d6d7f8"
     stroke-width=".076"
     id="path90" />
  <path
     d="M45.335 67.914l-2.034 2.48"
     fill="#fefefc"
     fill-rule="evenodd"
     stroke="#d6d7f8"
     stroke-width=".076"
     id="path92" />
  <path
     d="M49.801 68.64c-.16-.192.19-.67.491-.67.294 0 .393.435.15.655-.159.143-.527.152-.64.016z"
     fill="#feda94"
     stroke="#d6d7f8"
     stroke-width=".005"
     id="path94" />
  <path
     d="m 51.718,75.74 c 0.637,-1.429 1.208,-2.628 1.291,-2.712 0.142,-0.142 0.223,-0.39 0.181,-0.552 -0.031,-0.119 0.318,-0.38 2.261,-1.69 1.98,-1.336 2.309,-1.535 2.378,-1.44 0.071,0.098 0.173,0.064 0.84,-0.281 1.325,-0.686 2.12,-1.289 3.427,-2.598 2.958,-2.964 5.75,-7.24 6.774,-10.377 0.555,-1.702 0.68,-2.432 0.68,-4.013 0,-1.197 -0.016,-1.374 -0.152,-1.735 -0.21,-0.554 -0.416,-0.82 -0.754,-0.973 -0.43,-0.195 -0.954,-0.169 -0.954,0.048 0,0.053 0.112,0.271 0.25,0.485 0.379,0.594 0.522,1.265 0.522,2.45 -0.001,1.494 -0.28,3.045 -0.774,4.293 -0.323,0.82 -1.126,2.399 -1.725,3.396 -1.531,2.546 -5.153,7.04 -5.442,6.752 -0.165,-0.165 -0.35,-1.192 -0.388,-2.162 -0.044,-1.101 -0.007,-1.297 0.367,-1.924 0.486,-0.815 0.473,-1.263 -0.052,-1.86 -0.417,-0.473 -0.86,-0.664 -1.54,-0.665 -0.725,-0.001 -1.231,0.169 -2.07,0.694 -0.38,0.238 -1.171,0.67 -1.759,0.96 -0.587,0.29 -1.32,0.714 -1.629,0.942 -0.773,0.574 -1.566,1.342 -1.758,1.704 -0.154,0.29 -0.242,0.344 -2.236,1.382 -1.423,0.74 -2.138,1.076 -2.271,1.066 -0.274,-0.021 -1.42,0.227 -1.872,0.406 -0.54,0.212 -0.79,0.406 -0.764,0.589 0.018,0.13 0.063,0.148 0.322,0.136 l 0.301,-0.013 -0.446,0.54 -0.809,0.98 -0.363,0.442 0.04,-0.652 c 0.022,-0.358 0.072,-0.825 0.112,-1.038 0.282,-1.51 1.351,-3.72 1.967,-4.066 0.279,-0.156 0.305,-0.05 0.071,0.29 -0.366,0.534 -0.525,0.914 -0.534,1.273 -0.006,0.262 0.022,0.364 0.118,0.424 0.106,0.067 0.16,0.04 0.336,-0.166 0.395,-0.463 1.309,-1.746 2.517,-3.532 2.023,-2.993 2.004,-2.977 3.806,-3.228 l 1.144,-0.16 0.117,-0.943 c 0.065,-0.518 0.12,-1.246 0.123,-1.617 0.004,-0.59 -0.015,-0.703 -0.155,-0.91 -0.32,-0.477 -1.098,-0.744 -1.532,-0.527 l -0.227,0.113 -0.69,-0.41 -0.692,-0.41 1.212,-0.941 c 1.179369,-0.909102 2.33541,-1.848073 3.467,-2.816 0.56,-0.483 0.797,-0.627 1.87,-1.137 0.677,-0.322 1.343,-0.606 1.48,-0.631 0.627,-0.118 2.94,-1.211 3.38,-1.598 0.146,-0.128 0.248,-0.175 0.278,-0.127 0.074,0.12 -0.036,0.75 -0.255,1.464 -0.235,0.766 -0.276,1.557 -0.092,1.818 0.247,0.353 0.463,0.401 1.785,0.399 1.815,-0.003 2.48,-0.228 2.887,-0.977 0.21,-0.386 0.284,-0.721 0.456,-2.054 0.065,-0.51 0.146068,-1.075281 0.171068,-1.116281 0.032,-0.052 0.4179,0.07135 0.6769,0.126354 0.27,0.058 0.173032,0.142933 0.360032,0.328933 0.141,0.14 0.556,0.413 0.922,0.605 1.251,0.656 1.852,1.47 2.283,3.091 0.57,2.15 0.12,5.19 -1.17,7.892 -1.034,2.166 -3.772,6.456 -4.724,7.402 -0.233,0.232 -0.992,0.914 -1.687,1.515 -3.395,2.94 -4.807,4.468 -4.807,5.203 0,0.451 -0.395,0.636 -2.59,1.21 -2.32,0.606 -2.83,0.818 -3.49,1.447 -0.384,0.367 -0.678,0.554 -0.87,0.554 -0.035,0 0.01,-0.166 0.1,-0.368 z m 1.91,-21.173 c 0.228,-0.116 0.873,-0.576 1.432,-1.022 1.145,-0.912 2.308,-1.716 2.863,-1.978 0.204,-0.097 0.526,-0.315 0.715,-0.485 0.47,-0.423 0.963,-1.426 0.7,-1.426 -0.117,0 -1.282,0.604 -2.122,1.1 -2.48,1.466 -4.542,3.133 -4.542,3.672 0,0.396 0.35,0.447 0.954,0.139 z"
     id="path96"
     inkscape:connector-curvature="0"
     style="fill:#feda94;stroke:#feda94;stroke-width:0.076"
     sodipodi:nodetypes="ccccccccsccsccccccccccccccccccccccccccccccccccccccccccccccccccccccccccsccsccccccscsc" />
  <path
     d="M41.07 71.316c-.416-.415-.265-2.105.356-4.013.913-2.8 3.114-6.669 4.971-8.738.517-.577.873-1.14.874-1.383 0-.087.024-.16.053-.16.03-.001.548.084 1.152.19l1.1.192-.696.705c-2.461 2.494-5.275 7.147-5.998 9.921-.214.82-.22 1.33-.02 1.81.144.347.145.375.034.545-.142.218-.749.705-1.092.879-.458.23-.55.237-.735.052z"
     fill="#feda94"
     stroke="#feda94"
     stroke-width=".076"
     id="path98" />
  <path
     d="M76.451 73.804l6.477 1.223-.053-3.249"
     fill="none"
     stroke="#ffd7ad"
     stroke-width=".076"
     id="path102" />
  <path
     d="m 82.79,68.95 c -0.046,-0.075 -0.433129,-0.279323 -0.713129,-0.412323 -0.623,-0.296 -1.197612,-0.733934 -2.603612,-2.097934 C 78.330259,65.331743 76.998,64.254 76.568,63.97 c -0.15,-0.1 -0.07481,-0.174 -0.113807,-0.287 l -0.08419,-0.26 2.638,0.059 2.763098,-0.04748 -0.539098,0.219484 c -0.173,0.093 -0.531,0.367 -0.796,0.61 l -0.48,0.443 0.55,0.568 c 0.77,0.794 1.558,1.15 2.115,0.956 l 0.207,-0.072 0.035,1.45 c 0.019,0.796 0.03,1.455 0.024,1.463 -0.006,0.008 -0.05,-0.047 -0.096,-0.122 z m -3.21,5.395 c -2.14,-0.408 -3.019,-0.463 -3.129,-0.54 -0.298,-0.21 -0.947,-0.448 -2.094,-0.447 -1.044,10e-4 -1.116,0.01 -1.59,0.18 -0.678,0.243 -1.157,0.21 -2.504,-0.179 -1.288,-0.371 -1.88,-0.471 -2.774,-0.47 -0.838,0.001 -1.336,0.092 -2.27,0.417 -0.369,0.127 -0.69,0.212 -0.714,0.188 -0.024,-0.024 0.024,-0.118 0.107,-0.209 0.694,-0.756 4.306,-1.35 8.214,-1.35 1.766,0 2.678,0.067 4.049,0.295 2.508,0.418 4.658,0.362 5.655,-0.147 l 0.245,-0.125 0.068,-0.003 c 0.065,1.427 0.176,3.078 0.085,3.072 -0.043,-0.003 -1.631,-0.355 -3.348,-0.682 z"
     id="path106"
     inkscape:connector-curvature="0"
     style="fill:#ffd8ac;stroke:#fed7ad;stroke-width:0.005"
     sodipodi:nodetypes="cccccccccccccccscccccccccscscccccc" />
  <path
     d="M82.928 75.027l.059 5.62s-54.16.013-78.361.043c-2.789.003 6.462-.483 6.45-1.142-.009-.472-9.897-.187-7.442-.595 1.875-.312 21.276-.969 21.276-.969S14.429 75.47 12.267 75.48C8.6 75.498.038 76.87.038 76.87l.023-1.886s10.554-1.145 12.206-.992c3.74.346 11.154 1.32 11.154 1.32"
     fill="none"
     stroke="#d8d7ff"
     stroke-width=".076"
     id="path108" />
  <path
     d="M37.341 74.336l3.101-.643"
     fill="none"
     stroke="#d7d7fe"
     stroke-width=".076"
     id="path110" />
  <path
     d="M23.498 75.298a70.712 70.712 0 0 0-2.053-.28c-3.303-.42-3.917-.514-2.07-.313.367.04 1.014.08 1.439.091.953.024 1.076 0 1.684-.323.663-.351 1.556-.616 3.19-.946 2.988-.603 6.91-1.08 10.931-1.33 2.234-.14 3.154-.098 3.614.16.267.151.33.392.233.884l-.066.353c-.008.06-.19.106-1.5.384l-1.492.316-1.263-.01c-1.611-.012-2.107.051-2.427.309-.235.188-.493.258-1.028.277-.696.024-1.201-.058-2.544-.413-.471-.125-.632-.151-1.003-.166-.576-.024-.869.038-2.12.447-1.533.502-1.827.564-2.736.58-.366.007-.722-.002-.79-.02z"
     fill="#fdd6ae"
     stroke="#d7d7fe"
     stroke-width=".003"
     id="path112" />
  <path
     d="M4.958 80.605c.058-.013.61-.073 1.228-.133 2.884-.281 4.507-.552 4.82-.805l.154-.125-.152-.08c-.233-.125-1.334-.206-3.418-.251-4.328-.094-4.898-.157-2.823-.313 2.923-.218 18.415-.857 20.189-.833.532.008.673-.02 1.298-.258 1.4-.532 2.031-.621 3.218-.456.592.082.98.019 1.015-.167.052-.272-1.385-.678-2.403-.678-.238 0-.62.048-.85.107-.53.136-1.918.81-2.227 1.08l-.235.207-1.644-.382c-3.886-.901-8.512-.84-10.403-1.12-1.683-.249-4.61-.776-10.85.146-.904.133-1.67.243-1.701.243-.032 0-.057-.392-.057-.871v-.871l.263-.041c.748-.116 6.69-.68 8.929-.846 2.136-.16 2.908-.14 5.403.14 2.588.29 7.245.856 7.53.916.184.04.189.048.07.14-.122.095-.12.106.039.24.35.298 1.543.514 2.303.419.64-.08.95-.152 2.477-.576 1.743-.482 2.011-.484 3.813-.024 1.638.418 1.762.414 2.823-.083 1.027-.48 1.51-.63 2.591-.8a73.67 73.67 0 0 0 2.44-.451c1.231-.249 1.554-.293 1.66-.226.11.07.175.05.387-.111.539-.411 2.06-2.338 2.439-3.089.182-.362 1.817-2.451 2.102-2.688.052-.043.441-.207.865-.366.425-.158.854-.348.954-.42.324-.237 4.258-2.257 4.462-2.292.39-.067.969-.423 1.5-.923.693-.651 1.45-1.125 3.167-1.98 2.51-1.25 3.191-1.392 3.47-.725.176.42.025.974-.476 1.75-.402.623-.413.809-.09 1.474.229.475.27.634.296 1.154.05.998-.253 1.776-1.081 2.771-.413.497-.643.67-3.026 2.282-1.419.96-2.65 1.826-2.738 1.925-.183.209-.206.489-.048.577.093.052.01.278-.546 1.492-.53 1.157-.687 1.438-.816 1.469-.087.02-.165.069-.173.107-.007.038.282.228.642.42.625.336 1.045.668 1.275 1.01.203.3.602.366 2.664.433 2.409.079 3.052.164 4.765.636 1.487.41 3.748.622 6.639.623 2.658 0 4.338-.147 5.963-.524 1.034-.24 1.563-.32 2.773-.42 1.255-.105 1.473-.167 1.473-.42 0-.231-.379-.488-1.017-.688-.422-.132-.655-.154-1.65-.156-.636 0-1.758.027-2.492.062-1.452.068-1.647.037-1.647-.266 0-.241.214-.39.664-.464.447-.072.6-.163.6-.358 0-.244-.274-.33-1.194-.377-4.286-.22-8.77-.94-8.77-1.408 0-.206.616-.23 1.447-.059.697.145 1.285.095 2.15-.182 1.133-.362 1.57-.438 2.472-.433.591.004 1.02.048 1.438.15 1.777.427 1.81.43 3.48.471 2.001.048 3.35-.084 3.621-.354.075-.075.672.018 3.284.511l3.193.603.018 2.741.018 2.741-23.167.047c-23.398.047-54.984.05-54.79.006zm44.868-2.69c-.036-.035-.65-.244-1.364-.463-1.034-.318-1.427-.406-1.93-.435-.6-.033-.677-.02-1.544.262-1.483.482-1.703.573-1.542.636.202.08 6.462.079 6.38 0zm-8.548-2.435c.34-.161.806-.707 1.212-1.417.64-1.12.547-1.277-.311-.525-.628.55-1.423 1.455-1.481 1.686-.045.18.077.37.236.37.057 0 .212-.051.344-.114zm2.622-.462c.186-.307.243-.6.139-.725-.113-.137-.181-.13-.349.038-.14.14-.18.443-.096.754.058.217.144.198.306-.067zm7.218-5.672c.347-.195.541-.529.471-.81-.068-.277-.762-.94-1.224-1.17-.301-.15-.406-.172-.52-.112-.365.196-.822.974-.822 1.402 0 .726 1.28 1.148 2.095.69zm3.471-1.278c.165-.12.243-.453.183-.779-.099-.54-.561-.891-.841-.638-.191.173-.175.228.156.534.279.257.284.27.115.27-.097 0-.276.034-.399.077-.557.194-.355.624.294.624.205 0 .426-.04.492-.088z"
     fill="#d8d8f6"
     stroke="#d8d8f6"
     stroke-width=".113"
     id="path114" />
  <path
     d="M22.935 64.966l-2.928.095M34.494 64.962l6.181-.146"
     fill="none"
     stroke="#fdd6ae"
     stroke-width=".076"
     id="path116" />
  <path
     d="M36.167 67.605c-.068-.119-.32-.573-.559-1.01-.239-.437-.543-.963-.675-1.17a4.575 4.575 0 0 1-.24-.402c0-.013.753-.04 1.674-.057.921-.018 2.242-.048 2.936-.066 1.23-.032 1.26-.03 1.222.062-.082.198-.085.562-.008.935.218 1.052-.04 1.519-.989 1.792-.24.069-.576.09-1.767.108l-1.47.023z"
     fill="#fdd6ae"
     stroke="#fdd6ae"
     stroke-width=".004"
     id="path118" />
  <path
     d="M19.213 73.987c-2.812-.247-3.846-.39-4.032-.557-.129-.116-.109-.253.044-.292.201-.05.87.013 1.581.15.95.182 1.422.23 2.58.261.73.02 1.427.004 2.326-.055.902-.06 1.3-.069 1.336-.032.108.108-1.224.645-1.677.676-.136.01-1.108-.058-2.158-.15z"
     fill="#9998c3"
     stroke="#9998c3"
     stroke-width=".076"
     id="path120" />
  <path
     d="M.16 61.092L.062 74.984"
     fill="none"
     stroke="#fdd6ae"
     stroke-width=".076"
     id="path122" />
  <path
     d="M.11 74.611c0-.179.025-3.26.054-6.848l.053-6.522.12-.121c.068-.067.277-.338.467-.604.565-.791.835-.957 1.564-.96.725-.003.86.128.865.837.005.69-.152.947-.687 1.12-.833.272-1.06.632-.761 1.21.127.246.667.778.891.879.233.104.388.087.651-.07.091-.056.182-.08.204-.057.088.1.453.813.416.814a5.66 5.66 0 0 0-.37.07c-.801.17-1.4.689-1.222 1.06.04.087.11.14.194.15.135.015.172-.017.574-.483.243-.282.502-.399.887-.4.484-.002.543.138.393.925-.09.47-.096.77-.015.85.092.092.419.07.639-.042.39-.198.738-.646.741-.951.001-.089.089-.165.401-.349.22-.13.45-.236.51-.236.21 0 .594-.307 1.414-1.134.568-.572.899-.866 1.064-.945.31-.15.51-.361.907-.955.341-.511.499-.672.832-.85.175-.094.281-.11.726-.108.468.002.575.02 1.06.187.607.208 1.709.72 1.807.84.056.068.028.081-.248.111-.436.047-.776.22-.969.493-.222.316-.372.347-1.464.304-.532-.021-.881-.017-.881.011 0 .025.155.107.345.181.19.075.402.18.471.235.31.244.062.551-.816 1.006-.912.473-1.136.754-1.234 1.545-.089.718-.003.82.6.723.199-.032.496-.103.66-.157.456-.15 1.607-.731 2.355-1.19 1.253-.767 1.952-1.14 2.136-1.14.114 0 .61.234.866.41.471.324 1.312.95 1.296.965-.01.01-.306.063-.657.117-1.275.196-1.416.323-1.489 1.336-.054.762.12 1.042.605.97.468-.07 1.8-.83 2.336-1.332.438-.41.494-.525.413-.86-.055-.23-.052-.277.02-.388.065-.099.124-.127.272-.127.261 0 .563.213.916.645.22.272.313.35.397.338.098-.014.108-.043.103-.297a.927.927 0 0 0-.139-.508l-.133-.227h.437c.24 0 .827-.015 1.304-.032l.868-.032-.089.1c-.136.154-.282.581-.33.966-.026.205-.1.455-.182.618-.264.521-1.233 1.57-2.376 2.572-1.018.892-1.422 1.074-2.817 1.268-1.197.166-1.662.287-2.027.53-.385.254-.554.806-.56 1.824-.003.559.014.74.086.928.1.258.062.241.977.414l.372.07-.322-.022a75.579 75.579 0 0 1-1.737-.18c-1.625-.181-2.404-.194-4.185-.068-1.813.128-6.32.548-8.95.834l-.608.065zm7.971-6.6c.254-.187.477-.506.477-.682 0-.18-.23-.367-.705-.572-.343-.148-.417-.161-.895-.162-.486 0-.543.01-.846.159-.292.143-.702.461-1.263.98-.176.163-.185.18-.074.154.068-.015.604-.152 1.19-.304 1.116-.288 1.648-.374 1.708-.276.019.03-.004.175-.05.322-.162.515.043.686.458.38z"
     fill="#fdd6ae"
     stroke="#fdd6ae"
     stroke-width=".004"
     id="path124" />
  <path
     d="M8.471 61.948c-.165-.13-.371-.554-.372-.766 0-.17.128-.318.277-.317.28 0 .616.414.616.76 0 .194-.162.43-.295.43a.493.493 0 0 1-.226-.107z"
     fill="#fdd6ae"
     stroke="#fdd6ae"
     stroke-width=".004"
     id="path126" />
  <path
     d="M26.27 72.591a1.317 1.317 0 0 0-.093-.023c-.095-.021-.085-.054.037-.119.088-.046.146-.056.335-.056.2 0 .235.006.282.053.065.066.048.099-.072.132-.084.023-.43.033-.489.013z"
     fill="#9998c3"
     stroke="#9998c3"
     stroke-width=".076"
     id="path128" />
  <path
     d="M.174 76.787L.11 80.59l4.515.1"
     fill="none"
     stroke="#fdd6ae"
     stroke-width=".076"
     id="path130" />
  <path
     d="M2.16 80.588l-1.65-.044-.335-.006v-.786c0-.432.015-1.256.032-1.83l.033-1.045.178-.026c6.95-1.03 9.805-.736 11.422-.583 1.107.104 4.089.289 7.66.529 1.59.106 4.95 1.111 4.977 1.135.018.018-.77.05-4.878.202-11.153.41-16.03.67-16.35.868-.26.16.464.222 3.153.269 2.855.05 4.427.144 4.558.273.11.11-.605.315-1.636.47-1.128.17-4.82.571-5.478.596-.204.008-.963-.002-1.686-.022z"
     fill="#fdd6ae"
     stroke="#fdd6ae"
     stroke-width=".076"
     id="path132" />
  <path
     style="opacity:1;vector-effect:none;fill:#6f6f91;fill-opacity:1;stroke:#6f6f91;stroke-width:0.05;stroke-linecap:round;stroke-linejoin:miter;stroke-miterlimit:4;stroke-dasharray:none;stroke-dashoffset:0;stroke-opacity:1"
     d="m 75.334356,46.044666 c -0.09488,-0.05696 -0.131902,-0.113725 -0.185875,-0.284975 -0.06069,-0.192574 -0.0708,-0.307057 -0.08129,-0.921129 -0.01,-0.583234 -0.01541,-0.651071 -0.06635,-0.826288 -0.08323,-0.286308 -0.28056,-0.436795 -0.570539,-0.435106 -0.08966,5.22e-4 -0.120077,0.0059 -0.169889,0.02987 -0.21364,0.102931 -0.339194,0.386346 -0.472996,1.067704 -0.05339,0.271875 -0.171187,0.653107 -0.234349,0.758432 -0.06898,0.115029 -0.16405,0.200291 -0.267513,0.23992 -0.140008,0.05363 -0.245894,0.07036 -0.517736,0.08181 -0.361726,0.01524 -0.62222,0.05263 -1.279001,0.134062 -0.354831,0.044 -0.846447,0.09781 -0.902248,0.115516 -0.06849,0.02173 0.03862,-0.08827 0.142585,-0.14644 0.114252,-0.06392 0.252276,-0.116849 0.695507,-0.266704 0.22683,-0.07669 0.462519,-0.161166 0.523754,-0.187725 0.14003,-0.06074 0.299533,-0.166202 0.364125,-0.240768 0.11493,-0.132677 0.189324,-0.356151 0.218337,-0.655861 0.0073,-0.07558 0.01842,-0.36227 0.02467,-0.637082 0.02009,-0.882966 0.08849,-1.607061 0.213977,-2.265289 0.0336,-0.176251 0.137363,-0.510309 0.192232,-0.61888 0.619613,-1.226062 2.452707,-2.915656 4.029006,-3.713604 0.142042,-0.0719 0.385977,-0.180946 0.55113,-0.246363 l 0.296304,-0.117366 0.737537,-0.230563 0.312814,0.06067 0.259838,0.288204 c 0.145105,0.168178 0.368666,0.454584 0.448362,0.574403 0.08812,0.132475 0.171976,0.307743 0.205629,0.429761 0.04872,0.176648 0.03393,0.603736 -0.03342,0.964725 -0.0031,0.01669 -0.0089,0.04945 -0.01277,0.07281 -0.0039,0.02336 -0.03072,0.151686 -0.05959,0.28517 -0.207514,0.959647 -0.496043,2.035555 -0.751733,2.803164 -0.106357,0.319295 -0.449447,1.19778 -0.477864,1.203252 -0.03072,0.0059 0.02957,-0.478658 0.04436,-1.00785 0.02186,-0.781704 -0.0072,-1.097296 -0.117118,-1.270476 -0.04334,-0.06831 -0.09616,-0.102128 -0.184854,-0.118361 -0.120373,-0.02203 -0.208631,0.01613 -0.337585,0.145953 -0.141457,0.142413 -0.23918,0.309108 -0.407767,0.695569 -0.171693,0.393582 -0.502214,0.968116 -0.952911,1.656415 -0.239306,0.365467 -0.276072,0.427901 -0.407319,0.69169 -0.154225,0.309973 -0.26448,0.603281 -0.328431,0.873713 -0.02361,0.09985 -0.0323,0.17992 -0.04014,0.370115 -0.01059,0.256996 -0.02819,0.350513 -0.09013,0.478895 -0.0523,0.108405 -0.08012,0.143843 -0.133039,0.169462 -0.06609,0.03199 -0.123932,0.03184 -0.177735,-4.59e-4 z"
     id="path1584"
     inkscape:connector-curvature="0"
     sodipodi:nodetypes="cccccccccccccccscccccscccccscccscccccscccccccc" />
  <path
     style="opacity:1;vector-effect:none;fill:#6f6f91;fill-opacity:1;stroke:#6f6f91;stroke-width:0.37795276;stroke-linecap:round;stroke-linejoin:miter;stroke-miterlimit:4;stroke-dasharray:none;stroke-dashoffset:0;stroke-opacity:1"
     d="m 30.003964,44.750566 c -0.499366,-0.158343 -0.872078,-0.692864 -1.093184,-1.567778 -0.192787,-0.762856 -0.201377,-1.140566 -0.03358,-1.476366 0.203133,-0.406505 0.772042,-0.864549 1.112105,-0.895384 0.123166,-0.01117 0.146564,-0.0057 0.210112,0.04896 0.145984,0.125596 0.07603,0.348352 -0.230463,0.733849 -0.239331,0.301024 -0.326181,0.483108 -0.337518,0.707623 -0.0081,0.161069 -0.0013,0.192602 0.07855,0.36499 0.132439,0.285752 0.162256,0.455287 0.155831,0.886033 -0.0052,0.348819 -0.0022,0.376426 0.05117,0.471176 0.06081,0.107949 0.133464,0.154186 0.24228,0.154186 0.09862,0 0.225838,0.09567 0.265382,0.199569 0.07366,0.193522 -0.04878,0.408733 -0.230731,0.405553 -0.05108,-8.93e-4 -0.136564,-0.01548 -0.189958,-0.03241 z"
     id="path883"
     inkscape:connector-curvature="0" />
</svg>
