<?xml version="1.0" encoding="utf-8"?>
<!-- Generator: Adobe Illustrator 23.0.1, SVG Export Plug-In . SVG Version: 6.00 Build 0)  -->
<svg version="1.1" id="Layer_1" xmlns="http://www.w3.org/2000/svg" xmlns:xlink="http://www.w3.org/1999/xlink" x="0px" y="0px"
	 viewBox="0 0 385.95 91.2" style="enable-background:new 0 0 385.95 91.2;" xml:space="preserve">
<style type="text/css">
	.st0{opacity:0.5;}
	.st1{fill:#FFFFFF;}
</style>
<g>
	<g class="st0">
		<path class="st1" d="M299.71,91.2c-3.92,0-7.04-1.11-9.35-3.32c-2.32-2.21-3.48-5.02-3.48-8.43V60.83c0-2.84-0.19-4.97-0.56-6.39
			c-0.37-1.42-1.02-2.52-1.93-3.3c-0.91-0.78-2.39-1.54-4.42-2.29v-6.42c2.03-0.75,3.51-1.52,4.42-2.31
			c0.91-0.79,1.56-1.9,1.93-3.32c0.37-1.42,0.56-3.57,0.56-6.44V11.8c0-3.44,1.16-6.26,3.48-8.48c2.32-2.21,5.43-3.32,9.35-3.32
			h5.07v7.85h-2.96c-1.44,0-2.56,0.48-3.36,1.44s-1.21,2.35-1.21,4.17v17.18c0,1.59-0.07,2.95-0.2,4.08
			c-0.13,1.14-0.4,2.3-0.81,3.48c-0.4,1.18-0.97,2.2-1.71,3.05s-1.71,1.66-2.94,2.42s-2.71,1.41-4.44,1.95
			c1.73,0.54,3.21,1.19,4.44,1.95c1.23,0.76,2.21,1.57,2.94,2.42s1.3,1.87,1.71,3.05s0.67,2.34,0.81,3.48
			c0.13,1.14,0.2,2.48,0.2,4.04v17.36c0,1.88,0.36,3.26,1.08,4.13c0.72,0.87,1.88,1.3,3.5,1.3h2.96v7.85H299.71z"/>
		<path class="st1" d="M342.94,0h11.17v68.91h-10.63l-0.31-6.82c-1.32,2.45-3.3,4.37-5.94,5.76c-2.65,1.39-5.62,2.09-8.91,2.09
			c-2.96,0-5.76-0.55-8.39-1.66s-4.93-2.66-6.89-4.67c-1.96-2-3.51-4.5-4.67-7.49c-1.15-2.99-1.73-6.28-1.73-9.87
			s0.58-6.88,1.73-9.87c1.15-2.99,2.71-5.49,4.69-7.49c1.97-2,4.27-3.56,6.89-4.67c2.62-1.11,5.41-1.66,8.37-1.66
			c3.17,0,6.06,0.65,8.68,1.95c2.62,1.3,4.6,3.12,5.94,5.45V0z M321.56,56.64c2.47,2.62,5.56,3.93,9.26,3.93
			c3.71,0,6.8-1.34,9.26-4.02c2.47-2.68,3.7-6.11,3.7-10.3c0-4.19-1.24-7.62-3.72-10.29s-5.56-4.02-9.24-4.02
			c-3.71,0-6.8,1.31-9.26,3.93s-3.7,6.08-3.7,10.38S319.1,54.02,321.56,56.64z"/>
		<path class="st1" d="M366.21,91.2h-5.07v-7.85h2.96c1.62,0,2.78-0.43,3.5-1.3c0.72-0.87,1.08-2.24,1.08-4.13V60.56
			c0-1.55,0.07-2.9,0.2-4.04c0.13-1.14,0.4-2.29,0.81-3.48c0.4-1.18,0.97-2.2,1.7-3.05c0.73-0.85,1.71-1.66,2.94-2.42
			c1.23-0.76,2.71-1.41,4.44-1.95c-1.73-0.54-3.21-1.19-4.44-1.95s-2.21-1.57-2.94-2.42c-0.73-0.85-1.3-1.87-1.7-3.05
			c-0.4-1.18-0.67-2.34-0.81-3.48c-0.13-1.14-0.2-2.5-0.2-4.08V13.46c0-1.82-0.4-3.21-1.21-4.17c-0.81-0.96-1.93-1.44-3.37-1.44
			h-2.96V0h5.07c3.92,0,7.04,1.11,9.35,3.32c2.32,2.21,3.48,5.04,3.48,8.48v18.57c0,2.87,0.19,5.02,0.56,6.44
			c0.37,1.42,1.02,2.53,1.93,3.32c0.91,0.79,2.38,1.56,4.42,2.31v6.42c-2.03,0.75-3.51,1.51-4.42,2.29
			c-0.91,0.78-1.56,1.88-1.93,3.3c-0.38,1.42-0.56,3.55-0.56,6.39v18.62c0,3.41-1.16,6.22-3.48,8.43
			C373.25,90.1,370.13,91.2,366.21,91.2z"/>
	</g>
	<g>
		<path class="st1" d="M19.25,69.8c-5.17,0-9.48-1.08-12.92-3.23C2.89,64.42,0.78,61.28,0,57.15l9.47-2.69
			c0.6,2.48,1.75,4.33,3.45,5.54c1.7,1.21,3.81,1.82,6.33,1.82c2.06,0,3.81-0.42,5.23-1.26c1.42-0.84,2.12-2.2,2.09-4.08
			c-0.03-0.96-0.28-1.79-0.74-2.49c-0.46-0.7-1.22-1.31-2.27-1.82c-1.05-0.51-2.03-0.92-2.96-1.23c-0.93-0.31-2.26-0.72-3.99-1.21
			c-1.73-0.49-3.13-0.92-4.17-1.28c-1.29-0.42-2.42-0.84-3.39-1.26c-0.97-0.42-1.98-0.98-3.03-1.68c-1.05-0.7-1.9-1.47-2.56-2.31
			c-0.66-0.84-1.2-1.88-1.64-3.12c-0.43-1.24-0.65-2.61-0.65-4.1c0-4.4,1.6-7.72,4.8-9.98c3.2-2.26,7.34-3.39,12.43-3.39
			c4.64,0,8.52,0.98,11.66,2.94c3.14,1.96,5.1,4.97,5.88,9.04l-8.75,2.02c-1.17-4.25-4.08-6.37-8.75-6.37
			c-1.97,0-3.63,0.4-4.98,1.21c-1.35,0.81-2.02,2-2.02,3.59c0,0.45,0.05,0.86,0.16,1.23c0.1,0.37,0.3,0.73,0.58,1.05
			c0.28,0.33,0.56,0.61,0.83,0.85s0.66,0.49,1.17,0.74c0.51,0.25,0.94,0.46,1.3,0.61s0.9,0.33,1.62,0.54
			c0.72,0.21,1.28,0.37,1.68,0.47c0.4,0.11,1.02,0.26,1.86,0.47c0.84,0.21,1.46,0.37,1.88,0.49c1.67,0.45,3.1,0.88,4.28,1.3
			c1.18,0.42,2.49,1.02,3.93,1.79s2.59,1.64,3.45,2.58c0.87,0.94,1.61,2.16,2.22,3.66c0.61,1.5,0.92,3.17,0.92,5.02
			c0,1.97-0.32,3.75-0.96,5.34c-0.64,1.58-1.53,2.91-2.65,3.97c-1.12,1.06-2.46,1.94-4.02,2.65c-1.56,0.7-3.19,1.21-4.91,1.52
			C23.07,69.65,21.22,69.8,19.25,69.8z"/>
		<path class="st1" d="M83.81,63.41c-4.52,4.26-10.35,6.39-17.5,6.39c-7.15,0-12.98-2.13-17.5-6.39
			c-4.52-4.26-6.77-10.03-6.77-17.29c0-7.21,2.25-12.94,6.75-17.18c4.5-4.25,10.34-6.37,17.52-6.37c7.18,0,13.02,2.12,17.52,6.37
			c4.5,4.25,6.75,9.97,6.75,17.18C90.59,53.38,88.33,59.15,83.81,63.41z M66.18,60.79c3.92,0,7.11-1.35,9.58-4.04
			c2.47-2.69,3.7-6.24,3.7-10.63c0-4.37-1.23-7.9-3.7-10.59c-2.47-2.69-5.66-4.04-9.58-4.04c-3.8,0-6.92,1.35-9.35,4.04
			c-2.44,2.69-3.66,6.22-3.66,10.59c0,4.4,1.22,7.94,3.66,10.63C59.26,59.44,62.38,60.79,66.18,60.79z"/>
		<path class="st1" d="M128.57,23.46h11.22v45.44h-10.63l-0.31-5.61c-1.53,2.09-3.51,3.7-5.94,4.82c-2.44,1.12-5.18,1.68-8.23,1.68
			c-5.23,0-9.29-1.37-12.18-4.11c-2.89-2.74-4.33-6.62-4.33-11.64v-30.6h11.22v28.17c0,3.08,0.81,5.36,2.44,6.84
			c1.63,1.48,3.73,2.22,6.3,2.22c3.05,0,5.55-0.93,7.49-2.78c1.94-1.85,2.93-4.75,2.96-8.7V23.46z"/>
		<path class="st1" d="M161.7,30.91c1.17-2.21,3.12-4.09,5.85-5.63c2.74-1.54,5.69-2.33,8.86-2.35v10.14
			c-4.88,0-8.46,0.98-10.77,2.94c-2.3,1.96-3.45,5.32-3.45,10.07v22.83h-11.26V23.46h10.77V30.91z"/>
		<path class="st1" d="M202.65,69.76c-6.97,0-12.68-2.18-17.14-6.55c-4.46-4.37-6.68-10.06-6.68-17.09s2.23-12.71,6.68-17.05
			c4.46-4.34,10.17-6.5,17.14-6.5c5.59,0,10.33,1.41,14.22,4.24c3.89,2.83,6.42,6.8,7.58,11.91l-10.36,1.26
			c-0.81-2.78-2.22-4.89-4.24-6.33s-4.45-2.15-7.29-2.15c-3.71,0-6.73,1.35-9.06,4.04c-2.33,2.69-3.5,6.22-3.5,10.59
			c0,4.4,1.17,7.93,3.5,10.61c2.33,2.68,5.35,4.01,9.06,4.01c2.84,0,5.27-0.72,7.29-2.15s3.43-3.54,4.24-6.33l10.36,1.26
			c-1.17,5.11-3.72,9.1-7.65,11.96C212.87,68.33,208.15,69.76,202.65,69.76z"/>
		<path class="st1" d="M274.57,45.44l-0.18,2.78h-34.27c0.21,4.07,1.5,7.19,3.86,9.35c2.36,2.17,5.29,3.25,8.79,3.25
			c2.45,0,4.61-0.58,6.48-1.75c1.87-1.17,3.3-2.84,4.29-5.02l10.23,1.66c-1.53,4.43-4.16,7.88-7.9,10.36s-8.07,3.72-13.01,3.72
			c-7.21,0-12.96-2.09-17.27-6.28c-4.31-4.19-6.46-9.96-6.46-17.32c0-7.33,2.16-13.11,6.48-17.34c4.32-4.23,9.95-6.35,16.89-6.35
			c3.2,0,6.12,0.47,8.77,1.41c2.65,0.94,4.96,2.33,6.95,4.17c1.99,1.84,3.54,4.23,4.64,7.18C273.97,38.23,274.54,41.62,274.57,45.44
			z M252.54,30.6c-3.23,0-5.89,0.85-7.99,2.54c-2.09,1.69-3.46,4.22-4.08,7.6h22.97c-0.3-3.29-1.43-5.8-3.39-7.54
			C258.1,31.46,255.59,30.6,252.54,30.6z"/>
	</g>
</g>
</svg>
