<?xml version="1.0" encoding="UTF-8" standalone="no"?>
<!-- Created with Inkscape (http://www.inkscape.org/) -->

<svg
   xmlns:dc="http://purl.org/dc/elements/1.1/"
   xmlns:cc="http://creativecommons.org/ns#"
   xmlns:rdf="http://www.w3.org/1999/02/22-rdf-syntax-ns#"
   xmlns:svg="http://www.w3.org/2000/svg"
   xmlns="http://www.w3.org/2000/svg"
   xmlns:sodipodi="http://sodipodi.sourceforge.net/DTD/sodipodi-0.dtd"
   xmlns:inkscape="http://www.inkscape.org/namespaces/inkscape"
   id="svg4419"
   version="1.1"
   inkscape:version="0.91 r13725"
   width="244.22627"
   height="256.24802"
   viewBox="0 0 244.22627 256.24801"
   sodipodi:docname="forge.svg">
  <metadata
     id="metadata4425">
    <rdf:RDF>
      <cc:Work
         rdf:about="">
        <dc:format>image/svg+xml</dc:format>
        <dc:type
           rdf:resource="http://purl.org/dc/dcmitype/StillImage" />
        <dc:title></dc:title>
      </cc:Work>
    </rdf:RDF>
  </metadata>
  <defs
     id="defs4423" />
  <sodipodi:namedview
     pagecolor="#ffffff"
     bordercolor="#666666"
     borderopacity="1"
     objecttolerance="10"
     gridtolerance="10"
     guidetolerance="10"
     inkscape:pageopacity="0"
     inkscape:pageshadow="2"
     inkscape:window-width="1277"
     inkscape:window-height="669"
     id="namedview4421"
     showgrid="false"
     fit-margin-top="20"
     fit-margin-left="20"
     fit-margin-right="20"
     fit-margin-bottom="20"
     inkscape:zoom="2.2022196"
     inkscape:cx="122.10059"
     inkscape:cy="128.12404"
     inkscape:window-x="0"
     inkscape:window-y="0"
     inkscape:window-maximized="0"
     inkscape:current-layer="svg4419" />
  <path
     style="fill:none;fill-opacity:1;stroke:#ffffff;stroke-width:5;stroke-miterlimit:4;stroke-dasharray:none;stroke-opacity:1"
     d="m 92.94001,231.34964 c 4.66049,-2.96323 8.86611,-4.76786 14.56576,-6.25017 5.78989,-1.50577 15.83884,-1.91893 21.73066,-0.89345 7.44033,1.295 13.8078,3.81092 19.48758,7.69996 l 2.69005,1.84192 12.36583,0 c 12.30051,0 12.3693,-0.005 13.02222,-0.93713 0.52465,-0.74904 0.65639,-2.23192 0.65639,-7.38835 l 0,-6.45123 -1.65486,-1.79531 c -2.03551,-2.20827 -5.08123,-3.63856 -11.41639,-5.36121 -12.04441,-3.27512 -17.93407,-8.19079 -19.44142,-16.22638 -0.61489,-3.27796 -0.22334,-11.51922 0.69116,-14.54703 1.8291,-6.05602 6.40352,-11.98819 12.30587,-15.95846 11.11825,-7.47877 28.97179,-12.26103 50.71797,-13.58536 6.9539,-0.42348 7.88068,-0.56723 8.53848,-1.32432 0.65276,-0.75129 0.73789,-1.87891 0.73789,-9.77428 0,-7.3954 -0.1125,-9.08562 -0.65639,-9.86214 l -0.65639,-0.93712 -66.625,0 c -45.11996,0 -66.88826,0.14088 -67.44059,0.43648 -0.71815,0.38435 -0.81559,0.91325 -0.81559,4.42736 l 0,3.99087 -28.068337,0 -28.06835,0 0.28975,0.94872 c 1.76003,5.76279 7.17734,12.1007 14.52284,16.9908 6.14016,4.08767 13.34583,7.12392 21.32811,8.98702 4.41944,1.03152 13.516877,2.16753 17.358077,2.16753 l 2.63791,0 0,4.58655 c 0,5.23167 0.0516,5.32483 3.2866,5.93835 1.18186,0.22413 2.81184,0.68454 3.62219,1.02312 2.25346,0.94156 5.11235,3.82636 6.22011,6.2765 0.86489,1.91295 0.99507,2.84433 0.98576,7.05301 -0.014,6.35706 -0.91107,8.7953 -4.59056,12.4777 -3.20952,3.21207 -7.02336,5.10669 -14.28697,7.09742 -6.87875,1.88526 -8.650987,2.69202 -11.246127,5.11946 l -2.12208,1.98496 0,6.50565 c 0,3.67816 0.18971,6.86011 0.43649,7.32123 0.41628,0.77783 1.00785,0.81559 12.777967,0.81559 l 12.34148,0 z M 48.432653,123.48561 c 11.4795,-0.33739 22.540757,-0.61772 24.580557,-0.62295 l 3.70873,-0.01 -0.12468,-2.80896 -0.12468,-2.80897 -26.930997,-19.34749 c -14.81205,-10.64112 -26.9886,-19.28989 -27.059,-19.21949 -0.0704,0.0704 6.32069,7.97336 14.20242,17.56212 7.88173,9.58876 14.27109,17.49275 14.19858,17.56441 -0.0725,0.0717 -5.53954,2.25277 -12.14895,4.84691 -6.60942,2.59414 -12.30173,4.8818 -12.6496,5.0837 -0.81135,0.4709 -2.41931,0.48815 22.34762,-0.23975 z m 92.077627,-9.75044 18.49927,-6.16639 -0.27218,-2.37209 c -0.39275,-3.42287 -3.38291,-17.86015 -5.07614,-24.50888 -0.79731,-3.13077 -1.3191,-5.82232 -1.15954,-5.98123 0.15956,-0.1589 1.61831,-0.66078 3.24168,-1.11531 1.62336,-0.45451 13.00799,-3.899779 25.29918,-7.656129 12.29119,-3.75636 26.1425,-7.97204 30.78068,-9.3682 4.63818,-1.39614 8.79092,-2.72726 9.2283,-2.95803 0.69832,-0.36846 0.76555,-0.76088 0.5517,-3.22023 -0.39836,-4.58145 -2.26414,-10.89053 -4.63143,-15.66106 -1.88864,-3.80595 -2.35415,-4.44554 -3.31665,-4.55692 -0.61581,-0.0713 -4.31581,1.00893 -8.22224,2.40044 -34.26689,12.20625 -58.69128,20.84042 -59.41362,21.00308 -0.95179,0.21433 -0.82349,0.4476 -3.9881,-7.25114 -2.59993,-6.32502 -11.3656,-23.82344 -11.93394,-23.82308 -0.49472,3.2e-4 -37.0289,12.1466 -37.27482,12.39252 -0.20087,0.20087 1.85929,11.11439 3.51091,18.59867 3.3313,15.09572 6.91753,26.832609 11.84257,38.757939 4.55185,11.02168 12.69481,27.65242 13.53955,27.65242 0.16255,0 8.62022,-2.77487 18.79482,-6.16638 z M 99.69322,112.44802 C 98.51484,109.37721 50.962573,36.603291 50.962573,37.870711 c 0,0.86403 8.12424,43.084259 8.36684,43.480959 0.15238,0.24917 7.77193,7.50316 16.932337,16.11998 l 16.6553,15.66695 3.52375,0.008 c 3.1261,0.007 3.49313,-0.0715 3.25242,-0.69883 z M 51.199523,85.04316 51.647303,82.08758 39.821233,68.081581 c -9.38149,-11.1108 -11.88797,-13.84849 -12.12556,-13.24406 -0.16472,0.41907 -0.698,3.2132 -1.18507,6.20918 -0.72499,4.45943 -0.78653,5.54605 -0.33934,5.99205 2.91022,2.9025 23.83805,21.155509 24.15883,21.071029 0.23191,-0.0611 0.62315,-1.44105 0.86943,-3.06662 z"
     id="path4429"
     inkscape:connector-curvature="0"
     sodipodi:nodetypes="sssscssscssssssssscssscccsssscsssssssscssscssscccscsssssscssssssssssssssssssscssscsccscssssss" />
</svg>
