<?xml version="1.0" encoding="UTF-8" standalone="no"?>
<!-- Created with Inkscape (http://www.inkscape.org/) -->

<svg
   xmlns:dc="http://purl.org/dc/elements/1.1/"
   xmlns:cc="http://creativecommons.org/ns#"
   xmlns:rdf="http://www.w3.org/1999/02/22-rdf-syntax-ns#"
   xmlns:svg="http://www.w3.org/2000/svg"
   xmlns="http://www.w3.org/2000/svg"
   xmlns:sodipodi="http://sodipodi.sourceforge.net/DTD/sodipodi-0.dtd"
   xmlns:inkscape="http://www.inkscape.org/namespaces/inkscape"
   id="svg5756"
   version="1.1"
   inkscape:version="0.48.4 r9939"
   width="877.98871"
   height="883.45544"
   viewBox="0 0 877.98871 883.45544"
   sodipodi:docname="manual.svg">
  <metadata
     id="metadata5762">
    <rdf:RDF>
      <cc:Work
         rdf:about="">
        <dc:format>image/svg+xml</dc:format>
        <dc:type
           rdf:resource="http://purl.org/dc/dcmitype/StillImage" />
        <dc:title />
      </cc:Work>
    </rdf:RDF>
  </metadata>
  <defs
     id="defs5760" />
  <sodipodi:namedview
     pagecolor="#000000"
     bordercolor="#666666"
     borderopacity="1"
     objecttolerance="10"
     gridtolerance="10"
     guidetolerance="10"
     inkscape:pageopacity="0"
     inkscape:pageshadow="2"
     inkscape:window-width="1863"
     inkscape:window-height="1056"
     id="namedview5758"
     showgrid="false"
     fit-margin-top="40"
     fit-margin-left="40"
     fit-margin-right="40"
     fit-margin-bottom="40"
     inkscape:zoom="0.5975"
     inkscape:cx="144.37838"
     inkscape:cy="444.47849"
     inkscape:window-x="57"
     inkscape:window-y="24"
     inkscape:window-maximized="1"
     inkscape:current-layer="svg5756" />
  <path
     style="fill:#ffffff;fill-opacity:1;stroke:#ffffff;stroke-width:12.00000002;stroke-miterlimit:4;stroke-dasharray:none;stroke-opacity:1"
     d="m 357.18497,839.39918 c -5.66353,-1.3309 -12.14339,-4.9274 -23.74592,-13.1798 C 327.4851,821.98468 270.68273,772.80232 202.24267,712.62301 83.798603,608.47522 81.451103,606.34073 76.445893,598.2411 c -7.21531,-11.67611 -16.21814,-30.46479 -20.44848,-42.67548 -18.73454,-54.07635 -16.58684,-105.38748 7.22738,-172.67087 2.70729,-7.64902 5.32552,-15.14607 5.8183,-16.66011 0.69556,-2.13709 49.655487,-38.53616 218.895957,-162.73733 135.7694,-99.63763 218.84768,-159.989312 220.24727,-159.997202 1.236,-0.007 6.411,3.06092 11.5,6.81753 5.089,3.75661 72.25273,52.314582 149.25273,107.906592 81.03895,58.50804 143.05334,103.9591 147.25,107.92122 8.447,7.97493 8.77853,9.37103 4.32177,18.19981 -2.44557,4.84465 -4.80882,7.31649 -14.33748,14.99635 l -11.40925,9.19555 -0.71237,46.72514 -0.71238,46.72514 8.79985,8.31229 c 4.83992,4.57175 12.16364,11.09675 16.27492,14.5 16.72187,13.84204 18.18633,16.24628 14.27494,23.43541 -5.77094,10.60698 -13.45619,17.27166 -225.17001,195.2685 -116.76115,98.16609 -215.28258,180.85964 -218.9365,183.76344 -7.43121,5.9057 -18.83465,11.8305 -24.14349,12.5439 -1.925,0.2588 -5.18933,0.073 -7.25408,-0.4118 z m 13.84436,-10.9156 c 3.25034,-1.6521 9.35558,-5.8146 13.56719,-9.25 4.21161,-3.4354 102.76161,-86.2306 219,-183.98938 167.07162,-140.51054 212.44227,-179.1564 216.59253,-184.48942 2.8875,-3.71039 5.25,-7.22097 5.25,-7.80127 0,-0.5803 -2.35758,-2.83507 -5.23907,-5.01058 -2.8815,-2.17552 -10.01196,-8.32297 -15.84548,-13.66101 l -10.6064,-9.70552 -0.66767,16.19594 c -0.61895,15.01397 -0.83092,16.35048 -2.90453,18.31358 -1.23027,1.1647 -96.28685,82.10503 -211.23685,179.8674 -114.95,97.76237 -209.9169,178.82624 -211.03756,180.14194 -1.12067,1.3157 -2.31528,2.39218 -2.6547,2.39218 -0.98882,0 -270.168087,-227.91897 -271.646317,-230.00786 -4.18716,-5.91689 -13.37807,-37.98824 -16.81197,-58.66476 -2.43747,-14.6767 -2.44007,-45.26831 -0.005,-61.32738 2.27255,-14.98854 7.56276,-37.74127 13.13677,-56.5 4.31692,-14.52817 4.39803,-15.04718 2.5784,-16.5 -1.0333,-0.825 -5.10551,-4.16811 -9.04934,-7.42913 -5.69884,-4.71217 -7.3543,-5.6358 -8.06552,-4.5 -0.4922,0.78602 -2.74237,6.60413 -5.00038,12.92913 -24.81639,69.51415 -23.83447,129.18063 3.03628,184.5 12.73875,26.22551 0.91881,14.63877 135.834557,133.15467 66.17326,58.12949 124.67326,108.81307 130,112.63017 11.13049,7.976 18.3596,11.6914 22.77527,11.7054 1.69965,0 5.74965,-1.342 9,-2.9941 z m -4.70737,-121.49614 c 1.51555,-47.3 2.5599,-86.37864 2.3208,-86.84141 C 367.81813,618.55 98.261443,394.33172 97.764603,394.82855 c -0.27386,0.27386 -2.71186,8.27591 -5.41778,17.78233 -9.52562,33.46528 -12.91796,54.69865 -12.88945,80.67778 0.0306,27.87447 4.72013,52.3906 15.1495,79.19878 l 2.91778,7.5 132.707197,112.17836 132.7072,112.17835 0.31369,-5.67835 c 0.17253,-3.1231 1.55368,-44.37836 3.06922,-91.67836 z m 241.61709,-108.44507 180,-153.2513 0.62902,-24.65181 c 1.68538,-66.0514 1.94079,-108.45391 0.64714,-107.43484 -1.41314,1.11319 -369.01367,299.01638 -377.76242,306.13836 -10.29749,8.38276 -18.80302,10.58129 -29.61439,7.65479 -4.46308,-1.2081 -6.86458,-1.4449 -7.56368,-0.7458 -0.99685,0.99685 -5.73549,134.06386 -5.80419,162.98884 l -0.0315,13.25316 29.75,-25.35004 c 16.3625,-13.94253 110.75,-94.31314 209.75,-178.60136 z m -208.89625,18.6669 c 2.25706,-1.22201 19.13206,-14.45445 37.5,-29.40542 18.36794,-14.95097 109.8859,-89.20097 203.37324,-165 164.31765,-133.22785 174.3549,-141.6441 174.50656,-146.32406 0.009,-0.2792 -3.47105,-3.46572 -7.73355,-7.08115 C 795.71339,260.08914 510.29319,54.118248 508.26907,54.046568 507.35058,54.014048 410.68582,124.36911 293.45849,210.39115 122.40171,335.91352 80.576663,367.03483 81.628473,368.01027 c 4.67734,4.3377 266.653017,224.04001 270.954997,227.23269 2.94557,2.18603 9.53821,7.56019 14.65032,11.94258 5.1121,4.38239 11.1871,8.93687 13.5,10.12107 5.61493,2.87483 12.89081,2.83615 18.30901,-0.0973 z m 43.89625,-280.77175 c -59.95,-51.08643 -109.13106,-93.49924 -109.29124,-94.25067 -0.40101,-1.88113 156.62621,-124.19941 159.44213,-124.19941 2.48226,0 228.34911,174.95284 228.34911,176.87555 0,1.78575 -165.60775,134.63912 -167.71233,134.5417 -0.98322,-0.0455 -50.83767,-41.88074 -110.78767,-92.96717 z m 192.57862,23.16257 c 77.08641,-61.97179 80.02228,-64.45362 78.25625,-66.15359 -5.30441,-5.10599 -220.01811,-170.95392 -221.03039,-170.72702 -0.65753,0.14738 -35.46297,26.98752 -77.34542,59.64476 l -76.1499,59.37681 2.03884,2.03883 c 6.74061,6.74061 211.87859,180.57777 212.89575,180.41122 0.68406,-0.11201 37.28475,-29.17797 81.33487,-64.59101 z"
     id="path5766"
     inkscape:connector-curvature="0" />
</svg>
