<?xml version="1.0" encoding="UTF-8" standalone="no"?>
<svg
   xmlns:dc="http://purl.org/dc/elements/1.1/"
   xmlns:cc="http://creativecommons.org/ns#"
   xmlns:rdf="http://www.w3.org/1999/02/22-rdf-syntax-ns#"
   xmlns:svg="http://www.w3.org/2000/svg"
   xmlns="http://www.w3.org/2000/svg"
   xmlns:sodipodi="http://sodipodi.sourceforge.net/DTD/sodipodi-0.dtd"
   xmlns:inkscape="http://www.inkscape.org/namespaces/inkscape"
   viewBox="-0.2 -1 379.62958 333.61002"
   id="svg4295"
   version="1.1"
   inkscape:version="0.91 r13725"
   sodipodi:docname="octocat.svg"
   width="379.62958"
   height="333.61002">
  <metadata
     id="metadata4317">
    <rdf:RDF>
      <cc:Work
         rdf:about="">
        <dc:format>image/svg+xml</dc:format>
        <dc:type
           rdf:resource="http://purl.org/dc/dcmitype/StillImage" />
        <dc:title />
      </cc:Work>
    </rdf:RDF>
  </metadata>
  <defs
     id="defs4315" />
  <sodipodi:namedview
     pagecolor="#ffffff"
     bordercolor="#666666"
     borderopacity="1"
     objecttolerance="10"
     gridtolerance="10"
     guidetolerance="10"
     inkscape:pageopacity="0"
     inkscape:pageshadow="2"
     inkscape:window-width="1279"
     inkscape:window-height="672"
     id="namedview4313"
     showgrid="false"
     inkscape:zoom="2.0239343"
     inkscape:cx="220.86602"
     inkscape:cy="108.11852"
     inkscape:window-x="0"
     inkscape:window-y="0"
     inkscape:window-maximized="0"
     inkscape:current-layer="svg4295"
     fit-margin-top="0"
     fit-margin-left="0"
     fit-margin-right="0"
     fit-margin-bottom="0" />
  <path
     id="puddle"
     d="m 297.32053,294.93402 c 0,20.533 -47.56,37.176 -106.22,37.176 -58.67,0 -106.230005,-16.643 -106.230005,-37.176 0,-20.533 47.558005,-37.18 106.230005,-37.18 58.66,0 106.22,16.65 106.22,37.18 z"
     style="fill:#000000;fill-opacity:0;stroke:#ffffff;stroke-opacity:1;stroke-width:8;stroke-miterlimit:4;stroke-dasharray:none"
     inkscape:connector-curvature="0" />
  <g
     id="shadow-legs"
     style="fill:#7dbbe6"
     transform="translate(0.38052511,-0.49598125)" />
  <path
     style="fill:none;fill-opacity:1;stroke:#ffffff;stroke-opacity:1;stroke-width:8;stroke-miterlimit:4;stroke-dasharray:none"
     d="m 272.34459,-0.49598125 c -6.50375,0.1140149 -20.44282,2.66098425 -43.05468,17.79492225 -12.88401,-3.22 -26.59613,-4.810547 -40.32813,-4.810547 -15.109,0 -30.37428,1.924078 -44.61328,5.830078 C 110.4085,-4.8355281 95.424666,-0.09168435 95.424666,-0.09168435 85.644666,24.365316 91.691181,42.473816 93.528181,46.970816 c -11.495,12.406 -18.511719,28.244156 -18.511718,47.660156 0,14.657998 1.66814,27.807328 5.74414,39.236328 -19.511,-0.71 -50.323047,-0.43673 -80.37304664,5.57227 l 0.27539063,1.38867 c 30.23100001,-6.046 61.23690601,-6.25549 80.62890601,-5.52149 0.898,2.366 1.899484,4.66091 3.021484,6.87891 -19.177,0.618 -51.921734,3.06106 -83.3027338,11.91406 l 0.3867188,1.35938 c 31.629,-8.918 64.657437,-11.29986 83.648437,-11.88086 11.458,21.358 34.048331,35.15237 74.236331,39.48437 -5.704,3.833 -11.52286,10.34805 -13.88086,21.37305 -7.773,3.718 -32.37957,12.79239 -47.14258,-12.59961 0,0 -8.264031,-15.10801 -24.082031,-16.29101 0,0 -15.343594,-0.2345 -1.058594,9.5625 0,0 10.267563,4.83657 17.351562,23.01757 0,0 9.239982,31.0115 53.833993,21.0625 l 0,32.03125 c 0,0 -0.94113,11.33047 -11.32813,15.10547 0,0 -6.13739,4.24847 0.47461,6.60547 0,0 28.79102,2.36072 28.79102,-21.23828 l 0,-34.92773 c 0,0 -1.14094,-13.85297 5.66406,-18.66797 l 0,57.37109 c 0,0 -0.46978,13.68786 -7.55078,18.88086 0,0 -4.72389,8.49372 5.66211,6.13672 0,0 19.82453,-2.83194 20.76953,-25.96094 l 0.44922,-58.05859 4.76367,0 0.45312,58.05859 c 0.943,23.129 20.76758,25.96094 20.76758,25.96094 10.383,2.357 5.66407,-6.13672 5.66406,-6.13672 -7.08,-5.193 -7.55078,-18.88086 -7.55078,-18.88086 l 0,-56.875 c 6.801,5.296 5.66211,18.16992 5.66211,18.16992 l 0,34.92969 c 0,23.6 28.79297,21.23828 28.79297,21.23828 6.606,-2.357 0.47461,-6.60742 0.47461,-6.60742 -10.386,-3.775 -11.33008,-15.10352 -11.33008,-15.10352 l 0,-45.78711 c 0,-17.854 -7.51714,-27.30782 -14.86914,-32.29882 42.859,-4.25 63.42535,-18.0898 72.90235,-39.5918 18.773,0.516 52.55704,2.80197 84.87304,11.91797 l 0.38477,-1.35938 c -32.131,-9.063 -65.69325,-11.40698 -84.65625,-11.95898 0.898,-2.172 1.68292,-4.43186 2.3789,-6.75586 19.25,-0.8 51.38016,-0.78906 82.66016,5.46094 l -0.0449,-0.0215 0.2793,-1.38867 c -31.162,-6.231 -63.14033,-6.29423 -82.48633,-5.49023 3.178,-11.451 4.13281,-24.62732 4.13281,-39.320317 0,-21.073 -7.91653,-37.931766 -20.76953,-50.759766 2.246,-7.25 5.24591,-23.35089 -2.99609,-43.96289075 0,0 -1.42071,-0.45026245 -4.37696,-0.3984375 z M 228.78014,85.281363 c 11.95,-0.1335 22.17016,1.456609 29.78516,8.349609 l 0.006,0.0059 c 9.231,8.362998 14.63086,18.460798 14.63086,29.341798 0,50.804 -37.87293,52.18164 -84.58593,52.18164 -46.721,0 -84.58789,-7.03564 -84.58789,-52.18164 0,-10.809 5.32245,-20.84483 14.43945,-29.173829 15.208,-13.881 40.94744,-6.53125 70.14844,-6.53125 14.535,-0.002 28.21406,-1.858687 40.16406,-1.992187 z M 77.952009,177.19738 c 1.693058,0 3.068783,0.94787 3.070313,2.12695 0,0 0,0.002 0,0.002 -0.0015,1.17309 -1.377259,2.11914 -3.070313,2.11914 -1.693,0 -3.070312,-0.9471 -3.070312,-2.1211 0,-1.175 1.377312,-2.12695 3.070312,-2.12695 z m 8.5,4.71875 c 1.692115,0 3.067255,0.94878 3.070313,2.12695 0,0 0,0.002 0,0.002 0,0 0,0.002 0,0.002 -0.0031,1.17219 -1.378198,2.11914 -3.070313,2.11914 -1.693,0 -3.070312,-0.94905 -3.070312,-2.12305 0,-1.175 1.377312,-2.12695 3.070312,-2.12695 z m 5.19336,6.14062 c 1.692123,0 3.065315,0.94877 3.068359,2.12696 0,0 0,0.002 0,0.002 0,0 0,0.002 0,0.002 -0.0031,1.17219 -1.376253,2.11914 -3.068359,2.11914 -1.693,0 -3.070313,-0.94904 -3.070313,-2.12304 0,-1.175 1.377313,-2.12696 3.070313,-2.12696 z m 4.71875,7.08008 c 1.692123,0 3.067268,0.94877 3.070312,2.12696 0,0 0,0.002 0,0.002 0,0 0,0.002 0,0.002 -0.0031,1.17218 -1.378206,2.11914 -3.070312,2.11914 -1.693,0 -3.070313,-0.94904 -3.070313,-2.12304 0,-1.175 1.377313,-2.12696 3.070313,-2.12696 z m 5.187501,6.60938 c 1.69212,0 3.06726,0.94878 3.07032,2.12695 0,0 0,0.002 0,0.002 0,0 0,0.002 0,0.002 -0.003,1.17219 -1.3782,2.11914 -3.07032,2.11914 -1.693001,0 -3.068361,-0.94905 -3.068361,-2.12305 0,-1.175 1.37536,-2.12695 3.068361,-2.12695 z m 7.0918,5.66015 c 1.69212,0 3.0653,0.94878 3.06836,2.12696 0,0 0,0.002 0,0.002 0,0 0,0.002 0,0.002 -0.003,1.17219 -1.37624,2.11914 -3.06836,2.11914 -1.693,0 -3.07031,-0.94904 -3.07031,-2.12304 0,-1.175 1.37731,-2.12696 3.07031,-2.12696 z m 29.78906,2.14063 c 1.69213,0 3.06727,0.94877 3.07032,2.12695 0,0 0,0.002 0,0.002 0,0 0,0.002 0,0.002 -0.003,1.17218 -1.37821,2.11914 -3.07032,2.11914 -1.693,0 -3.07031,-0.94905 -3.07031,-2.12305 0,-1.175 1.37731,-2.12695 3.07031,-2.12695 z m -19.88086,1.64062 c 1.69306,0 3.06879,0.94787 3.07032,2.12696 0,0 0,0.002 0,0.002 -0.002,1.17309 -1.37726,2.11914 -3.07032,2.11914 -1.693,0 -3.06836,-0.94709 -3.06836,-2.12109 0,-1.175 1.37536,-2.12696 3.06836,-2.12696 z m 9.8711,0 c 1.69305,0 3.06878,0.94787 3.07031,2.12696 0,0 0,0.002 0,0.002 -0.002,1.17309 -1.37726,2.11914 -3.07031,2.11914 -1.693,0 -3.07032,-0.94709 -3.07031,-2.12109 0,-1.175 1.37731,-2.12696 3.07031,-2.12696 z"
     id="cat"
     inkscape:connector-curvature="0" />
  <path
     id="eyes"
     d="m 160.48053,125.56402 c 0,13.994 -7.88,25.336 -17.6,25.336 -9.72,0 -17.6,-11.342 -17.6,-25.336 0,-13.992 7.88,-25.33 17.6,-25.33 9.72,0.01 17.6,11.34 17.6,25.33 z m 94.43,0 c 0,13.994 -7.88,25.336 -17.6,25.336 -9.72,0 -17.6,-11.342 -17.6,-25.336 0,-13.992 7.88,-25.33 17.6,-25.33 9.72,0.01 17.6,11.34 17.6,25.33 z"
     style="fill:#ffffff;fill-opacity:1;stroke:#ffffff;stroke-opacity:1"
     inkscape:connector-curvature="0" />
  <g
     id="g4306"
     style="fill:#ad5c51"
     transform="translate(0.38052511,-0.49598125)">
    <path
       id="pupils"
       d="m 154.46,126.38 c 0,9.328 -5.26,16.887 -11.734,16.887 -6.474,0 -11.733,-7.559 -11.733,-16.887 0,-9.331 5.255,-16.894 11.733,-16.894 6.47,0 11.73,7.56 11.73,16.89 z m 94.42,0 c 0,9.328 -5.26,16.887 -11.734,16.887 -6.474,0 -11.733,-7.559 -11.733,-16.887 0,-9.331 5.255,-16.894 11.733,-16.894 6.47,0 11.73,7.56 11.73,16.89 z"
       style="fill:#000000;fill-opacity:1;stroke:#000000;stroke-opacity:1"
       inkscape:connector-curvature="0" />
    <circle
       id="nose"
       cx="188.5"
       cy="148.56"
       r="4.401"
       style="fill:#ffffff;fill-opacity:1" />
    <path
       id="mouth"
       d="m 178.23,159.69 c -0.26,-0.738 0.128,-1.545 0.861,-1.805 0.737,-0.26 1.546,0.128 1.805,0.861 1.134,3.198 4.167,5.346 7.551,5.346 3.384,0 6.417,-2.147 7.551,-5.346 0.26,-0.738 1.067,-1.121 1.805,-0.861 0.738,0.26 1.121,1.067 0.862,1.805 -1.529,4.324 -5.639,7.229 -10.218,7.229 -4.579,0 -8.68,-2.89 -10.21,-7.22 z"
       style="fill:#ffffff;fill-opacity:1;stroke:none;stroke-opacity:1"
       inkscape:connector-curvature="0" />
  </g>
  <path
     id="drop"
     d="m 69.749525,185.62402 -3.066,10.683 c 0,0 -0.8,3.861 2.84,4.546 3.8,-0.074 3.486,-3.627 3.223,-4.781 z"
     style="fill:#ffffff;fill-opacity:1"
     inkscape:connector-curvature="0" />
</svg>
