<svg xmlns="http://www.w3.org/2000/svg" width="399" height="169.735" viewBox="0 0 399.00006 169.73506"><path d="M99.3 169.679c-19.236-1.338-38.478-5.165-55.95-13.456-6.425-2.443-13.465-5.692-20.474-7.513-6.82-1.772-13.627-2.124-18.526-3.756-10.46-5.2 2.423-9.997 8.869-11.48 23.726-5.136 43.045 13.17 66.01 14.276 17.396 1.74 37.686 1.72 51.467-10.548 9.906-14.558-13.64-15.024-22.592-13.635-22.774-1.182-46.474.548-68.354-7.113C26.685 113 19.188 98.538 23.43 85.72c4.064-17.857 22.378-27.99 39.138-31.365 31.685-8.216 64.697-4.324 96.516.918 17.366 2.314 36.339 5.577 52.767-2.3-9.999-9.067-16.827-26.191-6.573-37.513C219.983-.927 244.514-.882 264.824.636c19.828 3.184 42.143 5.862 56.701 21.08 13.777 11.579 29.123 23.549 48.067 23.813 8.824 1.22 24.194-4.402 28.873.555-24.253 6.203-50.876 4.964-73.355-6.43-21.434-9.342-44.55-13.765-67.878-15.539-9.111-.144-21.034-.06-27.32 6.695 10.719 7.12 25.69 13.225 26.56 28.146.867 15.27-15.657 21.553-27.722 24.953-33.294 9.316-67.803 2.771-101.36-.87-19.5-.907-40.112-2.964-58.69 4.315-4.858 5.134 20.206 2.607 26.093 3.47 19.83.718 43.571-1.637 58.491 14.064 11.488 14.864 11.303 39.516-5.837 50.266-14.037 9.547-31.099 14.772-48.147 14.525z"/><path d="M141.747 125.366c-.48.283-.676.32-1.072.199-.43-.131-.547-.27-1.035-1.235l-.55-1.087-.77.35c-.987.452-2.516.715-3.856.666-1.448-.052-4.188-.79-7.368-1.98-1.401-.526-2.598-.93-2.658-.898-.06.032-.054.31.013.619.234 1.078.02 1.503-.814 1.625-.538.078-.718.052-.933-.138-.414-.365-.657-1.395-.505-2.145.073-.362.094-.703.047-.757-.047-.054-1.258-.346-2.69-.65-3.18-.675-7.027-1.837-8.096-2.447-.75-.428-.757-.43-.957-.171-.385.497-1.43 1.013-2.015.994-1.45-.047-2.726-1.476-2.692-3.016.015-.685.369-1.56.814-2.017.271-.28.275-.338.06-.925-1.67-4.565.783-13.422 4.448-16.061.427-.308.465-.377.426-.784-.15-1.609.267-2.48 1.498-3.134.756-.401 1.553-.505 2.252-.292.801.243 1.62 1.248 1.703 2.087.038.383.088.434.464.465 2.273.19 5.518.911 9.428 2.095 1.71.518 2.305.655 2.379.546.054-.08.197-.344.318-.588.27-.545.925-1.095 1.443-1.208.351-.078.437-.042.898.375.474.427.5.495.364.94-.08.264-.305.621-.499.794l-.352.314 3.247.936c2.526.728 3.52 1.068 4.474 1.532 2.276 1.106 4.038 2.525 4.94 3.98l.33.532.518-.344c.285-.189.807-.413 1.162-.498 1.024-.245 1.504.013 1.75.94.19.724-.039 1.04-1.156 1.589-1.458.717-1.392.625-1.27 1.767.41 3.798-1.1 9.214-3.39 12.173-.466.601-.475.628-.402 1.208.04.326.21.913.378 1.304.351.823.486 1.44.385 1.768-.039.126-.335.386-.658.577zm.41-1.215c-.034-.18-.217-.704-.406-1.167-.189-.463-.345-.967-.347-1.12-.004-.271-.21-.458-.274-.248-.017.057-.41.414-.874.793-.464.378-.825.769-.802.867.275 1.218 1.078 2.249 1.66 2.133.297-.059.293-.083-.083-.54-.504-.613-.491-.591-.372-.655.056-.03.236.12.4.332.295.383.689.59.903.476.172-.091.266-.511.196-.871zm5.524-19c-.053-.193-.156-.21-.732-.119-.368.059-.652.049-.63-.022.021-.07.27-.164.555-.207.78-.117.588-.574-.259-.616-.397-.02-1.94.7-2.012.938-.027.087.024.267.112.4.089.133.24.527.338.876l.177.635 1.182-.578c1.158-.566 1.403-.819 1.269-1.306zm-2.433 5.56c.067-1.767-.053-2.912-.438-4.195-1.137-3.788-4.734-6.236-11.545-7.857-1.4-.334-4.696-1.206-7.323-1.938-5.759-1.606-7.265-1.89-9.812-1.853-3.157.046-5.717 1.656-7.359 4.625-1.714 3.102-2.711 7.797-2.307 10.871.442 3.368 2.366 5.708 6.027 7.328 1.459.646 3.003 1.095 5.88 1.708 2.991.638 6.289 1.615 8.392 2.488 1.98.82 5.377 1.861 6.598 2.02 3.732.488 6.44-.696 8.629-3.772 1.26-1.77 1.656-2.656 2.475-5.533.64-2.246.74-2.746.783-3.893zm-24.73-3.237c-.308.276-.343.36-.254.613.056.162.054.455-.006.652-.144.473-.71.632-1.584.446-.584-.124-.731-.1-1.056.175-.77.651-1.967.13-2.157-.94-.045-.249-.216-.556-.38-.683-.989-.762-.318-3.054.89-3.044.279.002.568-.128.803-.361.75-.745 1.728-.767 2.229-.05.188.27.22.486.123.808l-.134.44.814.247c.614.187.845.317.942.532.217.48.15.826-.23 1.165zm-.516.692c-.149-.381-.244-.443-1.068-.693l-.904-.275-.036.374c-.097 1-.027 1.147.645 1.351.44.134.751.142 1.045.028.505-.197.526-.25.318-.785zm.627-1.588c-.048-.243-.198-.331-.953-.56-.97-.295-.986-.289-1.517.595-.174.29-.172.291.823.594 1.3.395 1.812.2 1.647-.629zm-1.707-1.814c-.08-.412-.314-.742-.589-.83-.289-.095-1.145.286-1.528.68-.282.29-.3.349-.179.605.283.6-.187 2.361-.704 2.637-.322.172-.332.522-.027.99.333.513.824.716 1.331.55.411-.134.577-.577.539-1.439a3.113 3.113 0 0 1 .726-2.16c.505-.608.512-.624.432-1.033zm-4.735 7.567c-1.074 1.708-3.149 2.199-4.915 1.163-.517-.304-.728-.548-1.13-1.307-.567-1.072-.651-1.99-.291-3.173.731-2.407 3.302-3.446 5.333-2.156 1.691 1.075 2.16 3.632 1.003 5.473zm.37-2.767c-.176-1.441-.974-2.454-2.232-2.831-1.925-.577-3.615.328-4.213 2.256-.68 2.19.173 4.069 2.111 4.658 2.453.745 4.666-1.34 4.333-4.083zm-3.1 3.414c-.62.3-1.239.087-1.576-.545-.498-.934.24-1.758 1.289-1.44 1.037.316 1.213 1.535.286 1.985zm-.084-1.616c-.13-.013-.263.06-.295.164-.032.104.038.24.154.3.148.078.236.03.295-.163s.012-.283-.154-.3zm5.27-8.248c-1.697 3.107-6.174 2.146-6.609-1.418-.099-.808.202-2.194.619-2.861.451-.72 1.358-1.317 2.296-1.509 1.075-.22 2.486.16 3.186.856 1.159 1.154 1.382 3.329.507 4.933zm.313-1.98c.131-1.562-.82-3.055-2.22-3.48-1.353-.411-2.604-.109-3.493.845-.494.53-.577.7-.813 1.664-.294 1.2-.232 1.895.254 2.828 1.135 2.177 4.028 2.384 5.474.391.513-.707.716-1.28.798-2.248zm-2.764 2.586c-.362.341-.69.411-1.21.258-1.122-.33-1.143-1.835-.03-2.04.647-.12 1.063.07 1.354.616.278.52.249.825-.114 1.166zm-.322-1.333c-.185-.144-.337-.087-.41.154-.03.094.063.206.204.249.291.088.447-.216.206-.403zm10.369 19.665c-.14-.858-.269-1-1.164-1.275-.628-.193-.686-.11-.69.975-.001.753.353 1.58.725 1.694.199.06.25.008.264-.27.02-.4.144-.41.28-.025.079.226.133.251.351.16.352-.148.385-.326.234-1.26zm7.837-25.71c-.118-.18-.2-.196-.441-.082-.402.19-.521.13-.238-.117.31-.27.19-.451-.284-.43-.44.018-1.135.635-1.491 1.323l-.236.456.775.151c1.075.21 1.088.206 1.553-.322.504-.573.55-.696.362-.98zm-22.182 20.214l-.58-.41-.362.253c-.65.452-1.607-.123-1.437-.864a2.54 2.54 0 0 1 .224-.543c.138-.245.086-.434-.284-1.05l-.452-.752-.334.403c-.375.455-.693 1.373-.657 1.9.04.571.546 1.546 1.021 1.965.872.766 1.932.805 2.857.104.288-.219.538-.442.554-.497.017-.054-.23-.283-.55-.509zm6.257-23.597c-.628-.68-1.365-.868-2.392-.608-1.36.343-2.118 1.37-2.003 2.714.027.318.084.588.126.6.218.067 1.182-.576 1.263-.842.22-.727 1.066-.97 1.59-.459.24.235.398.269 1.192.253l.915-.017-.13-.587c-.07-.323-.323-.796-.56-1.054zM99.833 52.18c.463-.394.667-.469 1.115-.413.486.061.637.19 1.34 1.135l.791 1.065.762-.519c.977-.667 2.57-1.233 4.019-1.429 1.565-.211 4.643.072 8.28.764 1.602.304 2.961.516 3.02.47.058-.045 0-.343-.128-.661-.451-1.115-.301-1.611.573-1.896.564-.184.762-.189 1.027-.025.513.315.964 1.376.94 2.21-.011.403.029.773.09.822.06.049 1.415.139 3.01.2 3.54.135 7.886.671 9.148 1.129.885.32.892.32 1.06.006.32-.605 1.348-1.353 1.979-1.44 1.566-.22 3.2 1.08 3.45 2.74.11.738-.107 1.744-.5 2.317-.24.35-.234.414.105 1.004 2.639 4.594 1.645 14.56-1.802 18.073-.402.41-.43.49-.313.922.46 1.699.173 2.712-1.028 3.642-.737.571-1.575.83-2.365.731-.905-.113-1.971-1.04-2.215-1.926-.111-.405-.174-.45-.584-.414-2.477.217-6.095.043-10.514-.504-1.932-.24-2.596-.276-2.656-.146a7.896 7.896 0 0 0-.232.69c-.189.636-.792 1.348-1.327 1.566-.363.148-.461.125-1.034-.237-.587-.371-.628-.439-.564-.943.037-.298.212-.723.388-.944l.32-.402-3.66-.404c-2.848-.315-3.979-.496-5.09-.818-2.649-.766-4.803-1.963-6.042-3.36l-.453-.51-.492.465c-.27.256-.79.594-1.155.75-1.056.454-1.619.266-2.054-.686-.339-.74-.15-1.122.947-1.919 1.433-1.04 1.38-.93 1.036-2.133-1.142-4.003-.524-10.1 1.388-13.701.389-.732.393-.763.208-1.372-.105-.343-.396-.942-.648-1.331-.53-.818-.788-1.456-.74-1.827.018-.143.288-.477.6-.741zm-.216 1.38c.07.186.364.716.653 1.178.288.462.549.975.58 1.14.053.29.31.452.34.214.008-.064.364-.52.792-1.013.428-.492.743-.978.7-1.08-.52-1.257-1.574-2.216-2.178-1.983-.307.118-.298.143.19.565.655.565.637.543.52.634-.054.042-.275-.085-.49-.282-.388-.357-.85-.507-1.058-.345-.168.13-.191.599-.05.972zm-2.414 21.428c.093.198.206.197.808-.008.385-.13.692-.172.682-.092-.01.08-.261.226-.559.324-.815.271-.525.726.392.614.43-.052 1.954-1.11 1.988-1.38.012-.098-.075-.282-.195-.408-.12-.126-.356-.521-.525-.878l-.307-.65-1.163.84c-1.138.822-1.355 1.139-1.12 1.638zm1.583-6.42c.256 1.91.597 3.117 1.247 4.422 1.923 3.859 6.24 5.822 13.855 6.302 1.566.098 5.267.425 8.224.725 6.481.658 8.152.684 10.88.173 3.382-.634 5.834-2.837 7.047-6.33 1.267-3.65 1.468-8.876.465-12.103-1.098-3.535-3.598-5.691-7.83-6.754-1.686-.423-3.428-.62-6.631-.745-3.331-.131-7.053-.57-9.474-1.118-2.278-.515-6.119-1.003-7.46-.948-4.099.167-6.787 1.94-8.568 5.649-1.025 2.134-1.287 3.16-1.634 6.4-.271 2.53-.287 3.087-.12 4.326zm27.159-1.104c.28-.353.303-.45.16-.706-.09-.163-.142-.479-.114-.7.067-.535.644-.811 1.618-.773.65.025.804-.028 1.102-.383.706-.843 2.088-.505 2.49.609.094.259.335.558.536.664 1.202.634.906 3.22-.394 3.434-.3.049-.586.242-.795.536-.668.939-1.714 1.143-2.384.466-.252-.255-.328-.481-.282-.845l.062-.497-.92-.115c-.694-.086-.966-.183-1.11-.396-.322-.475-.313-.86.031-1.294zm.427-.839c.23.382.343.43 1.274.547l1.022.128-.03-.409c-.08-1.091-.183-1.237-.942-1.332-.498-.062-.834-.013-1.128.164-.505.305-.519.366-.196.902zm-.38 1.821c.097.252.274.32 1.127.426 1.097.137 1.113.127 1.52-.92.133-.344.13-.345-.994-.486-1.47-.184-1.984.12-1.653.98zm2.169 1.633c.163.427.475.738.786.783.329.047 1.177-.52 1.516-1.014.25-.364.257-.43.08-.683-.415-.593-.236-2.57.268-2.963.314-.244.26-.622-.154-1.069-.452-.488-1.018-.615-1.532-.343-.416.22-.512.727-.312 1.645a3.393 3.393 0 0 1-.38 2.454c-.43.747-.434.766-.272 1.19zm3.685-9.004c.837-2.033 2.974-2.945 5.063-2.159.611.23.883.453 1.455 1.194.807 1.046 1.068 2.017.9 3.355-.34 2.72-2.908 4.312-5.328 3.302-2.015-.84-2.992-3.5-2.09-5.692zm.115 3.04c.455 1.516 1.5 2.456 2.92 2.627 2.175.264 3.822-1.021 4.108-3.202.324-2.477-.939-4.338-3.13-4.612-2.772-.347-4.763 2.303-3.898 5.187zm2.697-4.24c.61-.438 1.314-.323 1.793.293.708.91.069 1.933-1.117 1.784-1.173-.146-1.588-1.422-.676-2.078zm.39 1.72c.142-.01.27-.114.286-.231.014-.118-.085-.25-.221-.294-.174-.057-.26.012-.287.23-.027.219.039.306.221.294zm-4.133 9.833c1.247-3.65 6.233-3.447 7.36.3.255.85.19 2.394-.135 3.188-.351.857-1.215 1.665-2.186 2.045-1.114.435-2.7.29-3.58-.33-1.459-1.023-2.102-3.318-1.459-5.203zm.03 2.185c.149 1.702 1.447 3.129 3.028 3.327 1.53.19 2.818-.366 3.595-1.554.433-.662.49-.86.566-1.938.094-1.343-.102-2.078-.797-2.99-1.622-2.128-4.768-1.815-5.951.593-.42.854-.533 1.508-.44 2.562zm2.49-3.29c.326-.433.665-.569 1.252-.5 1.266.147 1.567 1.759.409 2.185-.673.248-1.154.122-1.568-.41-.395-.508-.42-.84-.094-1.274zm.592 1.373c.226.121.379.032.413-.241.013-.106-.107-.21-.266-.23-.33-.04-.44.315-.147.471zm-14.777-19.2c.309.896.474 1.025 1.486 1.154.71.092.758-.008.56-1.175-.137-.809-.671-1.632-1.092-1.685-.225-.028-.27.037-.233.339.053.433-.08.468-.296.079-.127-.23-.19-.246-.407-.107-.35.224-.353.422-.018 1.395zm-3.656 29.065c.16.17.251.172.489.005.396-.278.535-.237.277.081-.283.348-.121.52.385.41.47-.101 1.101-.892 1.356-1.697l.169-.534-.86-.018c-1.193-.026-1.207-.02-1.608.634-.435.708-.461.849-.208 1.119zm20.08-25.819l.699.334.342-.339c.613-.606 1.748-.166 1.702.661-.008.15-.07.431-.14.625-.102.289-.012.482.5 1.076l.625.723.284-.495c.319-.557.49-1.602.354-2.162-.148-.606-.873-1.56-1.46-1.92-1.079-.662-2.225-.508-3.088.416-.27.289-.496.575-.504.636-.007.062.3.262.685.445zm-2.35 26.502c.8.614 1.626.68 2.68.21 1.399-.62 2.022-1.863 1.65-3.285-.089-.337-.2-.617-.247-.623-.246-.03-1.163.84-1.2 1.14-.103.821-.965 1.24-1.623.787-.302-.208-.478-.215-1.327-.052l-.98.189.248.606c.137.334.495.795.798 1.028zM208.026 62.28c.181-.548.309-.71.7-.885.424-.191.61-.162 1.647.258l1.168.473.36-.798c.464-1.024 1.476-2.27 2.553-3.144 1.165-.945 3.801-2.236 7.09-3.472 1.45-.544 2.658-1.044 2.683-1.11.024-.066-.17-.279-.431-.474-.917-.68-1.04-1.157-.472-1.82.366-.427.524-.53.82-.528.572.003 1.462.64 1.854 1.328.19.332.405.612.479.622.073.01 1.216-.587 2.539-1.325 2.937-1.64 6.726-3.352 7.975-3.604.876-.177.882-.181.862-.518-.039-.65.425-1.763.893-2.147 1.162-.95 3.129-.705 4.15.518.455.544.776 1.467.74 2.126-.021.402.016.451.582.762 4.41 2.42 8.528 10.992 7.468 15.544-.123.53-.105.61.202.901 1.212 1.151 1.48 2.114.966 3.462-.316.827-.867 1.45-1.556 1.76-.79.356-2.113.13-2.748-.467-.29-.273-.363-.278-.678-.047-1.9 1.4-4.92 3.047-8.773 4.786-1.686.76-2.242 1.059-2.226 1.194.012.1.081.403.153.675.161.608.024 1.483-.302 1.924-.221.3-.312.33-.956.319-.66-.01-.726-.046-.923-.485a2.126 2.126 0 0 1-.152-.958l.06-.484-3.167 1.48c-2.464 1.152-3.47 1.564-4.53 1.852-2.526.688-4.864.781-6.558.262l-.62-.19-.17.62a4.493 4.493 0 0 1-.565 1.179c-.632.889-1.181 1.014-2.004.458-.641-.433-.677-.835-.18-2.024.647-1.551.658-1.435-.215-2.241-2.903-2.682-5.415-7.93-5.644-11.795-.046-.785-.058-.812-.51-1.215-.253-.226-.786-.568-1.182-.759-.833-.402-1.358-.79-1.503-1.115-.056-.125-.002-.53.12-.898zm.507 1.226c.15.115.649.4 1.111.633.462.232.927.519 1.033.637.187.209.475.213.382.006-.025-.057.038-.602.141-1.213.104-.61.12-1.16.035-1.222-1.043-.762-2.371-1.019-2.747-.532-.19.248-.17.264.434.365.81.134.785.125.735.256-.023.062-.265.068-.537.014-.49-.097-.94.009-1.028.244-.072.188.14.58.44.812zm8.63 18.566c.173.114.264.058.651-.406.247-.296.475-.481.507-.412.031.07-.1.313-.293.54-.527.622-.067.848.621.304.323-.255 1.036-1.866.93-2.1-.039-.087-.2-.193-.36-.236-.159-.043-.546-.247-.86-.453l-.57-.374-.527 1.255c-.517 1.229-.536 1.593-.1 1.882zm-1.89-5.988c1.152 1.422 2.025 2.233 3.197 2.97 3.465 2.178 7.935 1.637 14.347-1.736 1.318-.694 4.48-2.258 7.026-3.475 5.58-2.67 6.948-3.473 8.907-5.236 2.429-2.185 3.328-5.182 2.586-8.613-.776-3.585-3.195-7.923-5.602-10.043-2.637-2.323-5.73-2.837-9.686-1.608-1.576.49-3.085 1.192-5.745 2.672-2.765 1.54-6 3.023-8.233 3.775-2.102.708-5.457 2.21-6.517 2.917-3.24 2.16-4.545 4.926-4.156 8.813.223 2.237.517 3.197 1.837 5.997 1.03 2.185 1.293 2.644 2.04 3.567zm21.476-14.312c.053-.426.023-.515-.22-.653-.154-.087-.351-.317-.438-.511-.21-.466.122-.975.93-1.426.54-.3.638-.42.704-.855.157-1.032 1.444-1.44 2.32-.736.204.163.547.287.762.273 1.289-.079 2.326 2.164 1.378 2.98-.219.187-.355.485-.38.827-.077 1.09-.825 1.773-1.703 1.555-.33-.082-.503-.228-.646-.545l-.195-.434-.802.361c-.606.273-.874.329-1.096.228-.496-.226-.679-.543-.614-1.064zm-.069-.892c.376.196.491.18 1.304-.186l.892-.401-.227-.317c-.604-.845-.76-.912-1.422-.614-.434.195-.683.401-.834.69-.259.497-.24.553.287.828zm.592 1.665c.203.156.38.123 1.124-.212.957-.431.965-.447.777-1.497-.061-.345-.064-.345-1.045.097-1.283.577-1.549 1.078-.856 1.612zm2.565.251c.344.266.75.364 1.025.247.29-.124.696-1.003.727-1.571.023-.418-.004-.476-.272-.593-.63-.276-1.461-1.968-1.246-2.535.134-.353-.097-.633-.653-.79-.609-.173-1.13.003-1.412.478-.229.384-.056.842.56 1.488.57.598.883 1.35.904 2.177.02.819.027.836.367 1.1zm-1.46-9.12c-.327-2.062.956-3.857 3.038-4.252.609-.116.94-.069 1.77.25 1.171.448 1.862 1.106 2.387 2.274 1.069 2.373-.228 4.933-2.689 5.31-2.049.314-4.155-1.36-4.507-3.582zm1.595 2.408c1.117 1.004 2.43 1.25 3.666.687 1.893-.861 2.594-2.716 1.747-4.626-.96-2.169-2.904-3.053-4.816-2.193-2.418 1.089-2.724 4.221-.597 6.132zm.091-4.771c.278-.656.907-.91 1.599-.648 1.024.388 1.01 1.533-.024 1.999-1.024.46-1.99-.37-1.575-1.351zm1.166 1.202c.11-.078.164-.226.118-.328-.046-.103-.192-.16-.324-.13-.17.04-.204.138-.119.329.086.19.183.229.325.129zm1.508 10.015c-.793-3.576 3.35-5.875 6.116-3.393.626.562 1.336 1.847 1.465 2.65.139.87-.162 1.952-.762 2.74-.688.902-2.046 1.568-3.066 1.501-1.688-.11-3.343-1.653-3.753-3.498zm1.104 1.756c.961 1.307 2.719 1.822 4.098 1.201 1.335-.6 2.104-1.688 2.148-3.036.024-.75-.027-.939-.5-1.85-.587-1.136-1.11-1.635-2.123-2.03-2.366-.925-4.762.883-4.532 3.42.081.9.313 1.486.909 2.295zm.393-3.897c.05-.512.259-.79.768-1.025 1.099-.505 2.14.653 1.411 1.57-.423.534-.875.67-1.474.442-.571-.216-.755-.474-.705-.986zm1.159.82c.242-.013.322-.161.215-.399-.042-.093-.19-.117-.329-.055-.287.13-.202.472.114.455zm-21.467-8.266c.692.574.89.597 1.774.202.621-.277.61-.382-.126-1.23-.511-.588-1.35-.992-1.718-.826-.196.088-.2.163-.022.39.257.324.167.418-.2.21-.216-.123-.276-.106-.383.114-.174.355-.078.517.675 1.14zm11.395 25.372c.215.06.288.015.399-.238.184-.42.317-.456.264-.07-.057.421.16.481.515.142.33-.315.452-1.268.261-2.046l-.126-.517-.708.41c-.979.569-.987.58-.99 1.309-.002.789.046.916.385 1.01zm3.524-30.854l.732-.075.11-.444c.197-.795 1.335-.998 1.707-.305.067.126.155.385.195.576.06.284.228.397.937.625l.864.278-.015-.541c-.016-.61-.394-1.542-.78-1.928-.42-.419-1.479-.834-2.134-.836-1.201-.004-2.054.687-2.297 1.863-.076.367-.118.711-.094.765.024.053.373.063.775.022zm11.188 22.648c.953.103 1.655-.253 2.278-1.154.827-1.194.718-2.51-.286-3.479-.238-.229-.466-.401-.508-.383-.215.097-.528 1.255-.41 1.517.323.717-.17 1.482-.927 1.44-.347-.02-.493.062-1.101.614l-.701.637.5.369c.275.203.794.4 1.155.44zM43.921 94.498c.577.234.799.242 1.217.045.453-.215.56-.388.94-1.532l.43-1.29.906.263c1.164.336 2.894.378 4.366.105 1.59-.294 4.493-1.554 7.808-3.387 1.462-.809 2.716-1.45 2.788-1.424.071.026.11.334.087.685-.082 1.228.222 1.663 1.163 1.66.607 0 .802-.06 1.007-.303.398-.47.498-1.646.208-2.45-.14-.388-.219-.76-.175-.828.044-.067 1.332-.587 2.863-1.156 3.4-1.262 7.456-3.173 8.537-4.02.759-.596.766-.598 1.029-.345.505.485 1.743.884 2.385.768 1.593-.287 2.768-2.073 2.48-3.767-.129-.754-.661-1.663-1.227-2.094-.346-.264-.36-.329-.218-1.01 1.1-5.311-3.052-14.688-7.527-17.003-.522-.27-.574-.34-.599-.796-.096-1.8-.698-2.694-2.163-3.214-.9-.32-1.797-.304-2.534.044-.844.4-1.585 1.642-1.539 2.582.021.429-.026.492-.436.589-2.478.58-5.942 1.905-10.064 3.85-1.803.85-2.438 1.097-2.537.99a8.19 8.19 0 0 1-.447-.598c-.386-.558-1.2-1.057-1.79-1.098-.4-.028-.489.025-.93.56-.453.55-.47.628-.248 1.097.132.279.438.636.68.795l.439.289-3.431 1.563c-2.669 1.215-3.71 1.753-4.688 2.42-2.332 1.591-4.045 3.445-4.804 5.198l-.277.641-.628-.295a4.845 4.845 0 0 0-1.363-.36c-1.171-.104-1.658.26-1.778 1.323-.093.83.212 1.14 1.534 1.564 1.727.554 1.64.464 1.69 1.744.168 4.258 2.716 9.99 5.727 12.883.612.587.626.615.64 1.268.008.367-.084 1.042-.204 1.501-.254.965-.302 1.668-.137 2.013.063.134.433.372.82.53zm-.65-1.274c.009-.203.125-.813.258-1.354.133-.542.223-1.124.2-1.294-.04-.3.157-.539.262-.317.029.06.521.39 1.094.732.574.342 1.036.714 1.027.827-.105 1.388-.823 2.658-1.485 2.625-.337-.017-.336-.044.004-.61.456-.76.446-.732.304-.783-.067-.024-.24.17-.387.43-.263.471-.665.765-.92.674-.204-.073-.377-.521-.358-.93zm-9.194-20.07c.027-.222.137-.257.788-.25.416.004.728-.053.693-.128-.036-.075-.327-.136-.647-.137-.88-.003-.743-.538.185-.723.435-.086 2.255.456 2.374.707.043.092.017.3-.06.46-.075.16-.178.62-.229 1.022l-.092.73-1.399-.445c-1.37-.436-1.682-.675-1.613-1.235zm3.591 5.74c-.361-1.94-.416-3.223-.2-4.701.637-4.367 4.208-7.655 11.462-10.555 1.491-.596 4.986-2.096 7.767-3.333 6.093-2.71 7.71-3.27 10.527-3.644 3.491-.464 6.58.895 8.876 3.905 2.398 3.144 4.264 8.164 4.32 11.622.06 3.79-1.683 6.686-5.459 9.07-1.505.952-3.136 1.698-6.211 2.845-3.198 1.191-6.678 2.807-8.858 4.113-2.05 1.23-5.63 2.931-6.952 3.306-4.04 1.147-7.222.282-10.139-2.756-1.679-1.749-2.26-2.662-3.634-5.704-1.072-2.374-1.265-2.91-1.499-4.169zm26.767-7.605c.386.254.438.341.382.636-.036.188.014.51.112.718.236.498.886.582 1.821.234.624-.232.79-.23 1.194.021.956.594 2.192-.176 2.228-1.388.008-.282.147-.65.308-.817.967-1.001-.148-3.422-1.48-3.214-.307.048-.647-.049-.945-.268-.949-.7-2.032-.564-2.467.31-.164.328-.165.571-.005.91l.22.464-.858.405c-.647.307-.881.488-.953.74-.162.566-.03.937.443 1.25zm.684.68c.101-.445.196-.528 1.064-.94l.953-.45.101.407c.27 1.087.217 1.262-.491 1.597-.464.219-.806.279-1.15.2-.588-.134-.62-.19-.477-.814zm-.952-1.65c.013-.276.165-.398.96-.774 1.023-.484 1.042-.48 1.772.41.24.291.238.293-.811.79-1.372.648-1.968.516-1.921-.426zm1.588-2.28c.022-.468.227-.87.515-1.014.304-.15 1.31.13 1.798.503.358.273.387.336.296.638-.215.71.591 2.576 1.207 2.796.384.137.451.522.192 1.089-.284.62-.794.923-1.38.823-.476-.081-.73-.543-.83-1.5a3.473 3.473 0 0 0-1.153-2.265c-.657-.59-.667-.607-.645-1.07zm6.46 7.58c1.464 1.71 3.834 1.913 5.615.481.52-.419.714-.723 1.033-1.626.451-1.276.395-2.303-.195-3.55-1.2-2.537-4.207-3.265-6.238-1.51-1.691 1.462-1.792 4.361-.214 6.204zm-.859-2.995c-.041-1.619.675-2.867 2.002-3.488 2.03-.95 4.043-.227 5.017 1.803 1.107 2.306.473 4.519-1.57 5.485-2.586 1.223-5.369-.718-5.449-3.8zm3.979 3.263c.732.231 1.38-.106 1.65-.858.397-1.112-.552-1.902-1.658-1.379-1.094.518-1.09 1.891.008 2.237zm-.172-1.797c.142-.036.3.024.352.133.052.11-.002.27-.12.356-.151.11-.256.071-.353-.132-.096-.204-.06-.31.121-.357zm-7.16-8.244c2.378 3.153 7.163 1.362 7.062-2.644-.023-.907-.58-2.388-1.15-3.056-.615-.722-1.714-1.232-2.78-1.291-1.222-.067-2.717.58-3.376 1.464-1.092 1.462-.984 3.9.244 5.527zm-.67-2.135c-.399-1.703.408-3.505 1.883-4.203 1.427-.674 2.857-.544 3.993.363.633.505.752.68 1.17 1.704.52 1.277.564 2.054.18 3.163-.898 2.588-4.058 3.288-5.978 1.324-.681-.696-1-1.296-1.247-2.35zm3.473 2.404c.456.318.83.341 1.378.087 1.184-.548.962-2.211-.3-2.256-.734-.026-1.162.25-1.394.9-.222.62-.14.952.316 1.27zm.138-1.524c.18-.19.358-.151.478.103.047.099-.036.237-.185.308-.307.145-.528-.165-.293-.411zm-8.238 23.395c.014-.97.133-1.148 1.076-1.597.662-.316.74-.234.92.964.125.83-.13 1.802-.523 1.988-.21.099-.275.05-.335-.255-.087-.438-.227-.43-.313.017-.05.264-.106.3-.362.234-.413-.105-.478-.297-.463-1.351zm-12.842-27.1c.101-.218.189-.248.474-.162.474.144.596.06.243-.167-.386-.248-.284-.467.243-.522.49-.05 1.357.516 1.862 1.218l.335.465-.832.293c-1.151.406-1.166.405-1.766-.103-.649-.55-.72-.678-.56-1.022zm27.778 18.696l.573-.548.442.22c.79.394 1.753-.397 1.444-1.187a2.839 2.839 0 0 0-.335-.563c-.192-.248-.166-.465.142-1.206l.377-.903.434.39c.489.44.989 1.403 1.035 1.99.05.637-.35 1.796-.807 2.335-.837.988-2.001 1.204-3.136.581-.354-.194-.666-.4-.693-.458-.027-.057.209-.35.524-.651zM66.889 54.557c.582-.853 1.365-1.18 2.541-1.061 1.558.157 2.561 1.166 2.653 2.669.022.355.004.663-.04.684-.23.108-1.4-.445-1.532-.725-.362-.766-1.335-.898-1.83-.247-.227.298-.396.361-1.274.474l-1.012.13.047-.669c.025-.368.226-.932.447-1.255zM155.494 83.425c.382.473.568.585 1.019.613.489.03.661-.067 1.527-.865l.976-.9.652.652c.837.837 2.296 1.69 3.683 2.151 1.498.5 4.576.793 8.277.79 1.632-.001 3.007.043 3.056.099.049.056-.063.338-.25.627-.65 1.011-.595 1.527.211 1.969.52.285.714.327 1.005.216.562-.215 1.203-1.173 1.334-1.997.064-.398.172-.754.242-.79.069-.037 1.416.126 2.994.363 3.504.525 7.874.807 9.198.592.93-.15.937-.15 1.043.19.202.655 1.073 1.58 1.677 1.785 1.498.506 3.345-.466 3.898-2.051.246-.705.22-1.734-.06-2.37-.17-.389-.152-.45.29-.967 3.448-4.022 4.326-14 1.592-18.093-.319-.477-.33-.562-.136-.964.767-1.584.675-2.633-.332-3.77-.619-.698-1.393-1.108-2.188-1.158-.91-.057-2.13.656-2.535 1.481-.184.377-.255.409-.651.297-2.393-.673-5.98-1.175-10.424-1.46-1.943-.123-2.602-.211-2.636-.35a7.918 7.918 0 0 1-.1-.722c-.067-.66-.528-1.47-1.013-1.785-.329-.213-.43-.209-1.06.04-.646.256-.698.315-.73.822-.018.3.074.75.206 1l.24.455-3.672-.284c-2.856-.22-4.001-.253-5.152-.144-2.746.26-5.085 1.036-6.562 2.177l-.54.418-.397-.549a4.733 4.733 0 0 0-.996-.952c-.952-.641-1.54-.561-2.145.292-.471.665-.357 1.075.573 2.062 1.215 1.29 1.183 1.17.622 2.29-1.867 3.72-2.394 9.825-1.185 13.72.245.79.244.821-.051 1.386-.167.318-.564.852-.884 1.187-.673.705-1.045 1.284-1.068 1.657-.009.144.195.522.452.84zm.045-1.396c.104-.17.491-.636.86-1.036.37-.4.721-.856.782-1.012.106-.275.39-.387.374-.148-.004.065.262.58.59 1.143.329.563.548 1.1.488 1.192-.746 1.138-1.96 1.884-2.51 1.543-.28-.173-.266-.196.292-.52.748-.433.727-.415.63-.526-.046-.051-.287.032-.535.186-.447.279-.93.34-1.104.142-.14-.16-.077-.624.133-.964zm1.614-21.503c.129-.177.24-.155.793.158.353.2.647.298.652.218.005-.08-.215-.271-.488-.423-.751-.418-.382-.811.499-.53.413.131 1.713 1.454 1.696 1.725-.006.099-.126.263-.267.365-.141.102-.447.446-.68.765l-.422.581-.986-1.041c-.966-1.02-1.12-1.371-.797-1.818zm.361 6.603c.607-1.829 1.166-2.952 2.048-4.114 2.607-3.433 7.213-4.56 14.785-3.614 1.557.194 5.254.562 8.215.817 6.491.56 8.138.844 10.723 1.854 3.205 1.252 5.205 3.873 5.747 7.53.566 3.821-.21 8.995-1.795 11.978-1.736 3.269-4.594 4.923-8.95 5.18-1.735.102-3.483-.03-6.654-.501-3.297-.491-7.036-.752-9.516-.664-2.334.082-6.199-.153-7.506-.456-3.996-.927-6.308-3.169-7.368-7.144-.61-2.288-.677-3.344-.415-6.593.204-2.537.293-3.087.686-4.273zm26.48 6.135c.21.4.213.5.026.725-.12.143-.229.443-.243.666-.034.538.483.917 1.447 1.06.643.097.784.178 1.01.582.538.96 1.958.884 2.561-.135.14-.238.432-.486.65-.553 1.299-.4 1.489-2.996.251-3.447-.285-.104-.53-.347-.68-.675-.482-1.047-1.473-1.442-2.257-.901-.295.204-.411.411-.434.777l-.032.5-.924-.058c-.698-.044-.984 0-1.165.183-.405.407-.468.786-.21 1.276zm.263.905c.297-.333.417-.36 1.354-.3l1.028.064-.105.396c-.283 1.057-.411 1.18-1.174 1.133-.5-.032-.822-.142-1.078-.371-.44-.393-.442-.455-.024-.922zm-.035-1.86c.142-.23.33-.263 1.187-.21 1.103.07 1.117.083 1.322 1.188.067.362.065.363-1.067.292-1.479-.093-1.926-.488-1.442-1.27zm2.435-1.201c.24-.39.605-.637.919-.623.33.014 1.059.73 1.3 1.278.178.404.173.47-.048.686-.518.505-.71 2.482-.288 2.961.263.298.14.659-.35 1.021-.535.396-1.115.416-1.569.053-.368-.294-.368-.81 0-1.675.34-.801.369-1.657.082-2.482-.283-.814-.284-.833-.046-1.22zm1.946 9.532c.444 2.154 2.375 3.446 4.573 3.063.644-.112.952-.281 1.652-.903.988-.877 1.425-1.782 1.51-3.128.171-2.736-2.057-4.778-4.623-4.236-2.136.451-3.59 2.883-3.112 5.204zm.679-2.966c.729-1.404 1.93-2.133 3.358-2.038 2.185.146 3.565 1.715 3.44 3.91-.143 2.495-1.73 4.089-3.933 3.95-2.788-.175-4.252-3.15-2.865-5.822zm1.861 4.669c.517.543 1.231.56 1.816.045.866-.763.427-1.886-.766-1.961-1.18-.074-1.824 1.102-1.05 1.916zm.702-1.618c.139.036.246.162.239.28-.007.118-.13.23-.272.248-.181.023-.252-.06-.238-.28.014-.22.094-.293.271-.248zm-2.23-10.43c.545 3.818 5.482 4.546 7.287 1.073.409-.786.63-2.317.46-3.157-.186-.907-.884-1.862-1.768-2.416-1.013-.634-2.598-.786-3.579-.342-1.623.735-2.682 2.87-2.4 4.841zm.435-2.142c.463-1.645 2.004-2.805 3.594-2.705 1.539.097 2.7.883 3.244 2.196.302.73.322.935.195 2.009-.158 1.337-.487 2.023-1.34 2.79-1.989 1.789-5.021.895-5.737-1.69-.253-.918-.242-1.58.044-2.6zm1.834 3.695c.24.487.549.683 1.138.725 1.27.09 1.867-1.437.808-2.071-.615-.369-1.111-.334-1.617.112-.483.425-.568.748-.329 1.234zm.838-1.238c.244-.077.378.04.36.314-.006.106-.143.186-.303.176-.331-.021-.374-.39-.057-.49zm-18.09 16.116c.47-.823.656-.918 1.674-.858.715.043.743.15.332 1.26-.286.769-.963 1.479-1.387 1.452-.226-.014-.258-.087-.165-.376.132-.416.009-.475-.276-.133-.168.202-.233.206-.42.03-.303-.286-.27-.48.242-1.375zm1.813-29.237c.19-.138.279-.123.482.085.338.347.482.332.287-.028-.213-.395-.022-.534.455-.332.442.188.916 1.082 1.016 1.92l.067.557-.85-.142c-1.176-.197-1.188-.205-1.46-.922-.296-.777-.296-.92.003-1.138zm14.927 29.103l.749-.198.273.396c.49.71 1.687.489 1.796-.333.02-.148.01-.436-.021-.64-.047-.302.077-.475.691-.963l.748-.595.187.539c.21.607.184 1.666-.054 2.19-.258.568-1.147 1.37-1.792 1.616-1.183.45-2.28.085-2.956-.984-.211-.334-.38-.657-.377-.719.005-.061.344-.2.756-.31zm2.62-26.477c.901-.454 1.725-.364 2.674.292 1.258.87 1.64 2.207 1.009 3.535-.15.315-.31.57-.358.566-.248-.015-.986-1.04-.967-1.343.052-.826-.718-1.397-1.448-1.075-.335.148-.51.122-1.314-.196l-.927-.367.356-.55c.196-.303.634-.69.975-.862zM94.34 119.517c-.425.4-.616.484-1.049.453-.469-.034-.62-.15-1.343-1.02l-.813-.983-.704.537c-.904.69-2.403 1.314-3.783 1.575-1.49.283-4.458.167-7.98-.311-1.554-.211-2.869-.345-2.922-.299-.054.047.016.33.156.629.49 1.046.37 1.53-.453 1.848-.532.205-.722.22-.985.076-.507-.276-.994-1.271-1.013-2.072-.01-.387-.067-.74-.128-.784-.061-.044-1.365-.061-2.897-.039-3.404.05-7.6-.243-8.833-.618-.866-.263-.873-.262-1.017.048-.277.596-1.225 1.366-1.826 1.482-1.49.29-3.125-.873-3.448-2.453-.143-.703.014-1.679.362-2.248.212-.348.203-.41-.152-.958-2.766-4.272-2.319-13.883.81-17.429.364-.413.386-.492.253-.9-.527-1.606-.304-2.592.8-3.546.679-.585 1.469-.876 2.232-.821.874.063 1.944.898 2.223 1.736.127.382.19.421.581.366 2.365-.334 5.844-.35 10.111-.05 1.866.131 2.505.132 2.555.004.037-.094.122-.397.188-.674.149-.62.69-1.332 1.193-1.569.34-.16.436-.143 1.004.175.582.326.625.389.59.875-.021.289-.168.705-.325.926l-.286.402 3.532.202c2.747.157 3.84.273 4.922.525 2.58.6 4.708 1.64 5.967 2.916l.46.466.45-.471c.246-.26.728-.61 1.07-.778.989-.489 1.538-.337 2.004.553.363.694.202 1.07-.81 1.89-1.323 1.07-1.277.962-.886 2.099 1.299 3.782 1.017 9.661-.635 13.213-.335.722-.338.752-.13 1.327.118.324.428.883.69 1.244.55.758.83 1.356.803 1.714-.01.139-.252.473-.538.742zm.137-1.335c-.078-.175-.386-.668-.686-1.097-.3-.428-.577-.907-.614-1.063-.067-.276-.321-.419-.338-.19-.004.063-.323.519-.708 1.013-.386.494-.663.976-.618 1.072.564 1.179 1.623 2.045 2.191 1.792.289-.13.28-.153-.21-.533-.658-.508-.64-.489-.532-.581.05-.044.268.067.484.245.39.323.841.443 1.033.277.154-.134.153-.584-.002-.935zm1.226-20.677c-.1-.186-.208-.18-.775.048-.363.145-.655.2-.65.123.007-.077.24-.23.52-.34.769-.3.467-.722-.407-.568-.41.072-1.818 1.164-1.836 1.424-.007.095.086.268.207.382.121.115.368.482.548.816l.328.607 1.073-.864c1.05-.846 1.242-1.162.992-1.628zm-1.193 6.239c-.342-1.82-.73-2.96-1.42-4.18-2.041-3.603-6.282-5.266-13.611-5.34-1.507-.015-5.074-.14-7.926-.277-6.25-.302-7.855-.242-10.446.387-3.211.78-5.452 3.018-6.438 6.43-1.03 3.565-.957 8.59.17 11.634 1.233 3.334 3.74 5.276 7.854 6.08 1.639.32 3.32.42 6.399.378 3.202-.043 6.794.189 9.145.59 2.211.379 5.92.652 7.204.531 3.923-.369 6.412-2.206 7.932-5.854.875-2.1 1.073-3.096 1.242-6.223.13-2.441.118-2.976-.105-4.156zm-25.996 2.439c-.25.353-.267.447-.117.686.095.151.16.451.145.666-.037.516-.577.81-1.513.823-.625.01-.77.068-1.037.424-.635.844-1.978.59-2.42-.458-.103-.244-.35-.518-.548-.61-1.185-.548-1.033-3.044.203-3.314.285-.062.55-.262.736-.555.592-.934 1.586-1.183 2.263-.568.255.232.339.445.314.796l-.035.48.888.063c.67.048.936.128 1.085.324.334.44.345.81.036 1.243zm-.367.827c-.24-.355-.35-.396-1.25-.46l-.987-.071.05.39c.133 1.043.24 1.178.972 1.23.48.034.8-.03 1.074-.215.469-.317.478-.376.141-.874zm.273-1.767c-.106-.237-.28-.292-1.104-.35-1.058-.077-1.073-.067-1.41.96-.11.336-.108.337.978.414 1.42.102 1.896-.216 1.536-1.024zm-2.164-1.456c-.179-.401-.494-.683-.794-.71-.318-.03-1.102.558-1.402 1.05-.221.36-.225.425-.042.658.428.548.357 2.454-.107 2.856-.289.25-.217.61.202 1.017.46.446 1.008.539 1.487.252.388-.232.455-.723.216-1.594a3.259 3.259 0 0 1 .24-2.373c.374-.74.377-.757.2-1.156zm-3.077 8.825c-.7 1.993-2.703 2.975-4.747 2.328-.598-.19-.87-.39-1.456-1.071-.828-.963-1.128-1.88-1.035-3.172.187-2.627 2.57-4.284 4.944-3.439 1.975.704 3.047 3.206 2.294 5.354zm-.265-2.91c-.514-1.431-1.564-2.28-2.936-2.373-2.099-.141-3.613 1.175-3.776 3.281-.185 2.393 1.12 4.114 3.236 4.265 2.677.192 4.452-2.451 3.476-5.174zm-2.372 4.204c-.562.451-1.244.376-1.735-.19-.725-.838-.164-1.85.982-1.769 1.132.081 1.595 1.284.753 1.96zm-.46-1.63c-.137.017-.255.123-.263.236-.01.113.093.235.226.27.17.046.248-.024.263-.235.015-.21-.052-.291-.227-.27zm3.463-9.643c-1.01 3.566-5.804 3.624-7.075.087-.288-.802-.304-2.287-.033-3.065.294-.84 1.081-1.66 1.994-2.073 1.046-.474 2.574-.415 3.45.134 1.452.908 2.185 3.077 1.664 4.917zm-.14-2.094c-.228-1.626-1.547-2.928-3.073-3.037-1.477-.106-2.685.493-3.37 1.673-.382.657-.427.85-.444 1.888-.022 1.293.204 1.988.917 2.827 1.663 1.96 4.665 1.499 5.678-.871.36-.84.434-1.474.292-2.48zm-2.22 3.282c-.291.432-.61.58-1.177.544-1.22-.077-1.592-1.608-.503-2.076.633-.272 1.101-.175 1.525.314.405.467.445.785.155 1.218zm-.639-1.287c-.222-.104-.364-.01-.383.252-.008.103.112.196.266.207.318.023.407-.324.117-.459zM75.697 120.2c-.341-.843-.506-.958-1.483-1.031-.686-.051-.727.047-.478 1.156.173.769.727 1.532 1.133 1.56.217.017.257-.049.206-.336-.072-.412.053-.453.28-.09.134.212.195.225.396.08.325-.232.318-.422-.054-1.339zm2.03-28.065c-.163-.157-.25-.153-.47.02-.365.286-.5.254-.269-.065.254-.348.09-.505-.39-.374-.446.122-1.011.913-1.215 1.698l-.135.52.827-.026c1.145-.036 1.158-.042 1.51-.69.381-.701.399-.837.142-1.083zm-17.949 25.787l-.687-.285-.312.343c-.557.613-1.668.248-1.666-.548 0-.144.046-.417.102-.606.083-.283-.013-.464-.534-1.007l-.636-.662-.247.49c-.278.55-.39 1.561-.23 2.09.172.575.916 1.453 1.499 1.77 1.068.58 2.159.373 2.94-.558.244-.29.447-.576.451-.635.004-.06-.302-.236-.68-.392zm.908-25.542c-.8-.548-1.596-.569-2.584-.065-1.31.667-1.844 1.89-1.414 3.236.102.318.222.58.268.584.238.017 1.073-.864 1.093-1.154.057-.793.863-1.238 1.517-.837.3.184.47.181 1.276-.019l.93-.23-.269-.569c-.148-.313-.515-.738-.817-.946z" stroke="#fff" stroke-width=".3" stroke-dasharray="2.4,2.39999999999999991" stroke-linejoin="round"/><ellipse cx="21.068" cy="137.964" rx="2.697" ry="2.275" fill="#fff" stroke="#fff" stroke-width=".2" stroke-dasharray="1.6,1.60000000000000009"/><ellipse cx="45.051" cy="132.018" rx=".566" ry="2.235" transform="rotate(10.132)" stroke="#fff" stroke-width=".2" stroke-dasharray="1.6,1.60000000000000009"/></svg>