<svg xmlns="http://www.w3.org/2000/svg" width="579.991" height="129.101" viewBox="0 0 579.99146 129.10112"><path d="M424.115 127.07c-7.533-3.713-8.397-6.44-9.107-28.72-.679-21.302-1.253-23.355-7.153-25.598-2.402-.914-2.864-2-2.864-6.745 0-4.268.474-5.656 1.932-5.656 1.063 0 3.313-1.38 5-3.068 2.981-2.98 3.069-3.595 3.07-21.563.001-15.137.4-19.272 2.188-22.78 3.409-6.685 7.654-9.08 17.066-9.63l8.244-.481V14.1h-4.76c-8.424 0-8.774.833-9.218 21.934-.445 21.091-1.412 24.005-9.208 27.722-5.262 2.51-5.423 3.56-.689 4.507 2.142.428 4.827 2.41 6.563 4.843 2.717 3.81 2.971 5.554 3.385 23.241.431 18.426.554 19.192 3.368 21.036 1.607 1.053 4.5 1.73 6.428 1.503 3.308-.388 3.528-.11 3.89 4.902l.385 5.312-7.26-.028c-4.032-.016-9.037-.906-11.26-2.002zM542.732 123.789c.37-5.11.53-5.298 4.221-4.93 2.359.236 4.85-.487 6.466-1.875 2.395-2.056 2.69-3.96 3.313-21.307.762-21.232 1.792-24.318 9.14-27.388 2.266-.947 4.12-1.988 4.12-2.313 0-.325-1.926-1.396-4.278-2.379-7.592-3.172-8.832-6.639-8.966-25.076-.065-8.962-.206-17.24-.312-18.393-.338-3.646-3.906-6.027-9.034-6.027h-4.91V2.49l8.426.786c16.225 1.516 19.069 6.353 19.072 32.444.002 17.968.089 18.582 3.07 21.563 1.687 1.687 3.937 3.068 5 3.068 1.448 0 1.931 1.37 1.931 5.473 0 4.848-.41 5.644-3.587 6.96-5.456 2.26-6.41 5.935-6.44 24.813-.022 13.96-.455 18.072-2.341 22.224-2.91 6.406-8.548 9.28-18.205 9.28h-7.07l.384-5.312z" fill="#3f95f0"/><path d="M15.393 108.033C8.093 105.51.013 100.425 0 98.345c-.005-.76 2.631-3.714 5.858-6.565l5.866-5.184 3.196 2.975c4.683 4.358 8.046 5.78 13.67 5.78 6.491 0 12.146-4.435 10.852-8.512-1.092-3.441-3.73-4.85-14.828-7.927-15.59-4.32-20.873-9.466-20.873-20.333 0-6.888 2.233-11.728 7.424-16.097 5.727-4.819 11.62-6.245 23.28-5.633 8.79.462 11.316 1.118 16.398 4.26 3.304 2.043 6.107 4.536 6.229 5.54.121 1.005-2.28 4.022-5.335 6.705l-5.555 4.877-2.783-2.534c-4.165-3.792-7.775-5.346-12.422-5.346-5.406 0-9.736 3.07-9.736 6.902 0 3.643 2.367 5.028 14.2 8.307 10.897 3.02 16.123 6.121 19.487 11.564 5.135 8.307 1.899 22.21-6.48 27.848-8.191 5.51-22.208 6.809-33.055 3.06zM102.491 37.226c-14.638 0-19.269 1.621-27.377 9.578-10.905 10.702-13.51 28.871-6.226 43.445 4.952 9.912 12.266 15.636 24.228 18.961 5.227 1.453 19.13.428 24.375-1.796 14.573-6.18 22.51-18.337 22.488-34.45-.019-14.935-6.579-26.126-19.363-33.035-4.22-2.28-7.048-2.703-18.125-2.703zm0 14.375c11.184 0 18.75 8.66 18.75 21.459 0 8.071-2.988 14.296-8.75 18.229-2.833 1.934-5.956 2.812-10 2.812-11.156 0-18.75-8.522-18.75-21.041 0-12.8 7.566-21.459 18.75-21.459zM163.48 109.116c-5.576-1.681-10.875-6.158-13.83-11.683-2.59-4.846-2.811-7.093-3.184-32.45l-.4-27.245 9.15.37 9.15.368.625 24.799.625 24.799 3.508 3.013c4.357 3.745 11.018 3.968 15.845.53 6.21-4.422 7.522-10.215 7.522-33.221V37.742l8.95.367 8.95.367.103 34.375.102 34.375-9.202.37-9.202.37.78-3.105c1.043-4.16-.847-5.069-3.75-1.804-5.332 5.993-16.914 8.72-25.741 6.059zM290.616 109.58c-17.78-4.472-27.82-16.213-29.044-33.965-1.077-15.621 6.525-28.95 20.203-35.42 13.23-6.26 30.17-4.455 41.16 4.383 2.918 2.347 2.639 2.97-3.986 8.902-4.551 4.076-5.75 4.61-7.5 3.336-14.787-10.758-30.565-2.223-30.565 16.535 0 12.193 7.43 20.75 18.015 20.75 6.3 0 12.962-2.484 13.856-5.165.548-1.645 11.611 9.601 11.611 11.804 0 .773-3.202 3.043-7.117 5.045-5.352 2.737-9.226 3.737-15.625 4.032-4.679.215-9.633.108-11.008-.237z" fill="#2578b6"/><path d="M366.694 36.662c-1.57-.019-3.418.04-5.73.144-12.443.557-20.424 4.057-26.69 11.703-10.438 12.739-11.645 31.92-2.877 45.762 4.784 7.552 12.467 12.677 22.97 15.32v-.002c1.374.346 6.594.42 11.599.164 10.492-.537 17.709-3.51 23.822-9.818l4.065-4.191-5.579-4.573c-3.068-2.514-5.965-4.57-6.437-4.57-.473 0-2.514 1.391-4.535 3.092-7.636 6.425-18.78 6.653-26.547.543-3.658-2.878-7.358-9.125-6.131-10.352.43-.43 12.222-.783 26.201-.783h25.416v-6.648c0-15.077-6.65-27.168-17.998-32.72-4.646-2.272-6.84-3.016-11.549-3.071zm-4.722 13.89c8.172-.07 15.52 5.276 15.52 13.006 0 1.47-3.05 1.793-16.876 1.793-9.281 0-16.875-.479-16.875-1.064 0-2.64 6.08-9.764 10.026-11.747a18.616 18.616 0 0 1 8.205-1.988z" fill="#2578b6"/><path d="M520.61.003a87.015 87.015 0 0 0-5.558.149l-7.657.426.153 23.115c.084 12.713-.182 23.45-.59 23.86-.408.408-2.285-.736-4.168-2.54-8.018-7.68-22.243-9.462-33.424-4.19-11.53 5.438-17.24 14.912-17.933 29.757-.83 17.741 6.993 31.171 21.058 36.154 11.706 4.147 26.859.824 31.994-7.014 2.582-3.94 4.256-2.923 4.256 2.58v4.301h15V53.685c0-29.104-.231-53.151-.515-53.437-.143-.144-1.134-.227-2.616-.245zM489.02 50.46c3.17.02 5.052.663 7.75 2.33 5.563 3.439 8.81 7.955 10.662 14.833 2.619 9.727-2.798 21.716-11.815 26.152-9.47 4.658-20.034 1.274-25.281-8.1-5.838-10.43-4.67-20.874 3.291-29.408 4.196-4.498 5.481-5.116 11.715-5.633 1.422-.118 2.62-.18 3.678-.174z" fill="#3f95f0"/><path d="M218.741 72.851v-35h17.5v3.75c0 4.54 1.16 4.712 4.906.726 3.86-4.11 8.819-5.974 14.621-5.498l4.848.397v16.167l-5.625-.307c-6.374-.348-11.318 2.288-15.127 8.067-2.078 3.151-2.357 6.119-2.364 25.136l-.008 21.562h-18.75v-35z" fill="#2578b6"/></svg>