<svg width="1200" height="776" viewBox="0.00 0.00 900.43 582.44" xmlns="http://www.w3.org/2000/svg"><g class="graph" transform="translate(4 578.441)"><title>AST</title><g class="node"><title>def</title><ellipse fill="#cb7832" stroke="#fff" cx="281.48" cy="-556.441" rx="76.887" ry="18"/><text text-anchor="middle" x="281.48" y="-552.741" font-family="Times,serif" font-size="14" fill="#fff">function definition</text></g><g class="node"><title>function_name</title><ellipse fill="#bababa" stroke="#fff" cx="107.48" cy="-475.571" rx="107.46" ry="26.741"/><text text-anchor="middle" x="107.48" y="-479.371" font-family="Times,serif" font-size="14" fill="#fff">identifier</text><text text-anchor="middle" x="107.48" y="-464.371" font-family="Times,serif" font-size="14" fill="#fff">value: nearest_neighbors</text></g><g class="edge"><title>def--function_name</title><path fill="none" stroke="#fff" d="M247.931-540.234l-90.196 40.884"/></g><g class="node"><title>arguments</title><ellipse fill="none" stroke="#fff" cx="281.48" cy="-475.571" rx="48.192" ry="18"/><text text-anchor="middle" x="281.48" y="-471.871" font-family="Times,serif" font-size="14" fill="#fff">arguments</text></g><g class="edge"><title>def--arguments</title><path fill="none" stroke="#fff" d="M281.48-538.327v44.676"/></g><g class="node"><title>body</title><ellipse fill="none" stroke="#fff" cx="551.48" cy="-475.571" rx="28.695" ry="18"/><text text-anchor="middle" x="551.48" y="-471.871" font-family="Times,serif" font-size="14" fill="#fff">body</text></g><g class="edge"><title>def--body</title><path fill="none" stroke="#fff" d="M327.588-541.972l198.334 57.935"/></g><g class="node"><title>arg1</title><ellipse fill="#bababa" stroke="#fff" cx="73.48" cy="-385.831" rx="51.738" ry="26.741"/><text text-anchor="middle" x="73.48" y="-389.631" font-family="Times,serif" font-size="14" fill="#fff">identifier</text><text text-anchor="middle" x="73.48" y="-374.631" font-family="Times,serif" font-size="14" fill="#fff">value: self</text></g><g class="edge"><title>arguments--arg1</title><path fill="none" stroke="#fff" d="M252.071-461.186c-9.13 4.083-19.248 8.535-28.591 12.485-39.68 16.778-50.216 19.47-90 36a2143.845 2143.845 0 0 0-21.333 9.019"/></g><g class="node"><title>arg2</title><ellipse fill="#bababa" stroke="#fff" cx="203.48" cy="-385.831" rx="60.623" ry="26.741"/><text text-anchor="middle" x="203.48" y="-389.631" font-family="Times,serif" font-size="14" fill="#fff">identifier</text><text text-anchor="middle" x="203.48" y="-374.631" font-family="Times,serif" font-size="14" fill="#fff">value: origin</text></g><g class="edge"><title>arguments--arg2</title><path fill="none" stroke="#fff" d="M266.809-458.067l-41.648 46.849"/></g><g class="node"><title>arg3</title><ellipse fill="none" stroke="#fff" cx="359.48" cy="-385.831" rx="77.187" ry="18"/><text text-anchor="middle" x="359.48" y="-382.131" font-family="Times,serif" font-size="14" fill="#fff">keyword argument</text></g><g class="edge"><title>arguments--arg3</title><path fill="none" stroke="#fff" d="M296.151-458.067l48.459 54.509"/></g><g class="node"><title>comment</title><ellipse fill="#7f7f7f" stroke="#fff" cx="551.48" cy="-385.831" rx="96.333" ry="26.741"/><text text-anchor="middle" x="551.48" y="-389.631" font-family="Times,serif" font-size="14" fill="#fff">comment</text><text text-anchor="middle" x="551.48" y="-374.631" font-family="Times,serif" font-size="14" fill="#fff">value: origin can be...</text></g><g class="edge"><title>body--comment</title><path fill="none" stroke="#fff" d="M551.48-457.236v44.453"/></g><g class="node"><title>if</title><ellipse fill="#cb7832" stroke="#fff" cx="715.48" cy="-385.831" rx="50.091" ry="18"/><text text-anchor="middle" x="715.48" y="-382.131" font-family="Times,serif" font-size="14" fill="#fff">conditional</text></g><g class="edge"><title>body--if</title><path fill="none" stroke="#fff" d="M572.585-463.28l116.166 62.149"/></g><g class="node"><title>expr31</title><ellipse fill="#bababa" stroke="#fff" cx="303.48" cy="-296.09" rx="46.839" ry="26.741"/><text text-anchor="middle" x="303.48" y="-299.89" font-family="Times,serif" font-size="14" fill="#fff">identifier</text><text text-anchor="middle" x="303.48" y="-284.89" font-family="Times,serif" font-size="14" fill="#fff">value: k</text></g><g class="edge"><title>arg3--expr31</title><path fill="none" stroke="#fff" d="M348.683-367.913a802556.07 802556.07 0 0 0-29.566 46.324"/></g><g class="node"><title>expr32</title><ellipse fill="#6896ba" stroke="#fff" cx="415.48" cy="-296.09" rx="47.253" ry="26.741"/><text text-anchor="middle" x="415.48" y="-299.89" font-family="Times,serif" font-size="14" fill="#fff">literal</text><text text-anchor="middle" x="415.48" y="-284.89" font-family="Times,serif" font-size="14" fill="#fff">value: 10</text></g><g class="edge"><title>arg3--expr32</title><path fill="none" stroke="#fff" d="M370.278-367.913l29.566 46.324"/></g><g class="node"><title>condition</title><ellipse fill="none" stroke="#fff" cx="602.48" cy="-296.09" rx="44.393" ry="18"/><text text-anchor="middle" x="602.48" y="-292.39" font-family="Times,serif" font-size="14" fill="#fff">condition</text></g><g class="edge"><title>if--condition</title><path fill="none" stroke="#fff" d="M695.278-369.144a9540621.89 9540621.89 0 0 1-73.149 56.797"/></g><g class="node"><title>true_branch</title><ellipse fill="none" stroke="#fff" cx="715.48" cy="-296.09" rx="50.892" ry="18"/><text text-anchor="middle" x="715.48" y="-292.39" font-family="Times,serif" font-size="14" fill="#fff">true branch</text></g><g class="edge"><title>if--true_branch</title><path fill="none" stroke="#fff" d="M715.48-367.496v53.406"/></g><g class="node"><title>false_branch</title><ellipse fill="none" stroke="#fff" cx="838.48" cy="-296.09" rx="53.891" ry="18"/><text text-anchor="middle" x="838.48" y="-292.39" font-family="Times,serif" font-size="14" fill="#fff">false branch</text></g><g class="edge"><title>if--false_branch</title><path fill="none" stroke="#fff" d="M736.905-369.547l79.568 56.758"/></g><g class="node"><title>isinstance</title><ellipse fill="#cb7832" stroke="#fff" cx="602.48" cy="-206.35" rx="75.821" ry="26.741"/><text text-anchor="middle" x="602.48" y="-210.15" font-family="Times,serif" font-size="14" fill="#fff">builtin</text><text text-anchor="middle" x="602.48" y="-195.15" font-family="Times,serif" font-size="14" fill="#fff">value: isinstance</text></g><g class="edge"><title>condition--isinstance</title><path fill="none" stroke="#fff" d="M602.48-277.756v44.454"/></g><g class="node"><title>ii1</title><ellipse fill="#bababa" stroke="#fff" cx="535.48" cy="-116.61" rx="60.623" ry="26.741"/><text text-anchor="middle" x="535.48" y="-120.41" font-family="Times,serif" font-size="14" fill="#fff">identifier</text><text text-anchor="middle" x="535.48" y="-105.41" font-family="Times,serif" font-size="14" fill="#fff">value: origin</text></g><g class="edge"><title>isinstance--ii1</title><path fill="none" stroke="#fff" d="M583.101-179.972l-28.747 37.646"/></g><g class="node"><title>ii2</title><ellipse fill="#cb7832" stroke="#fff" cx="670.48" cy="-116.61" rx="56.637" ry="26.741"/><text text-anchor="middle" x="670.48" y="-120.41" font-family="Times,serif" font-size="14" fill="#fff">builtin</text><text text-anchor="middle" x="670.48" y="-105.41" font-family="Times,serif" font-size="14" fill="#fff">value: tuple</text></g><g class="edge"><title>isinstance--ii2</title><path fill="none" stroke="#fff" d="M622.149-179.972l29.409 37.947"/></g><g class="node"><title>ii21</title><ellipse fill="#cb7832" stroke="#fff" cx="608.48" cy="-26.87" rx="56.637" ry="26.741"/><text text-anchor="middle" x="608.48" y="-30.67" font-family="Times,serif" font-size="14" fill="#fff">builtin</text><text text-anchor="middle" x="608.48" y="-15.67" font-family="Times,serif" font-size="14" fill="#fff">value: tuple</text></g><g class="edge"><title>ii2--ii21</title><path fill="none" stroke="#fff" d="M652.879-90.702l-26.968 38.165"/></g><g class="node"><title>ii22</title><ellipse fill="#cb7832" stroke="#fff" cx="732.48" cy="-26.87" rx="49.495" ry="26.741"/><text text-anchor="middle" x="732.48" y="-30.67" font-family="Times,serif" font-size="14" fill="#fff">builtin</text><text text-anchor="middle" x="732.48" y="-15.67" font-family="Times,serif" font-size="14" fill="#fff">value: list</text></g><g class="edge"><title>ii2--ii22</title><path fill="none" stroke="#fff" d="M688.081-90.702l27.183 38.468"/></g></g></svg>