<svg xmlns="http://www.w3.org/2000/svg" width="308.114" height="293.008" viewBox="0 0 288.85714 274.69486"><path d="M182.138 173.876a17.895 17.895 0 0 1-.147-1.168c-.152-1.561-.708-5.123-1.143-7.318-4.33-21.847-16.645-41.492-34.43-54.92-.954-.722-1.736-1.353-1.736-1.405 0-.105 3.17-2.269 4.799-3.276 11.138-6.886 23.663-11.324 36.519-12.94 3.924-.492 5.356-.59 9.718-.664 8-.135 14.915.612 22.58 2.44 5.005 1.193 11.059 3.233 15.467 5.213l1.137.51-.034.92c-.047 1.3-.585 4.9-1.175 7.864a91.053 91.053 0 0 1-18.891 40.027c-3.036 3.711-7.649 8.423-11.217 11.458-5.94 5.052-12.873 9.59-19.476 12.746-.99.473-1.824.86-1.853.86-.028 0-.082-.156-.118-.347z" fill="#ff0" fill-opacity=".627"/><path d="M142.41 255.645c-11.372-8.677-20.21-19.315-26.507-31.905-5.596-11.19-8.703-22.833-9.491-35.564-.225-3.63.01-13.363.33-13.683.03-.029.637.206 1.35.522 12.634 5.593 27.266 8.291 40.884 7.54 10.876-.602 21.52-3.093 31.25-7.316.963-.418 1.783-.728 1.823-.688.157.157.385 3.716.464 7.249.462 20.65-6.675 41.527-19.811 57.957a92.466 92.466 0 0 1-13.474 13.652c-1.854 1.519-4.694 3.648-4.854 3.64-.073-.004-.957-.635-1.964-1.404z" fill="#0ff" fill-opacity=".627"/><path d="M103.495 172.731c-14.05-7.123-25.779-17.47-34.524-30.454-7.772-11.54-12.973-25.313-14.685-38.89-.145-1.146-.291-2.29-.326-2.541l-.063-.458 1.609-.701c8.521-3.714 17.784-6.152 26.926-7.086 6.608-.675 14.124-.584 20.645.249 12.168 1.555 24.081 5.664 34.85 12.022 1.896 1.12 6.39 4.098 6.348 4.207-.02.049-.83.686-1.802 1.415-16.516 12.388-28.496 30.425-33.517 50.467-.997 3.978-1.966 9.323-2.229 12.284-.047.538-.132.978-.187.978-.055 0-1.426-.671-3.045-1.492z" fill="#f0f" fill-opacity=".627"/><path d="M106.654 174.338a91.071 91.071 0 0 1-52.785-73.992m0 0C21.407 115.109.55 147.46.5 183.123c0 50.298 40.774 91.073 91.072 91.072a91.072 91.072 0 0 0 52.823-17.023 91.071 91.071 0 0 1-38.18-74.049c.005-2.934.151-5.866.44-8.785" fill="#00f" fill-opacity=".627"/><path d="M53.87 100.346a91.071 91.071 0 0 1 37.702-8.293 91.071 91.071 0 0 1 52.893 17.023m0 0a91.071 91.071 0 0 1 52.82-17.023 91.071 91.071 0 0 1 37.776 8.304c.287-2.92.434-5.851.439-8.785C235.5 41.274 194.726.5 144.428.5s-91.071 40.775-91.07 91.072c.029 2.931.2 5.86.511 8.774" fill="#ff000a" fill-opacity=".627"/><path d="M235.06 100.357a91.071 91.071 0 0 1-52.93 73.993 91.071 91.071 0 0 1 .513 8.773 91.071 91.071 0 0 1-38.248 74.049 91.071 91.071 0 0 0 52.89 17.023 91.071 91.071 0 0 0 91.072-91.072 91.071 91.071 0 0 0-53.296-82.766z" fill="#0f0" fill-opacity=".627"/><path d="M144.465 109.076a91.071 91.071 0 0 0-37.81 65.262m0 0a91.071 91.071 0 0 0 37.773 8.305 91.072 91.072 0 0 0 37.703-8.293 91.071 91.071 0 0 0-37.666-65.274" fill="#fff" fill-opacity=".627"/><text style="line-height:125%" x="262.464" y="292.044" font-weight="400" font-size="12.5" font-family="sans-serif" letter-spacing="0" word-spacing="0" fill="#fff" transform="translate(-118.071 -223.167)"><tspan x="262.464" y="292.044" style="text-align:center" font-size="10" text-anchor="middle">Natural Language Processing</tspan></text><text style="line-height:125%" x="151.508" y="422.789" font-weight="400" font-size="12.5" font-family="sans-serif" letter-spacing="0" word-spacing="0" fill="#fff" transform="translate(-118.071 -223.167)"><tspan x="151.508" y="422.789" font-size="10">Structure,</tspan><tspan x="151.508" y="438.414" font-size="10">algorithms</tspan></text><text style="line-height:125%" x="325.507" y="425.212" font-weight="400" font-size="12.5" font-family="sans-serif" letter-spacing="0" word-spacing="0" fill="#fff" transform="translate(-118.071 -223.167)"><tspan x="325.507" y="425.212" font-size="10">History,</tspan><tspan x="325.507" y="440.837" font-size="10">social</tspan></text><text style="line-height:125%" x="262.421" y="362.04" font-weight="400" font-size="12.5" font-family="sans-serif" letter-spacing="0" word-spacing="0" transform="translate(-118.071 -223.167)"><tspan x="262.421" y="362.04" style="text-align:center" text-anchor="middle" font-size="10">Source</tspan><tspan x="262.421" y="377.665" style="text-align:center" text-anchor="middle" font-size="10">code</tspan><tspan x="262.421" y="393.29" style="text-align:center" text-anchor="middle" font-size="10">ML</tspan></text></svg>