<svg height="384" viewBox="0 0 432 288" width="576" xmlns="http://www.w3.org/2000/svg" xmlns:xlink="http://www.w3.org/1999/xlink"><defs><style>*{stroke-linecap:butt;stroke-linejoin:round}</style></defs><g id="figure_1"><path d="M0 288h432V0H0z" fill="none" id="patch_1"/><g id="axes_1"><path d="M54 252h334.8V34.56H54z" fill="none" id="patch_2"/><path clip-path="url(#p426363c08e)" d="M54 158.811V252h334.8v-62.126l-167.4-31.063H54z" fill="#cb8c1d" id="PolyCollection_1"/><path clip-path="url(#p426363c08e)" d="M54 158.811h167.4l167.4 31.063V127.75L221.4 65.623 54 158.81z" fill="#f1684e" id="PolyCollection_2"/><path clip-path="url(#p426363c08e)" d="M54 158.811l167.4-93.188 167.4 62.126V34.56L221.4 65.623 54 158.81z" fill="#4eb1ba" id="PolyCollection_3"/><g id="matplotlib.axis_1"><g id="xtick_1"><g id="line2d_1"><defs><path d="M0 0v3.5" id="m6108044297" stroke="#fff" stroke-width=".8"/></defs><use x="54" xlink:href="#m6108044297" y="252" fill="#fff" stroke="#fff" stroke-width=".8"/></g><g id="text_1"><defs><path d="M19.188 8.297h34.421V0H7.33v8.297q5.609 5.812 15.296 15.594 9.703 9.797 12.188 12.64 4.734 5.313 6.609 9 1.89 3.688 1.89 7.25 0 5.813-4.078 9.469-4.078 3.672-10.625 3.672-4.64 0-9.797-1.61-5.14-1.609-11-4.89v9.969Q13.767 71.78 18.938 73q5.188 1.219 9.485 1.219 11.328 0 18.062-5.672 6.735-5.656 6.735-15.125 0-4.5-1.688-8.531-1.672-4.016-6.125-9.485-1.218-1.422-7.765-8.187-6.532-6.766-18.453-18.922" id="DejaVuSans-32"/><path d="M31.781 66.406q-7.61 0-11.453-7.5Q16.5 51.422 16.5 36.375q0-14.984 3.828-22.484 3.844-7.5 11.453-7.5 7.672 0 11.5 7.5 3.844 7.5 3.844 22.484 0 15.047-3.844 22.531-3.828 7.5-11.5 7.5m0 7.813q12.266 0 18.735-9.703 6.468-9.688 6.468-28.141 0-18.406-6.468-28.11-6.47-9.687-18.735-9.687-12.25 0-18.718 9.688-6.47 9.703-6.47 28.109 0 18.453 6.47 28.14Q19.53 74.22 31.78 74.22" id="DejaVuSans-30"/><path d="M12.406 8.297h16.11v55.625l-17.532-3.516v8.985l17.438 3.515h9.86V8.296H54.39V0H12.406z" id="DejaVuSans-31"/><path d="M37.797 64.313L12.89 25.39h24.906zm-2.594 8.593H47.61V25.391h10.407v-8.203H47.609V0h-9.812v17.188H4.89v9.515z" id="DejaVuSans-34"/></defs><g transform="matrix(.1 0 0 -.1 41.275 266.598)" fill="#fff"><use xlink:href="#DejaVuSans-32"/><use x="63.623" xlink:href="#DejaVuSans-30"/><use x="127.246" xlink:href="#DejaVuSans-31"/><use x="190.869" xlink:href="#DejaVuSans-34"/></g></g></g><g id="xtick_2"><use x="221.4" xlink:href="#m6108044297" y="252" fill="#fff" stroke="#fff" stroke-width=".8" id="line2d_2"/><g id="text_2"><defs><path d="M10.797 72.906h38.719v-8.312H19.828v-17.86q2.14.735 4.281 1.094 2.157.36 4.313.36 12.203 0 19.328-6.688 7.14-6.688 7.14-18.11 0-11.765-7.328-18.296-7.328-6.516-20.656-6.516-4.593 0-9.36.781-4.75.782-9.827 2.344v9.922q4.39-2.39 9.078-3.563 4.687-1.171 9.906-1.171 8.453 0 13.375 4.437 4.938 4.438 4.938 12.063 0 7.609-4.938 12.047-4.922 4.453-13.375 4.453-3.953 0-7.89-.875-3.922-.875-8.016-2.735z" id="DejaVuSans-35"/></defs><g transform="matrix(.1 0 0 -.1 208.675 266.598)" fill="#fff"><use xlink:href="#DejaVuSans-32"/><use x="63.623" xlink:href="#DejaVuSans-30"/><use x="127.246" xlink:href="#DejaVuSans-31"/><use x="190.869" xlink:href="#DejaVuSans-35"/></g></g></g><g id="xtick_3"><use x="388.8" xlink:href="#m6108044297" y="252" fill="#fff" stroke="#fff" stroke-width=".8" id="line2d_3"/><g id="text_3"><defs><path d="M33.016 40.375q-6.641 0-10.532-4.547-3.875-4.531-3.875-12.437 0-7.86 3.875-12.438 3.891-4.562 10.532-4.562 6.64 0 10.515 4.562 3.875 4.578 3.875 12.438 0 7.906-3.875 12.437-3.875 4.547-10.515 4.547m19.578 30.922v-8.984q-3.719 1.75-7.5 2.671-3.782.938-7.5.938-9.766 0-14.922-6.594-5.14-6.594-5.875-19.922 2.875 4.25 7.219 6.516 4.359 2.266 9.578 2.266 10.984 0 17.36-6.672 6.374-6.657 6.374-18.125 0-11.235-6.64-18.032-6.641-6.78-17.672-6.78-12.657 0-19.344 9.687-6.688 9.703-6.688 28.109 0 17.281 8.204 27.563 8.203 10.28 22.015 10.28 3.719 0 7.5-.734t7.89-2.187" id="DejaVuSans-36"/></defs><g transform="matrix(.1 0 0 -.1 376.075 266.598)" fill="#fff"><use xlink:href="#DejaVuSans-32"/><use x="63.623" xlink:href="#DejaVuSans-30"/><use x="127.246" xlink:href="#DejaVuSans-31"/><use x="190.869" xlink:href="#DejaVuSans-36"/></g></g></g><g id="text_4"><defs><path d="M-.297 72.906h61.672v-8.312H35.5V0h-9.906v64.594H-.296z" id="DejaVuSans-54"/><path d="M9.422 54.688h8.984V0H9.422zm0 21.296h8.984v-11.39H9.422z" id="DejaVuSans-69"/><path d="M52 44.188q3.375 6.062 8.063 8.937Q64.75 56 71.093 56q8.548 0 13.188-5.984 4.64-5.97 4.64-17V0h-9.03v32.719q0 7.86-2.797 11.656-2.781 3.813-8.485 3.813-6.984 0-11.046-4.641-4.047-4.625-4.047-12.64V0h-9.032v32.719q0 7.906-2.78 11.687-2.782 3.782-8.595 3.782-6.89 0-10.953-4.657-4.047-4.656-4.047-12.625V0H9.08v54.688h9.03v-8.5q3.078 5.03 7.375 7.421Q29.781 56 35.687 56q5.97 0 10.141-3.031Q50 49.953 52 44.187" id="DejaVuSans-6d"/><path d="M56.203 29.594v-4.39H14.891q.593-9.282 5.593-14.142 5-4.859 13.938-4.859 5.172 0 10.031 1.266 4.86 1.265 9.656 3.812v-8.5Q49.266.734 44.187-.344 39.11-1.422 33.892-1.422q-13.094 0-20.735 7.61-7.64 7.625-7.64 20.625 0 13.421 7.25 21.296Q20.016 56 32.328 56q11.031 0 17.453-7.11 6.422-7.093 6.422-19.296m-8.984 2.64q-.094 7.36-4.125 11.75-4.032 4.407-10.672 4.407-7.516 0-12.031-4.25-4.516-4.25-5.203-11.97z" id="DejaVuSans-65"/></defs><g transform="matrix(.1 0 0 -.1 209.012 280.277)" fill="#fff"><use xlink:href="#DejaVuSans-54"/><use x="61.037" xlink:href="#DejaVuSans-69"/><use x="88.82" xlink:href="#DejaVuSans-6d"/><use x="186.232" xlink:href="#DejaVuSans-65"/></g></g></g><g id="matplotlib.axis_2"><g id="ytick_1"><g id="line2d_4"><defs><path d="M0 0h-3.5" id="m221e42dd18" stroke="#fff" stroke-width=".8"/></defs><use x="54" xlink:href="#m221e42dd18" y="252" fill="#fff" stroke="#fff" stroke-width=".8"/></g><use xlink:href="#DejaVuSans-30" transform="matrix(.1 0 0 -.1 40.638 255.8)" fill="#fff" id="text_5"/></g><g id="ytick_2"><use x="54" xlink:href="#m221e42dd18" y="220.937" fill="#fff" stroke="#fff" stroke-width=".8" id="line2d_5"/><use xlink:href="#DejaVuSans-31" transform="matrix(.1 0 0 -.1 40.638 224.736)" fill="#fff" id="text_6"/></g><g id="ytick_3"><use x="54" xlink:href="#m221e42dd18" y="189.874" fill="#fff" stroke="#fff" stroke-width=".8" id="line2d_6"/><use xlink:href="#DejaVuSans-32" transform="matrix(.1 0 0 -.1 40.638 193.674)" fill="#fff" id="text_7"/></g><g id="ytick_4"><use x="54" xlink:href="#m221e42dd18" y="158.811" fill="#fff" stroke="#fff" stroke-width=".8" id="line2d_7"/><g id="text_8"><defs><path d="M40.578 39.313Q47.656 37.797 51.625 33q3.984-4.781 3.984-11.813 0-10.78-7.422-16.703-7.421-5.906-21.093-5.906-4.578 0-9.438.906-4.86.907-10.031 2.72v9.515q4.094-2.39 8.969-3.61 4.89-1.218 10.218-1.218 9.266 0 14.125 3.656 4.86 3.656 4.86 10.64 0 6.454-4.516 10.079-4.515 3.64-12.562 3.64h-8.5v8.11h8.89q7.266 0 11.125 2.906 3.86 2.906 3.86 8.375 0 5.61-3.985 8.61-3.968 3.015-11.39 3.015-4.063 0-8.703-.89-4.641-.876-10.203-2.72v8.782q5.624 1.562 10.53 2.344 4.907.78 9.25.78 11.235 0 17.766-5.109 6.547-5.093 6.547-13.78 0-6.063-3.468-10.235-3.47-4.172-9.86-5.782" id="DejaVuSans-33"/></defs><use xlink:href="#DejaVuSans-33" transform="matrix(.1 0 0 -.1 40.638 162.61)" fill="#fff"/></g></g><g id="ytick_5"><use x="54" xlink:href="#m221e42dd18" y="127.749" fill="#fff" stroke="#fff" stroke-width=".8" id="line2d_8"/><use xlink:href="#DejaVuSans-34" transform="matrix(.1 0 0 -.1 40.638 131.548)" fill="#fff" id="text_9"/></g><g id="ytick_6"><use x="54" xlink:href="#m221e42dd18" y="96.686" fill="#fff" stroke="#fff" stroke-width=".8" id="line2d_9"/><use xlink:href="#DejaVuSans-35" transform="matrix(.1 0 0 -.1 40.638 100.485)" fill="#fff" id="text_10"/></g><g id="ytick_7"><use x="54" xlink:href="#m221e42dd18" y="65.623" fill="#fff" stroke="#fff" stroke-width=".8" id="line2d_10"/><use xlink:href="#DejaVuSans-36" transform="matrix(.1 0 0 -.1 40.638 69.422)" fill="#fff" id="text_11"/></g><g id="ytick_8"><use x="54" xlink:href="#m221e42dd18" y="34.56" fill="#fff" stroke="#fff" stroke-width=".8" id="line2d_11"/><g id="text_12"><defs><path d="M8.203 72.906h46.875v-4.203L28.61 0H18.312L43.22 64.594H8.203z" id="DejaVuSans-37"/></defs><use xlink:href="#DejaVuSans-37" transform="matrix(.1 0 0 -.1 40.638 38.36)" fill="#fff"/></g></g><g id="text_13"><defs><path d="M9.813 72.906h9.859V8.296h35.5V0H9.812z" id="DejaVuSans-4c"/><path d="M54.89 33.016V0h-8.984v32.719q0 7.765-3.031 11.61-3.031 3.858-9.078 3.858-7.281 0-11.484-4.64-4.204-4.625-4.204-12.64V0H9.08v54.688h9.03v-8.5q3.235 4.937 7.594 7.374Q30.078 56 35.797 56q9.422 0 14.25-5.828 4.844-5.828 4.844-17.156" id="DejaVuSans-6e"/><path d="M44.281 53.078v-8.5q-3.797 1.953-7.906 2.922-4.094.984-8.5.984-6.688 0-10.031-2.047-3.344-2.046-3.344-6.156 0-3.125 2.39-4.906 2.391-1.781 9.626-3.39l3.078-.688q9.562-2.047 13.593-5.781 4.032-3.735 4.032-10.422 0-7.625-6.032-12.078-6.03-4.438-16.578-4.438-4.39 0-9.156.86Q10.688.296 5.422 2v9.281q4.984-2.594 9.812-3.89 4.829-1.282 9.579-1.282 6.343 0 9.75 2.172 3.421 2.172 3.421 6.125 0 3.656-2.468 5.61-2.453 1.953-10.813 3.765l-3.125.735q-8.344 1.75-12.062 5.39-3.704 3.64-3.704 9.985 0 7.718 5.47 11.906Q16.75 56 26.811 56q4.97 0 9.36-.734 4.406-.72 8.11-2.188" id="DejaVuSans-73"/></defs><g transform="matrix(0 -.1 -.1 0 34.558 156.305)" fill="#fff"><use xlink:href="#DejaVuSans-4c"/><use x="55.713" xlink:href="#DejaVuSans-69"/><use x="83.496" xlink:href="#DejaVuSans-6e"/><use x="146.875" xlink:href="#DejaVuSans-65"/><use x="208.398" xlink:href="#DejaVuSans-73"/></g></g></g><path d="M54 252V34.56" fill="none" stroke="#fff" stroke-linecap="square" stroke-width=".8" id="patch_3"/><path d="M388.8 252V34.56" fill="none" stroke="#fff" stroke-linecap="square" stroke-width=".8" id="patch_4"/><path d="M54 252h334.8" fill="none" stroke="#fff" stroke-linecap="square" stroke-width=".8" id="patch_5"/><path d="M54 34.56h334.8" fill="none" stroke="#fff" stroke-linecap="square" stroke-width=".8" id="patch_6"/></g></g><defs><clipPath id="p426363c08e"><path d="M54 34.56h334.8V252H54z"/></clipPath></defs></svg>