<svg xmlns="http://www.w3.org/2000/svg" version="1" width="37.333" height="37.333" viewBox="0 0 28.000000 28.000000"><path d="M16.8 3C14.8 3 9 7.3 9 8.7c0 1.9 1.7 1.6 4.1-.8 2.4-2.4 4.4-2.1 4.5.7 0 2.1-1.6 6.4-2.5 6.5-.5 0-3.1.6-5.6 1.2-2.4.6-3.5 2-3.5 4.3 0 3.2 3.4 3.2 7.4-.1l3-2.4 3.7 1.9c3.4 1.8 4.9 1.7 4.9-.1 0-.3-1.5-1.4-3.4-2.3-3.3-1.5-3.3-1.6-2.3-5.5.8-2.9.8-4.7-.1-6.5-.6-1.4-1.7-2.6-2.4-2.6zm-5.434 14.07c.416.066.797.343 1.134.83.6 1.1-3.3 3.6-4.2 2.7-.3-.3 0-1.2.7-2.1.875-1.063 1.67-1.54 2.366-1.43z"/></svg>