<svg xmlns="http://www.w3.org/2000/svg" version="1" width="37.333" height="37.333" viewBox="0 0 28.000000 28.000000"><path d="M14.077 5.113C12.615 5.14 11.1 5.925 9.3 7.5 7.2 9.4 6.9 9.9 8.2 10c.9 0 2-.5 2.3-1 .8-1.2 5.2-1.3 5.9-.1.3.5.1 2.3-.5 4-.9 2.4-1.7 3.1-3.8 3.1-4.7 0-6.9 4-3.2 6 2.4 1.2 4.8.4 5.6-2 .5-1.6 1-1.7 3.5-.9 1.5.6 4.3.9 6.2.7l3.3-.4-4.1-.8c-6.2-1.2-6.4-1.5-5.1-6.5 1-3.8 1-4.4-.8-5.7-1.18-.875-2.286-1.31-3.423-1.287zM11.55 18c.775 0 1.45.3 1.45.9 0 1.4-1.8 2.3-3 1.6-.6-.4-.8-1.1-.5-1.6.4-.6 1.275-.9 2.05-.9z"/></svg>