<svg xmlns="http://www.w3.org/2000/svg" version="1" width="37.333" height="37.333" viewBox="0 0 28.000000 28.000000"><path d="M15.338 2.228C15.056 2.19 14.6 2.763 13.7 4c-.9 1.3-2.49 3.6-3.375 5.258C9.195 11.64 6.085 14.353 9.1 20.6c1.8 2.2 6.6 1.1 10.1-2.3 3.6-3.4 3.7-6.3.3-6.3-2.7 0-6 3-6 5.5 0 .8-.4 1.5-1 1.4-1.6 0-.8-5 1.6-9.5 1.1-2.3 1.9-5 1.7-6-.13-.744-.244-1.142-.462-1.172zm3.204 11.908c.153.01.295.057.41.153.358.3.1.988-.122 1.4-.406.75-1.58 1.688-2.225 1.158-.565-.462.037-1.468.61-2.1.3-.334.868-.642 1.327-.612z"/></svg>