<svg xmlns="http://www.w3.org/2000/svg" version="1" width="37.333" height="37.333" viewBox="0 0 28.000000 28.000000"><path d="M16.3 5.125C14.725 5.15 13.15 5.7 11 6.8c-4 1.9-5 4.8-2.4 6.6 1.6 1.2 1.6 1.5-.5 4.4-3 4.2-1.6 7.2 3.4 7.2 5.9 0 10-6.4 5.8-8.9-1.6-.9-1.6-1.2-.3-2.1.8-.5 2.1-.7 2.9-.5 1.6.6 5.1-2.2 5.1-4 0-.7-1.5-2-3.4-2.9-2.15-1-3.725-1.5-5.3-1.475zm-.897 2.52c1.93-.005 3.96.48 4.897 1.355 1 .9-7.9 4.3-9.3 3.5-1.7-1.1-1.1-3.1 1.3-4.3.825-.375 1.946-.554 3.103-.556zm-1.592 9.414c1.557-.045 2.502 1.44 1.69 3.94-.4 1.3-1.5 2-3 2-3.2 0-4.1-1.7-1.9-4.1 1.125-1.238 2.278-1.814 3.21-1.84z"/></svg>