<svg xmlns="http://www.w3.org/2000/svg" version="1" width="37.333" height="37.333" viewBox="0 0 28.000000 28.000000"><path d="M20.238 4.188C19.075 4.2 17.65 4.7 15.8 5.7c-3.3 1.7-5.2 4.8-4.5 7.3.3 1.1-.7 2.8-2.5 4.5C7.2 19 6 21 6.2 21.9c.4 2.2 4.4 2.6 7.5.6 2-1.3 2.4-2.3 2-4.3-.5-2.3.2-3.4 4.1-6.8 4.1-3.6 4.5-4.4 3.3-5.8-.8-.95-1.7-1.425-2.863-1.413zm.52 2.368c.07.004.117.02.142.044.9.8-.9 3-3.8 4.7-3 1.8-3.1 1.8-3.1-.2 0-1.4 1.1-2.5 3.3-3.5 1.488-.612 2.975-1.072 3.458-1.044zM12.356 17.59c.248.004.432.173.544.51.4 1.3-2.9 4.3-3.7 3.4-.3-.3.3-1.4 1.4-2.6.75-.875 1.343-1.32 1.756-1.31z"/></svg>