<svg xmlns="http://www.w3.org/2000/svg" version="1" width="37.333" height="37.333" viewBox="0 0 28.000000 28.000000"><path d="M14.492 5.51c-.276-.01-.546-.008-.806.01-.692.05-1.31.205-1.786.48-.9.5-2.2 2.4-2.9 4.1-1.2 2.7-1.1 3.2.3 4.1 1.4.7 1.5 1.3.6 2.9-.8 1.6-.7 2.6.5 4.3 2.2 3.4 5.1 3.8 7.6 1.1 2.1-2.3 2.1-2.5.6-5.6-1.6-3.2-1.2-4.9 1.9-7.1.6-.5.4-1.3-.5-2.1-1.313-1.312-3.572-2.108-5.508-2.19zM15.7 8.05c1.25.025 2.3.45 2.3 1.25 0 2-2.2 3.7-4.7 3.7s-3-1.9-1.1-3.8c.8-.8 2.25-1.175 3.5-1.15zm-.6 7.275c.75.05 1.45.675 2.2 1.875 1.5 2.3.1 4.8-2.8 4.8-3.3 0-4.3-2.5-1.9-5.1.95-1.1 1.75-1.625 2.5-1.575z"/></svg>