<svg xmlns="http://www.w3.org/2000/svg" version="1" width="37.333" height="37.333" viewBox="0 0 28.000000 28.000000"><path d="M17.872 4.04C17.382 4 17 4.3 17 5c0 .5-1 1-2.2 1-2.5.1-6.8 3.2-6.8 4.8 0 .6.9 1.4 2 1.7l2 .6-2 2.6c-2.5 3.2-2.5 4.5-.2 6.6 2.3 2.1 5.1 2.2 8 .1 2.5-1.7 2.8-5 .8-7.7-1.2-1.6-1.2-2.2.2-4.6.8-1.5 1.3-3.5.9-4.4-.394-1.012-1.2-1.613-1.828-1.66zm-1.236 4.126c.796.054.327.734-1.236 2.234-.8.9-2 1.4-2.5 1.1-1.5-1-1-2.3.9-2.8 1.425-.375 2.358-.567 2.836-.534zm-1.148 6.91C16.375 15.05 17 15.85 17 17.5c0 2.8-3.6 5.3-5.3 3.6-.7-.7-.5-1.8.7-3.5 1.05-1.65 2.2-2.5 3.088-2.525z"/></svg>