<svg xmlns="http://www.w3.org/2000/svg" version="1" width="37.333" height="37.333" viewBox="0 0 28.000000 28.000000"><path d="M15.1 4.15c-.875.1-1.8.6-3.6 1.55-4.5 2.4-5.6 4.4-4.1 6.8.7 1.1 1.1 3.6.8 5.7-.4 3.2-.1 3.9 2.1 4.9 5.6 2.5 14.9-2 12.6-6.2-1.1-2.2-4-2.2-4.7-.1-.2.7.2 1.1 1 1 .7-.2 1.3.4 1.3 1.2 0 1.1-1.3 1.6-4.6 1.8-3.9.3-4.7 0-5.2-1.7-.5-2 .9-3.1 4.2-3.1 2.6 0 6.1-4.2 6.1-7.3 0-2-.7-3-2.6-3.7-1.6-.65-2.425-.95-3.3-.85zm.408 3.142c2.61-.004 3.942 1.158 3.192 3.108-.7 1.7-8.1 2.3-9.1.8-.7-1.2.7-2.9 2.9-3.5 1.125-.275 2.138-.406 3.008-.408z"/></svg>