<svg xmlns="http://www.w3.org/2000/svg" version="1" width="37.333" height="37.333" viewBox="0 0 28.000000 28.000000"><path d="M20.214 3.047c-2.34.097-6.333 1.76-7.914 3.753-.7.9-1.2 3.1-1.1 4.9.2 2.2-.5 4-2.1 5.7-3.7 3.9-2.2 6 4 5.4 6.4-.7 7.8-1.9 4.9-4.6l-2.2-2.1 2.2-3.5c1.2-2 2-4.4 1.8-5.3-.2-1.3-.9-.8-2.5 2-2.5 4.2-4.3 4.8-4.3 1.4C13 8.3 17.3 5 20.4 5c.9 0 1.6-.5 1.6-1 0-.72-.722-.997-1.786-.953zM13.388 17.7c.487-.025.912.15 1.312.5 2.1 1.7 1.5 2.8-1.7 2.8-3.4 0-3.8-.7-1.3-2.6.65-.45 1.2-.675 1.688-.7z"/></svg>