<svg xmlns="http://www.w3.org/2000/svg" width="231.57" height="219.688"><path d="M50.565 188.648s-1.194-9.317 0-13.975c.76-2.966 2.39-6.57 12.66-6.57 10.274 0 13.232 3.744 14.096 6.57 1.315 4.3-1.433 15.05-1.433 15.05l-25.322-1.075" fill="#352115"/><path d="M54.686 190.38c0 1.88-1.524 3.403-3.404 3.403s-3.404-1.524-3.404-3.404c0-1.882 1.524-3.404 3.404-3.404s3.404 1.522 3.404 3.403M78.874 190.38c0 1.88-1.524 3.403-3.405 3.403-1.88 0-3.405-1.524-3.405-3.404 0-1.882 1.524-3.404 3.404-3.404s3.404 1.522 3.404 3.403" fill="#f09f74"/><path d="M76.535 219.688H50.663s-.54-11.066.52-26.43c1.06-15.37 2.54-16.94 2.54-16.94h19.754s1.087 2.174 2.435 17.354c1.35 15.18.623 26.016.623 26.016" fill="#f9af83"/><path d="M77.56 219.688H49.238l.717-19.455 13.75 4.06 13.068-3.99.787 19.385" fill="#3d5b7a"/><path d="M53.073 177.06s8.453 7.592 22.933 5.376l-2.508-7.763-19.588-.358-.837 2.747" fill="#352115"/><path d="M59.606 187.574c0 .94-.762 1.7-1.7 1.7-.942 0-1.704-.76-1.704-1.7s.762-1.7 1.703-1.7c.94 0 1.7.76 1.7 1.7M70.725 187.574c0 .94-.76 1.7-1.7 1.7s-1.703-.76-1.703-1.7.762-1.7 1.702-1.7 1.7.76 1.7 1.7" fill="#1a1412"/><path d="M64.13 194.443l-.1-.016-.958-.32c-.21-.07-.372-.22-.47-.434-.412-.894.398-2.94.492-3.17.065-.16.246-.237.407-.172.162.065.238.248.173.408-.314.774-.73 2.184-.504 2.674l.1.102.957.32c.164.054.252.23.198.395-.044.13-.166.213-.297.213" fill="#a8785c"/><path d="M64 200.08c-.148 0-.3-.002-.454-.004-3.85-.078-6.592-.954-8.15-2.605-1.282-1.36-1.244-2.747-1.24-2.806.008-.257.198-.49.485-.45.26.01.46.226.45.484 0 .05-.008 1.09 1.014 2.155.952.993 3.02 2.195 7.46 2.285 8.547.175 8.818-4.605 8.82-4.653.01-.258.22-.452.484-.452.26.008.46.226.453.484-.002.057-.298 5.562-9.32 5.562" fill="#a8785c"/><path d="M156.093 188.767s-1.93-8.746-1.195-13.498c1.315-8.48 9.2-6.928 10.99-5.256 2.868-2.15 14.214-4.42 16.244 4.66 1.484 6.63-1.432 14.69-1.432 14.69l-24.607-.597" fill="#4d2e1c"/><path d="M159.378 188.827c0 1.88-1.523 3.403-3.405 3.403-1.88 0-3.402-1.524-3.402-3.403 0-1.88 1.523-3.405 3.403-3.405 1.88 0 3.405 1.525 3.405 3.405M183.566 188.827c0 1.88-1.524 3.403-3.405 3.403-1.88 0-3.403-1.524-3.403-3.403 0-1.88 1.524-3.405 3.404-3.405 1.882 0 3.406 1.525 3.406 3.405" fill="#f09f74"/><path d="M181.266 219.688h-25.873s-.54-11.066.52-26.43c1.06-15.37 2.54-16.94 2.54-16.94h19.753s1.09 2.174 2.436 17.354c1.347 15.18.624 26.016.624 26.016" fill="#f9af83"/><path d="M182.232 219.688h-27.75l.463-19.455 13.63 5.495 13.188-5.425.47 19.385" fill="#23b59d"/><path d="M154.863 202.864l.08-2.63 13.75 4.658 13.07-4.59.09 2.915-12.91 4.642-14.08-4.996" fill="#3d5b7a"/><path d="M156.616 180.283s4.193-.73 6.108-3.374c0 0 6.197 4.74 17.317 4.102l-1.548-7.2-20.874-.09-1.002 6.56" fill="#4d2e1c"/><path d="M172.408 209.503h6.277s1.363 5.102-3.275 5.102c-4.385 0-3.002-5.102-3.002-5.102M161.157 183.567c-1.405 0-2.55 1.143-2.55 2.55 0 1.404 1.145 2.548 2.55 2.548h2.494c1.407 0 2.55-1.144 2.55-2.548 0-1.407-1.143-2.55-2.55-2.55h-2.493zm2.494 6.348h-2.493c-2.095 0-3.8-1.705-3.8-3.798 0-2.096 1.705-3.8 3.8-3.8h2.494c2.096 0 3.8 1.704 3.8 3.8 0 2.093-1.704 3.798-3.8 3.798M172.825 183.567c-1.407 0-2.55 1.143-2.55 2.55 0 1.404 1.143 2.548 2.55 2.548h2.493c1.405 0 2.55-1.144 2.55-2.548 0-1.407-1.145-2.55-2.55-2.55h-2.494zm2.493 6.348h-2.494c-2.095 0-3.798-1.705-3.798-3.798 0-2.096 1.703-3.8 3.798-3.8h2.494c2.095 0 3.8 1.704 3.8 3.8 0 2.093-1.705 3.798-3.8 3.798" fill="#3d5b7a"/><path d="M163.33 186.237c0 .94-.76 1.703-1.7 1.703-.942 0-1.702-.763-1.702-1.703 0-.94.76-1.7 1.702-1.7.94 0 1.7.76 1.7 1.7M174.45 186.237c0 .94-.76 1.703-1.7 1.703s-1.702-.763-1.702-1.703c0-.94.762-1.7 1.702-1.7s1.7.76 1.7 1.7" fill="#1a1412"/><path d="M169.09 193.797l-.1-.017-.958-.318c-.21-.07-.37-.222-.47-.437-.41-.893.4-2.94.492-3.17.065-.16.248-.237.408-.17.16.064.236.247.17.407-.313.772-.728 2.182-.503 2.674l.1.102.958.32c.164.055.253.232.198.395-.044.13-.167.214-.297.214M169.126 200.322c-.15 0-.303-.002-.458-.004-3.85-.077-6.592-.954-8.15-2.605-1.28-1.36-1.244-2.746-1.24-2.805.01-.26.204-.477.485-.45.258.01.46.226.45.484 0 .048-.01 1.088 1.013 2.154.952.993 3.018 2.196 7.46 2.284 8.508.18 8.81-4.458 8.82-4.656.012-.256.21-.455.487-.447.258.01.46.225.45.482-.002.057-.3 5.562-9.317 5.562" fill="#a8785c"/><path d="M132.086 169.416s3.866-5.79 10.57-4.06c3.703.954 6.928 4.538 6.092 10.87-.44 3.333-1.554 9.196 2.866 9.137 0 0-3.046 15.766-16.125 4.48-9.146-7.894-3.404-20.426-3.404-20.426" fill="#1a1412"/><path d="M118.768 188.767s-1.846-8.733-1.196-13.498c.717-5.256 5.615-9.077 11.707-5.972 9.434-4.3 14.867 1.68 15.527 5.375 1.192 6.687-1.434 15.05-1.434 15.05l-24.605-.956" fill="#352115"/><path d="M122.53 187.87c0 1.88-1.524 3.405-3.404 3.405s-3.404-1.525-3.404-3.404c0-1.88 1.524-3.403 3.404-3.403s3.404 1.523 3.404 3.404M146.717 187.87c0 1.88-1.525 3.405-3.404 3.405-1.88 0-3.405-1.525-3.405-3.404 0-1.88 1.525-3.403 3.405-3.403s3.404 1.523 3.404 3.404" fill="#f09f74"/><path d="M144.206 219.688h-25.873s-.54-11.066.52-26.43c1.06-15.37 2.54-16.94 2.54-16.94h19.753s1.09 2.174 2.437 17.354c1.346 15.18.623 26.016.623 26.016" fill="#f9af83"/><path d="M145.523 219.688h-28.32l.715-19.455 13.75 4.06 13.07-3.99.785 19.385" fill="#a563b8"/><path d="M128.023 176.464c0 2.26-1.832 4.09-4.09 4.09-2.26 0-4.09-1.83-4.09-4.09 0-2.258 1.83-4.092 4.09-4.092 2.258 0 4.09 1.834 4.09 4.092" fill="#352115"/><path d="M135.28 176.464c0 2.26-1.832 4.09-4.09 4.09-2.26 0-4.09-1.83-4.09-4.09 0-2.258 1.83-4.092 4.09-4.092 2.258 0 4.09 1.834 4.09 4.092" fill="#352115"/><path d="M142.537 176.464c0 2.26-1.833 4.09-4.09 4.09-2.26 0-4.09-1.83-4.09-4.09 0-2.258 1.83-4.092 4.09-4.092 2.258 0 4.09 1.834 4.09 4.092" fill="#352115"/><path d="M132.026 208.355c0 .397-.32.717-.717.717-.397 0-.717-.32-.717-.717 0-.396.32-.716.716-.716.396 0 .716.32.716.715M132.026 210.863c0 .396-.32.718-.717.718-.397 0-.717-.32-.717-.717 0-.395.32-.717.716-.717.396 0 .716.322.716.717" fill="#fff"/><path d="M127.783 186.48c0 .942-.76 1.702-1.7 1.702s-1.702-.76-1.702-1.702c0-.94.762-1.7 1.702-1.7s1.7.76 1.7 1.7M138.903 186.48c0 .942-.76 1.702-1.7 1.702s-1.702-.76-1.702-1.702c0-.94.762-1.7 1.703-1.7.94 0 1.7.76 1.7 1.7" fill="#1a1412"/><path d="M132.752 192.945l-.1-.016-.956-.32c-.23-.077-.41-.24-.516-.472-.382-.828.25-2.435.324-2.615.065-.16.248-.24.408-.172.16.066.237.248.17.408-.236.586-.538 1.68-.335 2.12l.146.14.958.32c.163.054.252.23.198.394-.044.13-.166.213-.296.213M132.287 198.44l-.33-.005c-2.788-.056-4.778-.696-5.916-1.902-.954-1.013-.924-2.057-.923-2.1.01-.26.22-.49.486-.45.258.01.458.223.45.48 0 .133.04 2.917 5.923 3.035 5.92.15 6.16-3.064 6.167-3.2.013-.257.235-.46.488-.445.258.01.458.225.45.482-.002.042-.22 4.104-6.793 4.104" fill="#a8785c"/><path d="M110.37 219.688H84.5s-.542-11.066.52-26.43c1.06-15.37 2.54-16.94 2.54-16.94h19.752s1.086 2.174 2.435 17.354c1.348 15.18.623 26.016.623 26.016" fill="#f9af83"/><path d="M111.164 219.688H83.412l.465-19.455s5.627 2.627 13.75 2.627c8.12 0 13.067-2.557 13.067-2.557l.47 19.385" fill="#35b5ed"/><path d="M83.796 203.987l.08-3.754s5.628 2.06 13.75 2.06 13.068-1.99 13.068-1.99l.092 4.04s-3.246 1.774-13.638 1.775c-10.84 0-13.352-2.13-13.352-2.13" fill="#3d5b7a"/><path d="M106.04 171.72c-2.044-1.173-4.995-1.946-9.25-1.946-3.045 0-5.38.445-7.166 1.168-7.385 1.925-9.208 17.534-9.06 24.514.116 5.493 3.41 7.02 4.998 7.165 3.942.36 5.495-3.224 5.495-3.224-5.614.12-4.32-15.047-3.03-19.873 3.36 1.214 10.362 2.857 18.41-.373 1.28 4.68 4.208 20.128-2.003 19.77 0 0 1.902 3.463 4.63 3.463 1.598 0 4.82-1.434 4.937-6.927.134-6.378-1.896-20.842-7.96-23.735" fill="#4d2e1c"/><path d="M91.932 184.554c-1.732 0-3.14 1.41-3.14 3.14 0 1.735 1.408 3.144 3.14 3.144 1.733 0 3.142-1.41 3.142-3.143 0-1.73-1.41-3.14-3.142-3.14zm0 7.534c-2.42 0-4.39-1.97-4.39-4.393 0-2.42 1.97-4.39 4.39-4.39 2.422 0 4.392 1.97 4.392 4.39 0 2.423-1.97 4.393-4.392 4.393M102.87 184.554c-1.732 0-3.14 1.41-3.14 3.14 0 1.735 1.408 3.144 3.14 3.144 1.733 0 3.142-1.41 3.142-3.143 0-1.73-1.41-3.14-3.142-3.14zm0 7.534c-2.422 0-4.39-1.97-4.39-4.393 0-2.42 1.968-4.39 4.39-4.39 2.422 0 4.392 1.97 4.392 4.39 0 2.423-1.97 4.393-4.392 4.393" fill="#3d5b7a"/><path d="M93.695 186.846c0 .94-.762 1.7-1.702 1.7s-1.7-.76-1.7-1.7.76-1.702 1.7-1.702 1.702.76 1.702 1.702M104.814 186.846c0 .94-.762 1.7-1.7 1.7-.94 0-1.703-.76-1.703-1.7s.763-1.702 1.703-1.702c.94 0 1.7.76 1.7 1.702" fill="#1a1412"/><path d="M98.237 194.403l-.1-.015-.956-.32c-.25-.083-.438-.257-.542-.5-.326-.773.29-2.092.36-2.24.076-.156.262-.223.418-.146.155.073.22.26.146.416-.222.46-.512 1.338-.348 1.725l.165.153.956.32c.164.053.252.23.198.395-.044.13-.165.213-.297.213M97.97 199.203l-.247-.002c-2.044-.04-3.51-.514-4.354-1.41-.714-.756-.706-1.523-.702-1.608.01-.26.215-.495.485-.45.258.01.458.224.45.48.002.09.053 1.97 4.138 2.05 4.146.09 4.303-2.087 4.308-2.178.016-.256.25-.466.49-.443.257.013.456.226.447.482-.005.13-.164 3.08-5.015 3.08" fill="#a8785c"/><path d="M16.188 124.37h-9.96c-1.663 0-3.227-.648-4.404-1.825C.647 121.367 0 119.803 0 118.14v-15.77c0-1.664.647-3.227 1.823-4.405C3 96.79 4.563 96.14 6.23 96.14h24.068c.996 0 1.932-.387 2.637-1.092.704-.704 1.092-1.64 1.092-2.636v-4.565h2.5v4.565c0 1.662-.648 3.227-1.824 4.405-1.178 1.176-2.742 1.824-4.405 1.824H6.228c-.996 0-1.932.39-2.637 1.093-.703.705-1.09 1.64-1.09 2.638v15.77c0 .995.387 1.933 1.092 2.638.703.704 1.64 1.09 2.637 1.09h9.958v2.5" fill="#3d5b7a"/><path d="M27.808 84.532h-17.43c-.997 0-1.936-.39-2.643-1.097-.707-.703-1.096-1.645-1.096-2.643v-7.884c0-1 .388-1.94 1.095-2.645.706-.706 1.646-1.095 2.644-1.095h11.618c.996 0 1.933-.39 2.638-1.093.703-.705 1.092-1.642 1.092-2.637v-9.13h2.5v9.13c0 1.662-.648 3.227-1.824 4.405-1.18 1.177-2.743 1.825-4.406 1.825h-11.62c-.33 0-.64.13-.876.364-.234.233-.363.545-.363.876v7.884c0 .33.128.64.36.875.237.235.55.365.88.365h17.428v2.5" fill="#23b59d"/><path d="M48.3 15.85h-2.5c-.347 0-.626-.278-.626-.625 0-.345.28-.625.625-.625h2.5c.345 0 .624.28.624.625 0 .347-.28.625-.625.625zm6.25 0h-2.5c-.347 0-.626-.278-.626-.625 0-.345.28-.625.625-.625h2.5c.345 0 .624.28.624.625 0 .347-.28.625-.625.625zm-14.692 1.253c-.172 0-.344-.07-.468-.21-.23-.26-.205-.653.053-.88.705-.626 1.562-1.066 2.477-1.274.336-.077.67.135.748.472.076.337-.136.67-.472.747-.71.16-1.377.5-1.924.987-.12.105-.267.156-.414.156zm-1.676 5.766c-.346 0-.625-.28-.625-.626v-2.04c0-.17.007-.345.024-.516.032-.344.345-.6.68-.566.344.032.597.336.566.68-.013.133-.02.268-.02.403v2.04c0 .344-.28.624-.624.624zm-6.468 4.6h-2.5c-.345 0-.625-.28-.625-.625s.28-.625.624-.625h2.5c.346 0 .625.28.625.625s-.28.625-.626.625zm3.978 0h-.228c-.345 0-.625-.28-.625-.625s.28-.625.624-.625h.227c.5 0 .968-.193 1.32-.546l.16-.18c.21-.27.602-.322.875-.11.273.213.322.605.11.878l-.26.296c-.588.59-1.37.912-2.204.912zm-12.728.008c-.33 0-.606-.26-.624-.59-.017-.346.247-.64.592-.66l.306-.008h2.226c.346 0 .625.28.625.625s-.28.625-.626.625l-2.466.008h-.034zm-4.534 3.69l-.16-.02c-.334-.09-.533-.43-.445-.764.24-.907.71-1.747 1.362-2.43.24-.25.635-.257.884-.02.25.24.26.634.02.884-.504.53-.87 1.182-1.056 1.885-.075.28-.327.466-.604.466zm-.167 6.236c-.346 0-.625-.28-.625-.625v-2.5c0-.347.28-.626.625-.626s.625.28.625.625v2.5c0 .344-.28.624-.625.624zm0 6.25c-.346 0-.625-.28-.625-.625v-2.5c0-.347.28-.626.625-.626s.625.28.625.625v2.5c0 .344-.28.624-.625.624" fill="#3d5b7a"/><path d="M58.41 66.273h-7.157c-1.664 0-3.228-.647-4.404-1.825-1.178-1.176-1.826-2.74-1.826-4.405V43.548c0-1.664.648-3.23 1.824-4.405 1.178-1.178 2.742-1.825 4.405-1.825h3.424c.997 0 1.933-.388 2.637-1.093.704-.703 1.092-1.64 1.092-2.637V19.273h2.5v14.315c0 1.664-.647 3.23-1.823 4.406-1.178 1.176-2.742 1.824-4.406 1.824h-3.424c-.996 0-1.932.387-2.637 1.092-.704.704-1.092 1.642-1.092 2.638v16.495c0 .996.388 1.932 1.092 2.637.705.704 1.64 1.093 2.637 1.093h7.158v2.5" fill="#a563b8"/><path d="M96.698 140.574h-2.5V125.09c0-.33-.128-.642-.362-.876-.236-.233-.547-.363-.877-.363H79.574c-.998 0-1.937-.388-2.644-1.096-.704-.704-1.094-1.642-1.094-2.644v-5.602c0-1 .39-1.94 1.096-2.644.707-.706 1.645-1.095 2.643-1.095h17.118v2.5H79.575c-.33 0-.642.128-.877.363-.233.232-.362.544-.362.875v5.602c0 .333.128.643.36.875.238.237.55.366.88.366h13.383c.996 0 1.935.39 2.642 1.095.707.707 1.096 1.645 1.096 2.645v15.484" fill="#35b5ed"/><path d="M61.213 75.608H58.95c-.346 0-.626-.28-.626-.625 0-.346.28-.625.625-.625h2.263c.345 0 .625.28.625.625s-.28.625-.625.625zm-8.292 1.006c-.188 0-.375-.086-.498-.25-.208-.274-.154-.665.12-.874.75-.567 1.64-.938 2.57-1.073.342-.055.66.186.71.527.05.343-.188.66-.53.71-.723.105-1.413.393-1.995.833-.112.085-.245.127-.376.127zm-1.978 5.623c-.345 0-.625-.28-.625-.625v-1.65c0-.32.027-.638.08-.953.06-.34.387-.566.723-.51.34.058.57.38.51.72-.042.247-.062.494-.062.742v1.65c0 .345-.28.625-.625.625zm0 6.25c-.345 0-.625-.28-.625-.625v-2.5c0-.347.28-.625.625-.625.346 0 .625.278.625.625v2.5c0 .345-.28.625-.625.625zm.53 6.166c-.227 0-.448-.126-.558-.344-.39-.776-.596-1.647-.597-2.52v-.178c0-.347.28-.625.625-.625.346 0 .625.278.625.625v.177c0 .678.162 1.355.464 1.958.156.307.032.684-.277.84l-.28.065zm5.2 2.74h-.75c-.66 0-1.31-.115-1.93-.343-.325-.118-.49-.477-.372-.8.12-.325.48-.493.8-.372.483.175.988.265 1.502.265h.75c.345 0 .624.28.624.625s-.28.625-.625.625zm6.25 0h-2.5c-.346 0-.626-.28-.626-.625s.28-.625.625-.625h2.5c.347 0 .626.28.626.625s-.28.625-.625.625zm6.25 0h-2.5c-.346 0-.626-.28-.626-.625s.28-.625.625-.625h2.5c.347 0 .626.28.626.625s-.28.625-.625.625zm6.25 0h-2.5c-.346 0-.626-.28-.626-.625s.28-.625.625-.625h2.5c.347 0 .626.28.626.625s-.28.625-.625.625zm6.25 0h-2.5c-.346 0-.626-.28-.626-.625s.28-.625.625-.625h2.5c.347 0 .626.28.626.625s-.28.625-.625.625zm6.25 0h-2.5c-.346 0-.626-.28-.626-.625s.28-.625.625-.625h2.5c.347 0 .626.28.626.625s-.28.625-.625.625zm6.25 0h-2.5c-.346 0-.626-.28-.626-.625s.28-.625.625-.625h2.5c.347 0 .626.28.626.625s-.28.625-.625.625zm6.25 0h-2.5c-.346 0-.626-.28-.626-.625s.28-.625.625-.625h2.5c.347 0 .626.28.626.625s-.28.625-.625.625zm4.738 3.426c-.264 0-.508-.168-.594-.43-.213-.653-.57-1.232-1.06-1.72l-.104-.102c-.253-.235-.268-.63-.033-.884.234-.253.63-.27.882-.034l.14.136c.628.628 1.087 1.373 1.362 2.213.107.328-.072.68-.4.788l-.194.03zm.248 6.22c-.346 0-.625-.277-.625-.624v-2.5c0-.344.28-.625.625-.625s.625.282.625.626v2.5c0 .347-.28.625-.625.625M135.597 84.947h-8.092c-.998 0-1.937-.39-2.643-1.095-.707-.707-1.096-1.647-1.096-2.645v-8.714c0-1 .39-1.94 1.095-2.644.706-.708 1.646-1.097 2.645-1.097h28.945c.996 0 1.932-.39 2.637-1.093.704-.705 1.093-1.642 1.093-2.637v-7.78h2.5v7.78c0 1.662-.65 3.227-1.826 4.405-1.176 1.176-2.74 1.825-4.405 1.825h-28.945c-.33 0-.642.127-.875.362-.235.235-.364.547-.364.878v8.714c0 .33.13.642.362.876.235.235.547.364.877.364h8.092v2.5" fill="#3d5b7a"/><path d="M130.112 26.122h-2.5c-.346 0-.625-.28-.625-.625s.28-.625.625-.625h2.5c.345 0 .625.28.625.625s-.28.625-.625.625zm6.12.557c-.14 0-.28-.047-.395-.142-.33-.27-.746-.416-1.174-.416h-.8c-.347 0-.626-.28-.626-.625s.28-.625.625-.625h.8c.716 0 1.414.247 1.965.697.267.218.307.612.09.88-.124.15-.304.23-.485.23zm.92 5.968c-.344 0-.624-.28-.624-.625v-2.5c0-.345.28-.625.625-.625s.625.28.625.625v2.5c0 .346-.28.625-.625.625zm-.31 6.197l-.305-.08c-.3-.166-.41-.547-.243-.85.154-.273.234-.586.234-.903v-1.24c0-.344.28-.624.625-.624s.625.28.625.625v1.24c0 .527-.135 1.05-.39 1.51-.115.206-.33.322-.547.322zm-3.28 1.282h-2.5c-.344 0-.624-.28-.624-.625s.28-.625.625-.625h2.5c.345 0 .625.28.625.625s-.28.625-.625.625zm-8.67.408c-.2 0-.4-.098-.52-.28-.19-.29-.11-.677.177-.867.507-.334 1.098-.51 1.71-.51h1.053c.345 0 .625.28.625.624 0 .345-.28.625-.625.625h-1.052c-.366 0-.72.106-1.023.305-.106.07-.225.103-.344.103zm-1.123 5.867c-.346 0-.626-.28-.626-.625v-2.5c0-.345.28-.625.625-.625.346 0 .624.28.624.625v2.5c0 .346-.278.625-.625.625zm1.208 5.82l-.322-.09c-.217-.13-.418-.288-.598-.47-.57-.565-.89-1.32-.912-2.12-.008-.345.265-.632.61-.64.358.017.632.265.64.61.012.477.206.928.546 1.267.11.11.23.203.36.282.295.177.39.56.21.857-.115.193-.323.302-.534.302zm6.186.355h-2.5c-.346 0-.625-.28-.625-.625 0-.347.278-.625.624-.625h2.5c.345 0 .625.278.625.625 0 .345-.28.625-.626.625zm6.25 0h-2.5c-.346 0-.625-.28-.625-.625 0-.347.278-.625.624-.625h2.5c.345 0 .625.278.625.625 0 .345-.28.625-.626.625zm6.25 0h-2.5c-.346 0-.625-.28-.625-.625 0-.347.278-.625.624-.625h2.5c.345 0 .625.278.625.625 0 .345-.28.625-.626.625zm6.25 0h-2.5c-.346 0-.625-.28-.625-.625 0-.347.278-.625.624-.625h2.5c.345 0 .625.278.625.625 0 .345-.28.625-.626.625" fill="#a563b8"/><path d="M107.28 46.66h-2.5v-8.713c0-.332-.13-.643-.363-.877-.235-.236-.546-.365-.877-.365h-3.424c-1 0-1.937-.388-2.643-1.095-.707-.706-1.096-1.645-1.096-2.645V16.16c0-.332-.13-.642-.363-.877-.235-.234-.547-.364-.877-.364h-4.98c-.33 0-.642.13-.877.363-.233.234-.362.545-.362.876v9.025c0 1-.39 1.94-1.097 2.645-.705.707-1.644 1.095-2.643 1.095h-5.29c-.998 0-1.937-.388-2.644-1.095-.707-.706-1.096-1.645-1.096-2.645V11.18c0-1.663.647-3.228 1.823-4.405 1.18-1.177 2.743-1.825 4.407-1.825h29.255c1.664 0 3.228.648 4.405 1.824 1.177 1.178 1.825 2.74 1.825 4.405v7.47h-2.5v-7.47c0-.997-.388-1.933-1.092-2.637-.704-.705-1.64-1.093-2.638-1.093H82.377c-.997 0-1.934.388-2.638 1.093-.705.704-1.093 1.64-1.093 2.636v14.005c0 .332.128.643.362.877.234.233.546.363.876.363h5.29c.332 0 .643-.128.878-.363.235-.234.363-.547.363-.877V16.16c0-1 .39-1.938 1.096-2.645.706-.707 1.645-1.096 2.644-1.096h4.98c1 0 1.937.388 2.644 1.095.708.707 1.097 1.647 1.097 2.644v16.805c0 .332.129.644.363.878.234.234.545.362.876.362h3.424c1 0 1.94.39 2.645 1.098.706.704 1.095 1.644 1.095 2.644v8.713" fill="#23b59d"/><path d="M184.15 96.773h-20.23c-1.664 0-3.23-.648-4.407-1.824-1.176-1.18-1.824-2.743-1.824-4.406v-6.847c0-1.663.647-3.228 1.823-4.405 1.18-1.178 2.743-1.825 4.406-1.825h43.26c.997 0 1.933-.39 2.638-1.093.704-.704 1.09-1.64 1.09-2.636v-8.093h2.5v8.093c0 1.662-.646 3.227-1.822 4.405-1.178 1.176-2.742 1.824-4.407 1.824h-43.26c-.997 0-1.934.388-2.64 1.092-.703.704-1.09 1.64-1.09 2.637v6.847c0 .996.387 1.933 1.092 2.638.704.703 1.64 1.09 2.638 1.09h20.23v2.5" fill="#35b5ed"/><path d="M200.956 61.29h-1.25c-.345 0-.625-.278-.625-.625 0-.345.28-.625.626-.625h1.25c.345 0 .625.28.625.625 0 .347-.28.625-.624.625M212.258 18.34h-2.505c-.346 0-.625-.278-.625-.625 0-.345.28-.625.625-.625h2.505c.346 0 .625.28.625.625 0 .347-.28.625-.625.625zm5.888 1.433c-.16 0-.316-.06-.44-.18-.523-.515-1.17-.89-1.873-1.09-.332-.093-.526-.438-.432-.77.094-.333.443-.524.77-.433.906.254 1.74.74 2.415 1.403.244.242.248.637.006.884-.122.125-.283.186-.444.186zm1.484 5.865c-.346 0-.626-.28-.626-.625l-.002-2.48c-.014-.346.255-.638.6-.65.35-.028.635.254.65.6l.002 2.53c0 .346-.28.625-.625.625zm0 6.266c-.346 0-.626-.28-.626-.625v-2.507c0-.345.28-.625.625-.625.344 0 .624.28.624.625v2.506c0 .345-.28.624-.625.624zm-1.96 5.648c-.188 0-.373-.084-.497-.244-.21-.274-.157-.668.116-.876.152-.118.3-.247.44-.387.383-.383.687-.827.904-1.317.14-.316.508-.456.824-.32.316.14.46.51.32.825-.28.632-.67 1.202-1.165 1.696-.18.178-.367.343-.564.494-.114.086-.247.128-.38.128zm-22.334 1.02h-2.507c-.346 0-.626-.28-.626-.625 0-.347.28-.625.625-.625h2.506c.345 0 .625.278.625.625 0 .345-.28.625-.624.625zm6.266 0h-2.506c-.347 0-.625-.28-.625-.625 0-.347.28-.625.626-.625h2.506c.345 0 .625.278.625.625 0 .345-.28.625-.625.625zm6.266 0h-2.506c-.345 0-.625-.28-.625-.625 0-.347.28-.625.625-.625h2.506c.345 0 .625.278.625.625 0 .345-.28.625-.625.625zm6.266 0h-2.506c-.346 0-.625-.28-.625-.625 0-.347.28-.625.625-.625h2.507c.345 0 .625.278.625.625 0 .345-.28.625-.625.625zm-27.276.95c-.136 0-.272-.043-.387-.134-.27-.215-.315-.61-.1-.88l.243-.273c.59-.59 1.372-.913 2.205-.913h.252c.346 0 .625.278.625.625 0 .345-.28.625-.625.625h-.252c-.498 0-.967.193-1.318.545l-.152.17c-.122.155-.305.236-.49.236zm-.53 6.147c-.346 0-.626-.28-.626-.626v-2.506c0-.345.28-.625.625-.625.346 0 .625.28.625.625v2.506c0 .345-.28.625-.625.625zm-1.99 5.3c-.29 0-.55-.205-.61-.5-.07-.338.148-.668.486-.738.357-.073.683-.25.942-.508.19-.19.333-.41.426-.658.122-.324.485-.488.805-.367.324.12.486.482.366.804-.157.417-.397.788-.713 1.104-.433.432-.977.725-1.574.85l-.126.01zm-5.61 1.61l-.235-.046c-.32-.13-.475-.492-.346-.812.156-.39.388-.74.688-1.04.448-.45 1.016-.748 1.64-.86.337-.068.666.162.727.502.063.34-.164.665-.504.728-.37.067-.71.245-.98.513-.18.18-.318.39-.41.623-.1.244-.333.392-.58.392zm-.18 6.232c-.347 0-.626-.27-.626-.614v-2.506c0-.345.28-.625.625-.625s.625.28.625.625v2.483c0 .345-.28.637-.625.637zm4.865 2.478l-2.54-.005c-.346-.018-.61-.313-.59-.658.02-.345.3-.608.66-.59l2.47.003c.346 0 .625.28.625.625 0 .347-.28.625-.625.625zm6.266 0h-2.507c-.345 0-.625-.278-.625-.625 0-.345.28-.625.625-.625h2.506c.346 0 .624.28.624.625 0 .347-.278.625-.625.625zm6.266 0h-2.506c-.347 0-.625-.278-.625-.625 0-.345.278-.625.625-.625h2.506c.346 0 .625.28.625.625 0 .347-.278.625-.624.625M205.94 18.34h-1.25c-.345 0-.624-.278-.624-.625 0-.345.28-.625.625-.625h1.25c.346 0 .626.28.626.625 0 .347-.28.625-.625.625" fill="#3d5b7a"/><path d="M172.322 36.083h-4.67c-1.66 0-3.226-.647-4.404-1.824-1.176-1.177-1.823-2.742-1.823-4.406v-17.43h2.5v17.43c0 .997.387 1.933 1.092 2.638.704.704 1.64 1.09 2.636 1.09h4.67c.33 0 .64-.128.875-.36.235-.235.364-.548.364-.88v-5.6c0-1 .39-1.94 1.095-2.645.708-.706 1.646-1.095 2.645-1.095h12.45v2.5H177.3c-.33 0-.642.13-.877.364-.234.233-.363.545-.363.876v5.6c0 1-.39 1.94-1.095 2.646-.706.706-1.645 1.095-2.645 1.095" fill="#a563b8"/><path d="M154.276 43.548h-2.5V32.654c0-.33-.13-.642-.363-.876-.234-.234-.546-.362-.876-.362H146.8c-.998 0-1.937-.39-2.643-1.097-.706-.706-1.095-1.646-1.095-2.644V11.492c0-1 .39-1.94 1.096-2.645.705-.706 1.644-1.095 2.643-1.095h7.47v2.5h-7.47c-.33 0-.64.13-.876.362-.233.235-.362.545-.362.878v16.184c0 .33.13.64.362.875.235.236.547.366.877.366h3.737c.997 0 1.936.388 2.642 1.093.707.707 1.096 1.646 1.096 2.644v10.894" fill="#35b5ed"/><path d="M133.273 119.247h-2.5v-6.46c0-1 .39-1.943 1.1-2.652.706-.706 1.65-1.097 2.65-1.097h25.21c.333 0 .646-.13.883-.366.236-.236.366-.55.366-.884v-2.5c0-.334-.13-.647-.365-.884-.237-.236-.55-.366-.885-.366h-32.5c-1 0-1.944-.39-2.65-1.1-.71-.706-1.1-1.648-1.1-2.65v-1.666c0-1.003.39-1.945 1.1-2.653.706-.708 1.65-1.098 2.65-1.098h11.25c.334 0 .647-.13.884-.367.236-.237.366-.55.366-.884v-3.332h2.5v3.333c0 1.003-.39 1.945-1.1 2.653-.706.708-1.65 1.1-2.65 1.1h-11.25c-.334 0-.647.13-.884.364-.236.236-.366.55-.366.885v1.666c0 .334.13.647.365.884.237.236.55.366.885.366h32.5c1 0 1.944.39 2.65 1.1.71.706 1.1 1.648 1.1 2.65v2.5c0 1.002-.39 1.944-1.1 2.652-.706.708-1.65 1.098-2.65 1.098h-25.21c-.333 0-.646.13-.88.365-.237.238-.37.55-.37.885v6.46" fill="#a563b8"/><path d="M66.4 143.898c0 3.437-2.787 6.224-6.225 6.224H18.263c-3.438 0-6.224-2.787-6.224-6.224v-26.974c0-3.437 2.785-6.223 6.223-6.223h41.912c3.438 0 6.225 2.787 6.225 6.224v26.974" fill="#3d5b7a"/><path d="M18.263 146.372c-1.364 0-2.474-1.11-2.474-2.474v-26.974c0-1.364 1.11-2.473 2.473-2.473h41.912c1.365 0 2.475 1.11 2.475 2.474v26.974c0 1.364-1.11 2.474-2.475 2.474H18.263" fill="#e9f1f0"/><path d="M108.313 151.193c0 1.574-1.277 2.85-2.852 2.85H86.267c-1.574 0-2.85-1.276-2.85-2.85v-12.355c0-1.574 1.276-2.85 2.85-2.85h19.197c1.574 0 2.85 1.276 2.85 2.85v12.355" fill="#35b5ed"/><path d="M86.265 151.398c-.114 0-.206-.092-.206-.205v-12.355c0-.112.09-.205.205-.205h19.196c.115 0 .207.093.207.205v12.355c0 .113-.092.205-.205.205H86.264" fill="#e9f1f0"/><path d="M182.018 114.52h-2.5c-.346 0-.625-.28-.625-.626s.28-.625.625-.625h2.5c.345 0 .625.278.625.624 0 .345-.28.625-.625.625zm6.25 0h-2.5c-.346 0-.625-.28-.625-.626s.28-.625.625-.625h2.5c.345 0 .625.278.625.624 0 .345-.28.625-.625.625zm4.363 0h-.612c-.346 0-.625-.28-.625-.626s.28-.625.625-.625h.613c.346 0 .626.278.626.624 0 .345-.28.625-.625.625zm-19.07.944c-.137 0-.274-.045-.39-.135-.27-.216-.313-.61-.1-.88l.238-.267c.592-.59 1.374-.914 2.205-.914h.255c.345 0 .625.278.625.624 0 .345-.28.625-.625.625h-.255c-.497 0-.966.193-1.318.545l-.145.163c-.124.156-.307.236-.49.236zm-.537 6.128c-.345 0-.625-.28-.625-.625v-2.5c0-.345.28-.625.625-.625.347 0 .625.28.625.625v2.5c0 .346-.278.625-.625.625zm1.353 5.735l-.284-.07c-.29-.147-.552-.34-.782-.57-.512-.512-.83-1.19-.898-1.913-.03-.343.22-.647.565-.68.35-.03.647.22.68.565.04.438.226.833.537 1.143.14.14.296.254.468.342.306.158.43.534.27.842-.11.216-.33.34-.556.34zm6.207.274h-2.5c-.345 0-.625-.28-.625-.624 0-.346.28-.625.625-.625h2.5c.347 0 .625.28.625.626 0 .344-.278.625-.625.625zm6.25 0h-2.5c-.345 0-.625-.28-.625-.624 0-.346.28-.625.625-.625h2.5c.347 0 .625.28.625.626 0 .344-.278.625-.625.625zm4.553 2.767c-.345 0-.625-.28-.625-.625v-.277c0-.497-.193-.966-.545-1.317l-.148-.132c-.27-.216-.314-.61-.1-.88.215-.27.61-.313.88-.1l.25.227c.59.588.914 1.37.914 2.202v.277c0 .345-.278.625-.624.625zm0 6.25c-.345 0-.625-.28-.625-.625v-2.5c0-.346.28-.625.626-.625s.625.28.625.625v2.5c0 .345-.278.625-.624.625" fill="#23b59d"/><path d="M204.25 149.11c0 1.573-1.277 2.85-2.852 2.85h-19.195c-1.575 0-2.85-1.277-2.85-2.85v-12.356c0-1.573 1.275-2.85 2.85-2.85h19.195c1.575 0 2.852 1.277 2.852 2.85v12.355" fill="#23b59d"/><path d="M182.203 149.314c-.114 0-.206-.092-.206-.205v-12.356c0-.112.092-.205.206-.205h19.195c.114 0 .206.092.206.204v12.355c0 .112-.092.204-.206.204h-19.195" fill="#e9f1f0"/><path d="M166.2 145.602c0 2.914-2.36 5.275-5.273 5.275h-35.514c-2.912 0-5.274-2.36-5.274-5.275v-22.854c0-2.914 2.36-5.275 5.273-5.275h35.514c2.913 0 5.274 2.36 5.274 5.275v22.854" fill="#a563b8"/><path d="M125.413 147.127c-.84 0-1.523-.684-1.523-1.525v-22.854c0-.84.683-1.525 1.523-1.525h35.514c.84 0 1.524.684 1.524 1.525v22.854c0 .84-.683 1.525-1.523 1.525h-35.514" fill="#e9f1f0"/><path d="M43.758 87.69c0 1.334-1.083 2.415-2.417 2.415H25.064c-1.334 0-2.417-1.08-2.417-2.416V77.213c0-1.335 1.083-2.417 2.417-2.417H41.34c1.335 0 2.418 1.082 2.418 2.417V87.69" fill="#23b59d"/><path d="M231.57 116.146c0 3-2.433 5.433-5.432 5.433h-36.58c-3 0-5.432-2.434-5.432-5.434v-23.54c0-3 2.432-5.433 5.43-5.433h36.582c3 0 5.432 2.432 5.432 5.432v23.54" fill="#35b5ed"/><path d="M190.27 118.692c-1.657 0-3.003-1.348-3.003-3.003V93.063c0-1.657 1.346-3.004 3.002-3.004h35.156c1.656 0 3.002 1.347 3.002 3.004v22.625c0 1.654-1.346 3.002-3.002 3.002H190.27" fill="#f7fdfe"/><path d="M36.936 55.318c0 1.915-1.554 3.467-3.47 3.467H10.113c-1.915 0-3.468-1.552-3.468-3.467v-15.03c0-1.918 1.553-3.47 3.468-3.47h23.355c1.915 0 3.47 1.552 3.47 3.47v15.03" fill="#3d5b7a"/><path d="M10.112 56.14c-.454 0-.823-.37-.823-.822v-15.03c0-.456.368-.825.822-.825h23.355c.455 0 .824.37.824.824v15.03c0 .453-.368.823-.823.823H10.112" fill="#f7fdfe"/><path d="M70.134 21.06c0 1.337-1.083 2.422-2.42 2.422H51.418c-1.336 0-2.42-1.085-2.42-2.422V10.572c0-1.335 1.084-2.42 2.42-2.42h16.298c1.336 0 2.42 1.085 2.42 2.42V21.06" fill="#a563b8"/><path d="M112.462 115.518c0 1.154-.936 2.09-2.09 2.09H96.294c-1.154 0-2.09-.936-2.09-2.09v-9.06c0-1.154.936-2.09 2.09-2.09h14.078c1.154 0 2.09.936 2.09 2.09v9.06M150.432 89.063c0 1.155-.936 2.09-2.09 2.09h-14.078c-1.153 0-2.09-.935-2.09-2.09v-9.06c0-1.154.937-2.09 2.09-2.09h14.078c1.154 0 2.09.936 2.09 2.09v9.06" fill="#3d5b7a"/><path d="M129.517 27.97c0 1.354-1.1 2.454-2.458 2.454h-16.54c-1.355 0-2.455-1.1-2.455-2.455V17.323c0-1.357 1.1-2.456 2.456-2.456h16.54c1.357 0 2.457 1.1 2.457 2.456V27.97" fill="#23b59d"/><path d="M117.65 79.807c0 3.752-3.044 6.795-6.796 6.795h-45.75c-3.754 0-6.797-3.043-6.797-6.795V50.363c0-3.753 3.043-6.795 6.796-6.795h45.75c3.753 0 6.797 3.042 6.797 6.795v29.444" fill="#35b5ed"/><path d="M65.103 83.957c-2.29 0-4.15-1.863-4.15-4.15V50.363c0-2.29 1.86-4.15 4.15-4.15h45.75c2.29 0 4.15 1.86 4.15 4.15v29.444c0 2.287-1.86 4.15-4.15 4.15h-45.75" fill="#e9f1f0"/><path d="M229.9 65.475c0 2.283-1.85 4.133-4.133 4.133H197.93c-2.282 0-4.133-1.85-4.133-4.133V47.562c0-2.284 1.85-4.134 4.134-4.134h27.837c2.283 0 4.133 1.85 4.133 4.134v17.913" fill="#3d5b7a"/><path d="M197.93 65.858c-.21 0-.383-.17-.383-.383V47.562c0-.213.172-.384.384-.384h27.837c.21 0 .383.17.383.384v17.913c0 .212-.172.383-.383.383H197.93" fill="#e9f1f0"/><path d="M209.463 27.504c0 1.55-1.255 2.804-2.802 2.804h-18.877c-1.547 0-2.804-1.255-2.804-2.804v-12.15c0-1.546 1.256-2.802 2.803-2.802h18.878c1.548 0 2.803 1.256 2.803 2.803v12.15" fill="#a563b8"/><path d="M177.095 15.713c0 1.626-1.32 2.946-2.947 2.946h-19.836c-1.626 0-2.945-1.32-2.945-2.947V2.947c0-1.627 1.32-2.947 2.945-2.947h19.836c1.627 0 2.947 1.32 2.947 2.947v12.766" fill="#35b5ed"/><path d="M154.312 16.16c-.246 0-.445-.202-.445-.447V2.947c0-.245.2-.447.445-.447h19.836c.247 0 .447.202.447.447v12.766c0 .245-.2.446-.447.446h-19.836" fill="#e9f1f0"/><path d="M171.804 58.618c0 1.862-1.51 3.374-3.373 3.374h-22.716c-1.862 0-3.373-1.512-3.373-3.374v-14.62c0-1.86 1.512-3.373 3.374-3.373h22.717c1.863 0 3.374 1.512 3.374 3.374v14.618" fill="#a563b8"/><path d="M145.714 59.347c-.4 0-.728-.328-.728-.73V44c0-.403.327-.73.73-.73h22.715c.403 0 .73.327.73.73v14.618c0 .4-.327.73-.73.73h-22.716" fill="#f7fdfe"/><path d="M87.254 92.192h-.05c-2.4-.02-4.334-1.67-4.31-3.68l.02-.177-2.73-.024c-.662-.003-1.202-.763-1.21-1.708h16.553v.088c-.004.967-.557 1.756-1.237 1.756h-.005l-2.722-.028.018.174c-.017 1.996-1.953 3.6-4.326 3.6m12.163-48.624H75.613c3.097-2.646 7.168-4.284 11.887-4.284h.182c4.666.044 8.678 1.674 11.735 4.284" fill="#c4cacb"/><path d="M95.527 86.602H78.974v-.06c.002-.355.09-.663.223-.935-.523-.238-.907-.873-.9-1.65h17.96c.003.05.004.102.004.155-.01.776-.4 1.413-.936 1.642.115.254.192.534.203.848m6.415-40.39H73.09c.747-.962 1.59-1.848 2.523-2.644h23.804c.933.796 1.777 1.684 2.525 2.645" fill="#2e99ce"/><path d="M96.257 83.957h-17.96v-.01c.002-.497.164-.942.416-1.26-.446-.297-.756-.875-.75-1.558 0-.378.126-.708.286-.996-.507-.282-.854-.89-.85-1.596.003-.548.234-1.018.564-1.334-.28-.884-.636-1.87-.93-2.347-2.604-4.212-6.558-8.307-7.548-13.765-.98-5.42.445-10.813 3.604-14.88h28.85c3.23 4.157 4.638 9.692 3.537 15.208-1.086 5.444-5.313 9.41-7.993 13.574-.295.464-.61 1.43-.86 2.308.376.32.627.822.623 1.415-.005.712-.364 1.31-.877 1.585.16.288.267.618.264.995-.004.684-.323 1.262-.78 1.547.232.29.378.677.403 1.113" fill="#c4cacb"/><path d="M89.553 86.532c-.03 2.006-1.98 3.62-4.387 3.597-2.395-.02-4.332-1.67-4.31-3.678.013-2.013 1.972-3.624 4.38-3.602 2.4.02 4.33 1.67 4.317 3.682" fill="#46484c"/><path d="M103.448 59.358c2.187-10.97-5.552-22.02-17.8-22.14-12.25-.105-20.19 10.797-18.196 21.814.99 5.458 4.94 9.55 7.546 13.76.596.97 1.438 4.046 1.438 4.046l17.703.16s.7-3.104 1.312-4.06c2.673-4.17 6.902-8.135 7.996-13.58" fill="#fbc044"/><path d="M77.398 71.31c-.73-1.17-1.547-2.333-2.387-3.518-2.144-3.022-4.17-5.878-4.783-9.263-.854-4.726.403-9.52 3.442-13.126 2.95-3.5 7.2-5.404 11.955-5.36 4.753.04 8.962 2.025 11.853 5.576l-20.08 25.69" fill="#fcd071"/><path d="M87.83 51.714c-.03.053-.117.44.066 1.108l.097.292c.085-.786-.05-1.32-.163-1.4zm-6.657 1.373c.036.06.033.62.326 1.353.132-.275.203-.545.205-.775.004-.245-.06-.506-.532-.578zm8.32 23.885l-.168-.025c-.32-.112-.494-.49-.4-.844l4.487-18.86c-.793.39-1.737.43-2.803.125-.905-.258-1.687-.78-2.302-1.424-.824 1.403-2.055 2.18-3.5 2.2-1.326-.012-2.554-.544-3.44-1.552-.566.463-1.27.803-2.058.93-.72.12-1.534-.017-2.163-.178l4.344 18.518c.093.36-.08.737-.398.845-.318.116-.658-.093-.756-.448l-4.674-19.715c-.068-.246-.005-.508.172-.686.165-.177.41-.237.622-.146.01.005 1.574.644 2.685.47.59-.094 1.085-.35 1.495-.675l-.104-.208c-.55-1.172-.643-2.41-.22-3.07.232-.374.61-.544 1.037-.482.968.15 1.576.884 1.57 1.914-.004.65-.25 1.353-.68 1.98.51.59 1.39 1.225 2.55 1.15 1.46-.024 2.27-1.047 2.692-1.92-.666-1.065-.976-2.235-.89-3.095.078-.84.536-1.382 1.196-1.412.448 0 .86.234 1.115.692.455.822.43 2.265-.015 3.614.515.628 1.202 1.148 2.032 1.384 2.38.675 3.088-1.06 3.24-1.57l.043-.138c.093-.347.43-.548.738-.455.317.102.51.463.43.818l-.038.12-5.255 21.66c-.07.29-.32.482-.582.48" fill="#fff"/><path d="M93.494 84.628c-.007.972-.566 1.76-1.242 1.752l-14.097-.132c-.68-.003-1.226-.798-1.22-1.77.01-.97.566-1.755 1.248-1.75l14.105.134c.674.005 1.218.8 1.206 1.766" fill="#6e7178"/><path d="M94.228 82.052c-.012.973-.62 1.755-1.352 1.75l-15.3-.144c-.737-.005-1.324-.796-1.318-1.77.015-.976.61-1.76 1.345-1.75l15.298.14c.74.006 1.334.8 1.328 1.774" fill="#46484c"/><path d="M94.605 79.234c-.006.97-.636 1.76-1.406 1.75l-15.9-.142c-.77-.012-1.384-.802-1.37-1.774.006-.976.633-1.756 1.403-1.75l15.902.142c.762.01 1.377.804 1.37 1.774" fill="#6e7178"/><path d="M95.21 76.653c-.003.975-.67 1.762-1.487 1.752l-16.898-.153c-.817-.012-1.472-.805-1.468-1.78.02-.967.685-1.75 1.502-1.744l16.89.155c.823.005 1.468.8 1.46 1.77" fill="#46484c"/><path d="M189.732 150.913s-.416 3.54-3.75 7.916c0 0 6.04-2.5 7.5-7.708l-3.75-.21" fill="#23b59d"/><path d="M130.9 150.18s1.39 3.285.656 8.735c0 0 4.013-5.16 2.706-10.408l-3.362 1.674" fill="#a563b8"/><path d="M92.233 153.344s-.53 3.527 1.532 8.625c0 0-5.17-4.003-5.205-9.413l3.673.787" fill="#35b5ed"/><path d="M53.274 149.594s-.53 3.528 1.533 8.625c0 0-5.17-4.003-5.205-9.412l3.672.786" fill="#3d5b7a"/></svg>