<?xml version="1.0" encoding="UTF-8"?><!DOCTYPE svg PUBLIC "-//W3C//DTD SVG 1.1//EN" "http://www.w3.org/Graphics/SVG/1.1/DTD/svg11.dtd"><svg xmlns="http://www.w3.org/2000/svg"><symbol id="cd_0_0" viewBox="0 0 28.000000 28.000000"><path d="M18.123 4.048C13.98 4.055 8 11.268 8 18.3c0 6.6 5.2 7.7 10.6 2.3 2.9-2.9 3.4-4.1 3.4-8.1 0-2.5-.5-5.5-1-6.6-.7-1.29-1.717-1.853-2.877-1.852zm-.24 1.92c1.27.084 2.067 1.17 2.317 3.232 1 6.7-2.5 12.8-7.2 12.8-2 0-2.9-.6-3.3-2.1-.8-2.9 1.7-9.4 3.6-9.3 1 .1 1.3-.4 1-1.3-.3-.8 0-1.9.8-2.4 1.088-.675 2.02-.984 2.783-.933zM17.5 28H28 17.5z"/></symbol><symbol id="cd_0_1" viewBox="0 0 28.000000 28.000000"><path d="M14.566 4.084c-.92.022-1.828.566-2.766 1.616-3.6 4.1-3.3 12.8.5 16.3 2.7 2.6 4.9 2.5 7.5-.3 3-3.1 2.8-7.8-.4-13.3-1.75-2.938-3.304-4.352-4.834-4.316zm.49 2.135c1.068-.07 2.182 1.31 3.644 4.18 2.4 4.8 2 9.1-.9 11-3.9 2.4-8-7.1-5.3-12.4.92-1.794 1.723-2.727 2.555-2.78z"/></symbol><symbol id="cd_0_2" viewBox="0 0 28.000000 28.000000"><path d="M28 28c-18.667 0-9.333 0 0 0zM14 5.6c0 .3-1.3 1.7-3 3.1-2.2 1.8-3 3.3-3 5.7 0 4 1.5 5.6 5.4 5.6 3.3 0 9.6-5.2 9.6-8 0-3.2-4.9-5.3-7.6-3.3-.5.5-.1 0 .9-1 2.2-2 4-2.1 6.8-.7 4.1 2.3.8 12.9-4.7 15-4 1.5-8.9 1.2-10.7-.8C4.2 17.3 4.7 11.3 9 7c1.8-1.8 5-2.8 5-1.4z"/></symbol><symbol id="cd_0_3" viewBox="0 0 28.000000 28.000000"><path d="M18.822 5.197C15.672 5.532 8.844 10.98 6.5 15.2c-4.1 7.6 1.6 12.2 10 8.2 4.8-2.2 6.9-7.2 5.8-13.4-.6-3.5-1.3-4.6-2.9-4.8-.175-.025-.368-.025-.578-.003zm-2.51 4.164c.146-.01.275.003.388.04.8.3 1.9.6 2.4.6s.9 2 .9 4.3c0 5.4-2.4 7.9-7.7 8.1-3.5.1-3.8-.1-4.1-2.9-.2-2.4.5-3.9 3.4-6.9 1.925-1.925 3.697-3.16 4.713-3.24zM8.75 28H14 8.75z"/></symbol><symbol id="cd_0_4" viewBox="0 0 28.000000 28.000000"><path d="M17.4 5c-1.4 0-2.9 1.8-2.1 2.7.3.3-1 1.8-2.9 3.5-3.5 3.1-6.1 9.4-5.1 12.2 1 2.7 5.5 1.8 9.3-1.7 3.1-2.8 3.7-4.1 4.2-8.5.3-3.4 0-5.7-.8-6.7-.7-.8-1.8-1.5-2.6-1.5zm-1.2 5c.6 0 .6.6-.2 1.5-1.5 1.8.1 2 1.9.2 1-1 1.1-.6.6 1.8-.4 1.6-1.1 4-1.7 5.2-1.5 3-5.7 5.8-7 4.5-1.1-1.1 0-6.2 1.4-6.2.5 0 .7-.4.4-.9-.3-.5.4-2 1.5-3.5 1.1-1.4 2.5-2.6 3.1-2.6z"/></symbol><symbol id="cd_0_5" viewBox="0 0 28.000000 28.000000"><path d="M14.525 6.063C13.65 6.1 12.5 6.65 11 7.7 6.3 11 4 14.3 4 17.9c0 4.8 11.8 8 16.7 4.6C25.4 19.2 24.1 9 18.9 9c-1.1 0-2.2-.7-2.5-1.5-.4-1-1-1.475-1.875-1.437zm-1.08 4.262c.486 0 .98.025 1.455.075 5.5.8 7.8 5.8 4.5 10.4-2.2 3.2-8.3 3-11.4-.3-2.1-2.2-2.2-2.7-1-5.5.7-1.7 2-3.5 2.9-4 .675-.45 2.08-.675 3.544-.675z"/></symbol><symbol id="cd_1_0" viewBox="0 0 28.000000 28.000000"><path d="M15.3 14.4c-1.5 5.3-3.1 9.6-3.6 9.6-.4 0-.5-1.2-.2-2.8 1-4.3 5.7-17.3 6.2-16.9.2.3-.9 4.8-2.4 10.1z"/></symbol><symbol id="cd_1_1" viewBox="0 0 28.000000 28.000000"><path d="M16.6 11.7c-.2 3.8-.4 8.3-.5 10-.1 2.4-.6 3.3-1.7 3.3-1.5 0-1.6-.9-1.1-6.8.4-3.7.7-8.2.7-10C14 6 14.5 5 15.5 5c1.2 0 1.4 1.3 1.1 6.7z"/></symbol><symbol id="cd_1_2" viewBox="0 0 28.000000 28.000000"><path d="M18 5.4c0 .2-.9 3.4-2.1 7.2-1.1 3.7-1.9 8-1.7 9.6.6 3.6-.9 3.7-1.8.1-1-3.9 2.7-17.3 4.8-17.3.4 0 .8.2.8.4z"/></symbol><symbol id="cd_1_3" viewBox="0 0 28.000000 28.000000"><path d="M15 8c0 1.6.5 5.2 1.1 8 1.2 5.8.4 10.2-1.2 6.1-1.5-3.9-2.4-18.5-1-17.7.6.4 1.1 2 1.1 3.6z"/></symbol><symbol id="cd_1_4" viewBox="0 0 28.000000 28.000000"><path d="M18.2 7.6C18 9.2 17 12.9 16 15.8c-1.1 2.9-1.9 5.8-1.7 6.4.1.7-.7 1.4-1.7 1.6-1.7.4-1.8 0-1.2-3.7.5-3.5 1.4-6.8 4.2-14.9.8-2.5 2.9-.5 2.6 2.4z"/></symbol><symbol id="cd_1_5" viewBox="0 0 28.000000 28.000000"><path d="M20 5c0 2.2-3.5 9.7-6.2 13.1-1.5 2-2.8 4.2-2.8 4.8 0 .6-.9 1.1-2 1.1-1.9 0-1.9-.2.5-4.8 1.5-2.6 3-5.4 3.6-6.2.5-.8 1.6-3.2 2.4-5.3C16.9 4.4 20 2.5 20 5z"/></symbol><symbol id="cd_2_0" viewBox="0 0 28.000000 28.000000"><path d="M19.4 6.6c2.4.9 2.1 7.1-.3 7.9-1 .3-2.7 1.5-3.7 2.6l-1.9 2.1 5.8-.7c6.7-.9 7.6.5 1.4 2.3-4.9 1.5-14.9 1.2-15.4-.3-.1-.6 2.4-2.7 5.7-4.9 3.3-2.1 6-4.2 6-4.7 0-1.3-4.7-1.1-7.2.2-1.4.7-2.3.8-3 .1-.7-.7 0-1.7 2.3-3.1 3.4-2.1 7.3-2.6 10.3-1.5z"/></symbol><symbol id="cd_2_1" viewBox="0 0 28.000000 28.000000"><path d="M15.5 5.5c3 2.9 3.3 7.7.6 10.4-1.9 1.9-1.9 1.9 1.3 2.5 3.7.7 7.4 3.1 6.4 4.1-.3.4-1.5.2-2.6-.4-2.4-1.3-7.5-1.5-11.7-.6-2.8.6-2.7.4 2.3-4 2.8-2.6 5.2-5.3 5.2-6 0-.8-1-2.6-2.3-4.1-1.9-2.2-2.9-2.6-5-2C8.1 5.8 7 6.7 7 7.7c0 .9-.3 1.4-.6 1-1-1 .6-4.6 2.4-5 3.4-.9 4.3-.7 6.7 1.8z"/></symbol><symbol id="cd_2_2" viewBox="0 0 28.000000 28.000000"><path d="M18.8 5.2c2 2 1.4 3.9-2.9 10-2.2 3.2-3.7 5.8-3.2 5.9.4.1 2.6 0 4.8 0 3.8-.1 3.9-.1 2.1 1.4-2.5 1.9-12.6 2.1-12.6.2 0-.6 1.6-2.7 3.4-4.5 3.4-3.3 7.2-9.9 6.3-10.9-.3-.2-1.4 0-2.5.6C13 8.5 11.3 9 10.3 9c-1.4-.1-1.2-.6 1.2-2.5 3.3-2.7 5.5-3.1 7.3-1.3z"/></symbol><symbol id="cd_2_3" viewBox="0 0 28.000000 28.000000"><path d="M16.39 5.194c-2.31.3-8.22 5.375-7.19 6.406.4.4 1.7-.5 2.9-1.9 3.9-5 6.9-2 4.3 4.2-1 2.5-1.8 3.1-3.2 2.7-2.2-.7-5.8 2.7-4.7 4.4.4.6 1.7.9 2.9.6 1.5-.4 2.6.1 3.5 1.5 1.6 2.7 2.6 1.7 1.1-1.1-.9-1.7-.7-2.7 1-5.5 1.4-2.3 2-4.7 1.8-7.2-.2-2.6-.8-3.9-2-4.1-.12-.025-.257-.026-.41-.006zM11.5 18c.8 0 1.5.4 1.5.9s-.7 1.1-1.5 1.5c-.9.3-1.5 0-1.5-.9 0-.8.7-1.5 1.5-1.5z"/></symbol><symbol id="cd_2_4" viewBox="0 0 28.000000 28.000000"><path d="M16.8 3C14.8 3 9 7.3 9 8.7c0 1.9 1.7 1.6 4.1-.8 2.4-2.4 4.4-2.1 4.5.7 0 2.1-1.6 6.4-2.5 6.5-.5 0-3.1.6-5.6 1.2-2.4.6-3.5 2-3.5 4.3 0 3.2 3.4 3.2 7.4-.1l3-2.4 3.7 1.9c3.4 1.8 4.9 1.7 4.9-.1 0-.3-1.5-1.4-3.4-2.3-3.3-1.5-3.3-1.6-2.3-5.5.8-2.9.8-4.7-.1-6.5-.6-1.4-1.7-2.6-2.4-2.6zm-5.434 14.07c.416.066.797.343 1.134.83.6 1.1-3.3 3.6-4.2 2.7-.3-.3 0-1.2.7-2.1.875-1.063 1.67-1.54 2.366-1.43z"/></symbol><symbol id="cd_2_5" viewBox="0 0 28.000000 28.000000"><path d="M14.077 5.113C12.615 5.14 11.1 5.925 9.3 7.5 7.2 9.4 6.9 9.9 8.2 10c.9 0 2-.5 2.3-1 .8-1.2 5.2-1.3 5.9-.1.3.5.1 2.3-.5 4-.9 2.4-1.7 3.1-3.8 3.1-4.7 0-6.9 4-3.2 6 2.4 1.2 4.8.4 5.6-2 .5-1.6 1-1.7 3.5-.9 1.5.6 4.3.9 6.2.7l3.3-.4-4.1-.8c-6.2-1.2-6.4-1.5-5.1-6.5 1-3.8 1-4.4-.8-5.7-1.18-.875-2.286-1.31-3.423-1.287zM11.55 18c.775 0 1.45.3 1.45.9 0 1.4-1.8 2.3-3 1.6-.6-.4-.8-1.1-.5-1.6.4-.6 1.275-.9 2.05-.9z"/></symbol><symbol id="cd_3_0" viewBox="0 0 28.000000 28.000000"><path d="M18.1 7.1c-.3.8-.4 3.1-.2 5.3.2 4.1-1.7 7.9-5.3 10.8-2.6 2.1-5.6 2.3-5.6.4 0-2 1.7-2.9 2.3-1.4.6 1.8 5.3-2.7 6.6-6.3 1.1-3.1.1-4.5-2.4-3.5-.8.3-1.7.1-2-.4-.3-.5.3-1.1 1.4-1.5 1.1-.3 2.2-1.3 2.6-2.3.5-1.4.4-1.5-.6-.5-.7.7-2 1.3-2.8 1.3-1.2-.1-.9-.6.8-2.1 2.7-2.2 5.8-2.1 5.2.2z"/></symbol><symbol id="cd_3_1" viewBox="0 0 28.000000 28.000000"><path d="M16.5 5.4c1.2.8 1.6 1.9 1.1 3.1-.3 1-.1 2.4.5 3.1 1.4 1.7.6 8.8-1.1 10.9-2.6 3.2-10 1-9.9-2.8v-2.2l.9 2.3c.7 1.6 1.8 2.2 3.9 2.2 3.4 0 5.1-2.2 5.1-6.8 0-3.6-.8-4.4-3.2-3.1-3 1.6-3.3.3-.4-2.2 2.6-2.2 2.6-4.5 0-3.5-.8.3-1.4-.1-1.4-.9 0-1.9 2-1.9 4.5-.1z"/></symbol><symbol id="cd_3_2" viewBox="0 0 28.000000 28.000000"><path d="M17.8 6.2c.9.9.8 1.6-.5 3-1.4 1.5-1.4 2.2-.3 4.2 1.8 3.5.6 6.7-3.5 9.5-5.3 3.6-5.6 1.6-.5-2.8 4.5-3.9 4.5-3.9 2.6-6-1.6-1.8-1.7-2.5-.8-4.6 1.3-2.9.6-3.2-2.6-.9-2.8 2-2.8 1.1 0-1.6 2.5-2.3 3.9-2.5 5.6-.8z"/></symbol><symbol id="cd_3_3" viewBox="0 0 28.000000 28.000000"><path d="M19.8 5.6c2.2 1.5 2.2 1.7.7 4.1-1.5 2.3-1.5 2.6 0 4.3 2.2 2.5 1.3 6.4-2 8.6-1.8 1.2-3.9 1.5-7 1.2-5.3-.6-7.5-2.2-7.5-5.4 0-3 2-4.2 2.7-1.5.6 2.4 4.1 3.6 7.9 2.7 3.7-1 2.8-4-1.5-4.6-4.8-.7-4.9-2.6-.4-4.6l3.8-1.8-3-.4c-3-.4-4.8-1.9-3.9-3.4.9-1.4 7.9-.9 10.2.8z"/></symbol><symbol id="cd_3_4" viewBox="0 0 28.000000 28.000000"><path d="M16.1 7c2.3 1.3 2.6 6.2.5 8-1.2.9-1.3 1.7-.4 3.6 1.5 3.1-.6 7.4-3.6 7.4-2 0-2 0 .2-1.6 2.7-1.9 2.8-4.5.2-6.9-2-1.8-2-1.8.2-2.9 1.5-.7 2.3-2.1 2.3-3.6 0-2.2-.4-2.5-3.2-2.4-3.2.2-4.1-.5-2.6-1.9 1-1 4.2-.8 6.4.3z"/></symbol><symbol id="cd_3_5" viewBox="0 0 28.000000 28.000000"><path d="M19.8 6.6c3 2.1 2.8 3.1-1 5.4-1.8 1.1-2.7 2-1.9 2 .8 0 2.3.7 3.2 1.6 2.3 2.1 1.1 4.7-3.4 7.1-3.6 1.8-12.3 2.8-13.2 1.3-.8-1.3 1.2-2.2 5.5-2.5 3.7-.3 8-2.3 8-3.7 0-.4-1.9-1.2-4.2-1.9-2.4-.6-4.7-1.3-5.2-1.6-1.1-.7 1.2-2.1 5.7-3.3 4.9-1.4 3.9-3-1.9-2.8-2.5 0-4.7-.2-5-.5-2.8-2.8 9.5-3.8 13.4-1.1z"/></symbol><symbol id="cd_4_0" viewBox="0 0 28.000000 28.000000"><path d="M18.4 5.6c.3.9.6 3.3.6 5.4 0 3.3.4 3.9 2.7 4.5 2.6.6 2.6.8 1 1.9-.9.7-1.7 2.5-1.7 4 0 1.9-.5 2.6-2 2.6s-2-.7-2-2.9c0-2.9-.2-3-5.2-3.3l-5.3-.3-.3-5.8C6 7.3 6.2 6 7.3 6 9.1 6 10 8.1 10 12.1c0 2.6.4 2.9 3 2.9 3 0 3-.1 3-5.5 0-5.3 1.1-7.2 2.4-3.9z"/></symbol><symbol id="cd_4_1" viewBox="0 0 28.000000 28.000000"><path d="M18.5 10.5C16.3 18.6 13.9 25 13 25c-.5 0-.3-1.9.5-4.1 1.9-5.4 2-5.2-1.5-4.6-1.6.4-3.2.3-3.4-.2C7.8 14.9 10 9 11.1 9c1.2 0 1.1.7-.1 3-.7 1.3-.7 2.1 0 2.5 2.1 1.3 4.9-.7 6.1-4.3 2.3-7.3 3.4-7.1 1.4.3z"/></symbol><symbol id="cd_4_2" viewBox="0 0 28.000000 28.000000"><path d="M16 6.5c0 .3-.7 1.6-1.5 2.9-1.4 2.2-1.4 2.4.2 3 1.2.5 2.6-.4 4.8-3 1.8-2.1 3.4-3.3 3.8-2.7C24 7.8 10.5 26 8.9 26c-1.4 0-1.1-1.6.5-3 .8-.6 2.4-2.7 3.5-4.6 1.8-3 1.9-3.5.5-4.1-.8-.3-2.6-.1-4 .6-3.2 1.4-3.4 1.4-3.4-.3 0-.7 1.2-2.2 2.8-3.2 1.5-.9 3.3-2.6 4-3.6C14 6.1 16 5.3 16 6.5z"/></symbol><symbol id="cd_4_3" viewBox="0 0 28.000000 28.000000"><path d="M24.5 6c.3.5-.1 1-.9 1-.9 0-2.3 1.7-3.2 4-2 5-2 5.4.8 6.2 2 .5 1.9.6-.8.7-3.1.1-5.1 2.2-3.8 4.2.3.5-.2.9-1 .9-.9 0-1.6-.8-1.6-1.8 0-1.3-1.2-2.1-4.2-2.8-2.3-.5-4.3-1.4-4.5-2-.5-1.5 4.6-7.6 5.8-6.8.5.3.2 1.8-.6 3.5C9 16 9 16 11.9 16c2.6 0 3.2-.6 5.5-5.5 1.8-4 3-5.5 4.5-5.5 1.1 0 2.3.4 2.6 1z"/></symbol><symbol id="cd_4_4" viewBox="0 0 28.000000 28.000000"><path d="M20.6 8.7c-.8 6-4 14.6-5.6 15.1-1.3.5-1.1-2.4.5-6.1.6-1.3.2-1.7-1.6-1.7-1.3 0-3.8.4-5.6.9-5 1.5-4.9.8 1.5-8.5 1.2-1.8 1.2-1.7.9.6-.3 1.4-.8 3.3-1.2 4.2-.6 1.5-.2 1.7 3 1.4 4.2-.3 5.2-1.5 6.1-6.9 1-5.6 2.8-4.6 2 1z"/></symbol><symbol id="cd_4_5" viewBox="0 0 28.000000 28.000000"><path d="M12 9.6c0 2.9.3 3.5 1.6 3 .9-.3 1.9-.6 2.4-.6.4 0 1.3-1.4 1.9-3 .9-2.7 3.1-4.2 3.1-2.1 0 .8-2.1 8.2-4 14.5-.5 1.6-.7 3.3-.4 3.7.3.5-.4.9-1.6.9-2 0-2.1-.4-1.5-4.3.4-2.3 1.2-4.8 1.7-5.4.8-1 .1-1.2-2.8-1-3.9.2-3.9.2-3.6-3.3.3-4.4.9-6 2.2-6 .5 0 1 1.6 1 3.6z"/></symbol><symbol id="cd_5_0" viewBox="0 0 28.000000 28.000000"><path d="M21.8 6.7c.2.9-.9 1.3-3.6 1.3-2.2 0-4.5.6-5.2 1.5-.9 1.1-.5 2 2.3 4.5 1.9 1.6 3.7 3.9 4 4.9.7 2.6-2 6.3-4.1 5.7-1-.3-3.6-1-5.9-1.6-2.4-.6-4.3-1.7-4.3-2.4 0-1.2.9-1.1 5 .2 3.9 1.2 5.3 1.3 6.2.4 1.7-1.7 0-4.3-4-6.2-4.5-2.1-4-7.5.8-9.3 2.5-1 8.3-.3 8.8 1z"/></symbol><symbol id="cd_5_1" viewBox="0 0 28.000000 28.000000"><path d="M20.8 6.3c.2 1.1-.9 1.9-3.7 2.7-4.8 1.3-5.3 3.5-1.6 7 2.7 2.6 3.2 4.9 1.3 6.8-1.5 1.5-6.1 1.5-7.6 0-1.9-1.9-1.4-2.7 2.1-3 3.7-.3 4.3-2.1.9-2.6-3.2-.5-3.7-2.7-1.7-7.1 1.2-2.7 2.6-4.2 4.8-4.9 3.9-1.2 5.1-1 5.5 1.1z"/></symbol><symbol id="cd_5_2" viewBox="0 0 28.000000 28.000000"><path d="M18.3 5.3c2.4-.4 3.7-.2 3.7.6 0 .6-1.2 1.1-2.7 1.1-3.4 0-4.8.9-5.7 3.5-.5 1.6 0 2.3 2.4 3.2 2.6 1 3 1.7 3 4.7 0 3.7-2 5.6-5.9 5.6-2.4 0-5.1-2.5-5.1-4.8 0-1.3.3-1.2 1.6.6 1.9 2.7 6 2.9 7.4.3 1.6-3.1.2-5.1-3.6-5.1-3.2 0-3.4-.2-2.4-2.1.6-1.1 1.1-3.2 1-4.7-.3-4.1-.1-4.5 1.3-3.4.8.7 2.9.9 5 .5z"/></symbol><symbol id="cd_5_3" viewBox="0 0 28.000000 28.000000"><path d="M22 5.2c0 .8-2.1 1.2-5.2 1-1-.1-2.2.7-2.8 1.8-.9 1.7-.8 2 1.3 2 1.6 0 3.1 1 4.2 2.6 1.4 2.2 1.5 3 .4 5.5-1.5 3.6-5.9 6.1-10.2 5.7-3.4-.3-5.4-3.8-2.2-3.8.9 0 1.3.4 1 1-1.1 1.9 4.2 1 6.9-1.1 1.7-1.4 2.6-3 2.6-5 0-2.4-.4-2.9-2.5-2.9-1.4 0-2.5.4-2.5 1 0 .5-1.1 1-2.5 1S8 13.7 8 13.4c0-.9 4.2-6.8 5.8-8.1 1.6-1.4 8.2-1.5 8.2-.1z"/></symbol><symbol id="cd_5_4" viewBox="0 0 28.000000 28.000000"><path d="M24.3 8.9c.4.1.7.6.7 1.2 0 .7-.9.9-2.4.5-1.4-.3-4.1.2-6.6 1.3l-4.2 1.9 2.5 1.7c2.9 1.9 4.2 4.4 2.8 5.8-.5.5-3.3.7-6.6.2-6.6-.8-6.6-2 0-1.6 5 .3 5.7-.9 2-3.3-3-2-3.1-2.6-.6-5.7 1.6-2.1 2.7-2.4 6.7-2.3 2.7.1 5.2.3 5.7.3z"/></symbol><symbol id="cd_5_5" viewBox="0 0 28.000000 28.000000"><path d="M22.1 7C24 7 25 7.5 25 8.5c0 1.5-3.4 2.8-6.6 2.5-3.4-.4-3.7 0-1.9 2.1 1.8 1.9 1.8 2.1.1 5.4-3.9 7.2-9.7 9.8-10.4 4.6-.3-2.1-.1-2.3 2.2-1.7 1.9.5 2.9.1 4-1.6 1.9-2.7 2.1-4.9.4-4.7-2.7.3-3.8-.1-3.8-1.5 0-2 7.2-7.7 8.8-7.1.8.3 2.7.5 4.3.5z"/></symbol><symbol id="cd_6_0" viewBox="0 0 28.000000 28.000000"><path d="M20.9 6.1c-.5 1.1-2 2.4-3.2 2.9-2.3.8-9.7 8-8.3 8 .4 0 2.1-.7 3.7-1.6 4.2-2.1 8.3-1.5 8.7 1.3.6 4.4-8.4 6.9-13.6 3.7-4.4-2.8-1.6-7.9 7.8-14.2 4.8-3.3 6.6-3.3 4.9-.1z"/></symbol><symbol id="cd_6_1" viewBox="0 0 28.000000 28.000000"><path d="M12.552 3.48C11.395 3.52 9.256 5.19 7.4 7.8c-6.6 9.1-1.9 17.3 8.5 14.7 7.4-1.9 10.9-6.7 7.1-9.8-3.1-2.6-12.6 1.8-12.6 5.7 0 1.2-.3 1.2-1.5.2-.8-.7-1.5-2.1-1.5-3.2 0-2.4 2.3-7 4.4-8.7.9-.8 1.6-1.7 1.6-2.2 0-.72-.323-1.037-.848-1.02zm7.01 10.82c1.088 0 1.838.6 1.838 1.8 0 1.5-6.8 4.1-7.8 3-.4-.4.5-1.7 2.1-3 1.35-1.2 2.775-1.8 3.862-1.8z"/></symbol><symbol id="cd_6_2" viewBox="0 0 28.000000 28.000000"><path d="M16 4.1c0 .6-1.1 2.5-2.5 4.3-1.4 1.8-2.5 4.3-2.5 5.6 0 2.6 2.6 6 4.5 6 1.8 0 3.8-2.7 2.6-3.4-.5-.4-1.4.2-2 1.1-.9 1.7-1 1.7-1.6 0-1.7-4.3 2.7-6.4 5.9-2.8 2.3 2.6 1.3 5.6-2.3 7.1-3.4 1.4-6.1.3-8.5-3.2-2.3-3.3-2-6.5 1.2-11.4C13.3 3.3 16 1.6 16 4.1z"/></symbol><symbol id="cd_6_3" viewBox="0 0 28.000000 28.000000"><path d="M18 2c-.5 0-1 .4-1 1 0 .5-2 3.8-4.5 7.3C10 14 8 17.9 8 19.4c0 2.4.3 2.6 4.4 2.6 3.3 0 4.9-.6 7-2.6 2.7-2.7 3.4-5.8 1.6-6.9-.6-.4-3.1.5-5.5 1.9-2.5 1.3-4.5 2.2-4.5 1.9 0-.2 1.8-3 4-6.2 2.2-3.1 4-6.2 4-6.9 0-.7-.4-1.2-1-1.2zm1.998 12.045c.637-.03 1.002.28 1.002.955 0 1.3-4 4.9-6.3 5.6-3.4 1.1-3.3-.7.3-3.7 2.125-1.812 3.938-2.805 4.998-2.855z"/></symbol><symbol id="cd_6_4" viewBox="0 0 28.000000 28.000000"><path d="M15.338 2.228C15.056 2.19 14.6 2.763 13.7 4c-.9 1.3-2.49 3.6-3.375 5.258C9.195 11.64 6.085 14.353 9.1 20.6c1.8 2.2 6.6 1.1 10.1-2.3 3.6-3.4 3.7-6.3.3-6.3-2.7 0-6 3-6 5.5 0 .8-.4 1.5-1 1.4-1.6 0-.8-5 1.6-9.5 1.1-2.3 1.9-5 1.7-6-.13-.744-.244-1.142-.462-1.172zm3.204 11.908c.153.01.295.057.41.153.358.3.1.988-.122 1.4-.406.75-1.58 1.688-2.225 1.158-.565-.462.037-1.468.61-2.1.3-.334.868-.642 1.327-.612z"/></symbol><symbol id="cd_6_5" viewBox="0 0 28.000000 28.000000"><path d="M18.977 2.986c-1.026.028-2.627.99-3.877 2.614-3.4 4.3-5.6 11.2-4.5 14.2 1.2 3.5 3.9 3.9 5.8 1 1.9-2.8 1.1-6.5-1.5-7.3-1.9-.6-1.9-.8.3-4.6C16.4 6.8 18 5 18.7 5c.7 0 1.3-.5 1.3-1 0-.713-.408-1.03-1.023-1.014zM14.363 15.05c.442.046.925.537 1.337 1.55.3.8-.2 2.3-1.1 3.2-1.5 1.5-1.6 1.4-1.6-1.6 0-2.063.625-3.226 1.363-3.15z"/></symbol><symbol id="cd_7_0" viewBox="0 0 28.000000 28.000000"><path d="M13.6 8c3.2.5 6.4 1.6 7.2 2.4 1.7 1.7.8 3.7-4.7 10.6-1.9 2.5-3.6 4.7-3.8 4.9-.1.1-.7.1-1.3-.1-.6-.2 1.2-3.4 4.1-7.2 5.5-7.3 5.5-8.5-.6-8.6C10.3 10 4 8.1 4 6.9c0-.6.9-.8 1.9-.4 1.1.3 4.5 1 7.7 1.5z"/></symbol><symbol id="cd_7_1" viewBox="0 0 28.000000 28.000000"><path d="M19.1 8c1.8 1 1.8 1.2.3 4.3-1.3 2.4-6.5 10.9-9.1 14.6-.2.2-.6.2-.9-.2-.6-.6 3.6-8.4 6.8-12.6 1-1.3 1.8-3 1.8-3.7 0-2.3-2.8-1.6-4.6 1.1-2 3-3.4 3.2-3.4.6 0-1.1 1.2-2.6 2.8-3.4 3.4-1.9 3.9-1.9 6.3-.7z"/></symbol><symbol id="cd_7_2" viewBox="0 0 28.000000 28.000000"><path d="M17.3 9.2c1.3.6 1.7 2.1 1.7 5.8 0 4.8-2.5 12-4.2 12-1.2 0-1-1.8.7-7.4 2.4-7.9 2.2-8.6-2.8-8.6C8.8 11 6 9.7 6 7.9 6 7 15 8 17.3 9.2z"/></symbol><symbol id="cd_7_3" viewBox="0 0 28.000000 28.000000"><path d="M17.4 9.1c1.1 2.6 1 4.2-.2 9.7-1.8 7.7-1.9 7.9-3.1 6.6-.6-.5-.4-3.4.5-7.3.8-3.5 1.3-7 1-7.7-.9-2.3-2.6-1.6-2.6 1 0 2.5-2.2 5.1-3.3 3.9-1.2-1.1-.7-4.8.9-7.1 2.2-3.2 5.2-2.8 6.8.9z"/></symbol><symbol id="cd_7_4" viewBox="0 0 28.000000 28.000000"><path d="M19.4 8.5c.7 1.8-7.4 17.7-9.3 18.3-.8.3.6-3.2 3.2-8.1C15.9 14 18 9.9 18 9.6c0-.3-1.1-.6-2.4-.6-1.5 0-3.2 1.1-4.5 2.7-2.4 3.3-2.9 1-.5-2.5 1.8-2.6 7.8-3.1 8.8-.7z"/></symbol><symbol id="cd_7_5" viewBox="0 0 28.000000 28.000000"><path d="M14.9 8.6c2.4.5 3.1 1.2 3.1 3 0 1.7.6 2.4 1.9 2.4 1.1 0 2.8.3 3.8.7 1.3.6.6.9-2.7 1.3-4.2.5-4.5.7-4.8 3.7-.4 4.2-2.2 4.3-2.2.2 0-3-.2-3.1-3.1-2.5-2.2.4-2.9.2-2.7-.6.3-.7 1.9-1.6 3.8-1.9 3-.6 4.9-2.3 5-4.2 0-1.2-9.5-.8-10.8.5-.9.9-1.2.8-1.2-.4 0-1.5 1.5-2.2 5.6-2.7.6 0 2.6.2 4.3.5z"/></symbol><symbol id="cd_8_0" viewBox="0 0 28.000000 28.000000"><path d="M14.492 5.51c-.276-.01-.546-.008-.806.01-.692.05-1.31.205-1.786.48-.9.5-2.2 2.4-2.9 4.1-1.2 2.7-1.1 3.2.3 4.1 1.4.7 1.5 1.3.6 2.9-.8 1.6-.7 2.6.5 4.3 2.2 3.4 5.1 3.8 7.6 1.1 2.1-2.3 2.1-2.5.6-5.6-1.6-3.2-1.2-4.9 1.9-7.1.6-.5.4-1.3-.5-2.1-1.313-1.312-3.572-2.108-5.508-2.19zM15.7 8.05c1.25.025 2.3.45 2.3 1.25 0 2-2.2 3.7-4.7 3.7s-3-1.9-1.1-3.8c.8-.8 2.25-1.175 3.5-1.15zm-.6 7.275c.75.05 1.45.675 2.2 1.875 1.5 2.3.1 4.8-2.8 4.8-3.3 0-4.3-2.5-1.9-5.1.95-1.1 1.75-1.625 2.5-1.575z"/></symbol><symbol id="cd_8_1" viewBox="0 0 28.000000 28.000000"><path d="M20.214 3.047c-2.34.097-6.333 1.76-7.914 3.753-.7.9-1.2 3.1-1.1 4.9.2 2.2-.5 4-2.1 5.7-3.7 3.9-2.2 6 4 5.4 6.4-.7 7.8-1.9 4.9-4.6l-2.2-2.1 2.2-3.5c1.2-2 2-4.4 1.8-5.3-.2-1.3-.9-.8-2.5 2-2.5 4.2-4.3 4.8-4.3 1.4C13 8.3 17.3 5 20.4 5c.9 0 1.6-.5 1.6-1 0-.72-.722-.997-1.786-.953zM13.388 17.7c.487-.025.912.15 1.312.5 2.1 1.7 1.5 2.8-1.7 2.8-3.4 0-3.8-.7-1.3-2.6.65-.45 1.2-.675 1.688-.7z"/></symbol><symbol id="cd_8_2" viewBox="0 0 28.000000 28.000000"><path d="M16.3 5.125C14.725 5.15 13.15 5.7 11 6.8c-4 1.9-5 4.8-2.4 6.6 1.6 1.2 1.6 1.5-.5 4.4-3 4.2-1.6 7.2 3.4 7.2 5.9 0 10-6.4 5.8-8.9-1.6-.9-1.6-1.2-.3-2.1.8-.5 2.1-.7 2.9-.5 1.6.6 5.1-2.2 5.1-4 0-.7-1.5-2-3.4-2.9-2.15-1-3.725-1.5-5.3-1.475zm-.897 2.52c1.93-.005 3.96.48 4.897 1.355 1 .9-7.9 4.3-9.3 3.5-1.7-1.1-1.1-3.1 1.3-4.3.825-.375 1.946-.554 3.103-.556zm-1.592 9.414c1.557-.045 2.502 1.44 1.69 3.94-.4 1.3-1.5 2-3 2-3.2 0-4.1-1.7-1.9-4.1 1.125-1.238 2.278-1.814 3.21-1.84z"/></symbol><symbol id="cd_8_3" viewBox="0 0 28.000000 28.000000"><path d="M17.872 4.04C17.382 4 17 4.3 17 5c0 .5-1 1-2.2 1-2.5.1-6.8 3.2-6.8 4.8 0 .6.9 1.4 2 1.7l2 .6-2 2.6c-2.5 3.2-2.5 4.5-.2 6.6 2.3 2.1 5.1 2.2 8 .1 2.5-1.7 2.8-5 .8-7.7-1.2-1.6-1.2-2.2.2-4.6.8-1.5 1.3-3.5.9-4.4-.394-1.012-1.2-1.613-1.828-1.66zm-1.236 4.126c.796.054.327.734-1.236 2.234-.8.9-2 1.4-2.5 1.1-1.5-1-1-2.3.9-2.8 1.425-.375 2.358-.567 2.836-.534zm-1.148 6.91C16.375 15.05 17 15.85 17 17.5c0 2.8-3.6 5.3-5.3 3.6-.7-.7-.5-1.8.7-3.5 1.05-1.65 2.2-2.5 3.088-2.525z"/></symbol><symbol id="cd_8_4" viewBox="0 0 28.000000 28.000000"><path d="M15.1 4.15c-.875.1-1.8.6-3.6 1.55-4.5 2.4-5.6 4.4-4.1 6.8.7 1.1 1.1 3.6.8 5.7-.4 3.2-.1 3.9 2.1 4.9 5.6 2.5 14.9-2 12.6-6.2-1.1-2.2-4-2.2-4.7-.1-.2.7.2 1.1 1 1 .7-.2 1.3.4 1.3 1.2 0 1.1-1.3 1.6-4.6 1.8-3.9.3-4.7 0-5.2-1.7-.5-2 .9-3.1 4.2-3.1 2.6 0 6.1-4.2 6.1-7.3 0-2-.7-3-2.6-3.7-1.6-.65-2.425-.95-3.3-.85zm.408 3.142c2.61-.004 3.942 1.158 3.192 3.108-.7 1.7-8.1 2.3-9.1.8-.7-1.2.7-2.9 2.9-3.5 1.125-.275 2.138-.406 3.008-.408z"/></symbol><symbol id="cd_8_5" viewBox="0 0 28.000000 28.000000"><path d="M20.238 4.188C19.075 4.2 17.65 4.7 15.8 5.7c-3.3 1.7-5.2 4.8-4.5 7.3.3 1.1-.7 2.8-2.5 4.5C7.2 19 6 21 6.2 21.9c.4 2.2 4.4 2.6 7.5.6 2-1.3 2.4-2.3 2-4.3-.5-2.3.2-3.4 4.1-6.8 4.1-3.6 4.5-4.4 3.3-5.8-.8-.95-1.7-1.425-2.863-1.413zm.52 2.368c.07.004.117.02.142.044.9.8-.9 3-3.8 4.7-3 1.8-3.1 1.8-3.1-.2 0-1.4 1.1-2.5 3.3-3.5 1.488-.612 2.975-1.072 3.458-1.044zM12.356 17.59c.248.004.432.173.544.51.4 1.3-2.9 4.3-3.7 3.4-.3-.3.3-1.4 1.4-2.6.75-.875 1.343-1.32 1.756-1.31z"/></symbol><symbol id="cd_9_0" viewBox="0 0 28.000000 28.000000"><path d="M18.3 6C14 6.1 8 9.7 8 12.2c0 1.9.4 2 4.1 1.4l4.1-.7-2 2.8c-1.1 1.6-3.2 3.9-4.6 5.2-1.4 1.4-2.6 3-2.6 3.8 0 2.9 2.9 1 8.3-5.6 4.2-5.1 5.7-7.8 5.7-10 0-2.7-.3-3.1-2.7-3.1zm.147 2.056c.46.072.516.382-.047.944-1.1 1.1-7.4 3.2-7.4 2.5 0-.3 1.2-1.1 2.8-1.9 2-1.125 3.882-1.664 4.647-1.544z"/></symbol><symbol id="cd_9_1" viewBox="0 0 28.000000 28.000000"><path d="M17 6.8c0 .4-1.3 1.3-3 1.9-3.4 1.3-4.4 5-1 3.9 6.7-2.1 6.3-2.1 5.5 1.3-.4 1.7-1.3 4.5-2.2 6.1-.8 1.7-1.2 3.7-.9 4.5.3.8.1 1.5-.5 1.5-1.8 0-2.1-2.8-.6-5.7 3.2-6.3 3.1-6.9-1.3-6.5-4.9.5-5.4-1.6-1.4-5.3C14.2 6.1 17 5.2 17 6.8z"/></symbol><symbol id="cd_9_2" viewBox="0 0 28.000000 28.000000"><path d="M21.5 7c.3.5.1 1.8-.4 2.7-1 1.7-1 1.7-1.1 0 0-2.8-3.3-2-7 1.8-2.8 2.9-3.2 3.8-2 4.5 2.1 1.3 4.6-.5 6.1-4.2 1.1-3 1.3-3.1 1.6-1 .5 2.6-5.2 15.2-6.8 15.2-1.1 0-1-.6.8-6.3.4-1.2 0-1.7-1.5-1.7-4.8 0-3.9-5.8 1.5-9.5 3.9-2.6 7.7-3.3 8.8-1.5z"/></symbol><symbol id="cd_9_3" viewBox="0 0 28.000000 28.000000"><path d="M15.38 6.147c-2.066.104-4.605 1.39-7.08 3.753-4.2 3.9-2.4 8.1 3.4 8.1 3.2 0 3.3.1 3.3 4.1 0 3.3.3 4 1.8 3.7 1.3-.3 1.6-1.2 1.5-3.8-.2-1.9.2-5.4.8-7.6.8-3.1.8-4.7 0-6.3-.788-1.4-2.11-2.034-3.72-1.953zm-.13 3.028c.6.075.75.775.75 2.125 0 2.6-4 5.4-5.9 4.3-1.9-1.2-1.2-3.1 1.7-4.8 1.8-1.15 2.85-1.7 3.45-1.625z"/></symbol><symbol id="cd_9_4" viewBox="0 0 28.000000 28.000000"><path d="M17.534 5.927C15.67 5.997 13.08 7.087 11 9c-4.3 4-3.9 7.6.8 7.4 3.7-.2 3.7-.1 1.7 5.5-1.2 3.5-1.2 4.1 0 4.1C14.9 26 20 11.6 20 7.7c0-1.27-1.015-1.83-2.466-1.773zm-.103 2.14c.402.015.57.333.57.933 0 1.4-4.6 6-5.9 6-2.4 0-1.9-2 1.1-4.4 2.25-1.75 3.563-2.562 4.23-2.534z"/></symbol><symbol id="cd_9_5" viewBox="0 0 28.000000 28.000000"><path d="M17.637 6.138C16.526 6.125 15.05 6.85 12.9 8.3c-2.3 1.5-3.5 3.2-3.7 5.1-.3 2.5-.1 2.8 2 2.4 1.3-.3 3.1-.9 4.1-1.3 1.5-.6 1.2.3-1.2 4.2-3.2 5.2-3.8 7.3-2.1 7.3.5 0 1.8-1.9 3-4.3 1.1-2.3 3-5.7 4.1-7.5 1.8-2.7 2-3.8 1.1-5.8-.7-1.5-1.45-2.25-2.562-2.262zm.55 1.867c.51.043.813.332.813.895 0 1.2-6.3 5.1-8.1 5.1-.8 0 0-1.4 1.9-3 2.13-1.994 4.262-3.09 5.386-2.995z"/></symbol></svg>