<svg xmlns="http://www.w3.org/2000/svg" width="244.226" height="256.248" viewBox="0 0 244.22627 256.24801"><path d="M92.94 231.35c4.66-2.964 8.866-4.768 14.566-6.25 5.79-1.506 15.84-1.92 21.73-.894 7.44 1.295 13.808 3.81 19.488 7.7l2.69 1.842h12.366c12.3 0 12.37-.005 13.022-.937.525-.747.657-2.23.657-7.387l-.003-6.45-1.654-1.796c-2.036-2.208-5.082-3.64-11.417-5.36-12.044-3.276-17.934-8.192-19.44-16.228-.616-3.28-.225-11.52.69-14.548 1.83-6.055 6.404-11.987 12.306-15.957 11.118-7.48 28.972-12.26 50.718-13.586 6.955-.424 7.882-.568 8.54-1.325.652-.75.737-1.88.737-9.774 0-7.396-.112-9.086-.656-9.862l-.655-.937H150c-45.12 0-66.89.14-67.44.437-.72.384-.817.913-.817 4.427v3.99H25.607l.29.95c1.76 5.763 7.177 12.1 14.522 16.99 6.14 4.088 13.344 7.125 21.326 8.988 4.42 1.032 13.517 2.168 17.358 2.168h2.638v4.587c0 5.232.052 5.325 3.287 5.938 1.18.224 2.81.685 3.62 1.023 2.254.942 5.113 3.827 6.22 6.277.866 1.913.996 2.844.987 7.053-.014 6.357-.91 8.795-4.59 12.478-3.21 3.212-7.024 5.106-14.288 7.097-6.88 1.886-8.65 2.693-11.247 5.12l-2.122 1.985v6.506c0 3.68.19 6.86.438 7.322.415.778 1.007.816 12.777.816h12.34zM48.433 123.486c11.48-.338 22.54-.618 24.58-.623l3.71-.01 1.74-2.144-1.99-3.475-26.93-19.348c-14.813-10.64-26.613-19.714-27.06-19.22-.066.073 6.32 7.974 14.202 17.563 7.882 9.59 17.625 16.928 15.048 17-.074.07-6.388 2.817-12.998 5.41-6.61 2.596-12.302 4.884-12.65 5.086-.81.47-2.42.488 22.348-.24zm104.07-48.78c9.796-3.262 20.207-6.226 28.54-8.77 12.292-3.757 26.143-7.973 30.78-9.37 4.64-1.395 8.792-2.726 9.23-2.957.698-.37.765-.763.55-3.22-.397-4.584-2.263-10.893-4.63-15.663-1.89-3.806-2.354-4.446-3.317-4.557-.616-.07-4.316 1.01-8.222 2.4-34.267 12.207-58.69 20.842-59.414 21.004m-3.99-7.25c-2.6-6.326-11.364-23.824-11.933-23.824-.494 0-37.03 12.147-37.275 12.393-.2.2 1.86 11.114 3.51 18.598 3.333 15.098 6.92 26.835 11.844 38.76 4.552 11.02 12.695 27.653 13.54 27.653.162 0 8.62-2.775 18.794-6.167l18.5-6.167-.273-2.374c-.392-3.423-3.383-17.86-5.076-24.51-.795-3.13-1.317-5.822-4.954-16.36-3.638-10.537-3.51-10.304-6.676-18.002zm-42.337 66.124c-1.178-3.07-48.73-75.845-48.73-74.577 0 .866 8.124 43.086 8.366 43.483.15.25 7.77 7.503 16.93 16.12l16.656 15.667 3.524.007c3.127.007 3.494-.072 3.253-.7zM51.2 85.043l.447-2.955L39.82 68.082c-9.38-11.11-11.887-13.85-12.124-13.244-.165.42-.698 3.213-1.185 6.21-.723 4.458-.785 5.545-.34 5.99 2.91 2.903 23.84 21.156 24.16 21.072.233-.06.624-1.44.87-3.067z" fill="none" stroke="#fff" stroke-width="5"/></svg>