<svg xmlns="http://www.w3.org/2000/svg" width="224250.463" height="224250.478" viewBox="0 0 210.2348 210.23482"><path d="M83.42 86.884v8.75c0 2.413 3.75 2.413 3.75 0v-8.75c0-2.5-3.75-2.5-3.75 0 0 0 0-2.5 0 0M68 89.597c5.13-.125 10.43.125 15.532-.425 2.386-.25 2.44-3.563 0-3.75h-.115c-2.42-.013-2.475 3.737-.06 3.75h.06v-3.75c-5 .55-10.344.3-15.475.425-2.414.05-2.363 3.8.057 3.75m-1.747 8.262c5.664 1.237 11.425.537 17.164.487 2.416-.025 2.42-3.775 0-3.75-5.373.05-10.87.812-16.17-.35-2.355-.525-3.358 3.087-.995 3.612m2.997-23.684c6.118-.025 12.22-.335 18.334 0L85.71 72.3c-.27 2.083-.144 4.168-.416 6.25-.314 2.397 3.44 2.36 3.75 0 .272-2.082.145-4.167.417-6.25.14-1.053-.96-1.824-1.874-1.874-6.114-.335-12.216-.025-18.334 0-2.418.01-2.418 3.76 0 3.75m-4.307-.96c.64 2.315.35 4.632.35 7.006 0 1.037.852 1.837 1.874 1.875 6.385.175 12.777.387 19.166.412 2.42.012 2.42-3.743 0-3.75-6.39-.02-12.78-.24-19.167-.417l1.874 1.88c0-2.746.257-5.33-.484-8.002-.644-2.328-4.263-1.338-3.615.996m2.224-17.582h20c-.626-1.25-1.25-1.355-1.876-1.98-.358 3.61-.414 6.98-.417 10.73 0 2.5 3.75 2.5 3.75 0 .003-3.75.06-7.12.417-10.73.1-1.017-.93-1.77-1.875-1.77h-20c-2.5 0-2.5 3.75 0 3.75 0 0-2.5 0 0 0m-.834 10.625c6.808.026 13.61.387 20.416.416 2.42.01 2.42-3.74 0-3.75-6.807-.03-13.608-.39-20.416-.417-2.42-.01-2.42 3.74 0 3.75M63.42 54.383v8.75c0 2.42 3.75 2.42 3.75 0v-8.75c0-2.5-3.75-2.5-3.75 0 0 0 0-2.5 0 0M35.78 72.798c1.08 5.208.79 10.474.764 15.75-.013 2.424 3.737 2.424 3.75 0 .028-5.626.253-11.197-.9-16.745-.492-2.367-4.107-1.364-3.615.995m.89-.637c-4.28.946-8.145 2.98-12.114 4.772-2.202.992-.292 4.227 1.893 3.24 3.68-1.663 7.245-3.52 11.216-4.396 2.36-.522 1.36-4.135-.995-3.615m3.14-.357c-1.274-4.125-2.973-8.084-4.584-12.082-.89-2.214-4.52-1.248-3.615.996 1.61 4 3.31 7.96 4.585 12.082.71 2.304 4.332 1.32 3.615-.995m-1.92 2.534c5.485 3.07 10.026 7.46 15 11.247 1.924 1.475 3.79-1.787 1.892-3.237-4.98-3.793-9.505-8.173-15-11.248-2.112-1.183-4.002 2.057-1.892 3.237m2.69.124c3.332-3.056 6.665-6.11 10-9.166 1.784-1.637-.875-4.282-2.654-2.652l-10 9.166c-1.785 1.638.874 4.283 2.653 2.653m-.078-20.7c-11.568-.286-20.605 10.164-19.682 21.544.945 11.668 9.325 19.093 20.874 18.305C65.25 92.02 64.5 54.475 41.336 54.175c-2.42-.03-2.416 3.718 0 3.75 8.72.113 13.425 7.42 14.22 15.435.894 9.062-5.236 15.462-13.862 16.5-21.86 2.65-22.59-32.877-1.192-32.35 2.42.06 2.414-3.69 0-3.75m120.37-.513c2.362-4.72 4.722-9.444 7.083-14.166l-2.945.38 8.75 8.75c1.067 1.067 2.652.46 3.134-.828l7.5-20c.85-2.268-2.774-3.238-3.615-.995l-7.5 20 3.132-.83-8.75-8.75c-.813-.81-2.398-.71-2.945.38l-7.083 14.167c-1.078 2.157 2.156 4.055 3.237 1.893m-10.16-30.113c-.025 11.863-1.13 24.127.485 35.914.077.57.745 1.228 1.31 1.31 10.445 1.543 21.64.413 32.164.068 2.41-.08 2.42-3.83 0-3.75-8.67.285-17.353.502-26.023.348-.986-.016-1.973-.056-2.958-.1-1.464-.066-1.014-.043-1.04-.272-.335-3.286-.314-6.625-.346-9.926-.08-7.864.14-15.728.157-23.592.006-2.418-3.744-2.418-3.75 0m-38.205 56.813c8.94 2.212 18.73 1.55 27.66-.425 2.364-.516 1.36-4.13-.994-3.61-8.235 1.81-17.42 2.462-25.67.415-2.346-.584-3.34 3.032-.995 3.62m1.54-4.313c.003 0-.02-29.418 13.36-30.878 15.054-1.642 13.355 22.445 13.306 31.816-.01 2.42 3.74 2.367 3.75-.05.067-12.574 1.047-35.926-17.056-35.49-16.173.392-17.107 22.102-17.11 34.602 0 2.5 3.748 2.5 3.75 0 0 0 0 2.5 0 0m8.012-51.202c-5.25 3.26-5.93 9.716-2.645 14.696 3.84 5.824 10.762 5.433 15.55 1.093 4.566-4.137 4.216-11.05.136-15.323-4.84-5.065-12-2.958-16.336 1.495-1.686 1.732.962 4.386 2.652 2.652 2.888-2.966 7.068-4.833 10.655-1.847 2.863 2.38 3.182 6.3 1.2 9.304-2.47 3.746-7.207 4.47-10.238 1.214-2.775-2.978-2.615-7.848.92-10.045 2.047-1.274.167-4.518-1.894-3.238m-47.047 82.94c6.705 7.687 12.222 16.275 18.04 24.625 1.37 1.975 4.62.1 3.236-1.888-6-8.626-11.71-17.45-18.625-25.388-1.59-1.825-4.233.837-2.65 2.65m-66.175-.275c21.64 1.012 43.334 1.637 65 1.662 2.42 0 2.42-3.75 0-3.75-21.666-.026-43.36-.65-65-1.663-2.42-.113-2.408 3.637 0 3.75m.207-67.295c.774 20.85-.772 41.682-1.666 62.495-.104 2.425 3.646 2.412 3.75 0 .894-20.813 2.44-41.645 1.666-62.495-.088-2.41-3.84-2.42-3.75 0m2.71 1.457c26.807.022 53.608.81 80.415.833 2.42.003 2.42-3.747 0-3.75-26.807-.022-53.608-.81-80.416-.834-2.418-.004-2.418 3.747 0 3.75M121.22 87.77c-10.64 6.562-20.294 15.25-28.71 24.45-1.63 1.787 1.015 4.45 2.65 2.65 8.21-8.975 17.58-17.463 27.954-23.875 2.052-1.263.17-4.5-1.893-3.225m.947 4.325c24.728-.038 49.44-1.213 74.168-1.25 2.42-.013 2.42-3.763 0-3.75-24.728.037-49.44 1.212-74.168 1.25-2.418 0-2.418 3.75 0 3.75M199.46 3.552c-.086 28.506-3.248 56.91-3.334 85.42-.007 2.412 3.743 2.412 3.75 0 .086-28.51 3.248-56.914 3.334-85.42.007-2.42-3.743-2.42-3.75 0M96.335 3.76c34.66 3.18 69.43 1.296 104.166 1.25 2.42-.005 2.42-3.754 0-3.75-34.734.046-69.505 1.93-104.165-1.25-2.41-.222-2.388 3.53 0 3.75m-.625 128.124c.046-42.787 2.454-85.54 2.5-128.332.003-2.42-3.748-2.42-3.75 0-.046 42.79-2.454 85.545-2.5 128.332-.002 2.413 3.747 2.413 3.75 0m2.21 28.475c31.822 6.024 65.14 6.024 96.83-.838 2.362-.5 1.36-4.125-.996-3.613-30.99 6.7-63.715 6.724-94.84.837-2.36-.45-3.37 3.162-.994 3.612m84.2 33.074c-7.395-11.45-20.34-13.612-33.013-14.375-14.555-.888-30.067 3.15-38.558 16.05-1.335 2.024 1.912 3.9 3.236 1.887 7.77-11.8 22.154-14.963 35.32-14.188 11.223.662 23.166 2.275 29.776 12.524 1.307 2.026 4.554.138 3.238-1.9m-72.404-68.937c7.81 11.462 26.296 12.925 38.806 13.012 11.717.087 31.103-1.55 36.932-13.85 1.03-2.163-2.203-4.076-3.238-1.888-5.232 11.037-23.32 11.912-33.694 11.987-10.823.087-28.743-1.138-35.568-11.15-1.353-1.988-4.604-.113-3.238 1.887m38.173-13.075c30.09 21.1 29.22 69.237-.42 90.512-1.944 1.4-.075 4.65 1.894 3.238 32.007-22.975 32.926-74.2.417-96.988-1.984-1.387-3.855 1.863-1.89 3.238m-4.136-6.138c-18.093 7.05-24.975 32.713-28.003 49.838-3.288 18.613 4.015 44.037 22.586 52.125 2.193.963 4.104-2.262 1.89-3.225-17.647-7.7-23.736-31.613-20.64-49.125 2.684-15.2 9.09-39.738 25.163-46 2.227-.863 1.26-4.5-.996-3.613m-.128 4.938c-.06 31.675-2.464 63.312-1.666 95 .06 2.412 3.81 2.412 3.75 0-.798-31.688 1.606-63.325 1.666-95 .005-2.425-3.745-2.425-3.75 0m26.535.337c-7.54-6.838-20.388-6.526-29.79-5.538-12.665 1.325-24.255 6.275-32.674 15.962-15.924 18.313-19.204 45.963-6.187 66.575 19.48 30.837 66.84 29.3 87.6.987 8.307-11.338 10.63-25.863 9.516-39.575-.58-7.15-5.146-14.175-9.01-19.95-4.02-6.013-9.086-12.513-15.67-15.838-2.15-1.087-4.05 2.15-1.89 3.238 10.554 5.337 19.63 19.862 22.55 31.05 2.744 10.487-.41 23.975-5.19 33.412-8.72 17.213-27.7 26.338-46.504 25.75-20.067-.612-37.16-13.487-43.612-32.387-4.876-14.288-1.49-29.738 5.606-42.675 7.854-14.325 21.24-21.313 37.12-22.975 7.785-.813 19.26-1.038 25.483 4.612 1.785 1.624 4.445-1.026 2.65-2.65M64.67 88.133v7.5c0 2.413 3.75 2.413 3.75 0v-7.5c0-2.5-3.75-2.5-3.75 0 0 0 0-2.5 0 0"/></svg>