<svg xmlns="http://www.w3.org/2000/svg" width="175416.321" height="175416.336" viewBox="0 0 164.45279 164.4528"><path d="M40.1 47.297c-3.127.594-5.37 2.945-5.5 6.16-.112 2.746 1.748 5.4 4.397 6.13 3.536.97 7.327-1.864 8.376-5.124 1.403-4.36-3.04-7.137-6.775-7.234-2.42-.063-2.414 3.687 0 3.75 1.684.043 3.71.773 3.063 2.786-.506 1.57-2.707 2.548-4.09 2.072-.844-.29-1.25-1.615-1.21-2.604.052-1.293 1.347-2.057 2.737-2.322 2.374-.45 1.366-4.065-.998-3.615m-22.5 9.865c4.66 1.444 7.74 4.657 11.712 7.24 3.836 2.496 8.864 3.08 13.312 2.717 10.89-.888 17.548-12.402 28.6-12.39 2.418.002 2.418-3.748 0-3.75-9.378-.01-15.723 6.968-23.653 10.888-12.176 6.016-18.724-5.146-28.973-8.32-2.316-.72-3.3 2.9-.998 3.614m1.2-1.106c7.146-8.34 14.258-13.003 25.642-12.463 10.3.486 16.09 10.758 26.156 10.51 2.414-.058 2.42-3.81 0-3.75-6.274.155-10.08-4.86-15.24-7.57-4.624-2.43-9.622-2.987-14.76-3.054-10.45-.134-18.04 6.193-24.45 13.673-1.565 1.825 1.075 4.49 2.65 2.653M87.55 85.43c.4-.426.74-.9 1.066-1.376.148-.225.293-.45.442-.662.07-.1.145-.213.22-.313-.203.287.125-.126.148-.15.702-.738.737-1.913 0-2.65-.707-.713-1.95-.738-2.652 0-.4.424-.74.9-1.065 1.374-.148.225-.293.45-.44.663-.073.1-.146.212-.22.312.2-.288-.126.124-.15.15-.7.737-.736 1.912 0 2.65.707.712 1.95.737 2.652 0m6.874 10.624c1.14-1.175 1.985-2.575 3.125-3.75 1.686-1.737-.963-4.387-2.653-2.65-1.14 1.175-1.985 2.575-3.125 3.75-1.686 1.738.962 4.388 2.652 2.65m9.668 7.125l1.875-3.75c.457-.913.25-2.026-.673-2.563-.837-.5-2.108-.25-2.565.662l-1.876 3.75c-.457.912-.25 2.024.673 2.562.837.5 2.11.25 2.565-.663m5.957 9.75c.373-.4.677-.826.89-1.326.124-.3.244-.587.358-.887.14-.363.098-.263.294-.663.446-.925.26-2.025-.673-2.562-.83-.488-2.12-.25-2.566.662-.272.563-.508 1.138-.73 1.725-.082.2-.075.187.022-.038-.038.087-.078.162-.12.25-.044.075-.092.162-.143.237.154-.2.16-.213.014-.05-.7.737-.737 1.912 0 2.65.706.712 1.95.75 2.653 0m4.375 9.374l3.75-3.75c1.71-1.712-.94-4.362-2.653-2.65l-3.75 3.75c-1.71 1.713.94 4.363 2.653 2.65m5.625 6.25c1.253-1.25 2.523-2.462 3.995-3.462.845-.563 1.215-1.638.672-2.563-.49-.838-1.717-1.238-2.565-.663-1.74 1.175-3.272 2.55-4.755 4.037-1.71 1.713.94 4.363 2.653 2.65m27.12-32.837c5.798-3.925 11.12-8.475 16.63-12.788 1.902-1.488-.772-4.126-2.653-2.65-5.257 4.112-10.336 8.462-15.87 12.212-1.99 1.337-.116 4.587 1.893 3.225m-6.445-4.675c-4.543.675-7.607 5.487-5.673 9.825 1.773 3.962 7.153 5.262 10.775 3.087 2.834-1.7 3.96-5.55 2.87-8.6-1.41-3.937-5.58-4.737-9.222-3.687-2.318.675-1.33 4.3.997 3.625 1.51-.438 3.84-.763 4.61 1.062.6 1.425.234 3.063-.864 4.138-1.516 1.487-4.52.787-5.595-.85-1.57-2.388.865-4.65 3.1-4.975 2.384-.363 1.367-3.975-.998-3.625m-12.948-1.575c2.1 1.6 3.983 3.487 5.578 5.587.616.813 1.603 1.238 2.565.663.802-.463 1.292-1.738.672-2.563-2.012-2.65-4.27-4.9-6.922-6.912-.817-.625-2.095-.138-2.565.662-.564.963-.14 1.95.672 2.563M116.772 79.03c-3.262 3.312-3.105 8.362 1.173 10.724 3.606 2 8.836.163 10.795-3.375 1.76-3.176-.102-6.738-2.767-8.676-3.143-2.275-7.3-1.387-9.826 1.325-1.646 1.762 1 4.424 2.653 2.65 1.346-1.438 3.035-2 4.833-1.013 1.274.687 2.304 2.175 1.957 3.562-.483 1.937-3.593 2.912-5.275 2.474-.92-.25-1.75-.975-2.064-1.875-.427-1.226.357-2.326 1.175-3.15 1.696-1.726-.954-4.376-2.653-2.65m-6.722 18.274c2-1.962 4.248-3.662 6.25-5.625 1.726-1.7-.928-4.35-2.653-2.65-2 1.962-4.25 3.662-6.25 5.624-1.726 1.7.928 4.35 2.653 2.65m-46.403-11.25c8.646 10.738 16.88 22.138 26.36 32.138 4.258 4.5 30.144 30.025 35.79 16.162 2.125-5.225-2.025-11.762-4.57-16.075-3.457-5.863-7.697-11.213-11.836-16.6-8.76-11.4-19.487-21.388-29.957-31.188-1.762-1.65-4.418.987-2.65 2.65 8.91 8.35 17.743 16.887 25.817 26.05 7.518 8.537 17.005 19.55 19.803 30.712 2.562 10.213-15.452-1.625-17.857-3.5-5.455-4.225-10.65-9.1-15.054-14.425-7.82-9.45-15.497-19.026-23.192-28.576-1.518-1.887-4.154.788-2.653 2.65m22.028 36.25c1.04-1.037 2.083-2.087 3.125-3.125.722-.726.722-1.926 0-2.65-.723-.726-1.93-.726-2.653 0-1.04 1.037-2.084 2.087-3.125 3.124-.722.725-.722 1.925 0 2.65.723.725 1.93.725 2.653 0m-8.918-2.512c-8.965 1.612-9.517 16.525.51 16.25 9.26-.263 10.315-15.725.534-16.313-2.415-.15-2.402 3.6 0 3.75 4.975.3 3.825 8.387-.532 8.812-2.44.237-3.732-1.575-3.78-3.825-.058-2.638 1.758-4.6 4.267-5.05 2.377-.438 1.367-4.05-.998-3.625m-20.23-.063l11.25 7.274c2.038 1.313 3.915-1.937 1.893-3.237l-11.25-7.275c-2.038-1.313-3.915 1.925-1.893 3.237m-18.505 1.8c-4.13 3.562-8.016 7.387-11.875 11.25-1.71 1.712.94 4.362 2.653 2.65 3.857-3.863 7.742-7.676 11.875-11.25 1.832-1.588-.832-4.226-2.653-2.65m14.148-12.163c-3.08-2.325-7.227-.425-9.558 2.037-2.957 3.113-2.982 7.25-.196 10.438 2.776 3.162 7.16 2.875 10.21.387 3.266-2.663 3.69-7.538 1.466-10.95-1.316-2.013-4.564-.138-3.237 1.9 1.256 1.924 1.207 4.112-.338 5.874-1.394 1.588-3.504 1.875-5.116.463-1.84-1.613-1.648-3.713-.137-5.463 1.177-1.362 3.35-2.712 5.014-1.462 1.935 1.462 3.8-1.8 1.893-3.225M45.598 92.23v11.25c0 2.412 3.75 2.412 3.75 0V92.23c0-2.413-3.75-2.413-3.75 0m0 36.25v21.25c0 2.412 3.75 2.412 3.75 0v-21.25c0-2.413-3.75-2.413-3.75 0m2.5 23.124c30.415-.3 60.834-.612 91.25-.625 2.42 0 2.42-3.75 0-3.75-30.416.012-60.835.324-91.25.624-2.417.025-2.42 3.775 0 3.75m90.625-41.875c-.02 12.5-.32 25-.625 37.5-.06 2.424 3.69 2.412 3.75 0 .304-12.5.605-25 .625-37.5.004-2.413-3.746-2.413-3.75 0m-2.5-52.5c.046 9.378.58 18.75.625 28.124.01 2.413 3.76 2.425 3.75 0-.046-9.375-.58-18.746-.625-28.125-.01-2.418-3.76-2.42-3.75 0m-49.375.624c16.468.03 32.92.62 49.375 1.25 2.42.093 2.41-3.657 0-3.75-16.454-.63-32.907-1.22-49.375-1.25-2.42-.005-2.42 3.745 0 3.75m-49.375-45C12.586 14.638-4.782 37.25 1.177 61.922c5.676 23.507 33.89 36.657 55.94 29.22 32.297-10.913 39.48-58.51 6.79-73.484-7.476-3.424-15.786-4.57-23.934-4.804-2.42-.07-2.412 3.68 0 3.75 17.29.497 35.57 6.974 40.78 25.128 4.076 14.192-2.312 29.772-13.12 39.172-17.35 15.075-43.732 9.213-57.097-8.25C2.82 62.584 2.206 49.732 6.53 38.17c4.926-13.173 17.348-20.592 30.943-21.566 2.398-.172 2.415-3.923 0-3.75M81.848 75.98c0-.213 0 0 0 0 0-2.5-3.75-2.5-3.75 0 0 0 0-.213 0 0 0 2.412 3.75 2.412 3.75 0"/></svg>