<svg xmlns="http://www.w3.org/2000/svg" width="119452.932" height="119452.94" viewBox="0 0 111.98712 111.98713"><path d="M40.854 93.11c2.62 2.55 5.743 4.44 8.714 6.542 1.98 1.4 3.85-1.853 1.892-3.237-2.712-1.92-5.56-3.63-7.953-5.958-1.734-1.686-4.388.963-2.653 2.653m2.576-.7c3.66-.455 7.325-.876 10.915-1.735 2.353-.56 1.354-4.178-.995-3.615-3.268.78-6.59 1.186-9.92 1.6-2.367.292-2.396 4.046 0 3.75m-2.612-.674c8.892 5.153 19.607 4.966 29.36 2.69 2.355-.55 1.356-4.166-.995-3.616-8.763 2.044-18.465 2.327-26.473-2.31-2.096-1.216-3.983 2.025-1.892 3.236M24.68 35.326c5.738.054 11.502.764 17.165-.485 2.218-.486 1.47-3.476-.497-3.68-5.57-.583-8.17 3.89-11.326 7.63-1.548 1.837 1.09 4.504 2.652 2.652 2.415-2.865 4.365-6.983 8.674-6.533l-.498-3.684c-5.302 1.168-10.798.4-16.17.35-2.42-.024-2.417 3.726 0 3.75m-8.957 22.29c.45-10.217 11.01-17.017 18.654-22.13 1.998-1.336.123-4.587-1.893-3.24-8.922 5.97-19.99 13.563-20.51 25.37-.107 2.42 3.643 2.41 3.75 0m81.798-1.172l5 6.25c.64.798 1.988.662 2.652 0 .783-.783.638-1.855 0-2.653-1.666-2.08-3.332-4.165-5-6.25-.64-.798-1.99-.66-2.652 0-.783.784-.638 1.856 0 2.654m-6.288-23.042c8.814 5.06 10.244 15.322 10.32 24.632.02 2.417 3.77 2.418 3.75 0-.087-10.694-2.16-22.118-12.177-27.87-2.102-1.205-3.99 2.036-1.893 3.238m-27.386-21.41c-6.69.04-12.06 3.91-13.034 10.724-.892 6.246 2.585 13.048 8.586 15.364 9.175 3.54 17.962-3.936 19.588-12.88 1.712-9.415-6.95-13.068-14.724-13.208-2.42-.045-2.416 3.705 0 3.75 6.166.112 12.248 2.203 10.895 9.635-1.306 7.172-9.24 12.217-15.827 8.493-3.703-2.094-5.37-6.87-4.794-10.914.692-4.847 4.718-7.187 9.308-7.214 2.417-.015 2.42-3.765 0-3.75m36.747 59.234c-7.126-1.45-13.57 1.283-17.147 7.69-3.13 5.603-2.67 13.25 2.34 17.566 7.27 6.26 18.412 1.245 23.61-5.203 6.122-7.6.49-17.03-7.553-20.054-2.267-.852-3.237 2.773-.995 3.615 3.39 1.276 5.884 3.694 7.115 7.115 1.353 3.76-1.15 6.95-3.726 9.357-4.57 4.268-13.448 6.517-17.597.59-2.446-3.495-1.48-8.37.45-11.823 2.55-4.564 7.572-6.24 12.507-5.24 2.36.48 3.365-3.133.995-3.614M14.68 67.41C4.857 67.02.208 71.71.004 81.51-.202 91.444 7.18 95.784 16.227 95.3c9.15-.485 14.467-6.49 14.393-15.478-.072-8.778-7.833-12.23-15.522-12.413-2.42-.06-2.415 3.69 0 3.75C21 71.3 26.394 73.24 26.87 79.82c.505 6.984-4 11.02-10.643 11.73-7.353.785-12.168-2.53-12.473-10.042-.12-3 .325-6.44 2.473-8.68 1.988-2.074 5.857-1.774 8.453-1.67 2.42.094 2.41-3.656 0-3.75m91.808-6.378c.705-2.038 1.76-3.875 3.27-5.422 1.686-1.733-.964-4.386-2.654-2.653-1.97 2.023-3.315 4.422-4.23 7.078-.792 2.292 2.83 3.27 3.614.997"/></svg>