<svg xmlns="http://www.w3.org/2000/svg" width="210304.721" height="210304.732" viewBox="0 0 197.16067 197.16069"><path d="M133.787 73.95c.583 2.504.556 4.188.557 7.938 0 1.25 3.75 1.25 3.75 0 0-3.75-.03-5.942-.692-8.78-.55-2.354-4.165-1.51-3.615.84m-17.853 76.35c6.31 5.31 9.473 13.298 16.214 18.21 1.96 1.426 3.826-1.83 1.892-3.24-6.417-4.675-9.407-12.535-15.453-17.624-1.838-1.545-4.505 1.093-2.653 2.653m5.03 12.537c3.42-5.305 8.823-8.81 13.456-12.952 1.807-1.615-.855-4.26-2.652-2.653-4.905 4.387-10.42 8.09-14.043 13.712-1.315 2.04 1.933 3.917 3.238 1.892m-3.78-31.702c4.595 5.56 8.82 11.724 14.965 15.707 2.035 1.32 3.914-1.928 1.892-3.238-5.823-3.776-9.85-9.85-14.203-15.123-1.543-1.867-4.18.803-2.653 2.652m14.584-7.238c-5.473 4.657-10.73 9.54-15.416 15-1.565 1.825 1.075 4.49 2.652 2.653 4.684-5.46 9.943-10.344 15.416-15 1.844-1.57-.822-4.21-2.652-2.653m-14.043-18.142c3.682 6.335 8.073 12.23 13.21 17.462 1.695 1.728 4.347-.926 2.652-2.652-4.923-5.013-9.097-10.633-12.624-16.703-1.214-2.09-4.456-.203-3.238 1.892m13.75-4.393c-4.257 6.6-9.908 12.144-14.166 18.75-1.316 2.038 1.932 3.917 3.237 1.892 4.256-6.603 9.907-12.146 14.166-18.75 1.316-2.04-1.933-3.916-3.238-1.893m-10-12.693c2.855 4.115 5.477 8.386 8.334 12.5 1.368 1.97 4.62.098 3.237-1.893-2.857-4.113-5.48-8.385-8.334-12.5-1.368-1.97-4.62-.1-3.238 1.893m-1.22 9.965c4.002-5.136 9.453-8.773 14.62-12.625 1.914-1.428.048-4.685-1.893-3.238-5.408 4.03-11.19 7.834-15.38 13.21-1.467 1.883 1.166 4.557 2.652 2.652m17.84-15.7c11.118-.058 22.216-.78 33.334-.836 2.42-.013 2.42-3.763 0-3.75-11.118.056-22.216.778-33.334.835-2.417.013-2.42 3.763 0 3.75m-.834 11.666c11.275-1.308 22.617-2.035 33.832-3.818 2.385-.377 1.368-3.99-.995-3.615-10.884 1.73-21.897 2.414-32.837 3.683-2.372.275-2.4 4.028 0 3.75m-3.54-1.458c.01 0 .228 47.57.415 71.46.02 2.416 3.77 2.523 3.75.103-.187-23.887-.407-47.812-.416-71.562 0-2.5-3.752-2.5-3.75 0 0 0 0-2.5 0 0m-20-6.25c.01 0 .445 52.434 0 78.54-.042 2.42 3.708 2.313 3.75-.102.445-26.11.01-52.188 0-78.438 0-2.5-3.752-2.5-3.75 0 0 0 0-2.5 0 0M80.933 56.126c3.198 3.125 6.915 5.612 10.798 7.8 2.11 1.186 4-2.05 1.892-3.238-3.614-2.037-7.06-4.3-10.037-7.212-1.732-1.688-4.385.962-2.653 2.65m4.773 9.463c5.523-3.764 11.426-6.902 16.63-11.127 1.877-1.525-.793-4.162-2.653-2.65-4.944 4.013-10.62 6.963-15.87 10.538-1.986 1.35-.112 4.604 1.893 3.24m-23.105-8.627c3.047 3.9 6.375 7.363 11.245 8.815 2.322.693 3.307-2.927.995-3.615-4.205-1.25-6.975-4.512-9.588-7.85-1.49-1.9-4.122.775-2.652 2.65m2.656 9.65c6.84-2.662 13.17-6.312 19.616-9.775 2.13-1.15.236-4.375-1.892-3.237-6.155 3.313-12.192 6.863-18.72 9.4-2.23.863-1.26 4.49.996 3.613m-22.533-10.45c2.923 4.2 7.104 6.575 11.955 7.95 2.33.663 3.32-2.962.995-3.612-3.852-1.1-7.37-2.862-9.712-6.224-1.373-1.975-4.624-.1-3.238 1.887m1.732 9.844c5.165-3.38 10.67-6.206 15.833-9.58 2.014-1.326.137-4.576-1.892-3.24-5.165 3.376-10.67 6.2-15.834 9.59-2.014 1.31-.136 4.56 1.893 3.23M20.1 56.55c4.482 4.376 9.675 7.776 15.83 9.228 2.35.555 3.35-3.065.995-3.615-5.553-1.312-10.127-4.312-14.172-8.262-1.73-1.7-4.383.95-2.653 2.65m3.108 11.957c5.235-3.86 10.866-7.07 16.666-10.006 2.16-1.087.26-4.324-1.892-3.224-5.8 2.925-11.432 6.137-16.667 9.993-1.923 1.418-.057 4.674 1.893 3.237m107.386 1.924c19.04-.063 38.044-1.603 57.084-1.667 2.42-.007 2.42-3.757 0-3.75-19.04.064-38.044 1.604-57.084 1.668-2.42.01-2.42 3.758 0 3.75M109.97 56.89c-.034 3.338-.385 6.663-.417 10-.01 1.033.86 1.86 1.875 1.875 2.675.035 5.31.386 7.894-.485.796-.267 1.272-.937 1.272-1.807V55.64c0-1.025-.645-1.25-1.666-1.25h-7.084c-2.5 0-2.5 3.75 0 3.75h7.084c-.625-1.25-.834-1.875-2.084-2.5V66.47c1.25-.602 1.023-1.204 1.483-1.807-2.25.756-4.624.38-6.952.35.625.625 1.277 1.25 1.902 1.875.034-3.337.396-6.662.428-10 .025-2.425-3.712-2.412-3.736 0m-3.96-6.037c6.253-.037 12.498-.387 18.75-.424 2.42-.013 2.42-3.763 0-3.75-6.252.037-12.497.387-18.75.425-2.418 0-2.418 3.75 0 3.75m16.875.626c.382 10-.36 19.995-.416 29.995-.015 2.42 3.735 2.418 3.75 0 .054-10 .797-19.994.415-29.994-.09-2.413-3.84-2.425-3.75 0m-16.457 33.12c5.47.028 10.9.316 16.33-.483 2.386-.35 1.37-3.964-.995-3.615-5.075.745-10.23.375-15.335.348-2.42-.013-2.418 3.737 0 3.75M102.953 50.3c1.592 9.75.63 20.468.766 30.338.033 2.416 3.783 2.42 3.75 0-.143-10.235.752-21.212-.902-31.337-.39-2.374-4.003-1.362-3.615 1m-71.86.476c13.175-3.513 25.956-9.7 38.537-14.913 15.507-6.425 31.54-11.812 47.295-17.587 2.253-.825 1.28-4.45-.995-3.613-15.702 5.75-31.69 11.113-47.137 17.525-12.63 5.238-25.47 11.438-38.696 14.975-2.335.625-1.344 4.238.995 3.613m-13.415 4.237c27.892.025 55.882 1.113 83.75-.412 2.406-.137 2.418-3.887 0-3.75-27.868 1.526-55.858.438-83.75.413-2.42 0-2.42 3.75 0 3.75m30.417 21.875v1.25c0 2.5 3.75 2.5 3.75 0v-1.25c0-2.5-3.75-2.5-3.75 0 0 0 0-2.5 0 0m-12.64-2.166c-.43 1.68-.48 3.356-.485 5.084 0 1.018.855 1.88 1.874 1.875 4.445-.02 8.893-.246 13.334-.417 2.41-.092 2.42-3.842 0-3.75-4.44.17-8.89.396-13.334.418l1.875 1.876c0-1.388 0-2.735.348-4.087.6-2.346-3.02-3.34-3.615-.998m-3.61 1.54c7.225-.025 14.444-.39 21.667-.416 2.42-.01 2.42-3.76 0-3.75-7.223.026-14.442.39-21.666.417-2.42.01-2.42 3.76 0 3.75m7.003 30.765c1.68.43 3.333.874 5.08.903 2.42.04 2.417-3.71 0-3.75-1.408-.023-2.728-.422-4.085-.767-2.345-.596-3.338 3.02-.995 3.615m.497 5.068s2.954-.024 4.455-.483c2.307-.704 1.427-4.324-.89-3.615-1.195.364-2.316.348-3.566.348-2.5 0-2.5 3.75 0 3.75 0 0-2.5 0 0 0m-2.5 2.5s5.83-.055 8.623-.483c2.386-.364 1.265-3.976-1.1-3.615-2.448.374-5.023.348-7.523.348s-2.5 3.75 0 3.75c0 0-2.5 0 0 0m4.375-34.79c-.122 8.642-1.546 17.19-1.667 25.832-.034 2.42 3.716 2.416 3.75 0 .12-8.642 1.545-17.19 1.666-25.832.033-2.42-3.717-2.417-3.75 0m-2.596 47.963c-3.577-2.437-1.194-9.158 2.476-10.082 2.177-.547 4.483 1.086 5.695 2.733 1.653 2.243 1.568 4.908.096 7.19-1.315 2.038 1.934 3.916 3.24 1.892 4.27-6.62-1.15-16.824-9.464-15.518-7.468 1.173-10.246 12.728-3.935 17.023 2.006 1.365 3.88-1.886 1.894-3.238m.384-18.657c1.03-.327 1.682-.35 2.836-.35 1.02 0 1.875-.852 1.875-1.875 0-1.02-.855-1.875-1.876-1.875-1.304 0-2.58.085-3.83.485-.975.31-1.59 1.29-1.31 2.306.26.955 1.33 1.62 2.304 1.31M15.096 52.575C10.54 54.463 6.208 56.988 1.346 58c-1.64.338-1.772 2.638-.448 3.426 4.128 2.462 7.992 5.407 11.702 8.456 1.853 1.52 4.523-1.116 2.653-2.653-3.955-3.254-8.063-6.417-12.463-9.042-.15 1.138-.297 2.288-.45 3.425C7.22 60.6 11.53 58.076 16.09 56.2c2.205-.912 1.24-4.55-.994-3.624m-.96 2.225c.028 4.6.358 9.188.833 13.756.246 2.38 4 2.403 3.75 0-.476-4.568-.806-9.155-.834-13.755-.015-2.412-3.765-2.412-3.75 0m5.208 14.588h81.25c2.42 0 2.42-3.75 0-3.75h-81.25c-2.5 0-2.5 3.75 0 3.75 0 0-2.5 0 0 0m150.625 5c.424 4.098.61 8.178 1.733 12.166.652 2.324 4.27 1.335 3.615-.997-1.032-3.67-1.208-7.4-1.6-11.17-.245-2.38-3.998-2.404-3.75 0m2.822-8.38c5.063-3.42 9.79-7.244 14.13-11.544 1.72-1.7-.932-4.35-2.652-2.65-4.118 4.075-8.568 7.713-13.37 10.963-1.994 1.337-.12 4.587 1.892 3.23m-2.565-8.593c3.106 4.338 6.964 7.32 11.955 9.2 2.266.855 3.236-2.775.995-3.612-4.005-1.512-7.22-4-9.712-7.474-1.395-1.95-4.652-.075-3.238 1.887M151.54 66.84c5.283-3.327 10.566-6.652 15.834-10.002 2.034-1.287.155-4.537-1.893-3.237-5.266 3.35-10.55 6.676-15.832 10-2.042 1.286-.16 4.532 1.892 3.24m-.48-9.427c2.046 4.45 5.536 8.464 10.286 10.033 2.302.76 3.282-2.862.995-3.62-3.816-1.263-6.424-4.788-8.044-8.3-1.01-2.2-4.24-.288-3.237 1.887m-20.42-2.075c2.76 4.525 6.22 8.75 11.09 11.086 2.17 1.042 4.074-2.198 1.894-3.236-4.325-2.075-7.294-5.725-9.745-9.75-1.256-2.062-4.5-.175-3.24 1.9m4.65 10.25c6.368-3.85 12.563-7.962 18.75-12.087 2-1.324.125-4.574-1.892-3.224-6.188 4.125-12.384 8.225-18.75 12.075-2.067 1.25-.183 4.493 1.892 3.24m57.663-14.614c-1.205 5.337-2.14 10.725-4.167 15.83-.893 2.25 2.734 3.217 3.615.998 2.03-5.103 2.963-10.503 4.168-15.84.532-2.35-3.083-3.35-3.615-.988M130.006 53.9c21.82.626 43.55-1.774 65.343-2.35 2.41-.074 2.418-3.824 0-3.75-21.795.576-43.524 2.976-65.344 2.35-2.418-.074-2.412 3.676 0 3.75m-7.053-31.937c3.133 9.113 4.303 18.713 7.083 27.925.697 2.313 4.317 1.325 3.615-1-2.777-9.212-3.947-18.8-7.082-27.912-.782-2.275-4.404-1.3-3.615.987m-2.083-.575c-2.16 7.763-5.7 15.05-7.5 22.913-.54 2.363 3.076 3.363 3.615 1 1.8-7.862 5.34-15.15 7.5-22.912.65-2.337-2.97-3.325-3.615-1m9.61-2.887l58.334 29.588c2.15 1.088 4.05-2.137 1.892-3.237-19.443-9.862-38.888-19.724-58.332-29.574-2.15-1.1-4.05 2.137-1.893 3.225m-8.75-1.662c1.533 1.125 3.806 1.4 5.434.313 2.097-1.412 1.817-4.024.562-5.912-1.22-1.825-3.497-2.175-5.275-.937-1.712 1.188-2.816 3.263-2.897 5.338-.034.875.607 1.525 1.377 1.813 3.18 1.15 8.454-.524 8.518-4.437.04-2.537-2.207-4.4-4.635-3.912-2.24.45-3.835 3.126-3.594 5.288.113 1.013.765 1.875 1.874 1.875.936 0 1.99-.862 1.875-1.875-.08-.7.17-1.45.84-1.662-.294.087-.39-.488-.164.137.15.4.055-.025.05.35 0-.125.144-.375-.04-.037.14-.25-.204.187-.226.212.193-.175-.358.188-.326.175-.28.15-.67.25-1.06.35-.777.175-1.424.163-2.12-.087.46.612.92 1.212 1.38 1.812.022-.55.31-1.225.696-1.7.215-.275.45-.487.735-.65.314-.187-.02.125-.125.013.14.138.372.6.39.776.05.45-.082.075.102-.05.14-.038.095-.013-.138.05.186-.063-.4.012-.41.012-.286-.012-.664-.287-.93-.487-.824-.612-2.09-.137-2.565.676-.56.95-.148 1.962.672 2.562m-93.638 52.55v3.75c0 2.5 3.75 2.5 3.75 0v-3.75c0-2.5-3.75-2.5-3.75 0 0 0 0-2.5 0 0m24.215.53c-.21-.477.04.345.065.485.074.404.072.488.135.978.12.956.24 1.82.63 2.704.414.935 1.76 1.145 2.566.673.955-.56 1.087-1.63.673-2.565.21.477-.04-.344-.067-.485-.074-.404-.072-.486-.135-.976-.12-.957-.24-1.82-.63-2.706-.413-.936-1.76-1.143-2.566-.672-.955.56-1.085 1.63-.673 2.565m39.118 113.43c2.005-.06 3.97-.43 5.914-.9l-.995-3.616c-2.09.79-4.248 1.34-6.282 2.273-1.965.9-.557 4 1.444 3.426 1.925-.552 3.723-1.386 4.994-2.982.966-1.216.45-3.206-1.326-3.2-1.915.004-2.573.45-3.826 1.798-.818.878-.487 2.322.587 2.945 1.823 1.058 3.654 1.443 6.154 1.507v-3.96h-3.332c-2.057 0-2.635 3.472-.498 3.79 2.874.425 5.62.476 8.495.05 2.385-.353 1.368-3.94-.996-3.59-2.162.32-4.342.23-6.505-.09-.166 1.227-.332 2.34-.498 3.59h2.916c2.422 0 2.41-3.57 0-3.645-1.433-.043-2.8-.214-4.054-.94l.38 2.97c.313-.336.6-.66.873-1.03-.5.676-.97.352.3.35l-1.325-3.2c-.9 1.13-1.97 1.627-3.338 2.02l1.444 3.43c1.73-.793 3.61-1.225 5.384-1.896 2.23-.843 1.392-4.194-.995-3.615-1.627.394-3.242.718-4.92.767-2.413.07-2.42 3.82 0 3.75m65.498 2.432c1.233-.372 2.52-.46 3.75-.834 2.314-.7 1.355-4.195-.995-3.615-1.618.4-3.246.74-4.918.767l.946 3.494c.954-.557 1.567-1.224 2.5-1.77 1.61-.943.922-3.182-.946-3.182h-2.084c.54 0 1.08 1.57 1.62 2.51.165-.27 1.09-.797 1.372-1.027.643-.527.687-1.677.293-2.35-.55-.943-1.64-1.14-2.565-.712-.38.176-.724.245-1.136.246-2.42.008-2.42 3.834 0 3.834h2.082c2.5 0 2.5-3.75 0-3.75h-2.5v3.543c1.25-.003 2.23-.206 3.238-.673-.758-.98-1.412-1.963-2.17-2.945.105-.11.106-.1-.092.03-.213.105-.388.202-.59.326-.513.312-.875 1.082-1.185 1.586-.75 1.22.236 3.134 1.632 3.134h2.084c-.314-1.25-.63-2.64-.945-3.806-.954.557-1.568 1.38-2.5 1.927-1.594.932-.935 3.444.946 3.414 1.997-.03 3.984-.464 5.915-.94-.33-1.205-.664-2.43-.995-3.635-1.233.372-2.52.452-3.75.824-2.31.696-1.325 4.306.995 3.605m3.46-6.392c.002 0 .037 4.182.485 6.124.54 2.356 4.156 1.252 3.615-1.102-.37-1.61-.35-2.522-.35-5.022 0-2.5-3.75-2.5-3.75 0 0 0 0-2.5 0 0m-11.54-.14c-2.093.526-4.156 1.14-6.25 1.666.61 1.044 1.216 2.09 1.825 3.134 1.06-.73 2.034-1.564 2.917-2.5 1.428-1.37-.066-3.5-1.823-3.134-2.814.585-5.522 1.495-8.334 2.084l1.444 3.426c2.572-1.8 5.408-2.825 8.3-3.98 2.19-.87 1.387-4.29-.994-3.614-5.238 1.485-10.098 3.755-15.033 6.023-1.923.884-.536 4.19 1.444 3.426 6.326-2.436 12.065-5.783 17.534-9.773 1.705-1.244.71-3.878-1.444-3.427-6.153 1.285-11.506 4.58-17.115 7.273-1.933.927-.564 4.046 1.444 3.426 6.376-1.968 11.756-5.712 17.53-8.94 1.985-1.108.54-3.742-1.444-3.426-8.83 1.405-15.954 7.125-23.78 11.023l1.89 3.237c7.31-4.85 14.04-10.53 22.084-14.167 1.996-.902.546-3.927-1.444-3.427-8.727 2.187-15.144 8.723-23.332 12.084l1.443 3.426c6.418-4.458 13.708-7.435 20-12.083 1.902-1.405.264-4.453-1.892-3.238-8.025 4.52-15.9 9.758-24.97 11.894l1.445 3.426c5.875-4.162 11.847-8.097 18.334-11.25 2.19-1.063.277-4.228-1.893-3.237-8.988 4.107-16.645 10.72-26.216 13.56l1.823 3.135c6.7-7.116 15.842-10.81 24.203-15.54 1.832-1.038.6-4.096-1.444-3.428-9.67 3.164-18.276 8.574-27.53 12.69l1.89 3.237c6.008-3.404 12.095-6.627 18.334-9.583-.63-1.08-1.26-2.16-1.893-3.237-5.498 3.152-11.478 4.932-17.467 6.893.607 1.044 1.215 2.09 1.824 3.134 3.728-3.107 7.813-5.43 12.12-7.624 1.873-.953.53-4.238-1.444-3.426-6.528 2.684-12.23 6.9-18.75 9.584l1.444 3.426c6.015-3.11 11.642-6.81 17.083-10.834 1.578-1.166.712-4.21-1.443-3.426-4.677 1.698-8.775 4.61-13.75 5.416l1.443 3.427c2.973-1.42 5.762-2.758 8.297-4.875 1.602-1.34-.184-3.397-1.824-3.134-5.518.88-7.69 7.36-10.705 11.277-.87 1.13.31 2.887 1.62 2.822 1.09-.054 1.54-.12 2.58-.484l-1.444-3.426c-1.153.47-2.263 1.026-3.333 1.666-1.328.732-1.19 3.156.45 3.426 1.994.33 3.883.465 5.914.483 2.084.02 2.602-3.248.5-3.683-3.048-.63-4.73-.292-7.59 1.023-.585.267-.826 1.01-.826 1.62v.832c0 .84.47 1.58 1.273 1.808 4.3 1.23 8.49.89 12.61-.834 2.198-.92 1.208-4.55-1.022-3.616-3.498 1.463-6.988 1.89-10.683.834.46.602.912 1.205 1.37 1.807-.137-1.603 1.153-1.556 3.874.14l.496-3.682c-1.648.044-3.288-.074-4.92-.35.152 1.142.3 2.285.448 3.427 1.07-.638 2.18-1.193 3.334-1.666 1.933-.884.55-4.124-1.444-3.426-.53.115-1.058.232-1.586.35l1.618 2.82c2.362-3.065 4.264-8.883 8.463-9.555-.608-1.044-1.215-2.09-1.824-3.134-2.283 1.91-4.885 3.022-7.535 4.29-2.068.987-.493 3.74 1.444 3.425 5.042-.817 9.02-3.698 13.75-5.416-.48-1.142-.964-2.285-1.445-3.427-5.44 4.024-11.068 7.72-17.084 10.834-1.864.965-.533 4.24 1.445 3.426 6.527-2.684 12.23-6.9 18.75-9.584-.48-1.142-.963-2.285-1.444-3.427-4.598 2.34-8.91 4.902-12.88 8.21-1.45 1.21.097 3.7 1.825 3.132 6.306-2.063 12.582-3.956 18.365-7.27 2.126-1.22.262-4.26-1.893-3.238-6.238 2.956-12.326 6.178-18.332 9.582-2.15 1.217-.266 4.197 1.892 3.237 8.957-3.982 17.28-9.25 26.634-12.312-.48-1.14-.96-2.283-1.443-3.426-8.65 4.893-18.033 8.765-24.962 16.125-1.253 1.332-.03 3.685 1.824 3.134 9.902-2.94 17.82-9.692 27.114-13.94-.632-1.078-1.262-2.158-1.893-3.237-6.485 3.152-12.46 7.087-18.333 11.25-1.707 1.21-.702 3.932 1.444 3.426 9.392-2.212 17.56-7.593 25.867-12.273-.63-1.08-1.26-2.16-1.892-3.238-6.293 4.647-13.583 7.623-20 12.083-1.628 1.13-.643 4.284 1.444 3.426 8.15-3.345 14.695-9.92 23.33-12.085-.48-1.14-.96-2.283-1.443-3.426-8.045 3.634-14.776 9.315-22.082 14.167-2.02 1.34-.274 4.316 1.892 3.237 7.534-3.75 14.392-9.292 22.884-10.645-.48-1.142-.96-2.285-1.443-3.427-5.48 3.062-10.576 6.69-16.633 8.56l1.443 3.427c5.317-2.552 10.385-5.676 16.218-6.895l-1.444-3.426c-5.19 3.787-10.62 7.077-16.634 9.394l1.444 3.426c4.632-2.128 9.217-4.248 14.135-5.645-.33-1.205-.664-2.41-.995-3.615-3.226 1.285-6.34 2.355-9.2 4.357-1.744 1.222-.685 3.87 1.445 3.426 2.812-.586 5.52-1.496 8.334-2.084-.61-1.045-1.216-2.09-1.825-3.135-.884.937-1.856 1.77-2.918 2.5-1.572 1.22.155 3.555 1.824 3.134 2.095-.527 4.16-1.14 6.25-1.667 2.345-.59 1.352-4.206-.994-3.615m1.54-12.776c-.114 6.756-1.416 13.337-.35 20.082.376 2.383 3.99 1.368 3.615-.997-1.003-6.36.38-12.713.486-19.085.04-2.42-3.71-2.417-3.75 0m-51.042 21.666h52.5c2.5 0 2.5-3.75 0-3.75h-52.5c-2.5 0-2.5 3.75 0 3.75 0 0-2.5 0 0 0m-1.808-19.918c1.136 5.175.403 10.51.35 15.752-.025 2.42 3.725 2.417 3.75 0 .056-5.61.73-11.212-.485-16.75-.518-2.36-4.13-1.36-3.614.998m-6.525 11.377c2.785.027 5.55.388 8.334.416 2.42.024 2.417-3.726 0-3.75-2.784-.028-5.55-.39-8.333-.416-2.42-.024-2.416 3.726 0 3.75m.626 7.916c2.905-.384 5.208-.416 8.958-.416 2.5 0 2.5-3.75 0-3.75-3.75 0-5.948.032-8.854.416-2.363.312-2.496 4.065-.104 3.75m60.208-.625h8.75c2.5 0 2.5-3.75 0-3.75h-8.75c-2.5 0-2.5 3.75 0 3.75 0 0-2.5 0 0 0m-64.375-9.166c-.027 2.673-.25 5.182 1.09 7.612 1.166 2.118 4.404.226 3.236-1.892-.964-1.75-.596-3.805-.577-5.72.023-2.42-3.728-2.418-3.75 0m14.715-7.577c-.794.958-.87 2.393.33 3.095.84.493 1.84.203 2.714-.022 2-.514 4.117-1.468 6.197-1.538l-1.618-2.82c-1.64 2.307-4.573 3.755-7.214 4.554-2.01.606-1.656 3.7.498 3.683 1.196-.01 2.053-.213 2.993-.965 1.888-1.512-.783-4.148-2.652-2.653.23-.208.115-.253-.34-.133l.496 3.682c3.655-1.105 7.215-3.126 9.456-6.278.828-1.163-.28-2.867-1.62-2.822-1.477.05-2.94.483-4.354.874-.766.213-1.527.435-2.29.65-.34.094-.68.184-1.023.266-.62.15-.18-.025.2.093.372.287.746.574 1.12.86-.01-.01-.015-.02-.02-.03.06.48.125.96.188 1.444-.138.236-.274.473-.41.71 1.532-1.845-1.105-4.513-2.653-2.652m-2.84-1.382c16.943.406 33.894.035 50.833-.416 2.413-.065 2.42-3.815 0-3.75-16.94.45-33.89.822-50.834.416-2.42-.058-2.415 3.692 0 3.75m55 11.667c2.927 0 5.844-.032 8.75-.417 2.36-.313 2.39-4.066 0-3.75-2.906.385-5.823.416-8.75.417-2.42 0-2.42 3.75 0 3.75m-35.335 4.933c3.045-.87 6.094-1.726 9.165-2.5 2.345-.59 1.35-4.206-.995-3.615-3.072.772-6.12 1.63-9.166 2.5-2.323.662-1.334 4.28.995 3.615m26.584-3.475v1.25c0 2.5 3.75 2.5 3.75 0v-1.25c0-2.42-3.75-2.42-3.75 0m-2.5-10c2.5 0 2.5-3.75 0-3.75s-2.5 3.75 0 3.75c0 0-2.5 0 0 0m-19.583-.208c.275 0 .546.002.82.015.238.02.256.02.058 0 .365.063 0-.05-.12-.147.78.66 1.886.765 2.652 0 .68-.68.78-1.99 0-2.653-.997-.847-2.143-.964-3.408-.965-2.42-.002-2.42 3.748 0 3.75m-1.592 1.95c-.08.09-.175.15-.287.19.212-.045.224-.054.032-.027.335-.04.676-.03 1.012-.03 2.42-.002 2.42-3.753 0-3.75-1.266 0-2.412.118-3.41.966-.778.663-.678 1.973 0 2.65.767.766 1.874.663 2.653 0"/></svg>