<svg xmlns="http://www.w3.org/2000/svg" width="261236.772" height="261236.772" viewBox="0 0 244.90948 244.90947"><path d="M5.456 118.24c4.42 13.33 4.454 27.56 12.075 39.622 3.498 5.588 12.076.352 8.513-5.28-7.027-11.2-6.928-24.718-11.02-37.118-2.11-6.33-11.678-3.61-9.567 2.777m14.68-38.012c19.235-1.877 11.548 32.746-5.277 29.837-6.237-1.082-8.91 9.002-2.64 10.087 32.034 5.54 40.71-53.59 7.917-50.39-6.3.62-6.367 11.087 0 10.466m29.132 117.77c24.973-17.485-1.65-71.372-25.767-45.968-4.553 4.764 2.44 12.163 6.994 7.398 13.394-14.113 26.79 20.426 13.79 29.537-5.31 3.704-.363 12.773 4.982 9.034m30.318 18.263c-9.073-6.882-19.102-12.125-27.713-19.708-4.85-4.29-11.91 3.07-6.994 7.398 9.272 8.18 19.928 13.932 29.693 21.344 5.213 3.945 10.13-5.142 5.015-9.034m50.84 17.182c-3.728-28.93-43.912-36.82-53.776-8.05-2.178 6.358 7.423 9.076 9.567 2.78 6.83-19.977 32.43-9.362 34.64 8.05.858 6.662 10.393 3.812 9.568-2.78m28.24-8.054c-5.84.772-11.71.552-17.518 1.316-6.4.844-11.712 4.207-16.86 8.18-5.08 3.934-.164 13.02 4.983 9.034 3.926-3.007 8.05-6.244 12.966-6.893 5.442-.715 10.952-.45 16.43-1.172 6.234-.826 6.3-11.3 0-10.464m42.624-30.527c-10.822-8.967-25.074-10.562-36.82-2.396-12.206 8.462-13.36 23.974-7.257 36.866 2.837 6.037 11.382.736 8.545-5.28-9.403-19.866 13.427-34.293 28.537-21.79 4.948 4.108 12.008-3.242 6.994-7.4m22.764-33.276c-7.885 11.256-13.46 24.16-22.995 34.06-4.553 4.735 2.44 12.13 6.994 7.4 10.16-10.55 16.166-24.197 24.545-36.18 3.794-5.433-4.783-10.64-8.544-5.28m3.794-44.773c-16.1.213-27.845 12.013-27.218 29.352.528 14.07 11.382 27.804 25.502 21.85 5.873-2.466 3.332-12.59-2.606-10.09-8.05 3.386-12.372-3.93-13-11.76-.89-11.59 6.797-18.752 17.322-18.888 6.4-.08 6.4-10.548 0-10.464m-10.13-34.85c3.597 14.243 7.06 28.51 12.142 42.255 2.277 6.22 11.844 3.515 9.535-2.78-5.05-13.75-8.546-28.017-12.11-42.255-1.65-6.516-11.183-3.75-9.567 2.78M201.59 36.477c-12.24 7.255-17.88 25.414-10.326 38.37 8.677 14.82 21.247 16.975 35.136 8.283 5.51-3.43.528-12.477-4.982-9.034-9.435 5.894-15.572 5.14-21.61-4.535-5.014-8.046-.692-19.623 6.764-24.05 5.576-3.302.56-12.343-4.982-9.033m-30.913-16.16c6.5.84 10.855 5.615 15.11 10.363 4.685 5.165 9.436 9.944 15.572 13.1 5.707 2.948 10.722-6.075 4.98-9.033-13.624-7.03-19.398-22.788-35.663-24.895-6.3-.82-6.235 9.655 0 10.464m-47.474 20.828c23.094 15.14 42.658-1.72 50.18-25.798 1.98-6.425-7.555-9.16-9.568-2.784-5.51 17.688-18.21 30.95-35.598 19.548-5.443-3.565-10.425 5.486-5.014 9.034m-44.01-18.658c13.03-5.277 25.732-11.552 39.92-12.02-1.585-1.28-3.168-2.56-4.785-3.84 1.65 10.467 3.068 20.974 4.95 31.39 1.22 6.623 10.754 3.81 9.566-2.778-1.913-10.422-3.332-20.925-4.948-31.396-.363-2.215-2.772-3.906-4.784-3.84-15.176.5-28.604 6.742-42.56 12.396-5.905 2.386-3.33 12.505 2.64 10.088M41.384 50.792c11.184 11.05 29.164 17.26 41.9 5.438 11.843-10.98 4.75-25.33 1.022-38.435-1.848-6.44-11.415-3.694-9.568 2.783 2.178 7.552 8.248 17.866 4.058 25.568-6.63 12.17-23.457 4.137-30.418-2.756-4.652-4.604-11.68 2.78-6.994 7.402m-18.64 21.612c3.035-5.096 7.225-9.407 11.316-13.523 1.98-1.98 4.058-3.864 6.17-5.67.824-.727 1.748-1.372 2.672-2.003.626-.436 1.814-.813.33-.628 6.268-.775 6.334-11.25 0-10.465-5.61.69-10.327 5.814-14.352 9.6-5.443 5.116-10.788 10.857-14.648 17.408-3.43 5.738 5.147 10.987 8.512 5.28m99.832 44.094c.726 2.43.792 5.036 1.682 7.405 1.353 3.662 3.926 6.125 7.193 7.932 4.62 2.557 8.842-2.456 6.764-7.158-1.452-3.338-1.815-7.088-3.3-10.464-2.573 2.114-5.18 4.228-7.752 6.34 3.002 3.27 5.245 7.194 8.248 10.466 4.453 4.848 11.448-2.557 6.994-7.402-3.002-3.268-5.246-7.193-8.248-10.464-1.55-1.682-4.09-1.992-6.005-.817-2.473 1.542-2.902 4.57-1.747 7.158 1.452 3.338 1.814 7.088 3.3 10.464 2.242-2.386 4.486-4.77 6.762-7.157-1.088-.593-1.88-1.06-2.672-1.93.56.625-.23-.456-.297-.575.495.963-.066-.28-.1-.48-.527-2.01-.66-4.096-1.253-6.095-1.913-6.418-11.48-3.676-9.567 2.777m-9.733-11.664c-11.975 5.11-19.695 16.226-13.427 29.638 5.575 11.832 20.29 15.76 31.21 10.81 11.91-5.392 16.56-20.687 11.35-32.875-5.643-13.18-19.103-15.64-30.32-8.79-5.51 3.373-.528 12.414 5.014 9.034 6.467-3.946 12.702-3.304 16.33 4.007 3.4 6.893.232 15.662-6.102 19.017-5.972 3.17-13.923.928-17.882-4.663-4.915-7.01-.132-13.268 6.467-16.09 5.84-2.49 3.3-12.616-2.64-10.087m-3.3-33.137c-30.417 6.718-46.748 35.826-38.302 67.396 8.645 32.202 45.068 48.69 73.77 36.587 24.117-10.176 31.672-40.19 26.69-64.914-6.3-31.428-33.915-45.596-62.156-40.814-6.268 1.06-3.596 11.144 2.64 10.087 22.93-3.88 42.36 7.087 49.355 30.904 5.805 19.857-.43 43.524-18.015 53.992-22.533 13.415-52.62-2.184-61.793-25.746-10.326-26.478 5.147-51.82 30.452-57.407 6.235-1.377 3.596-11.465-2.64-10.087m9.568 41.668c.198 7.632 3.365 13.866 7.29 20.08 3.498 5.59 12.076.354 8.513-5.28-2.87-4.583-5.74-9.12-5.906-14.8-.2-6.735-10.096-6.753-9.898 0m-3.497 1.957c-.66-.822.89 1.846 1.12 2.32 1.024 2.104 1.948 4.284 2.806 6.468 1.914 4.873 3.63 9.9 4.685 15.06 1.353 6.597 10.92 3.8 9.568-2.775-1.155-5.623-3.134-11.026-5.213-16.32-1.616-4.134-3.2-8.697-5.97-12.153-4.125-5.15-11.12 2.29-6.995 7.4" fill="#000014"/></svg>