<svg xmlns="http://www.w3.org/2000/svg" width="87.775mm" height="87.775mm" viewBox="0 0 311.01403 311.01403"><path d="M208.218 131.704c2.812-.993 5.355-2.57 7.494-4.65 1.735-1.688-.92-4.336-2.653-2.65-1.663 1.615-3.647 2.91-5.837 3.684-2.265.798-1.29 4.422.995 3.616m-10.915 45.275v7.5c0 2.5 3.75 2.5 3.75 0v-7.5c0-2.5-3.75-2.5-3.75 0 0 0 0-2.5 0 0m20.417-69.376c12.047-.1 23.917-1.734 35.833-3.334 2.36-.316 2.39-4.07 0-3.75-11.92 1.6-23.785 3.235-35.833 3.334-2.417.02-2.42 3.77 0 3.75m-62.5 6.666c4.674-.097 9.193-1.825 12.16-5.55 1.49-1.87-1.146-4.54-2.653-2.65-2.378 2.984-5.733 4.37-9.507 4.45-2.415.052-2.42 3.8 0 3.75M52.384 91.42c-2.57-.8-5.687-.94-7.93.79-2.33 1.794-2.697 4.66-1.876 7.35.704 2.308 4.324 1.324 3.615-.996-.374-1.228-.576-2.66.64-3.465 1.325-.88 3.155-.5 4.554-.064 2.315.723 3.297-2.898.997-3.615m104.84-77.5c-6.145 1.13-11.32 5.623-9.646 12.308.586 2.345 4.202 1.35 3.615-.998-1.17-4.677 3.05-6.96 7.025-7.694 2.377-.436 1.367-4.05-.995-3.615m17.997 101.184c19.15.04 38.3.975 57.434-.15 12.943-.764 30.014-1.238 40.543-9.855 6.893-5.646 8.77-19.107 4.676-26.845-4.09-7.732-17.8-11.072-25.266-6.23.855.856 1.71 1.71 2.565 2.568 4.74-7.93-.23-15.364-7.624-19.185-8.313-4.297-18.85-3.133-24.364 4.79-1.385 1.99 1.866 3.863 3.238 1.895 7.522-10.808 33.39-2.575 25.512 10.606-.942 1.575.965 3.604 2.565 2.565 3.64-2.364 9.84-1.21 13.807-.367 5.727 1.216 7.457 6.957 7.753 12.08.65 11.212-6.213 17.756-16.458 20.482-27.085 7.208-56.7 3.954-84.382 3.894-2.418-.005-2.418 3.745 0 3.75m17.64-83.46c1.305-4.22 7.61-5.29 11.398-5.67 4.554-.456 9.15 1.64 12.97 3.854 9.245 5.347 17.29 23.09 6.21 30.532-1.994 1.34-.12 4.59 1.894 3.238 12.278-8.248 6.88-27.243-3.37-35-5.39-4.077-12.423-7.248-19.332-6.193-5.225.8-11.65 2.63-13.385 8.243-.717 2.316 2.904 3.3 3.615.996m-50-3.496C136.484-4.92 200.713-4.44 190.913 30.23c-.66 2.333 2.96 3.32 3.615.998 2.49-8.81 1.136-14.753-3.97-22.303C186.17 2.43 176.82.535 169.575.088c-7.124-.44-16.177.675-21.807 5.472-6.762 5.763-10.21 14.838-8.522 23.584.458 2.374 4.072 1.366 3.615-.996m-25 20.832c-1.713-7.994 1.163-14.394 8.68-18.12 3.734-1.85 13.98-3.894 14.788 2.034.324 2.387 3.937 1.367 3.615-.996-1.188-8.723-13.275-6.913-19.09-4.785-9.943 3.637-13.688 13.167-11.608 22.865.507 2.363 4.122 1.36 3.615-.998m-67.225 68.208c-13.19.527-17.223-12.03-15.005-23.14 2.97-14.87 24.808-15.622 35.757-11.512 1.285.484 2.795-1.017 2.306-2.306-2.28-6.01.21-10.95 3.11-16.324 4.345-8.046 13.265-10.733 21.75-11.718 7.13-.828 14.576.265 20.29 4.853 5.466 4.388 5.72 13.564 6.167 19.94.168 2.386 3.824 2.435 3.75 0-.336-11.117 34.505-5.332 20.134 11.173.983.757 1.964 1.515 2.945 2.272 1.902-4.435 10.365-2.305 13.854-1.337 8.256 2.287 10.15 14.3 7.103 21.09-4.537 10.107-22.13 7.426-30.912 7.426-30.283 0-60.556-.106-90.832 0-2.418.01-2.42 4.07 0 4.062 19.45-.068 38.88.313 58.332.313h35c6.87 0 13.797.04 20.54-1.51 14.23-3.272 16.147-19.935 8.328-30.46-4.31-5.802-21.104-9.67-24.65-1.4-.77 1.795 1.422 3.98 2.944 2.234 19.027-21.856-27.087-32.09-26.537-13.865h3.75c-.558-7.97-1.236-16.73-7.265-22.59-6.413-6.24-16.547-6.695-24.863-5.73-8.822 1.025-17.062 4.464-22.212 11.933-4.193 6.082-7.048 13.498-4.342 20.635.767-.77 1.537-1.54 2.306-2.307-13.954-5.237-35.542-2.345-40.37 14.13-3.936 13.43 3.8 28.48 18.62 27.888 2.41-.096 2.42-3.847 0-3.75m66.67 158.54v23.75c0 2.5 3.75 2.5 3.75 0v-23.75c0-2.5-3.75-2.5-3.75 0 0 0 0-2.5 0 0m-30 2.71c10.56-.058 21.105-.777 31.666-.834 2.418-.014 2.42-3.764 0-3.75-10.56.057-21.106.776-31.667.834-2.418.013-2.42 3.763 0 3.75m.417 23.333c9.584-.015 19.17-.217 28.75-.416 2.415-.05 2.42-3.8 0-3.75-9.58.2-19.166.4-28.75.417-2.418.005-2.418 3.755 0 3.75m-1.46-24.79c-.387 7.21-.8 14.443-.832 21.666-.01 2.42 3.74 2.42 3.75 0 .032-7.223.445-14.455.832-21.667.13-2.42-3.62-2.406-3.75 0m41.46 24.374c5.43-.06 10.822-.77 16.25-.833 2.418-.025 2.42-3.775 0-3.75-5.428.063-10.82.773-16.25.834-2.417.026-2.42 3.776 0 3.75m.833-8.333c6.26-.05 12.49-.78 18.75-.832 2.417-.022 2.42-3.772 0-3.75-6.26.052-12.49.78-18.75.833-2.418.023-2.42 3.773 0 3.75m1.25-8.332c5.975-.028 11.942-.388 17.917-.418 2.418-.01 2.42-3.76 0-3.75-5.975.03-11.942.39-17.917.418-2.42.01-2.42 3.76 0 3.75m.417-7.5c6.808-.028 13.608-.39 20.415-.418 2.42-.01 2.42-3.76 0-3.75-6.807.028-13.607.39-20.415.418-2.418.01-2.418 3.76 0 3.75m-42.917-7.5c20.27-.51 40.61-2.725 60.832-4.168 2.398-.17 2.415-3.92 0-3.75-20.223 1.443-40.563 3.66-60.832 4.168-2.414.06-2.42 3.81 0 3.75m-3.543-14.375c.087 4.173.795 8.32.835 12.5.024 2.417 3.774 2.42 3.75 0-.04-4.18-.748-8.327-.835-12.5-.05-2.415-3.8-2.42-3.75 0m64.585-9.168c-.205 5.553-.4 11.11-.417 16.668-.008 2.418 3.742 2.418 3.75 0 .016-5.557.212-11.115.417-16.668.09-2.42-3.66-2.41-3.75 0m-62.21 10.56c21.167-3.29 42.438-5.84 63.668-8.685 2.36-.315 2.39-4.07 0-3.75-21.563 2.89-43.166 5.476-64.666 8.818-2.384.37-1.368 3.983.997 3.616m75.336 19.234c11.244.025 22.512.486 33.75 0 2.41-.105 2.42-3.855 0-3.75-11.238.486-22.506.025-33.75 0-2.418-.005-2.418 3.745 0 3.75m31.943-1.377c1.16 7.275.79 14.668.765 22.003-.01 2.418 3.74 2.418 3.75 0 .026-7.693.316-15.372-.9-23-.38-2.382-3.993-1.367-3.615.998M162.72 299.69c11.255-.332 22.497.36 33.75.416 2.42.012 2.418-3.738 0-3.75-11.253-.056-22.495-.748-33.75-.416-2.412.07-2.42 3.82 0 3.75m-3.125-25.625c.035 7.778.464 15.565.833 23.333.114 2.408 3.865 2.42 3.75 0-.37-7.768-.798-15.555-.833-23.333-.01-2.418-3.76-2.42-3.75 0m1.04-58.543c11.537.37 23.052-.757 34.585-.832 2.418-.017 2.42-3.767 0-3.75-11.533.075-23.048 1.2-34.585.832-2.42-.077-2.412 3.674 0 3.75m35.418 47.71v-50c0-2.42-3.75-2.42-3.75 0v50c0 2.5 3.75 2.5 3.75 0 0 0 0 2.5 0 0m-33.75 2.708c10.557-.03 21.11-.39 31.667-.418 2.42-.006 2.42-3.756 0-3.75-10.557.03-21.11.39-31.667.418-2.42.006-2.42 3.756 0 3.75m-3.125-51.043c.017 15.835.4 31.666.417 47.5.002 2.42 3.753 2.42 3.75 0-.017-15.834-.4-31.665-.417-47.5-.002-2.417-3.753-2.417-3.75 0m45.832-4.166c-.393 32.5-.01 65 0 97.5 0 2.418 3.752 2.418 3.75 0-.01-32.5-.393-65 0-97.5.03-2.42-3.72-2.417-3.75 0M74.594 310.103c44.06 1.766 87.71.417 132.71.417 2.5 0 2.5-3.75 0-3.75-45 0-88.546 1.35-132.605-.416-2.42-.096-2.516 3.654-.106 3.75m-3.334-98.96c1.332 16.77-.608 33.746-.126 50.58.43 14.927.93 29.912.193 44.84-.12 2.417 3.63 2.405 3.75 0 .707-14.318.257-28.684-.14-43.003-.483-17.432 1.452-35.055.074-52.415-.19-2.394-3.94-2.41-3.75 0M117 241.098c9.96-4.584 20.53-8.07 30.8-11.894 2.247-.836 1.276-4.463-.994-3.616-10.58 3.938-21.44 7.55-31.7 12.272-2.194 1.01-.287 4.24 1.893 3.238m-10.483-11.505c2.084 3.332 4.166 6.666 6.25 10 1.28 2.045 4.522.163 3.237-1.894-2.082-3.334-4.165-6.667-6.25-10-1.278-2.045-4.523-.165-3.237 1.893m32.31-16.282c1.766 4.773 3.855 9.396 6.44 13.783 1.227 2.08 4.47.195 3.237-1.894-2.422-4.11-4.406-8.414-6.06-12.886-.832-2.248-4.457-1.275-3.616.997m-28.496 16.538c9.93-5.005 19.654-10.412 29.585-15.417 2.16-1.087.26-4.322-1.893-3.236-9.93 5.005-19.653 10.41-29.585 15.416-2.16 1.09-.262 4.324 1.892 3.238m63.75-40l8.75-5c2.1-1.2.21-4.44-1.893-3.238l-8.75 5c-2.1 1.2-.212 4.44 1.892 3.238m-61.28-37.593c-1.84-.46-3.65-.974-5.42-1.667-.95-.374-2.055.402-2.304 1.31-.294 1.063.36 1.932 1.31 2.306 1.768.692 3.576 1.206 5.418 1.666 2.346.588 3.34-3.03.995-3.615m17.696 11.473c1.11 3.888 2.22 7.777 3.332 11.666.663 2.32 4.28 1.334 3.615-.996-1.11-3.89-2.22-7.78-3.332-11.668-.662-2.32-4.28-1.332-3.614.998M112.8 170.87c6.162-2.074 12.247-4.385 18.333-6.666 2.244-.84 1.273-4.466-.995-3.616-6.087 2.28-12.174 4.592-18.332 6.667-2.28.766-1.302 4.39.995 3.615m2.083 14.166c7.07-2.817 14.164-5.566 21.25-8.332 2.228-.87 1.26-4.496-.995-3.616-7.087 2.766-14.184 5.515-21.25 8.333-2.22.885-1.252 4.514.995 3.616m16.094 8.685c2.134 2.58 4.112 5.313 6.667 7.5 1.827 1.566 4.492-1.075 2.653-2.65-2.556-2.19-4.534-4.92-6.668-7.5-1.543-1.866-4.18.803-2.653 2.65m-.68 17.085c2.954-2.492 6.21-4.59 9.165-7.084 1.85-1.56-.816-4.2-2.653-2.65-2.954 2.49-6.21 4.59-9.166 7.083-1.85 1.56.817 4.2 2.653 2.652m-7.5-7.916c3.47-3.06 6.776-6.3 10.415-9.17 1.897-1.495-.775-4.13-2.653-2.65-3.638 2.866-6.944 6.108-10.416 9.166-1.817 1.603.845 4.244 2.653 2.653m-32.5 17.08c1.772-1.727 3.894-3.05 5.832-4.58.802-.636.658-1.994 0-2.654-.786-.785-1.852-.632-2.653 0-1.94 1.534-4.054 2.85-5.833 4.584-1.733 1.69.92 4.34 2.653 2.65m-10.03-8.295c1.984 2.754 4.12 5.4 5.835 8.334 1.22 2.085 4.46.198 3.237-1.894-1.717-2.935-3.852-5.58-5.836-8.333-1.398-1.943-4.655-.074-3.237 1.892m8.627-7.12c2.044 2.504 3.678 5.316 5.54 7.954 1.383 1.958 4.637.086 3.238-1.894-2.05-2.903-3.875-5.955-6.125-8.713-1.53-1.875-4.166.795-2.653 2.652m-19.59-19.52l20 7.92c2.252.89 3.22-2.74.998-3.617l-20-7.917c-2.25-.89-3.22 2.738-.998 3.616m24.11-3.556c-.48 3.073-2.317 5.52-3.562 8.303-.98 2.187 2.25 4.096 3.237 1.892 1.374-3.066 3.41-5.807 3.938-9.197.37-2.365-3.244-3.382-3.615-.998m-19.14-5.8c6.603 2.9 13.16 5.89 20.033 8.106 2.306.745 3.287-2.876.995-3.615-6.563-2.116-12.827-4.957-19.133-7.726-2.193-.963-4.103 2.267-1.893 3.237m116.703-36.54c3.14 3.018 7.02 4.88 10.797 6.958 2.12 1.166 4.012-2.073 1.893-3.238-3.48-1.915-7.143-3.59-10.038-6.374-1.744-1.675-4.398.974-2.653 2.653m8.07 15.83c2.487-2.162 3.98-5.146 6.25-7.5 1.68-1.74-.97-4.394-2.653-2.65-2.27 2.353-3.766 5.34-6.25 7.5-1.826 1.59.837 4.23 2.653 2.65m-15.153-8.75c3.898 3.35 8.195 6.2 12.463 9.045 2.017 1.346 3.892-1.904 1.892-3.24-4-2.666-8.052-5.315-11.703-8.455-1.824-1.567-4.49 1.073-2.653 2.65m5.352-10.572c-1.305 3.173-4.45 5.272-6.062 8.3-1.136 2.135 2.102 4.03 3.238 1.895 1.79-3.363 4.967-5.617 6.44-9.2.92-2.237-2.71-3.2-3.616-.995m-26.64 16.7c2.568 1.296 5.077 2.637 7.95 3.106 2.363.386 3.378-3.228.995-3.616-2.57-.42-4.75-1.568-7.05-2.728-2.154-1.086-4.052 2.15-1.893 3.238m6.22 3.3c-1.76 7.822-4.96 15.196-7.08 22.916-.644 2.336 2.975 3.326 3.614.997 2.124-7.72 5.32-15.094 7.083-22.916.53-2.355-3.084-3.355-3.615-.996m-9.165-6.668c-2.86 8.39-5.716 16.83-7.917 25.418-.603 2.343 3.015 3.337 3.615.996 2.203-8.588 5.058-17.03 7.918-25.416.783-2.295-2.84-3.273-3.615-.998m-15.354-18.175c3.138 2.72 6.513 5.075 9.964 7.376 2.018 1.348 3.893-1.902 1.893-3.236-3.185-2.125-6.308-4.28-9.205-6.79-1.82-1.576-4.483 1.065-2.653 2.65m6.28 16.705c1.608-2.452 2.973-5.05 4.582-7.5 1.332-2.03-1.916-3.905-3.238-1.894-1.61 2.45-2.975 5.05-4.582 7.5-1.33 2.03 1.917 3.905 3.237 1.893m-11.316-4.33c3.008 2.125 6.177 3.866 9.614 5.19 2.26.87 3.23-2.756.995-3.615-3.122-1.204-5.99-2.885-8.716-4.81-1.98-1.4-3.85 1.854-1.893 3.236m3.304-13.366c-.934 3.75-3.07 6.98-4.81 10.385-1.1 2.148 2.136 4.045 3.236 1.893 1.887-3.692 4.178-7.218 5.19-11.282.584-2.346-3.032-3.34-3.616-.996m-30.644 8.945c2.64 3.888 5.28 7.776 7.918 11.665 1.35 1.99 4.6.115 3.237-1.892-2.64-3.89-5.28-7.778-7.918-11.667-1.35-1.988-4.6-.115-3.238 1.893m-30.16 6.92c3.684 2.014 7.632 3.65 10.87 6.375 1.838 1.545 4.505-1.094 2.653-2.652-3.513-2.954-7.635-4.778-11.63-6.96-2.123-1.16-4.015 2.08-1.893 3.238m5.48 19.745c2.405-3.584 4.978-7.045 7.625-10.454 1.462-1.884-1.17-4.56-2.653-2.65-2.843 3.66-5.626 7.36-8.21 11.213-1.35 2.013 1.9 3.888 3.237 1.892m-14.23-7.244c3.387 2.6 6.278 5.763 10 7.918 2.097 1.215 3.984-2.027 1.893-3.238-3.7-2.144-6.625-5.327-10-7.916-1.92-1.474-3.783 1.787-1.893 3.237m5.578-16.73c-2.09 4.796-5.21 8.89-8.458 12.953-1.493 1.87 1.143 4.54 2.653 2.652 3.44-4.304 6.827-8.627 9.042-13.712.956-2.195-2.274-4.105-3.238-1.894m31.476 28.528c.66 4.605 1.4 9.226 2.5 13.75.57 2.348 4.186 1.352 3.615-.998-1.1-4.524-1.837-9.144-2.5-13.75-.342-2.386-3.955-1.367-3.615.998m10.48 35.41c1.74 2.145 3.693 4.096 5.836 5.833.794.644 1.873.78 2.653 0 .666-.665.795-2.006 0-2.65-2.145-1.737-4.098-3.69-5.835-5.834-.645-.795-1.985-.666-2.653 0-.78.78-.643 1.86 0 2.653m-37.763 5.415l7.5-6.25c1.86-1.55-.81-4.19-2.653-2.652l-7.5 6.25c-1.858 1.55.81 4.188 2.653 2.652m-11.28-36.44c-1.203 2.46-2.13 5.04-3.333 7.5-1.057 2.165 2.177 4.066 3.238 1.894 1.202-2.46 2.13-5.04 3.332-7.5 1.058-2.165-2.176-4.066-3.237-1.894m81.956 4.004c3.476.87 6.943 1.673 10.498 2.15 2.392.32 2.36-3.432 0-3.75-3.21-.43-6.362-1.23-9.502-2.015-2.346-.587-3.34 3.03-.995 3.615"/></svg>