<svg xmlns="http://www.w3.org/2000/svg" width="127059.927" height="127059.912" viewBox="0 0 119.11868 119.11867"><path d="M64.546 34.346c-1.88 2.164-3.715 4.27-5.87 6.167l2.65 2.65c2.574-2.41 5.058-4.845 7.34-7.537 1.552-1.827-1.064-4.488-2.65-2.65-2.524 2.92-5.258 5.585-8.075 8.222-1.8 1.683.814 4.136 2.653 2.65 3.778-3.05 6.704-6.694 9.468-10.655 1.398-2.004-1.83-3.81-3.238-1.894-2.657 3.62-5.187 7.196-8.515 10.24l2.652 2.65c2.778-2.795 5.096-5.96 7.706-8.905l-2.945-2.272c-1.95 3.217-4.015 6.18-6.678 8.868.982.76 1.963 1.516 2.945 2.273 1.247-2.295 2.356-4.355 2.757-6.955.214-1.388-.806-2.687-2.306-2.307-2.926.74-4.58 2.5-6.7 4.594l2.946 2.272c1.16-1.755 2.05-3.28 2.757-5.243.568-1.575-1.415-2.937-2.753-2.118-2.198 1.345-3.93 3.08-5.885 4.746l2.65 2.653c2.257-2.83 4.352-5.597 5.8-8.943.768-1.774-.782-3.352-2.565-2.565-2.74 1.21-4.728 3.358-7.34 4.795l2.566 2.565c.972-1.682 3.464-5.145 1.54-7.067-2.177-2.178-5.193-.71-7.055 1.028-1.113 1.038-.422 2.664.827 3.134 2.61.98 4.126.894 6.617-.19.585-.254.96-1.02.96-1.62v-.34c0-.596-.375-1.37-.96-1.62-1.562-.664-2.074-.852-3.768-1.217-1.928-.415-3.005 1.688-1.832 3.133 3.2 3.945 14.278 4.535 13.203-2.766-1.26-8.56-8.63-.03-9.288 4.368-.23 1.537 1.202 3.035 2.754 2.118 3.953-2.333 5.658-6.297 6.368-10.712.31-1.926-2.476-3.533-3.428-1.444-1.15 2.52-2.23 5.02-3.126 7.64-.74 2.17 2.252 3.028 3.427 1.445 3.672-4.94 3.586-10.78 3.56-16.704-.007-1.747-2.69-2.714-3.494-.945-2.21 4.87-3.69 9.794-2.757 15.146.248 1.433 2.208 1.75 3.133.83 4.962-4.95 2.416-16.59-1.47-21.492-.61-.773-2.025-.7-2.65 0-4.526 5.046-5.643 12.788-4.52 19.293.266 1.543 2.783 1.895 3.428.45 2.815-6.31 2.2-12.685 2.09-19.445-.032-2.045-3.325-2.645-3.682-.5-1.147 6.895-2.477 13.705-2.636 20.71-.05 2.176 3.057 2.475 3.682.5 2.365-7.462 1.3-15.08 1.17-22.765-.042-2.424-3.663-2.41-3.75 0-.13 3.55-.604 7.07-.734 10.62-.09 2.48 3.457 2.324 3.75 0 .564-4.46.414-8.876.366-13.36l-2.82 1.62c3.68 2.3 7.874 2.6 12.088 1.9.6-.1 1.183-.73 1.31-1.31.41-1.897.148-2.832-1.217-4.22-.774-.787-1.863-.637-2.652 0-4.17 3.36-5.868 8.765-5.32 14 .15 1.45 2.026 2.708 3.2 1.325C63.51 15.32 64.62 9.203 62.353 4.58c-.63-1.286-2.572-1.154-3.238 0-3.18 5.51-3.84 11.816-3.925 18.075-.026 1.85 2.586 2.58 3.494.946 2.76-4.962 2.57-13.72-1.395-18.027-1.03-1.118-2.674-.42-3.135.826-1.912 5.18-4.794 13.495-1.278 18.57.615.89 2.145 1.4 2.945.38 4.534-5.786 3.362-14.614 1.95-21.35-.46-2.197-3.517-1.49-3.683.5-.584 6.948-2.843 14.185-.67 21.05.5 1.58 2.536 1.825 3.428.45 3.906-6.03 3.21-13.53 4.593-20.316l-3.682-.5c-.406 8.695-5.026 16.52-4.037 25.35.15 1.34 1.5 2.43 2.822 1.62 6.307-3.88 5.118-12.676 6.735-18.934-1.227-.167-2.455-.332-3.683-.5-.456 5.96-4.02 11.215-2.502 17.284.312 1.25 2.253 2.147 3.133 1.01C64.87 25.003 64.765 17.5 65.18 10h-3.75c-.228 6.25-1.94 12.758-1.836 19.344.03 1.866 2.53 2.467 3.494.855 3.43-5.735 1.87-12.464 2.09-18.804-1.227.167-2.455.31-3.682.477 1.714 6.335-.692 12.738.367 19.17.312 1.895 3.167 1.547 3.616-.143.62-2.332.783-4.65.8-7.15h-3.75c-.012 5 .32 10.168-3.512 12.905.94.54 1.535 1.218 2.785 1.756v-.682c0-1.768-2.634-2.693-3.458-.947-1.555 3.3-2.356 5.833-.904 9.324.745 1.79 3.843 1.8 3.693-.5-.43-6.578-.194-13.178-.743-19.76-.306-3.67-.38-10.72-4.665-12.19.436.767.874 1.536 1.31 2.306.642-2.614 1.554-5.017 1.904-7.69.13-.99-.952-1.914-1.875-1.876-.61.116-1.15-.028-1.623-.43.128.98.254 1.962.38 2.944 1.69-1.73 2.184-2.974 2.017-5.437-.068-.98-.805-1.924-1.876-1.874-.94.045-1.436.118-2.335.412-1.993.653-1.667 3.653.498 3.683 2.895.04 5.423-.64 8.206-1.44L60.89.826c-2.484 1.603-6.764.63-8.38 3.414-1.22 2.094 2.023 3.98 3.237 1.89.475-.817 5.72-1.217 7.034-2.067 1.754-1.132.66-4.03-1.443-3.427-2.478.71-4.56 1.342-7.21 1.305l.5 3.684 1.337-.278L54.09 3.47l-.92 2.786c-.823.844-.697 2.36.38 2.945 1.37.746 1.918 1.01 3.515.944L55.19 8.27c-.3 2.29-1.22 4.46-1.77 6.693-.255 1.04.324 1.967 1.31 2.306 2.648.908 2.225 12.96 2.32 15.2.188 4.373.056 8.768.342 13.135 1.227-.165 2.455-.33 3.683-.5-.803-1.927-.4-4.507.51-6.432-1.166-.314-2.282-.63-3.532-.945v.683c0 1.325 1.668 2.47 2.857 1.62 5.14-3.672 5.335-10.186 5.35-16.006.008-2.42-3.722-2.435-3.74-.017-.015 2.122-.1 3.493-.657 5.993h3.616c-1.065-6.25 1.373-12.73-.368-19.165-.565-2.085-3.61-1.584-3.683.507-.193 5.53 1.412 11.867-1.58 16.87 1.165.315 2.33.633 3.494.948-.103-6.576 1.608-12.965 1.835-19.524.083-2.427-3.614-2.396-3.75 0-.347 6.054.043 13.5-3.857 18.544 1.045.276 2.09.55 3.134.827-1.337-5.35 2.227-10.92 2.637-16.286.164-2.14-3.163-2.51-3.683-.498-1.27 4.917-.152 13.705-5.01 16.692.94.54 1.88 1.08 2.82 1.618-.978-8.737 3.634-16.692 4.038-25.347.098-2.1-3.26-2.578-3.683-.5-1.307 6.42-.545 13.755-4.215 19.42l3.426.45c-2.05-6.483.25-13.476.803-20.055-1.23.165-2.457.33-3.685.5 1.06 5.046 2.49 13.266-.984 17.7.982.125 1.964.25 2.945.377-2.825-4.077.098-11.46 1.656-15.68-1.043.275-2.088.55-3.132.827 2.757 2.995 2.692 10.093.808 13.483 1.165.317 2.33.52 3.494.835.077-5.596.563-11.292 3.413-16.292h-3.238c1.468 3.75.563 7.694-1.542 10.17 1.067.444 2.134.81 3.202 1.252-.454-4.343.73-8.922 4.222-11.422h-2.652C60.852 5 56.79 5.422 54.707 4.12c-1.207-.755-2.835.05-2.82 1.445.047 4.484.197 9.435-.367 13.185h3.75c.13-2.5.603-6.25.733-10h-3.75c.124 7.5 1.22 14.58-1.035 21.696 1.228.168 2.456.3 3.684.465.152-6.665 1.412-13.17 2.502-19.73-1.228-.165-2.456-.34-3.683-.506.098 5.923.914 11.958-1.578 17.547 1.143.15 2.285.037 3.428.187-.88-5.097 0-10.907 3.554-15.907h-2.65c2.57 3.75 4.766 13.157 1.467 16.447 1.046.277 2.09.682 3.135.958-.744-4.27.634-8.35 2.38-12.19-1.166-.318-2.33-.6-3.495-.916.023 5.23.232 10.412-3.047 14.825 1.142.482 2.285.972 3.427 1.454.788-2.308 1.737-4.526 2.748-6.743-1.142-.48-2.285-.96-3.427-1.442-.538 3.352-1.45 6.586-4.642 8.47l2.753 2.12c.24-1.593.99-2.91 1.82-4.26.348-2.01-.163-1.724-1.53.86-1.983.685-3.982-.38-5.175-1.85L51.06 33.37l-.838-2.246c.276 1.043.55 2.088.827 3.133 1.43-1.336-.203 1.198-.375 1.497-.956 1.655.93 3.465 2.565 2.565 2.588-1.426 4.632-3.603 7.34-4.798l-2.566-2.565c-1.337 3.088-3.11 5.547-5.212 8.184-1.496 1.876.784 4.245 2.65 2.652 1.703-1.45 3.194-2.976 5.127-4.158l-2.755-2.118c-.596 1.56-1.39 3.01-2.38 4.348-1.198 1.813 1.46 3.74 2.945 2.27 1.392-1.577 3.074-2.785 5.045-3.627-.77-.768-1.538-1.537-2.306-2.307-.347 2.236-1.31 4.087-2.38 6.06-1.008 1.855 1.415 3.815 2.944 2.272 2.88-2.908 5.144-6.13 7.266-9.626 1.092-1.8-1.517-3.885-2.945-2.272-2.61 2.945-4.93 6.11-7.708 8.905-1.714 1.724.874 4.276 2.652 2.65 3.568-3.26 6.256-7.12 9.1-10.998-1.08-.63-2.158-1.262-3.238-1.893-2.6 3.727-5.343 7.04-8.88 9.897l2.65 2.652c2.817-2.638 5.552-5.3 8.074-8.224l-2.65-2.65c-2.284 2.69-4.768 5.124-7.34 7.536-1.78 1.665.85 4.235 2.65 2.652 2.157-1.898 3.99-4.003 5.87-6.167 1.58-1.816-1.06-4.48-2.65-2.65M48.053 83.098s5.68-.082 8.31-.65c2.365-.51 1.206-4.125-1.152-3.616-2.3.496-4.657.515-7.157.515-1.25 0-1.25 3.75 0 3.75 0 0-1.25 0 0 0m0-13.418s5.67-.08 8.31-.65c2.365-.51 1.206-4.125-1.152-3.616-2.31.5-4.657.515-7.157.516-1.25 0-1.25 3.752 0 3.75 0 0-1.25 0 0 0m0 6.568h20c2.5 0 2.5-3.75 0-3.75h-20c-2.418 0-2.418 3.75 0 3.75m0-14.734c8.142-.085 16.234-1.08 24.375-1.167 2.417-.026 2.42-3.776 0-3.75-8.14.085-16.233 1.08-24.375 1.166-2.417.025-2.42 3.775 0 3.75m8.43 36.173c-3.07 2.097-3.492 6.44-1.985 9.634 1.902 4.033 6.368 4.502 9.962 2.395 7.867-4.614-2.785-17.484-8.982-10.57-1.61 1.794 1.034 4.455 2.65 2.65 2.562-2.855 7.328 2.7 4.44 4.68-1.674 1.15-3.91 1.18-4.762-.888-.535-1.298-.786-3.738.568-4.665 1.984-1.356.11-4.607-1.89-3.238M73.55 22.946c2.193-.58 4.988-.042 7.128.584-.46-.6-.918-1.204-1.377-1.806-.05 2.363-.47 4.568.067 6.915.54 2.355 4.157 1.356 3.617-1-.45-1.956.025-3.938.067-5.916.017-.842-.587-1.578-1.377-1.808-2.786-.816-6.274-1.34-9.122-.584-2.335.62-1.343 4.237.997 3.615m5.752 3.443c-.087 21.572-2.11 43.176-1.25 64.75.095 2.41 3.846 2.42 3.75 0-.86-21.574 1.163-43.178 1.25-64.75.01-2.42-3.74-2.418-3.75 0m-40 66.626c13.335.03 26.664.553 40 .584 2.418.005 2.418-3.745 0-3.75-13.336-.03-26.665-.553-40-.584-2.42-.005-2.42 3.745 0 3.75m-4.31-67.294c3.32 21.47 1.254 42.732 2.435 64.252.13 2.405 3.88 2.418 3.75 0-1.2-21.863.803-43.44-2.568-65.25-.37-2.383-3.982-1.367-3.617.998m9.31-4.123s-4.69-.025-7.062.65c-2.322.66-1.49 4.277.84 3.615 2.055-.584 4.97-.516 6.22-.516 2.5-.002 2.5-3.753 0-3.75 0 0 2.5 0 0 0m40-7.335c4.587-.104 3.3 20.306 3.367 24.15.154 8.776.216 17.816.27 26.592.1 16.577.114 32.493.114 49.993 0 2.5 3.75 2.5 3.75 0 0-20-.02-38.96-.172-58.31-.07-9.11-.154-18.354-.423-27.46-.173-5.823 2.106-18.854-6.906-18.65-2.415.056-2.42 3.74 0 3.685M31.112 16.56c-.455-3.335 12.393-2.533 14.706-3.09 2.35-.568 1.353-4.184-.997-3.616-5.305 1.28-18.577-1.48-17.325 7.7.326 2.388 3.94 1.368 3.617-.995m42.17-2.465c3.255.11 6.514.164 9.772.17 2.418.005 2.418-3.745 0-3.75-3.258-.006-6.517-.06-9.773-.17-2.42-.08-2.41 3.67 0 3.75m-45.226 96.88c-.09 11.68 17.052 7.426 24.24 7.224 11.96-.34 24.388.945 36.258-.75 2.386-.34 1.367-3.955-.997-3.616-8.9 1.27-18.348.442-27.31.496-4.96.03-9.923.11-14.875.415-3.822.235-13.615 2.562-13.566-3.77.02-2.42-3.73-2.418-3.75 0M27.43 17.64c1.182 31.3-.56 62.61 0 93.92.042 2.414 3.792 2.417 3.75 0-.56-31.31 1.182-62.62 0-93.92-.092-2.41-3.843-2.42-3.75 0m35.465 5.745c-3.893 3.186-7.117 7.09-11.01 10.276-1.874 1.532.796 4.17 2.65 2.652 3.895-3.186 7.12-7.09 11.01-10.276 1.874-1.532-.796-4.17-2.65-2.65M62.6 10.918c-2.528 5.044-6.644 9.152-10.716 12.98-1.765 1.657.89 4.304 2.65 2.65 4.29-4.03 8.642-8.426 11.306-13.74 1.08-2.154-2.154-4.054-3.24-1.89m0-8.223c-2.84 4.59-7.032 8.073-10.716 11.952-1.664 1.75.984 4.407 2.65 2.65 3.916-4.12 8.287-7.834 11.306-12.71 1.277-2.063-1.97-3.944-3.24-1.893M52.335 10.62c1.652-1.54 3.304-3.083 4.955-4.624 1.77-1.652-.886-4.3-2.652-2.65-1.652 1.54-3.303 3.083-4.955 4.624-1.77 1.652.887 4.3 2.65 2.65m-.55 18.93c-1.195-.98-2.587-1.06-4.077-1.063-2.42-.002-2.42 3.748 0 3.75.43 0 .857.004 1.286.033.61.04-.292-.076.254.052.368.087-.006-.032-.113-.12.79.647 1.875.775 2.65 0 .67-.67.793-2.003 0-2.652m-7.055 3.165c1.906 2.445 3.802 4.897 5.69 7.355 1.365 1.775 2.723 3.552 4.066 5.344.484.646.964 1.295 1.436 1.95.252.35.718 1.453.556.697.288-.704.575-1.26.862-1.966-.005.002-.01.156-.014.156h1.892c.67 0-.567-.84-.826-1.136-1.594-1.824-4.236.765-2.65 2.576.93 1.064 1.9 2.31 3.49 1.53.78-.38 1.03-1.355.862-2.136-.223-1.047-1.292-2.103-1.9-2.923-1.386-1.87-2.805-3.724-4.223-5.57-2.185-2.85-4.383-5.693-6.59-8.524-1.486-1.906-4.12.766-2.652 2.65m25.58-1.76c-2.892 6.12-7.92 10.798-11.56 16.443-1.313 2.037 1.933 3.916 3.24 1.892 3.64-5.648 8.663-10.316 11.56-16.442 1.027-2.173-2.206-4.078-3.24-1.893M50.555 3.75h16.25c2.5 0 2.5-3.75 0-3.75h-16.25c-2.5 0-2.5 3.75 0 3.75 0 0-2.5 0 0 0m13.51.392c1.57 7.775.552 15.79.484 23.65-.02 2.42 3.73 2.418 3.75 0 .07-8.228 1.027-16.508-.618-24.647-.478-2.37-4.093-1.364-3.616.997m-.068 26.435c-3.323 3.592-6.884 6.94-10.46 10.277-1.77 1.652.887 4.3 2.652 2.65 3.576-3.335 7.137-6.683 10.46-10.275 1.638-1.773-1.007-4.43-2.652-2.653m1.558.673h6.25c2.5 0 2.5-3.75 0-3.75h-6.25c-2.5 0-2.5 3.75 0 3.75 0 0-2.5 0 0 0M48.65 4.656c1.594 8.468.544 17.154 1.034 25.706.138 2.403 3.89 2.417 3.75 0-.51-8.907.493-17.88-1.168-26.703-.446-2.375-4.06-1.368-3.616.996"/></svg>