<svg xmlns="http://www.w3.org/2000/svg" width="160535.671" height="160535.671" viewBox="0 0 150.50219 150.50219"><path d="M84.778 116.738c-5.38 4.96-8.237 11.844-12.167 17.88-1.323 2.032 1.924 3.91 3.238 1.892 3.75-5.76 6.453-12.388 11.583-17.12 1.78-1.643-.877-4.288-2.652-2.652m10.778 8.125c-2.69-2.125-4.187-5.374-6.875-7.5-1.876-1.48-4.548 1.152-2.652 2.652 2.69 2.125 4.186 5.374 6.875 7.5 1.876 1.482 4.55-1.152 2.653-2.652m8.305-12.103c4.193 8.027 6.974 16.72 11.876 24.375 1.298 2.03 4.546.152 3.237-1.892-4.9-7.656-7.682-16.35-11.875-24.375-1.12-2.145-4.356-.248-3.237 1.892m-2.5-1.892c-4.76 7.385-10.21 14.407-13.75 22.5-.958 2.192 2.272 4.104 3.238 1.892 3.54-8.093 8.99-15.115 13.75-22.5 1.315-2.038-1.932-3.917-3.237-1.892m-27.756 29.07c14.385.067 28.755 1.116 43.125 0 2.394-.184 2.412-3.935 0-3.75-14.37 1.116-28.74.067-43.126 0-2.418-.01-2.417 3.74 0 3.75m-21.326-13.746c-3.535 2.862-4.3 7.44-1.327 10.993 3.008 3.595 8.713 3.143 12.106.44 3.425-2.728 3.46-7.01.852-10.297-2.706-3.408-7.797-3.86-11.25-1.43-1.96 1.38-.09 4.635 1.893 3.237 1.906-1.34 4.144-1.448 5.983.102 1.673 1.408 2.115 3.55.53 5.178-1.876 1.925-5.24 2.233-7.22.375-2.075-1.948-.75-4.46 1.088-5.947 1.88-1.523-.79-4.16-2.652-2.65m0-18.205c-3.372 2.92-4.452 7.805-1.445 11.412 3.094 3.714 8.656 3.655 12.223.615 7.7-6.563-2.55-18.206-10.398-12.32-1.91 1.433-.044 4.69 1.893 3.238 2.082-1.56 4.356-1.48 6.227.37 1.725 1.704 1.686 4.102-.015 5.755-1.994 1.935-5.156 1.975-7.038-.02-1.962-2.084-.606-4.83 1.207-6.398 1.832-1.586-.832-4.226-2.652-2.652m-20.87 17.207c-3.812 2.423-6.416 7.02-4.262 11.413 2.257 4.602 9.31 4.017 12.943 1.735 3.476-2.184 3.998-6.76 1.602-9.94-2.81-3.735-7.61-4.068-11.534-1.958-2.13 1.147-.236 4.384 1.893 3.238 2.24-1.205 4.673-1.194 6.477.73 1.315 1.4 1.246 3.552-.33 4.69-2 1.446-6.336 2.09-7.813-.388-1.38-2.312 1.138-5.152 2.917-6.282 2.036-1.29.156-4.54-1.892-3.238m0-17.5c-3.812 2.423-6.416 7.02-4.262 11.413 2.257 4.602 9.31 4.017 12.943 1.735 3.476-2.184 3.998-6.76 1.602-9.94-2.81-3.735-7.61-4.068-11.534-1.958-2.13 1.147-.236 4.384 1.893 3.238 2.24-1.205 4.673-1.194 6.477.73 1.315 1.4 1.246 3.552-.33 4.69-2 1.446-6.336 2.09-7.813-.388-1.38-2.312 1.138-5.152 2.917-6.282 2.036-1.29.156-4.54-1.892-3.238m.946-5.88c26.668-.018 53.333-.608 80-.626 2.42-.002 2.42-3.752 0-3.75-26.667.017-53.332.607-80 .624-2.418 0-2.418 3.75 0 3.75m0-12.5c26.668-.017 53.333-.607 80-.625 2.42-.002 2.42-3.752 0-3.75-26.667.017-53.332.607-80 .624-2.418 0-2.418 3.75 0 3.75m-1.25-11.875s52.817-.02 79.063-.626c2.415-.056 2.264-3.806-.156-3.75-26.246.605-51.406.625-78.906.625-1.25 0-1.25 3.75 0 3.75 0 0-1.25 0 0 0m0-11.876c10.628.036 21.248.585 31.875.625 2.418.008 2.417-3.742 0-3.75-10.628-.04-21.248-.59-31.876-.626-2.418-.01-2.417 3.74 0 3.75m-1.25-11.25h31.25c2.5 0 2.5-3.75 0-3.75h-31.25c-1.25 0-1.25 3.75 0 3.75 0 0-1.25 0 0 0m1.25-11.875c10.418.524 20.828.043 31.25 0 2.418-.01 2.42-3.76 0-3.75-10.422.043-20.832.524-31.25 0-2.418-.123-2.406 3.628 0 3.75m86.25-26.25c-.038 3.968-.58 7.907-.625 11.874-.028 2.42 3.722 2.418 3.75 0 .044-3.967.586-7.906.624-11.875.024-2.42-3.726-2.418-3.75 0m-86.25 1.874h86.25c2.5 0 2.5-3.75 0-3.75h-86.25c-2.418 0-2.418 3.75 0 3.75m0 12.5h86.25c2.42 0 2.42-3.75 0-3.75h-86.25c-1.25 0-1.25 3.75 0 3.75 0 0-1.25 0 0 0m-3.125-15c.072 3.54 1.266 7.216.692 10.753-.385 2.363 3.23 3.378 3.615.995.642-3.95-.476-7.804-.558-11.748-.05-2.415-3.8-2.42-3.75 0m102.5-12.187c2.083 47.666 1.26 94.687 1.25 143.437 0 1.25 3.75 1.25 3.75 0 .01-48.75.833-95.615-1.25-143.28-.106-2.41-3.856-2.576-3.75-.157M18.29 149.314c37.292.014 75.312.61 111.562.625 2.5 0 2.5-3.75 0-3.75-36.25-.015-73.957-.612-111.25-.626-2.418 0-2.418 3.75 0 3.75h-.312m.312-145c0 .023 74.527 1.606 111.563 0 2.41-.105 2.262-3.855-.156-3.75-37.036 1.606-73.906.023-111.406 0-1.25 0-1.25 3.75 0 3.75 0 0-1.25 0 0 0m-3.75-2.5c.038 48.988 1.104 97.89 0 146.875-.053 2.42 3.697 2.414 3.75 0 1.104-48.985.038-97.888 0-146.876 0-2.42-3.75-2.42-3.75 0"/></svg>