<svg xmlns="http://www.w3.org/2000/svg" height="313.141" width="200.386"><path d="M145.377 179.218c-7.07-.207-13.457-1.047-19.05-2.625.38-2.292-.33-4.542.24-6.193 1.56-1.123 4.17-1.105 6.528-1.37-2.038-1-4.9-1.397-7.252-.818-.055-1.59-.768-2.577-1.2-3.822 3.974-1.42 13.358-10.72 18.637-7.64 2.515 1.465 3.583 9.832 3.778 13.9.163 3.376-.306 6.78-1.68 8.568" stroke="#fff" fill="none" stroke-width="1.25"/><path d="M145.377 179.218c-7.07-.207-13.457-1.047-19.05-2.625.38-2.292-.33-4.542.24-6.193 1.56-1.123 4.17-1.105 6.528-1.37-2.038-1-4.9-1.397-7.252-.818-.055-1.59-.768-2.577-1.2-3.822 3.974-1.42 13.358-10.72 18.637-7.64 2.515 1.465 3.583 9.832 3.778 13.9.163 3.376-.306 6.78-1.68 8.568z" fill="none" stroke="#fff" stroke-width="2.5"/><path d="M111.568 167.66c-.018.536-.04 1.075-.062 1.615-2.208 1.45-5.77 1.432-8.194 2.65 3.57.157 6.383 1.017 8.815 2.23-.054 1.347-.105 2.693-.157 4.04-4.047 2.77-7.743 6.896-12.507 9.494-2.252 1.227-10.158 4.388-12.554 3.83-1.357-.315-1.48-1.998-2.02-3.584-1.156-3.396-3.815-8.803-4.046-13.915-.296-6.457-.948-17.28 6.01-15.95 5.616 1.072 12.145 3.658 16.492 6.033 2.656 1.453 4.192 3.248 8.222 3.558" stroke="#fff" fill="none" stroke-width="1.25"/><path d="M111.568 167.66c-.018.536-.04 1.075-.062 1.615-2.208 1.45-5.77 1.432-8.194 2.65 3.57.157 6.383 1.017 8.815 2.23-.054 1.347-.105 2.693-.157 4.04-4.047 2.77-7.743 6.896-12.507 9.494-2.252 1.227-10.158 4.388-12.554 3.83-1.357-.315-1.48-1.998-2.02-3.584-1.156-3.396-3.815-8.803-4.046-13.915-.296-6.457-.948-17.28 6.01-15.95 5.616 1.072 12.145 3.658 16.492 6.033 2.656 1.453 4.192 3.248 8.222 3.558z" fill="none" stroke="#fff" stroke-width="2.5"/><path d="M115.587 175.366c-.617-3.518-1.33-4.52-1.055-7.59 9.38-6.255 11.143 10.744 1.055 7.59" stroke="#fff" fill="none" stroke-width="1.25"/><path d="M115.587 175.366c-.617-3.518-1.33-4.52-1.055-7.59 9.38-6.255 11.143 10.744 1.055 7.59z" fill="none" stroke="#fff" stroke-width="2.5"/><path d="M96.386 44.34c-11.357-2.644-17 4.753-20.442 12.426-3.074-.745-1.85-4.925-1.075-7.055C76.9 44.12 85.093 36.68 91.786 37.69c2.88.434 6.78 3.068 4.6 6.653M151.718 57.273l.54.022c2.565 5.33 4.787 10.978 8.024 15.685-2.17 5.05-16.422 9.52-16.202.45 3.082-1.347 8.403-.274 11.136-1.995-1.58-4.337-3.86-8.028-3.498-14.162M102.2 57.412c2.435 4.464 3.227 9.154 6.688 12.528 1.56 1.518 4.59 3.37 3.088 7.593-.35.997-2.918 3.218-4.4 3.654-5.41 1.598-18.02.33-13.75-6.416 4.476.21 10.49 2.907 13.836-.342-2.57-4.106-7.148-12.23-5.462-17.016M149.687 102.78c-8.147 5.233-17.232 10.925-30.582 9.605-2.853-2.48-3.94-8-1.17-11.644 1.443 2.48.537 7.042 4.557 7.728 7.575 1.297 16.39-4.633 21.84-6.706 3.38-5.696-.29-7.79-3.335-11.457-6.23-7.512-14.59-16.822-14.286-28.067 2.52-1.826 2.737 2.788 3.098 3.628 3.254 7.615 11.443 17.354 17.42 23.87 1.467 1.606 3.883 3.146 4.152 4.207.775 3.087-2.017 6.784-1.693 8.837M42.277 97.27c-2.554-1.458-3.162-7.878-6.16-8.06-4.285-.26-3.503 8.328-3.486 13.35-2.95-2.677-3.467-10.92-1.3-15.154-2.47-1.213-3.572 1.337-4.942 2.236 1.76-12.787 18.706-5.93 15.89 7.628" fill="#fff" fill-rule="evenodd" stroke="#fff" stroke-width="1.25"/><path d="M154.875 108.105c-3.793 7.218-9.158 15.168-20.287 15.4-.226-2.332-.4-5.88.013-7.283 8.508-.817 13.76-5.147 20.275-8.117M101.558 112.785c7.098 3.732 20.143 4.133 29.79 3.85.518 2.115.505 4.726.525 7.303-12.4.62-27.063-2.45-30.315-11.153" fill="#fff" fill-rule="evenodd"/><path d="M100.21 119.745c4.907 12.323 21.777 10.905 36.003 10.565-.626 1.6-1.983 3.49-3.67 4.173-4.56 1.855-17.133 3.263-23.462-.098-4.013-2.134-6.592-6.955-8.79-9.782-1.063-1.365-6.35-4.85-.08-4.858" fill="#fff" fill-rule="evenodd" stroke="#fff" stroke-width="1.25"/><path d="M149.095 187.723c-5.76 9.865-11.272 19.998-18.105 28.7 2.865-8.424 4.09-22.524 4.523-33.272 5.994-2.804 11.127.632 13.582 4.573" stroke="#fff" fill="none" stroke-width="1.25"/><path d="M180.09 223.18c-6.45 1.29-10.98 7.558-17.272 7.156 3.458-4.874 9.517-6.93 17.272-7.156M182.935 233.272c-5.257.555-11.43 1.406-16.762.968 2.524-3.855 12.248-2.525 16.762-.968M184.756 241.973c-5.908.128-13.25.01-18.865-.46 3.322-3.568 15.035-1.324 18.866.46" fill="#fff" fill-rule="evenodd" stroke="#fff" stroke-width="1.25"/><path d="M137.98 265.785c.847 7.42 3.788 14.936 3.42 23.06-3.267 1.102-5.143 2.066-9.52 2.06-.308-6.905-1.232-17.462-.955-24.044 2.152.143 5.326-1.537 7.055-1.075M128.456 156.445c-2.966 1.936-5.493 4.353-8.34 6.42-6.32.313-9.766-.437-14.408-4.064.077-.29.543-.16.56-.518 6.763 3.014 15.36-1.227 22.188-1.837M92.955 202.542c1.858-8.05 9.14-12.22 15.75-16.655 6.823 8.66 10.973 19.798 15.543 30.545-10.797-3.255-21.83-8.536-31.293-13.89" stroke="#fff" fill="none" stroke-width="1.25"/><path d="M130.925 266.86c-.277 6.583.647 17.14.956 24.045 4.377.006 6.253-.958 9.52-2.06.368-8.124-2.573-15.64-3.42-23.06-1.73-.462-4.903 1.218-7.055 1.076zm-68.143-37.435c2.886 26.53 7.065 48.83 14.73 72.32 17.016 5.167 37.526 5.617 52.565.956-2.76-13.258-1.555-29.4-3.17-43.55-1.215-10.634-.595-21.334-2.262-32.184-18.223-3.79-43.98-.886-61.863 2.46zm66.17-2.293c-.152 11.394.51 22.633 1.38 34.04 4.376-.656 7.345-1.095 11.41-1.986-1.32-10.982-1.157-23.34-3.846-33.055-3.108.03-5.844-.035-8.943 1.002zm22.195-1.836c-2.076-.476-4.494-.02-6.477.02.932 9.288 3.195 19.536 3.99 29.285 3.122.098 4.79-1.374 7.357-1.87.138-8.557-.747-20.347-4.87-27.434zM184.752 256c6.506-1.58 10.598-9.55 8.778-17.733-1.222-5.5-3.397-15.856-5.724-19.375-1.72-2.602-6.384-6.01-10.108-3.625-6.057 3.88-16.728 5.005-21.146 9.7 2.215 7.375 2.903 17.505 3.816 26.85 7.568.472 16.88-2.083 23.173.628-4.393 1.423-10.094 1.434-13.89 3.51 3.102 1.497 10.366 1.194 15.102.045zm-60.504-39.568c-4.57-10.747-8.72-21.885-15.543-30.545-6.61 4.434-13.892 8.604-15.75 16.655 9.463 5.354 20.496 10.635 31.293 13.89zm11.265-33.28c-.432 10.747-1.658 24.847-4.523 33.27 6.833-8.7 12.345-18.834 18.105-28.7-2.455-3.94-7.588-7.376-13.582-4.57zm-12.77-4.54c-2.588-.277-4.786 2.978-8.152 1.57-.77.853-1.472 1.776-2.258 2.61 7.435 8.96 10.814 21.67 16.556 32.2 3.082-10.114 2.727-21.195 3.405-32.235-4.233.27-6.582-3.83-9.55-4.144zm-8.21-10.836c-.277 3.07.437 4.072 1.054 7.59 10.088 3.154 8.326-13.845-1.055-7.59zm-11.187-3.673c-4.347-2.375-10.876-4.96-16.49-6.032-6.96-1.33-6.308 9.493-6.012 15.95.23 5.113 2.89 10.52 4.045 13.916.54 1.586.663 3.27 2.02 3.584 2.395.558 10.3-2.603 12.553-3.83 4.764-2.6 8.46-6.724 12.507-9.494.052-1.348.103-2.694.157-4.04-2.432-1.214-5.244-2.074-8.815-2.23 2.423-1.22 5.986-1.2 8.194-2.65.02-.54.044-1.08.062-1.615-4.03-.31-5.566-2.104-8.222-3.557zm-41.517-7.54c-3.61 3.662 10.117 8.654 14.487 8.923-.024-2.318 1.32-4.503 1.05-6.165-5.19-.91-12.012-.31-15.538-2.758zm44.438 1.72c-.017.357-.483.227-.56.518 4.642 3.628 8.09 4.378 14.407 4.066 2.848-2.068 5.375-4.485 8.34-6.42-6.828.61-15.424 4.85-22.187 1.836zm40.79 12.368c-.195-4.068-1.263-12.435-3.778-13.9-5.28-3.082-14.663 6.22-18.638 7.64.433 1.245 1.146 2.23 1.2 3.822 2.353-.58 5.215-.182 7.253.82-2.357.263-4.97.245-6.528 1.368-.57 1.65.14 3.9-.24 6.193 5.593 1.578 11.98 2.418 19.05 2.625 1.375-1.787 1.844-5.192 1.68-8.567zm-91.302-10.545c-1.133-.808-8.797-10.78-9.847-10.365-13.868 5.468-26.834 14.925-38.42 23.868 11.046 23.706 15.506 52.748 16.294 80.74 12.655 5.92 23.77 14.452 40.944 15.343-1.987-14.06-3.8-26.603-4.93-39.84-4.314-1.82-10.505.082-14.543-.564-.034-4.866 6.167-2.13 6.684-5.404.388-2.475-3.413-2.662-2.176-6.56 3.157 1.148 4.815 3.682 8.182 4.634 3.076-6.73-.043-18.638.4-24.263.084-1.056.527-5.85 2.893-5.01 2.093.745-.12 12.753.11 18.077.208 4.905-.593 9.65 1.393 12.73 16.594-2.26 33.457-3.72 51.412-4.212-3.95-1.694-8.643-3.298-13.788-6.198-2.79-1.573-11.58-4.844-12.385-7.493-1.284-4.22 3.37-6.47 4.165-10.088-8.376 4.567-10.01-4.38-11.992-10.72-1.795-5.74-2.817-10.03-3.258-13.34-7.216-3.44-14.93-6.924-21.14-11.335zm83.974-9.16c11.553-5.602 13.636 20.94 9.107 29.49.7 2.55 3.108 3.526 4.09 5.818-6.447 11.55-13.61 22.332-20.187 33.746 4.893-3.048 11.883-.546 17.642-2.827 2.105-.832 3.63-5.65 5.223-9.506 4.383-10.606 8.986-23.977 11.033-34.1.463-2.305 1.723-7.33 1.44-9.382-.503-3.675-5.49-6.4-8.026-8.673-4.672-4.197-7.615-7.89-12.49-11.816-1.975 2.917-6.216 4.877-7.832 7.25zM29.332 48.486c-5.505 6.058-4.353 17.408-3.686 25.483 9.95-6.26 23.16.495 23.034 11.143 4.75-.125 1.775-5.933.916-9.674-2.81-12.22 4.73-25.496.342-36.67-8.523.645-15.525 4.126-20.606 9.72zM68.724 13.33C56.26 16.86 40.288 25.918 35.166 37.113c3.966-.576 6.72-2.576 10.63-2.823 1.48-.097 3.417.62 5.116.197 3.386-.84 6.244-8.432 8.8-11.257 2.49-2.76 5.482-3.938 7.53-6.453 1.316-.635 3.262-.59 3.337-2.567-.57-.61-1.172-1.075-1.856-.882zm64.88 3.323C120.666 9.353 98.77 3.863 85.01 10.723c-11.103 5.536-26.112 14.696-31.23 26.304 4.78 11.2-1.415 21.465-1.81 32.837-.21 6.052 2.848 11.334 3.083 17.922-1.636 2.698-6.634 3.03-10.093 2.846-1.165-5.827-3.203-12.377-9.204-13.034-8.492-.93-14.7 6.1-15.086 13.442-.456 8.637 6.633 22.95 16.682 21.957 3.882-.384 4.836-4.275 9.065-4.235 2.293 4.573-3.536 6.01-4.135 9.28-.157.846.483 4.148.855 5.697 1.825 7.54 5.894 17.3 9.9 23.043 5.082 7.282 15.068 8.38 25.812 9.093 1.918-4.133 8.987-3.793 13.593-2.712-5.52-2.185-10.652-7.485-14.905-12.177-4.885-5.382-9.834-11.156-10.084-18.19 9.232 12.807 16.86 23.992 33.646 29.625 12.702 4.26 27.537-1.952 37.297-8.806 4.05-2.85 6.468-7.37 9.346-11.506 10.772-15.494 15.798-37.61 14.693-59.044-.455-8.84-.435-17.65-3.4-23.597-3.1-6.22-13.586-11.783-19.724-6.158-1.137-6.047 5.104-9.787 12.435-7.61-5.227-6.747-10.714-14.854-18.144-19.046zm24.1 199.46c10.11-5.025 28.997-13.526 35.334.018 2.34 4.993 5.083 13.433 6.294 18.587 1.71 7.27-1.855 22.554-9.33 24.994-6.6 2.153-14.302 2.022-22.254.425-.936-.78-1.978-2.136-2.707-3.55-5.677-.222-10.993.303-15.478 2.637.425 4.2-2.415 4.873-5.077 5.738-1.974 7.826 3.948 18.046 2.53 25.182-1.01 5.084-7.265 5.87-11.863 6.82-.15 2.827.2 5.185.515 7.575-1.05 3.874-5.766 6.08-10.234 6.62-14.698 1.766-37.016 2.56-51.154-2.524-3.947-9.677-7.055-21.447-10.34-32.497-13.79 1.472-24.942-5.95-35.456-10.813-3.64-1.687-8.676-2.617-10.035-5.514-1.32-2.807-.78-8.183-1.107-13.262-.833-12.97-1.546-25.482-4.97-38.763-1.54-5.96-4.22-11.22-6.09-16.962-1.73-5.322-4.75-11.9-5.536-17.207-1.168-7.866 6.24-8.304 10.975-11.713 7.322-5.27 13.07-8.186 21-12.943 2.348-1.41 9.43-4.975 10.236-6.618 1.6-3.256-2.75-7.847-3.912-10.4-1.84-4.036-2.8-7.465-3.063-11.447-6.652-1.052-11.695-5.01-14.74-9.474-5.04-7.387-8.533-21.054-4.174-31.45.34-.82 2.046-2.43 2.297-3.687.497-2.476-.933-5.768-1.022-8.402-.458-13.512 2.286-25.154 11.383-29.23C33.42 23.54 46.638 18.65 59.09 11.338c4.655-2.732 9.787-4.48 15.086-6.43 19.01-6.995 48.177-5.677 63.955 6.255 6.69 5.06 17.385 15.744 21.21 23.48 10.102 20.42 9.385 54.55 2.318 79.39-.95 3.335-2.327 8.238-4.25 12.244-1.342 2.797-5.51 8.395-5.005 10.865.522 2.555 9.505 9.376 11.432 11.233 3.468 3.347 10.058 7.788 10.592 12.01.574 4.494-1.98 10.642-3.274 14.978-4.325 14.472-8.545 27.85-13.448 40.75" fill="#fff" fill-rule="evenodd" stroke="#fff" stroke-width="1.25"/><path d="M126.796 187.588c0 1.266-1.026 2.29-2.293 2.29-1.265 0-2.29-1.024-2.29-2.29 0-1.265 1.025-2.292 2.29-2.292 1.267 0 2.293 1.027 2.293 2.292M129.087 198.213c0 1.266-1.026 2.29-2.292 2.29-1.265 0-2.292-1.024-2.292-2.29 0-1.265 1.027-2.292 2.292-2.292 1.266 0 2.292 1.028 2.292 2.293" fill="#fff" fill-rule="evenodd" stroke="#fff" stroke-width="1.25"/></svg>