<svg xmlns="http://www.w3.org/2000/svg" width="557.564" height="634.335" viewBox="0 0 557.56357 634.33517"><path d="M266.89 334.26c-.385-.122-1.04-.8-1.158-1.2-.216-.732-.064-1.316.49-1.873.29-.292.49-.42.76-.49.528-.132 23.075-.132 23.603 0 .705.178 1.346 1.028 1.346 1.786 0 .724-.627 1.585-1.3 1.783-.44.13-23.328.123-23.74-.008zm-.826-6.338c-.186-.16-.46-1.037-2.42-7.767l-2.212-7.587-.438-.048c-.876-.097-1.618-.635-2.026-1.473-.25-.51-.248-1.454.002-2 .486-1.062 1.637-1.67 2.74-1.446 1.835.372 2.642 2.478 1.515 3.955l-.303.397 3.88 2.38c2.22 1.36 3.983 2.39 4.117 2.406.17.02.28-.022.403-.154.274-.295 6.562-11.83 6.466-11.86-.283-.094-.83-.55-1.04-.865-.55-.83-.6-1.758-.145-2.612.278-.522.53-.76 1.114-1.065.34-.178.496-.208 1.064-.208.567 0 .724.03 1.064.208.586.304.836.543 1.114 1.065.455.854.404 1.782-.145 2.61-.208.315-.757.772-1.04.866-.096.032 6.192 11.565 6.467 11.86.123.133.234.175.404.153.133-.016 1.918-1.06 4.12-2.407l3.882-2.378-.303-.384c-.998-1.263-.498-3.16 1.01-3.832.51-.228 1.4-.228 1.912 0 .513.23 1.103.805 1.322 1.293.253.564.253 1.5 0 2.022-.405.838-1.1 1.344-2 1.458l-.457.058-2.21 7.58c-1.648 5.645-2.255 7.622-2.38 7.747l-.167.167-12.552.02-12.553.02-.21-.18z"/></svg>