<svg xmlns="http://www.w3.org/2000/svg" width="877.989" height="883.455" viewBox="0 0 877.98871 883.45544"><path d="M357.185 839.4c-5.664-1.332-12.143-4.928-23.746-13.18-5.955-4.235-62.757-53.418-131.197-113.597C83.8 608.475 81.45 606.34 76.446 598.24c-7.215-11.675-16.218-30.464-20.45-42.674-18.733-54.077-16.585-105.388 7.23-172.67 2.706-7.65 5.324-15.147 5.817-16.66.696-2.138 49.656-38.538 218.896-162.74C423.707 103.86 506.786 43.51 508.185 43.5c1.236-.007 6.41 3.06 11.5 6.818 5.09 3.756 72.253 52.314 149.253 107.906 81.038 58.508 143.052 103.96 147.25 107.92 8.446 7.976 8.778 9.372 4.32 18.2-2.445 4.846-4.808 7.318-14.337 14.998l-11.41 9.195-.71 46.725-.714 46.725 8.8 8.313c4.84 4.57 12.163 11.096 16.274 14.5 16.722 13.842 18.186 16.246 14.275 23.435-5.772 10.607-13.457 17.272-225.17 195.27-116.762 98.165-215.284 180.858-218.937 183.762-7.432 5.906-18.835 11.83-24.144 12.544-1.926.26-5.19.074-7.255-.41zm13.844-10.916c3.25-1.653 9.355-5.815 13.567-9.25 4.21-3.436 102.76-86.23 219-183.99 167.07-140.51 212.442-179.156 216.592-184.49 2.887-3.71 5.25-7.22 5.25-7.8 0-.58-2.36-2.836-5.24-5.01-2.882-2.177-10.012-8.324-15.845-13.662l-10.607-9.706-.668 16.196c-.62 15.014-.83 16.35-2.904 18.314-1.23 1.165-96.287 82.105-211.237 179.867C463.99 726.716 369.02 807.78 367.9 809.095c-1.12 1.316-2.314 2.392-2.653 2.392-.99 0-270.168-227.92-271.647-230.007-4.187-5.917-13.378-37.99-16.81-58.665-2.44-14.677-2.442-45.268-.006-61.328 2.272-14.988 7.562-37.74 13.136-56.5 4.317-14.528 4.398-15.047 2.58-16.5-1.035-.825-5.107-4.168-9.05-7.43-5.7-4.71-7.355-5.634-8.066-4.5-.492.787-2.743 6.605-5 12.93-24.817 69.515-23.835 129.18 3.036 184.5 12.738 26.226.92 14.64 135.834 133.155 66.174 58.13 124.674 108.813 130 112.63 11.13 7.976 18.36 11.692 22.776 11.706 1.7 0 5.75-1.342 9-2.994zm-4.708-121.497c1.516-47.3 2.56-86.378 2.32-86.84-.824-1.597-270.38-225.815-270.877-225.318-.274.272-2.712 8.274-5.418 17.78-9.526 33.466-12.918 54.7-12.89 80.68.03 27.873 4.72 52.39 15.15 79.197l2.918 7.5 132.707 112.18L362.94 804.343l.313-5.678c.172-3.123 1.553-44.38 3.07-91.68zM607.94 598.542l180-153.25.628-24.653c1.685-66.052 1.94-108.455.647-107.436-1.413 1.114-369.013 299.017-377.762 306.14-10.298 8.382-18.803 10.58-29.615 7.654-4.463-1.21-6.864-1.445-7.563-.746-.997.997-5.736 134.064-5.804 162.99l-.03 13.252 29.75-25.35C414.55 763.2 508.94 682.83 607.94 598.542zM399.042 617.21c2.257-1.223 19.132-14.455 37.5-29.406 18.368-14.95 109.886-89.2 203.373-165C804.234 289.576 814.27 281.16 814.423 276.48c.01-.28-3.47-3.466-7.734-7.08-10.977-9.31-296.397-215.282-298.42-215.353-.92-.033-97.584 70.322-214.812 156.344-171.056 125.524-212.88 156.645-211.83 157.62 4.678 4.338 266.653 224.04 270.955 227.233 2.946 2.186 9.54 7.56 14.65 11.943 5.113 4.382 11.188 8.936 13.5 10.12 5.616 2.875 12.892 2.837 18.31-.097zm43.896-280.772c-59.95-51.087-109.132-93.5-109.292-94.25-.4-1.882 156.626-124.2 159.442-124.2 2.482 0 228.35 174.952 228.35 176.875 0 1.786-165.61 134.64-167.713 134.542-.984-.046-50.838-41.88-110.788-92.967zM635.517 359.6c77.086-61.972 80.022-64.454 78.256-66.153-5.304-5.106-220.018-170.954-221.03-170.728-.658.147-35.463 26.987-77.346 59.644l-76.15 59.377 2.04 2.04c6.74 6.74 211.878 180.578 212.895 180.41.684-.11 37.285-29.177 81.335-64.59z" fill="#fff" stroke="#fff" stroke-width="12"/></svg>