<svg xmlns="http://www.w3.org/2000/svg" viewBox="-0.2 -1 379.62958 333.61002" width="379.63" height="333.61"><path d="M297.32 294.934c0 20.533-47.56 37.176-106.22 37.176-58.67 0-106.23-16.643-106.23-37.176s47.56-37.18 106.23-37.18c58.66 0 106.22 16.65 106.22 37.18zM99.925-.5c-3.048-.07-4.5.406-4.5.406-9.78 24.457-3.743 42.566-1.906 47.063-11.496 12.405-18.5 28.24-18.5 47.655 0 14.658 1.673 27.82 5.75 39.25-19.512-.71-50.326-.446-80.376 5.563l.28 1.406c30.232-6.046 61.234-6.266 80.626-5.53.898 2.365 1.878 4.656 3 6.874-19.177.618-51.9 3.053-83.28 11.906l.374 1.375c31.63-8.92 64.665-11.295 83.656-11.876 11.458 21.358 34.03 35.137 74.22 39.47-5.705 3.832-11.518 10.35-13.876 21.374-7.773 3.718-32.362 12.798-47.125-12.594 0 0-8.277-15.13-24.095-16.313 0 0-15.348-.233-1.063 9.564 0 0 10.26 4.85 17.344 23.03 0 0 9.25 31.013 53.844 21.064v32.03s-.926 11.32-11.313 15.094c0 0-6.143 4.268.47 6.625 0 0 28.78 2.35 28.78-21.25V226.75s-1.148-13.84 5.657-18.656v57.375s-.45 13.68-7.532 18.874c0 0-4.73 8.513 5.657 6.156 0 0 19.835-2.84 20.78-25.97l.437-58.06h4.75l.47 58.06c.942 23.13 20.75 25.97 20.75 25.97 10.382 2.357 5.687-6.156 5.687-6.156-7.08-5.193-7.563-18.875-7.563-18.875v-56.876c6.802 5.296 5.657 18.156 5.657 18.156v34.938c0 23.6 28.813 21.25 28.813 21.25 6.606-2.358.47-6.625.47-6.625-10.387-3.775-11.345-15.094-11.345-15.094v-45.783c0-17.854-7.523-27.32-14.875-32.312 42.86-4.25 63.43-18.092 72.906-39.594 18.773.517 52.56 2.823 84.875 11.94l.407-1.376c-32.13-9.063-65.693-11.386-84.656-11.938.9-2.172 1.68-4.457 2.376-6.78 19.25-.8 51.376-.782 82.656 5.468l-.062-.03.28-1.376c-31.16-6.23-63.122-6.304-82.468-5.5 3.178-11.45 4.125-24.62 4.125-39.313 0-21.073-7.928-37.922-20.78-50.75 2.245-7.25 5.24-23.357-3-43.97 0 0-1.42-.457-4.376-.405-6.503.114-20.418 2.68-43.03 17.813-12.884-3.22-26.612-4.813-40.344-4.813-15.11 0-30.355 1.906-44.594 5.813C121.03 2.393 106.63-.348 99.925-.5zM228.77 85.28c11.95-.132 22.165 1.452 29.78 8.345h.03c9.232 8.363 14.626 18.463 14.626 29.344 0 50.803-37.88 52.186-84.594 52.186-46.72 0-84.593-7.04-84.593-52.187 0-10.81 5.32-20.83 14.436-29.157 15.208-13.882 40.955-6.532 70.156-6.532 14.535 0 28.207-1.865 40.157-2zm-85.876 14.94c-9.72 0-17.625 11.35-17.625 25.343s7.904 25.343 17.624 25.343c9.72 0 17.593-11.35 17.593-25.344 0-13.99-7.873-25.333-17.593-25.343zm94.406 0c-9.72 0-17.594 11.35-17.594 25.343s7.874 25.343 17.594 25.343c9.72 0 17.625-11.35 17.625-25.344 0-13.99-7.905-25.333-17.625-25.343zM77.956 177.187c1.693 0 3.06.945 3.063 2.125-.003 1.173-1.37 2.125-3.064 2.125-1.693 0-3.062-.95-3.062-2.125s1.37-2.125 3.062-2.125zm8.5 4.718c1.692 0 3.06.947 3.063 2.125v.032c-.004 1.173-1.372 2.094-3.064 2.094-1.693 0-3.062-.95-3.062-2.125 0-1.174 1.37-2.124 3.062-2.124zm5.188 6.156c1.692 0 3.06.947 3.062 2.125-.003 1.173-1.37 2.125-3.062 2.125-1.693 0-3.063-.95-3.063-2.125s1.37-2.125 3.064-2.125zm4.718 7.063c1.693 0 3.06.947 3.063 2.125v.03c-.003 1.173-1.37 2.095-3.063 2.095s-3.062-.95-3.062-2.125 1.37-2.125 3.062-2.125zm5.188 6.625c1.692 0 3.06.947 3.062 2.125-.003 1.172-1.37 2.125-3.062 2.125-1.693 0-3.063-.95-3.063-2.125s1.37-2.125 3.063-2.125zm7.094 5.656c1.692 0 3.06.947 3.062 2.125-.003 1.173-1.37 2.126-3.062 2.126-1.693 0-3.063-.95-3.063-2.125 0-1.174 1.37-2.124 3.064-2.124zm29.78 2.156c1.693 0 3.06.947 3.063 2.125-.003 1.173-1.37 2.125-3.062 2.125-1.693 0-3.063-.95-3.063-2.125s1.37-2.125 3.063-2.125zm-19.874 1.625c1.693 0 3.06.946 3.062 2.125-.002 1.174-1.37 2.125-3.062 2.125-1.693 0-3.063-.95-3.063-2.125s1.37-2.125 3.063-2.125zm9.875 0c1.693 0 3.06.946 3.062 2.125-.002 1.174-1.37 2.125-3.062 2.125-1.693 0-3.063-.95-3.063-2.125s1.37-2.125 3.063-2.125z" stroke="#fff" stroke-width="8" fill="none"/><g transform="translate(.381 -.496)" fill="#ad5c51"><path d="M154.46 126.38c0 9.328-5.26 16.887-11.734 16.887s-11.733-7.56-11.733-16.887c0-9.33 5.255-16.894 11.733-16.894 6.47 0 11.73 7.56 11.73 16.89zm94.42 0c0 9.328-5.26 16.887-11.734 16.887s-11.733-7.56-11.733-16.887c0-9.33 5.255-16.894 11.733-16.894 6.47 0 11.73 7.56 11.73 16.89z" fill="none"/><circle cx="188.5" cy="148.56" r="4.401" fill="#fff"/><path d="M178.23 159.69c-.26-.738.128-1.545.86-1.805.738-.26 1.547.128 1.806.86 1.134 3.2 4.167 5.347 7.55 5.347 3.385 0 6.418-2.147 7.552-5.346.26-.738 1.067-1.12 1.805-.86.738.26 1.12 1.066.862 1.804-1.53 4.324-5.64 7.23-10.218 7.23-4.58 0-8.68-2.89-10.21-7.22z" fill="#fff"/></g><path d="M69.75 185.624l-3.066 10.683s-.8 3.86 2.84 4.546c3.8-.074 3.486-3.627 3.223-4.78z" fill="#fff"/></svg>