<svg xmlns="http://www.w3.org/2000/svg" viewBox="0 0 667.82001 330.29582" height="352315.54" width="712341.354"><defs><marker id="a" orient="auto" overflow="visible"><path d="M-10.69-4.437L1.328-.017l-12.018 4.42c1.92-2.61 1.91-6.18 0-8.84z" fill-rule="evenodd" stroke="#000" stroke-width=".6875" stroke-linejoin="round"/></marker></defs><g transform="translate(-70.211 -66.968)"><circle cx="133.34" cy="232.116" r="62.629" fill="none" stroke="#000" stroke-width="4"/><path d="M191.857 67.473a232.84 232.84-45 0 1 0 329.286" fill="none" stroke="#000" stroke-width="4" stroke-linecap="round"/><path d="M293.583 100.327c41.998 72.785 41.998 190.793 0 263.578" fill="none" stroke="#000" stroke-width="4.299" stroke-linecap="round"/><path d="M372.585 153.693c18.968 43.312 18.968 113.534 0 156.845" fill="none" stroke="#000" stroke-width="4.666" stroke-linecap="round"/><circle r="31.315" cy="232.116" cx="478.962" fill="none" stroke="#000" stroke-width="4"/><text y="226.619" x="132.846" style="line-height:125%;-inkscape-font-specification:Arial;text-align:center" font-size="15" font-family="Arial" letter-spacing="0" word-spacing="0" text-anchor="middle" stroke-width="2"><tspan style="-inkscape-font-specification:Arial;text-align:center" y="226.619" x="132.846">Main process</tspan><tspan style="-inkscape-font-specification:Arial;text-align:center" y="245.369" x="132.846">Graphics Server</tspan></text><text y="342.225" x="409.823" style="line-height:125%;-inkscape-font-specification:Arial" font-size="15" font-family="Arial" letter-spacing="0" word-spacing="0" stroke-width="2"><tspan style="-inkscape-font-specification:Arial;text-align:center" y="342.225" x="409.823" text-anchor="middle">ØMQ EPGM broadcast</tspan><tspan style="-inkscape-font-specification:Arial;text-align:center" y="360.975" x="409.823" text-anchor="middle">of serialized objects</tspan></text><text y="145.672" x="478.914" style="line-height:125%;-inkscape-font-specification:Arial" font-size="15" font-family="Arial" letter-spacing="0" word-spacing="0" stroke-width="2"><tspan style="-inkscape-font-specification:Arial;text-align:center" y="145.672" x="478.914" text-anchor="middle">Graphics Client</tspan><tspan style="-inkscape-font-specification:Arial;text-align:center" y="164.422" x="478.914" text-anchor="middle">Separate process</tspan><tspan style="-inkscape-font-specification:Arial;text-align:center" y="183.172" x="478.914" text-anchor="middle">Remote machine</tspan></text><g stroke-width="4"><path fill="none" stroke="#000" d="M606.057 77.915h131.626v56.875H606.057z"/><text style="line-height:125%" x="631.532" y="71.15" font-size="40" font-family="Sans" letter-spacing="0" word-spacing="0" transform="translate(40.02 29.797)"><tspan x="631.532" y="71.15" style="-inkscape-font-specification:Arial;text-align:center" font-size="15" font-family="Arial" text-anchor="middle">Confusion matrix</tspan><tspan x="631.532" y="89.9" style="-inkscape-font-specification:Arial;text-align:center" font-size="15" font-family="Arial" text-anchor="middle">plotter</tspan></text><path fill="none" stroke="#000" d="M606.057 161.757h131.626v56.875H606.057z"/><text y="164.276" x="631.162" style="line-height:125%" font-size="40" font-family="Sans" letter-spacing="0" word-spacing="0" transform="translate(40.02 29.797)"><tspan style="-inkscape-font-specification:Arial;text-align:center" y="164.276" x="631.162" font-size="15" font-family="Arial" text-anchor="middle">Error rate plotter</tspan></text><path fill="none" stroke="#000" d="M606.057 245.6h131.626v56.875H606.057z"/><text style="line-height:125%" x="631.664" y="248.03" font-size="40" font-family="Sans" letter-spacing="0" word-spacing="0" transform="translate(40.02 29.797)"><tspan x="631.664" y="248.03" style="-inkscape-font-specification:Arial;text-align:center" font-size="15" font-family="Arial" text-anchor="middle">Weights plotter</tspan></text><path fill="none" stroke="#000" d="M606.057 329.442h131.626v56.875H606.057z"/><text y="329.798" x="631.808" style="line-height:125%" font-size="40" font-family="Sans" letter-spacing="0" word-spacing="0" transform="translate(40.02 29.797)"><tspan style="-inkscape-font-specification:'Arial Bold';text-align:center" y="329.798" x="631.808" font-weight="bold" font-size="25" font-family="Arial" text-anchor="middle">...</tspan></text></g><path d="M332.04 370.44l154.793.928" fill="none" stroke="#000" stroke-linecap="round" marker-end="url(#a)"/></g></svg>