<svg xmlns="http://www.w3.org/2000/svg" width="1616.577" height="542.327"><path d="M1337.74 362.854c-12.063 7.364-26.758 11.24-40.074 16.5-12.63 6.597-26.582 10.128-39.744 15.68-17.055 5.978-34.493 10.503-51.217 17.326-15.218 4.705-30.09 9.953-45.316 14.306-19.346 5.987-38.737 12.065-58.42 16.638-14.388 4.708-29.107 8.425-43.748 11.964-12.625 4.072-25.46 6.637-38.248 9.937-16.998 3.64-33.72 8.9-51.068 10.593-16.096 4.482-32.41 7.884-48.708 11.396-13.195 2.967-26.473 5.305-39.87 7.62-15.442 3.283-30.954 6.58-46.675 8.368-22.945 5.16-46.408 8.055-69.778 10.502-13.323 3.198-27.115 4.037-40.56 6.75-16.738 1.207-33.22 4.633-50.008 5.842-15.355 3.147-31.24 2.336-46.62 5.4-24.02.81-48.24 6.647-72.33 6.42-15.24 1.098-29.756 2.486-45.135 2.03-31.472 1.812-62.963 1.024-94.42 2.172-42.093-2.157-66.104 1.862-106.44-3.8-14.7-.146-44.518-4.058-59.032-5.886-14.467-1.203-28.66-4.327-43.104-5.742-14.97-3.35-30.3-5.11-44.985-9.654-16.98-3.984-34.24-7.226-50.698-13.3-13.476-3.642-26.38-10.214-39.52-15.725-20.376-10.765-41.265-22.498-55.447-41.173-15.292-17.13-19.46-41.44-15.077-63.51 5.41-19.338 16.294-36.572 29.578-51.453 18.636-24.328 44.13-42.23 68.35-60.628 27.7-18.14 55.737-35.92 85.495-50.522 14.473-8.404 30.183-14.83 45-22.357 8.852-2.273 17.35-7.488 26.066-10.904 16.248-6.76 30.972-15.092 47.747-20.174 11.947-6.617 25.72-9.84 38.552-14.687 13.65-4.9 26.9-10.825 40.666-15.004 19.865-7.052 39.772-13.785 60.055-19.67 14.92-3.143 28.62-9.94 43.543-12.962 14.142-4.26 28.47-8.428 42.657-12 21.47-7.2 44.184-10.06 65.852-16.834 13.712-2.81 27.173-7.124 41.09-9.543 13.4-4.03 27.31-5.972 40.832-9.6 14.62-2.056 28.89-6.328 43.54-8.55 22.92-2.66 45.255-8.582 68.033-11.835 15.625-3.367 31.958-4.92 47.764-8.018 15.508-1.762 30.663-6.12 46.386-6.226 14.892-4.17 30.608-3.488 45.64-7.053 23.604-1.145 47.118-3.265 70.57-6.037 27.9-2.356 55.786-4.827 83.75-6.43 38.637-2.104 77.394-1.87 116.06-2.97 44.763.717 89.574 1.187 134.16 5.526 21.583 2.178 43.097 4.89 64.553 8.146 17.92 1.675 35.68 4.625 53.106 8.887 12.683 2.1 24.753 6.658 37.387 9.395 14.023 4.827 28.197 9.343 41.88 15.177 25.845 9.987 50.537 24.972 68.784 46 15.272 18.528 22.622 44.645 14.304 67.832-7.952 29.392-29.81 51.68-51.17 72.178-17.32 18.14-38.413 31.652-58.745 46-17.866 12.03-36.974 21.95-55.567 32.794-16.986 8.616-33.73 17.846-51.242 25.34l-1.434.042" fill="#0d26a7"/><path d="M1394.74 337.368c-.423-3.914 3.316-7.22 3.693-11.19 2.436-11.25 1.887-22.87 2.004-34.31-.23-10.26.12-20.562-.86-30.785-.358-4.734-6.223-3.565-9.49-3.947-17.405-.185-34.812.202-52.213.523-1.836 3.708-.73 11.098-1.17 15.16-.028 4.515-.696 7.175.818 11.516 2.287 3.895 6.547 1.73 10.296 2.587 4.72-.47 4.754 4.066 4.596 7.56.143 7.298.38 14.645-.447 21.91-1.472 4.732-6.272 8.25-11.302 7.754-4.366-.12-9.662.753-12.824-3.026-4.178-4.084-3.626-10.253-3.842-15.597-.464-25.023-.54-50.065.198-75.083.233-5.34.81-12.112 6.103-14.924 3.835-1.718 8.28-1.93 12.397-1.396 4.863 1.8 9.11 6.18 9.542 11.538.887 4.477-.534 9.317 1.29 13.588 2.447 3.19 7.074 2.624 10.652 3.035 9.715.164 19.475.752 29.168-.116 4.283.092 7.478-3.715 7.128-7.887.095-8.62-.93-17.323-3.312-25.616-3.045-6.792-6.982-13.588-13.024-18.147-3.675-2.657-8.193-3.87-11.707-6.72-4.252-1.378-8.538-2.692-12.668-4.414-8.104-1.476-16.42-.81-24.615-1.01-7.887.032-16.05-.293-23.466 2.87-7.796 2.416-14.768 6.874-21.234 11.75-5.673 4.855-9.037 11.84-11.586 18.724-3.284 11.146-2.773 22.93-3.064 34.423.022 24.687.14 49.388 1.28 74.052.492 10.013 7.1 18.25 13.622 25.295 5.903 5.91 13.946 8.86 21.395 12.242 8.453 1.73 17.08 2.618 25.694 3.024.676.43.025 1.55-.054 2.104M231.07 198.758c1.215 3.82-2.483 6.636-3.394 10.02-1.218 5.924-2.606 11.835-3.617 17.8-.472 5.31 1.89 10.324 2.542 15.532 1.917 7 5.857 13.334 10.278 19.027 2.76 3.14 6.654 4.99 9.602 7.96 4.005 3.033 7.916 6.622 12.824 8.033 5.462 4.753 12.726 6.79 18.4 11.263 3.928.767 6.093 4.808 10.158 5.493 2.68 3.86 7.862 5.004 10.762 8.748 3.714 4.665 3.024 11.085 2.727 16.658-.858 3.662-4.15 6.672-7.515 8.106-3.7.47-7.633.726-11.27-.232-3.53-2.02-6.02-5.404-8.99-8.136-.127-6.92.368-13.905-.788-20.76-2.507-2.808-7.356-1.47-10.84-2.06-10.563-.145-21.154-.704-31.705-.016-3.745-.154-7.495 2.35-7.14 6.43-.55 8.264.342 16.656 2.308 24.692 2.985 8.097 7.49 15.71 13.282 22.114 2.893 2.352 6.08 3.68 9.06 6.04 9.545 5.47 20.51 8.174 31.488 8.14 9.356.065 18.746.106 28.07-.727 3.843-.294 6.65-3.583 10.624-3.4 9.497-3.132 17.55-9.744 23.947-17.292 3.813-4.84 4.844-11.146 6.497-16.925 1.766-8.658 1.262-17.595.783-26.36-.34-6.178-3.082-11.88-5.462-17.492-2.45-4.17-6.286-7.346-9.658-10.77-4.524-4.3-9.428-8.31-15.23-10.743-5.172-2.712-9.735-6.415-15.045-8.892-3.78-1.743-6.775-4.923-10.88-5.83-6.38-3.62-12.46-8.052-17.316-13.578-2.393-3.782-2.11-8.684-1.32-12.92 1.762-4.265 6.172-6.982 10.43-8.324 4.567-.154 9.11 3.09 12.223 6.167 1.39 5.484.842 11.297 2.45 16.724 2.797 3.578 8.647 1.547 12.71 2.38 10.488.243 20.98.102 31.468.14 1.62-2.362 3.42-4.87 2.955-7.927-.648-8.842-.81-18.058-4.49-26.287-4.113-8.086-11.767-13.715-19.547-17.992-3.68-1.132-7.473-2.027-10.99-3.73-7.894-2.057-16.178-1.13-24.244-1.693-3.027.21-6.287-.91-9.138-.348l-47.005 20.968zM855.364 360.675c3.634-1.847 8.285-1.075 11.22-4.155 3.68-1.276 7.26-2.914 10.078-5.732 6.928-6.167 13.374-13.82 14.915-23.242.355-4.845 2.81-9.277 2.763-14.2.27-5.778.7-11.81-1.122-17.38-1.94-4.063-1.847-8.833-4.524-12.603-3.324-5.607-7.29-11.193-13.098-14.426-3.477-2.35-5.807-6.55-10.12-7.48-5.05-2.365-8.914-6.794-14.27-8.535-6.18-3.498-12.223-7.24-18.56-10.46-3.223-2.062-6.398-4.216-9.334-6.65-3.583-3.498-6.515-8.272-5.61-13.484.3-5.72 5.69-9.987 11.252-9.848 3.86.167 9.036.232 11.023 4.24 2.717 4.31 3.85 9.388 3.707 14.44.575 4.86 6.52 4.163 10.138 4.494 11.27.105 22.605.433 33.828-.763 4.71-1.46 2.307-7.67 2.805-11.334-.073-4.397-1.15-8.643-2.43-12.813-.313-4.243-1.585-8.376-4.27-11.76-4.61-6.62-11.077-11.852-18.524-14.96-7.282-3.027-14.95-5.7-22.955-5.452-10.106.005-20.27-.32-30.326.846-4.02.977-7.858 2.666-11.93 3.522-7.1 2.594-13.716 6.684-19.257 11.818-5.024 6.39-8.063 14.306-9.342 22.297-1.213 10.103-1.458 20.647 1.573 30.466 1.94 3.707 3.627 7.626 6.034 11.047 4.628 5.21 10.583 8.977 16.014 13.265 6.554 4.215 13.024 8.61 19.877 12.324 4.136 1.074 7.435 3.913 11.01 6.136 5.516 3.823 11.74 6.88 16.275 11.927 3.773 5.154 4.165 12.325 2.173 18.25-1.58 4.498-6.148 7.302-10.837 7.23-3.59.272-7.713.052-10.07-3.1-5.648-5.27-6.083-13.452-6.21-20.67.656-4.272-2.27-8.315-6.837-7.88-10.197-.494-20.423-.024-30.625.225-3.326.77-9.587-1.118-10.254 3.587-.92 6.877-1.277 13.92-.473 20.825 1.276 6.74 3.76 13.278 7.367 19.108 1.235 3.89 4.916 6.344 7.756 9.078 5.228 4.567 11.11 8.59 17.945 10.258 9.53 3.05 19.543 4.38 29.54 4.02 7.91-.273 16.01-.362 23.69-2.475zM1007.306 361.346c5.54-2.1 11.718-2.186 16.888-5.32 10.193-5.476 18.838-14.054 23.748-24.588.705-1.225 1.423-2.446 1.14-3.915.103-41.92.506-83.84.245-125.76-.204-5.863.152-11.822-.84-17.605-4.438-1.406-9.253-1.05-13.87-1.362-9.777-.166-19.61-.405-29.343.7-3.764 1.596-1.455 7.74-2.343 11.21-.744 38.16.02 76.334-.624 114.495-.33 4.352.363 9.55-3.28 12.762-3.043 2.864-6.82 5.66-11.148 5.772-5.43-1.142-8.983-5.802-12.8-9.467-.263-39.76-.185-79.526-.88-119.283-.22-4.98-.024-10.028-.815-14.95-3.492-1.455-7.505-.9-11.226-1.185-10.12-.024-20.264-.36-30.37.268-4.362-.152-4.688 4.82-4.717 8.017-.756 21.365-.388 42.752-.49 64.126.123 17.968-.22 35.956.78 53.902.52 5.37 2.285 10.595 2.063 16.05.905 12.54 9.96 23.077 20.654 28.922 3.42 1.556 6.667 3.128 10.142 4.564 4.927 1.195 9.81 2.726 14.83 3.455 10.136.765 20.392.857 30.493-.38.595-.106 1.194-.22 1.763-.427zM731.084 355.767c2.326-3.95 1.073-9.045 1.505-13.47-.19-29.557-.387-59.124-1.515-88.66-.245-5.097-1.384-10.084-1.238-15.22-.598-17.118.124-34.286-1.26-51.37-.602-1.264-.288-3.862-1.593-4.28-21.326.09-42.66-.248-63.978.342-5.233-1.065-8.232 2.75-8.675 7.63-2.226 10.38-2.67 21.046-4.503 31.498-1.717 11.922-3.427 23.847-5.87 35.645-1.515 8.396-1.363 17.075-3.966 25.258-.952 4.147-.98 8.435-1.746 12.602-1.04-3.824-3.335-8.216-4.186-12.442-1.13-7.413-.87-15.095-3.452-22.237-1.884-8.617-1.827-17.538-3.975-26.117-2.204-13.227-2.562-26.738-5.85-39.788-1.784-3.888.757-11.19-5.246-11.58-11.63-1.283-23.375-.61-35.053-.81h-32.857c-1.973 2.356-2.69 5.338-2.66 8.383-1.088 24.89-.88 49.814-1.23 74.72-.177 29.637-.6 59.282-.037 88.917 1.122 4.61 8.11 2.15 11.716 2.948 9.37-.104 18.79.428 28.124-.52 2.355-.247 3.977-2.066 5.78-3.388.55-36.32.676-72.65 1.813-108.956-.302-3.877 2.36-2.233 2.194.647 1.016 6.383 1.15 12.955 3.39 19.087 1.54 6.722 1.312 13.824 3.99 20.272 1.588 6.924 1.106 14.278 3.95 20.907 1.696 6.76 1.002 14.058 4 20.49 1.406 5.084.66 10.494 2.32 15.55 1.314 3.946 2.09 8.078 3.204 12.034 2.233 4.832 8.22 3.614 12.52 3.843 10.193-.22 20.43.102 30.585-.842 5.293-.88 5.29-7.2 5.45-11.413.884-7.357 4.155-14.316 3.85-21.84-.58-4.703 2.652-8.406 3.254-12.862.733-5.828.75-11.84 3.03-17.35 1.85-7.606 1.66-15.63 4.357-23.032 1.082-6.51 1.654-13.12 3.606-19.46 1.395-5.278 1.142-10.864 2.72-16.085 2.71-.87.97 6.764 1.635 9.192.802 36.6-.082 73.22.975 109.81 1.522 4.705 7.844 3.657 11.737 4.09 10.253-.07 20.57.016 30.756-1.237.845-.18 1.728-.363 2.43-.903zM420.18 355.867c4.78-2.75 4.196-8.998 4.394-13.72-.225-5.16 1.146-10.144 2.415-15.078 1.47-7.87 1.32-15.99 3.576-23.724 1.973-9.08 2.084-18.48 4.512-27.465 2.16-14.656 2.78-29.516 5.526-44.092.82-5.81 1.116-11.674 1.55-17.52.665 6.41 1.644 12.804 3.62 18.957 2.362 9.924 1.325 20.447 4.876 30.11 1.766 7.94.005 16.387 3.146 24.088 2.665 8.033.922 16.726 3.55 24.778 2.315 6.567 1.997 13.57 2.742 20.382 1.197 6.584 2.43 13.168 3.06 19.843-.544 4.634 3.957 6.514 7.89 5.7 12.827-.498 25.66-.33 38.492-.358 1.805-2.488 3.428-5.313 2.877-8.53-.25-5.43-1.118-10.876-3.203-15.91-.955-4.51-.605-9.198-1.85-13.677-1.397-5.753-2.75-11.55-3.006-17.484-1.052-6.3-3.17-12.382-3.823-18.765-1.24-9.15-1.74-18.456-4.367-27.36-1.628-7.22-1.885-14.748-4.548-21.72-1.438-5.58-.77-11.505-2.836-16.966-2.244-5.71-1.92-11.897-2.57-17.875-.67-3.51-2.96-6.518-3.196-10.177.09-4.493-3.14-6.9-7.47-6.15-19.683-.6-39.384-.406-59.073-.25-4.065.192-8.226-.07-12.203.912-2.79 3.177-2.272 8.25-3.158 12.272-1.218 8.96-3.497 17.735-4.59 26.716-1.08 5.477-3.083 10.757-3.384 16.386-.273 4.818-1.45 9.49-2.854 14.075-1.415 6.838-1.187 14-3.67 20.61-1.78 7.33-1.098 15.205-4.362 22.16-1.017 4.337-.643 8.9-2.04 13.188-2.63 9.028-2.55 18.632-5.676 27.528-1.12 5.537-1.89 11.252-1.53 16.898.855 4.052 5.928 3.706 9.153 3.995 10.878.14 21.78.35 32.646-.244 1.867-.174 3.783-.493 5.385-1.533zM1136.003 353.848c1.968-3.68 1.138-8.18 1.5-12.225.328-32.752-.477-65.51.02-98.26-.25-2.003.587-7.575 1.743-2.7.124 4.28 1.62 8.248 3.27 12.147 3.615 11.305 6.69 22.776 9.77 34.237 1.365 5.347 4.068 10.364 4.435 15.94 1.66 4.354 4.24 8.352 4.323 13.184 1.11 4.288 3.62 8.196 3.675 12.74 1.5 4.503 4.152 8.586 4.287 13.48 1.46 4.432 3.142 9.2 6.643 12.427 6.546 1.123 13.276.714 19.902.883 12.805-.104 25.65-.065 38.407-1.285 4.27-.884 1.748-7.49 2.724-10.74.707-33.848.615-67.707.69-101.56-.084-18.29.075-36.588-.52-54.87-.484-1.197-.133-3.86-1.6-3.986-12.936-.064-25.88-.603-38.81-.164-5.004-.7-6.042 4.56-5.66 8.41-.17 21.226.366 42.454.888 63.673.322 7.702.24 15.468 1.483 23.08.54 8.66.19 17.338.185 26.007-1.26-5.03-2.178-10.224-4.56-14.868-.868-3.976-1.863-7.917-3.458-11.67-1.842-7.055-2.804-14.324-5.09-21.273-1.933-7.36-5.46-14.273-6.36-21.89-.754-4.156-3.455-7.68-3.75-11.968-.044-4.217-4.055-6.967-3.56-11.264.364-4.46-3.11-7.793-3.51-12.1-.847-5.7-3.554-10.843-6.033-15.97-19.01-.088-38.023-.505-57.033-.245-4.143-.357-9.8.702-8.828 6.172-.84 18.713-.445 37.458-.58 56.185.05 34.92-.13 69.843.498 104.757-.18 4.906 5.88 4.992 9.393 5.247 10.358.404 20.748.518 31.106.08 1.556-.162 3.344-.303 4.413-1.612z" fill="#fff"/></svg>