<svg xmlns="http://www.w3.org/2000/svg" xmlns:xlink="http://www.w3.org/1999/xlink" width="429.714" height="80" viewBox="0 0 402.85714 74.999997"><defs><marker orient="auto" id="l" overflow="visible"><path d="M-1.926-1.21L1.352-.005l-3.278 1.206a2.05 2.05 0 0 0 0-2.411z" fill-rule="evenodd" stroke-width=".1875" stroke-linejoin="round" stroke="#dc1e00" fill="#dc1e00"/></marker><marker id="i" orient="auto" overflow="visible"><path d="M-1.926-1.21L1.352-.005l-3.278 1.206a2.05 2.05 0 0 0 0-2.411z" fill-rule="evenodd" stroke-width=".1875" stroke-linejoin="round" stroke="#eb4700" fill="#eb4700"/></marker><marker orient="auto" id="f" overflow="visible"><path d="M-1.926-1.21L1.352-.005l-3.278 1.206a2.05 2.05 0 0 0 0-2.411z" fill-rule="evenodd" stroke-width=".1875" stroke-linejoin="round" stroke="#f56100" fill="#f56100"/></marker><linearGradient id="c"><stop offset="0" stop-color="#eb4700"/><stop offset="1" stop-color="#dc1e00"/></linearGradient><linearGradient id="b"><stop offset="0" stop-color="#f56100"/><stop offset="1" stop-color="#eb4700"/></linearGradient><linearGradient id="a"><stop offset="0" stop-color="#ff9255"/><stop offset="1" stop-color="#f56100"/></linearGradient><linearGradient xlink:href="#a" id="d" x1="125" y1="335.934" x2="159.286" y2="335.934" gradientUnits="userSpaceOnUse" gradientTransform="matrix(.82256 0 0 .6578 22.18 114.949)"/><linearGradient xlink:href="#a" id="e" x1="125" y1="335.934" x2="159.286" y2="335.934" gradientUnits="userSpaceOnUse" gradientTransform="matrix(.82256 0 0 .6578 22.18 114.949)"/><linearGradient xlink:href="#b" id="g" x1="234.286" y1="335.934" x2="268.571" y2="335.934" gradientUnits="userSpaceOnUse" gradientTransform="translate(42.848 61.433) scale(.81711)"/><linearGradient xlink:href="#b" id="h" x1="234.286" y1="335.934" x2="268.571" y2="335.934" gradientUnits="userSpaceOnUse" gradientTransform="translate(42.848 61.433) scale(.81711)"/><linearGradient xlink:href="#c" id="k" x1="343.571" y1="335.934" x2="377.857" y2="335.934" gradientUnits="userSpaceOnUse" gradientTransform="matrix(.80048 0 0 .80048 68.548 67.018)"/><linearGradient xlink:href="#c" id="j" x1="343.571" y1="335.934" x2="377.857" y2="335.934" gradientUnits="userSpaceOnUse" gradientTransform="matrix(.80048 0 0 .80048 68.548 67.018)"/></defs><g transform="translate(-50 -298.434)"><circle cx="196.786" cy="335.934" r="37.5" fill="#f56100"/><circle r="37.5" cy="335.934" cx="306.071" fill="#eb4700"/><circle cx="415.357" cy="335.934" r="37.5" fill="#dc1e00"/><circle r="37.5" cy="335.934" cx="87.5" fill="#ff9255"/><path d="M125 335.923h28.202" fill="url(#d)" fill-rule="evenodd" stroke="url(#e)" stroke-width="6" marker-end="url(#f)"/><path d="M234.286 335.928H262.3" fill="url(#g)" fill-rule="evenodd" stroke="url(#h)" stroke-width="6" marker-end="url(#i)"/><path d="M343.571 335.928h27.446" fill="url(#j)" fill-rule="evenodd" stroke="url(#k)" stroke-width="6" marker-end="url(#l)"/></g></svg>