<svg xmlns="http://www.w3.org/2000/svg" viewBox="0 0 227.07199 227.06609" height="227.066" width="227.072"><path fill="#fff" d="M7.836 226.437c-1.445-.24-3.695-1.573-5-2.962C.465 220.95.463 220.93.463 195.052v-25.896l2.77-2.774 2.772-2.773 24.65-.3c17.422-.213 25.492.048 27.525.89 5.536 2.293 5.91 4.44 5.581 31.934l-.298 24.934-2.771 2.771-2.77 2.771-23.73.132c-13.051.073-24.911-.064-26.356-.304zm42.147-9.838c1.606-.83 3.384-2.376 3.95-3.434.588-1.099 1.03-9.065 1.03-18.567v-16.643l-2.923-2.923-2.923-2.923H32.474c-9.502 0-17.468.442-18.567 1.03-4.105 2.197-4.946 5.995-4.909 22.17.053 22.603.162 22.712 22.765 22.765 11.744.027 15.978-.316 18.22-1.475zm-28.566-10.944c-2.196-2.197-2.454-3.295-2.454-10.445 0-7.004.298-8.335 2.413-10.795 2.274-2.643 2.882-2.806 10.478-2.806 7.48 0 8.264.201 10.836 2.773 2.572 2.572 2.773 3.357 2.773 10.836 0 7.596-.163 8.204-2.806 10.478-2.46 2.115-3.791 2.413-10.795 2.413-7.15 0-8.248-.258-10.445-2.454zm52.722 20.584c-.797-.505-1.195-2.193-1-4.235.307-3.22.544-3.41 4.574-3.702l4.25-.308v3.95c0 2.68-.509 4.146-1.582 4.558-2.186.84-4.67.734-6.242-.263zm45.529.242c-.388-.388-.705-2.404-.705-4.481 0-3.727.055-3.78 4.25-4.083l4.25-.308v-27l-8.712-.288-8.711-.289-.289-8.711-.288-8.712h-18l-.305 4.195c-.302 4.156-.344 4.198-4.5 4.5l-4.195.305v9l4.25.308c4.237.306 4.25.32 4.25 4.289v3.981l-8.75-.289-8.75-.289-.27-22.221-.268-22.221-13.231-.279-13.231-.279-.5-4c-.5-4-.5-4-5-4h-4.5l-.31 4.29-.309 4.29-8.19-.29-8.191-.29-.5-8.5-.5-8.5h-9l-.5 8.5-.5 8.5-3.716.308c-3.178.264-3.799-.026-4.28-2-.31-1.27-.439-15.358-.284-31.308l.28-29 4.227-.306 4.226-.307.274 17.807.273 17.806h9l.309-4.278.309-4.28 13.19.28 13.192.278.3 3.085c.17 1.727-.299 3.584-1.063 4.218-.809.671-6.427 1.247-13.8 1.415l-12.437.282v8l13.5.5 13.5.5.31 4.288.309 4.288 8.69-.288 8.69-.288.305-4.19.305-4.19-4.305-.31c-4.282-.308-4.306-.331-4.609-4.5l-.304-4.19 4.304-.31 4.305-.31v-9l-4.25-.307c-4.224-.306-4.25-.332-4.25-4.221v-3.914l13.25-.279 13.25-.279.5-8.5.5-8.5 4-.5 4-.5.272-18.25.273-18.25h-8.93l-.308 4.25c-.306 4.24-.316 4.25-4.307 4.25-4 0-4 0-4-4 0-3.99.01-4 4.25-4.307l4.25-.308v-8.77l-4.25-.307c-4.24-.307-4.25-.317-4.25-4.308 0-3.99.01-4 4.25-4.307l4.25-.308v-4.442c0-4.242-.132-4.443-2.918-4.443-6.062 0-6.082-.047-6.082-14.107V.11h17.922l.289 8.75.289 8.75 8.414.293c9.084.317 10.043-.152 10.07-4.92.02-3.303-1.545-4.62-5.988-5.041-3.266-.31-3.496-.563-3.496-3.832 0-3.395.126-3.51 4.19-3.804l4.19-.305.31 4.305.31 4.304h18l.31-4.288.309-4.288 8.69.288 8.69.288v3.5c0 3.27-.23 3.522-3.495 3.832-4.655.441-6.004 1.743-6.004 5.79 0 3.17-.208 3.378-3.378 3.378-1.857 0-3.862.584-4.454 1.297-.592.714-1.21 4.877-1.372 9.25l-.296 7.953-4 .5-4 .5v26h4.5c4.5 0 4.5 0 5-4 .473-3.787.698-4.016 4.21-4.308l3.71-.308.29 8.808.29 8.808 4.245.307c4.909.356 5.104.77 5.5 11.693l.255 7 4 .5c3.81.476 4 .667 4 4s-.19 3.524-4 4c-4 .5-4 .5-4 5s0 4.5 4 5c3.81.476 4 .667 4 4s-.19 3.524-4 4c-3.976.497-4.002.528-4.303 5.21l-.303 4.71 8.803.29 8.803.29.289 8.75.289 8.75H172.848l.307-4.25c.307-4.236.322-4.25 4.595-4.56l4.286-.308-.286-9.191-.287-9.19-8.75-.29-8.75-.289v-3.903c0-3.878.028-3.906 4.25-4.211l4.25-.308.281-12.96c.305-14.014.502-14.499 5.911-14.525 3.039-.014 3.208-.22 3.5-4.265.307-4.24.317-4.25 4.308-4.25 3.99 0 4 .01 4.307 4.25l.308 4.25h4.442c4.38 0 4.443-.048 4.443-3.377 0-5.218 1.364-5.722 14.642-5.406l11.858.283.304 4.19.305 4.19-4.305.31c-4.069.293-4.322.491-4.622 3.625-.413 4.298 1.247 6.185 5.44 6.185h3.378v26h-3.378c-4.193 0-5.853 1.887-5.44 6.185.3 3.132.555 3.332 4.606 3.624l4.288.31-.288 8.69-.288 8.691-4 .5-4 .5v17l4 .5 4 .5v63h-3.5c-3.27 0-3.522-.23-3.832-3.496-.182-1.923-.8-4.06-1.372-4.75-1.142-1.375-14.452-1.76-16.472-.476-.646.412-1.321 2.542-1.5 4.735-.296 3.64-.593 4.013-3.41 4.288-3.702.362-5.14-1.132-5.582-5.805l-.332-3.496-8.808-.29-8.808-.29.308-3.71c.291-3.512.521-3.737 4.308-4.21 3.81-.476 4.024-.69 4.5-4.5l.5-4 12.436-.282c6.893-.157 13.01-.758 13.721-1.348.892-.741 1.37-4.929 1.564-13.718l.279-12.652 4-.5c3.917-.49 4-.583 4-4.5v-4l-8.468-.294c-5.223-.181-8.762-.756-9.235-1.5-.422-.663-.773-4.693-.782-8.956l-.015-7.75h-9v44.922l-8.75.29-8.75.288-.5 4c-.476 3.81-.69 4.024-4.5 4.5s-4.024.69-4.5 4.5c-.488 3.9-.607 4.008-4.75 4.308l-4.25.307v-4c0-3.99.01-4 4.25-4.307l4.25-.308v-9l-8.69-.288-8.691-.288-.31 4.288c-.3 4.152-.426 4.298-3.983 4.594-2.02.168-4.144.872-4.718 1.564-.574.691-1.17 6.854-1.326 13.694l-.282 12.436-7.545.288c-4.15.16-7.862-.028-8.25-.416zm79.795-13.372v-4.5h-4c-3.806 0-4.016.163-4.32 3.345-.505 5.26.304 6.318 4.562 5.966 3.741-.31 3.758-.331 3.758-4.81zm-71.5-36.5l.5-4 8.721-.288 8.721-.289.28-13.211.278-13.212 4-.5c3.893-.486 4.008-.613 4.305-4.71l.306-4.21-8.806-.29-8.805-.29-.31-4.302-.31-4.303-4.69.303c-4.659.3-4.693.33-5.19 4.302l-.5 4-8.5.5-8.5.5-.5 4c-.474 3.788-.697 4.016-4.216 4.308-4.475.372-5.05-.986-4.588-10.839l.304-6.469 13.5-.5 13.5-.5.306-4.217c.374-5.157.271-5.193-15.806-5.537l-11.5-.246v-16l3.496-.332c4.443-.421 6.008-1.738 5.989-5.04-.028-4.769-.987-5.237-10.07-4.921l-8.415.293-.288 8.694-.288 8.695-4.212.305-4.212.306v9l4.25.308c4.208.304 4.25.345 4.25 4.143 0 4.17-1.068 5.05-6.14 5.05-2.882 0-2.965.132-2.668 4.25.3 4.142.408 4.262 4.308 4.75l4 .5.5 8.5.5 8.5h36l.307-4.25c.306-4.23.327-4.25 4.25-4.25h3.943v8.884l-4.25.308c-4.223.305-4.252.334-4.556 4.519l-.305 4.212-8.695.288-8.694.288v4c0 3.917.083 4.01 4 4.5 3.58.448 4.03.815 4.293 3.5.514 5.26.9 5.637 5.448 5.308 4.154-.3 4.271-.407 4.759-4.308zm54-9v-13.5h-27v27h27v-13.5zm-17.583 3.145c-.311-.812-.42-2.751-.242-4.31.296-2.587.675-2.835 4.325-2.835 4 0 4 0 4 4 0 3.902-.092 4.008-3.758 4.311-2.608.216-3.932-.141-4.325-1.166zm-73.417-3.202v-4.558l-4.25.308c-4.23.306-4.252.328-4.558 4.557l-.307 4.25h9.115v-4.557zm-9-26.943v-4.5h-9v3.833c0 4.76.406 5.167 5.167 5.167h3.833v-4.5zm109 0v-4.5h-9v3.833c0 2.109.3 4.134.667 4.5.366.367 2.391.667 4.5.667h3.833v-4.5zm27.5 0v-4h-4.5c-4.199 0-4.522.19-4.825 2.835-.553 4.83.357 5.814 5.066 5.473 4.25-.307 4.259-.316 4.259-4.308zM72.77 131.36l.308-4.25h-9.115v3.833c0 4.779.557 5.336 4.964 4.965 3.39-.286 3.549-.473 3.843-4.548zm136.586-5.832c.334-.87.607-2.869.607-4.442 0-2.65.312-2.883 4.25-3.168 4.087-.296 4.261-.445 4.55-3.893.18-2.14-.25-4.043-1.063-4.718-.809-.671-6.43-1.247-13.8-1.415l-12.437-.282-.5-8.5-.5-8.5h-8v27l4.25.308c4.195.303 4.25.356 4.25 4.083 0 2.077.3 4.076.667 4.442.366.367 4.368.667 8.893.667 6.578 0 8.347-.317 8.833-1.582zm-63.893-12.418v-4.5l-4.212-.306-4.212-.305-.288-8.695-.288-8.694h-9l-.305 4.195c-.302 4.156-.344 4.198-4.5 4.5l-4.195.305v9l4.25.308c3.938.285 4.25.517 4.25 3.168 0 5.857.454 6.125 9.871 5.811l8.629-.287v-4.5zm72.446-14.435c.655-.789 1.047-2.926.872-4.75l-.318-3.315h-18l-.32 3.345c-.555 5.786-.035 6.155 8.666 6.155 5.65 0 8.249-.41 9.1-1.435zm-91.025-8.97c.732-.882 1.057-4.327.873-9.25l-.294-7.845h-18l-.293 8.414c-.211 6.057.069 8.645 1 9.235 2.274 1.443 15.419 1.007 16.714-.554zm-17.421-35.595v-8.5h-9l-.297 7.407c-.393 9.802-.152 10.276 5.038 9.901l4.259-.308v-8.5zm-9.5-18v-9h-8.891l-.304-4.75-.305-4.75h-8v9l4.304.31 4.305.31-.305 4.19c-.302 4.16-.335 4.192-4.554 4.498-4.195.303-4.25.356-4.25 4.083 0 2.077.3 4.076.667 4.442.366.367 4.416.667 9 .667h8.333v-9zm18.794-8.345c.319-8.515-.552-10.655-4.335-10.655-5.066 0-5.46.68-5.46 9.44 0 4.525.322 8.548.715 8.94.392.393 2.53.58 4.75.417l4.036-.297.294-7.845zm28.456 198.683c-.704-.284-1.25-2.231-1.25-4.46v-3.956l8.75.29 8.75.288.324 3.395c.195 2.042-.204 3.73-1 4.235-1.41.894-13.475 1.055-15.574.208zm-55.86-10.765c-.302-.785-.4-2.473-.22-3.75.278-1.955 1.004-2.372 4.58-2.63l4.25-.308v8.115H95.93c-2.57 0-4.23-.517-4.579-1.427zm18.61-11.573c0-4 0-4 4-4s4 0 4 4 0 4-4 4-4 0-4-4zm-91-109c0-3.877.104-4 3.377-4 1.858 0 3.863-.584 4.455-1.297.592-.714 1.21-4.876 1.372-9.25l.296-7.953h53v8l-21.954.27c-16.031.197-22.164.602-22.734 1.5-.43.677-.788 4.718-.797 8.98l-.015 7.75h-17v-4zm36 .039v-4.039h18.12l-.31 3.75-.31 3.75-8.75.289-8.75.289v-4.039zM.335 78.454c-.947-3.773.732-5.845 4.737-5.845 3.274 0 3.401.146 3.698 4.25l.308 4.25H5.039c-3.536 0-4.12-.33-4.704-2.655zm155.045 1.3c-.311-.812-.42-2.751-.242-4.31.296-2.587.675-2.835 4.325-2.835 4 0 4 0 4 4 0 3.902-.092 4.008-3.758 4.311-2.608.216-3.932-.141-4.325-1.166zM4.758 61.561c-1.729-.939-3.081-2.82-3.745-5.21-1.347-4.852-1.352-44.615-.006-49.462C2.863.207 3.32.109 32.511.109h26.103l2.424 2.579c2.414 2.567 2.426 2.692 2.723 27.455.327 27.213-.145 30.007-5.411 32.01-1.385.525-13.4.938-26.702.916-19.315-.032-24.73-.336-26.89-1.508zM52.04 51.186l2.923-2.923V31.409c0-23.722.102-23.626-24.466-23.122l-15.703.322-2.98 3.338-2.98 3.339.314 17 .315 17 2.806 2.412c2.727 2.344 3.28 2.411 19.827 2.411h17.02l2.924-2.923zM24.32 44.17c-4.058-1.737-5.357-4.969-5.357-13.329 0-6.972.267-8.09 2.454-10.277 2.188-2.188 3.305-2.455 10.278-2.455 5.342 0 8.503.477 9.969 1.503 5.15 3.607 5.689 17.562.864 22.387-2.147 2.146-3.6 2.586-9.305 2.816-3.718.15-7.724-.14-8.903-.645zm122.06 17.584c-.311-.812-.42-2.751-.242-4.31.296-2.587.675-2.835 4.325-2.835 4 0 4 0 4 4 0 3.902-.092 4.008-3.758 4.311-2.608.216-3.932-.141-4.325-1.166zm22.603.07c-4.643-2.348-4.99-4.488-5.005-30.888l-.015-24.673 2.589-3.077L169.14.109h52.913l2.454 2.455 2.455 2.454v52.913l-3.077 2.59-3.077 2.588-24.673-.015c-17.78-.01-25.366-.365-27.153-1.27zm45.62-9.175c3.856-2.702 4.524-6.355 4.182-22.901-.32-15.525-.335-15.612-3.092-18.369-2.757-2.757-2.845-2.771-18.369-3.092-24.447-.505-24.361-.586-24.361 23.122v16.854l2.923 2.923 2.923 2.923h16.854c13.16 0 17.312-.32 18.94-1.46zm-27.282-8.932c-4.026-1.82-5.733-6.751-5.146-14.865.365-5.05.887-6.431 3.168-8.394 2.362-2.032 3.786-2.349 10.54-2.349 7.102 0 8.045.238 10.444 2.636 2.398 2.399 2.636 3.342 2.636 10.445 0 6.78-.313 8.171-2.38 10.574-2.103 2.446-3.175 2.801-9.25 3.07-4.401.194-7.999-.207-10.012-1.117zm-49.654.763c-.387-.388-.704-4.428-.704-8.98v-8.276l4.25-.307c4.239-.307 4.25-.32 4.56-4.612l.31-4.305 4.19.305 4.19.304v26l-8.046.287c-4.426.158-8.363-.03-8.75-.416z"/></svg>
