<svg xmlns="http://www.w3.org/2000/svg" xmlns:xlink="http://www.w3.org/1999/xlink" width="473" height="302" viewBox="-0.5 -0.5 473 302"><path d="M141 122h190" fill="none" stroke="rgba(186, 186, 186, 1)" stroke-width="2" stroke-miterlimit="10" pointer-events="stroke"/><path d="M1 42h330" fill="none" stroke="rgba(186, 186, 186, 1)" stroke-width="2" stroke-miterlimit="10" pointer-events="stroke"/><path d="M239 200h232" fill="none" stroke="rgba(186, 186, 186, 1)" stroke-width="2" stroke-miterlimit="10" pointer-events="stroke"/><circle cx="357.05" cy="255.41" fill="#0C6" stroke="#fff" pointer-events="none" r="6.136"/><circle cx="449.81" cy="255.41" fill="#06C" stroke="#fff" pointer-events="none" r="6.136"/><circle cx="403.28" cy="255.41" fill="#0C6" stroke="#fff" pointer-events="none" r="6.136"/><path d="M363.19 255.45h19.98l13.97-.04" fill="none" stroke="#fff" stroke-miterlimit="10" pointer-events="none"/><path d="M409.42 255.41h34.26" fill="none" stroke="rgba(186, 186, 186, 1)" stroke-miterlimit="10" pointer-events="none"/><path d="M350.91 255.41q-13.88-.03-13.88-19.69 0-19.65-14.11-19.6" fill="none" stroke="rgba(186, 186, 186, 1)" stroke-miterlimit="10" pointer-events="none"/><path d="M317.67 216.13l6.99-2.35-1.74 2.34 1.76 2.32z" fill="rgba(186, 186, 186, 1)" stroke="rgba(186, 186, 186, 1)" stroke-miterlimit="10" pointer-events="none"/><circle cx="357.05" cy="293.86" fill="#06C" stroke="#fff" pointer-events="none" r="6.136"/><path d="M397.14 255.41q-14.11-.03-14.11 19.25 0 19.27-13.47 19.23" fill="none" stroke="rgba(186, 186, 186, 1)" stroke-miterlimit="10" pointer-events="none"/><path d="M364.31 293.87l7-2.31-1.75 2.33 1.74 2.33z" fill="rgba(186, 186, 186, 1)" stroke="rgba(186, 186, 186, 1)" stroke-miterlimit="10" pointer-events="none"/><circle cx="310.41" cy="216.14" fill="#06C" stroke="#fff" pointer-events="none" r="6.136"/><path d="M316.55 255.41h34.36" fill="none" stroke="rgba(186, 186, 186, 1)" stroke-miterlimit="10" pointer-events="none"/><circle cx="310.41" cy="255.41" fill="#0C6" stroke="#fff" pointer-events="none" r="6.136"/><circle cx="264.19" cy="255.41" fill="#06C" stroke="#fff" pointer-events="none" r="6.136"/><path d="M304.28 255.41h-27.59" fill="none" stroke="rgba(186, 186, 186, 1)" stroke-miterlimit="10" pointer-events="none"/><path d="M271.44 255.41l7-2.33-1.75 2.33 1.75 2.33z" fill="rgba(186, 186, 186, 1)" stroke="rgba(186, 186, 186, 1)" stroke-miterlimit="10" pointer-events="none"/><path d="M166 42l62.76 34.07" fill="none" stroke="rgba(186, 186, 186, 1)" stroke-width="2" stroke-miterlimit="10" pointer-events="none"/><path d="M234.03 78.93l-8.93-.3 3.66-2.56.15-4.47z" fill="rgba(186, 186, 186, 1)" stroke="rgba(186, 186, 186, 1)" stroke-width="2" stroke-miterlimit="10" pointer-events="none"/><path d="M236 122l111.15 35.49" fill="none" stroke="rgba(186, 186, 186, 1)" stroke-width="2" stroke-miterlimit="10" pointer-events="none"/><path d="M352.87 159.32l-8.84 1.38 3.12-3.21-.68-4.41z" fill="rgba(186, 186, 186, 1)" stroke="rgba(186, 186, 186, 1)" stroke-width="2" stroke-miterlimit="10" pointer-events="none"/><text x="236" y="105" fill="rgba(186, 186, 186, 1)" font-family="Monospace" font-size="14" text-anchor="middle" font-weight="bold" transform="translate(-.5 -.5)">github.node_commit.oid</text><text x="3" y="25" fill="rgba(186, 186, 186, 1)" font-family="Monospace" font-size="14" font-weight="bold" transform="translate(-.5 -.5)">github.node_pullrequest.merge_commit_id</text><text x="355" y="185" fill="rgba(186, 186, 186, 1)" font-family="'Source Sans Pro', sans-serif" font-size="18" text-anchor="middle" transform="translate(-.5 -.5)">Analyzed commit ownership</text><switch><a transform="translate(0 -5)" xlink:href="https://www.diagrams.net/doc/faq/svg-export-text-problems" target="_blank"><text text-anchor="middle" font-size="10" x="50%" y="100%">Viewer does not support full SVG 1.1</text></a></switch></svg>