<svg xmlns="http://www.w3.org/2000/svg" width="528.142" preserveAspectRatio="xMinYMin meet" viewBox="0 0 528 264" stroke-miterlimit="10" font-weight="400" height="264.145" font-size="12" id="svg1578" font-family="Dialog" color-interpolation="auto" stroke="#000" stroke-linecap="square"><defs><style>@import url(../fonts/Cerebri_Sans/font.css);</style><style>@import url(../fonts/Source_Sans_Pro/font.css);</style></defs><g id="g1576" transform="translate(-27.5 -24.855)"><defs id="defs1"><clipPath id="clipPath1"><path d="M0 0h630v312H0z" id="path1241"/></clipPath><clipPath id="clipPath2"><path d="M315 181h630v312H315z" id="path1244"/></clipPath></defs><g transform="translate(-315 -181)" id="g1254" fill="#d8d8ff" stroke="#d8d8ff" shape-rendering="geometricPrecision" text-rendering="geometricPrecision"><path clip-path="url(#clipPath2)" id="rect1252" stroke="none" fill="#8719cb" d="M790.142 369.5h80v100h-80z"/></g><g stroke-miterlimit="1.45" transform="translate(-315 -181)" id="g1260" font-family="sans-serif" stroke-linecap="butt" shape-rendering="geometricPrecision" text-rendering="geometricPrecision"><text x="802.459" y="460.863" clip-path="url(#clipPath2)" id="text1256" transform="translate(2.016)" fill="#fff" stroke="none"><tspan style="-inkscape-font-specification:'Source Sans Pro'" id="tspan2902" font-family="Source Sans Pro">Machine 4</tspan></text><path clip-path="url(#clipPath2)" id="rect1258" fill="none" stroke-dasharray="6,2" d="M790.142 369.5h80v100h-80z"/></g><g transform="translate(-315 -181)" id="g1264" fill="#d8d8ff" stroke="#d8d8ff" shape-rendering="geometricPrecision" text-rendering="geometricPrecision"><path clip-path="url(#clipPath2)" id="rect1262" stroke="none" fill="#8719cb" d="M690.142 369.5h80v100h-80z"/></g><g stroke-miterlimit="1.45" transform="translate(-315 -181)" id="g1270" font-family="sans-serif" stroke-linecap="butt" shape-rendering="geometricPrecision" text-rendering="geometricPrecision"><text x="702.459" y="460.863" clip-path="url(#clipPath2)" id="text1266" transform="translate(2.154)" fill="#fff" stroke="none"><tspan style="-inkscape-font-specification:'Source Sans Pro'" id="tspan2898" font-family="Source Sans Pro">Machine 3</tspan></text><path clip-path="url(#clipPath2)" id="rect1268" fill="none" stroke-dasharray="6,2" d="M690.142 369.5h80v100h-80z"/></g><g transform="translate(-315 -181)" id="g1274" fill="#d8d8ff" stroke="#d8d8ff" shape-rendering="geometricPrecision" text-rendering="geometricPrecision"><path clip-path="url(#clipPath2)" id="rect1272" stroke="none" fill="#8719cb" d="M790.142 249.5h80v100h-80z"/></g><g stroke-miterlimit="1.45" transform="translate(-315 -181)" id="g1280" font-family="sans-serif" stroke-linecap="butt" shape-rendering="geometricPrecision" text-rendering="geometricPrecision"><text x="802.459" y="340.863" clip-path="url(#clipPath2)" id="text1276" transform="translate(2.118)" fill="#fff" stroke="none"><tspan style="-inkscape-font-specification:'Source Sans Pro'" id="tspan2900" font-family="Source Sans Pro">Machine 2</tspan></text><path clip-path="url(#clipPath2)" id="rect1278" fill="none" stroke-dasharray="6,2" d="M790.142 249.5h80v100h-80z"/></g><g transform="translate(-315 -181)" id="g1284" fill="#d8d8ff" stroke="#d8d8ff" shape-rendering="geometricPrecision" text-rendering="geometricPrecision"><path clip-path="url(#clipPath2)" id="rect1282" stroke="none" fill="#8719cb" d="M690.142 249.5h80v100h-80z"/></g><g stroke-miterlimit="1.45" transform="translate(-315 -181)" id="g1290" font-family="sans-serif" stroke-linecap="butt" shape-rendering="geometricPrecision" text-rendering="geometricPrecision"><text x="702.459" y="340.863" clip-path="url(#clipPath2)" id="text1286" transform="translate(2.196)" fill="#fff" stroke="none"><tspan style="-inkscape-font-specification:'Source Sans Pro'" id="tspan2896" font-family="Source Sans Pro">Machine 1</tspan></text><path clip-path="url(#clipPath2)" id="rect1288" fill="none" stroke-dasharray="6,2" d="M690.142 249.5h80v100h-80z"/></g><g transform="translate(-315 -181)" id="g1294" fill="#d8d8ff" stroke="#d8d8ff" shape-rendering="geometricPrecision" text-rendering="geometricPrecision"><path clip-path="url(#clipPath2)" id="rect1292" stroke="none" fill="#8719cb" d="M380 385.92h135v42.16H380z"/></g><g stroke-miterlimit="1.45" transform="translate(-315 -181)" id="g1300" font-family="sans-serif" stroke-linecap="butt" shape-rendering="geometricPrecision" text-rendering="geometricPrecision"><text x="386" y="403.985" clip-path="url(#clipPath2)" id="text1296" stroke="none" fill="#fff"><tspan style="-inkscape-font-specification:'Source Sans Pro'" id="tspan2894" font-family="Source Sans Pro">Machine 1</tspan></text><path clip-path="url(#clipPath2)" id="rect1298" fill="none" stroke-dasharray="6,2" d="M380 385.92h135v42.16H380z"/></g><g transform="translate(-315 -181)" id="g1304" fill="#d8d8ff" stroke="#d8d8ff" shape-rendering="geometricPrecision" text-rendering="geometricPrecision"><path clip-path="url(#clipPath2)" id="rect1302" stroke="none" fill="#8719cb" d="M481.5 335.92h135v42.16h-135z"/></g><g stroke-miterlimit="1.45" transform="translate(-315 -181)" id="g1310" font-family="sans-serif" stroke-linecap="butt" shape-rendering="geometricPrecision" text-rendering="geometricPrecision"><text x="555.135" y="353.985" clip-path="url(#clipPath2)" id="text1306" fill="#fff" stroke="none"><tspan style="-inkscape-font-specification:'Source Sans Pro'" id="tspan2892" font-family="Source Sans Pro">Machine 2</tspan></text><path clip-path="url(#clipPath2)" id="rect1308" fill="none" stroke-dasharray="6,2" d="M481.5 335.92h135v42.16h-135z"/></g><g transform="translate(-315 -181)" id="g1314" fill="#d8d8ff" stroke="#d8d8ff" shape-rendering="geometricPrecision" text-rendering="geometricPrecision"><path clip-path="url(#clipPath2)" id="rect1312" stroke="none" fill="#8719cb" d="M343 335.92h135v42.16H343z"/></g><g stroke-miterlimit="1.45" transform="translate(-315 -181)" id="g1320" font-family="sans-serif" stroke-linecap="butt" shape-rendering="geometricPrecision" text-rendering="geometricPrecision"><text x="349" y="353.985" clip-path="url(#clipPath2)" id="text1316" stroke="none" fill="#fff"><tspan style="-inkscape-font-specification:'Source Sans Pro'" id="tspan2890" font-family="Source Sans Pro">Machine 1</tspan></text><path clip-path="url(#clipPath2)" id="rect1318" fill="none" stroke-dasharray="6,2" d="M343 335.92h135v42.16H343z"/></g><g transform="translate(-315 -181)" id="g1324" fill="#d8d8ff" stroke="#d8d8ff" shape-rendering="geometricPrecision" text-rendering="geometricPrecision"><path clip-path="url(#clipPath2)" id="rect1322" stroke="none" fill="#8719cb" d="M380 285.92h135v42.16H380z"/></g><g stroke-miterlimit="1.45" transform="translate(-315 -181)" id="g1330" font-family="sans-serif" stroke-linecap="butt" shape-rendering="geometricPrecision" text-rendering="geometricPrecision"><text x="386" y="303.985" clip-path="url(#clipPath2)" id="text1326" stroke="none" fill="#fff"><tspan style="-inkscape-font-specification:'Source Sans Pro'" id="tspan2888" font-family="Source Sans Pro">Machine 1</tspan></text><path clip-path="url(#clipPath2)" id="rect1328" fill="none" stroke-dasharray="6,2" d="M380 285.92h135v42.16H380z"/></g><g transform="translate(-315 -181)" id="g1334" fill="#f93" stroke="#f93" shape-rendering="geometricPrecision" text-rendering="geometricPrecision"><rect x="415.06" y="347" clip-path="url(#clipPath2)" width="60" rx="4" ry="4" height="20" id="rect1332" stroke="none" fill="#f89c31"/></g><g stroke-miterlimit="1.45" transform="translate(-315 -181)" id="g1338" stroke-linecap="butt" shape-rendering="geometricPrecision" text-rendering="geometricPrecision"><rect x="415.06" y="347" clip-path="url(#clipPath2)" width="60" rx="4" ry="4" height="20" id="rect1336" fill="none"/></g><g transform="translate(-315 -181)" id="g1342" fill="#f93" stroke="#f93" shape-rendering="geometricPrecision" text-rendering="geometricPrecision"><rect x="450" y="397" clip-path="url(#clipPath2)" width="60" rx="4" ry="4" height="20" id="rect1340" stroke="none" fill="#f89c31"/></g><g stroke-miterlimit="1.45" transform="translate(-315 -181)" id="g1346" stroke-linecap="butt" shape-rendering="geometricPrecision" text-rendering="geometricPrecision"><rect x="450" y="397" clip-path="url(#clipPath2)" width="60" rx="4" ry="4" height="20" id="rect1344" fill="none"/></g><g transform="translate(-315 -181)" id="g1350" fill="#f93" stroke="#f93" shape-rendering="geometricPrecision" text-rendering="geometricPrecision"><rect x="484.48" y="347" clip-path="url(#clipPath2)" width="60" rx="4" ry="4" height="20" id="rect1348" stroke="none" fill="#f89c31"/></g><g stroke-miterlimit="1.45" transform="translate(-315 -181)" id="g1354" stroke-linecap="butt" shape-rendering="geometricPrecision" text-rendering="geometricPrecision"><rect x="484.48" y="347" clip-path="url(#clipPath2)" width="60" rx="4" ry="4" height="20" id="rect1352" fill="none"/></g><g transform="translate(-315 -181)" id="g1358" fill="#f93" stroke="#f93" shape-rendering="geometricPrecision" text-rendering="geometricPrecision"><rect x="450" y="297" clip-path="url(#clipPath2)" width="60" rx="4" ry="4" height="20" id="rect1356" stroke="none" fill="#f89c31"/></g><g stroke-miterlimit="1.45" transform="translate(-315 -181)" id="g1362" stroke-linecap="butt" shape-rendering="geometricPrecision" text-rendering="geometricPrecision"><rect x="450" y="297" clip-path="url(#clipPath2)" width="60" rx="4" ry="4" height="20" id="rect1360" fill="none"/></g><g transform="translate(-315 -181)" id="g1366" fill="#f93" stroke="#f93" shape-rendering="geometricPrecision" text-rendering="geometricPrecision"><rect x="696.56" y="281.5" clip-path="url(#clipPath2)" width="30" rx="4" ry="4" height="10" id="rect1364" stroke="none" fill="#f89c31"/></g><g stroke-miterlimit="1.45" transform="translate(-315 -181)" id="g1370" stroke-linecap="butt" shape-rendering="geometricPrecision" text-rendering="geometricPrecision"><rect x="696.56" y="281.5" clip-path="url(#clipPath2)" width="30" rx="4" ry="4" height="10" id="rect1368" fill="none"/></g><g transform="translate(-315 -181)" id="g1374" fill="#f93" stroke="#f93" shape-rendering="geometricPrecision" text-rendering="geometricPrecision"><rect x="716.14" y="306.5" clip-path="url(#clipPath2)" width="30" rx="4" ry="4" height="10" id="rect1372" stroke="none"/></g><g stroke-miterlimit="1.45" transform="translate(-315 -181)" id="g1378" stroke-linecap="butt" shape-rendering="geometricPrecision" text-rendering="geometricPrecision"><rect x="716.14" y="306.5" clip-path="url(#clipPath2)" width="30" rx="4" ry="4" height="10" id="rect1376" fill="#f89c31"/></g><g transform="translate(-315 -181)" id="g1382" fill="#f93" stroke="#f93" shape-rendering="geometricPrecision" text-rendering="geometricPrecision"><rect x="733.724" y="281.5" clip-path="url(#clipPath2)" width="30" rx="4" ry="4" height="10" id="rect1380" stroke="none"/></g><g stroke-miterlimit="1.45" transform="translate(-315 -181)" id="g1386" stroke-linecap="butt" shape-rendering="geometricPrecision" text-rendering="geometricPrecision"><rect x="733.724" y="281.5" clip-path="url(#clipPath2)" width="30" rx="4" ry="4" height="10" id="rect1384" fill="#f89c31"/></g><g transform="translate(-315 -181)" id="g1390" fill="#f93" stroke="#f93" shape-rendering="geometricPrecision" text-rendering="geometricPrecision"><rect x="716.14" y="256.5" clip-path="url(#clipPath2)" width="30" rx="4" ry="4" height="10" id="rect1388" stroke="none" fill="#f89c31"/></g><g stroke-miterlimit="1.45" transform="translate(-315 -181)" id="g1394" stroke-linecap="butt" shape-rendering="geometricPrecision" text-rendering="geometricPrecision"><rect x="716.14" y="256.5" clip-path="url(#clipPath2)" width="30" rx="4" ry="4" height="10" id="rect1392" fill="none"/></g><g transform="translate(-315 -181)" id="g1398" fill="#f93" stroke="#f93" shape-rendering="geometricPrecision" text-rendering="geometricPrecision"><rect x="795.562" y="282" clip-path="url(#clipPath2)" width="30" rx="4" ry="4" height="10" id="rect1396" stroke="none"/></g><g stroke-miterlimit="1.45" transform="translate(-315 -181)" id="g1402" stroke-linecap="butt" shape-rendering="geometricPrecision" text-rendering="geometricPrecision"><rect x="795.562" y="282" clip-path="url(#clipPath2)" width="30" rx="4" ry="4" height="10" id="rect1400" fill="#f89c31"/></g><g transform="translate(-315 -181)" id="g1406" fill="#f93" stroke="#f93" shape-rendering="geometricPrecision" text-rendering="geometricPrecision"><rect x="815.142" y="307" clip-path="url(#clipPath2)" width="30" rx="4" ry="4" height="10" id="rect1404" stroke="none" fill="#f89c31"/></g><g stroke-miterlimit="1.45" transform="translate(-315 -181)" id="g1410" stroke-linecap="butt" shape-rendering="geometricPrecision" text-rendering="geometricPrecision"><rect x="815.142" y="307" clip-path="url(#clipPath2)" width="30" rx="4" ry="4" height="10" id="rect1408" fill="none"/></g><g transform="translate(-315 -181)" id="g1414" fill="#f93" stroke="#f93" shape-rendering="geometricPrecision" text-rendering="geometricPrecision"><rect x="832.726" y="282" clip-path="url(#clipPath2)" width="30" rx="4" ry="4" height="10" id="rect1412" stroke="none" fill="#f89c31"/></g><g stroke-miterlimit="1.45" transform="translate(-315 -181)" id="g1418" stroke-linecap="butt" shape-rendering="geometricPrecision" text-rendering="geometricPrecision"><rect x="832.726" y="282" clip-path="url(#clipPath2)" width="30" rx="4" ry="4" height="10" id="rect1416" fill="none"/></g><g transform="translate(-315 -181)" id="g1422" fill="#f93" stroke="#f93" shape-rendering="geometricPrecision" text-rendering="geometricPrecision"><rect x="815.142" y="257" clip-path="url(#clipPath2)" width="30" rx="4" ry="4" height="10" id="rect1420" stroke="none" fill="#f89c31"/></g><g stroke-miterlimit="1.45" transform="translate(-315 -181)" id="g1426" stroke-linecap="butt" shape-rendering="geometricPrecision" text-rendering="geometricPrecision"><rect x="815.142" y="257" clip-path="url(#clipPath2)" width="30" rx="4" ry="4" height="10" id="rect1424" fill="none"/></g><g transform="translate(-315 -181)" id="g1430" fill="#f93" stroke="#f93" shape-rendering="geometricPrecision" text-rendering="geometricPrecision"><rect x="695.562" y="402" clip-path="url(#clipPath2)" width="30" rx="4" ry="4" height="10" id="rect1428" stroke="none" fill="#f89c31"/></g><g stroke-miterlimit="1.45" transform="translate(-315 -181)" id="g1434" stroke-linecap="butt" shape-rendering="geometricPrecision" text-rendering="geometricPrecision"><rect x="695.562" y="402" clip-path="url(#clipPath2)" width="30" rx="4" ry="4" height="10" id="rect1432" fill="none"/></g><g transform="translate(-315 -181)" id="g1438" fill="#f93" stroke="#f93" shape-rendering="geometricPrecision" text-rendering="geometricPrecision"><rect x="715.142" y="427" clip-path="url(#clipPath2)" width="30" rx="4" ry="4" height="10" id="rect1436" stroke="none" fill="#f89c31"/></g><g stroke-miterlimit="1.45" transform="translate(-315 -181)" id="g1442" stroke-linecap="butt" shape-rendering="geometricPrecision" text-rendering="geometricPrecision"><rect x="715.142" y="427" clip-path="url(#clipPath2)" width="30" rx="4" ry="4" height="10" id="rect1440" fill="none"/></g><g transform="translate(-315 -181)" id="g1446" fill="#f93" stroke="#f93" shape-rendering="geometricPrecision" text-rendering="geometricPrecision"><rect x="732.726" y="402" clip-path="url(#clipPath2)" width="30" rx="4" ry="4" height="10" id="rect1444" stroke="none" fill="#f89c31"/></g><g stroke-miterlimit="1.45" transform="translate(-315 -181)" id="g1450" stroke-linecap="butt" shape-rendering="geometricPrecision" text-rendering="geometricPrecision"><rect x="732.726" y="402" clip-path="url(#clipPath2)" width="30" rx="4" ry="4" height="10" id="rect1448" fill="none"/></g><g transform="translate(-315 -181)" id="g1454" fill="#f93" stroke="#f93" shape-rendering="geometricPrecision" text-rendering="geometricPrecision"><rect x="715.142" y="377" clip-path="url(#clipPath2)" width="30" rx="4" ry="4" height="10" id="rect1452" stroke="none" fill="#f89c31"/></g><g stroke-miterlimit="1.45" transform="translate(-315 -181)" id="g1458" stroke-linecap="butt" shape-rendering="geometricPrecision" text-rendering="geometricPrecision"><rect x="715.142" y="377" clip-path="url(#clipPath2)" width="30" rx="4" ry="4" height="10" id="rect1456" fill="none"/></g><g transform="translate(-315 -181)" id="g1462" fill="#f93" stroke="#f93" shape-rendering="geometricPrecision" text-rendering="geometricPrecision"><rect x="796.56" y="402" clip-path="url(#clipPath2)" width="30" rx="4" ry="4" height="10" id="rect1460" stroke="none" fill="#f89c31"/></g><g stroke-miterlimit="1.45" transform="translate(-315 -181)" id="g1466" stroke-linecap="butt" shape-rendering="geometricPrecision" text-rendering="geometricPrecision"><rect x="796.56" y="402" clip-path="url(#clipPath2)" width="30" rx="4" ry="4" height="10" id="rect1464" fill="none"/></g><g transform="translate(-315 -181)" id="g1470" fill="#f93" stroke="#f93" shape-rendering="geometricPrecision" text-rendering="geometricPrecision"><rect x="816.14" y="427" clip-path="url(#clipPath2)" width="30" rx="4" ry="4" height="10" id="rect1468" stroke="none" fill="#f89c31"/></g><g stroke-miterlimit="1.45" transform="translate(-315 -181)" id="g1474" stroke-linecap="butt" shape-rendering="geometricPrecision" text-rendering="geometricPrecision"><rect x="816.14" y="427" clip-path="url(#clipPath2)" width="30" rx="4" ry="4" height="10" id="rect1472" fill="none"/></g><g transform="translate(-315 -181)" id="g1478" fill="#f93" stroke="#f93" shape-rendering="geometricPrecision" text-rendering="geometricPrecision"><rect x="833.724" y="402" clip-path="url(#clipPath2)" width="30" rx="4" ry="4" height="10" id="rect1476" stroke="none" fill="#f89c31"/></g><g stroke-miterlimit="1.45" transform="translate(-315 -181)" id="g1482" stroke-linecap="butt" shape-rendering="geometricPrecision" text-rendering="geometricPrecision"><rect x="833.724" y="402" clip-path="url(#clipPath2)" width="30" rx="4" ry="4" height="10" id="rect1480" fill="none"/></g><g transform="translate(-315 -181)" id="g1486" fill="#f93" stroke="#f93" shape-rendering="geometricPrecision" text-rendering="geometricPrecision"><rect x="816.14" y="377" clip-path="url(#clipPath2)" width="30" rx="4" ry="4" height="10" id="rect1484" stroke="none" fill="#f89c31"/></g><g stroke-miterlimit="1.45" transform="translate(-315 -181)" id="g1574" stroke-linecap="butt" shape-rendering="geometricPrecision" text-rendering="geometricPrecision"><rect x="816.14" y="377" clip-path="url(#clipPath2)" width="30" rx="4" ry="4" height="10" id="rect1488" fill="none"/><text x="416.867" font-size="16" y="218.349" clip-path="url(#clipPath2)" id="text1490" font-family="Arial" stroke="none"><tspan style="-inkscape-font-specification:'Cerebri Sans'" id="tspan2904" font-family="Cerebri Sans">Model Parallelism</tspan></text><text x="721.758" font-size="16" y="217.309" clip-path="url(#clipPath2)" id="text1492" font-family="Arial" stroke="none"><tspan style="-inkscape-font-specification:'Cerebri Sans'" id="tspan2906" font-family="Cerebri Sans">Data Parallelism</tspan></text><path d="M473.022 397.015l-16.416-23.493" clip-path="url(#clipPath2)" id="path1494" fill="none"/><path d="M452.023 366.965l2.775 12.7 2.38-5.323 5.817-.405z" clip-path="url(#clipPath2)" id="path1496" stroke="none"/><path d="M486.886 397.015l16.18-23.465" clip-path="url(#clipPath2)" id="path1498" fill="none"/><path d="M507.608 366.965l-10.928 7.04 5.82.369 2.412 5.308z" clip-path="url(#clipPath2)" id="path1500" stroke="none"/><path d="M452.038 347.015l16.416-23.493" clip-path="url(#clipPath2)" id="path1502" fill="none"/><path d="M473.037 316.965l-10.972 6.972 5.817.405 2.38 5.323z" clip-path="url(#clipPath2)" id="path1504" stroke="none"/><path d="M507.594 347.015l-16.18-23.465" clip-path="url(#clipPath2)" id="path1506" fill="none"/><path d="M486.872 316.965l2.696 12.717 2.413-5.308 5.82-.37z" clip-path="url(#clipPath2)" id="path1508" stroke="none"/><path d="M727.22 306.495l-9.248-11.808" clip-path="url(#clipPath2)" id="path1510" fill="none"/><path d="M715.506 291.538l.209 9.998 2.874-6.062 6.573-1.338z" clip-path="url(#clipPath2)" id="path1512" stroke="none"/><path d="M734.66 306.495l8.22-11.685" clip-path="url(#clipPath2)" id="path1514" fill="none"/><path d="M745.18 291.538l-9.51 3.091 6.634.998 3.182 5.906z" clip-path="url(#clipPath2)" id="path1516" stroke="none"/><path d="M715.48 281.495l9.248-11.808" clip-path="url(#clipPath2)" id="path1518" fill="none"/><path d="M727.194 266.538l-9.656 2.598 6.573 1.338 2.874 6.062z" clip-path="url(#clipPath2)" id="path1520" stroke="none"/><path d="M745.204 281.495l-8.22-11.685" clip-path="url(#clipPath2)" id="path1522" fill="none"/><path d="M734.683 266.538l-.305 9.995 3.182-5.905 6.634-.998z" clip-path="url(#clipPath2)" id="path1524" stroke="none"/><path d="M826.222 306.995l-9.248-11.808" clip-path="url(#clipPath2)" id="path1526" fill="none"/><path d="M814.508 292.038l.209 9.998 2.874-6.062 6.573-1.337z" clip-path="url(#clipPath2)" id="path1528" stroke="none"/><path d="M833.662 306.995l8.22-11.685" clip-path="url(#clipPath2)" id="path1530" fill="none"/><path d="M844.183 292.038l-9.51 3.091 6.633.998 3.182 5.906z" clip-path="url(#clipPath2)" id="path1532" stroke="none"/><path d="M814.482 281.995l9.248-11.808" clip-path="url(#clipPath2)" id="path1534" fill="none"/><path d="M826.196 267.038l-9.656 2.598 6.573 1.338 2.874 6.062z" clip-path="url(#clipPath2)" id="path1536" stroke="none"/><path d="M844.206 281.995l-8.22-11.685" clip-path="url(#clipPath2)" id="path1538" fill="none"/><path d="M833.685 267.038l-.305 9.995 3.182-5.905 6.633-.998z" clip-path="url(#clipPath2)" id="path1540" stroke="none"/><path d="M726.222 426.995l-9.248-11.808" clip-path="url(#clipPath2)" id="path1542" fill="none"/><path d="M714.508 412.038l.209 9.998 2.874-6.062 6.573-1.337z" clip-path="url(#clipPath2)" id="path1544" stroke="none"/><path d="M733.662 426.995l8.22-11.685" clip-path="url(#clipPath2)" id="path1546" fill="none"/><path d="M744.183 412.038l-9.51 3.091 6.633.998 3.182 5.906z" clip-path="url(#clipPath2)" id="path1548" stroke="none"/><path d="M714.482 401.995l9.248-11.808" clip-path="url(#clipPath2)" id="path1550" fill="none"/><path d="M726.196 387.038l-9.656 2.598 6.573 1.338 2.874 6.062z" clip-path="url(#clipPath2)" id="path1552" stroke="none"/><path d="M744.206 401.995l-8.22-11.685" clip-path="url(#clipPath2)" id="path1554" fill="none"/><path d="M733.685 387.038l-.305 9.995 3.182-5.905 6.633-.998z" clip-path="url(#clipPath2)" id="path1556" stroke="none"/><path d="M827.22 426.995l-9.248-11.808" clip-path="url(#clipPath2)" id="path1558" fill="none"/><path d="M815.506 412.038l.209 9.998 2.874-6.062 6.573-1.338z" clip-path="url(#clipPath2)" id="path1560" stroke="none"/><path d="M834.66 426.995l8.22-11.685" clip-path="url(#clipPath2)" id="path1562" fill="none"/><path d="M845.18 412.038l-9.51 3.091 6.634.998 3.182 5.906z" clip-path="url(#clipPath2)" id="path1564" stroke="none"/><path d="M815.48 401.995l9.248-11.808" clip-path="url(#clipPath2)" id="path1566" fill="none"/><path d="M827.194 387.038l-9.656 2.598 6.573 1.338 2.874 6.062z" clip-path="url(#clipPath2)" id="path1568" stroke="none"/><path d="M845.204 401.995l-8.22-11.685" clip-path="url(#clipPath2)" id="path1570" fill="none"/><path d="M834.683 387.038l-.305 9.995 3.182-5.905 6.634-.998z" clip-path="url(#clipPath2)" id="path1572" stroke="none"/></g></g></svg>