<svg xmlns="http://www.w3.org/2000/svg" version="1.2" width="521.31" height="303.458" viewBox="0 0 13792.999 8029" preserveAspectRatio="xMidYMid" fill-rule="evenodd" stroke-width="28.222" stroke-linejoin="round"><defs class="ClipPathGroup"><style>@import url(../fonts/Source_Sans_Pro/font.css);</style><clipPath id="a"><path d="M0 0h21000v29700H0z"/></clipPath></defs><g class="SlideGroup"><g class="Slide" clip-path="url(#a)" transform="translate(-4631 -3132)"><g class="Page"><g class="com.sun.star.drawing.LineShape"><path class="BoundingBox" fill="none" d="M4809 9790h12702v201H4809z"/><path d="M4810 9890h12434" fill="none" stroke="#fff"/><path d="M17246 9969l-15 21 279-100-279-100 15 20 12 24 8 26 3 29-3 28-8 27z" fill="#fff"/></g><g class="com.sun.star.drawing.CustomShape"><path class="BoundingBox" fill="none" d="M7349 4809h1273v5083H7349z"/><path d="M7985 9890h-635V4810h1270v5080z" fill="#8719cb"/><path d="M7985 9890h-635V4810h1270v5080z" fill="none" stroke="#8719cb"/></g><g class="com.sun.star.drawing.CustomShape"><path class="BoundingBox" fill="none" d="M9889 5443h1273v4448H9889z"/><path d="M10525 9889h-635V5444h1270v4445z" fill="#8719cb"/><path d="M10525 9889h-635V5444h1270v4445z" fill="none" stroke="#8719cb"/></g><g class="com.sun.star.drawing.CustomShape"><path class="BoundingBox" fill="none" d="M12429 4809h1273v5083h-1273z"/><path d="M13065 9890h-635V4810h1270v5080z" fill="#8719cb"/><path d="M13065 9890h-635V4810h1270v5080z" fill="none" stroke="#8719cb"/></g><g class="com.sun.star.drawing.CustomShape"><path class="BoundingBox" fill="none" d="M14969 4173h1273v5718h-1273z"/><path d="M15605 9889h-635V4174h1270v5715z" fill="#8719cb"/><path d="M15605 9889h-635V4174h1270v5715z" fill="none" stroke="#8719cb"/></g><g class="com.sun.star.drawing.CustomShape"><path class="BoundingBox" fill="none" d="M7350 9890h1271v1271H7350z"/><text class="TextShape" fill="#fff"><tspan class="TextParagraph" font-size="635" font-weight="400" font-family="'Source Sans Pro',sans-serif"><tspan class="TextPosition" x="7826" y="10752"><tspan>1</tspan></tspan></tspan></text></g><g class="com.sun.star.drawing.CustomShape"><path class="BoundingBox" fill="none" d="M9890 9890h1271v1271H9890z"/><text class="TextShape" fill="#fff"><tspan class="TextParagraph" font-size="635" font-weight="400" font-family="'Source Sans Pro',sans-serif"><tspan class="TextPosition" x="10366" y="10752"><tspan>2</tspan></tspan></tspan></text></g><g class="com.sun.star.drawing.CustomShape"><path class="BoundingBox" fill="none" d="M12430 9890h1271v1271h-1271z"/><text class="TextShape" fill="#fff"><tspan class="TextParagraph" font-size="635" font-weight="400" font-family="'Source Sans Pro',sans-serif"><tspan class="TextPosition" x="12906" y="10752"><tspan>3</tspan></tspan></tspan></text></g><g class="com.sun.star.drawing.CustomShape"><path class="BoundingBox" fill="none" d="M14970 9890h1271v1271h-1271z"/><text class="TextShape" fill="#fff"><tspan class="TextParagraph" font-size="635" font-weight="400" font-family="'Source Sans Pro',sans-serif"><tspan class="TextPosition" x="15446" y="10752"><tspan>4</tspan></tspan></tspan></text></g><g class="com.sun.star.drawing.LineShape"><path class="BoundingBox" fill="none" d="M6079 5444h3940v3H6079z"/><path d="M9911 5445h-53M9805 5445h-53M9698 5445h-53M9592 5445h-53M9486 5445h-53M9380 5445h-53M9274 5445h-53M9168 5445h-54M9061 5445h-53M8955 5445h-53M8849 5445h-53M8743 5445h-53M8637 5445h-53M8530 5445h-53M8424 5445h-53M8318 5445h-53M8212 5445h-53M8106 5445h-53M8000 5445h-54M7893 5445h-53M7787 5445h-53M7681 5445h-53M7575 5445h-53M7469 5445h-53M7362 5445h-53M7256 5445h-53M7150 5445h-53M7044 5445h-53M6938 5445h-53M6832 5445h-54M6725 5445h-53M6619 5445h-53M6513 5445h-53M6407 5445h-53M6301 5445h-53M6194 5445h-53M6088 5445h-8" fill="none" stroke="#fff"/></g><g class="com.sun.star.drawing.LineShape"><path class="BoundingBox" fill="none" d="M6079 4809h2543v3H6079z"/><path d="M8620 4810h-53M8514 4810h-53M8408 4810h-53M8301 4810h-53M8195 4810h-53M8089 4810h-53M7983 4810h-53M7877 4810h-53M7771 4810h-54M7664 4810h-53M7558 4810h-53M7452 4810h-53M7346 4810h-53M7240 4810h-53M7133 4810h-53M7027 4810h-53M6921 4810h-53M6815 4810h-53M6709 4810h-53M6603 4810h-54M6496 4810h-53M6390 4810h-53M6284 4810h-53M6178 4810h-53" fill="none" stroke="#fff"/></g><g class="com.sun.star.drawing.LineShape"><path class="BoundingBox" fill="none" d="M6079 4809h3v638h-3z"/><path d="M6080 4810v53M6080 4916v53M6080 5022v53M6080 5129v53M6080 5235v53M6080 5341v53" fill="none" stroke="#fff"/></g><g class="com.sun.star.drawing.LineShape"><path class="BoundingBox" fill="none" d="M5980 4174h201v637h-201z"/><path d="M6080 4175v53M6080 4281v53M6080 4387v53M6080 4494v50" fill="none" stroke="#fff"/><path d="M6001 4546l-21-15 100 279 100-279-20 15-24 12-26 8-29 3-28-3-27-8z" fill="#fff"/></g><g class="com.sun.star.drawing.LineShape"><path class="BoundingBox" fill="none" d="M5980 5445h201v637h-201z"/><path d="M6080 6080v-53" fill="none" stroke="#fff"/><path d="M6080 5974v-53" fill="none" stroke="#ff0"/><path d="M6080 5868v-53M6080 5761v-50" fill="none" stroke="#fff"/><path d="M6159 5709l21 15-100-279-100 279 20-15 24-12 26-8 29-3 28 3 27 8z" fill="#fff"/></g><g class="com.sun.star.drawing.TextShape"><path class="BoundingBox" fill="none" d="M4631 4581h1663v1053H4631z"/><text class="TextShape" fill="#fff"><tspan class="TextParagraph" font-size="635" font-weight="400" font-family="'Source Sans Pro',sans-serif"><tspan class="TextPosition" x="4881" y="5333"><tspan>10%</tspan></tspan></tspan></text></g><g class="com.sun.star.drawing.TextShape"><path class="BoundingBox" fill="none" d="M16494 9981h1930v1053h-1930z"/><text class="TextShape" fill="#fff"><tspan class="TextParagraph" font-size="635" font-weight="400" font-family="'Source Sans Pro',sans-serif"><tspan class="TextPosition" x="16744" y="10733"><tspan>Nodes</tspan></tspan></tspan></text></g><g class="com.sun.star.drawing.LineShape"><path class="BoundingBox" fill="none" d="M4710 3540h201v6352h-201z"/><path d="M4810 9890V3806" fill="none" stroke="#fff"/><path d="M4889 3804l21 15-100-279-100 279 20-15 24-12 26-8 29-3 28 3 27 8z" fill="#fff"/></g><g class="com.sun.star.drawing.TextShape"><path class="BoundingBox" fill="none" d="M4737 3132h4618v1053H4737z"/><text class="TextShape" fill="#fff"><tspan class="TextParagraph" font-size="635" font-weight="400" font-family="'Source Sans Pro',sans-serif"><tspan class="TextPosition" x="4987" y="3884"><tspan>Time per epoch</tspan></tspan></tspan></text></g></g></g></g></svg>