<svg xmlns="http://www.w3.org/2000/svg" viewBox="0 0 778.02539 599.776" height="599.776" width="778.025"><path d="M168.886 598.566c-3.7-2.111-7.045-9.83-7.614-17.566-.424-5.767-1.885-10.934-6.869-24.296-.778-2.088-1.694-9.063-2.034-15.5l-.62-11.704 4.63-6.137c2.547-3.376 4.63-6.396 4.63-6.712 0-.316-1.772-1.051-3.94-1.635-5.998-1.615-6.694-7.882-1.497-13.489 3.066-3.308 3.047-3.526-.313-3.53-3.897-.006-8.268-2.97-11.714-7.944-2.634-3.802-2.942-5.018-2.767-10.916.108-3.65.716-7.892 1.351-9.426 1.005-2.425.788-3.464-1.654-7.95-1.545-2.84-6.016-13.96-9.936-24.712l-7.126-19.549-6.615.332c-6.595.331-6.633.317-12.452-4.433-3.21-2.62-10.311-7.672-15.78-11.227-5.47-3.554-11.995-8.487-14.5-10.963-2.506-2.475-8.023-6.933-12.26-9.906-9.353-6.562-11.624-9.168-16.157-18.539-1.937-4.005-6.232-10.312-9.574-14.06-3.334-3.737-6.715-8.058-7.514-9.603-.798-1.545-3.532-9.962-6.075-18.705-4.68-16.094-8.088-23.64-13.95-30.896-7.162-8.866-8.086-14.084-5.547-31.323 1.143-7.76 1.084-8.666-.877-13.383-2.317-5.577-2.843-15.543-1-18.985.606-1.133 2.597-4.018 4.424-6.412 4.446-5.825 5.91-13.17 5.067-25.431-.603-8.767-.467-9.894 1.688-14 1.652-3.146 4.37-5.867 9.201-9.206 7.77-5.37 13.363-12.56 15.966-20.522 2.37-7.248 9.897-15.23 19.691-20.88 5.411-3.12 10.982-7.68 18.09-14.808 10.988-11.017 14.746-13.452 24.77-16.05 8.132-2.107 12.183-4.198 20.539-10.603 7.954-6.097 15.922-8.91 25.961-9.166 5.55-.141 7.876.285 11.229 2.055C163.489 83.823 174.499 86 184.107 86c8.71 0 12.65 1.22 17.7 5.478 1.814 1.53 6.381 4.258 10.15 6.064 6.474 3.103 7.293 3.252 14.935 2.729 8.842-.606 15.277 1.038 18.65 4.765.991 1.095 3.065 1.964 4.688 1.964 1.601 0 3.868.512 5.037 1.138 1.277.683 6.446 1.071 12.947.971 6.292-.096 11.757.3 13.058.948 1.23.612 4.262 3.323 6.737 6.024l4.5 4.912 8.5-4.106c11.587-5.597 19.846-8.65 29.778-11.01 6.853-1.627 8.896-2.573 11.196-5.184a251.47 251.47 0 0 1 5.92-6.434c1.708-1.782 3.106-3.92 3.106-4.75 0-2.34-6.994-1.896-15.594.991-4.096 1.375-7.663 2.5-7.927 2.5-.962 0-.427-3.15 1.911-11.235 3.191-11.038 5.596-29.65 6.428-49.753.57-13.76.94-16.538 2.236-16.786.855-.163 4.596 2.006 8.315 4.82 9.748 7.38 12.6 5.428 8.68-5.942-1.252-3.632-2.113-7.729-1.913-9.104l.364-2.5 14 .5c25.733.919 44.491.432 51.812-1.346C423.068.744 427.287 0 428.696 0c2.318 0 2.506.289 1.96 3.016-.787 3.934-5.306 13.457-7.089 14.936-.766.636-3.298 4.08-5.626 7.652-5.537 8.5-4.415 10.038 3.74 5.125 9.205-5.545 23.707-12.487 25.078-12.003 1.575.555 1.612 7.768.102 19.774-.622 4.95-1.181 18.9-1.242 31l-.11 22-2.981.339c-3.866.439-9.824-1.376-14.77-4.498-7.039-4.443-9.046-.54-3.71 7.214 3.63 5.276 5.57 6.445 10.703 6.445 4.322 0 21.804 3.112 30.258 5.387 7.065 1.9 13.596 4.834 17.953 8.065l3.453 2.56 4.047-8.256c3.35-6.835 4.881-8.813 8.89-11.492 7.532-5.034 11.83-5.84 19.964-3.743 9.28 2.391 22.158 1.674 26.413-1.472 3.538-2.616 8.957-3.993 15.84-4.025 7.012-.033 20.75-3.677 27.805-7.375 5.112-2.68 6.841-3.072 13.015-2.95 3.916.077 9.09.852 11.496 1.72 3.276 1.184 8.256 1.581 19.816 1.581 15.925 0 17.407.3 22.533 4.563C659.352 88.155 670.607 91 677.745 91c6.93 0 12.853 3.327 17.94 10.077 3.382 4.488 5.794 6.393 12.342 9.75 4.476 2.295 9.246 4.173 10.6 4.173 3.642 0 9.21 3.212 15.132 8.73 4.214 3.925 5.25 5.52 5.25 8.08 0 1.755.346 3.19.769 3.19.423 0 2.74 3.14 5.148 6.98 2.409 3.838 5.178 7.233 6.154 7.542 2.51.797 8.861 8.07 10.527 12.056.771 1.847 1.408 5.735 1.415 8.64.017 7.12 4.294 20.069 8.537 25.85 7.29 9.931 8.191 17.561 3.833 32.475-2.354 8.058-2.563 10.088-2.081 20.223.566 11.897-.757 19.162-5.485 30.138-1.088 2.528-2.406 8.871-2.927 14.096-.522 5.225-1.822 12.425-2.89 16-2.998 10.03-3.949 15.027-3.975 20.89-.024 5.293-.14 5.502-6.466 11.736-3.543 3.491-9.24 10.291-12.662 15.11-3.42 4.82-9.634 12.541-13.808 17.158-18.58 20.552-23.733 25.396-35.589 33.452l-12 8.154-7.941.118-7.942.118-2.286 9.32c-1.69 6.89-3.791 11.944-8.058 19.382-5.462 9.521-8.335 12.193-9.06 8.426-.173-.9 1.555-6.3 3.84-12 4.006-9.986 6.837-19.458 6.912-23.114.073-3.616-2.916-1.402-14.524 10.754-6.567 6.878-15.665 15.765-20.216 19.75-4.552 3.985-9.646 9.36-11.32 11.943-3.839 5.922-9.924 11.454-15.268 13.88-4.86 2.208-21.144 2.672-26.737.763-6.048-2.064-13.486-7.427-14.842-10.7-2.704-6.53 1.745-13.944 11.428-19.042 5.723-3.013 8.54-2.698 12.514 1.402 2.779 2.867 3.056 3.5 1.53 3.5-1.025 0-1.623.24-1.33.533.294.293 2.453.226 4.8-.149l4.267-.682-.561-7.416c-.309-4.08-1.23-8.438-2.048-9.686-3.409-5.203-9.787-10.558-13.908-11.679-4.042-1.099-5.484-1-18.111 1.248-4.38.78-4.38-4.78-.001-28.919.53-2.918.348-3.249-1.774-3.24-3.782.014-12.36 5.526-18.779 12.065-5.738 5.847-14.085 20.16-14.085 24.153 0 .91-.456 1.936-1.013 2.28-1.292.799-16.626-5.08-19.833-7.602-2.882-2.267-5.465-2.44-7.095-.477-.944 1.137-.441 2.867 2.463 8.48 3.202 6.188 3.57 7.623 3.013 11.737-.764 5.635-3.153 9.208-9.289 13.892-6.977 5.328-16.58 7.939-29.246 7.951-9.499.01-11.046-.257-16.23-2.803-3.15-1.547-7.088-4.462-8.75-6.477-2.694-3.27-3.02-4.386-3.02-10.36 0-7.722 1.922-10.862 9.268-15.15 3.51-2.048 5.128-2.382 9.482-1.957 4.652.454 5.25.299 5.247-1.365-.006-3.03-3.657-8.15-7.069-9.914-4.719-2.44-16.296-2.934-22.928-.977-10.39 3.066-9.58 3.217-11.47-2.142-.939-2.664-3.187-8.444-4.995-12.844-3.712-9.034-5.085-13.328-5.996-18.75-.346-2.063-1.186-3.75-1.866-3.75-1.424 0-14.195 16.178-17.173 21.754-1.618 3.032-1.953 5.341-1.756 12.109l.243 8.362-3.243-.585c-9.764-1.76-16.824-1.883-20.974-.366-2.348.858-6.857 1.747-10.018 1.975-6.514.47-7.636 1.122-6.113 3.549 1.096 1.745 2.723 2.428 10.095 4.233 6.356 1.557 9.361 4.63 9.991 10.218.455 4.034.098 5.353-2.58 9.524-4.5 7.013-6.765 8.696-15.145 11.245-14.27 4.343-29.126 3.729-37.167-1.536-5.468-3.58-10.167-13.669-10.26-22.03-.084-7.376.43-8.117 8.429-12.168 8.397-4.252 7.439-5.724-3.95-6.074-11.674-.359-18.063.947-24.338 4.974-6.014 3.86-6.354 3.579-10.53-8.684-9.287-27.272-13.636-32.636-18.059-22.271-2.669 6.255-3.329 10.651-4.01 26.74l-.615 14.468-3.5-.09c-1.925-.048-7.23-.256-11.79-.46-6.559-.294-8.488-.06-9.232 1.12-1.118 1.776.277 3.015 7.522 6.685 11.862 6.007 14.24 9.426 12.475 17.933-1.347 6.487-7.424 13.747-14.441 17.251-4.007 2.002-6.073 2.33-13.871 2.207-10.378-.163-15.29-1.216-18.888-4.046-1.99-1.565-2.736-3.5-3.732-9.675-.997-6.177-1.81-8.282-4.067-10.54-3.324-3.324-8.54-3.783-13.006-1.145-3.643 2.152-4.523 1.457-11.628-9.177-6.18-9.25-8.798-12.5-10.065-12.5-.496 0-2.196-1.35-3.777-3-3.396-3.545-6.5-3.976-6.5-.902 0 1.153 3.67 9.615 8.157 18.804l8.156 16.707 6.77-.055c5.3-.042 7.382.391 9.593 1.998 4.678 3.399 7.475 10.31 8.077 19.959.291 4.669.578 8.484.638 8.478.06-.006 2.36-.7 5.11-1.541 3.807-1.166 67.67-15.448 69.075-15.448.156 0-.759-1.912-2.033-4.25-1.274-2.337-3.1-6.676-4.057-9.642-1.472-4.56-1.562-6.189-.584-10.56 2.55-11.395 9.281-16.632 21.52-16.745 11.239-.105 19.664 3.51 25.249 10.831 2.688 3.525 2.83 4.232 2.83 14.14v10.43l4.5-.667c12.177-1.805 25.951-2.469 51.877-2.501l28.377-.036-4.093-4.44c-5.085-5.517-5.745-8.052-4.133-15.871 1.719-8.338 4.126-12.851 8.845-16.59 7.534-5.966 15.492-7.644 22.454-4.735 4.925 2.057 15.248 12.127 17.767 17.332 2.08 4.297 2.157 5.146 1.142 12.73-.598 4.47-1.233 8.787-1.412 9.596-.275 1.247 4.021 1.65 28.175 2.65 19.889.822 33.109 1.894 43.75 3.55 8.388 1.304 15.25 2.068 15.25 1.697 0-.37-.704-1.259-1.565-1.974-2.417-2.005-4.435-6.522-4.435-9.924 0-3.916 5.255-14.51 9.354-18.859 5.919-6.278 14.716-9.284 21.05-7.194 4.05 1.337 8.674 6.692 11.715 13.567 1.498 3.386 2.068 6.73 2.048 11.996-.03 7.648-1.345 11.51-5.064 14.876-1.156 1.047-2.103 2.21-2.103 2.586 0 1.241 22.14 2.944 46 3.539 12.925.322 24.288.814 25.25 1.094 1.527.444 1.75-.245 1.75-5.387 0-4.904.515-6.674 3.062-10.518 6.511-9.83 12.673-12.742 24.103-11.388 9.577 1.134 14.447 6.546 17.047 18.94 1.514 7.22-.09 12.84-5.092 17.842-3.328 3.328-9.041 5.865-13.242 5.88-1.107.003-1.817 1.227-2.238 3.855-.74 4.628-4.057 9.15-6.712 9.15-1.357 0-1.928.696-1.928 2.35 0 1.294-.5 3.785-1.11 5.537-1.063 3.048-.89 3.42 4 8.59 4.773 5.046 5.11 5.74 5.11 10.503 0 3.062-.77 6.61-1.927 8.878-2.55 5-9.438 11.142-12.494 11.142-3.856 0-5.579 1.052-5.579 3.407 0 1.206-.562 2.776-1.25 3.488-1.005 1.042-.858 1.562.75 2.657 5.318 3.619 5.605 4.06 6.154 9.47.698 6.87-1.221 9.647-9.428 13.646-5.315 2.59-6.77 2.816-20.284 3.149-15.658.386-22.394-.47-57.442-7.293-9.35-1.82-22.85-3.826-30-4.457-7.15-.631-19.075-1.785-26.5-2.564-7.425-.78-20.025-1.914-28-2.522-7.975-.609-19.675-1.84-26-2.736-16.807-2.383-69.44-2.368-88 .025-7.425.957-21.011 2.637-30.192 3.733-17.119 2.043-56.167 10.19-89.308 18.633-14.478 3.688-20.152 4.668-29 5.006-8.534.327-11.588.086-13.623-1.076zm17.623-10.148c2.2-.379 8.95-2.41 15-4.515 13.307-4.63 22.416-6.788 46-10.903 22.548-3.934 26.545-4.753 23.86-4.89-1.176-.06-5.85.594-10.385 1.454s-8.574 1.198-8.974.75c-.4-.448-1.244-2.36-1.876-4.248-1.405-4.2-.532-4.971 5.875-5.187 2.502-.084 3.46-.35 2.156-.597-2.543-.484-12.976.563-37.156 3.728-18.806 2.46-30.01 4.541-36 6.684-5.01 1.792-12.01 6.84-11.98 8.64.01.641 1.376 3.329 3.036 5.972 2.16 3.439 3.505 4.663 4.731 4.303.942-.276 3.513-.812 5.713-1.191zm414.278-7.975c2.928-2.05 3.215-9.842.416-11.34-4.303-2.302-28.453-5.313-53.194-6.63-12.357-.659-70.038-7.984-93.5-11.875-10.212-1.694-35.5-3.932-36.225-3.206-.71.71 4.96 1.435 16.45 2.102 5.623.327 14.173 1.289 19 2.138 12.642 2.223 11.644 2.078 37.216 5.42 12.892 1.686 23.762 3.264 24.156 3.508 1.095.676-1.316 7.587-2.853 8.177-.745.286-4.74-.027-8.88-.694-13.723-2.214-8.615-.435 7.89 2.748 19.771 3.812 24.407 4.5 51.746 7.678a11276.98 11276.98 0 0 1 24.5 2.866c7.017.855 11.183.575 13.278-.892zm-313.048-14.047c-.333-.332-1.195-.368-1.917-.08-.798.32-.56.557.604.605 1.054.043 1.645-.193 1.313-.525zm3.27-.396c0-.55-.198-1-.44-1-.243 0-.72.45-1.06 1-.34.55-.141 1 .441 1 .583 0 1.06-.45 1.06-1zm202.736.403c-.328-.329-5.916-.995-12.416-1.48-6.5-.486-16.995-1.759-23.32-2.829-13.047-2.208-30.036-4.173-34.5-3.991-1.65.067 3.3.942 11 1.943 7.7 1.001 18.5 2.535 24 3.408 14.11 2.238 36.391 4.103 35.236 2.949zm-139.236-5.626c18.872-2.424 27.846-3.088 42-3.105 14.739-.018 16.732-.175 11-.867-3.85-.466-13.75-.724-22-.576l-15 .271-.303-4.16-.303-4.16 7.303-.599c14.755-1.211 15.002-1.396 1.303-.975-17.397.536-32.614 1.868-52 4.551-14.807 2.05-21.772 3.724-9.861 2.37 6.735-.765 7.12-.535 8.374 5.03.901 3.994.175 4.412-7.844 4.517-3.118.04-7.694.45-10.169.909-11.266 2.09 25.696-.405 47.5-3.206zm-5.756-1.367c-.964-.964-.934-6.562.043-8.1.7-1.101 3.244-1.434 10.6-1.387 3.56.022 3.57.033 4.27 4.349.528 3.254.355 3.562-2.293 4.086-6.589 1.303-11.924 1.748-12.62 1.052zm-143.744 1.494c5.225-1.116 19.625-3.53 32-5.366 12.375-1.835 29.025-4.507 37-5.936 18.171-3.258 34.904-5.267 51-6.122 6.875-.366 19.463-1.523 27.972-2.573 18.61-2.294 40.463-2.47 59.028-.477 22.999 2.469 36.444 3.57 43.612 3.571 3.789 0 15.438.937 25.888 2.08 10.45 1.144 24.4 2.461 31 2.929 6.6.467 18.075 1.806 25.5 2.975 7.425 1.17 18.9 2.759 25.5 3.532 6.6.774 18.016 2.827 25.368 4.564 14.936 3.528 14.49 3.642 15.653-3.996l.699-4.585-8.836-8.224c-5.626-5.238-8.48-8.565-7.86-9.16.537-.515 6.151-3.734 12.476-7.153 6.325-3.42 12.063-6.666 12.75-7.213.688-.547 1.25-2.98 1.25-5.405 0-3.616.392-4.554 2.178-5.215 1.753-.648.049-1.5-8.75-4.369-11.218-3.658-15.734-4.47-54.428-9.79-12.375-1.7-29.25-4.165-37.5-5.476-15.447-2.455-46.248-6.439-66.5-8.601-30.47-3.254-120.29.67-161.5 7.053-10.45 1.62-23.95 3.637-30 4.484-23.333 3.266-59.204 8.72-63.5 9.654-8.628 1.876-17.515 5.158-19.71 7.279-2.094 2.024-2.128 2.302-.66 5.312 1.92 3.94 6.54 7.018 16.87 11.242 9.577 3.917 12.5 5.67 12.5 7.495 0 .752-2.362 3.78-5.25 6.729-6.15 6.28-14.209 18.306-13.278 19.812.356.575 1.493 1.046 2.528 1.046 1.036 0 2.16.45 2.5 1 .88 1.423 3.708 1.21 14.5-1.096zm-12.333-1.57c-1.791-1.792-.545-3.26 2.287-2.693 2.12.424 4.836-.29 9.613-2.525 3.662-1.714 7.46-3.116 8.439-3.116.98 0 2.059-.726 2.4-1.613.431-1.126.992-1.315 1.856-.626.681.543 3.376 1.296 5.988 1.674 4.89.708 6.607 2.565 2.373 2.565-1.307 0-8.469 1.575-15.914 3.5-14.065 3.637-15.929 3.947-17.042 2.833zm394.333-6.018c-1.375-.226-6.775-1.25-12-2.273-5.225-1.024-13.454-2.17-18.287-2.546-7.713-.6-8.721-.895-8.24-2.413.38-1.193-.696-2.732-3.461-4.955-2.206-1.773-4.012-3.722-4.012-4.331 0-.61.866-.325 1.923.632 3.475 3.145 8.813 3.027 17.712-.392 4.473-1.718 8.93-4.005 9.905-5.081 2.328-2.574 3.46-2.474 3.46.304 0 1.316-1.282 3.3-3.069 4.75-3.448 2.796-5.284 5.607-4.496 6.883.833 1.348 11.604-1.564 13.038-3.526 1.208-1.651 1.694-1.505 7.161 2.144 7.399 4.94 11.366 8.49 11.366 10.175 0 1.3-5.138 1.594-11 .63zM203.51 549c1.828-2.02 4.5-2.709 4.5-1.16 0 .774-4.305 3.16-5.702 3.16-.334 0 .207-.9 1.202-2zm53-2c.34-.55.817-1 1.06-1 .242 0 .44.45.44 1s-.476 1-1.059 1c-.582 0-.78-.45-.44-1zm-12.5-2c0-.55.45-1 1-1s1 .45 1 1-.45 1-1 1-1-.45-1-1zm-43-.89c0-1.09 5.891-5.552 6.512-4.932.217.218-1.158 1.636-3.058 3.152-1.9 1.515-3.454 2.317-3.454 1.78zm312.55-.994c.523-.486 2.975-.543 5.45-.125l4.5.759-5.45.125c-3.2.073-5.057-.24-4.5-.759zm-287.05-.824c-2.344-.58-8.259-4.868-10.716-7.767-3.546-4.183-.928-14.907 4.726-19.354 3.842-3.022 11.349-2.916 18.164.257 6.174 2.875 8.472 6.03 9.092 12.483.41 4.276.15 5.097-2.402 7.549-4.813 4.623-14.14 8.001-18.864 6.832zm11.428-8.927c2.917-3.709 2.688-8.477-.564-11.729-3.171-3.171-6.546-3.354-10.461-.566-4.11 2.926-5.127 5.21-3.833 8.613 1.823 4.794 3.875 6.317 8.513 6.317 3.424 0 4.684-.523 6.345-2.635zm-9.39-2.668c-1.216-1.855-1.355-3.048-.589-5.062 1.772-4.661 4.885-2.476 4.676 3.282-.154 4.215-1.973 5.007-4.087 1.78zm55.212 11.64c.688-.277 1.813-.277 2.5 0 .688.278.125.505-1.25.505s-1.937-.227-1.25-.504zm6.469-.428c.283-.81 1.544-1.298 2.97-1.147 1.473.155 3.216-.551 4.292-1.74 1.665-1.84 1.911-1.869 3.021-.35 1.723 2.356 4.317 1.006 6.053-3.148 1.41-3.376 1.53-3.439 3.266-1.704.99.99 2.871 2.551 4.18 3.468 1.308.916 2.16 1.884 1.894 2.151-.267.267-5.508.959-11.646 1.538-6.138.578-11.917 1.342-12.841 1.697-1.174.45-1.532.22-1.19-.765zm-41.586-.61c-.417-.417 2.898-7.23 4.107-8.438.42-.42 2.787.152 5.262 1.27l4.498 2.034-3.418 2.88c-2.395 2.02-4.414 2.844-6.745 2.756-1.83-.068-3.497-.294-3.704-.502zm234.367-.405c-3.025-.47-15.4-1.53-27.5-2.355-12.1-.824-24.7-1.97-28-2.547-10.135-1.77-26.002-1.465-68.75 1.317-6.928.45-3.832-1.087 5.5-2.731 12.924-2.278 13.75-2.493 13.75-3.585 0-.533-1.815-1.26-4.034-1.614-3.848-.616-3.957-.73-2.363-2.493 3.255-3.596 7.455-3.393 15.505.75l7.392 3.805 21.5-.185 21.5-.186.317-2.535c.174-1.394.489-2.535.7-2.535.21 0 2.993 1.574 6.183 3.497 4.541 2.738 6.886 3.503 10.8 3.522 2.75.014 6.866.872 9.146 1.907 4.437 2.015 6.354 1.37 6.354-2.14 0-.998 2.356-4.026 5.234-6.729 5.816-5.46 6.535-5.391 9.766.943 1.02 1.999 2.562 4.221 3.427 4.94.866.717 1.573 2.013 1.573 2.878 0 .865 1.21 2.835 2.688 4.377l2.687 2.805-3.937-.125c-2.166-.068-6.413-.51-9.438-.98zm20.652-1.65c-.349-.563 3.821-1.18 10.274-1.52 12.205-.645 14.356-1.531 16.856-6.948.945-2.049 2.324-3.736 3.065-3.75.917-.018.4 1.65-1.62 5.224-2.588 4.582-3.458 5.332-6.846 5.899-8.208 1.371-21.155 2.025-21.73 1.096zm-183.21-1.776c1.067-.807 2.504-1.468 3.192-1.468.689 0 2.853-.944 4.81-2.099 3.734-2.203 4.211-1.993 2.545 1.121-1.003 1.874-6.639 3.991-10.489 3.94-1.973-.025-1.974-.045-.058-1.494zm227.321-1.999c-2.978-1.654-5.763-6.186-5.763-9.382 0-3.581 4.077-13.027 6.292-14.578 1.357-.951 4.445-1.509 8.354-1.509 5.233 0 6.688.41 9.319 2.624 3.017 2.538 3.109 2.853 2.827 9.704l-.292 7.082-5.5 3.227c-6.808 3.995-11.554 4.877-15.237 2.832zm14.013-9.7c.847-1.019.51-2.109-1.413-4.564l-2.524-3.226-2.92 2.079c-3.602 2.565-3.677 4.2-.312 6.847 2.687 2.114 4.743 1.788 7.17-1.135zm-60.95 9.311c-5.027-1.63-10.505-5.267-12.166-8.079-1.129-1.911-1.66-5.093-1.66-9.953 0-8.186.919-9.508 10.054-14.48 7.333-3.992 13.85-3.874 22.547.407 8.68 4.273 10.631 7.338 10.146 15.933-.331 5.873-.649 6.65-3.804 9.325-7.427 6.293-17.963 9.166-25.116 6.847zm22.56-11.545c3.64-5.556 1.368-12.508-5.115-15.646-5.552-2.688-12.063-2.047-16.93 1.665-3.837 2.926-4.238 5.912-1.536 11.446 1.93 3.954 4.11 4.646 15.33 4.868 6.021.12 6.785-.096 8.25-2.333zm-15.886.27c-2.926-1.66-3.467-2.832-3.484-7.555-.015-4.156 2.474-8.25 5.016-8.25 1.595 0 2.369 3 1.101 4.267-1.62 1.62-1.399 6.267.367 7.733 1.816 1.507 1.993 5.012.25 4.97-.687-.017-2.15-.541-3.25-1.165zm-236.964 9.584c-3.28-.792-6.987-2.11-8.237-2.93-2.88-1.887-6.305-8.527-6.277-12.17.052-6.559 7.744-17.04 14.612-19.91 4.617-1.928 17.183-.977 22.49 1.703 4.13 2.086 6.89 7.595 6.855 13.688-.032 5.7-6.921 15.89-12.312 18.209-6.182 2.66-10.488 3.014-17.131 1.41zm13.579-11.116c3.176-1.876 5.885-6.233 5.885-9.466 0-3.004-7.849-9.807-11.315-9.807-11.148 0-18.094 8.566-12.995 16.027 4.04 5.913 11.64 7.252 18.425 3.246zm-13.365-1.388c-2.167-1.617-2.75-2.866-2.75-5.897 0-3.957 1.997-6.988 4.603-6.988 2.35 0 2.795 2.903.786 5.123-1.821 2.012-1.796 2.096 1.42 4.721 2.608 2.129 3.022 2.925 2.033 3.914-1.695 1.696-2.875 1.527-6.092-.873zm43.668 8.976l-1.918-2.166 3.375.652c1.857.36 4.76.653 6.45.653 3.93 0 2.377 1.544-2.407 2.393-2.906.515-3.944.226-5.5-1.532zm-10.347-1.611c-.039-1.788-.104-3.576-.146-3.975-.04-.399.41-.886 1-1.083 1.263-.421 1.309 3.437.075 6.308-.72 1.676-.87 1.474-.93-1.25zm36.93-1.25c0-.55.476-1 1.058-1 .583 0 .781.45.441 1s-.816 1-1.059 1c-.242 0-.44-.45-.44-1zm-133-.755c0-.55.674-1.56 1.5-2.245.836-.694 1.5-.803 1.5-.245 0 .55-.676 1.56-1.5 2.245-.837.694-1.5.803-1.5.245zm249.788-.958c-3.962-.603-8.516-5.316-9.33-9.656-.846-4.51.908-11.304 3.882-15.034 1.517-1.902 3.42-2.89 6.318-3.278 10.984-1.473 20.591 12.03 15.777 22.177-2.609 5.497-7.472 7.189-16.647 5.791zm8.288-9.21c3.995-3.995 3.742-6.248-.999-8.913l-3.922-2.205-3.627 3.323-3.627 3.323 2.265 2.948c4.184 5.445 5.749 5.686 9.91 1.524zm-145.441 7.798c-6.698-1.022-9.636-3.943-9.636-9.581 0-5.419 2.064-10.524 5.117-12.663 3.565-2.497 12.468-2.173 16.517.6 5.174 3.546 6.07 7.362 3.74 15.93-1.106 4.065-8.634 6.799-15.738 5.714zm7.414-9.4c1.623-.84 2.95-1.87 2.95-2.288 0-.42-1.276-2.291-2.836-4.16l-2.836-3.397-3.164 2.253c-3.485 2.482-3.602 2.833-2.188 6.552 1.13 2.974 3.694 3.304 8.074 1.04zm9.665 9.906c-.34-.34.762-2.336 2.45-4.435 2.057-2.56 3.236-5.32 3.581-8.382.297-2.637 1.028-4.564 1.732-4.564.67 0 1.736-1.012 2.37-2.25.977-1.902 1.06-1.555.542 2.25-.794 5.826-2.591 10.106-6.08 14.478-2.865 3.592-3.503 3.995-4.595 2.903zm256.684-1.823c2.673-2.185 2.849-2.736 2.258-7.047-.353-2.572-.896-5.09-1.208-5.594-.759-1.228-4.174-1.17-4.949.083-.34.55-2.166 1-4.059 1-2.924 0-3.44-.346-3.44-2.3 0-1.265-.483-2.783-1.074-3.373-1.643-1.643 14.426 1.187 21.267 3.745 6.8 2.544 7.394 4.414 2.664 8.395-3.116 2.621-12.069 7.566-13.574 7.497-.431-.02.52-1.103 2.115-2.406zm-246.399.392c0-2.152 2.983-6.708 5.45-8.325 3.588-2.35 3.39-.084-.456 5.225-2.894 3.995-4.994 5.298-4.994 3.1zm51.526-5.9c-1.922-3.717-1.928-5.05-.026-5.05.825 0 1.5-.45 1.5-1s-.675-1-1.5-1c-.933 0-1.5-.944-1.5-2.5 0-2.744 2.952-3.523 4.737-1.25 1.933 2.461 2.308 7.626.623 8.569-1.412.79-1.397.953.144 1.544 1.4.537 1.491.939.487 2.149-1.797 2.164-2.751 1.851-4.465-1.462zm-203.924-.208c-.88-1.258-1.602-2.862-1.602-3.565 0-1.723-.978-1.607-3.17.378-1.007.91-1.83 1.225-1.83.7 0-1.776 2.386-3.355 5.07-3.355 2.302 0 2.751.508 3.269 3.697.742 4.575.326 5.09-1.737 2.145zm186.796.565c.336-.876.9-2.746 1.254-4.156.637-2.537.595-2.557-4.004-1.926-2.556.35-4.648.398-4.648.106 0-1.677 3.264-6.431 4.415-6.431 2.692 0 5.472 3.456 5.631 7 .266 5.926.012 7-1.653 7-1.059 0-1.398-.543-.995-1.593zm152.677-1.657c-.485-1.238-1.633-4.375-2.55-6.973-1.507-4.265-2.269-5.016-7.847-7.74-4.317-2.108-8.392-3.216-13.53-3.68-5.527-.498-6.92-.905-5.613-1.637 2.646-1.48 12.42-.225 18.45 2.369 3.83 1.647 5.496 1.968 5.782 1.113.602-1.807 5.095-1.446 8.615.691 1.715 1.042 7.758 2.662 13.43 3.6 9.083 1.504 10.511 1.532 12 .237 2.165-1.883 3.567-1.33 8.317 3.28 2.507 2.432 3.871 4.657 3.871 6.314 0 3.55-1.48 4.113-2.858 1.087-1.537-3.374-9.666-6.94-19.245-8.445-9.52-1.494-11.235-.71-14.476 6.619-1.318 2.978-2.636 5.415-2.93 5.415-.293 0-.93-1.013-1.416-2.25zm-100.377.5c-1.084-1.932-1.778-6.689-.84-5.75 1.148 1.147 2.637 6.5 1.81 6.5-.302 0-.739-.338-.97-.75zm-256.698-1.691c0-1.501 1.796-3.097 2.59-2.302.698.697-.683 3.743-1.697 3.743-.49 0-.893-.648-.893-1.441zm63.75-.137c-5.967-1.862-6.249-3.488-.371-2.143 6.153 1.409 12.09-1.308 13.724-6.279.633-1.925 1.798-4.243 2.589-5.15.948-1.088 1.082-1.872.392-2.298-1.399-.865-12.807 1.254-16.202 3.009-1.622.84-7.755 1.668-15.347 2.074l-12.645.676-2.945 3.572c-2.643 3.206-2.945 3.344-2.945 1.345 0-1.225.488-2.228 1.084-2.228.596 0 .897-.558.67-1.24-.501-1.503-6.13-1.153-12.559.782-2.57.773-5.17 1.012-5.994.55-3.158-1.767-2.06-1.961 34.3-6.07 9.9-1.119 21.406-2.85 25.57-3.848 8.04-1.926 11.935-1.361 11.924 1.729-.003.878-2.605 4.972-5.78 9.097-6.424 8.344-7.66 8.857-15.465 6.422zm135.75.578c.34-.55 1.068-1 1.618-1s.722.45.382 1c-.34.55-1.068 1-1.618 1s-.721-.45-.382-1zm-176.58-4.152c-.995-1.857-.92-2.062.546-1.5.934.359 1.886.652 2.116.652.23 0 .418.675.418 1.5 0 2.2-1.753 1.828-3.08-.652zm20.584-.718c2.293-2.383 8.496-4.029 8.496-2.255 0 .619-.922 1.125-2.05 1.125-1.127 0-3.489.723-5.25 1.606l-3.2 1.605 2.004-2.081zm13.496-1.949c0-1.208 1.898-2.617 2.591-1.924.252.252-.228 1.027-1.066 1.723-.95.789-1.525.865-1.525.201zm240.873-1.931c-3.308-8.391-4.01-9.41-7.49-10.863-4.188-1.75-12.299-2.037-15.107-.535-1.071.574-3.632 2.907-5.69 5.184-4.456 4.933-5.944 4.378-2.82-1.051 1.23-2.135 2.234-4.355 2.234-4.933 0-1.825-6.799-1.226-7.92.698-.915 1.572-1.022 1.527-1.05-.443-.046-3.384-3.72-5.307-10.142-5.307-3.116 0-9.384-.705-13.927-1.567-7.605-1.443-8.86-1.433-15.822.115-6.778 1.508-9.2 1.55-23.35.404-8.684-.703-15.789-1.602-15.789-1.998 0-.887 49.437-2.42 50.804-1.576.541.335 9.47.898 19.84 1.251 10.371.354 25.381 1.152 33.356 1.775l14.5 1.133-.307 6.67c-.208 4.531.18 7.612 1.21 9.605 1.451 2.806 1.256 4.188-.59 4.188-.47 0-1.343-1.238-1.94-2.75zM307.01 505c0-.55.45-1 1-1s1 .45 1 1-.45 1-1 1-1-.45-1-1zm46.73-6.207c.819-4.011 1.603-7.42 1.743-7.573.14-.155 2.093.923 4.34 2.393l4.084 2.675-5.091 4.606c-2.8 2.533-5.423 4.738-5.827 4.899-.405.16-.066-2.99.752-7zm-104.165 4.914c.375-.986.934-1.541 1.242-1.233.308.307 0 1.114-.682 1.793-.988.98-1.103.865-.56-.56zm90.272-3.522c-4.327-4.584-14.1-6.547-20.521-4.121-1.549.585-4.073 2.263-5.61 3.73l-2.796 2.667 1.638-3.98c.9-2.19 2.035-4.397 2.52-4.906 1.267-1.329 21.122-1.662 22.666-.38.697.577 1.266 1.832 1.266 2.789 0 1.315.609 1.622 2.5 1.26 2.235-.426 2.5-.146 2.5 2.64 0 3.844-.766 3.9-4.163.301zm65.211.372c-.81-.976-.764-1.447.177-1.793 1.579-.581 3.775.124 3.775 1.212 0 1.5-2.843 1.917-3.952.581zm8.952-1.557c0-1.111.667-2 1.5-2 .834 0 1.5.889 1.5 2s-.666 2-1.5 2c-.833 0-1.5-.889-1.5-2zm-112.898-.378c-.899-1.082-.71-1.49.876-1.906 2.174-.568 3.528.658 2.522 2.284-.854 1.383-2.047 1.25-3.398-.378zm46.273-3.747c.344-1.719.625-4.141.625-5.383 0-2.591 3.789-4.208 4.643-1.981.49 1.276-4.22 10.489-5.363 10.489-.291 0-.248-1.406.095-3.125zm-55.366 1.151c-1.133-.716-1.212-1.222-.33-2.104 2.38-2.38 19.18-4.12 17.771-1.841-.367.595-1.718.817-3.001.495-2.808-.704-7.449 1.217-7.449 3.085 0 1.55-4.726 1.798-6.991.365zm.741 60.285c-.962-.252-2.537-.252-3.5 0-.962.251-.175.457 1.75.457s2.713-.206 1.75-.457zm-118.804-1.746c.924-1.113.888-2.963-.161-8.25-1.13-5.692-1.706-6.866-3.5-7.126-3.025-.437-4.66 3.054-3.84 8.194 1.15 7.21 4.677 10.586 7.501 7.182zm136.054-.392c0-.455-1.35-.628-3-.386s-3 .614-3 .826c0 .213 1.35.387 3 .387s3-.372 3-.827zm-121.17-9.586c3.333-4.64 4.063-9.106 1.92-11.742-1.858-2.287-8.206-5.845-10.426-5.845-1.068 0-2.787.618-3.82 1.374-1.823 1.333-1.795 1.639.962 10.25 3.497 10.926 3.183 10.376 5.924 10.376 1.54 0 3.292-1.421 5.44-4.413zm433.671 1.818c3.2-3.452 4.14-9.935 2.138-14.729-2.645-6.328-8.03-4.33-8.961 3.324-.301 2.475-.846 6.099-1.212 8.053-.575 3.08-.35 3.704 1.686 4.682 3.36 1.616 3.68 1.549 6.35-1.33zm-3.607-2.655c-.444-5.244 1.543-11.793 3.067-10.107 1.673 1.85 1.916 7.088.429 9.212-1.67 2.384-3.333 2.81-3.496.895zm-218.894 3.857c0-.216-.698-.661-1.552-.989-.89-.341-1.29-.173-.94.393.587.95 2.492 1.406 2.492.596zm7.762-.294c-.956-.25-2.756-.26-4-.02-1.244.239-.462.444 1.738.455 2.2.01 3.218-.185 2.262-.435zm197.564-10.505c-1.674-1.85-1.784-1.856-2.414-.123-.902 2.477-.287 3.226 2.13 2.594 1.951-.51 1.964-.616.284-2.471zm15.045-37.414l3.835-2.606-4.853-2.81c-2.669-1.547-5.741-4.177-6.827-5.845-1.455-2.234-3.035-3.214-6-3.718-5.472-.932-40.528-2.066-40.527-1.311 0 .331 7.693.845 17.093 1.141 9.597.302 17.542.988 18.119 1.565.673.674.709 2.345.103 4.859l-.925 3.831-9.944-.158c-9.415-.15-9.623-.11-3.905.744 3.322.496 10.297 2.214 15.5 3.817 11.873 3.659 13.601 3.705 18.331.491zm-42.102-6.05c-.677-.274-2.027-.29-3-.037-.973.253-.419.478 1.231.498 1.65.02 2.446-.187 1.77-.461zm-342.352-1.977c.86-.757-4.497-.19-6.417.68-1.393.631-.787.721 2 .297 2.2-.335 4.188-.775 4.417-.977zm19.083-2.46c4.675-.531 18.489-2.528 30.697-4.437 12.208-1.908 24.246-3.47 26.75-3.47 2.504 0 4.553-.429 4.553-.953 0-1.2-5.554-.627-29 2.993-10.175 1.57-24.493 3.601-31.818 4.512-7.326.912-14.526 2.06-16 2.552-2.048.682-1.618.76 1.818.332 2.475-.309 8.325-.996 13-1.528zm-92.545-1.323c8.815-3.684 8.562-13.154-.524-19.631-2.206-1.573-3.195-1.68-7-.752-4.728 1.152-8.524 3.942-9.486 6.973-.877 2.765 1.237 8.156 4.329 11.036 4.388 4.089 7.28 4.63 12.68 2.374zm-8.452-4.2c-4.502-4.068-5.235-7.654-1.924-9.426 3.164-1.693 4.921-.47 4.921 3.427 0 2.579.67 3.935 2.653 5.38 2.667 1.943 2.554 4.235-.209 4.235-.79 0-3.24-1.627-5.44-3.616zm484.3 2.55c8.864-2.463 10.562-16.317 2.854-23.293-2.186-1.977-1.467-2.046-16.522 1.57-11.652 2.798-11.279 14.788.634 20.334 5.854 2.725 7.563 2.907 13.033 1.388zm-12.117-5.431c-4.548-3.827-5.384-10.445-1.507-11.933 2.136-.82 6.007 1.817 6.832 4.653.364 1.253 1.829 3.258 3.255 4.458 2.197 1.847 2.395 2.421 1.292 3.75-1.935 2.332-6.509 1.902-9.872-.928zM565.01 483c0-.55-1.012-.968-2.25-.93-2.146.067-2.158.11-.25.93 1.1.473 2.113.891 2.25.93.138.038.25-.38.25-.93zm-325.27-2.604c-.333-.332-1.195-.368-1.917-.08-.798.32-.56.557.604.605 1.054.043 1.645-.193 1.313-.525zm5.54-1.052c-.678-.274-2.028-.29-3-.037-.973.253-.42.478 1.23.498 1.65.02 2.447-.187 1.77-.461zm77.48-.033c-.962-.252-2.537-.252-3.5 0-.962.251-.175.457 1.75.457s2.713-.206 1.75-.457zm-73.02-.915c-.333-.332-1.195-.368-1.917-.08-.798.32-.56.557.604.605 1.054.043 1.645-.193 1.313-.525zm3.797-1.203c-.308-.308-1.115 0-1.793.683-.98.988-.866 1.102.56.56.986-.376 1.54-.935 1.233-1.243zm134.742-.849c-.677-.274-2.027-.29-3-.037-.972.253-.419.478 1.231.498 1.65.02 2.447-.187 1.77-.461zm-86.269-4.816c4.675-.713 6.925-1.315 5-1.337-1.925-.022-7.325.542-12 1.253-4.675.711-6.925 1.313-5 1.337 1.925.024 7.325-.54 12-1.253zm-30.322-.632c7.06-1.23 9.47-3.32 11.451-9.932 1.816-6.059.373-12.142-4.066-17.142l-3.836-4.322-7.877.025c-6.255.02-8.423.432-10.529 2-6.189 4.61-8.39 14.137-5.025 21.747 2.057 4.65 4.376 6.513 9.704 7.8 1.65.397 3.189.77 3.419.826.23.056 3.271-.395 6.759-1.002zm-11.488-4.854c-5.624-3.544-7.855-11.763-4.364-16.075 1.519-1.876 2.427-2.142 5.4-1.585 4.253.798 6.052 2.566 4.733 4.652-1.53 2.42-1.083 5.841 1.041 7.966 1.467 1.467 3.334 2 7 2 8.923 0 5.303 3.993-4.24 4.678-5.13.368-6.857.073-9.57-1.636zm70.097 3.222c-2.867-.201-7.817-.203-11-.004-3.183.2-.837.364 5.213.366 6.05.002 8.654-.16 5.787-.362zm43.963-.926c-.687-.278-1.812-.278-2.5 0-.687.277-.125.504 1.25.504s1.938-.227 1.25-.504zm155.653-1.916c6.657-2.663 8.864-10.039 5.17-17.279-2.348-4.603-3.422-5.464-8.689-6.968-6.9-1.97-9.317-1.525-13.015 2.396-2.718 2.882-3.368 4.378-3.367 7.75.002 6.196 2.725 10.789 7.96 13.429 5.298 2.671 6.742 2.753 11.941.672zm-13.682-4.672c-2.124-2.59-3.314-9.451-2.101-12.112 1.421-3.12 2.896-3.735 6.546-2.728 3.045.84 3.218 1.807 1.212 6.806-1.17 2.916-1.084 3.435.916 5.564 1.214 1.292 2.206 2.657 2.206 3.034 0 1.222-7.723.725-8.78-.564zm-105.836-1.06c4.56-6.117 1.262-20.864-6.283-28.092-4.032-3.864-10.414-5.04-15.102-2.783-8.171 3.934-11.025 17.346-5.645 26.528 4.115 7.02 5.708 7.758 16.04 7.435 8.441-.264 9.004-.422 10.99-3.087zm-17.662.306c-3.456-2.718-6.834-10.01-6.902-14.896-.062-4.52 2.903-10.423 5.484-10.92 1.36-.262 1.695.444 1.695 3.565 0 10.075 4.963 18.255 11.076 18.255 4.38 0 4.38 1.727 0 3.962-5.036 2.569-8.12 2.578-11.353.034zm180.934-.703c-1.513-.39-1.78-1.266-1.493-4.884.257-3.229-.014-4.409-1.013-4.409-.833 0-1.128.616-.758 1.582.334.87.607 3.12.607 5 0 2.912.333 3.4 2.25 3.302 1.834-.095 1.91-.204.407-.591zM613.797 418c4.508-5.251 6.846-10.85 9.817-23.5.258-1.1-2.911 4.525-7.044 12.5-4.132 7.975-7.524 14.668-7.537 14.872-.035.552 3.279-2.142 4.764-3.872zm31.212-8.545c6.325-4.5 12.539-8.806 13.808-9.568 1.27-.763 4.87-5.19 8-9.836 3.131-4.647 9.558-12.297 14.282-17 4.725-4.703 10.183-10.576 12.129-13.051 9.103-11.576 28.892-47.898 33.63-61.729 3.864-11.278 7.924-28.599 9.176-39.148 2.351-19.808-.72-42.672-7.838-58.372-9.107-20.085-31.61-42.028-57.947-56.506-24.777-13.62-62.441-16.848-104.74-8.978-10.45 1.944-24.625 4.572-31.5 5.839-17.343 3.196-30.026 2.962-39.25-.726-3.712-1.484-6.75-3.141-6.75-3.683 0-1.957-6.792 8.054-13.325 19.639-3.671 6.51-6.675 12.176-6.675 12.592 0 1.716 15.834 8.067 22.5 9.026 11.144 1.602 30.744 1.217 44-.865 12.407-1.948 16.377-2.927 35-8.631 19.207-5.883 26.535-6.877 51-6.92l22-.038 12.886 5.786c7.087 3.183 15.278 7.375 18.204 9.317 6.542 4.342 14.405 12.736 20.558 21.942 6.23 9.324 8.174 13.404 11.172 23.455 4.455 14.938 4.976 18.898 4.43 33.629-.552 14.825-.35 14.032-9.653 38.013-5.39 13.892-13.57 26.319-26.573 40.365-3.984 4.303-7.62 9.721-10.735 16-2.592 5.221-9.238 18.043-14.769 28.493-10.418 19.683-15.447 30.931-16.616 37.165-.81 4.31-1.876 4.797 13.596-6.21zm4.333-10.03c-.793-2.068 1.27-8.85 3.172-10.429 1.28-1.062 1.495-.72 1.495 2.382 0 1.992.433 3.622.961 3.622 1.473 0 4.993-4.072 7.168-8.291 1.075-2.085 3.692-5.478 5.816-7.539 2.123-2.06 5.494-6.718 7.49-10.35 3.107-5.651 4.093-6.673 6.847-7.093 1.77-.27 3.385-.339 3.589-.155C687.368 362.92 653.27 401 650.575 401c-.345 0-.9-.709-1.233-1.575zm7.68-17.616c.006-.17 1.311-4.332 2.9-9.25 2.737-8.471 4.815-11.559 7.779-11.559 2.637 0 1.186 4.78-3.723 12.257-4.245 6.466-7.008 9.862-6.957 8.552zm31.161-25.559c1.247-4.618 2.025-5.495 4.15-4.68 1.453.558 1.32 1.114-1.083 4.512-3.458 4.89-4.355 4.938-3.067.168zm-19.06-10c.595-1.788 1.456-3.25 1.913-3.25.457 0 2.507-1.58 4.556-3.513 6.078-5.732 5.04-3.195-1.5 3.664-5.525 5.797-5.958 6.066-4.97 3.099zm8.505 1.198c-.812-2.115 2.167-6.467 3.957-5.78 1.987.762 1.777 3.703-.404 5.677-2.266 2.05-2.8 2.066-3.553.103zm12.536-12.886c.19-.917.795-1.644 1.345-1.615 1.485.079 1.212 2.316-.345 2.835-.841.28-1.216-.177-1-1.22zm20.86-10.333c-.007-.7-1.14-1.784-2.515-2.41-3.549-1.618-3.108-3.945 1.537-8.115 8.526-7.654 13.712-25.119 14.645-49.319.54-14.024.407-16.42-1.03-18.472-2.373-3.388-2.055-4.665 1.348-5.413 2.88-.632 2.975-.824 2.392-4.83-.334-2.293-1.194-6.42-1.912-9.17-1.692-6.489-2.854-24.275-1.497-22.917.545.544 1.947 4.573 3.116 8.953 1.863 6.98 2.143 10.932 2.264 31.964.158 27.667.374 26.37-9.387 56.5-6.53 20.155-8.923 26.358-8.96 23.229zM708.01 304c0-.55.702-1 1.56-1 .857 0 1.28.45.94 1-.34.55-1.041 1-1.559 1-.517 0-.94-.45-.94-1zm-6-.304c0-.166 1.588-5.004 3.528-10.75 4.494-13.31 6.472-21.82 6.472-27.841 0-5.937.724-6.713 3.676-3.94 3.072 2.886 2.948 4.35-1.056 12.475-1.859 3.773-4.287 10.01-5.396 13.86-2.016 6.997-5.915 16.5-6.77 16.5-.25 0-.454-.137-.454-.304zm10.586-58.946c-.277-1.788-.785-6.4-1.129-10.25-.343-3.85-1.752-10.375-3.13-14.5-3.534-10.576-2.404-18.681 2.474-17.749.96.184 1.388 3.4 1.633 12.249.182 6.6.675 16.837 1.096 22.75.42 5.912.494 10.75.163 10.75-.331 0-.829-1.462-1.107-3.25zm3.051-41.5c-.274-.963-1.25-5.24-2.168-9.504-.92-4.264-2.094-8.014-2.61-8.334-1.18-.728-6.117-8.487-5.68-8.924.72-.72 11.994 13.358 14.475 18.073l2.662 5.06-2.338 2.69c-2.731 3.141-3.657 3.341-4.34.939zm-30.82-22.161c-3.74-4.674-6.342-6.67-13.476-10.336-13.377-6.873-24.974-11.368-34.37-13.321-11.676-2.427-12.585-3.841-1.97-3.068 8.963.653 16.394 3.147 34.078 11.439 8.76 4.107 15.994 10.569 19.566 17.477 2.454 4.745 1.104 3.972-3.828-2.191zm14.708-1.049c-.848-1.372-.097-2.402 1.38-1.894.606.208.684.914.188 1.71-.625 1.007-1.03 1.054-1.568.184zm-186.525-7.923c0-1.028 3.631-2.153 4.415-1.369.292.292.292.918 0 1.391-.7 1.133-4.414 1.114-4.414-.022zm15-.256c0-.473 1.125-.861 2.5-.861s2.5.173 2.5.383c0 .211-1.125.599-2.5.862s-2.5.09-2.5-.384zm-47.587-1.804c-4.103-.98-5.413-1.87-5.413-3.676 0-1.762 6.114-11.381 7.234-11.381 1.682 0 .614 2.554-1.984 4.745-2.636 2.224-2.67 2.37-.837 3.537 3.28 2.09 5.587 4.656 5.587 6.218 0 1.633-.059 1.64-4.587.557zM536.01 170c.825-.533 2.4-.97 3.5-.97 1.657 0 1.743.167.5.97-.825.533-2.4.97-3.5.97-1.656 0-1.742-.167-.5-.97zm-42.354-1.48c-.75-1.955 6.979-6.52 11.037-6.52 2.955 0 7.259 3.3 5.623 4.311-1.21.748-12.844 3.689-14.593 3.689-.824 0-1.754-.666-2.067-1.48zm47.354-5.079c0-.857.45-1.28 1-.941.55.34 1 1.041 1 1.559s-.45.941-1 .941-1-.702-1-1.559zm-53.333-1.108c-1.74-1.74.048-3.199 8.893-7.256 8.417-3.861 9.736-4.21 11.032-2.914 1.296 1.296.393 2.032-7.554 6.155-8.91 4.622-11.065 5.321-12.37 4.015zm38.206-1.083c-1.244-1.586-1.209-1.621.377-.378 1.666 1.307 2.196 2.128 1.373 2.128-.208 0-.995-.787-1.75-1.75zm22.127.344c0-1.98 1.928-3.067 3.195-1.8.694.694.346 1.382-1.087 2.149-1.701.91-2.108.843-2.108-.349zm126.022-.553c-.576-1.077-4.08-4.087-7.785-6.687-3.705-2.601-6.924-4.87-7.153-5.042-.23-.171-.2-.53.066-.795.523-.522 13.976 4.462 18.86 6.988 3.567 1.844 3.7 2.755.802 5.456-2.723 2.537-3.468 2.55-4.79.08zm-143.355.292c-1.316-1.316-.628-3.11 1.395-3.639 2.466-.645 3.931 2.064 1.834 3.392-1.69 1.07-2.355 1.121-3.229.247zm49.03-2.718c2.873-1.357 6.116-2.215 7.25-1.919 3.177.831 2.436 1.987-1.697 2.65l-7.25 1.162c-3.19.512-3.04.344 1.698-1.893zm-25.03.718c-.367-.366-.667-1.131-.667-1.7 0-.626.466-.567 1.184.15.65.651.95 1.416.666 1.7-.284.285-.816.217-1.183-.15zm-16.667-1.392c0-.582.45-.78 1-.441.55.34 1 .817 1 1.059 0 .243-.45.441-1 .441s-1-.477-1-1.059zm20.583.193c-.43-.697-.513-1.537-.183-1.867.895-.895 1.871.421 1.388 1.871-.339 1.016-.575 1.016-1.205-.004zm-42.583-1.168c-1.298-.869-1.239-1.203.442-2.485 3.448-2.63 7.053-.986 4.522 2.063-1.41 1.698-2.87 1.822-4.964.422zm26.5.034c-.34-.55-.141-1 .441-1 .583 0 1.06.45 1.06 1s-.199 1-.442 1c-.242 0-.719-.45-1.059-1zm9.5-4c0-.55.45-1 1-1s1 .45 1 1-.45 1-1 1-1-.45-1-1zm-60.403-1.844c-.346-.56-.142-1.319.454-1.687 1.537-.95 2.53.351 1.246 1.635-.719.718-1.278.735-1.7.052zm81.24-2.653c-.273-.273-3.61-.61-7.417-.75-6.057-.221-6.92-.491-6.92-2.164 0-1.276 1.162-2.33 3.5-3.174 4.635-1.672 7.671-1.672 12.5 0 4.722 1.636 6.006 4.95 2.303 5.941-2.832.758-3.336.777-3.966.147zm69.663-.886c-3.433-1.538-7.138-5.312-6.167-6.283 1.107-1.106 13.167 4.122 13.167 5.708 0 1.954-3.313 2.226-7 .575zm-41.3-.817c-3.106-3.107-.109-6.815 5.485-6.785 6.944.038 7.16 4.567.315 6.61l-4.55 1.36c-.027.008-.59-.525-1.25-1.185zM623 144.511c.68-.819 1.642-1.238 2.14-.93 1.276.788.055 2.419-1.812 2.419-1.271 0-1.332-.278-.328-1.489zm1.51-4.511c-.34-.55.056-1 .881-1s1.779.45 2.118 1c.34.55-.057 1-.882 1s-1.778-.45-2.118-1zM146.003 399.288c-2.355-11.837-6.422-21.13-13.256-30.288-2.258-3.025-4.367-5.725-4.687-6-2.707-2.324-17.913-21.17-22.375-27.73-5.347-7.863-14.292-25.269-17.355-33.77-.792-2.2-3.214-11.167-5.381-19.926-3.45-13.944-3.94-17.375-3.94-27.574 0-20.744 3.417-36.565 10.801-50 11.303-20.565 35.03-38.711 57.012-43.602 6.184-1.376 10.727-1.565 25.602-1.066 41.56 1.394 62.18 3.769 86.584 9.973 15.21 3.867 17.44 4.184 28.5 4.05 11.977-.144 24.433-2.55 25.148-4.855.256-.827-4.123-7.297-14.172-20.938-1.33-1.806-1.858-1.853-7.702-.697-3.854.762-15.723 1.28-30.774 1.34l-24.5.101-17.5-6.093c-26.517-9.232-32.183-10.481-47.5-10.473-16.536.01-29.45 2.381-50.595 9.291-12.553 4.102-20.653 8.606-32.405 18.018-13.493 10.808-20.656 17.972-23.34 23.346-5.137 10.287-12.996 37.872-15.078 52.927-3.458 25.008 1.177 51.128 13.483 75.99 4.6 9.291 30.716 45.357 48.653 67.188 5.423 6.6 11.862 15.458 14.31 19.684 2.448 4.226 4.918 7.973 5.49 8.327 2.236 1.382 16.5 5.064 16.803 4.337.176-.424-.645-5.626-1.826-11.56zm-11.766 6.043c-.699-.282-1.948-1.821-2.775-3.421l-1.505-2.91h3.339c2.356 0 4.133.83 6.04 2.82 1.485 1.55 2.394 3.125 2.02 3.5-.773.773-5.207.78-7.119.01zm-2.622-16.22c-2.803-2.926-4.918-11.111-2.871-11.111 1.055 0 4.824 5.305 7.637 10.75 1.6 3.097 1.592 3.25-.16 3.25-1.011 0-3.084-1.3-4.606-2.888zm-13.114-6.367c-14.91-21.217-26.518-37.216-32.686-45.045-4.599-5.838-6.827-9.515-6.62-10.922.657-4.45 2.812-2.598 7.466 6.415 2.644 5.12 8.866 14.593 13.827 21.053 4.961 6.46 10.73 14.104 12.818 16.988 4.215 5.82 11.08 17.723 10.536 18.267-.192.192-2.595-2.849-5.341-6.756zm-4.406-22.362c-2.94-3.737-1.418-5.074 2.023-1.777 1.59 1.523 2.89 3.135 2.89 3.582 0 1.762-2.965.673-4.913-1.805zm-21.522-26.089c-.543-1.425-.428-1.54.56-.56.683.679.99 1.486.682 1.793-.308.308-.867-.247-1.242-1.233zm-5.84-21.087c-3.635-8.088-6.881-15.69-7.214-16.894-.398-1.438-1.533-2.295-3.308-2.5-2.26-.261-2.976-1.13-4.372-5.312-.93-2.782-1.706-8.384-1.75-12.628-.055-5.155-.525-7.996-1.45-8.764-1.147-.951-.942-2.437 1.25-9.091 1.44-4.375 2.957-7.968 3.37-7.986.412-.017.75 2.165.75 4.848 0 6.193 3.172 24.52 6.015 34.756 2.638 9.495 9.428 26.457 12.647 31.595 2.499 3.988 2.83 5.347 1.504 6.167-.458.283-3.807-6.103-7.442-14.191zm-15.574.028c-4.264-11.057-4.563-12.647-2.672-14.216.95-.788 1.951-.962 2.45-.426.856.92 5.071 18.364 5.071 20.984 0 3.53-2.102.782-4.85-6.342zM57.155 275.5c-.08-1.1-.62-6.95-1.2-13-.84-8.778-.724-14.637.573-29l1.625-18 6.266-15.548c3.446-8.551 8.223-18.899 10.616-22.995l4.35-7.448.837 3.23c.967 3.735-.21 6.414-11.43 25.997-5.983 10.442-6.92 12.714-6.397 15.505.378 2.014-.154 5.954-1.386 10.261-2.394 8.371-2.375 7.98-.48 9.874 1.358 1.358 1.21 2.41-1.407 9.961l-2.925 8.442 1.945 3.2c1.278 2.1 1.7 3.94 1.23 5.36-.394 1.188-1.02 5.311-1.392 9.161-.373 3.85-.744 6.1-.825 5zm6.15-21.75c2.37-5.802 10.016-23.338 10.32-23.667.211-.229.384 2.33.384 5.689 0 5.383-.353 6.492-2.993 9.382-1.647 1.803-3.482 4.756-4.078 6.562-.597 1.808-1.771 3.284-2.613 3.284-.841 0-1.3-.563-1.02-1.25zm-1.296-9.79c0-1.537 4.064-9.23 4.595-8.698.25.25-.44 2.544-1.534 5.096-1.91 4.455-3.06 5.81-3.06 3.602zm11.686-18.337c-.765-1.994 4.927-22.86 8.04-29.48 1.648-3.5 3.678-6.039 5.865-7.329 1.84-1.085 4.277-3.481 5.415-5.324 2.076-3.358 8.883-9.935 9.571-9.247.202.202-2.124 3-5.168 6.22-6.265 6.624-14.371 22.13-19.264 36.846-3.224 9.695-3.635 10.461-4.46 8.314zm-5.172-13.373c.402-1.512.894-4.004 1.093-5.537.483-3.712 2.265-6.91 3.444-6.182 1.37.847 1.202 2.07-1.185 8.616-2.154 5.909-4.73 8.293-3.352 3.103zm220.663-42.893c.533-2.705 3.356-3.933 6.008-2.612 1.274.633 3.215 1.32 4.315 1.526 1.436.269.872.705-2 1.546-5.794 1.697-8.716 1.536-8.323-.46zm-33.177-3.491c-7.975-1.065-18.775-2.841-24-3.946-17.051-3.605-25.268-4.71-40.5-5.442-8.25-.397-17.025-1.044-19.5-1.438-4.396-.7-4.432-.736-1.559-1.535 1.772-.493 4.66-.358 7.265.339 2.454.656 11.774 1.169 21.559 1.185 14.15.024 18.489.386 24.235 2.023 13.576 3.868 20.11 4.913 30.807 4.93l10.806.018 2.865-3.137c4.2-4.598 6.48-3.404 5.537 2.899-.758 5.06-1.225 6.296-2.324 6.14-.38-.055-7.216-.97-15.19-2.036zM96.661 160.4c-1.016-1.395-1.691-2.67-1.5-2.833 1.51-1.284 5.165-2.567 7.314-2.567 3.316 0 4.21 2.32 2.121 5.508-2.101 3.207-5.554 3.16-7.935-.108zm157.083-2.488c-2.071-.488-5.54-1.793-7.71-2.9-2.178-1.11-5.91-2.012-8.331-2.012-3.98 0-11.424-2.603-10.393-3.633.233-.234 4.199.232 8.812 1.034 4.613.803 12.364 1.781 17.224 2.174 9.131.738 11.172 1.902 8.653 4.938-1.365 1.645-2.694 1.709-8.255.399zm24.833-2.838c-1.692-1.869-1.607-1.945 2.891-2.62 2.549-.382 4.786-.528 4.971-.324.186.203-.046 1.383-.514 2.62-1.069 2.825-4.931 2.995-7.348.324zM147.009 154c2.938-2.298 5.319-2.526 6.87-.658 1.63 1.965.367 2.66-4.786 2.636l-4.584-.022 2.5-1.956zm-25-2c-1.292-.835-1.266-.971.191-.985.93-.008 1.97.435 2.31.985.782 1.266-.542 1.266-2.5 0zm74.2-2.2c-1.685-1.686-1.502-2.568.791-3.795 2.403-1.286 8.01 1.178 8.01 3.52 0 1.84-7.017 2.058-8.8.275zm-70.657-.73c-1.002-1.622 1.175-2.115 2.467-.559 1.004 1.21.943 1.489-.328 1.489-.86 0-1.822-.419-2.139-.93zm61.457-6.57c0-.917.484-1.505 1.075-1.308.592.197 1.075.785 1.075 1.308 0 .522-.483 1.111-1.075 1.308-.59.197-1.075-.391-1.075-1.308zm-37-4.5c1.959-1.266 3.283-1.266 2.5 0-.34.55-1.379.993-2.309.985-1.457-.014-1.483-.15-.19-.985zm-33.602 262.25c-2.512-4.263-6.42-10.225-8.682-13.25-5.914-7.903-19.76-24-20.644-24-.825 0-2.577 3.487-4.62 9.192-1.705 4.762-.366 9.943 3.317 12.84 2.361 1.858 3.757 2.084 11.106 1.796l8.406-.328-.198 8.041c-.181 7.343.02 8.277 2.312 10.75 2.146 2.316 3.312 2.709 8.04 2.709h5.531l-4.568-7.75zm-6.728-.073c-2.84-2.965-3.54-6.177-1.344-6.177 1.254 0 4.624 3.159 6.015 5.637.35.625.044 1.63-.682 2.231-1.002.832-1.961.425-3.989-1.691zm-21.808-19.161c-2.421-2.422-2.925-3.68-2.673-6.673.409-4.84 2.263-5.3 4.275-1.061.887 1.869 2.945 4.384 4.574 5.588 3.927 2.903 3.877 5.13-.114 5.13-2.082 0-4.043-.965-6.062-2.984zm580.35 23.234c2.571-3.891 4.535-11.25 3.003-11.25-1.837 0-7.215 8.88-7.215 11.913 0 4.084 1.2 3.895 4.212-.663zm-304.231-33c-.013-18.668-.564-35.151-1.482-44.25-1.681-16.684-3.562-29.27-4.268-28.564-.268.268.052 3.992.712 8.276 3.044 19.782 3.911 34.634 3.737 64.038-.099 16.638.158 30.25.57 30.25.413 0 .742-13.387.73-29.75zm256.66.827c4.25-8.017 9.67-17.497 12.044-21.066 2.373-3.57 4.315-7.55 4.315-8.844 0-1.513.715-2.541 2-2.877 2.52-.659 2.62-2.29.142-2.29-1.25 0-5.292 4.816-12.376 14.75-11.935 16.736-10.743 14.682-18.786 32.39l-6.068 13.36 5.5-5.423c4.152-4.093 7.398-9 13.23-20zm-316.64 21.031c0-.49-1.072-1.16-2.381-1.489-2.81-.705-3.587-3.05-3.606-10.869-.008-3.163-.351-5.75-.764-5.751-.412-.001-.597 2.443-.411 5.43.186 2.988-.045 6.118-.514 6.956-1.768 3.159-3.403-.319-5.059-10.756-1.964-12.383-3.257-11.507-2.527 1.711.476 8.629.575 8.922 4.125 12.223 2.769 2.576 4.53 3.39 7.386 3.41 2.063.015 3.75-.374 3.75-.865zm7.33-4.358c-.867-4.557-1.33-4.702-1.33-.417 0 2.017.438 3.667.974 3.667.56 0 .712-1.383.357-3.25zm-81.95-4.875c1.66-2.586 1.648-2.625-.847-2.625-1.912 0-2.537.521-2.547 2.125-.008 1.169-.284 3.25-.614 4.625-.579 2.408-.547 2.427.86.5.803-1.1 2.22-3.181 3.147-4.625zm457.67 4.564c1.64-1.976 2.535-11.96 1.148-12.816-.942-.582-12.184 10.995-12.194 12.557-.002.375 1.008.876 2.245 1.114 4.765.918 7.554.647 8.8-.855zm-4.05-4.97c0-1.73 2.386-2.966 3.908-2.026 1.563.967.095 3.557-2.016 3.557-1.04 0-1.893-.69-1.893-1.531zM416.46 343c1.485-13.636 3.768-29.877 5.552-39.5 1.02-5.5 2.135-12.025 2.477-14.5 2.083-15.054 17.47-80.94 21.835-93.5 6.45-18.552 13.457-33.126 23.081-48 5.167-7.986 5.175-8.011 4.625-14.5l-.55-6.5-7.546 11.5c-14.262 21.735-21.73 37.411-30.876 64.806-12.815 38.386-15.989 53.964-23.063 113.194-.559 4.675-1.909 15.432-3 23.905-3.099 24.044-2.805 27.517 3.819 45.095l1.695 4.5.621-20c.342-11 .94-22.925 1.33-26.5zm-35.721 28.812l2.525-2.688-.51-17.312c-.532-18.093-3.253-34.893-10.821-66.812-3.754-15.832-4.44-18.806-6.461-28-3.15-14.33-10.079-36.338-19.52-62a8159.907 8159.907 0 0 1-12.385-33.924c-3.07-8.483-7.113-18.166-8.987-21.517-4.263-7.623-11.334-15.752-13.358-15.358-1.518.296-5.207 11.147-5.202 15.299 0 1.1 3.405 6.5 7.564 12 8.518 11.263 13.99 21.544 24.236 45.536 17.31 40.53 26.274 65.75 29.134 81.964 2.671 15.149 6.233 58.577 6.795 82.86l.448 19.36 2.008-3.36c1.105-1.848 3.145-4.57 4.534-6.048zm328.213-1.64c1.126-3.409 1.024-4.099-1.1-7.44-1.289-2.026-2.793-3.582-3.343-3.458-1 .226-14.18 13.722-13.408 13.73.225.004 3.105 1.104 6.402 2.446 5.98 2.437 5.997 2.438 8.101.461 1.16-1.09 2.666-3.671 3.348-5.738zm-8.398-1.031c-.78-2.457.313-5.141 2.094-5.141 2.011 0 2.715 2.47 1.403 4.922-1.378 2.576-2.722 2.66-3.497.219zM588.51 369c.34-.55.168-1-.382-1s-1.278.45-1.618 1c-.34.55-.168 1 .382 1s1.279-.45 1.618-1zm-510.48-4.01c4.597-2.345 6.383-4.466 5.31-6.307-1.638-2.808-19.394-20.952-19.955-20.39-1.18 1.178-5.375 13.892-5.375 16.285 0 4.242 2.731 9.286 6.19 11.433 3.764 2.336 7.84 2.035 13.83-1.021zm-10.257-1.555c-1.506-.817-3.418-2.802-4.25-4.41-1.654-3.2-2.058-11.57-.601-12.47.501-.31 2.603 1.8 4.67 4.69 2.068 2.89 5.14 6.737 6.827 8.549 2.564 2.752 2.824 3.448 1.58 4.234-2.117 1.339-5.056 1.126-8.226-.593zm115.764 1.758c-.308-.308-1.115 0-1.793.683-.98.988-.866 1.102.56.56.986-.376 1.54-.935 1.233-1.243zM393.603 360c2.908-2.75 6.154-5 7.215-5 1.51 0 2.05-.915 2.496-4.23.668-4.985.506-5.274-2.153-3.851-2.54 1.36-10.826 1.417-11.652.081-1.51-2.444-2-.365-2 8.496 0 5.223.182 9.498.404 9.5.222.002 2.782-2.246 5.69-4.996zm69.94-.76l5.08-8.932c1.313-2.306 2.386-4.8 2.386-5.543 0-1.55-10.624-5.476-11.753-4.342-.41.412.94 2.104 3.003 3.76 4.363 3.503 4.614 5.266 1.421 9.97-1.28 1.888-2.58 4.313-2.886 5.39a44.693 44.693 0 0 1-1.341 3.871c-1.451 3.546 1.296.743 4.09-4.173zm-174.717 2.01c-.272-2.362-.81-2.782-3.817-2.98-3.026-.199-3.195-.102-1.25.718 1.285.54 2.25 1.82 2.25 2.98 0 1.178.659 2.032 1.567 2.032 1.119 0 1.476-.786 1.25-2.75zm-10.817 1.357c0-.216-.675-.652-1.5-.969-.825-.316-1.5-.14-1.5.393s.675.969 1.5.969 1.5-.177 1.5-.393zm-98.718-2.639c-.49-1.871-.206-1.98 3.593-1.372 2.61.417 4.125.278 4.125-.38 0-.58-1.873-.968-4.25-.877-3.587.136-4.3.512-4.57 2.411-.175 1.238.12 2.25.657 2.25s.737-.914.445-2.032zm23.968 1.37c-.687-.278-1.812-.278-2.5 0-.687.277-.125.504 1.25.504s1.938-.227 1.25-.504zm94.112-.838c-.317-.825-.752-1.5-.969-1.5-.216 0-.393.675-.393 1.5s.436 1.5.97 1.5c.532 0 .709-.675.392-1.5zm134.331-3.231c-.253-.973-.477-.419-.498 1.231-.02 1.65.187 2.446.461 1.769.274-.677.291-2.027.037-3zM174.51 359c.34-.55-.11-1-1-1s-1.34.45-1 1c.34.55.79 1 1 1 .21 0 .66-.45 1-1zm133.5.559c0-.243-.45-.72-1-1.059-.55-.34-1-.141-1 .441s.45 1.059 1 1.059 1-.198 1-.441zm134.97-3.059c0-.55-.436-.325-.97.5-.533.825-.969 1.95-.969 2.5s.436.325.97-.5c.533-.825.969-1.95.969-2.5zm147.607-1.5c2.565 0 1.496-3.198-2.528-7.563-3.62-3.928-3.874-4.56-3.017-7.546.514-1.792.767-3.426.563-3.63-.204-.204-2.087 1.723-4.183 4.282-3.34 4.075-3.607 4.768-2.152 5.582 2.293 1.284 3.334 7.419 1.634 9.636-.733.956-.11.648 1.387-.685 1.496-1.334 2.72-1.923 2.72-1.31 0 .614-.45 1.394-1 1.734-.55.34-1 1.531-1 2.648 0 1.919.168 1.888 3.076-.56 1.692-1.423 3.717-2.588 4.5-2.588zm135.04 4.235c.613-.404 2.041-2.563 3.173-4.796 2.01-3.964 2.016-4.157.26-8-.988-2.167-3.105-5.165-4.703-6.664l-2.905-2.726-5.407 7.09c-2.974 3.9-6.042 7.726-6.818 8.502-.776.776-1.175 2.025-.886 2.777 1.105 2.881 14.286 5.791 17.285 3.817zm-5.977-7.01c-.818-1.322.845-7.553 2.13-7.982 1.567-.522 3.265 3.91 2.548 6.65-.531 2.033-3.69 2.932-4.678 1.332zm-522.64 4.608c0-1.191-.313-1.853-.695-1.47-1.081 1.08-1.233 3.637-.216 3.637.501 0 .911-.975.911-2.167zm402.128.417c1.244-1.586 1.208-1.621-.378-.378-.962.755-1.75 1.543-1.75 1.75 0 .823.822.294 2.128-1.372zM238.009 357c0-.55-.476-1-1.059-1-.582 0-.78.45-.44 1s.816 1 1.058 1c.243 0 .441-.45.441-1zm-46.337-3.25c-.278-.688-.505-.125-.505 1.25s.227 1.938.505 1.25c.277-.688.277-1.813 0-2.5zm7.837 1.25c.34-.55.142-1-.44-1-.583 0-1.06.45-1.06 1s.199 1 .441 1c.243 0 .72-.45 1.06-1zm87.217-4.617c-.615-.615-4.717-1.363-4.717-.86 0 .223 1.013 1.435 2.25 2.692 2.07 2.102 2.277 2.138 2.581.45.182-1.01.13-2.037-.114-2.282zM174.009 353c0-.55-.198-1-.44-1-.243 0-.72.45-1.06 1-.34.55-.141 1 .441 1 .583 0 1.06-.45 1.06-1zm13.97-1.25c-.027-2.01-.14-2.063-1.05-.5-.606 1.04-2.214 1.75-3.97 1.75-2.46 0-2.95-.405-2.95-2.441 0-1.343-.45-2.72-1-3.059-1.386-.857-1.257-3.5.172-3.5.644 0 1.985.737 2.98 1.638 1.477 1.335 2.092 1.405 3.33.378 1.69-1.403 1.97-4.755.579-6.953-.718-1.134-1.398-1.201-3.235-.317-1.279.615-1.736 1.15-1.017 1.186 2.362.122.134 2.068-2.368 2.068-2.282 0-2.44.345-2.44 5.333 0 2.934.3 5.634.666 6 .367.367 2.842.667 5.5.667 4.355 0 4.83-.223 4.803-2.25zm9.44-1.897c-1.074-1.737-1.27-8.821-.262-9.444 1.04-.643.156-2.409-1.207-2.409-1.037 0-1.298 8.906-.334 11.418.334.87 1.036 1.582 1.56 1.582.523 0 .632-.516.242-1.147zm52.59-2.257c0-1.257.936-3.133 2.08-4.168l2.079-1.881-2.082-1.686c-1.255-1.016-1.84-2.316-1.472-3.273.335-.873.111-1.588-.498-1.588-.694 0-1.107 2.393-1.107 6.418 0 3.53-.301 7.204-.67 8.164-.456 1.19-.297 1.516.5 1.023.644-.398 1.17-1.752 1.17-3.009zm-76-2.596c0-2.533-.388-3-2.5-3-3.065 0-3.127.703-.325 3.686 2.757 2.934 2.825 2.918 2.825-.686zm28 2.559c0-.243-.45-.72-1-1.059-.55-.34-1-.141-1 .441s.45 1.059 1 1.059 1-.198 1-.441zm82.615-4.736c-.35-1.747-.856-3.397-1.125-3.667-1.104-1.104-1.637.896-1.005 3.772.911 4.15 2.96 4.049 2.13-.105zM192.009 342c0-1.65-.45-3-1-3-1.112 0-1.38 4.286-.333 5.333 1.13 1.13 1.333.774 1.333-2.333zm207.546-1.455c3.197-3.196 3.163-6.265-.086-7.745-3.323-1.514-7.854.011-8.254 2.779-.306 2.115 3.207 7.421 4.913 7.421.535 0 2.077-1.105 3.427-2.455zm-194.098-.63a1.117 1.117 0 0 0-1.533-.362 1.117 1.117 0 0 0-.362 1.532 1.117 1.117 0 0 0 1.533.362 1.117 1.117 0 0 0 .362-1.532zm84.552-.474c0-.793-.502-1.441-1.116-1.441-.618 0-.887-.878-.603-1.963.282-1.08-.116-2.485-.884-3.123-1.77-1.47-1.836-.112-.248 5.187 1.087 3.629 2.851 4.458 2.851 1.34zm14 1.618c0-.518-.45-1.22-1-1.559-.55-.34-1 .084-1 .941s.45 1.559 1 1.559 1-.423 1-.941zm171.548-2.152c.88-1.701 1.38-3.314 1.11-3.583-.27-.27.372-1.353 1.426-2.407 2.761-2.762 2.416-3.563-2.181-5.072-5.048-1.657-5.109-3.447-.104-3.054l3.701.29-2.816-2.3c-2.491-2.033-2.697-2.617-1.775-5.04.573-1.508 1.714-2.741 2.535-2.741.917 0 1.271-.58.918-1.5-.634-1.653 2.117-2.153 3.1-.563.318.515 1.927 1.61 3.575 2.431 1.648.823 2.738 1.076 2.421.564-.316-.513-.136-.932.402-.932 1.533 0 4.9-6.11 5.677-10.301.57-3.074.347-4.073-1.166-5.219-2.882-2.182-3.772-1.741-1.986.985 1.996 3.046 2.047 4.932.175 6.486-.792.657-1.195 1.835-.895 2.617.443 1.155-.367 1.314-4.31.842-6.062-.724-7.355-1.117-7.355-2.233 0-1.078 5.045-6.628 6.184-6.802 2.125-.325 2.21-.52.729-1.657-2.452-1.882-1.878-4.768 1.337-6.724 2.054-1.249 2.547-2.001 1.668-2.545-.783-.484-2.049.232-3.394 1.92-1.978 2.48-22.524 42.443-22.524 43.81 0 .332 1.762 1.309 3.915 2.17 2.154.862 4.205 2.036 4.56 2.609 1.21 1.959 3.473 1.044 5.073-2.05zm-311.969-2.45c-.34-1.351-1.016-2.457-1.504-2.457-.834 0-.56 2.616.63 6 .848 2.409 1.6-.647.874-3.543zm46.421-.457c0-2.2-.349-4-.776-4-.427 0-.605 1.8-.395 4 .21 2.2.56 4 .776 4 .218 0 .395-1.8.395-4zm116.184 1.783c-.718-.717-1.184-.776-1.184-.15 0 .569.3 1.334.667 1.7.367.367.9.434 1.183.15.285-.284-.015-1.049-.666-1.7zm-147.184.776c0-.243-.45-.72-1-1.059-.55-.34-1-.141-1 .441s.45 1.059 1 1.059 1-.198 1-.441zm36.566-1.782c-1.106-.62-1.438-1.604-1.002-2.976.434-1.37.283-1.824-.456-1.367-1.169.722-1.526 4.814-.51 5.83.329.33 1.278.337 2.11.018 1.311-.503 1.293-.702-.142-1.505zM58.391 335.07c2.644-1.028 2.755-1.263 1.337-2.845-.85-.949-4.235-5.674-7.522-10.5l-5.976-8.776-2.762 3.275c-3.624 4.298-5.745 9.5-5.032 12.341.315 1.254 1.784 3.72 3.264 5.48 2.568 3.051 2.947 3.174 8.25 2.672 3.058-.29 6.856-1.03 8.441-1.647zm-8.934-1.524c-1.622-.682-3.502-1.907-4.18-2.723-1.686-2.032-2.032-6.008-.568-6.53 1.201-.427 10.3 7.283 10.3 8.727 0 1.497-2.647 1.747-5.552.526zm288.207.704c.287-5.112-.697-9.25-2.2-9.25-1.757 0-1.776.455-.283 6.924 1.299 5.626 2.248 6.515 2.483 2.326zm-164.655-6.309c0-5.278-.355-7.84-1.03-7.422-.59.364-.764 2.06-.408 3.958.487 2.596.221 3.554-1.22 4.391-1.696.987-1.703 1.074-.092 1.102 1.271.022 1.75.851 1.75 3.03 0 1.65.225 3 .5 3s.5-3.627.5-8.059zm31.605 5.33c-1.017-1.017-1.856.514-1.022 1.863.63 1.02.866 1.02 1.205.004.231-.695.149-1.535-.183-1.867zm538.814-.575c3.564-4.673 5.5-9.815 4.591-12.196-.98-2.57-10.766-11.748-12.065-11.315-.865.289-10.914 22.294-10.936 23.948-.007.506 7.705 1.94 14.69 2.731.66.075 2.334-1.35 3.72-3.168zm-6.216-9.867c.348-7.222 2.036-8.587 4.204-3.4 1.86 4.452.495 9.571-2.552 9.571-1.755 0-1.92-.618-1.652-6.17zM177.83 332.25c-.302-2.581-.084-2.75 3.545-2.75h3.867l-.617-5.897c-.339-3.243-.617-6.955-.617-8.25 0-1.382-.594-2.353-1.44-2.353-2.24 0-3.03-2.157-1.173-3.196 1.138-.637 1.594-2.025 1.436-4.369-.298-4.419-1.36-4.37-2.845.134-.788 2.387-1.641 3.39-2.578 3.03-.962-.368-1.4.22-1.4 1.887 0 1.978.644 2.544 3.5 3.08 1.925.361 3.5.85 3.5 1.085 0 1.857-4.365 8.349-5.614 8.349-1.314 0-1.483.951-1.021 5.75.304 3.163.572 5.862.594 6 .023.138.299.25.613.25s.427-1.238.25-2.75zm90.178.632c0-.55-.45-.722-1-.382-.55.34-1 1.068-1 1.618s.45.722 1 .382c.55-.34 1-1.068 1-1.618zm218.444-1.105c1.704-2.433 2.083-5.777.654-5.777-.496 0-1.48 1.462-2.185 3.25-.705 1.788-1.462 3.587-1.68 4-.958 1.802 1.804.536 3.21-1.473zm158.63-1.077c-.04-.385-.074-1.22-.074-1.855 0-.655-.865-.371-2 .655-2.593 2.347-2.557 3.642.075 2.668 1.14-.422 2.04-1.082 2-1.468zm-453.074-2.132c0-1.412-3.856-10.568-4.451-10.568-.567 0 .65 8.26 1.593 10.81.866 2.34 2.858 2.171 2.858-.242zm30-.686c0-.55-.45-.722-1-.382-.55.34-1 1.068-1 1.618s.45.722 1 .382c.55-.34 1-1.068 1-1.618zm394.436 1.223c.304-.493-.12-1.153-.941-1.469-.908-.348-1.495.003-1.495.895 0 1.618 1.563 1.986 2.436.574zm-411.436-1.074c0-.532-.675-.71-1.5-.393-.825.317-1.5.753-1.5.969 0 .216.675.393 1.5.393s1.5-.436 1.5-.969zm201.32-4.281c2.934-25.67 8.958-71.058 10.784-81.25 3.012-16.813 6.951-35.762 8.73-42 4.594-16.104 8.248-27.547 11.603-36.336 1.96-5.134 3.563-9.879 3.563-10.543 0-2.638 12.035-25.397 15.665-29.621 7.132-8.303 6.966-7.71 2.668-9.508-12.204-5.107-27.358-8.233-45.475-9.381l-9.643-.611 3.393 3.753c3.102 3.432 3.39 4.287 3.37 10-.027 7.775-2.412 13.31-7.562 17.556l-3.844 3.168 3.604 3.762c6.27 6.543 7.313 9.526 7.32 20.928.005 11.362-.72 12.845-8.812 18.007l-3.817 2.435 3.317 2.204c5.217 3.466 8.019 9.903 7.584 17.426-.423 7.31-2.224 10.276-9.054 14.912-4.375 2.97-4.505 3.184-2.265 3.747 3.648.915 10.152 8.958 11.467 14.18 2.863 11.372-3.62 21.318-14.484 22.22-6.889.57-11.634-1.126-15.517-5.548l-3.185-3.627.533-9.663c.61-11.063 2.222-15.125 6.982-17.587 2.913-1.506 3.027-1.73 1.233-2.413-1.087-.414-3.191-2.036-4.675-3.606-7.803-8.257-7.75-22.637.105-28.444 3.632-2.685 3.83-3.54 1.027-4.43-2.987-.949-8.787-6.294-10.57-9.743-2.874-5.556 1.082-24.462 6.244-29.85l2.705-2.823-4.185-4.54c-7.534-8.174-7.99-13.062-2.129-22.782 2.2-3.648 4-6.823 4-7.055 0-.233-6.187.649-13.75 1.959-11.567 2.004-24.759 5.567-35.02 9.46l-2.272.86 3.446 6.842c1.895 3.763 4.87 11.308 6.61 16.767 1.741 5.459 4.441 13.525 6 17.925 1.56 4.4 3.761 11.375 4.893 15.5 1.132 4.125 3.849 11.882 6.036 17.238 3.767 9.221 7.54 20.752 16.937 51.762 3.414 11.265 7.494 26.217 14.326 52.5l1.04 4 1.559-3.25c1.38-2.88 2.021-3.25 5.627-3.246 4.518.004 9.66 2.67 11.954 6.198 1.201 1.847 1.293 3.235.47 7.067-.85 3.956-1.817 5.373-5.664 8.31-3.828 2.924-5.34 3.49-8.664 3.246l-4.028-.296-.226 3.985c-.188 3.311-.067 3.605.718 1.736.644-1.535 1.792-2.25 3.61-2.25 4.094 0 10.179 2.1 12.037 4.153 2.522 2.787 3.028 2.32 3.682-3.403zm-19.008-35.83c-3.217-1.19-6.767-6.913-6.759-10.894.004-1.94 1.433-6.563 3.175-10.276l3.167-6.75 4.803.007c14.258.02 19.506 16.634 8.021 25.394-3.488 2.66-9 3.78-12.407 2.519zm10.193-7.334c3.693-3.692 4.194-7.214 1.443-10.141-3.005-3.2-7.288-3.196-10.493.01-3.34 3.34-3.264 7.763.18 10.473 3.449 2.712 5.911 2.617 8.87-.342zm-7.258-1.74c-1.583-1.582-1.607-5.085-.047-6.646 1.4-1.4 6.428-1.611 7.236-.304.304.492-.908 2.538-2.695 4.546-2.593 2.914-3.5 3.399-4.494 2.404zm20.356-48.68c-.32-.517.03-1.447.778-2.067.747-.62 2.17-3.251 3.161-5.847 2.425-6.349 2.96-4.085.645 2.726-1.79 5.265-3.406 7.094-4.584 5.188zm-41.45-4.916c-1.137-.963-2.334-3.1-2.66-4.75l-.592-3 1.538 3.337c2.153 4.67 4 3.541 4.364-2.666.166-2.844.656-5.171 1.09-5.171 1.746 0 3.169 5.407 2.535 9.637-.732 4.876-2.653 5.677-6.274 2.613zm37.836-1.272c-1.008-1.882-.74-2.795 1.888-6.456 6.47-9.01 6.526-20.705.136-28.656-3.638-4.527-3.694-5.19-.61-7.21 2.39-1.566 2.405-1.553 2.877 2.635.26 2.315 1.199 6.684 2.085 9.709 2.325 7.934 2.03 12.438-1.475 22.538-1.71 4.929-3.25 9.113-3.419 9.298-.17.184-.837-.651-1.482-1.858zm11.011-27.86c0-.55.45-1.278 1-1.618.55-.34 1-.168 1 .382s-.45 1.278-1 1.618c-.55.34-1 .168-1-.382zm-62.841-9.942c-1.489-5.047-1.044-7.699.734-4.377.675 1.261 1.073 3.735.884 5.497l-.343 3.204-1.275-4.324zm10.841 2.939c0-.487 1.068-1.585 2.373-2.44 1.776-1.163 2.25-2.199 1.884-4.115-.296-1.544-.034-2.56.658-2.56 1.885 0 2.343 2.69 1.1 6.459-.911 2.759-1.705 3.541-3.592 3.541-1.332 0-2.423-.398-2.423-.885zm55.5-1.115c.34-.55.817-1 1.06-1 .242 0 .44.45.44 1s-.476 1-1.059 1c-.582 0-.78-.45-.44-1zm-3.023-7.039c-.392-.634.023-1.89.924-2.79 1.259-1.259 2.037-1.385 3.368-.545.952.6 1.731 1.718 1.731 2.483 0 1.721-5.045 2.435-6.023.852zm-56.069-12.711c-.89-2.063-1.848-5.596-2.127-7.851-.464-3.752-.226-4.302 2.79-6.449 2.96-2.108 3.2-2.149 2.363-.399-.514 1.072-.934 5.662-.934 10.2 0 4.538-.106 8.25-.236 8.25s-.965-1.689-1.856-3.751zm59.26 3.083c-1.471-1.47-.505-3.366 2.51-4.925 2.976-1.539 3.259-1.532 4.461.113 1.87 2.558.001 5.479-3.507 5.479-1.54 0-3.098-.3-3.465-.667zm-5.992-13.9c-.48-5.147-1.393-8.067-3.658-11.711-1.66-2.67-3.018-5.213-3.018-5.651 0-.438 2.025-.13 4.5.685 4.875 1.604 5.16 2.312 3.356 8.333-.957 3.194-.875 4.232.5 6.33 1.995 3.046 2.063 4.626.302 7.034-1.185 1.621-1.416 1.035-1.982-5.02zm-69.743 2.517c-2.135-3.355-3.604-7.22-5.869-15.436-1.917-6.953-2.004-10.116-.143-5.224.67 1.764 1.852 2.668 3.778 2.889 2.308.264 2.763.761 2.583 2.821-.12 1.375.264 5.017.854 8.094.59 3.076.91 6.428.714 7.45-.318 1.65-.53 1.585-1.917-.594zm77.647.18c-.296-.48.326-1.869 1.383-3.087 1.377-1.588 2.528-2.022 4.065-1.534l2.143.68-2.26 2.406c-2.323 2.473-4.384 3.066-5.33 1.534zm10.42-7.313c0-2.322 1.022-4.927 3.007-7.667 1.653-2.282 3.203-4.15 3.443-4.15.473 0-5.18 14.063-5.97 14.854-.264.264-.48-1.103-.48-3.037zm-65.84-11.098c-.638-2.532-1.16-5.592-1.16-6.8 0-1.908.392-1.702 3 1.581 3.528 4.439 3.552 4.597 1.16 7.551l-1.84 2.273-1.16-4.605zm73.84-12.493c0-3.91.45-7.386 1-7.726 1.73-1.068 1.112-2.313-2.521-5.084-3.285-2.506-3.644-2.576-5.33-1.051-2.626 2.377-3.816 2.028-5.038-1.478-1.031-2.958-.974-3.08 1.152-2.421 3.02.934 15.574 4.22 18.987 4.969 3.369.739 3.483 2.53.4 6.238-1.292 1.555-3.59 5.077-5.105 7.827-1.515 2.75-2.933 5.187-3.15 5.417-.217.229-.395-2.782-.395-6.691zm-77.393 1.192c-.333-.87-.607-2.895-.607-4.5 0-2.108-.485-2.921-1.75-2.929-.962-.006-3.325-.26-5.25-.566-3.124-.495-3.682-.225-5.203 2.511-2.15 3.868-3.797 3.931-3.797.145 0-2.445-.498-3.03-3.066-3.594-1.769-.388-4.346-.143-6.093.58-2.64 1.095-2.952 1.627-2.443 4.175.403 2.012.215 2.798-.602 2.525-1.362-.454-3.003-5.679-2.343-7.46.534-1.443 6.777-3.359 22.238-6.827 12.497-2.803 14.831-2.471 12.116 1.72-2.218 3.425-2.767 6.808-1.874 11.552.775 4.12-.096 5.873-1.326 2.668zm51.048-5.918c.43-3.137.087-5.889-1.134-9.085-.963-2.522-1.362-4.93-.886-5.351.476-.422 3.34-.447 6.365-.056 3.025.39 4.713.774 3.75.851-1.35.109-1.75 1.051-1.75 4.126 0 2.702-.993 5.6-3.085 9-1.698 2.758-3.264 5.015-3.481 5.015-.218 0-.118-2.025.221-4.5zm-197.655 201c.685-.825 2.09-1.5 3.123-1.5 1.64 0 1.873-.791 1.846-6.25-.03-5.713-.158-6.083-1.5-4.309-.808 1.068-1.469 2.53-1.469 3.25 0 .72-.843 1.309-1.875 1.309-1.3 0-2.066.958-2.5 3.125-1.19 5.949-.296 7.594 2.375 4.375zm246.129-1.75c1.087-2.04 1.044-2.122-.465-.878-.915.755-1.664 1.768-1.664 2.25 0 1.528.89.955 2.129-1.372zm-124.687-4.25c.441-1.89.352-2.63-.242-2-.518.55-1.256 2.35-1.641 4-.441 1.89-.352 2.63.242 2 .517-.55 1.256-2.35 1.641-4zm-137.442 3.122c0-.207-.675-.937-1.5-1.622-1.228-1.02-1.5-.951-1.5.378 0 .892.675 1.622 1.5 1.622s1.5-.17 1.5-.378zm-6.487-12.237c1.7-12.772 1.801-15.385.599-15.385-.49 0-.827.787-.75 1.75.118 1.496-.606 1.702-4.998 1.418l-5.136-.332.469 4.832c.653 6.723.578 6.585 3.749 6.923 1.567.167 3.284.738 3.815 1.27 1.346 1.346.01 3.139-2.34 3.139-1.927 0-1.925.07.129 4.097 1.15 2.253 2.298 3.889 2.552 3.635s1.114-5.36 1.91-11.347zm32.709 8.526c-.496-4.212-2.222-4.622-2.222-.528 0 2.597.393 3.645 1.25 3.34.688-.244 1.125-1.51.972-2.812zm384.778 1.589c0-1.05 1.06-1.5 3.532-1.5 5.074 0 5.421-1.747 2.012-10.124-.428-1.053.406-2.792 2.371-4.944 1.667-1.825 2.775-3.57 2.461-3.875-.314-.307-1.858.979-3.432 2.856-2.403 2.866-4.18 6.528-8.662 17.837-.273.688.003 1.25.611 1.25.61 0 1.107-.675 1.107-1.5zm3.5-8.5c.34-.55.817-1 1.06-1 .242 0 .44.45.44 1s-.476 1-1.059 1c-.582 0-.78-.45-.44-1zm-460.13 5.097c-.382-1.908-1.011-2.855-1.544-2.322-.533.533-.466 2.041.165 3.7 1.374 3.614 2.21 2.778 1.379-1.378zm42.437.377c-.308-.308-.867.247-1.242 1.233-.543 1.425-.428 1.54.56.56.683-.679.99-1.486.682-1.793zm6.784-5.217c-.298-.298-1.201.005-2.007.674-1.48 1.228-1.183 3.39.822 5.986.859 1.112 1.162.607 1.41-2.35.175-2.072.073-4.012-.225-4.31zM483.51 319c-.34-.55-1.069-1-1.619-1s-.721.45-.382 1c.34.55 1.068 1 1.618 1s.722-.45.382-1zm147.726-9.75c4.054-5.912 7.657-11.223 8.007-11.8.396-.653-.653-1.05-2.772-1.05-3.227 0-3.322.097-1.771 1.81 1.528 1.689 1.476 1.995-.776 4.542-1.328 1.502-2.793 3.011-3.255 3.354-.462.343-1.389 1.697-2.058 3.009-.67 1.312-1.976 2.323-2.9 2.248-1.273-.104-1.544.418-1.111 2.14.314 1.254.085 2.58-.51 2.947-1.025.634-1.561 3.55-.652 3.55.236 0 3.745-4.838 7.798-10.75zm-453.227 7.632c0-.55-.45-.722-1-.382-.55.34-1 1.068-1 1.618s.45.722 1 .382c.55-.34 1-1.068 1-1.618zm291.896-4.632c1.723-3.438 2.91-6.25 2.64-6.25-.824 0-6.516 10.396-6.526 11.917-.013 1.943.301 1.485 3.886-5.667zm26.104 6.309c0-.243-.45-.72-1-1.059-.55-.34-1-.141-1 .441s.45 1.059 1 1.059 1-.198 1-.441zM609.703 316c1.37-3.627.153-3.94-2.079-.535-1.95 2.976-2.002 3.535-.334 3.535.705 0 1.79-1.35 2.413-3zm-444.694 1c0-.55-.476-1-1.059-1-.582 0-.78.45-.44 1s.816 1 1.058 1c.243 0 .441-.45.441-1zm7.931-23.473c-.159-21.89-.213-22.446-2.099-21.437-1.203.644-1.821 1.865-1.634 3.223.249 1.8-.14 2.14-2.198 1.925-1.375-.145-3.175-.292-4-.329-.825-.036-2.511-.556-3.748-1.156-1.237-.599-2.477-.86-2.756-.582-.49.49 2.462 21.922 3.129 22.722.18.215.9-.063 1.601-.62.701-.557 2.962-1.316 5.024-1.688 4.12-.742 5.097.71 2 2.974-1.644 1.203-1.614 1.424.5 3.675 1.238 1.317 2.25 2.703 2.25 3.08 0 1.522-3.028.533-5.983-1.954-3.8-3.198-5.06-2.247-4.16 3.14.592 3.55 1.004 4.026 3.655 4.234 2.733.215 2.796.153.738-.718-1.237-.523-2.25-1.416-2.25-1.984 0-1.13 3.907-1.389 6.419-.425 2.148.825 2.026 5.285-.169 6.128-1.48.57-1.365.78.75 1.37 1.375.382 2.634.74 2.798.795.163.055.223-10.013.133-22.373zm-7.473-3.595c-.363-.588-1.306-.82-2.097-.517-.817.314-1.712-.195-2.075-1.182-.352-.953-1.076-2.025-1.608-2.382-.533-.357-.664-1.445-.29-2.417.517-1.348.956-1.49 1.845-.601 1.506 1.506 4.282 1.487 6.736-.045 2.716-1.697 3.726-.213 1.516 2.23-1.409 1.556-1.563 2.304-.66 3.206.646.647 1.175 1.536 1.175 1.976 0 1.191-3.778.968-4.542-.268zm36.276 21.454c-.29-1.515.1-2.753 1.029-3.273.822-.46 1.094-1.084.605-1.386-1.68-1.038-4.202 1.876-4.916 5.678-.694 3.703-.653 3.773 1.517 2.612 1.635-.875 2.106-1.845 1.765-3.63zm196.066.414c2.415-2.415 1.38-5.621-2.393-7.411-3.052-1.449-3.73-1.493-4.509-.297-1.728 2.658-2.12 5.935-.887 7.421 1.484 1.787 6.118 1.958 7.79.287zm-254.884-1.325c-.902-3.758-1.299-4.475-2.48-4.475-1.05 0-1.107.645-.27 3.045.584 1.675 1.494 2.902 2.023 2.725.529-.176.856-.759.727-1.295zm86.084-2.04c0-.727 1-2.022 2.223-2.878 2.208-1.547 2.202-1.557-1-1.557-2.742 0-3.223.36-3.223 2.418 0 1.33-.309 3.243-.687 4.25-.605 1.613-.485 1.668 1 .46.928-.755 1.687-1.967 1.687-2.694zm73.743 1.606c.803-1.287.921-2.745.343-4.25-.879-2.29-.88-2.29-1.983.524-2.026 5.173-.884 7.768 1.64 3.726zM215.009 310c0-.55-.45-1-1-1s-1 .45-1 1 .45 1 1 1 1-.45 1-1zm4.416-.641c.527-1.373.38-1.435-.893-.378-1.735 1.44-1.916 2.019-.63 2.019.492 0 1.177-.739 1.523-1.641zm-65.943-16.647c-.922-7.267-2.11-13.887-2.641-14.712-.683-1.061-.804-.538-.416 1.788.395 2.36.131 3.449-.933 3.857-2.235.858-1.78 2.666.519 2.065 2.13-.557 1.92.363-.809 3.54-1.362 1.586-1.311 1.75.543 1.75 1.613 0 2.146.793 2.52 3.75.305 2.42-.037 4.338-.964 5.41-1.273 1.47-1.191 1.737.72 2.344 1.699.539 2.027 1.206 1.543 3.136-.339 1.349-.265 2.994.164 3.656 1.517 2.345 1.433-3.353-.246-16.584zM44.009 308.616c0-.886-8.234-20.183-8.918-20.9-1.083-1.133-4.4 6.759-4.302 10.233.112 3.94 3.92 8.894 7.677 9.986 3.416.993 5.543 1.254 5.543.681zm-9.859-4.946c-1.59-1.916-1.85-5.875-.42-6.383 1.354-.482 5.47 5.595 4.669 6.892-.772 1.25-3.012.98-4.249-.51zm289.86 2.271c0-.518-.45-.941-1-.941s-1 .702-1 1.559.45 1.28 1 .941c.55-.34 1-1.041 1-1.559zm317.984-2.882c.01-1.018-.399-.875-1.396.489-.776 1.061-1.17 2.32-.875 2.798.648 1.047 2.25-1.271 2.271-3.287zM315.51 305c-.34-.55-1.293-1-2.118-1s-1.221.45-.882 1c.34.55 1.293 1 2.118 1s1.222-.45.882-1zm127.654-1.75c1.134-2.826 5.777-22.763 5.821-25 .014-.688-.713-1.25-1.614-1.25-1.398 0-1.553-.846-1.049-5.73.385-3.731.265-5.215-.345-4.25-.515.814-.943 2.929-.951 4.7-.008 1.77-.66 7.846-1.448 13.5-2.922 20.97-3.003 24.479-.414 18.03zm-232.154.75c0-.55-.45-1-1-1s-1 .45-1 1 .45 1 1 1 1-.45 1-1zm12.73-.604c-.333-.332-1.195-.368-1.917-.08-.798.32-.56.557.604.605 1.054.043 1.645-.193 1.313-.525zm336.006-12.833c8.526-7.328 9.116-8.07 7.682-9.654-1.461-1.615-1.8-1.575-5.735.675-5.291 3.026-6.637 3.061-3.857.102 2.57-2.735 2.718-4.735.649-8.736-1.88-3.636-2.492-3.656-6.265-.2-1.651 1.512-3.837 3.237-4.856 3.833-1.843 1.077-8.354 10.18-8.354 11.679 0 .431 1.039.104 2.308-.728 2.189-1.434 2.5-1.315 6.035 2.305 4.164 4.264 4.101 5.717-.391 9.039-1.623 1.2-2.952 2.89-2.952 3.756 0 1.169.836.84 3.25-1.28 1.788-1.57 7.407-6.426 12.486-10.791zM552.51 286c.34-.55.817-1 1.06-1 .242 0 .44.45.44 1s-.476 1-1.059 1c-.582 0-.78-.45-.44-1zm-411.073 13.316c-.093-1.549-.227-3.63-.298-4.625-.07-.995-.597-1.52-1.17-1.165-.805.497-.815 5.334-.02 9.283.033.17.42.087.859-.184.438-.27.721-1.76.629-3.309zm39.268-5.378l.076-5.071-2.385 2.24c-1.897 1.783-2.386 3.265-2.386 7.242v5l2.31-2.17c1.794-1.686 2.325-3.297 2.385-7.24zm568.057 5.767c2.7-2.467 4.362-7.888 3.594-11.729-.524-2.62-6.809-9.847-7.747-8.908-.237.238-2.008 5.742-3.935 12.231l-3.504 11.8 4.67-.669c2.569-.368 5.684-1.594 6.922-2.725zm-4.085-5.372c-1.356-1.356-.65-6.125 1-6.759 2.366-.907 3.197.422 2.613 4.176-.471 3.022-2.047 4.15-3.613 2.583zM630.01 300c0-.55-.701-1-1.559-1-.857 0-1.28.45-.94 1 .34.55 1.04 1 1.558 1s.941-.45.941-1zm-419-1c0-.55-.476-1-1.059-1-.582 0-.78.45-.44 1s.816 1 1.058 1c.243 0 .441-.45.441-1zm441.362-.5c-.317-.825-.752-1.5-.969-1.5-.216 0-.393.675-.393 1.5s.436 1.5.97 1.5c.532 0 .709-.675.392-1.5zM202.51 298c.34-.55.142-1-.44-1-.583 0-1.06.45-1.06 1s.199 1 .441 1c.243 0 .72-.45 1.06-1zm104.318-4.994c.602-2.472.725-4.864.273-5.315-.81-.81-3.09 6.536-3.09 9.952 0 2.91 1.635.218 2.817-4.637zm341.182 2.876c0-.55-.45-.722-1-.382-.55.34-1 1.068-1 1.618s.45.722 1 .382c.55-.34 1-1.068 1-1.618zm-290.337-2.132c-.278-.688-.505-.125-.505 1.25s.227 1.938.505 1.25c.277-.688.277-1.813 0-2.5zm151.633 0c-.487-2.535-3.296-4.027-3.296-1.75 0 .55.398 1 .884 1s1.143.993 1.46 2.206c.808 3.09 1.594 1.886.952-1.456zM496.009 295c0-.55-.45-1-1-1s-1 .45-1 1 .45 1 1 1 1-.45 1-1zm-271.015-3.309c.008-.445-.435-.53-.985-.191-.55.34-.993 1.379-.984 2.309.013 1.457.149 1.484.984.191.534-.825.977-1.864.985-2.309zm-34.985 1.703c0-.333-1.194-2.02-2.654-3.75-2.551-3.023-2.574-3.156-.602-3.45 1.13-.169 2.256-1.083 2.504-2.032.369-1.412-.115-1.66-2.667-1.361-3.007.35-3.104.512-2.737 4.531.21 2.293.836 4.73 1.391 5.418 1.02 1.26 4.765 1.768 4.765.644zm55.969-4.835c-.018-.583-.693-.185-1.5.882-.808 1.068-1.454 2.418-1.437 3 .018.583.693.185 1.5-.882.808-1.068 1.454-2.418 1.437-3zm380.803 2.628c.243-.73-.214-.954-1.188-.58-.871.334-1.584 1.046-1.584 1.583 0 1.315 2.273.492 2.771-1.003zm-428.063-6.812c-.226-.226-1.715.27-3.31 1.1-1.594.832-3.574 1.532-4.399 1.555-.96.027-.45.9 1.419 2.428l2.918 2.385 1.89-3.529c1.041-1.94 1.708-3.713 1.482-3.94zM356.509 288c-.9-4.101-1.708-3.293-.875.875.352 1.757.848 2.986 1.103 2.731.254-.255.152-1.877-.228-3.606zm106.526-.825c-1.519-.506-4.026 1.75-4.026 3.622 0 1.18.613.976 2.56-.853 1.408-1.322 2.067-2.568 1.466-2.769zm41.69-1.536c-.136-1.331.578-2.465 1.933-3.069 2.403-1.07 5.299-5.487 4.69-7.155-.217-.596.528-1.496 1.655-2 1.128-.503 3.167-3.39 4.532-6.415 1.365-3.025 1.868-4.713 1.118-3.75-1.83 2.347-2.863 2.21-5.644-.75-1.291-1.375-2.659-2.5-3.038-2.5-.38 0-1.463 2.025-2.408 4.5-.946 2.475-2.357 4.5-3.136 4.5-2.379 0-1.747 5.533.832 7.285 1.868 1.269 2.054 1.842 1.094 3.372-.637 1.014-1.622 1.74-2.19 1.613-1.078-.24-1.541.913-2.704 6.73-.698 3.495-.696 3.497 1.392 1.626 1.15-1.031 1.994-2.825 1.875-3.987zM512.51 268c-.34-.55-.141-1 .441-1 .583 0 1.06.45 1.06 1s-.199 1-.442 1c-.242 0-.719-.45-1.059-1zm-294 21c.34-.55-.083-1-.94-1-.858 0-1.56.45-1.56 1s.424 1 .941 1c.518 0 1.22-.45 1.56-1zm98.5-1.994c0-1.41-2.777-.592-3.856 1.136-1.031 1.65-.912 1.71 1.363.673 1.372-.625 2.493-1.439 2.493-1.809zm317.503-3.837c-.664-.664-4.503 2.883-4.503 4.16 0 .56 1.124-.036 2.496-1.325 1.373-1.29 2.276-2.566 2.007-2.835zm9.497 3.331c0-.933-.944-1.5-2.5-1.5-3.111 0-3.297 1.707-.25 2.294 1.238.239 2.363.495 2.5.57.138.075.25-.539.25-1.364zm-466.337-2.75c-.278-.688-.505-.125-.505 1.25s.227 1.937.505 1.25c.277-.688.277-1.813 0-2.5zm125.02 1.062c-.319-.797-.556-.56-.604.605-.043 1.054.193 1.644.526 1.312.332-.332.367-1.195.079-1.917zm213.317-1.705c0-2.615-2.399-3.298-3.785-1.079-.868 1.39-.851 1.948.072 2.322 2.485 1.008 3.713.596 3.713-1.243zM32.745 280.25c-3.471-12.212-4.736-18.735-4.736-24.438 0-3.747-.251-6.812-.56-6.812-1.534 0-9.486 7.699-10.514 10.18-1.615 3.899-.666 12.344 1.679 14.939 1.789 1.98 11.89 7.729 13.762 7.833.477.026.643-.74.37-1.702zm-11.747-9.5c-1.238-2.032-1.982-5.03-1.985-8-.003-3.977.301-4.75 1.869-4.75 1.42 0 2.031.996 2.532 4.127.363 2.27 1.32 5.07 2.128 6.222 2.12 3.027 1.866 5.651-.547 5.651-1.2 0-2.816-1.314-3.997-3.25zm332.695 7.063c-.32-.798-.557-.561-.605.604-.043 1.054.193 1.644.526 1.312.332-.332.367-1.195.079-1.916zM238.009 278c0-.55-.198-1-.44-1-.243 0-.72.45-1.06 1-.34.55-.141 1 .441 1 .583 0 1.06-.45 1.06-1zm336-.5c1.04-1.253.896-1.5-.877-1.5-1.22 0-2.123.638-2.123 1.5 0 .825.395 1.5.878 1.5s1.438-.675 2.122-1.5zm71.503-3.331c-.664-.664-4.503 2.883-4.503 4.16 0 .56 1.124-.036 2.497-1.325 1.372-1.29 2.275-2.566 2.006-2.835zm-429.8-1.951c-1.873-.399-4.703 1.364-4.703 2.93 0 .497 1.463.127 3.25-.822 2.56-1.358 2.868-1.807 1.452-2.108zM242.008 274c0-.55-.45-1-1-1s-1 .45-1 1 .45 1 1 1 1-.45 1-1zm13-1.559c0-.793-.401-1.441-.893-1.441-1.103 0-2.179 2.595-1.398 3.375.875.875 2.291-.32 2.291-1.934zm51 .618c0-.518-.45-1.22-1-1.559-.55-.34-1 .084-1 .941s.45 1.559 1 1.559 1-.423 1-.941zm297.748-.598c3.597-1.503 5.206-3.008 5.237-4.898.008-.515-1.247.272-2.79 1.75-1.869 1.791-3.89 2.687-6.058 2.687-1.915 0-3 .412-2.637 1 .84 1.358 1.934 1.263 6.248-.539zM133.58 263.39c.632-2.694.562-2.78-1.023-1.278-.936.887-1.894 3.587-2.13 6l-.43 4.388 1.453-3.11c.798-1.711 1.756-4.411 2.13-6zm429.93 6.527c0-.78-1.013-1.56-2.25-1.737-2.478-.351-2.914.756-1.038 2.633 1.496 1.496 3.287 1.008 3.287-.896zM241.5 261.158c-.608-.607-8.41 8.064-8.406 9.342.002.55 1.997-1.224 4.433-3.943 2.436-2.718 4.224-5.148 3.973-5.399zm352.058 8.913c.523-.51 2.3-1.073 3.95-1.25l3-.321-2.168-2.132-2.169-2.131-3.277 3.381c-2.14 2.209-2.759 3.382-1.782 3.382.823 0 1.924-.418 2.446-.929zm163.846-2.879c4.279-2.5 6.76-6.392 7.337-11.508.494-4.387.325-4.743-4.86-10.231-2.955-3.128-6.385-6.073-7.623-6.545-1.237-.472-2.25-1.241-2.25-1.709 0-.467 2.92-3.218 6.488-6.114 5.494-4.457 6.72-6.047 8.007-10.379 3.866-13.019-4.12-23.85-19.245-26.098-4.683-.696-4.88-.387-2.865 4.52.761 1.855 2.212 7.872 3.223 13.372 1.998 10.861 2.575 37.908 1.091 51.155l-.801 7.155 4.301-.963c2.366-.53 5.604-1.724 7.197-2.655zm-3.44-7.942c-.024-1.512-.636-4.41-1.36-6.439-.93-2.6-1.005-4.002-.257-4.75 2.927-2.927 5.927.753 5.839 7.163-.082 5.915-4.13 9.776-4.221 4.026zm.495-47.359c-1.018-2.26-2.887-4.786-4.151-5.615-1.265-.828-2.3-2.113-2.3-2.856 0-1.685 3.406-3.59 5.178-2.894 2.589 1.014 5.822 7.38 5.822 11.46 0 5.32-2.127 5.275-4.548-.095zM614.937 266.75c1.416-2.264 2.14-7.91.917-7.154-.998.618-3.823 9.404-3.023 9.404.384 0 1.332-1.012 2.106-2.25zm-365.442-1.366c1.116-1.703 1.273-2.47.45-2.196-1.664.555-4.47 4.812-3.172 4.812.554 0 1.779-1.177 2.722-2.616zM603.509 264c-.34-.55-1.293-1-2.118-1s-1.221.45-.882 1c.34.55 1.293 1 2.118 1s1.222-.45.882-1zm-264.22-6.804c-.914-2.858-2.024-5.196-2.466-5.196-.443 0 .093 2.362 1.19 5.25s1.996 5.438 1.996 5.667c0 .229.212.205.471-.054.26-.26-.277-2.81-1.19-5.667zm304.72-2.493c0-1.342-2.899 1.228-4.19 3.715-.965 1.858-.797 1.821 1.555-.342 1.45-1.334 2.635-2.851 2.635-3.373zM234.51 257c.996-1.1 1.36-2 .81-2s-1.814.9-2.81 2c-.995 1.1-1.36 2-.81 2s1.815-.9 2.81-2zm240-.207c.7-.744.247-.878-1.5-.443-1.375.343-3.062.629-3.75.636-.687.008-1.25.513-1.25 1.122 0 1.314 4.978.307 6.5-1.315zm35.5-1.793c0-.55-.787-.993-1.75-.985-1.495.013-1.531.157-.25.985 1.888 1.22 2 1.22 2 0zm-267.98-3.524c1.933-2.329.554-2.767-1.514-.482-.999 1.103-1.35 2.006-.783 2.006.568 0 1.602-.686 2.297-1.524zM225.01 250c0-.55-.198-1-.44-1-.243 0-.72.45-1.06 1-.34.55-.141 1 .441 1 .583 0 1.06-.45 1.06-1zm177.719-1.901c1.653-2.17 1.592-9.42-.113-13.5-1.884-4.51-5.178-6.599-10.405-6.599-6.085 0-10.2 4.057-10.2 10.055 0 3.618.595 4.804 4.25 8.455 4.176 4.174 4.344 4.238 9.75 3.718 3.352-.323 5.975-1.155 6.718-2.13zm-14.122-4.264c-1.816-2.594-2.097-8.032-.561-10.9.756-1.414 2.103-1.935 5-1.935h3.964l-.1 4.75c-.154 7.385-1.099 9.705-4.092 10.057-1.815.213-3.103-.39-4.21-1.972zm-360.165-12.96c.392-7.22 1.143-14.257 1.669-15.64.525-1.382.794-2.674.596-2.872-.197-.197-3.04.798-6.315 2.211-5.01 2.162-6.387 3.336-8.666 7.39-2.743 4.88-2.893 8.682-.526 13.312 1.037 2.027 9.746 8.662 11.42 8.7.721.015 1.358-4.56 1.822-13.102zm-10.987 2.017C15.105 228.35 17.822 220 21.649 220c1.256 0 1.433.583.836 2.75-.417 1.512-.707 5.112-.645 8 .134 6.186-1.805 7.133-4.386 2.142zm74.555 10.12c0-1.823 13.434-14.241 20.174-18.647 8.19-5.354 22.491-12.36 25.274-12.38 2.76-.02 4.147-1.05 4.97-3.686.925-2.966 9.928-16.7 14.688-22.407 2.113-2.535 6.093-6.135 8.843-8 2.75-1.866 5.011-3.64 5.026-3.942.04-.86-19.01 2.632-23.527 4.313-12.025 4.477-37.143 20.428-44.168 28.05-5.813 6.306-8.005 11.143-10.823 23.884-2.743 12.4-2.89 13.803-1.457 13.803.55 0 1-.444 1-.988zM695.51 232.23c-.896-3.15-3.582-9.779-5.97-14.729-3.907-8.1-5.524-10.153-16.186-20.538-10.234-9.97-13.137-12.184-21.345-16.281-9.41-4.698-20.596-7.681-28.8-7.681h-3.624l3.16 2.75c4.508 3.925 24.218 31.766 24.899 35.173.486 2.43 1.179 2.951 4.656 3.508 5.031.804 11.953 4.215 18.924 9.326 18.49 13.554 24.804 18.503 24.945 19.553.088.655.343-.282.565-2.08.223-1.8-.328-5.85-1.224-9zM44.672 237.75c-.278-.688-.505-.125-.505 1.25s.227 1.938.505 1.25c.277-.688.277-1.813 0-2.5zM565.009 226c-2.03-1.312-15.31-1.312-14.5 0 .34.55 4.08.993 8.31.985 5.334-.01 7.23-.313 6.19-.985zm-92.5-7c.731-1.183-.247-1.183-3 0-1.928.829-1.92.862.191.93 1.205.038 2.47-.38 2.81-.93zm-17.524-5.75c1.04-.963 5.859-3.55 10.708-5.75l8.816-4h15.144c12.561 0 15.46.278 17 1.628 1.02.895 4.106 1.947 6.856 2.339 2.75.39 5.796 1.423 6.768 2.293 1.62 1.45 2.455 1.363 10-1.033 4.528-1.439 9.47-2.874 10.982-3.19 1.513-.316 2.75-.947 2.75-1.403 0-.455-2.607-3.934-5.794-7.73l-5.794-6.904-17.456-.643c-19.17-.706-36.81-2.933-46.08-5.818l-5.991-1.865-1.016 2.663c-1.789 4.686-8.594 25.564-9.262 28.413-.75 3.2-.242 3.415 2.369 1zm-123.438-2c-.373-1.512-2.953-8.375-5.731-15.25a6600.774 6600.774 0 0 1-6.149-15.25c-1.375-3.449-2.359-3.434-9.436.138-11.07 5.586-15.165 6.35-34.991 6.527l-18.27.162-3.21 3.212-3.212 3.211 6.48.022c9.899.033 23.186 3.412 34.952 8.888 12.9 6.004 18.803 7.931 29.36 9.583 11.652 1.822 10.984 1.904 10.207-1.243zm66.095.668c4.793-2.962 6.367-5.691 6.367-11.037 0-4.098-.435-5.056-3.534-7.777-1.944-1.707-4.307-3.152-5.25-3.21-7.315-.452-11.735 1.71-13.852 6.778-4.835 11.572 5.915 21.645 16.27 15.246zM387.01 211c-3.027-3.027-2.879-13.27.223-15.443 2.585-1.81 7.349-2.06 8.352-.437.39.632-.675 2.19-2.441 3.573-3.42 2.676-3.79 4.493-1.688 8.29.935 1.69 1.072 3.05.43 4.25-1.224 2.287-2.412 2.23-4.876-.233zm-194-.52c2.475-.743 12.99-4.553 23.364-8.469 18.075-6.821 19.065-7.337 23.654-12.315l4.789-5.196-2.825-.758c-2.322-.624-38.322-7.34-49.565-9.247-8.991-1.525-26.984 14.67-35.797 32.221l-2.619 5.216 10.75.284c14.559.385 22.88-.127 28.25-1.737zm-22.777-4.037c-4.877-3.416-1.24-10.227 10.404-19.48 6.907-5.488 11.373-7.437 11.373-4.963 0 .55-.454 1-1.01 1-1.366 0-16.99 14.993-16.99 16.304 0 .571.745 1.861 1.655 2.867 1.543 1.705 1.533 1.965-.155 3.829-2.177 2.406-2.443 2.428-5.277.443zm15.777-5.908c0-.255.9-.946 2-1.535 1.597-.854 2-.76 2 .465 0 .868-.868 1.535-2 1.535-1.1 0-2-.21-2-.465zm-.467-8.785c2.649-2.337 6.347-5.398 8.219-6.8l3.403-2.55 14.492 1.85c19.597 2.504 22.821 3.905 16.502 7.173-2.192 1.134-3.124 1.202-4.032.293-1.37-1.37-13.707-1.548-19.424-.28-3.297.731-4.009.557-5.307-1.296-.824-1.177-1.957-2.14-2.517-2.14-.56 0-4.049 1.8-7.752 4-3.703 2.2-7.108 4-7.566 4-.457 0 1.334-1.912 3.982-4.25zm446.044 17.588c-.862-2.244-8.97-14.347-11.282-16.838-1.02-1.1-4.452-5.267-7.626-9.26-8.585-10.802-8.157-10.64-21.973-8.315-10.242 1.725-39.813 10.258-42.02 12.126-.601.509 6.245 12.727 8.817 15.734.134.157 5.14.473 11.126.702 5.985.23 13.131 1.118 15.881 1.975 7.74 2.41 16.783 3.695 31.5 4.475 7.425.394 14.111.794 14.857.89.878.112 1.132-.414.72-1.489zm-27.077-3.045c-5.064-.418-8.907-2.293-4.7-2.293 1.256 0 2.2-.623 2.2-1.45 0-2.842 3.132-3.423 7.76-1.439 2.424 1.04 5.044 1.889 5.823 1.889 1.626 0 1.92-2.57.403-3.509-1.166-.72-4.364-6.814-5.501-10.483-1.595-5.144 2.706.258 6.162 7.74 3.993 8.644 4.057 9.252.978 9.252-1.306 0-3.668.159-5.25.353-1.58.194-5.125.167-7.875-.06zm-39.25-7.025c-2.337-.21-4.25-.823-4.25-1.36 0-1.162 10.026-.097 11.45 1.216.568.524.166.806-1 .701l-6.2-.557zm9.25-5.268c-.34-.55.084-1 .941-1 .858 0 1.56.45 1.56 1s-.424 1-.942 1c-.517 0-1.219-.45-1.559-1zm-16.5-3.441c0-.857.45-1.559 1-1.559s1 .423 1 .941-.45 1.22-1 1.559c-.55.34-1-.084-1-.941zm29.69-.26c-.269-.44-.646-2.149-.839-3.799-.29-2.479.04-3.056 1.9-3.32 1.896-.269 2.25.144 2.25 2.628 0 2.886-2.346 6.068-3.31 4.49zm-18.69-1.157c0-1.028 3.03-2.446 3.73-1.747.243.244-.497.945-1.644 1.56-1.148.613-2.086.698-2.086.187zm27.5-.142c.34-.55.817-1 1.06-1 .242 0 .44.45.44 1s-.476 1-1.059 1c-.582 0-.78-.45-.44-1zm6.43-2.684c-.561-1.477-.887-3.476-.725-4.443.256-1.52.769-1.367 3.795 1.128 3.426 2.824 3.458 2.918 1.5 4.41-2.783 2.123-3.402 1.975-4.57-1.095zM38.682 193.25c2.285-4.813 5.83-11.627 7.88-15.144l3.726-6.395-7.064.506c-7.598.543-14.684 3.76-17.668 8.02-1.79 2.555-2.017 8.386-.485 12.448 1.184 3.14 6.748 9.315 8.394 9.315.584 0 2.932-3.938 5.217-8.75zm-10.158 1.774c-.332-.537-.85-3.125-1.15-5.75-.453-3.956-.184-5.157 1.572-7.012 2.537-2.68 6.793-3.933 8.285-2.44.768.767.173 2.103-2.073 4.661-2.4 2.733-3.149 4.53-3.149 7.552 0 2.786-.428 3.965-1.44 3.965-.793 0-1.713-.44-2.045-.976zm713.403-12.138c3.05-4.567 4.082-7.11 4.082-10.05 0-7.446-5.63-14.09-12.994-15.335-3.972-.671-13.544.944-14.47 2.442-.252.407 1.984 3.625 4.968 7.149 2.985 3.524 7.355 9.888 9.712 14.142 2.356 4.254 4.36 7.741 4.452 7.75.092.009 2.004-2.735 4.25-6.098zm-6.152-11.334c-.953-1.313-3.116-2.69-4.805-3.06-4.53-.996-3.59-3.898 1.396-4.308 4.918-.405 7.643 1.902 7.643 6.471 0 3.96-1.74 4.328-4.234.897zM133.01 180.43c0-.275-.9-.019-2 .57s-2 1.295-2 1.57c0 .275.9.019 2-.57s2-1.295 2-1.57zm110-1.43c-1.375-.44-3.625-.792-5-.782-2.245.017-2.194.096.5.782 1.65.42 3.9.772 5 .782 1.568.015 1.46-.155-.5-.782zm-9.75-1.662c-.687-.278-1.812-.278-2.5 0-.687.277-.125.504 1.25.504s1.938-.227 1.25-.504zm-104.25-5.89c0-.274-1.35.199-3 1.052s-3 1.776-3 2.051c0 .275 1.35-.198 3-1.051s3-1.776 3-2.051zm269 1.266c1.375-.691 3.696-3.497 5.157-6.235l2.657-4.979-1.87-6c-2.082-6.681-4.27-8.972-10.05-10.529-3.248-.874-4.64-.73-8.155.842-6.299 2.819-8.047 5.309-8.544 12.169-.507 7.016 1.843 11.8 7.062 14.373 3.895 1.92 10.304 2.088 13.743.359zm-13.25-5.07c-4.053-6.417-3.814-11.78.728-16.322 1.993-1.993 4.234-3.331 5.25-3.135 1.572.303 1.78 1.67 1.839 12.078l.066 11.735-2.566-.002c-1.94-.001-3.238-1.064-5.317-4.355zM63.8 155.047c4.541-4.924 10.946-11.065 14.233-13.647 3.287-2.583 5.976-5.03 5.976-5.44 0-1.966-8.23-3.952-13.782-3.327-6.583.741-9.761 2.148-14.755 6.533-6.138 5.389-7.98 11.713-5.393 18.516 1.088 2.863 3.742 6.317 4.853 6.317.337 0 4.328-4.028 8.868-8.952zm-9.792.447c-1.238-3.254-1.264-5.685-.095-8.68 2.08-5.328 8.849-9.462 11.368-6.944.833.833.298 1.977-2.06 4.412-1.753 1.807-3.909 5.407-4.792 8-1.975 5.794-3.123 6.628-4.421 3.212zm663.073-6.514c1.682-6.406 1.728-7.524.44-10.606-2.359-5.647-7.237-9.375-12.267-9.375-3.348 0-10.73 3.332-15.156 6.84l-2.412 1.912 9.912 6.505c5.451 3.578 11.486 7.865 13.411 9.527 1.925 1.661 3.656 2.872 3.846 2.69.19-.183 1.192-3.555 2.226-7.493zm-18.684-8.414c-.853-2.222 2.112-5.298 5.908-6.132 2.483-.545 3.444-.24 4.897 1.554 3.035 3.749 2.352 5.117-2.443 4.89-2.337-.11-5.033.143-5.991.564-1.193.524-1.94.248-2.371-.876zm-422.388-1.128c4.125-.858 7.95-2.006 8.5-2.551 1.43-1.418 1.145-10.917-.442-14.749-1.55-3.741-7.316-7.139-12.117-7.139-7.166 0-13.929 6.002-13.937 12.37-.006 4.669 6.172 13.05 9.996 13.562.275.036 3.875-.635 8-1.493zm-9.75-4.137c-.817-.306-1.25-2.637-1.25-6.73 0-7.397 1.666-9.572 7.33-9.572 4.502 0 4.606 1.08.67 7-1.645 2.475-2.993 4.976-2.995 5.559-.007 1.809-2.441 4.235-3.755 3.743zm419.233-1.052c.383-.963.947-5.26 1.254-9.551l.556-7.802-3.396-3.566c-4.7-4.935-8.17-6.282-13.247-5.14-5.422 1.217-9.412 3.787-14.41 9.278-6.41 7.044-8.86 5.77-5.71-2.969 3.23-8.968 1.376-14.923-6.083-19.533-2.746-1.697-4.337-2.024-7.233-1.486-5.421 1.007-10.833 4.363-13.694 8.49-1.868 2.696-7.52 15.158-7.52 16.58 0 .096 3.488.483 7.75.863 17.854 1.588 26.439 3.605 42.734 10.04 8.81 3.478 16.53 6.374 17.16 6.435.628.061 1.456-.676 1.84-1.639zm-22.802-9.903c-2.76-2.76 2.907-10.162 8.228-10.747 2.582-.284 3.988.206 5.803 2.021 3.156 3.155 2.187 4.379-3.466 4.379-3.59 0-5.228.567-7.26 2.514-1.443 1.383-2.93 2.208-3.305 1.833zm-34.444-10.51c-1.47-1.47-1.632-7.23-.275-9.766 2.283-4.265 14.627-5.393 13.84-1.264-.177.931-1.442 1.845-2.812 2.03-2.709.368-6.99 3.826-6.99 5.646 0 .624-.568 1.912-1.263 2.863-1.003 1.372-1.518 1.473-2.5.49zm-388.614 17.59c5.64-7.394 3.861-17.723-3.863-22.432-6.235-3.802-16.985-2.047-19.42 3.17-5.426 11.622-5.273 12.018 6.91 17.877 5.638 2.711 11.015 4.936 11.95 4.944.934.008 2.925-1.593 4.423-3.558zm-20.946-7.231c-2.404-2.657-2.083-6.88.737-9.7 3.343-3.344 7.31-4.21 9.421-2.057 1.557 1.587 1.471 1.854-1.322 4.106-1.643 1.324-3.474 3.854-4.069 5.621-1.321 3.926-2.57 4.457-4.767 2.03zm305.073 6.259c3.088-.969.234-15.538-4.094-20.899-2.096-2.596-3.13-2.99-8.766-3.335-6.164-.378-6.54-.262-10.674 3.3-5.803 5.003-8.838 10.947-7.176 14.054.675 1.26.956 2.995.625 3.858-.331.862-.503 1.595-.383 1.63 7.567 2.172 25.384 2.986 30.468 1.392zm-24.507-3.612c-2.81-2.811-.797-12.303 3.2-15.078 1.645-1.143 7.36-.893 8.132.355.39.633-.705 2.214-2.52 3.634-2.913 2.28-3.181 2.944-2.883 7.13.305 4.286.149 4.637-2.179 4.909-1.378.161-3.066-.266-3.75-.95zm-398.105-.23c4.6-2.414 12.187-5.62 16.862-7.125 4.675-1.505 8.867-3.07 9.315-3.477.954-.867-5.086-5.836-10.8-8.885-10.499-5.601-25.909 1.103-27.89 12.135C88.11 122.17 90.636 131 91.99 131c.436 0 4.556-1.974 9.156-4.388zm-7.48-1.288c-1.042-1.042-.765-6.246.46-8.64 1.573-3.078 4.996-5.637 7.573-5.663 3.832-.039 3.628 1.991-.593 5.888-2.253 2.08-4.098 4.472-4.098 5.314 0 1.815-2.4 4.042-3.342 3.1zm306.974.307c2.986-2.986 4.368-5.218 4.368-7.05 0-6.72-5.89-11.582-14.032-11.582-3.662 0-4.818.587-8.6 4.368-4.684 4.685-5.261 7.003-2.888 11.593 2.5 4.832 6.194 7.039 11.787 7.039 4.566 0 5.373-.376 9.365-4.368zm-15.368.118c-3.486-4.437-.919-13.046 4.279-14.35 4.005-1.005 5.065.866 2.706 4.777-1.103 1.828-2.305 5.01-2.672 7.073-.674 3.79-2.478 4.836-4.313 2.5zm153.35 1.324c4.337-1.06 12.611-2.643 18.386-3.519 5.775-.876 11.701-1.836 13.169-2.135l2.668-.543-1.56-4.581c-1.957-5.74-7.928-11.812-13.16-13.38-3.52-1.054-4.653-.93-9.499 1.036-7.33 2.975-11.832 7.571-16.09 16.425-1.94 4.033-3.528 7.623-3.528 7.978 0 .958.978.828 9.613-1.281zm1.53-3.964c-2.207-1.398-.397-6.68 3.445-10.054 3.736-3.28 7.461-4.635 10.032-3.648 1.315.505.746 1.562-2.998 5.565-2.543 2.718-4.623 5.587-4.623 6.377 0 2.253-3.445 3.288-5.856 1.76zm-337.144-6.932c0-5.867-2.856-12.942-6.969-17.266-3.049-3.205-4.405-3.912-7.508-3.912-7.229 0-13.078 5.478-14.143 13.245l-.584 4.26 8.852 1.94c4.869 1.067 10.877 2.732 13.352 3.7 6.488 2.54 7 2.395 7-1.967zm-25.37-4.97c-1.075-1.738 1.471-8.142 4.04-10.163 3.266-2.569 5.958-2.61 7.295-.11 1.64 3.063 1.341 3.569-4.215 7.151-6.603 4.258-6.458 4.195-7.12 3.123zm434.245 7.197c2.184-.696 1.062-16.116-1.49-20.488-4.42-7.565-13.307-10.09-20.367-5.787-5.825 3.551-9.141 9.104-10.97 18.37-.652 3.3-1.395 6.742-1.652 7.648-.423 1.498 1.071 1.605 16.32 1.172 9.231-.262 17.403-.674 18.159-.915zm-24.362-2.281c-3.8-.813-4.089-2.517-1.565-9.22 2.32-6.16 7.21-11.904 10.135-11.904 3.507 0 3.11 2.573-1.038 6.72-4.61 4.61-5.094 7.534-1.82 11.018 1.885 2.007 1.999 2.51.75 3.3-1.616 1.02-2.067 1.027-6.462.086zm-445.013-3.644c3.3-.797 10.37-1.456 15.709-1.464l9.708-.016-3.021-6.75c-1.662-3.712-4.23-7.786-5.709-9.052-4.186-3.587-12.32-7.177-16.287-7.188-3.878-.01-10.94 4.328-12.848 7.893-1.467 2.74-1.311 7.432.375 11.313.785 1.806 1.671 4.072 1.97 5.034.648 2.097 2.222 2.133 10.103.23zm-7.484-4.443c-2.366-5.71-1.12-11.241 3.128-13.895 1.671-1.043 2.443-.988 4.44.32 2.978 1.952 3.033 3.253.263 6.202-1.185 1.26-2.43 3.985-2.766 6.053-.785 4.832-3.335 5.496-5.065 1.32zm281.739-9.462c.14-.138-.39-1.56-1.178-3.163-.788-1.601-3.754-8.263-6.59-14.802C403.78 68.585 401.918 62 403.735 62c1.289 0 9.547 6.217 15.392 11.589C423.813 77.895 432.68 83 435.477 83c1.183 0 1.532-1.202 1.532-5.28 0-6.606 2.546-27.858 4.487-37.454C442.859 33.525 442.73 30 441.12 30c-.372 0-3.586 1.545-7.143 3.434-3.557 1.888-10.293 4.84-14.968 6.56-4.675 1.72-10.469 4.226-12.876 5.567-5.772 3.218-7.124 3.123-7.124-.496 0-4.814 1.373-7.16 10.889-18.623 8.481-10.216 10.627-14.387 8.181-15.899-.512-.316-4.45.44-8.75 1.68-9.186 2.647-27.922 3.07-40.03.901-3.965-.71-7.677-1.003-8.248-.65-.628.389.475 2.885 2.8 6.334 2.11 3.13 4.092 6.592 4.405 7.692.313 1.1 2.177 5.825 4.143 10.5 3.929 9.344 4.5 13 2.028 13-2.06 0-24.686-18.164-27.437-22.027-1.164-1.635-2.745-2.973-3.513-2.973-2.612 0-3.468 3.85-3.485 15.684-.02 12.763-1.878 27.195-4.403 34.192-.869 2.406-1.58 4.994-1.58 5.75 0 2.18 3.802 1.612 10.4-1.554C353.13 74.886 369.545 69 372.498 69c3.873 0 3.161 3.03-2.27 9.663-2.63 3.21-7.28 9.212-10.336 13.337l-5.556 7.5 31.086-.337c17.098-.186 31.2-.45 31.34-.588zm-44.755-3.85c.002-1.506 5.186-2.719 9.01-2.108 2.13.341 5.137.187 6.681-.342 3.016-1.033 10.31-.543 10.31.692 0 .412-5.85 1.15-13.001 1.64-7.15.491-13 .544-13 .118zm30-.725c-1.281-.828-1.245-.972.25-.985.963-.008 1.75.435 1.75.985 0 1.22-.112 1.22-2 0zm-36.287-.62c-.34-.342 1.028-3.154 3.042-6.25 5.784-8.892 8.245-14.205 8.245-17.8 0-3.94 2.626-4.668 3.551-.985.448 1.786-.98 4.708-5.98 12.24-3.614 5.442-6.57 10.686-6.57 11.655 0 1.757-1.115 2.313-2.288 1.14zm38.523-11.57c-1.639-2.92-3.782-7.469-4.762-10.107-.98-2.639-2.612-5.242-3.627-5.785-2.718-1.455-2.315-4.79.719-5.943 3.338-1.27 3.22-1.324 2.758 1.275-.22 1.238 1.633 7.397 4.118 13.688 2.484 6.29 4.349 11.605 4.145 11.81-.205.203-1.713-2.019-3.351-4.939zm-20.964-1.37c-1.313-2.543-.564-4.44 1.753-4.44 2.778 0 3.188 1.516 1.107 4.086-1.803 2.226-1.887 2.237-2.86.354zm45.051-5.733c-1.002-1.261-4.41-4.24-7.573-6.62-3.162-2.38-5.75-4.547-5.75-4.816 0-1.058 5.55.975 6.3 2.309.44.78 1.684 1.42 2.765 1.42 2.99 0 9.211 6.117 8.392 8.252-.898 2.34-1.95 2.202-4.134-.545zm-84.59.169c.68-.684 1.486-.99 1.794-.683.308.308-.247.867-1.233 1.243-1.426.542-1.54.428-.56-.56zm-3.325-11.072c.216-3.467.44-7.429.497-8.804.093-2.191.6-2.528 4.1-2.727 2.198-.125 3.995.19 3.995.7s-1.573 3.537-3.497 6.727c-1.924 3.19-3.499 6.56-3.5 7.491-.001.93-.449 1.967-.995 2.304-.63.39-.849-1.683-.6-5.691zm13.145-1.719a1.117 1.117 0 0 1 .362-1.532 1.117 1.117 0 0 1 1.533.362c.322.52.159 1.21-.362 1.532-.521.322-1.21.16-1.533-.362zm9.443-7.67c-5.468-4.656-7.433-7.057-12.411-15.165-3.163-5.151-4.585-5.398-4.585-.797 0 3.395-1.754 8.546-2.91 8.548-.664 0-.477-16.947.193-17.617 1.068-1.068 3.827 1.206 8.82 7.27 5.746 6.974 15.244 15.44 20.201 18.003 1.917.991 4.284 1.347 6.532.982 3.25-.527 3.4-.445 1.906 1.048-.948.948-3.825 1.784-6.935 2.014-5.109.378-5.53.211-10.811-4.286zm71.074 1.269c-.51-1.34-.503-4.335.016-7.11 1.055-5.647.53-6.975-2.107-5.329-1.508.942-2.196.938-3.154-.02-1.97-1.97-4.416-1.418-5.643 1.275-1.291 2.835-1.759 2.94-5.014 1.135-2.243-1.244-2.056-1.417 4.867-4.513 3.96-1.77 8.497-3.478 10.083-3.795l2.882-.577v10.625c0 5.844-.236 10.625-.524 10.625-.289 0-.921-1.042-1.406-2.316zm-39.784-5.158c.75-7.268 1.742-8.676 3.116-4.425 1.386 4.289 4.092 4.793 10.63 1.981 5.46-2.35 6.36-2.523 5.452-1.055-.891 1.441-16.084 8.973-18.101 8.973-1.416 0-1.579-.811-1.097-5.474zm3.036-13.922c2.735-7.127 2.996-9.715 1.33-13.207-.926-1.944-1.462-3.894-1.19-4.334.736-1.191 8.208-2.184 11.056-1.47 3.337.838 3.131 2.91-.502 5.057-1.83 1.08-4.367 4.393-6.555 8.557-1.963 3.736-3.818 6.793-4.122 6.793-.304 0-.311-.628-.017-1.396zm-21.895-4.236c-.368-1.577-1.965-4.932-3.548-7.456-4.62-7.363-3.939-8.413 4.105-6.326 2.999.778 8.054 1.414 11.234 1.414 9.12 0 6.461 3.847-2.96 4.28l-4.758.22-1.201 4.868c-1.499 6.074-2.025 6.623-2.872 3zM178.706 484.25c-1.594-2.843-1.482-5.989.266-7.486 1.793-1.535 2.05-1.435 4.47 1.737 1.412 1.85 2.567 3.793 2.567 4.316 0 1.615-6.486 2.889-7.302 1.433zm-2.697-19.75c0-.825.177-1.5.393-1.5.217 0 .652.675.97 1.5.316.825.139 1.5-.394 1.5s-.969-.675-.969-1.5zm-8-2.5c-2.16-4.037 2.613-7.987 5.8-4.8 1.99 1.989 1.358 2.81-1.365 1.775-3.64-1.384-3.752-1.31-3.085 2.025.695 3.473.178 3.855-1.35 1zm180-2.037c0-.973 1.913-3.874 4.25-6.446 3.826-4.209 4.506-4.578 6.813-3.692 1.806.692 2.937 2.23 3.827 5.202.696 2.32.892 4.56.437 4.978-.454.417-4.09.977-8.077 1.243-6.451.432-7.25.29-7.25-1.285zm282.836-10.636c-3.125-.828-2.823-3.137.682-5.205 1.872-1.104 5.039-4.284 7.037-7.065 3.69-5.136 5.133-6.055 5.978-3.807.444 1.185-3.218 12.83-4.875 15.5-.745 1.2-5.336 1.5-8.822.577zm-83.023-1.01c.722-.289 1.584-.253 1.917.079.332.332-.259.568-1.313.525-1.165-.048-1.402-.285-.604-.604zm-315.08-4.853c-2.053-1.395-3.8-3.42-3.883-4.5a433.94 433.94 0 0 0-.25-3.13c-.055-.642.526-1.376 1.29-1.63.896-.3 1.12-.03.632.762-1.116 1.805 1.486 5.986 4.786 7.693 1.583.819 3.002 1.343 3.153 1.165.152-.178.992-1.674 1.867-3.324 1.297-2.444 1.6-2.624 1.632-.973.049 2.457-2.61 6.473-4.284 6.473-.666 0-2.89-1.141-4.943-2.536zm262.933-3.198c-1.285-2.08-3.495-12.837-2.784-13.548 1.132-1.131 6.205 1.332 5.406 2.625-.357.578-.537 3.167-.4 5.753.226 4.243-1.014 7.127-2.222 5.17zm74.128-2.815c-1.84-.998-2.916-2.588-3.361-4.96-1.126-5.998-5.36-4.632-12.283 3.963-1.644 2.041-2.095 1.662-3.122-2.625-.438-1.83-1.109-4.082-1.49-5.002-.995-2.405 2.76-4.104 8.77-3.969 5.23.118 8.839 2.174 14.84 8.454 4.826 5.05 2.84 7.501-3.354 4.139zm-63.187-3.035c-.374-.973-.15-1.43.58-1.187 1.495.498 2.318 2.771 1.004 2.771-.537 0-1.25-.713-1.584-1.584zm-261-.245c-.283-.456.81-2.433 2.425-4.393 3.028-3.673 7.456-5.094 14.468-4.641 8.793.567 11.336.15 17.922-2.943 3.808-1.787 7.304-2.869 7.77-2.403.466.466.163 2.786-.672 5.154-.836 2.369-1.52 5.348-1.52 6.622 0 3.358-1.39 3.725-5.322 1.405-3.26-1.923-7.883-2.923-20.392-4.411-4.944-.588-5.416-.438-9.121 2.91-4.13 3.73-4.739 4.027-5.559 2.7zm171.613-3.421c-.67-2.599-1.619-3.509-4.738-4.543-4.729-1.567-4.681-1.524-3.898-3.564.347-.904 1.595-1.649 2.773-1.656 1.18-.007 5.656-1.134 9.948-2.505 7.262-2.32 9.058-2.418 14.945-.822 3.306.897 1.741 3.228-4.343 6.47-3.351 1.787-7.23 4.738-8.619 6.56-3.187 4.178-5.002 4.196-6.068.06zm-62.924-2.62c-4.926-2.231-5.426-5.482-.97-6.296 1.355-.248 2.184.69 3.206 3.628.758 2.179 1.286 3.997 1.173 4.04-.112.044-1.647-.574-3.41-1.372zm173.703.324c-1.449-.802-1.868-1.392-.999-1.403 1.787-.024 4.643 1.64 3.97 2.313-.26.26-1.597-.15-2.971-.91zm-158.999-2.435c0-2.346-.532-3.115-2.5-3.608-3.201-.804-3.245-2.411-.065-2.411 6.847 0 10.499 4.01 6.472 7.106-3.3 2.537-3.907 2.368-3.907-1.087zm-126.905-7.783c-.083-12.57 1.315-19.85 4.098-21.339 1.112-.595 2.379-.703 2.815-.24.792.843 6.992 15.092 6.992 16.07 0 1.813-2.879-2.381-3.842-5.596-1.113-3.715-3.668-6.954-4.683-5.94-.262.263-.994 5.39-1.627 11.393-.633 6.004-1.72 12.041-2.418 13.416-1.106 2.182-1.276 1.196-1.335-7.764zm297.1 5.264c.02-1.65.245-2.204.498-1.231.254.973.237 2.323-.037 3-.274.677-.481-.119-.46-1.769zm-19.178-1.565c-.034-3.224 9.537-15.448 15.8-20.178 3.464-2.616 6.675-4.757 7.134-4.757 1.565 0 1.92 2.812.812 6.423-.852 2.774-1.513 3.473-2.877 3.04-2.295-.728-15.825 9.186-18.73 13.724-1.201 1.875-2.13 2.634-2.139 1.748zm-127.884-3.124c-3.037-.678-4.05-1.294-3.324-2.02 1.246-1.245 4.913-.466 7.691 1.634 2.266 1.712 1.77 1.756-4.367.386zm-12.472-5.947c-1.076-4.017-.728-10.773.728-14.146 1.474-3.413 12.181-14.481 13.11-13.552.303.302 1.456 3.818 2.563 7.813 1.107 3.995 2.683 8.56 3.501 10.143.819 1.583 1.097 2.878.618 2.878-1.943 0-4.207-3.917-4.811-8.323-.708-5.165-.947-5.298-5.824-3.26-4.543 1.898-6.342 4.946-7.143 12.103-.821 7.332-1.844 9.7-2.742 6.344z" fill="#fff"/></svg>