<?xml version="1.0" encoding="UTF-8" standalone="no"?>
<svg
   xmlns:dc="http://purl.org/dc/elements/1.1/"
   xmlns:cc="http://creativecommons.org/ns#"
   xmlns:rdf="http://www.w3.org/1999/02/22-rdf-syntax-ns#"
   xmlns:svg="http://www.w3.org/2000/svg"
   xmlns="http://www.w3.org/2000/svg"
   viewBox="0 0 227.89742 227.87341"
   height="227.87341"
   width="227.89742"
   version="1.1"
   id="svg4187">
  <metadata
     id="metadata4193">
    <rdf:RDF>
      <cc:Work
         rdf:about="">
        <dc:format>image/svg+xml</dc:format>
        <dc:type
           rdf:resource="http://purl.org/dc/dcmitype/StillImage" />
        <dc:title></dc:title>
      </cc:Work>
    </rdf:RDF>
  </metadata>
  <defs
     id="defs4191" />
  <path
     id="path4197"
     d="m 9.3974223,226.56067 c -8.54177002,-3.10773 -9.75039002,-7.46203 -9.32350002,-33.5898 0.29678,-18.16432 0.49456,-20.03268 2.39458002,-22.62018 4.38489,-5.97146 6.3097,-6.3172 35.1789187,-6.31891 l 26.25,-0.002 -0.0016,26.25 c -0.0023,38.18806 0.83698,37.13283 -29.818948,37.49287 -16.082585,0.18888 -21.568616,-0.0806 -24.6794507,-1.21243 z M 48.574913,216.45915 c 5.573827,-4.08994 6.319242,-7.17716 6.320954,-26.17892 l 0.0016,-17.25 -17.25,0.002 c -19.002226,0.002 -22.089427,0.74719 -26.178915,6.32152 -1.7577137,2.39591 -2.1242937,4.60893 -2.4227537,14.62595 -0.30468,10.22605 -0.0767,12.4246 1.7068547,16.45651 3.183807,7.19752 7.36203,8.73075 22.822306,8.37482 10.470444,-0.24105 12.573154,-0.57068 15,-2.35143 z m -27.222947,-9.88347 c -2.215107,-2.2151 -2.454545,-3.27114 -2.454545,-10.82568 0,-7.70297 0.205757,-8.56465 2.577817,-10.79546 2.348467,-2.20862 3.55766,-2.45464 13.590889,-2.7652 l 11.013071,-0.34089 -0.340888,11.01307 c -0.31056,10.03323 -0.556582,11.24243 -2.765203,13.59089 -2.230809,2.37206 -3.092486,2.57782 -10.795455,2.57782 -7.554544,0 -8.610579,-0.23944 -10.825686,-2.45455 z m 52.249273,20.82503 c -0.3871,-0.3871 -0.70382,-2.41129 -0.70382,-4.49821 l 0,-3.7944 8.75,-0.28894 8.75,-0.28893 0,-4.5 0,-4.5 -8.77291,-0.28927 -8.77292,-0.28926 0.27292,-17.71074 0.27291,-17.71073 4.30456,-0.31016 4.30456,-0.31017 -0.30456,-4.18983 c -0.29611,-4.07364 -0.41549,-4.20371 -4.30456,-4.68984 -3.91667,-0.48958 -4,-0.58333 -4,-4.5 0,-3.91667 0.0833,-4.01042 4,-4.5 3.80952,-0.47619 4.02381,-0.69048 4.5,-4.5 l 0.5,-4 8.71163,-0.28837 8.71162,-0.28838 0.288381,-8.71162 0.28837,-8.71163 8.80944,-0.2898 8.80945,-0.2898 -0.30945,4.2898 c -0.3022,4.18939 -0.40306,4.3015 -4.30944,4.7898 l -4,0.5 0,8.5 0,8.5 9,0.5 9,0.5 0.31016,4.30456 0.31017,4.30456 4.18983,-0.30456 c 4.14954,-0.30163 4.19277,-0.34491 4.49466,-4.49974 0.30195,-4.15577 0.34423,-4.19805 4.5,-4.5 4.17691,-0.30349 4.19518,-0.32224 4.19518,-4.30482 0,-3.91667 -0.0833,-4.01042 -4,-4.5 l -4,-0.5 -0.5,-8.5 -0.5,-8.5 -4,-0.5 -4,-0.5 -0.2898,-8.80944 -0.2898,-8.80945 4.2898,0.30945 4.2898,0.30944 0.5,8.5 0.5,8.5 4,0.5 c 3.80952,0.47619 4.02381,0.69048 4.5,4.5 0.48958,3.91667 0.58333,4 4.5,4 3.99913,0 4.00007,-9.3e-4 4.31016,-4.30456 l 0.31017,-4.30456 4.18983,0.30456 4.18984,0.30456 0.5,8.5 0.5,8.5 4,0 4,0 0.27875,-13.21065 0.27875,-13.21065 -8.77875,-0.28935 -8.77875,-0.28935 -0.3245,-3.98702 c -0.3697,-4.54251 -1.36615,-5.47607 -5.868,-5.49767 -3.03816,-0.0146 -3.20737,-0.22078 -3.5,-4.26531 l -0.3075,-4.25 -8.75,-0.28893 -8.75,-0.288937 0,-13.51856 0,-13.518572 4.25,0.307502 c 4.22267,0.30552 4.25197,0.33459 4.55564,4.51938 l 0.30563,4.21188 8.69437,0.28812 8.69436,0.28812 0.30482,4.19518 c 0.30195,4.15577 0.34423,4.19805 4.5,4.5 l 4.19518,0.30482 0.5,8.999997 0.5,9 4,0 4,0 0,-13.499997 0,-13.5 -4.30456,-0.31016 -4.30456,-0.31017 0.30456,-4.18983 0.30456,-4.18984 22,0 22,0 0.5,4 c 0.47619,3.80952 0.69048,4.02381 4.5,4.5 3.80952,0.47619 4.02381,0.69048 4.5,4.5 0.46578,3.72622 0.73928,4.0227 3.99599,4.3317 5.71716,0.54246 6.00401,1.21937 6.00401,14.168297 0,12.9458 -0.2876,13.62542 -5.99583,14.1683 -3.74294,0.35597 -4.67784,2.01144 -3.58805,6.35353 0.48953,1.95044 1.33537,2.41735 4.83856,2.6709 l 4.24532,0.30727 0.30341,6.46915 c 0.45907,9.78828 -0.0777,11.03085 -4.76496,11.03085 -3.90093,0 -3.92522,-0.0244 -4.23095,-4.25 -0.30207,-4.1749 -0.37795,-4.25573 -4.29452,-4.5745 -2.19287,-0.17847 -4.32348,-0.85347 -4.73469,-1.5 -0.41122,-0.64652 -0.75456,-4.68887 -0.76298,-8.983 l -0.0153,-7.8075 -4.25,0.3075 -4.25,0.3075 -0.5,8.5 -0.5,8.5 -4,0.5 -4,0.5 0,8.5 0,8.5 4.18984,0.30456 4.18983,0.30456 0.31017,-4.30456 c 0.30933,-4.29309 0.32148,-4.30538 4.56016,-4.61206 l 4.25,-0.3075 0,4.5 0,4.5 -4.25,0.3075 c -4.24042,0.30681 -4.25,0.31652 -4.25,4.3075 l 0,4 13.5,0.5 13.5,0.5 0.26486,30.37964 c 0.18995,21.78806 -0.0606,30.7718 -0.88601,31.76633 -0.93812,1.13037 -5.97805,1.33747 -27.26485,1.12037 l -26.114,-0.26634 -0.28836,-8.71051 -0.28835,-8.71051 8.78835,-0.28949 8.78836,-0.28949 0,-4.5 0,-4.5 -4.19518,-0.30482 c -4.15577,-0.30195 -4.19805,-0.34423 -4.5,-4.5 -0.30349,-4.17691 -0.32224,-4.19518 -4.30482,-4.19518 -3.99098,0 -4.00069,0.01 -4.3075,4.25 l -0.3075,4.25 -4.385,0 -4.385,0 -0.3075,-4.25 c -0.30681,-4.24042 -0.31652,-4.25 -4.3075,-4.25 -3.99098,0 -4.00069,0.01 -4.3075,4.25 l -0.3075,4.25 -4.385,0 -4.385,0 -0.3075,-4.25 -0.3075,-4.25 -8.69436,-0.28812 -8.69437,-0.28812 -0.30563,-4.21188 c -0.29847,-4.11308 -0.39709,-4.21937 -4.20385,-4.53108 -4.46403,-0.36553 -5.56386,0.74221 -5.58648,5.6267 -0.0151,3.27072 -0.0626,3.30408 -4.26531,3 l -4.25,-0.3075 -0.30341,-6.46915 c -0.45819,-9.76942 0.0323,-10.85971 5.04946,-11.22358 4.54554,-0.32967 5.49566,-1.71593 4.33783,-6.3291 -0.48953,-1.95044 -1.33537,-2.41735 -4.83856,-2.6709 -4.23041,-0.30619 -4.24641,-0.32233 -4.55468,-4.59534 l -0.30936,-4.28806 -8.69064,0.28806 -8.690641,0.28807 0,8.5 0,8.5 4,0.5 c 3.90985,0.48873 4.007,0.59714 4.31045,4.81045 l 0.310451,4.31045 -4.310451,-0.31045 c -4.21331,-0.30345 -4.32172,-0.4006 -4.81045,-4.31045 -0.48958,-3.91667 -0.58333,-4 -4.5,-4 l -4,0 -0.27903,13.25 -0.27902,13.25 4.52902,0 4.52903,0 0,-3.98095 c 0,-3.37767 0.36687,-4.07302 2.42091,-4.58855 4.52787,-1.13643 6.04329,-0.19684 6.57909,4.07918 l 0.500001,3.99032 8.5,0.5 8.5,0.5 0.3075,4.25 c 0.3064,4.23485 0.29525,4.25 -3.12756,4.25 -1.88928,0 -3.91958,0.58382 -4.51178,1.29738 -0.59221,0.71357 -1.20981,4.87607 -1.37245,9.25 l -0.29571,7.95262 -4,0 c -3.99098,0 -4.00069,-0.01 -4.3075,-4.25 l -0.307501,-4.25 -4.385,0 -4.385,0 -0.3075,4.25 -0.3075,4.25 -8.04618,0.28715 c -4.42541,0.15793 -8.36291,-0.0296 -8.75,-0.41667 z m 144.096181,-9.57048 c 0.70798,-0.70798 1.2,-4.11111 1.2,-8.3 0,-7.75054 -0.92077,-9.5 -5,-9.5 -3.48647,0 -5,1.72542 -5,5.7 0,2.97945 -0.28347,3.3 -2.91821,3.3 -4.97628,0 -6.08179,0.89802 -6.08179,4.94032 0,2.04949 0.3,4.02635 0.66667,4.39301 1.19263,1.19263 15.86406,0.73594 17.13333,-0.53333 z m -118.300001,-12.8 0,-4.5 -4,0 c -3.928,0 -4.00575,0.0702 -4.3192,3.89821 -0.367,4.48195 0.88799,5.74711 5.3192,5.36231 2.85029,-0.24752 3,-0.48508 3,-4.76052 z m 100.307501,-18.25 c -0.30681,-4.24042 -0.31652,-4.25 -4.3075,-4.25 -3.64953,0 -4.02844,0.24835 -4.32457,2.83447 -0.52787,4.6098 0.37602,5.66553 4.85068,5.66553 l 4.08889,0 -0.3075,-4.25 z m -54.3075,-13.75 0,-8.5 -4.18984,-0.30456 -4.18983,-0.30456 -0.31017,4.30456 c -0.30933,4.29309 -0.32148,4.30538 -4.56016,4.61206 l -4.25,0.3075 0,4.48143 0,4.48144 8.75,-0.28894 8.75,-0.28893 0,-8.5 z m 36.5,-4.5 0,-13.5 -13.5,0 -13.5,0 0,13.5 0,13.5 13.5,0 13.5,0 0,-13.5 z m -17.58261,3.14532 c -0.3116,-0.81201 -0.42048,-2.75189 -0.24196,-4.31085 0.29613,-2.58612 0.67504,-2.83447 4.32457,-2.83447 4,0 4,0 4,4 0,3.90193 -0.0921,4.00762 -3.75804,4.31084 -2.60788,0.21571 -3.93142,-0.141 -4.32457,-1.16552 z m 44.58261,5.79718 0,-4.5575 -4.25,0.3075 c -3.83658,0.27759 -4.28157,0.58323 -4.57457,3.14197 -0.52615,4.59476 0.37975,5.66553 4.79319,5.66553 l 4.03138,0 0,-4.5575 z m -9,-9 0,-4.5575 -4.25,0.3075 c -3.83658,0.27759 -4.28157,0.58323 -4.57457,3.14197 -0.52615,4.59476 0.37975,5.66553 4.79319,5.66553 l 4.03138,0 0,-4.5575 z m -9.1925,-45.1925 0.3075,-4.25 -4.5575,0 -4.5575,0 0,3.83333 c 0,4.77827 0.55694,5.33521 4.96426,4.96426 3.39005,-0.28533 3.54841,-0.47271 3.84324,-4.54759 z m -9.3075,-9.25 0,-4.5 -4,0 c -3.80564,0 -4.01557,0.16254 -4.32046,3.3452 -0.50394,5.26049 0.3047,6.31782 4.56242,5.96564 3.74126,-0.30945 3.75804,-0.33094 3.75804,-4.81084 z m 18.5,0.5 0.5,-4 7.95262,-0.29571 c 8.84115,-0.32875 10.54738,-1.17064 10.54738,-5.20429 0,-3.43131 -1.52406,-4.74323 -6.00401,-5.168297 l -3.49599,-0.3317 -0.28935,-8.77875 -0.28935,-8.77875 -13.21065,0.27875 -13.21065,0.27875 -0.30556,4.21026 -0.30555,4.21025 8.80555,0.28975 8.80556,0.28974 0.30556,4.21026 0.30555,4.21025 -8.80555,0.289747 -8.80556,0.28974 -0.3192,3.89821 c -0.36453,4.45176 0.74402,5.56374 5.5692,5.58648 3.09879,0.0146 3.25,0.19366 3.25,3.84864 0,4.77827 0.55694,5.33521 4.96426,4.96426 3.31066,-0.27865 3.56757,-0.55222 4.03574,-4.29759 z m -71.31053,103.85613 c -0.37921,-0.3792 -0.68947,-2.41446 -0.68947,-4.5228 l 0,-3.83333 18.0575,0 18.0575,0 -0.3075,4.25 -0.3075,4.25 -17.06053,0.2728 c -9.3833,0.15004 -17.3708,-0.0375 -17.75,-0.41667 z M 0.34025228,153.74184 c -0.27192,-0.70861 -0.3703,-8.69611 -0.21862,-17.75 l 0.27579,-16.46161 4.00000002,-0.5 c 4,-0.5 4,-0.5 4,-5 0,-4.5 0,-4.5 -4,-5 l -4.00000002,-0.5 -0.295,-7.91317 c -0.32615,-8.748537 0.13586,-9.546027 5.54500002,-9.571517 3.17666,-0.015 3.25,-0.11557 3.25,-4.45781 l 0,-4.4425 -4.25,-0.3075 c -4.24042002,-0.30681 -4.25000002,-0.31652 -4.25000002,-4.3075 0,-4 0,-4 4.00000002,-4 3.91667,0 4.01042,0.0833 4.5,4 0.5,4 0.5,4 4.9999987,4 l 4.5,0 0.308425,-4.26898 0.308425,-4.268972 22.191575,0.268972 22.191575,0.26898 0,4 0,4 -8.5,0.5 -8.5,0.5 -0.288933,8.75 -0.288933,8.749997 4.481435,0 4.481435,0 0.307498,-4.249997 0.307498,-4.25 8.69436,-0.28812 8.694368,-0.28812 0.30563,-4.21188 c 0.30451,-4.19625 0.32048,-4.21188 4.30564,-4.21188 l 4,0 0.28893,8.75 0.28894,8.749997 4.42213,0 4.42213,0 0.28894,-8.749997 0.28893,-8.75 4.25,-0.3075 4.25,-0.3075 0,-4.41347 0,-4.413482 -13.25,-0.27902 -13.25,-0.27903 -0.26633,-26.750003 -0.26634,-26.75 4.4774,0 4.4774,0 0.28894,8.75 0.28893,8.75 13.1911,0.278615 13.191111,0.278615 0.30889,-4.278615 0.3089,-4.278615 13.5,-0.5 13.5,-0.5 0,-4 c 0,-3.916667 -0.0833,-4.010417 -4,-4.5 -3.72622,-0.465778 -4.0227,-0.739279 -4.3317,-3.995985 -0.44302,-4.669092 -1.7433,-6.0040152 -5.84824,-6.0040152 -3.42281,0 -3.43396,-0.01515 -3.12756,-4.25 0.28492,-3.93792104 0.53405,-4.27210704 3.39267,-4.55106504 3.70318,-0.361373 5.13977,1.13233204 5.58313,5.80508004 l 0.3317,3.495985 6.46915,0.303406 c 9.76942,0.4581902 10.85971,-0.03233 11.22358,-5.049458 0.33071,-4.55986004 1.7138,-5.49619104 6.38636,-4.32345204 2.04661,0.513665 2.42091,1.21421704 2.42091,4.53105804 0,3.900922 -0.0244,3.925216 -4.25,4.230948 l -4.25,0.307498 0,9.0000002 0,9 4,0.5 4,0.5 0,8.5 0,8.5 -4.25,0.307498 -4.25,0.307498 0,4.385004 0,4.385004 4.25,0.307498 4.25,0.307501 0,8.5 0,8.5 -4.21026,0.30556 -4.21025,0.30555 -0.28975,-8.80555 -0.28974,-8.80556 -4.18984,-0.304561 -4.18983,-0.304558 -0.31017,4.304559 c -0.30933,4.29309 -0.32148,4.30538 -4.56016,4.61206 l -4.25,0.3075 0,-9.018572 0,-9.018565 8.75,-0.288933 8.75,-0.288933 0,-8.5 0,-8.5 -4.25,-0.307498 c -4.20274,-0.304079 -4.25017,-0.270722 -4.26531,3 -0.0257,5.538814 -0.46408,5.720719 -14.52427,6.02605 l -12.96042,0.281448 0,8.5 0,8.5 4.25,0.307498 4.25,0.307498 0,4.499997 0,4.50001 -4.25,-0.3075 c -4.23868,-0.30668 -4.25083,-0.31897 -4.56016,-4.61206 l -0.31017,-4.304559 -4.18983,0.304558 -4.18984,0.304561 0,8.5 0,8.5 4,0.5 c 3.80952,0.476192 4.02381,0.690482 4.5,4.500002 0.47619,3.80952 0.69048,4.02381 4.5,4.5 l 4,0.5 0,17.999997 0,18 -11,0.29087 c -14.752551,0.39011 -15.312161,0.21049 -15.692731,-5.03692 -0.32967,-4.54554 -1.71593,-5.49566 -6.3291,-4.33783 -1.95044,0.48953 -2.41735,1.33537 -2.6709,4.83856 -0.30524,4.21721 -0.33516,4.24734 -4.51915,4.55096 l -4.21188,0.30563 -0.28812,8.69437 -0.28812,8.69436 -8.805554,0.28974 -8.805556,0.28975 0.305556,4.21025 c 0.297357,4.09729 0.412887,4.22368 4.305556,4.71026 3.916667,0.48958 4,0.58333 4,4.5 0,4 0,4 -4,4 -3.916667,0 -4.010417,-0.0833 -4.5,-4 l -0.5,-4 -17.721135,-0.27296 -17.721134,-0.27295 -0.278866,-13.22705 -0.278865,-13.22704 -4.5,0 -4.4999987,0 -0.27307,17.75 -0.27308,17.75 -4.00831,0 c -2.34785,0 -4.21312002,-0.53372 -4.50271002,-1.28839 z m 54.36466672,-21.46161 0.307498,-4.25 -4.557498,0 -4.557498,0 0,3.83333 c 0,4.77827 0.556942,5.33521 4.964259,4.96426 3.390048,-0.28533 3.548412,-0.47271 3.843239,-4.54759 z m -9.307498,-18.25 0,-13.5 -4.211879,-0.30564 -4.211878,-0.305627 -0.288122,-8.69437 -0.288121,-8.69436 -8.414347,-0.2931 c -6.056638,-0.21097 -8.644207,0.0692 -9.234687,1 -0.451187,0.71121 -0.827231,4.7806 -0.835653,9.0431 l -0.01531,7.749997 -3.3,0 c -3.974579,0 -5.6999987,1.51353 -5.6999987,5 0,3.48647 1.7254197,5 5.6999987,5 3.081975,0 3.3,0.22315 3.3,3.37756 0,4.04782 1.349178,5.34908 6.004015,5.79074 3.064139,0.29073 3.532178,0.70228 3.78898,3.3317 0.545809,5.58858 0.570933,5.60266 9.441237,5.2907 l 8.265768,-0.2907 0,-13.5 z m 18.307498,9.25 0.307502,-4.25 -4.557502,0 -4.557498,0 0,3.83333 c 0,4.77827 0.556942,5.33521 4.964259,4.96426 3.390048,-0.28533 3.548412,-0.47271 3.843239,-4.54759 z m 8.6925,-9.25 0,-4.5 -3.999998,0 c -3.80564,0 -4.01557,0.16254 -4.32046,3.3452 -0.503936,5.26049 0.3047,6.31782 4.562418,5.96564 3.74126,-0.30945 3.75804,-0.33094 3.75804,-4.81084 z m -8.999998,-9 0,-4.5 -4,0 c -3.805639,0 -4.015571,0.16254 -4.320459,3.3452 -0.503937,5.26049 0.304694,6.31782 4.562422,5.96564 3.741252,-0.30945 3.758037,-0.33094 3.758037,-4.81084 z m 17.999998,0 0,-4.5 -4,0 c -3.80564,0 -4.01557,0.16254 -4.32046,3.3452 -0.50394,5.26049 0.3047,6.31782 4.56242,5.96564 3.74126,-0.30945 3.75804,-0.33094 3.75804,-4.81084 z m 18,0 0,-4.5 -4,0 c -3.928,0 -4.00575,0.0702 -4.3192,3.89821 -0.367,4.48195 0.88799,5.74711 5.3192,5.36231 2.85029,-0.24752 3,-0.48508 3,-4.76052 z m -8.5,-45.557499 0,-4.557499 -4.25,0.307498 c -3.83658,0.277591 -4.28157,0.583221 -4.57457,3.141971 -0.52615,4.59476 0.37975,5.66553 4.79319,5.66553 l 4.03138,0 0,-4.5575 z m -83.6956667,2.6015 c -6.56049002,-4.00019 -6.80433002,-5.05736 -6.80433002,-29.500024 0,-32.73861024 -0.68284,-32.04397924 31.49999872,-32.04397924 19.806036,0 21.775762,0.160258 25,2.03401804 6.619355,3.846824 6.996701,5.745618 6.998446,35.2159822 l 0.0016,26.250003 -26.75,-0.004 c -24.750614,-0.003 -26.988859,-0.14938 -29.9456687,-1.95226 z M 54.895867,37.780228 c -0.0018,-19.552847 -0.822353,-22.626759 -6.998446,-26.215982 -3.011642,-1.7502102 -5.244137,-2.0340182 -16,-2.0340182 -13.963175,0 -17.075141,1.0394442 -20.614459,6.8855412 -2.7316697,4.512065 -2.7908997,27.820656 -0.08121,31.956179 3.937406,6.009241 6.437377,6.650434 25.945666,6.654542 l 17.750003,0.0037 -0.0016,-17.25 z m -32.921721,5.661106 c -2.988989,-2.515068 -3.076725,-2.830042 -3.076725,-11.045454 0,-7.645238 0.235489,-8.69205 2.454545,-10.911107 2.196442,-2.196441 3.294688,-2.454545 10.444237,-2.454545 7.001668,0 8.336657,0.298196 10.795454,2.41138 2.71338,2.331981 2.816909,2.776491 3.14424,13.5 l 0.338476,11.08862 -10.511751,0 c -9.849829,0 -10.705491,-0.163022 -13.588476,-2.588894 z M 163.89742,37.998109 c 0,-28.9119552 0.35598,-30.9461842 6.13686,-35.0692252 3.30465,-2.35694204 3.74574,-2.39865604 25.36314,-2.39865604 19.787,0 22.31329,0.189668 25.11446,1.88554104 6.48362,3.925285 6.88554,5.683113 6.88554,30.1144592 0,21.617404 -0.0417,22.058487 -2.39866,25.363143 -4.12304,5.78088 -6.15727,6.13686 -35.06922,6.13686 l -26.03212,0 0,-26.032122 z m 46.96598,15.280565 c 6.19693,-3.126098 7.53402,-6.928637 7.53402,-21.426001 0,-13.819781 -0.59166,-15.561064 -6.88423,-20.260656 -2.44868,-1.8287902 -4.19332,-2.0617892 -15.43821,-2.0617892 -10.93441,0 -13.15881,0.279675 -16.17756,2.0340182 -6.17609,3.589223 -6.99668,6.663135 -6.99845,26.215982 l -0.002,17.25 17.25,-0.0016 c 14.43239,-0.0013 17.81613,-0.287144 20.71598,-1.75 z M 181.89742,35.606953 c 0,-9.754644 0.16607,-10.62064 2.58889,-13.5 2.51507,-2.988989 2.83005,-3.076725 11.04546,-3.076725 7.64524,0 8.69205,0.235489 10.9111,2.454545 2.21906,2.219057 2.45455,3.265869 2.45455,10.911107 0,8.215412 -0.0877,8.530386 -3.07673,11.045454 -2.87936,2.422822 -3.74535,2.588894 -13.5,2.588894 l -10.42327,0 0,-10.423275 z M 101.1425,17.875308 c -0.76215,-0.762149 -1.245081,-4.029052 -1.245081,-8.4226352 0,-8.02016 1.078981,-9.77336204 5.689531,-9.24470304 l 2.81047,0.322258 0,9.00000004 0,9.0000002 -3.00492,0.29508 c -1.65271,0.162294 -3.56521,-0.265206 -4.25,-0.95 z M 81.897419,5.0492798 c 0,-3.377671 0.36687,-4.07302604 2.42091,-4.58855604 4.67394,-1.173087 6.05564,-0.236726 6.38659,4.32813104 l 0.3075,4.241373 -4.5575,0 -4.5575,0 0,-3.980948 z"
     style="fill:#ffffff" />
</svg>
