<svg xmlns="http://www.w3.org/2000/svg" width="83.025" height="80.727"><path d="M9.168 47.955c-.224-.143.141-.73-.035-.621-.176.109-.444.447-.444.16 0-.481-.028-.78-.506-.302-.661.662-.676.628-.512-1.21.135-1.509.155-1.534 1.064-1.335.926.204.926.204.926-1.411 0-1.308.304-2.208 1.594-4.726.876-1.71 1.543-3.16 1.48-3.222-.193-.194-2.048 2.881-3.432 5.691-.732 1.486-1.39 2.534-1.463 2.33-.073-.205.532-1.696 1.344-3.314.813-1.618 1.416-3.003 1.34-3.078-.24-.241-1.31 1.557-2.496 4.197-.732 1.627-1.427 2.705-1.9 2.946-1.107.562-1.614 1.802-1.58 3.863.015 1.01-.063 4.789-.176 8.397-.172 5.479-.29 6.626-.72 6.96-.666.52-.88.505-1.488-.103-.734-.734-.615-1.376.297-1.606.623-.156.8-.406.8-1.126 0-.807-.118-.925-.928-.925-.698 0-1.094.259-1.595 1.04-.72 1.126-.91.78-.302-.553.35-.767.715-.954 2.345-1.198.59-.088.654-.412.82-4.104.098-2.204.28-4.174.405-4.376.125-.202.091-.975-.075-1.718-.385-1.712.533-4.45 1.7-5.075.498-.266 1.138-1.291 1.837-2.943.664-1.568 1.866-3.526 3.153-5.138 2.003-2.508 4.961-5.32 5.27-5.011.083.082-.425 1.222-1.128 2.532-3.352 6.255-4.268 8.425-4.401 10.431-.118 1.768-.064 1.989.53 2.177.364.116 1.045.666 1.513 1.223 1.001 1.19 4.794 2.79 6.616 2.792.66 0 1.2-.036 1.2-.081 0-.045-.134-.55-.297-1.12-.362-1.262-.168-1.297 1-.178l.897.86v-1.207c0-1.658.675-1.364 1.257.547.25.825.575 1.5.72 1.5.145 0 .263-.777.263-1.726 0-2.765 1.448-2.728 1.658.043.08 1.05.2 1.284.545 1.069.76-.474 1.054-3.488.519-5.306-.429-1.456-.615-1.665-2.063-2.32-.876-.396-1.735-.72-1.91-.72-.174 0-.454-.245-.621-.544-.27-.484-.47-.41-1.776.661-1.09.893-1.472 1.43-1.472 2.073 0 .477-.224 1.188-.498 1.579-.45.643-.45.779 0 1.422.56.8.674 2.489.168 2.489-.181 0-.405-.252-.496-.56-.091-.308-.375-.968-.63-1.466-.568-1.11-.59-1.88-.066-2.403.218-.219.545-.927.727-1.574.412-1.47 2.489-3.128 4.3-3.434.957-.162 1.295-.37 1.295-.8 0-.363.377-.712 1.008-.932 1.269-.442 1.248-.444 1.028.129-.241.629.862.634 2.954.015 1.373-.407 1.492-.407.95 0-.738.552-.113.623.866.1.523-.281.714-.275.814.025.084.252.462.075 1.056-.494.513-.492.924-.702.924-.472 0 .228.199.338.441.245.243-.093.58-.03.75.14.198.198.455.131.718-.185.603-.727 1.047-.6.795.226-.2.657-.129.636.82-.24.722-.666 1.087-.832 1.19-.543.112.309.265.268.593-.16.366-.479.491-.5.735-.13.228.346.414.213.832-.595.526-1.017.52-1.063-.245-1.887-.431-.465-1.318-1.693-1.97-2.73l-1.187-1.883-2.921.22c-2.557.193-3.148.359-4.738 1.324-1.663 1.01-3.813 1.49-3.813.852 0-.139.718-.959 1.594-1.822 1.007-.991 2.015-2.456 2.736-3.974 1.011-2.13 3.25-5.36 3.524-5.085.246.246-.821 6.06-1.273 6.932-.274.53-.39 1.03-.26 1.11.404.244 3.748-.394 3.862-.738.06-.177.393-.648.742-1.047l.633-.724-.123 1.04c-.084.704.01 1.04.293 1.04.229 0 .658.468.953 1.04 1.013 1.96 3.013 4.391 3.768 4.58 2.277.572 3.736-.718 4.296-3.8.621-3.417.963-4.893 1.403-6.052.41-1.08.499-1.145.952-.691.454.453.64.393 2.005-.649.827-.631 1.71-1.148 1.96-1.148a.47.47 0 0 0 .455-.48c0-.543.501-.644.8-.16.11.176.442.315.74.31.445-.01.413-.117-.184-.615-.398-.333-.902-.677-1.12-.765-.303-.123-.292-.234.044-.47.337-.235-.115-.702-1.92-1.986-1.298-.924-2.072-1.595-1.72-1.492.352.102 1.504.468 2.56.812 1.056.344 3.856 1.152 6.222 1.797 5.982 1.63 6.539 1.885 6.287 2.887-.15.603-.075.802.306.802.65 0 1.745-.583 1.745-.928 0-.34-3.909-2.094-5.777-2.595-3.008-.805-5.973-1.901-7.683-2.842-1.767-.971-1.797-1.013-4.149-5.77-1.303-2.637-2.414-4.748-2.47-4.692-.323.322 2.67 6.812 4.33 9.387.388.603.391.72.02.72-.549 0-2.167-2.898-4.199-7.52A698.63 698.63 0 0 0 44.997 4c-.082-.176-1.221-.932-2.532-1.68-2.88-1.644-4.06-1.724-7.105-.48-1.645.672-2.691 1.41-4.43 3.125-2.158 2.126-2.314 2.379-2.96 4.8-.883 3.313-1.586 7.782-2.163 13.755-.255 2.64-.464 4.9-.465 5.024-.001.332-2.355 2.716-2.529 2.542-.082-.081.489-1.12.874-1.64.706-.956.925-2.096 1.658-8.646 1.237-11.048 2.501-14.52 6.313-17.336C33.263 2.277 38.273 0 39.276 0c.212 0 1.663.554 3.225 1.231s3.97 1.711 5.352 2.297c2.021.858 2.663 1.305 3.284 2.288.992 1.572 3.559 7.871 3.698 9.076.117 1.02.298 1.106 7.356 3.525 1.875.643 3.877 1.453 4.448 1.8l1.04.633-1.649 1.623c-.907.893-1.649 1.875-1.649 2.184 0 .335-.386.695-.96.895-1.14.398-1.235.852-.24 1.147l.72.214-.74.3c-.768.313-.688.947.12.947.253 0 .46.216.46.48s.173.48.384.48c.299 0 .299.085 0 .384-.21.211-.384.474-.384.585 0 .368 5.247.337 7.615-.045 2.657-.429 3.482-.177 4.61 1.407l.651.914-.998 1.39c-.549.764-.998 1.455-.998 1.535 0 .08 1.094.216 2.432.302 2.623.168 3.098.486 4.472 2.99.523.953.515 1.018-.303 2.313-.533.845-.84 1.785-.84 2.569 0 .828-.21 1.427-.637 1.813-.494.446-.596.834-.458 1.73.142.914.009 1.38-.643 2.255-.453.606-.823 1.275-.823 1.486 0 .21-.522 2.06-1.16 4.108-1.103 3.544-1.133 3.755-.608 4.334.303.336.456.764.34.952-.117.189.007.562.274.83.333.332.406.706.23 1.18-.343.93-.996 1.109-.996.275 0-.367-.144-.667-.32-.667-.176 0-.32-.424-.32-.941 0-.518-.157-1.038-.348-1.157-.445-.274-.168-1.851.848-4.836.43-1.261.78-2.65.78-3.087 0-.437.359-1.42.797-2.186.85-1.489 1.03-2.513.442-2.513-.237 0-.298-.397-.177-1.142l.185-1.142-.623.792c-.343.436-.624.967-.624 1.18 0 .532-3.519.097-4.148-.514-.409-.396-.362-.454.364-.454.702 0 .867-.18 1.047-1.14.158-.843.355-1.111.756-1.03.4.083.532.421.505 1.3-.023.731.111 1.19.346 1.19.211 0 .36-.318.331-.706-.028-.388.298-1.216.726-1.84.428-.624.903-1.458 1.057-1.854.155-.396.428-.72.608-.72.348 0 .42.31.367 1.6l-.033.8.338-.8c.186-.44.531-1.626.768-2.635.397-1.695.383-1.893-.184-2.613-.603-.767-.633-.77-1.924-.263-1.826.717-4.338 3.05-4.65 4.32-.14.567-.259 1.665-.264 2.44-.009 1.28-.098 1.439-.97 1.724-1.336.438-1.338.444-.341 1.485.739.77 1.075.9 1.959.757.586-.095 1.593-.074 2.236.047.902.169 1.132.343 1.003.758-.092.297-.528 1.836-.968 3.42-.441 1.584-1.183 3.708-1.649 4.72-.82 1.784-.885 1.84-2.103 1.84-.691 0-1.257.147-1.257.326 0 .179-.589 1.295-1.309 2.48-1.886 3.105-2.3 4.44-1.672 5.399.272.415.643.755.824.755.181 0 .777.488 1.323 1.083 1.823 1.987 8.63 3.78 11.554 3.044 1.465-.37 2.294-.175 1.458.342-.97.6-3.297.675-5.88.19-3.901-.73-11.535-.004-12.259 1.167-.154.25-.035.284.389.108 1.698-.705 3.175-.743 5.157-.13 1.545.476 2.163.54 2.664.271.816-.436 3.58-.282 3.741.21.184.557-4.568.718-6.28.212-1.812-.536-3.064-.521-4.717.055-.897.312-1.634.374-2.277.19-.522-.15-1.136-.158-1.364-.017-.835.516 4.66 1.442 9.368 1.579.783.022.706.656-.08.656-.36 0-.64.213-.64.487 0 .414.386.456 2.546.276 1.757-.147 2.846-.088 3.516.19 1.25.517.96.967-.625.967-.685 0-2.075.216-3.088.48-2.79.727-9.943.628-12.429-.172-1.254-.404-2.839-.62-4.57-.623-2.094-.004-2.69-.109-2.84-.5-.104-.273-.64-.693-1.19-.934-.818-.36-.876-.444-.319-.465.375-.014.879-.317 1.12-.672.302-.443 1.318-.86 3.24-1.332 2.493-.611 2.8-.765 2.8-1.411 0-.504.883-1.535 2.903-3.388 1.597-1.465 3.095-2.77 3.33-2.902.584-.328 3.708-5.115 4.883-7.483 1.265-2.55 1.809-5.648 1.352-7.698-.447-2.002-1.048-2.885-2.404-3.532-1.32-.63-1.464-1.206-.225-.9 1 .247 2.542 1.597 2.818 2.468.203.64.782.802.782.22 0-.201-.765-1.317-1.7-2.48-.936-1.164-1.98-2.595-2.32-3.18-.55-.944-.747-1.05-1.74-.932-.616.073-1.36.238-1.652.368-.464.205-.51.061-.352-1.117.12-.894.07-1.283-.15-1.148-.183.113-.784.048-1.336-.144-.744-.26-1.12-.254-1.454.024-.356.296-.52.244-.782-.244-.38-.71-.178-1.023.66-1.023.667 0 .787-.494.186-.771-.22-.102.156-.14.835-.087l1.234.097-.997-.82c-1.137-.934-1.292-1.438-.352-1.139.874.277.814-.36-.08-.86-.699-.391-.687-.408.4-.571l1.12-.169-1.28-.766c-1.402-.839-1.075-1.264.54-.701 1.068.372 1.417.284 1.074-.272-.116-.187-.626-.341-1.134-.341-1.19 0-1.534-.56-.58-.942.678-.272.645-.302-.38-.352l-1.12-.054.88-.348c1.17-.462 1.112-.798-.16-.94l-1.04-.116 1.12-.56c1.093-.545 1.097-.553.16-.353-.528.114-1.464.228-2.08.256-.822.036-1.166.218-1.293.687-.142.517-.399.618-1.36.535-1.136-.098-1.187-.06-1.187.89v.993l-.944-.488c-1.218-.63-1.296-.619-1.296.19 0 .53-.139.634-.64.48l-1.249-.387c-.456-.142-.597-.041-.56.4.036.432-.143.569-.67.513-.531-.056-.72.09-.72.56 0 .363-.215.636-.5.636-.274 0-.414.137-.31.305.172.277-.276.976-1.35 2.108-.22.232-.4.566-.4.743 0 .81-1.692.784-2.874-.043-1-.7-3.608-.746-4.167-.073-.219.264-.704.48-1.079.482-.374 0-1.229.504-1.898 1.12-.67.615-1.409 1.118-1.641 1.118-.233 0-.607.221-.832.492-.305.368-.748.441-1.756.29-1.263-.19-1.357-.15-1.506.628-.087.457-.02.83.151.83.171 0 .223.348.117.774-.116.46-.045.823.175.896.242.08.084.617-.456 1.547-.548.942-.957 2.343-1.212 4.143-.212 1.496-.58 3.08-.819 3.52-.384.708-.412.487-.248-1.92.102-1.496.312-3.216.466-3.822.411-1.613.086-1.602-.61.022-.479 1.117-.954 1.601-2.28 2.323-1.764.96-1.67.955-6.172.303-1.257-.182-1.55.164-.723.851.293.243.406.678.294 1.125-.185.74 1.789 4.853 3.982 8.3 1.191 1.872 1.207 1.971.343 2.197-.55.144-.605.282-.326.804.256.478.223.724-.136 1.023-.26.216-.474.874-.474 1.462 0 .745-.195 1.174-.645 1.415-.354.19-1.367.987-2.25 1.77-1.188 1.056-1.874 1.428-2.635 1.431-1.487.007-2.47.328-2.47.808 0 1.059 5.326 1.099 10.13.076 3.479-.74 5.276-1.575 6.614-3.073.43-.481.396-.597-.349-1.152-.65-.486-.786-.511-.636-.119.233.606-1.416 2.233-2.799 2.763-1.454.557-7.246 1.973-8.072 1.973-1.357 0-.73-.795 1.756-2.225 1.498-.861 3.045-1.493 3.916-1.6l1.439-.175-1.68-.796c-.923-.437-1.679-.902-1.679-1.032 0-.361 1.326-1.14 2.382-1.4l.942-.232-.782-.304c-.747-.29-.753-.315-.142-.567.352-.145 1.019-.274 1.481-.287.463-.012 1.035-.256 1.273-.542.391-.472.284-.5-1.161-.311l-1.593.209-1.367-2.138c-.911-1.424-1.538-2.895-1.879-4.409-.281-1.249-.715-2.67-.964-3.157-.532-1.042-.612-.996 2.665-1.518 3.087-.491 3.625-.208 3.625 1.909 0 .859.143 1.61.317 1.668.207.07.2.528-.019 1.32-.302 1.093-.262 1.277.404 1.844.406.347 1.137.72 1.624.828.666.148.802.297.55.6-.246.296-.078.645.635 1.318.533.503.829 1.256.97 1.614.142.363.248.449.564.88.306.313 1.04 1.043 1.622 2.1l1.057 1.923h1.887c2.094 0 2.743-.558 2.371-2.039-.106-.424-.038-.867.152-.985.676-.418.309-.772-2.854-2.752-.88-.55-1.69-1.143-2.65-1.563-1.304-.572-3.645-.756-3.645-.791 0-.071 3.251.189 3.442.307.19.117 1.412.252 2.714.298 2.69.096 3.788-.349 3.053-1.234-.428-.516-.369-2.394.109-3.481.19-.432.095-.56-.416-.56-.493 0-.757.322-1.041 1.27-.449 1.497-1.034 1.392-.747-.134.196-1.045.184-1.057-1.254-1.273-1.43-.214-3.064.287-3.563 1.095-.11.177-.345.322-.522.322-.178 0-.044-.396.297-.88.38-.54.71-1.738.853-3.096.128-1.218.307-2.406.396-2.64.094-.244-.056-.424-.351-.424-.296 0-.515-.264-.515-.621 0-.817-.55-1.131-1.134-.647-.395.327-.466.188-.466-.914 0-1.354.52-2.051.977-1.311.205.331.447.231 1.069-.44.955-1.03 1.263-1.1 1.016-.227-.649 2.287-.676 2.167.295 1.28l.876-.8-.197 1.44c-.166 1.217-.14 1.329.173.72.501-.977.91-.906.922.16.009.8.048.83.435.32.598-.787.833-.698.846.32l.011.88.425-.766c.42-.759.426-.755.67.48l.244 1.246.307-.882c.387-1.115.888-.837.902.5.01.968.035.99.48.4.258-.34.47-.893.47-1.226 0-.93.774-.465.99.594.191.946.276.87.767-.686.251-.796.798-.2.845.919l.042 1.021.197-1.053c.246-1.306.804-1.488.94-.307.136 1.188.698 1.124.698-.08 0-.528.148-.96.328-.96.18 0 .415.432.52.96.197.985.752 1.34.752.48 0-.93.601-.467.729.56.095.765.142.623.18-.54l.051-1.58.898.86c1.07 1.026 1.34 1.08 1.115.22-.093-.358-.01-.64.19-.64.197 0 .357.144.357.32 0 .546.586.351.723-.24.103-.45.212-.387.554.32.537 1.11.963 1.13.963.045v-.836l.634.756.634.755-1.034.897a79.69 79.69 0 0 1-2.705 2.192L50 54.464l-1.606-.412c-1.49-.381-1.657-.363-2.329.249-1.054.96-1.993 1.379-3.091 1.379-1.231 0-1.699.82-1.57 2.753.08 1.202.253 1.544 1.004 1.99.9.533.915.528 1.84-.57.514-.61.933-1.344.933-1.631 0-.578.97-1.582 1.527-1.582.802 0 .729.756-.166 1.708-2.492 2.653-5.275 8.06-5.653 10.984-.278 2.154.098 2.629 1.35 1.703.805-.595.913-.818.623-1.282-.834-1.336 2.352-7.648 5.69-11.27 1.157-1.258 1.596-1.523 2.517-1.523 1.282 0 1.87-.596.851-.862-.741-.194-.732-.842.014-.987.253-.05.708.095 1.011.32.448.333.514.716.353 2.053l-.197 1.644-1.48.201c-1.465.2-1.502.235-3.71 3.556-1.228 1.845-2.344 3.355-2.48 3.355-.408 0-.284-.768.246-1.525.399-.57.407-.673.043-.533-.781.3-2.139 3.398-2.139 4.881 0 1.133-.238 1.677-1.36 3.098-1.422 1.802-2.028 2.194-1.75 1.13.33-1.26-.398-1.39-5.606-.99-5.607.431-11.235 1.409-12.364 2.148-.68.447-1.184.462-4.153.128-1.857-.21-3.492-.451-3.632-.537-.354-.22-.319-1.962.054-2.658.217-.405.859-.642 2.16-.796 1.673-.197 2.029-.385 3.691-1.948 1.257-1.182 1.84-1.976 1.84-2.505 0-.426.213-.951.474-1.167.367-.305.394-.54.122-1.05-.292-.545-.227-.75.382-1.21l.734-.553-.976-1.236c-.536-.68-1.7-2.685-2.587-4.454-.886-1.77-1.804-3.365-2.04-3.545-.833-.637-3.346-1.398-4.618-1.398-.709 0-1.568-.211-1.91-.47-.341-.258-1-.474-1.465-.48-.465-.005-1.185-.31-1.6-.677-.653-.576-.669-.635-.116-.43 2.023.744 3.066.133 1.457-1.187-.217-.178-.6.256-.722-.047-.054-.13.056-.519-.031-.609M22.62 73.77c.887-.407.777-.427-1.451-.264-1.349.099-3.168.014-4.127-.191-1.628-.35-2.3-.286-1.84.173.114.115 1.47.31 3.013.433 1.543.124 2.95.24 3.125.257.176.018.752-.165 1.28-.408zm4.234-1.323c-.107-.107-.383-.118-.614-.026-.255.103-.18.178.194.194.337.014.526-.062.42-.168zm4.911-10.47c-.411-.412-.483.674-.105 1.597.197.48 1.855 2.526 1.942 1.772.057-.505-1.647-3.18-1.837-3.369zM30.461 44.48c0-.176-.153-.32-.34-.32-.187 0-.298-.252-.248-.56.051-.308-.026-.75-.171-.98-.162-.258-.058-.648.269-1.008.743-.821.044-1.166-.75-.371-.516.515-.578.832-.355 1.818.246 1.093.739 1.724 1.355 1.736.132.003.24-.139.24-.315zm39.735-.53c.326-.295.586-.967.586-1.52 0-.563.484-1.79 1.12-2.846.647-1.072 1.12-2.28 1.12-2.86 0-.709.386-1.462 1.32-2.569 1.235-1.465 1.292-1.618.887-2.376-.566-1.057-1.707-1.467-3.313-1.19-.712.123-2.452.208-3.866.19-2.187-.029-2.626.056-2.945.565-.301.483-.277.636.127.791.39.15.42.292.13.64-.267.322-.273.51-.02.665.254.157.254.333 0 .64-.255.307-.255.483 0 .64.248.153.251.337.011.626-.246.296-.206.52.144.81.633.526.617.964-.035.964-.416 0-.443.092-.136.461.44.53 1.33.32 1.106-.262-.197-.515 2.317-3.189 3.613-3.842 1.472-.743 2.455-.684 1.215.072-1.804 1.1-3.359 2.802-3.359 3.678 0 .498-.251.965-.628 1.167-.363.194-.552.533-.448.803.113.295-.121.605-.635.839-.985.449-1.17.856-.817 1.804.21.563.518.72 1.413.72.937 0 1.244.174 1.69.958.626 1.1.905 1.17 1.72.432zm-4.535-2.503c0-.084.353-.383.783-.665.585-.383.93-.428 1.36-.177.53.308.52.336-.124.345-.385.006-.79.154-.899.33-.197.32-1.12.457-1.12.167zm-.421-2.467c-.102-.255-.178-.18-.193.193-.014.338.061.527.168.42.106-.106.117-.382.025-.613zm-23.677-3.694c-.081-.311-.153-.134-.16.394-.006.528.06.783.148.566.088-.217.093-.649.012-.96zm8.28-4.825c.094-.296.475-.157 1.31.48l1.178.898-.21-.832c-.282-1.128.005-1.313 1.13-.73 1.058.546 1.491.434.738-.19-1.09-.905-.467-1.093 1.356-.407.275.103.334-.031.184-.42-.17-.445-.1-.523.317-.356l1.015.41c.332.134.48-.003.48-.444 0-.73 1.568-1.174 3.101-.879.495.095.72.088.5-.016-.581-.273-.492-1.095.119-1.095.414 0 .442-.093.138-.459-.307-.37-.23-.54.402-.88.43-.231 1.173-.889 1.65-1.461.827-.991.836-1.04.199-1.04-.803 0-.812-.075-.156-1.343.474-.917.473-.975-.02-.786-1.877.72-4.919 1.16-6.737.973-2.979-.305-4.785.244-6.88 2.091-1.55 1.367-1.745 1.674-1.665 2.627.232 2.772 1.29 5.88 1.603 4.713.064-.24.176-.623.249-.854zm1.893-22.364c-.272-.65-.833-1.627-1.247-2.17-.798-1.045-2.905-2.356-3.244-2.017-.11.11.28 1.179.867 2.374.89 1.806 1.307 3.361 2.289 3.453 1.866.174 1.89-.311 1.335-1.64zm-25.881 69.12c1.362-.687 1.88-.787 3.12-.6.817.122 1.486.37 1.486.55 0 .205-.469.25-1.239.12a4.343 4.343 0 0 0-2.44.292c-2.042.853-2.773.569-.927-.362zm17.497.674c.038-.033.732-.284 1.542-.556 1.346-.453 1.623-.449 3.218.045l1.745.54-3.287.016c-1.808.008-3.256-.012-3.218-.045zm-19.93-1.952c-1.534-.294-1.534-.832 0-.627 1.046.141 1.988.004 3.451-.502 1.829-.633 2.149-.658 3.52-.27 1.705.48 2.93.487 3.398.018.175-.175 1.046-.296 1.934-.27l1.616.048-1.28.192c-.704.106-1.752.45-2.33.766-.982.536-1.17.54-2.88.068-1.668-.46-1.985-.46-3.59.004-2.326.673-2.887.756-3.84.573zm17.28-.676c0-.142.503-.746 1.12-1.343 1.288-1.249 1.393-1.14.448.462-.599 1.014-1.569 1.559-1.569.88zm2.88-.543c0-.264.139-.48.31-.48.17 0 .226.216.125.48s-.24.48-.31.48c-.069 0-.126-.216-.126-.48zm8.96-1.722c0-.176.143-.41.32-.518.175-.109.32-.054.32.122s-.145.41-.32.518c-.177.109-.32.054-.32-.122zm26.444-2.118c-.114-.297-.6-.48-1.275-.48-1.195 0-1.988-.674-1.694-1.44.15-.39.018-.445-.652-.277-.598.15-.773.103-.608-.164.17-.275-.133-.316-1.152-.154-1.274.202-1.348.177-.937-.322.39-.472.36-.636-.24-1.273-.377-.402-.687-.818-.687-.924 0-.303 2.987-1.37 3.507-1.253.742.168 2.001 1.27 2.628 2.3.533.877 1.225 1.273 1.225.702 0-.136-.65-.99-1.445-1.898-2.226-2.545-1.195-2.275 1.44.377 1.29 1.299 2.683 2.446 3.095 2.55.523.131.75.418.75.947 0 1.242-3.533 2.41-3.955 1.309zM49.74 69.412c-.824-.31-.913-.865-.278-1.733.42-.575.48-.578 1.28-.054.46.302.838.757.838 1.011 0 .672-1 1.094-1.84.776zm.88-1.119c0-.565-.689-.466-.886.127-.07.209.101.38.38.38a.508.508 0 0 0 .506-.507zm7.967.016c1.066-1.213 1.321-2.833.624-3.949-.292-.467-.258-.75.16-1.347.79-1.128.696-2.213-.191-2.213-.842 0-5.55 2.396-5.912 3.009-.265.447-1.688 1.29-1.688 1 0-.536 1.957-2.255 3.157-2.774.768-.332 1.799-.89 2.29-1.24 1.116-.794 2.61-.817 3.304-.05.653.721.664 1.152.057 2.08-.342.52-.419 1.183-.276 2.388.109.917.307 1.667.441 1.667.427 0 3.366-3.592 5.033-6.152.886-1.36 1.913-3.367 2.282-4.462.803-2.378.883-5.263.174-6.275-.466-.665-.456-.711.152-.711 1.74 0 1.872 3.936.266 7.873-1.676 4.108-6.098 9.746-8.947 11.407-1.974 1.15-2.121 1.11-.926-.251zm-50.944-.676c.21-.547.106-.545-2.143.045l-.8.21.756-.664c.837-.736 1.68-.839 2.646-.322.51.274.563.435.26.8-.517.623-.968.58-.72-.07zm36.897.254c0-.188.59-.501 1.313-.696 1.518-.408 2.03-.22.704.26-.493.178-1.149.426-1.457.55-.325.132-.56.084-.56-.114zm8.96-.047c0-.176.252-.322.56-.325.47-.004.484-.053.09-.303-.26-.163-.377-.391-.262-.507.345-.344.892.168.892.834 0 .408-.22.621-.64.621-.352 0-.64-.144-.64-.32zm-38.02-1.04c.088-.907.237-1.06 1.171-1.2l1.072-.16-.979-.72c-.538-.396-1.125-.72-1.304-.72-.18 0-1.12.507-2.09 1.127-.968.62-2.207 1.216-2.751 1.325-.94.188-.984.151-.884-.726.078-.683.384-1.055 1.173-1.426 1.246-.586 1.344-1.007.311-1.335-.484-.154-.278-.193.6-.113.938.085 1.39-.012 1.51-.325.094-.246.5-.458.901-.47.581-.02.47-.145-.55-.617-1.946-.901-2.9-.815-3.57.32-.312.528-.688.96-.835.96-.147 0-.757.535-1.356 1.188-1.346 1.47-1.822 1.192-.632-.368.64-.84.78-1.25.531-1.55-.186-.225-.52-1.666-.743-3.202-.452-3.131-.104-6.344.845-7.792.798-1.219.897-.719.173.876-.493 1.087-.64 2.105-.646 4.467-.009 4.03.146 4.236 3.23 4.3 3.018.064 4.865.753 5.083 1.898.204 1.065 1.802 2.145 2.804 1.894.841-.212 2 .638 1.99 1.459-.006.377-.161.31-.597-.256-.601-.782-1.428-.697-1.116.116.108.282-.311.754-1.128 1.27-1.802 1.137-2.339 1.084-2.213-.22zm-6.46-5.181c0-.51-.58-.985-.86-.705-.264.263.147 1.166.53 1.166.182 0 .33-.208.33-.461zm-4.596 4.004c.169-.845.103-.983-.468-.983-.365 0-.804.25-.976.557-.171.307-.415.454-.541.328-.44-.44.588-1.205 1.621-1.205 1.27 0 2.038.768 1.548 1.547-.185.293-.571.58-.858.636-.424.083-.486-.082-.326-.88zm76.309-.149l-.72-.765.738-.687c.405-.378 1.028-.645 1.383-.595.514.074.667.373.745 1.453.09 1.247.035 1.36-.664 1.36-.42 0-1.087-.345-1.482-.766zm-11.022-.73c-.412-.412 1.168-1.685 2.736-2.206.866-.288 1.655-.443 1.754-.344.34.34-.203 1.166-.77 1.17-.314.002-1.197.362-1.963.8-1.58.903-1.47.867-1.757.58zm-64.278-1.26c-.833-1.9-.204-14.927.695-14.372.13.08.047 1.123-.184 2.317-.513 2.65-.566 8.272-.102 10.784.385 2.08.2 2.659-.409 1.271zm65.347-1.353c0-.319 1.434-1.011 2.095-1.011.828 0 .494.501-.597.896-1.26.455-1.498.473-1.498.115zm-39.36-6.458c0-.183.223-.418.494-.523.75-.288.839.023.132.465-.396.247-.626.268-.626.058zm21.41-.988c-.353-.232-.142-.565.99-1.558 1.14-.999 3.917-2.75 5.499-3.467.12-.055.05.266-.16.713-.208.446-.802.988-1.318 1.203-.517.215-1.755 1.069-2.75 1.897-1.308 1.089-1.935 1.425-2.26 1.212zm8.524-4.403c-.105-.328-.042-.986.138-1.46.378-.995.435-2.1.083-1.622-.321.438-3.174 1.76-3.797 1.76-.326 0-.438-.177-.315-.497.104-.273-.046-.856-.334-1.296-.387-.592-.43-.893-.164-1.16.266-.265.471-.092.79.668l.432 1.026.777-.602c1.04-.806 2.44-1.135 2.63-.618.081.22.25.013.376-.458.256-.961 1.067-1.44 1.32-.78.091.237-.13 1.31-.492 2.384-.833 2.475-.826 2.613.142 2.613 1.108 0 2-1 2.436-2.73.271-1.077.504-1.43.886-1.346.285.063.472.317.415.565-.057.248-.183 1.125-.28 1.948-.21 1.768-.86 2.203-3.29 2.203-1.246 0-1.602-.122-1.753-.598zm-5.45-2.161c-.571-1.369-.575-1.401-.172-1.401.33 0 1.288 1.655 1.288 2.224 0 .751-.662.263-1.115-.823zM5.066 46.56c-.14-.368-.04-.78.265-1.085.42-.42.488-.424.469-.024-.012.258-.131.746-.264 1.086-.233.593-.25.594-.47.023zm53.45-.693c-.118-.118-.214-.567-.214-1 0-.662.076-.723.48-.387.264.22.48.669.48 1 0 .603-.349.784-.746.387zm-39.41-8.373c-2.102-.587-2.552-1.246-1.582-2.318.577-.637 1.288-.861.938-.296-.284.46.592.395 1.096-.08.333-.313.456-.315.568-.008.13.35.74.114 1.982-.767.07-.05-.057-.309-.28-.577-.334-.403-.314-.488.115-.488.649 0 .669-.438.043-.957-.592-.492-.337-.963.522-.963.382 0 .588.164.503.4-.08.22.082.66.36.98.432.494.44.62.051.86-.381.236-.358.387.143.94.59.652.585.66-.333.669l-.93.008.88.546c1.15.713 1.113 1.037-.119 1.037-.838 0-.937.075-.612.466.212.256.294.616.18.8-.28.453-1.247.384-3.524-.252zm8.808-.5c.258-.245.791-.542 1.186-.66.55-.166.676-.106.538.254-.099.258-.494.553-.878.656-1.112.298-1.349.228-.846-.25zm-2.12-.88c-.157-.254.387-.436 2.249-.752 1.09-.185 1.207-.15.868.26-.412.496-2.874.885-3.117.492zm12.23-13.027c-.433-.48-.47-.68-.161-.872.228-.14.456-.085.527.128.187.562 1.032.456 1.032-.13 0-.278-.083-.867.137-.794.43-.102.663.902.663 1.328 0 1.022-1.385 1.237-2.197.34zm-3.816-1.11c-.124-.326.09-.74.589-1.131.432-.34.785-.853.785-1.14 0-.287.335-.65.744-.805 1.31-.497 1.868-1.73 1.568-3.461-.23-1.33-.355-1.51-.995-1.439-.467.052-.683-.064-.599-.32.072-.22.589-.446 1.147-.501.96-.095 1.015-.042 1.015.986 0 .598.097 1.184.214 1.301.367.367 1.386-.808 1.386-1.597 0-.412.144-.75.32-.75.176 0 .32.36.32.8 0 .44.135.8.299.8.164 0 .387.279.495.62.108.34.503.665.876.72.374.055.742.286.817.514.154.467-1.38.22-2.087-.337-.475-.375-.878-.101-3.11 2.11-.879.873-1.593 1.877-1.6 2.249-.005.41-.257.72-.642.796-.347.067-.792.342-.988.61-.318.434-.378.432-.554-.025zm7.939-.418c-.287-.287-.441-.73-.343-.986.098-.256.178-.526.178-.6 0-.073.212-.133.47-.133.272 0 .398.19.299.448-.227.59.468 1.003.923.548.53-.53.868-.432.868.25 0 1.032-1.533 1.335-2.395.473zm-8.805-3.43c0-.412.268-.992.594-1.287.386-.349.541-.817.443-1.33-.118-.617-.017-.792.455-.792.513 0 .587.194.483 1.28-.073.767-.287 1.28-.534 1.28-.226 0-.502.36-.612.8-.254 1.011-.829 1.045-.829.05zm13.676-.08c-.105-.105-.124-.367-.042-.58.082-.214-.144-.655-.502-.979-.359-.324-.652-.786-.652-1.026s-.357-.6-.793-.8c-.437-.198-.879-.627-.982-.953-.103-.325-.47-.591-.816-.591s-.712-.216-.813-.48c-.101-.264-.42-.485-.71-.49-.44-.009-.42-.09.114-.496.584-.444.679-.429 1.08.17.24.36.7.656 1.018.656.319 0 .672.292.785.649.113.356.555.877.982 1.156.426.28.775.717.775.972 0 .256.432.828.96 1.272 1.08.909 1.255 1.711.374 1.711-.323 0-.673-.086-.778-.191zM35.155 5.227c-.385-.385-.225-.67.482-.854.922-.241 1.346.055.88.615-.399.482-1.012.589-1.362.239z"/><path d="M33.195 20.547l.441-1.752" fill="none" stroke="#ffe0a2" stroke-width=".189"/><path d="M35.244 14.88l1.055-1.199M40.381 13.12c1.01-1.123 1.084-1.123 1.084-1.123" fill="none" stroke="#fee1a2" stroke-width=".189"/><path d="M49.501 15.782c-3.496-1.23-3.446-1.255-3.446-1.255" fill="none" stroke="#fee1a0" stroke-width=".189"/><path d="M25.341 31.428l-2.528-.342" fill="none" stroke="#ffe0a2" stroke-width=".189"/><path d="M25.297 31.325c-.034-.01-.55-.083-1.147-.163-.598-.079-1.083-.151-1.08-.16a2.33 2.33 0 0 1 .205-.173c.27-.214 1.39-1.337 1.662-1.667.337-.408.404-.52.42-.698a651.788 651.788 0 0 1 .635-6.66c.514-4.832 1.127-8.63 1.86-11.527.42-1.66.663-2.373.994-2.934l.135-.228 8.692.006 8.693.006.234.533a94.232 94.232 0 0 0 1.68 3.635c1.124 2.291 1.98 3.699 2.439 4.006.105.07.131.078.25.066a.439.439 0 0 0 .167-.043c.09-.074.019-.258-.281-.734-.994-1.573-2.472-4.485-3.518-6.93l-.228-.533.212-.007c.117-.004.226-.002.243.004.016.007.58 1.115 1.253 2.463 1.647 3.303 1.954 3.888 2.358 4.491.464.693.84 1.017 1.787 1.54 1.779.984 4.256 1.929 7.339 2.8.457.128 1.004.29 1.215.36a33.18 33.18 0 0 1 3.337 1.345l.347.163.007.866c.006.758.002.868-.031.88-.021.009-.108.023-.193.031-.18.019-.338-.017-.404-.09-.071-.078-.076-.332-.013-.618.068-.308.068-.547 0-.687-.159-.328-.71-.627-1.871-1.014-.867-.29-1.659-.517-5.222-1.5a155.475 155.475 0 0 1-6.153-1.81c-.634-.203-1.3-.415-1.48-.471-.269-.085-.324-.11-.314-.145.008-.033-.025-.055-.158-.1a230.34 230.34 0 0 1-2.773-.995 9.755 9.755 0 0 0-.488-.175c-.012 0-.021.025-.022.055v.056l-.034-.06c-.021-.038-.037-.047-.044-.027-.007.023-.037.01-.096-.04a4.429 4.429 0 0 0-.247-.188c-.454-.322-.783-.72-.97-1.173-.14-.344-.467-.608-.752-.608-.135 0-.387-.09-.55-.197-.194-.128-.369-.3-.518-.514-.211-.3-.36-.43-.49-.43-.096 0-.293.108-.553.302a3.287 3.287 0 0 0-.282.227.134.134 0 0 1-.091.041c-.065 0-.349.274-.846.817-.217.236-.299.341-.281.362.017.02.006.037-.037.057-.114.052-.236.385-.237.649-.001.453-.274 1.026-.68 1.427-.3.295-.542.381-.682.241-.13-.13-.225-.725-.225-1.42 0-.571-.052-.754-.241-.845-.106-.051-.134-.054-.475-.038-.4.018-.635.057-.927.154-.205.068-.457.22-.51.308-.024.04-.041.047-.064.028-.023-.02-.15.11-.513.52-.266.302-.495.563-.51.582-.022.029-.045.028-.148-.004a.859.859 0 0 0-.314-.026c-.416.026-.5.194-.402.804.045.277.032.486-.043.712-.072.215-.156.345-.368.57-.231.247-.325.381-.447.643-.139.3-.183.511-.166.804.016.274.043.385.125.505l.056.084-.212.844c-.116.464-.223.85-.237.86-.368.247-1.062 1.131-1.87 2.384a25.654 25.654 0 0 0-1.518 2.653c-.878 1.756-1.625 2.85-2.701 3.951-.892.914-1.366 1.434-1.548 1.702-.068.1-.085.112-.14.095zM29.009 7.084c.306-.521 2.258-2.508 3.383-3.446.997-.83 1.826-1.32 3.117-1.842.98-.396 1.836-.655 2.477-.748a5.683 5.683 0 0 1 1.337 0c.94.142 1.89.55 3.55 1.526.95.558 1.77 1.1 2.006 1.323.085.081.138.17.24.402.071.164.364.828.65 1.476l.556 1.259.035.08h-8.685c-6.94 0-8.68-.006-8.666-.03zm6.995-1.709c.177-.066.335-.176.478-.333.298-.326.305-.61.016-.72-.218-.083-.814-.012-1.17.14-.435.185-.5.45-.188.763.221.22.53.275.864.15zM46.991 6.823c-.27-.675-.46-1.279-.458-1.466l.001-.09.061.074c.069.084.449.765.764 1.37l.21.404h-.46z" fill="#ffe1a2" stroke="#ffe0a2" stroke-width=".005"/><path d="M52.954 10.876c.58 1.074 1.072 2.634 1.337 4.197.142.84-1.2.046-1.648-.287-1.376-1.026-3.44-4.558-2.296-4.609.885-.039 1.305.023 2.273.137" fill="#e30e0e" fill-rule="evenodd"/><path d="M65.216 21.169c0-.465.009-.845.02-.845.01 0 .206.095.433.21.45.23.793.442.888.55.057.065.057.075-.004.19-.116.218-.821.63-1.223.716l-.114.024z" fill="#ffe1a2"/><path d="M34.207 21.977c-.992.004-1.027.109-1.027.109" fill="none" stroke="#9b9ac4" stroke-width=".189"/><path d="M47.017 18.049l-3.83-1.475" fill="none" stroke="#9896c2" stroke-width=".189"/><path d="M33.162 21.77c.066-.608.097-1.04.08-1.104-.01-.04.002-.09.027-.111.026-.021.138-.408.25-.861.183-.74.214-.832.304-.907.14-.118.254-.33.345-.638.042-.145.113-.334.157-.421.107-.211.322-.421.43-.421.126 0 .3-.196.392-.439.135-.362.185-.703.198-1.35l.012-.613.464-.525c.255-.289.47-.505.479-.48.028.083.202.117.578.113.66-.008.744.099.961 1.223.074.38.093.586.096 1.036.004.669-.046.918-.285 1.42-.134.282-.204.379-.45.622-.26.258-.339.312-.737.504-.267.128-.508.273-.602.359-.171.158-.29.36-.29.492 0 .284-.261.672-.769 1.144-.448.417-.604.635-.627.877l-.016.168-.395.023a3.783 3.783 0 0 0-.51.057l-.114.033z" fill="#9b96c1" stroke="#9896c2" stroke-width=".189"/><path d="M45.06 17.18c-.965-.375-1.786-.685-1.824-.69-.039-.003-.105-.047-.146-.096-.11-.13-.373-.261-.696-.348-.441-.119-.781-.392-.877-.704-.092-.3-.305-.57-.501-.635-.176-.057-.254-.258-.293-.753-.032-.398-.095-.648-.189-.752-.046-.051-.001-.109.429-.559l.48-.502.207.022c.384.04.537.147.807.563.152.232.384.36.738.405.426.054.67.224.831.58.184.406.496.706 1.026.987.388.206.673.475.728.687.122.469.206.608.655 1.09.399.425.56.716.523.946l-.045.298c-.01.082-.038.148-.06.146-.02-.001-.828-.31-1.793-.685z" fill="#9896c2" stroke="#9896c2" stroke-width=".189"/><path d="M39.558 21.419l-1.696.796" fill="none" stroke="#fccccd" stroke-width=".076"/><path d="M44.337 20.507l-1.886-.667" fill="none" stroke="#fdcdce" stroke-width=".076"/><path d="M42.52 33.893c-.332-.026-.737-.108-.875-.178-.567-.289-1.642-1.465-2.585-2.83-.381-.55-.712-1.096-1.08-1.776a3.225 3.225 0 0 0-.471-.663c-.178-.188-.294-.267-.421-.288-.191-.03-.254-.095-.305-.309-.041-.175-.024-.553.053-1.178.034-.282.063-.533.063-.558 0-.037-.071.035-.376.384-.605.692-.832.995-1.01 1.352-.076.15-.71.36-1.684.554-1.16.232-2.083.297-2.184.153-.078-.112.039-.582.249-1.001.096-.191.157-.363.269-.755.256-.899.632-2.724.875-4.26.038-.238.074-.44.08-.45.013-.022.132.015.132.042 0 .015.028.014.11-.003.06-.013.275-.03.477-.038.263-.01.369-.02.374-.035.004-.012.033.033.065.1.058.12.113.178.17.178.045 0 .144-.094.26-.245a1.84 1.84 0 0 1 1.066-.694c.365-.085.587-.354.626-.759.02-.224.12-.444.365-.81.434-.65.993-1.263 2.205-2.418.801-.763 1.183-1.074 1.506-1.229a.473.473 0 0 1 .275-.064c.16 0 .18.01.4.167.404.288 1.061.513 1.574.538.23.012.378-.018.444-.09l.038-.04 1.886.725c1.821.702 1.886.726 1.91.692.022-.034.024-.034.109.009.198.1.648.159.878.114.3-.059.423-.236.357-.518-.075-.324-.374-.714-.904-1.178-.572-.501-.914-.953-.971-1.282a.983.983 0 0 0-.204-.442c-.04-.05-.07-.096-.064-.101.005-.005.104.027.22.072.319.12 1.07.392 1.993.72l.919.326c.07.026.136.074.254.186.3.281.78.656 1.634 1.271.998.72 1.39 1.028 1.694 1.33.231.229.314.353.314.472 0 .084-.03.121-.204.254-.143.11-.185.219-.112.292.02.02.12.077.224.13.303.152.697.427 1.128.787.309.259.45.417.425.48-.016.043-.121.067-.286.067a.989.989 0 0 1-.483-.105c-.123-.058-.157-.09-.356-.323-.176-.206-.426-.244-.582-.088-.077.077-.115.183-.131.368-.015.165-.063.28-.153.361-.088.08-.147.104-.312.129-.344.053-1.074.488-2.061 1.23-.835.627-1.132.804-1.37.82-.18.011-.264-.032-.516-.266-.295-.275-.395-.312-.526-.193-.088.079-.233.37-.392.788-.458 1.202-.764 2.484-1.353 5.664-.15.804-.175.925-.272 1.299a6.494 6.494 0 0 1-.465 1.28c-.228.468-.449.782-.768 1.09-.471.457-.987.689-1.653.743-.23.02-.237.02-.492 0zM39.53 23.62c.46-.103.728-.479.695-.972-.028-.416-.184-.912-.345-1.095-.086-.098-.149-.135-.258-.15l-.1-.013-.833.391c-.458.215-.836.402-.839.414-.003.013-.035.044-.071.07-.223.154-.142.42.26.846.41.435.97.626 1.49.51zm4.254-1.612c.219-.064.349-.137.494-.28.207-.205.284-.42.265-.743-.013-.22-.05-.335-.13-.419a.314.314 0 0 1-.066-.084c0-.01-.417-.165-.926-.345l-.925-.327-.119.018c-.356.054-.397.074-.414.2a3.029 3.029 0 0 1-.101.349c-.127.375-.123.51.029.824.21.434.638.738 1.191.844.19.037.507.02.702-.037z" fill="#fdcdce" stroke="#fdcdce" stroke-width=".001"/><path d="M23.741 38.403l-1.111-.657" fill="#d6d6fe" fill-rule="evenodd" stroke="#d6d7f9" stroke-width=".076"/><path d="M23.18 38.025l-.506-.303.006-.156a.849.849 0 0 0-.172-.55c-.247-.348-.264-.417-.115-.472.044-.016.327-.039.637-.05.716-.029.944-.083.983-.235.055-.219-.217-.455-1.274-1.106l-.379-.234.726-.014c.794-.016.868-.028.882-.15.009-.072-.053-.157-.415-.567-.261-.297-.373-.474-.373-.589 0-.096.103-.223.255-.313.163-.097.27-.22.272-.318.003-.119-.055-.224-.278-.5-.336-.42-.428-.645-.418-1.017l.007-.24.075.013c.04.007.565.08 1.165.16.96.13 1.095.154 1.129.197.095.124.412.176.782.128.917-.12 1.999-.533 3.088-1.18 1.36-.808 2.06-1.03 3.746-1.19.434-.042 3.64-.287 3.746-.287.055 0 .133.114.682.986 1.248 1.984 1.979 3.016 2.654 3.753.364.397.484.596.484.808 0 .14-.075.342-.287.767-.359.72-.58.993-.737.908a.902.902 0 0 1-.18-.194c-.152-.207-.247-.254-.38-.186-.05.025-.163.135-.251.243a6.472 6.472 0 0 1-.29.328c-.111.115-.139.131-.21.125-.07-.007-.092-.026-.138-.117-.114-.226-.192-.25-.441-.13-.19.09-.432.277-.869.672-.625.566-.752.66-.808.604-.013-.013.014-.165.064-.367.096-.381.107-.522.047-.648-.11-.23-.42-.108-.808.316-.14.154-.24.239-.334.285-.166.08-.243.07-.416-.063a.775.775 0 0 0-.724-.139.89.89 0 0 1-.202.037c-.112 0-.231-.11-.251-.234-.009-.052-.035-.107-.058-.122-.103-.065-.411.125-.863.532-.402.362-.525.458-.7.546-.156.08-.27.092-.316.036a1.065 1.065 0 0 1-.084-.142c-.04-.08-.076-.114-.143-.136-.132-.043-.251-.008-.717.214-.431.205-.656.288-.848.314-.336.046-.327-.117.023-.39.19-.148.353-.297.353-.322 0-.078-.226-.034-1.09.214-1.228.353-1.817.477-2.37.5-.411.018-.586-.015-.7-.13-.103-.102-.103-.156-.002-.452.096-.283.086-.318-.095-.31-.166.006-1.105.328-1.386.474-.328.17-.533.388-.618.655-.007.024-.022.043-.033.042-.01 0-.247-.137-.526-.304zm4.951-.626c.682-.119 1.039-.266 1.316-.543.15-.15.185-.2.22-.324.03-.101.036-.165.02-.21-.02-.056-.036-.064-.167-.07-.487-.026-1.56.55-1.829.98-.119.19.015.241.44.167zm-1.387-1.128c.884-.067 1.8-.32 2.11-.581.103-.086.23-.282.23-.353 0-.04-.019-.061-.065-.073-.175-.044-.847.048-1.938.264-1.068.212-1.392.357-1.306.581.034.09.244.153.604.184.021.002.185-.008.365-.022zM52.006 31.577c-.533-.412-1.16-.88-1.338-.996-.39-.256-.66-.335-.77-.226-.043.044-.147.357-.308.932-.042.149-.122.271-.176.271-.119 0-.32-.3-.497-.744-.531-1.324-1.05-4.139-.896-4.863.112-.523.515-.991 1.821-2.117 1.307-1.125 2.571-1.733 4.033-1.939.712-.1 1.431-.102 2.547-.008 1.257.106 2.684.016 4.223-.265.914-.167 1.87-.418 2.547-.667.322-.119.417-.136.438-.08.021.055-.072.27-.405.934-.337.67-.403.834-.403 1.003 0 .189.062.214.59.235.441.018.498.037.468.158-.042.167-.603.857-1.106 1.358-.462.461-.817.75-1.205.979-.602.355-.67.499-.404.85.17.223.218.306.218.37 0 .07-.044.085-.307.108-.184.017-.237.031-.32.09-.336.237-.267.756.13.995l.135.08h-.126c-.069 0-.253-.021-.408-.048-.834-.143-1.526-.127-2.18.051-.273.074-.612.246-.753.381-.148.143-.204.27-.226.509-.028.298-.107.422-.27.422-.038 0-.362-.116-.72-.259-.718-.287-.805-.312-.868-.25-.059.06-.052.116.05.43.1.306.098.406-.01.422-.029.004-.256-.06-.503-.145-.763-.258-1.284-.349-1.463-.255-.078.04-.087.055-.085.146.002.137.107.282.376.523.447.399.563.543.499.62-.024.03-.063.036-.157.026-.187-.02-.401-.099-.881-.326-.604-.287-.695-.318-.922-.322-.168-.002-.198.005-.253.057-.098.091-.13.28-.095.546.023.172.204.968.268 1.175.007.024.004.043-.007.042-.012 0-.138-.092-.281-.203z" fill="#d6d6fe" stroke="#d6d7f9" stroke-width=".002"/><path d="M8.484 50.362l.037-.967" fill="none" stroke="#dad8f4" stroke-width=".076"/><path d="M6.635 64.788l-.893.546M4.061 64.32l-.539-.959" fill="none" stroke="#dbdcf8" stroke-width=".076"/><path d="M5.73 65.129c-.13-.368-.664-.722-1.184-.782-.453-.052-.444-.045-.715-.526-.254-.451-.255-.455-.154-.533.328-.252.484-1.251.602-3.85.111-2.474.236-7.037.275-10.071.016-1.228.05-2.423.078-2.655.142-1.223.604-2.08 1.376-2.551.573-.35 1.021-.964 1.668-2.286 1.776-3.632 2.16-4.345 2.572-4.776.474-.496.227.176-.981 2.667-.751 1.548-1.194 2.557-1.362 3.103-.12.387-.126.47-.037.47.185 0 .588-.662 1.573-2.58 1.11-2.162 2.023-3.771 2.734-4.816.268-.394.54-.708.54-.623 0 .114-.48 1.15-1.415 3.057-1.517 3.095-1.598 3.337-1.656 5.01-.038 1.098-.068 1.257-.252 1.315-.054.017-.343-.017-.642-.077-.96-.191-.967-.18-1.123 1.654-.088 1.026-.074 1.326.06 1.326.043 0 .244-.145.447-.322.203-.178.39-.323.414-.323.054 0 .09.143.11.422.016.246.115.277.324.101l.15-.127-.026.298c-.032.354.004.371.297.14l.202-.16-.033.275c-.052.447.013.49.564.363.238-.055.941.755.941 1.084 0 .465-.953.511-2.146.106a2.899 2.899 0 0 0-.418-.12c-.05 0-.066.112-.066.466 0 .455-.003.47-.157.632-.614.653-1.039 1.724-1.285 3.243-.133.817-.187 2.95-.1 3.951.124 1.431.51 3.492.772 4.115l.188.45c.075.18-.049.49-.4 1.005-.69 1.01-.813 1.209-.865 1.399-.044.164-.097.228-.282.334a9.805 9.805 0 0 0-.383.232l-.156.102zm.291-.962c.08-.147.033-.811-.122-1.776-.261-1.619-.329-2.66-.33-5.075 0-2.587.11-4.146.418-5.99.181-1.077.262-1.892.208-2.104-.049-.195-.207-.166-.32.058-.669 1.325-1.113 10.03-.676 13.242.1.737.263 1.205.553 1.593.142.19.19.2.27.052zM5.46 46.774c.318-.747.457-1.577.274-1.637-.034-.01-.17.083-.305.209-.3.281-.475.652-.441.941.03.258.229.723.31.723.034 0 .107-.106.162-.236z" fill="#dbdcf8" stroke="#dbdcf8" stroke-width=".004"/><path d="M38.696 22.657c-.096-.035-.237-.19-.3-.328-.033-.075-.09-.146-.126-.158-.036-.011-.065-.031-.065-.045 0-.018 1-.502 1.16-.561.018-.007.032.16.032.379 0 .441-.038.557-.22.669a.717.717 0 0 1-.481.044zM42.963 20.931c-.134-.089-.232-.244-.232-.37 0-.079.067-.494.087-.536.002-.004.308.1.682.232.534.189.66.244.59.262-.05.012-.172.09-.273.171-.355.289-.39.308-.577.307a.517.517 0 0 1-.277-.066zM30.028 44.751c-.574-.175-.968-.812-1.195-1.932-.152-.75-.062-1.094.407-1.56.388-.387.818-.55.98-.37.091.1.045.274-.14.536-.37.52-.405.58-.445.773-.039.183-.036.215.039.384.163.374.186.486.184.917-.003.53.069.689.31.689.042 0 .124.048.183.106.092.093.104.125.086.237-.034.212-.18.29-.409.22z" fill="#fff" stroke="#dbdcf8" stroke-width=".003"/><path d="M32.584 46.048l-.948-.667" fill="#d7d7fc" fill-rule="evenodd" stroke="#d7d7fe" stroke-width=".076"/><path d="M64.147 41.067L58.965 47.1" fill="none" stroke="#6b6d8c" stroke-width=".076"/><path d="M55.409 50.08l2.37-1.12" fill="none" stroke="#d7d7fe" stroke-width=".076"/><path d="M49.187 50.914a6.16 6.16 0 0 1-.109-.495c-.094-.493-.28-.81-.49-.835-.115-.013-.138.009-.184.174a1.714 1.714 0 0 0-.053.378c0 .408-.214.508-.418.195-.117-.18-.155-.285-.373-1.038-.118-.408-.31-.674-.469-.651-.176.025-.28.323-.327.943-.046.599-.09.771-.225.883-.075.063-.098.056-.2-.062-.107-.125-.144-.253-.271-.932-.069-.365-.21-.594-.367-.594-.243 0-.467.467-.61 1.268-.045.258-.098.469-.116.469-.019 0-.046-.251-.06-.558-.038-.808-.257-1.328-.56-1.328-.163 0-.23.117-.47.82-.229.663-.329.855-.406.778-.028-.028-.093-.233-.145-.456-.174-.746-.485-1.216-.781-1.181-.16.018-.231.16-.295.585-.068.451-.22.817-.49 1.178-.23.309-.361.39-.366.224a49.15 49.15 0 0 0-.044-.737c-.051-.801-.16-1.111-.388-1.111-.247 0-.402.239-.656 1.017a4.77 4.77 0 0 1-.142.396c-.016.027-.11-.369-.21-.88-.192-.98-.266-1.228-.368-1.228-.087 0-.124.053-.46.66l-.296.535-.023-.66c-.04-1.194-.213-1.258-.968-.361-.261.31-.31.262-.312-.298-.001-.6-.133-.968-.346-.968-.131 0-.382.28-.61.682-.206.365-.21.368-.224.205-.008-.092.052-.647.132-1.233.081-.587.137-1.076.125-1.089-.012-.012-.094.046-.182.128-.755.702-1.33 1.208-1.374 1.208-.09 0-.06-.161.2-1.073.14-.488.257-.987.261-1.11.008-.209 0-.224-.128-.239-.115-.013-.24.086-.85.68-.409.397-.773.71-.848.73-.115.028-.165-.002-.368-.222-.13-.14-.279-.254-.333-.254-.145 0-.294.123-.389.322l-.084.178-.257-.186-.388-.28-.131-.094.093-.267c.128-.364.12-.473-.052-.623-.193-.17-.23-.342-.16-.75.1-.585.083-.727-.116-.908-.15-.138-.173-.19-.173-.386 0-.124.025-.345.055-.49.133-.626.267-.688 1.216-.56.703.097 1.235.117 1.516.06.122-.026.292-.137.508-.333.355-.321.509-.415.773-.471.372-.08.85-.397 1.712-1.137.82-.705 1.42-1.044 1.987-1.125.387-.054.66-.185.973-.465.397-.356 1.071-.505 2.076-.456 1.003.048 1.503.19 2.24.632.851.512 1.822.668 2.406.388.207-.1.278-.208.34-.523.044-.224.252-.528.691-1.01.81-.89 1.086-1.346 1.061-1.754l-.015-.255.198-.043c.463-.1.545-.192.616-.7.027-.187.084-.376.127-.42.06-.058.205-.083.574-.095.46-.016.501-.026.593-.144.073-.092.1-.2.1-.407 0-.482.093-.497 1.124-.176 1.239.384 1.262.378 1.312-.323.04-.563.094-.64.387-.553.11.033.568.25 1.02.481l.82.422.004-.61c.005-.75.052-1.107.163-1.218.076-.075.19-.083.996-.069 1.087.02 1.16-.002 1.346-.404.066-.141.12-.28.12-.31.002-.105.29-.326.513-.393.126-.038.536-.093.912-.123.683-.054 1.709-.195 2.167-.298.134-.03.25-.046.26-.036.01.01-.411.238-.936.508l-.955.49.72.084c.395.047.823.111.951.144.288.073.417.2.345.334-.066.123-.512.36-1.102.585-.257.098-.486.196-.509.219-.023.022.256.055.62.073.86.041 1.232.08 1.232.126 0 .02-.147.1-.328.176-.43.183-.614.34-.614.522 0 .301.303.44 1.088.496.81.059 1.113.18 1.245.499.048.114.047.16-.001.22-.096.115-.343.089-.953-.1-.8-.25-1.32-.347-1.49-.28-.36.143-.015.51 1.12 1.193.428.256.777.48.777.499 0 .018-.207.061-.46.097-1.204.167-1.476.242-1.387.383.02.03.207.16.415.286.872.528 1 1.058.206.852-1.081-.28-.914.183.486 1.344.454.376.624.543.563.556-.048.01-.44-.008-.872-.039-.984-.07-1.251-.019-.887.17.193.1.316.288.274.42-.045.143-.278.25-.546.25-.584 0-.9.206-.853.557.03.223.2.586.367.786.165.196.32.186.65-.04.242-.168.3-.187.574-.184.193.002.498.063.837.166.293.089.68.177.859.195l.325.033-2.508 2.92a391.279 391.279 0 0 0-2.546 2.977c-.04.064-.68.578-.72.578-.013 0-.119-.23-.235-.509-.304-.736-.475-1.055-.625-1.173-.175-.138-.199-.134-.403.07-.162.162-.173.193-.152.414.016.168.098.37.276.681.346.606.44.95.364 1.323-.059.285-.02.484.095.484.12 0 .025.09-.226.213-.15.074-.282.134-.293.134-.01 0-.007-.088.008-.197.036-.272-.055-.596-.311-1.106-.253-.503-.544-.944-.756-1.144-.114-.108-.187-.136-.315-.124-.263.025-.249.205.08 1.015.385.943.685 1.407 1.032 1.59.07.037-.05.111-.615.378-.567.268-.718.32-.775.273-.04-.033-.319-.356-.62-.72-.302-.362-.568-.66-.592-.66-.023 0-.042.28-.042.622 0 .95-.146 1.177-.503.78-.092-.102-.286-.413-.432-.69-.33-.632-.448-.701-.551-.325-.146.533-.59.811-.674.422-.08-.37-.26-.527-.488-.423-.161.073-.198.315-.11.73.073.35.062.472-.042.472-.131 0-.54-.326-1.209-.967-.385-.368-.724-.67-.752-.67-.033 0-.054.257-.058.707-.007.863-.062 1.776-.1 1.674zm9.854-4.843c.127-.049.225-.29.225-.553 0-.388-.133-.697-.427-.991-.292-.292-.442-.33-.517-.134-.096.252-.036 1.022.106 1.372.094.23.405.385.613.306z" fill="#d7d7fc" stroke="#d7d7fe" stroke-width=".004"/><path d="M69.126 44.324c-.166-.11-.311-.3-.636-.837-.285-.47-.594-.764-.898-.856-.118-.036-.504-.08-.859-.1-.716-.04-.927-.104-1.127-.341-.158-.188-.32-.606-.364-.94-.067-.499.167-.786.986-1.212.227-.118.44-.271.515-.37.111-.146.124-.201.101-.428-.033-.318.043-.52.259-.683.598-.456.756-.705.819-1.287.103-.968 1.263-2.293 3.086-3.526.913-.617 1.047-.817.534-.798-.52.02-1.521.458-2.204.966-1.057.787-2.465 2.283-2.828 3.007a.64.64 0 0 0-.081.433c.083.603-.743.683-1.157.112-.084-.116-.134-.23-.111-.254.023-.023.163-.055.31-.071.367-.04.493-.126.493-.334 0-.177-.1-.321-.51-.739-.14-.141-.234-.282-.234-.349 0-.062.078-.234.174-.382.095-.148.173-.288.173-.311 0-.086-.115-.255-.254-.372-.078-.065-.143-.157-.143-.202 0-.045.09-.214.199-.374.109-.16.198-.325.198-.364 0-.04-.089-.163-.198-.274-.11-.111-.199-.23-.199-.263 0-.034.09-.195.199-.358.288-.432.272-.504-.156-.723-.307-.157-.333-.228-.194-.523a1.62 1.62 0 0 1 .27-.399c.312-.302.4-.313 2.635-.354 2.36-.042 2.833-.067 3.944-.205 1.194-.149 1.777-.085 2.447.27.484.256 1.01.943 1.103 1.44.053.285-.172.686-.856 1.524-1.216 1.49-1.47 1.949-1.554 2.806-.078.798-.406 1.632-1.202 3.053-.6 1.072-1.028 2.162-1.03 2.624-.001.276-.133.828-.268 1.122-.199.434-.83.964-1.148.962a.55.55 0 0 1-.234-.09zm-2.765-2.767c.151-.045.322-.138.395-.216.2-.215.424-.304.887-.352.236-.025.458-.046.492-.046.143-.002.043-.14-.215-.297-.315-.191-.69-.25-.982-.153-.24.08-.853.484-1.125.743l-.22.21.116.095c.143.116.303.12.652.016z" fill="#fefefc" stroke="#d7d7fe" stroke-width=".004"/><path d="M64.649 43.332l-1.358 1.91" fill="none" stroke="#fbcfcb" stroke-width=".076"/><path d="M67.737 46.902l-1.059-.173" fill="#facbcb" fill-rule="evenodd" stroke="#fecfcd" stroke-width=".076"/><path d="M62.431 50.166c-.332-.13-.28-.504.334-2.377.309-.942.505-1.72.558-2.213.036-.342.04-.35.706-1.295l.67-.95.372-.102c.93-.253 1.933-.34 2.208-.193.213.115.43.36.672.759.454.75 1.188 1.763 2.354 3.25 1.518 1.937 1.88 2.541 1.653 2.768-.178.178-.451-.033-.662-.511a4.13 4.13 0 0 0-.347-.6c-.455-.638-1.544-1.514-2.178-1.751-.384-.144-.905-.228-1.038-.167-.154.07-1.025-.075-1.025-.171 0-.248-.26-.462-.563-.462-.32 0-.493.296-.795 1.359-.285 1.007-.592 1.604-1.082 2.103-.374.382-.772.563-1.29.587-.227.01-.473-.005-.547-.034z" fill="#facbcb" stroke="#facbcb" stroke-width=".151"/><path d="M76.568 63.97l-.397-1.092" fill="#9998c3" fill-rule="evenodd" stroke="#9797c1" stroke-width=".076"/><path d="M82.838 71.493l.103-1.922" fill="none" stroke="#9996c5" stroke-width=".076"/><path d="M78.542 71.752c-2.778-.244-6.025-1.217-7.86-2.355-.318-.198-.678-.492-1.134-.928-.718-.687-1.015-.917-1.276-.99-.207-.056-.71-.585-.874-.917-.104-.211-.119-.312-.119-.788 0-.49.017-.595.17-1.042.224-.657.874-1.926 1.689-3.3.66-1.11 1.301-2.304 1.354-2.518.047-.188.332-.266 1.152-.315.873-.052 1.06-.095 1.291-.298.458-.402 1.218-2.121 2.028-4.583.368-1.12 1.52-5.158 1.52-5.328 0-.186-.084-.285-.333-.391-.61-.26-1.79-.349-3.195-.24-.557.042-.584.04-.843-.08-.46-.215-1.534-1.304-1.534-1.556 0-.168.197-.294.735-.471.603-.2.914-.354 1.044-.52.14-.178.194-.516.227-1.437.05-1.417.178-2.23.43-2.744.579-1.178 2.56-2.976 4.081-3.702.576-.275 1.284-.525 1.488-.524.242 0 .436.15.777.602.387.513.447.653.447 1.046 0 .69-.593 3.069-1.06 4.252l-.205.522-.025-.966c-.027-1.03-.057-1.165-.27-1.218-.29-.073-.436.085-.848.92-.153.311-.475.88-.715 1.263-.732 1.17-.881 1.515-.946 2.178-.057.592-.231.848-.445.655-.132-.12-.2-.49-.2-1.093 0-.934-.135-1.253-.552-1.3-.432-.049-.526.082-.77 1.077-.091.368-.207.726-.257.794-.139.188-.325.256-.77.28-.523.03-.627.053-.627.14 0 .131.3.417.572.546.82.388 2.909.688 3.568.513.241-.064.249-.071.35-.363a3.4 3.4 0 0 1 .294-.595c.222-.346.785-1.07.812-1.044.01.01-.028.306-.085.658-.17 1.054-.132 1.368.18 1.473.24.081.284.152.28.443-.005.36-.218.97-.578 1.663-.72 1.38-.885 1.82-1.002 2.663-.104.755-.33 1.62-.79 3.032-.78 2.399-.984 3.229-.992 4.045-.004.56 0 .584.126.72.258.277.329.496.39 1.213.05.605.14.866.318.934.177.068.277.248.307.554.04.411.062.479.189.6.15.145.422.883.389 1.057-.03.159.325.698.93 1.413.673.795 1.363 1.65 1.533 1.9.303.444.117.68-.306.39-.225-.155-.43-.404-.884-1.073-.529-.779-1.612-1.731-2.246-1.973-.319-.122-.555-.099-1.354.131-1.134.327-2.3.838-2.38 1.044-.035.092.182.405.655.949.207.236.412.506.456.598.077.16.075.18-.03.38-.06.115-.181.306-.27.424-.155.21-.157.217-.063.286.057.041.16.06.248.047.084-.014.525-.073.982-.133.657-.086.858-.096.957-.05.105.047.118.073.075.153a.502.502 0 0 0-.051.198c0 .088.03.103.21.102.116 0 .334-.033.484-.073.333-.09.645-.097.645-.016 0 .033-.026.187-.059.343-.105.51.075.85.59 1.123.327.172.694.261 1.075.261.356 0 .809.09 1.03.202.11.056.231.176.297.294.202.358.686.5 1.363.397.865-.131 1.69-.492 2.187-.957l.314-.294v.32c0 .177-.014.492-.032.7l-.032.38h-.39c-.239 0-.687.06-1.145.151-.847.17-1.82.223-2.692.146zm-8.28-6.891c.111-.051.437-.227.722-.392 1.083-.626 1.946-1.01 2.432-1.081.554-.082.927-.523.891-1.05-.014-.207-.19-.234-.762-.119-1.355.273-2.65.897-3.455 1.667-.485.462-.56.68-.32.93.155.163.218.17.491.045zm1.631-2.691c1.288-.421 1.837-.92 1.16-1.053-.432-.086-1.693.366-2.115.756-.2.186-.225.432-.05.499.15.058.306.027 1.005-.202zM59.396 46.692c.058-.066 1.16-1.347 2.447-2.848 1.288-1.5 2.368-2.729 2.4-2.729.096 0 .099.484.009 1.29-.092.827-.07.999.14 1.026.111.015.078.074-.484.866l-.603.85-.143-.124c-.365-.314-.916.12-1.195.94-.067.195-.157.41-.202.479l-.081.123-.094-.129c-.13-.178-.386-.253-.718-.212-.334.042-.845.213-1.209.404-.373.195-.387.199-.267.064z" fill="#9998c3" stroke="#9996c5" stroke-width=".113"/><path d="M29.062 54.071l-.204 1.342" fill="none" stroke="#9998c3" stroke-width=".076"/><path d="M50.466 9.704c-.745-.119-.876-.31-2.235-3.246-.67-1.447-1.029-2.4-.951-2.526.066-.108.403-.023.889.224 1.457.74 2.448 1.773 3.261 3.4.608 1.214.708 1.76.37 2.01-.202.148-.85.216-1.334.138z" fill="#ffe1a2" stroke="#ffe1a2" stroke-width=".113"/><path d="M17.173 72.557c-.698-.073-1.445-.295-1.61-.479-.187-.206-.094-.465.225-.628.419-.214.806-.292 1.757-.356 1.281-.087 1.598-.248 3.24-1.652.483-.413 1.13-.936 1.44-1.163.907-.667.945-.7 1.06-.924.061-.117.138-.525.171-.906.066-.762.218-1.192.557-1.578.257-.292.263-.456.034-.955-.097-.212-.157-.435-.134-.496.023-.06.205-.163.405-.227.485-.156.678-.286.678-.455 0-.203-.323-.812-1.006-1.902-1.407-2.241-3.029-5.32-3.598-6.83-.214-.566-.27-.817-.289-1.298-.033-.824-.047-.865-.442-1.3-.192-.212-.349-.427-.349-.476 0-.322.434-.33 2.425-.052 2.07.29 2.827.332 3.398.185.485-.125 1.638-.704 2.308-1.158.675-.459 1.052-.936 1.567-1.988.439-.895.574-1.101.664-1.011.021.02-.044.442-.144.936-.317 1.569-.521 3.532-.574 5.53-.018.656-.058 1.35-.09 1.544l-.06.35-.085-.21c-.048-.115-.113-.709-.146-1.319-.084-1.576-.274-1.92-1.155-2.096-.523-.104-1.527-.012-3.477.32-2.015.343-2.15.425-1.846 1.134.372.873.604 1.586.969 2.98.46 1.76.707 2.452 1.26 3.542.312.613 1.9 3.219 2.107 3.458.01.01.519-.044 1.132-.122 1.584-.202 1.613-.204 1.718-.139.077.048.068.096-.05.255-.24.321-.71.514-1.51.62-.801.106-1.308.24-1.578.417-.241.159-.147.253.5.5.29.11.74.228.74.252 0 .023-.396.075-.618.124-1.04.231-2.48.954-2.693 1.354-.072.134-.05.178.192.387.15.13.865.526 1.588.88.724.355 1.566.69 1.566.715 0 .024-.494.04-.793.066a8.133 8.133 0 0 0-2.27.555c-1.709.692-4.045 2.078-4.587 2.722-.44.524-.046.782.97.634 1.26-.183 5.534-1.228 7.13-1.743.973-.314 1.707-.76 2.468-1.5.68-.66.946-1.113.867-1.475-.026-.118-.017-.207.022-.207.093 0 .851.57 1.054.79.153.167.157.191.058.382-.147.285-1.046 1.122-1.59 1.481-1.002.662-2.288 1.164-4.164 1.626-3.166.78-7.057 1.154-9.412.906z" fill="#9998c3" stroke="#9998c3" stroke-width=".113"/><path d="M18.611 48.64l.41.959" fill="#6f6f91" fill-rule="evenodd" stroke="#6f6f90" stroke-width=".076"/><path d="M23.676 49.779c-.147-.193-.352-.672-.58-1.357-.333-.995-.603-1.515-.84-1.613-.335-.138-.46.283-.46 1.555v.662l-.528-.504c-.95-.904-1.243-1.135-1.407-1.111-.173.025-.148.267.13 1.29.11.405.192.757.182.784-.02.054-.377.095-.831.095h-.27l-.196-.457-.195-.456.097-.098c.244-.244.216-1.17-.059-1.91a3.145 3.145 0 0 0-.266-.513c-.213-.325-.34-.589-.34-.706 0-.118.13-.387.328-.682.283-.422.459-.958.513-1.564.047-.534.121-.712.482-1.166.401-.504 1.906-1.73 2.272-1.85.204-.068.28-.026.472.259.21.312.426.504.596.532.518.086 2.438.907 2.974 1.27.443.301.66.647.92 1.462.29.907.372 1.567.345 2.751-.032 1.375-.266 2.35-.656 2.74-.18.18-.31.21-.41.094-.097-.113-.135-.297-.204-.97-.095-.937-.24-1.498-.479-1.856-.154-.23-.287-.319-.481-.319-.19 0-.327.12-.465.41-.176.369-.239.762-.277 1.73-.04 1.037-.128 1.614-.246 1.614-.017 0-.072-.052-.12-.116z" fill="#6f6f91" stroke="#6f6f91" stroke-width=".113"/><path d="M37.413 60.286c-1.128-.05-2.006-.15-2.43-.277-.362-.107-2.454-.317-3.17-.317-.2 0-.28-.014-.314-.054-.068-.083-.125-.106-.597-.244-.737-.216-1.356-.553-1.83-.997-.44-.411-.473-.632-.235-1.582.17-.68.218-1.171.127-1.31-.052-.08-.049-.133.043-.733.094-.612.107-.661.241-.89.3-.512.577-1.643.902-3.694.21-1.329.399-2.136.691-2.968.099-.28.76-1.636.835-1.714.022-.023.59.343.782.504.015.012.002.17-.03.352-.08.468-.061 1.59.03 1.728.084.128.155.12.375-.045.61-.455 1.054-.241 1.126.542.034.378.126.562.324.652.081.037.19.067.242.068.14 0 .26.066.305.164.031.068.025.144-.029.356-.083.329-.213 1.196-.336 2.252-.198 1.69-.463 2.697-.88 3.341-.234.362-.365.642-.365.78 0 .116.008.124.111.124.155 0 .384-.144.503-.316.15-.216.45-.476.73-.63.315-.174.891-.364 1.32-.437.915-.154 2.535.045 2.75.336.088.12.086.33-.009.907-.08.487-.09.866-.026 1.052.033.097.063.126.142.135.214.024.398-.277.69-1.132.203-.6.273-.745.441-.932.172-.19.372-.26.68-.238.135.01.27.039.301.064.08.067.05.26-.105.69-.202.564-.268.948-.29 1.714-.027.926.027 1.194.332 1.654a.832.832 0 0 1 .14.344c.017.153.011.167-.141.312-.265.255-.769.384-1.724.442-.616.037-.764.037-1.652-.003zm-5.54-4.558c.44-.222.744-.531.641-.654-.107-.13-.693.043-.933.276-.22.212-.228.483-.014.483a.97.97 0 0 0 .306-.105z" fill="#fefefc" stroke="#6f6f91" stroke-width=".004"/><path d="M33.298 65.445c-.147-.081-.273-.184-.492-.403a8.54 8.54 0 0 1-1.017-1.255c-.217-.345-.358-.89-.358-1.385 0-.233.004-.275.04-.364.06-.155.146-.18.263-.074.144.13.789 1.14 1.234 1.93.313.559.558 1.081.61 1.303.06.264-.058.37-.28.248z" fill="#9998c3" stroke="#9998c3" stroke-width=".076"/><path d="M51.537 55.386L50 54.464" fill="none" stroke="#facbcb" stroke-width=".076"/><path d="M49.652 57.37l-2.456-.446" fill="#facbcb" fill-rule="evenodd" stroke="#facbcb" stroke-width=".076"/><path d="M42.943 60.693c-.32-.131-.832-.458-1.032-.658-.363-.363-.504-.962-.505-2.146 0-.444.01-.626.044-.819.136-.752.45-1.163 1.01-1.317.073-.02.32-.047.547-.06.641-.035 1.008-.112 1.467-.309.547-.233.984-.529 1.626-1.097.456-.404.672-.498 1.075-.47.28.02.59.088 1.776.39.638.163 1.002.267 1.055.303.045.03.38.233.745.452.586.35.661.402.645.446a.814.814 0 0 0-.02.188c-.002.244.155.388.569.521.25.081.364.145.442.25.126.17-.104.378-.543.49-.225.056-.341.07-.89.101-.219.013-.465.04-.546.062a2.37 2.37 0 0 0-.638.3c-.083.06-.12.074-.12.048 0-.046.089-.027-1.25-.27l-1.138-.206-.065-.078c-.142-.17-.482-.23-.744-.131-.32.121-.773.517-1.024.896-.165.248-.232.406-.257.609-.059.474-.48 1.15-1.286 2.065-.433.492-.612.576-.943.44z" fill="#facbcb" stroke="#facbcb" stroke-width=".076"/><path d="M52.861 72.48l5.158-3.488" fill="none" stroke="#d7d6fa" stroke-width=".076"/><path d="M52.861 73.12l-1.399 3.066" fill="none" stroke="#d5d8fc" stroke-width=".076"/><path d="M51.581 64.808l-4.304 2.239" fill="none" stroke="#d6d7f8" stroke-width=".076"/><path d="M45.335 67.914l-2.034 2.48" fill="#fefefc" fill-rule="evenodd" stroke="#d6d7f8" stroke-width=".076"/><path d="M49.801 68.64c-.16-.192.19-.67.491-.67.294 0 .393.435.15.655-.159.143-.527.152-.64.016z" fill="#feda94" stroke="#d6d7f8" stroke-width=".005"/><path d="M51.718 75.74c.637-1.429 1.208-2.628 1.291-2.712.142-.142.223-.39.181-.552-.031-.119.318-.38 2.261-1.69 1.98-1.336 2.309-1.535 2.378-1.44.071.098.173.064.84-.281 1.325-.686 2.12-1.289 3.427-2.598 2.958-2.964 5.75-7.24 6.774-10.377.555-1.702.68-2.432.68-4.013 0-1.197-.016-1.374-.152-1.735-.21-.554-.416-.82-.754-.973-.43-.195-.954-.169-.954.048 0 .053.112.271.25.485.379.594.522 1.265.522 2.45-.001 1.494-.28 3.045-.774 4.293-.323.82-1.126 2.399-1.725 3.396-1.531 2.546-5.153 7.04-5.442 6.752-.165-.165-.35-1.192-.388-2.162-.044-1.101-.007-1.297.367-1.924.486-.815.473-1.263-.052-1.86-.417-.473-.86-.664-1.54-.665-.725-.001-1.231.169-2.07.694-.38.238-1.171.67-1.759.96-.587.29-1.32.714-1.629.942-.773.574-1.566 1.342-1.758 1.704-.154.29-.242.344-2.236 1.382-1.423.74-2.138 1.076-2.271 1.066-.274-.021-1.42.227-1.872.406-.54.212-.79.406-.764.589.018.13.063.148.322.136l.301-.013-.446.54-.809.98-.363.442.04-.652c.022-.358.072-.825.112-1.038.282-1.51 1.351-3.72 1.967-4.066.279-.156.305-.05.071.29-.366.534-.525.914-.534 1.273-.006.262.022.364.118.424.106.067.16.04.336-.166.395-.463 1.309-1.746 2.517-3.532 2.023-2.993 2.004-2.977 3.806-3.228l1.144-.16.117-.943c.065-.518.12-1.246.123-1.617.004-.59-.015-.703-.155-.91-.32-.477-1.098-.744-1.532-.527l-.227.113-.69-.41-.692-.41 1.212-.941a87.764 87.764 0 0 0 3.467-2.816c.56-.483.797-.627 1.87-1.137.677-.322 1.343-.606 1.48-.631.627-.118 2.94-1.211 3.38-1.598.146-.128.248-.175.278-.127.074.12-.036.75-.255 1.464-.235.766-.276 1.557-.092 1.818.247.353.463.401 1.785.399 1.815-.003 2.48-.228 2.887-.977.21-.386.284-.721.456-2.054.065-.51.14-.96.165-1.001.032-.052.157-.05.416.005.27.058.44.149.627.335.141.14.556.413.922.605 1.251.656 1.852 1.47 2.283 3.091.57 2.15.12 5.19-1.17 7.892-1.034 2.166-3.772 6.456-4.724 7.402-.233.232-.992.914-1.687 1.515-3.395 2.94-4.807 4.468-4.807 5.203 0 .451-.395.636-2.59 1.21-2.32.606-2.83.818-3.49 1.447-.384.367-.678.554-.87.554-.035 0 .01-.166.1-.368zm1.91-21.173c.228-.116.873-.576 1.432-1.022 1.145-.912 2.308-1.716 2.863-1.978.204-.097.526-.315.715-.485.47-.423.963-1.426.7-1.426-.117 0-1.282.604-2.122 1.1-2.48 1.466-4.542 3.133-4.542 3.672 0 .396.35.447.954.139z" fill="#feda94" stroke="#feda94" stroke-width=".076"/><path d="M41.07 71.316c-.416-.415-.265-2.105.356-4.013.913-2.8 3.114-6.669 4.971-8.738.517-.577.873-1.14.874-1.383 0-.087.024-.16.053-.16.03-.001.548.084 1.152.19l1.1.192-.696.705c-2.461 2.494-5.275 7.147-5.998 9.921-.214.82-.22 1.33-.02 1.81.144.347.145.375.034.545-.142.218-.749.705-1.092.879-.458.23-.55.237-.735.052z" fill="#feda94" stroke="#feda94" stroke-width=".076"/><path d="M82.135 63.427l-5.765-.004" fill="none" stroke="#fdd6ac" stroke-width=".076"/><path d="M76.451 73.804l6.477 1.223-.053-3.249" fill="none" stroke="#ffd7ad" stroke-width=".076"/><path d="M82.928 65.765l.013 3.806" fill="#ffd8ac" fill-rule="evenodd" stroke="#fed7ad" stroke-width=".076"/><path d="M82.79 68.95c-.046-.075-.313-.245-.593-.378-.623-.296-1.558-1.06-2.964-2.424-1.143-1.108-1.92-1.796-2.35-2.08-.15-.1-.304-.272-.343-.385l-.072-.204 2.54.003 2.54.004-.316.168c-.173.093-.531.367-.796.61l-.48.443.55.568c.77.794 1.558 1.15 2.115.956l.207-.072.035 1.45c.019.796.03 1.455.024 1.463-.006.008-.05-.047-.096-.122zM79.58 74.345c-2.14-.408-3.019-.463-3.129-.54-.298-.21-.947-.448-2.094-.447-1.044.001-1.116.01-1.59.18-.678.243-1.157.21-2.504-.179-1.288-.371-1.88-.471-2.774-.47-.838.001-1.336.092-2.27.417-.369.127-.69.212-.714.188-.024-.024.024-.118.107-.209.694-.756 4.306-1.35 8.214-1.35 1.766 0 2.678.067 4.049.295 2.508.418 4.658.362 5.655-.147l.245-.125.068-.003c.065 1.427.176 3.078.085 3.072-.043-.003-1.631-.355-3.348-.682z" fill="#ffd8ac" stroke="#fed7ad" stroke-width=".005"/><path d="M82.928 75.027l.059 5.62s-54.16.013-78.361.043c-2.789.003 6.462-.483 6.45-1.142-.009-.472-9.897-.187-7.442-.595 1.875-.312 21.276-.969 21.276-.969S14.429 75.47 12.267 75.48C8.6 75.498.038 76.87.038 76.87l.023-1.886s10.554-1.145 12.206-.992c3.74.346 11.154 1.32 11.154 1.32" fill="none" stroke="#d8d7ff" stroke-width=".076"/><path d="M37.341 74.336l3.101-.643" fill="none" stroke="#d7d7fe" stroke-width=".076"/><path d="M23.498 75.298a70.712 70.712 0 0 0-2.053-.28c-3.303-.42-3.917-.514-2.07-.313.367.04 1.014.08 1.439.091.953.024 1.076 0 1.684-.323.663-.351 1.556-.616 3.19-.946 2.988-.603 6.91-1.08 10.931-1.33 2.234-.14 3.154-.098 3.614.16.267.151.33.392.233.884l-.066.353c-.008.06-.19.106-1.5.384l-1.492.316-1.263-.01c-1.611-.012-2.107.051-2.427.309-.235.188-.493.258-1.028.277-.696.024-1.201-.058-2.544-.413-.471-.125-.632-.151-1.003-.166-.576-.024-.869.038-2.12.447-1.533.502-1.827.564-2.736.58-.366.007-.722-.002-.79-.02z" fill="#fdd6ae" stroke="#d7d7fe" stroke-width=".003"/><path d="M4.958 80.605c.058-.013.61-.073 1.228-.133 2.884-.281 4.507-.552 4.82-.805l.154-.125-.152-.08c-.233-.125-1.334-.206-3.418-.251-4.328-.094-4.898-.157-2.823-.313 2.923-.218 18.415-.857 20.189-.833.532.008.673-.02 1.298-.258 1.4-.532 2.031-.621 3.218-.456.592.082.98.019 1.015-.167.052-.272-1.385-.678-2.403-.678-.238 0-.62.048-.85.107-.53.136-1.918.81-2.227 1.08l-.235.207-1.644-.382c-3.886-.901-8.512-.84-10.403-1.12-1.683-.249-4.61-.776-10.85.146-.904.133-1.67.243-1.701.243-.032 0-.057-.392-.057-.871v-.871l.263-.041c.748-.116 6.69-.68 8.929-.846 2.136-.16 2.908-.14 5.403.14 2.588.29 7.245.856 7.53.916.184.04.189.048.07.14-.122.095-.12.106.039.24.35.298 1.543.514 2.303.419.64-.08.95-.152 2.477-.576 1.743-.482 2.011-.484 3.813-.024 1.638.418 1.762.414 2.823-.083 1.027-.48 1.51-.63 2.591-.8a73.67 73.67 0 0 0 2.44-.451c1.231-.249 1.554-.293 1.66-.226.11.07.175.05.387-.111.539-.411 2.06-2.338 2.439-3.089.182-.362 1.817-2.451 2.102-2.688.052-.043.441-.207.865-.366.425-.158.854-.348.954-.42.324-.237 4.258-2.257 4.462-2.292.39-.067.969-.423 1.5-.923.693-.651 1.45-1.125 3.167-1.98 2.51-1.25 3.191-1.392 3.47-.725.176.42.025.974-.476 1.75-.402.623-.413.809-.09 1.474.229.475.27.634.296 1.154.05.998-.253 1.776-1.081 2.771-.413.497-.643.67-3.026 2.282-1.419.96-2.65 1.826-2.738 1.925-.183.209-.206.489-.048.577.093.052.01.278-.546 1.492-.53 1.157-.687 1.438-.816 1.469-.087.02-.165.069-.173.107-.007.038.282.228.642.42.625.336 1.045.668 1.275 1.01.203.3.602.366 2.664.433 2.409.079 3.052.164 4.765.636 1.487.41 3.748.622 6.639.623 2.658 0 4.338-.147 5.963-.524 1.034-.24 1.563-.32 2.773-.42 1.255-.105 1.473-.167 1.473-.42 0-.231-.379-.488-1.017-.688-.422-.132-.655-.154-1.65-.156-.636 0-1.758.027-2.492.062-1.452.068-1.647.037-1.647-.266 0-.241.214-.39.664-.464.447-.072.6-.163.6-.358 0-.244-.274-.33-1.194-.377-4.286-.22-8.77-.94-8.77-1.408 0-.206.616-.23 1.447-.059.697.145 1.285.095 2.15-.182 1.133-.362 1.57-.438 2.472-.433.591.004 1.02.048 1.438.15 1.777.427 1.81.43 3.48.471 2.001.048 3.35-.084 3.621-.354.075-.075.672.018 3.284.511l3.193.603.018 2.741.018 2.741-23.167.047c-23.398.047-54.984.05-54.79.006zm44.868-2.69c-.036-.035-.65-.244-1.364-.463-1.034-.318-1.427-.406-1.93-.435-.6-.033-.677-.02-1.544.262-1.483.482-1.703.573-1.542.636.202.08 6.462.079 6.38 0zm-8.548-2.435c.34-.161.806-.707 1.212-1.417.64-1.12.547-1.277-.311-.525-.628.55-1.423 1.455-1.481 1.686-.045.18.077.37.236.37.057 0 .212-.051.344-.114zm2.622-.462c.186-.307.243-.6.139-.725-.113-.137-.181-.13-.349.038-.14.14-.18.443-.096.754.058.217.144.198.306-.067zm7.218-5.672c.347-.195.541-.529.471-.81-.068-.277-.762-.94-1.224-1.17-.301-.15-.406-.172-.52-.112-.365.196-.822.974-.822 1.402 0 .726 1.28 1.148 2.095.69zm3.471-1.278c.165-.12.243-.453.183-.779-.099-.54-.561-.891-.841-.638-.191.173-.175.228.156.534.279.257.284.27.115.27-.097 0-.276.034-.399.077-.557.194-.355.624.294.624.205 0 .426-.04.492-.088z" fill="#d8d8f6" stroke="#d8d8f6" stroke-width=".113"/><path d="M22.935 64.966l-2.928.095M34.494 64.962l6.181-.146" fill="none" stroke="#fdd6ae" stroke-width=".076"/><path d="M36.167 67.605c-.068-.119-.32-.573-.559-1.01-.239-.437-.543-.963-.675-1.17a4.575 4.575 0 0 1-.24-.402c0-.013.753-.04 1.674-.057.921-.018 2.242-.048 2.936-.066 1.23-.032 1.26-.03 1.222.062-.082.198-.085.562-.008.935.218 1.052-.04 1.519-.989 1.792-.24.069-.576.09-1.767.108l-1.47.023z" fill="#fdd6ae" stroke="#fdd6ae" stroke-width=".004"/><path d="M19.213 73.987c-2.812-.247-3.846-.39-4.032-.557-.129-.116-.109-.253.044-.292.201-.05.87.013 1.581.15.95.182 1.422.23 2.58.261.73.02 1.427.004 2.326-.055.902-.06 1.3-.069 1.336-.032.108.108-1.224.645-1.677.676-.136.01-1.108-.058-2.158-.15z" fill="#9998c3" stroke="#9998c3" stroke-width=".076"/><path d="M.16 61.092L.062 74.984" fill="none" stroke="#fdd6ae" stroke-width=".076"/><path d="M.11 74.611c0-.179.025-3.26.054-6.848l.053-6.522.12-.121c.068-.067.277-.338.467-.604.565-.791.835-.957 1.564-.96.725-.003.86.128.865.837.005.69-.152.947-.687 1.12-.833.272-1.06.632-.761 1.21.127.246.667.778.891.879.233.104.388.087.651-.07.091-.056.182-.08.204-.057.088.1.453.813.416.814a5.66 5.66 0 0 0-.37.07c-.801.17-1.4.689-1.222 1.06.04.087.11.14.194.15.135.015.172-.017.574-.483.243-.282.502-.399.887-.4.484-.002.543.138.393.925-.09.47-.096.77-.015.85.092.092.419.07.639-.042.39-.198.738-.646.741-.951.001-.089.089-.165.401-.349.22-.13.45-.236.51-.236.21 0 .594-.307 1.414-1.134.568-.572.899-.866 1.064-.945.31-.15.51-.361.907-.955.341-.511.499-.672.832-.85.175-.094.281-.11.726-.108.468.002.575.02 1.06.187.607.208 1.709.72 1.807.84.056.068.028.081-.248.111-.436.047-.776.22-.969.493-.222.316-.372.347-1.464.304-.532-.021-.881-.017-.881.011 0 .025.155.107.345.181.19.075.402.18.471.235.31.244.062.551-.816 1.006-.912.473-1.136.754-1.234 1.545-.089.718-.003.82.6.723.199-.032.496-.103.66-.157.456-.15 1.607-.731 2.355-1.19 1.253-.767 1.952-1.14 2.136-1.14.114 0 .61.234.866.41.471.324 1.312.95 1.296.965-.01.01-.306.063-.657.117-1.275.196-1.416.323-1.489 1.336-.054.762.12 1.042.605.97.468-.07 1.8-.83 2.336-1.332.438-.41.494-.525.413-.86-.055-.23-.052-.277.02-.388.065-.099.124-.127.272-.127.261 0 .563.213.916.645.22.272.313.35.397.338.098-.014.108-.043.103-.297a.927.927 0 0 0-.139-.508l-.133-.227h.437c.24 0 .827-.015 1.304-.032l.868-.032-.089.1c-.136.154-.282.581-.33.966-.026.205-.1.455-.182.618-.264.521-1.233 1.57-2.376 2.572-1.018.892-1.422 1.074-2.817 1.268-1.197.166-1.662.287-2.027.53-.385.254-.554.806-.56 1.824-.003.559.014.74.086.928.1.258.062.241.977.414l.372.07-.322-.022a75.579 75.579 0 0 1-1.737-.18c-1.625-.181-2.404-.194-4.185-.068-1.813.128-6.32.548-8.95.834l-.608.065zm7.971-6.6c.254-.187.477-.506.477-.682 0-.18-.23-.367-.705-.572-.343-.148-.417-.161-.895-.162-.486 0-.543.01-.846.159-.292.143-.702.461-1.263.98-.176.163-.185.18-.074.154.068-.015.604-.152 1.19-.304 1.116-.288 1.648-.374 1.708-.276.019.03-.004.175-.05.322-.162.515.043.686.458.38z" fill="#fdd6ae" stroke="#fdd6ae" stroke-width=".004"/><path d="M8.471 61.948c-.165-.13-.371-.554-.372-.766 0-.17.128-.318.277-.317.28 0 .616.414.616.76 0 .194-.162.43-.295.43a.493.493 0 0 1-.226-.107z" fill="#fdd6ae" stroke="#fdd6ae" stroke-width=".004"/><path d="M26.27 72.591a1.317 1.317 0 0 0-.093-.023c-.095-.021-.085-.054.037-.119.088-.046.146-.056.335-.056.2 0 .235.006.282.053.065.066.048.099-.072.132-.084.023-.43.033-.489.013z" fill="#9998c3" stroke="#9998c3" stroke-width=".076"/><path d="M.174 76.787L.11 80.59l4.515.1" fill="none" stroke="#fdd6ae" stroke-width=".076"/><path d="M2.16 80.588l-1.65-.044-.335-.006v-.786c0-.432.015-1.256.032-1.83l.033-1.045.178-.026c6.95-1.03 9.805-.736 11.422-.583 1.107.104 4.089.289 7.66.529 1.59.106 4.95 1.111 4.977 1.135.018.018-.77.05-4.878.202-11.153.41-16.03.67-16.35.868-.26.16.464.222 3.153.269 2.855.05 4.427.144 4.558.273.11.11-.605.315-1.636.47-1.128.17-4.82.571-5.478.596-.204.008-.963-.002-1.686-.022z" fill="#fdd6ae" stroke="#fdd6ae" stroke-width=".076"/></svg>