<?xml version="1.0" encoding="UTF-8" standalone="no"?>
<!-- Created with matplotlib (http://matplotlib.org/) -->

<svg
   xmlns:dc="http://purl.org/dc/elements/1.1/"
   xmlns:cc="http://creativecommons.org/ns#"
   xmlns:rdf="http://www.w3.org/1999/02/22-rdf-syntax-ns#"
   xmlns:svg="http://www.w3.org/2000/svg"
   xmlns="http://www.w3.org/2000/svg"
   xmlns:xlink="http://www.w3.org/1999/xlink"
   xmlns:sodipodi="http://sodipodi.sourceforge.net/DTD/sodipodi-0.dtd"
   xmlns:inkscape="http://www.inkscape.org/namespaces/inkscape"
   height="287pt"
   version="1.1"
   viewBox="0 0 411 287"
   width="411pt"
   id="svg131"
   sodipodi:docname="alignment.svg"
   inkscape:version="0.92.3 (2405546, 2018-03-11)">
  <metadata
     id="metadata135">
    <rdf:RDF>
      <cc:Work
         rdf:about="">
        <dc:format>image/svg+xml</dc:format>
        <dc:type
           rdf:resource="http://purl.org/dc/dcmitype/StillImage" />
      </cc:Work>
    </rdf:RDF>
  </metadata>
  <sodipodi:namedview
     pagecolor="#ffffff"
     bordercolor="#666666"
     borderopacity="1"
     objecttolerance="10"
     gridtolerance="10"
     guidetolerance="10"
     inkscape:pageopacity="0"
     inkscape:pageshadow="2"
     inkscape:window-width="3082"
     inkscape:window-height="1745"
     id="namedview133"
     showgrid="false"
     inkscape:zoom="2.466899"
     inkscape:cx="159.85062"
     inkscape:cy="203.50763"
     inkscape:window-x="118"
     inkscape:window-y="55"
     inkscape:window-maximized="1"
     inkscape:current-layer="svg131" />
  <defs
     id="defs4">
    <style
       type="text/css"
       id="style2">
*{stroke-linecap:butt;stroke-linejoin:round;}
  </style>
  </defs>
  <g
     id="figure_1">
    <g
       id="patch_1">
      <path
         d="M 0 287.512  L 411.498659 287.512  L 411.498659 0  L 0 0  z "
         style="fill:none;"
         id="path6" />
    </g>
    <g
       id="axes_1">
      <g
         id="patch_2">
        <path
           d="M 332.108 142.691552  C 332.108 114.471463 317.047712 87.378328 290.268789 67.423712  C 263.489867 47.469096 227.131115 36.246752 189.26 36.246752  C 151.388885 36.246752 115.030133 47.469096 88.251211 67.423712  C 61.472288 87.378328 46.412 114.471463 46.412 142.691552  L 189.26 142.691552  L 332.108 142.691552  z "
           style="fill:#55c789;"
           id="path9" />
      </g>
      <g
         id="patch_3">
        <path
           d="M 45.452691 144.544704  C 45.452691 159.40263 49.627465 174.097273 57.707656 187.680535  C 65.787847 201.263796 77.595859 213.437125 92.369838 223.415098  C 107.143817 233.393072 124.559042 240.956381 143.491882 245.617041  C 162.424723 250.277701 182.459048 251.933275 202.302244 250.476943  L 188.300691 144.544704  L 45.452691 144.544704  z "
           style="fill:#b9d343;"
           id="path12" />
      </g>
      <g
         id="patch_4">
        <path
           d="M 204.319986 250.403079  C 239.600429 247.813777 272.354283 235.528374 296.16182 215.954798  C 319.969357 196.381222 333.166434 170.887664 333.166434 144.47084  L 190.318434 144.47084  L 204.319986 250.403079  z "
           style="fill:#84c3ed;"
           id="path15" />
      </g>
      <g
         id="matplotlib.axis_1" />
      <g
         id="matplotlib.axis_2" />
      <g
         id="text_1">
        <!-- corporate -->
        <defs
           id="defs27">
          <path
             d="M 41.796875 3.296875  Q 38.796875 1.09375 34.6875 -0.046875  Q 30.59375 -1.203125 26.09375 -1.203125  Q 20.296875 -1.203125 16.296875 0.640625  Q 12.296875 2.5 9.75 5.953125  Q 7.203125 9.40625 6.046875 14.25  Q 4.90625 19.09375 4.90625 25  Q 4.90625 37.703125 10.5 44.453125  Q 16.09375 51.203125 26.59375 51.203125  Q 31.40625 51.203125 34.75 50.453125  Q 38.09375 49.703125 40.796875 48.296875  L 38.5 41.40625  Q 36.203125 42.703125 33.390625 43.453125  Q 30.59375 44.203125 27.40625 44.203125  Q 13.203125 44.203125 13.203125 25  Q 13.203125 21.203125 13.953125 17.75  Q 14.703125 14.296875 16.453125 11.640625  Q 18.203125 9 21.046875 7.390625  Q 23.90625 5.796875 28.09375 5.796875  Q 31.703125 5.796875 34.546875 6.890625  Q 37.40625 8 39.203125 9.40625  z "
             id="PTSans-Regular-63" />
          <path
             d="M 4.90625 25  Q 4.90625 37.703125 10.546875 44.453125  Q 16.203125 51.203125 26.796875 51.203125  Q 32.40625 51.203125 36.546875 49.34375  Q 40.703125 47.5 43.390625 44.046875  Q 46.09375 40.59375 47.390625 35.75  Q 48.703125 30.90625 48.703125 25  Q 48.703125 12.296875 43.046875 5.546875  Q 37.40625 -1.203125 26.796875 -1.203125  Q 21.203125 -1.203125 17.046875 0.640625  Q 12.90625 2.5 10.203125 5.953125  Q 7.5 9.40625 6.203125 14.25  Q 4.90625 19.09375 4.90625 25  M 13.203125 25  Q 13.203125 21.203125 13.953125 17.703125  Q 14.703125 14.203125 16.296875 11.59375  Q 17.90625 9 20.5 7.390625  Q 23.09375 5.796875 26.796875 5.796875  Q 40.40625 5.703125 40.40625 25  Q 40.40625 28.90625 39.65625 32.40625  Q 38.90625 35.90625 37.296875 38.5  Q 35.703125 41.09375 33.09375 42.640625  Q 30.5 44.203125 26.796875 44.203125  Q 13.203125 44.296875 13.203125 25  "
             id="PTSans-Regular-6f" />
          <path
             d="M 31.296875 42.296875  Q 28.296875 43.296875 25.59375 43.296875  Q 21.296875 43.296875 18.796875 40.9375  Q 16.296875 38.59375 15.703125 35  L 15.703125 0  L 7.703125 0  L 7.703125 50  L 13.296875 50  L 14.796875 43.90625  L 15.203125 43.90625  Q 17.09375 47.296875 19.75 49.140625  Q 22.40625 51 26.5 51  Q 29.40625 51 33 50  z "
             id="PTSans-Regular-72" />
          <path
             d="M 7.703125 50  L 13.203125 50  L 14.703125 44  L 15.09375 44  Q 17.40625 47.5 21.046875 49.34375  Q 24.703125 51.203125 29.40625 51.203125  Q 39.40625 51.203125 44.296875 45.296875  Q 49.203125 39.40625 49.203125 26  Q 49.203125 19.703125 47.546875 14.640625  Q 45.90625 9.59375 42.90625 6.09375  Q 39.90625 2.59375 35.65625 0.6875  Q 31.40625 -1.203125 26.203125 -1.203125  Q 22.5 -1.203125 20.34375 -0.75  Q 18.203125 -0.296875 15.703125 0.796875  L 15.703125 -20  L 7.703125 -20  z M 27.90625 44.203125  Q 22.796875 44.203125 19.84375 41.546875  Q 16.90625 38.90625 15.703125 33.5  L 15.703125 8.703125  Q 17.5 7.296875 19.796875 6.546875  Q 22.09375 5.796875 25.90625 5.796875  Q 32.796875 5.796875 36.84375 10.9375  Q 40.90625 16.09375 40.90625 26.09375  Q 40.90625 30.203125 40.203125 33.546875  Q 39.5 36.90625 37.953125 39.25  Q 36.40625 41.59375 33.953125 42.890625  Q 31.5 44.203125 27.90625 44.203125  "
             id="PTSans-Regular-70" />
          <path
             d="M 6.90625 46.296875  Q 10.703125 48.59375 15.75 49.6875  Q 20.796875 50.796875 26.296875 50.796875  Q 31.5 50.796875 34.640625 49.390625  Q 37.796875 48 39.4375 45.75  Q 41.09375 43.5 41.640625 40.796875  Q 42.203125 38.09375 42.203125 35.40625  Q 42.203125 29.40625 41.890625 23.703125  Q 41.59375 18 41.59375 12.90625  Q 41.59375 9.203125 41.890625 5.890625  Q 42.203125 2.59375 43 -0.203125  L 37.09375 -0.203125  L 35 6.796875  L 34.5 6.796875  Q 33.59375 5.40625 32.25 4.046875  Q 30.90625 2.703125 29 1.640625  Q 27.09375 0.59375 24.59375 -0.09375  Q 22.09375 -0.796875 18.90625 -0.796875  Q 15.703125 -0.796875 12.953125 0.203125  Q 10.203125 1.203125 8.203125 3.046875  Q 6.203125 4.90625 5.046875 7.5  Q 3.90625 10.09375 3.90625 13.40625  Q 3.90625 17.796875 5.703125 20.75  Q 7.5 23.703125 10.75 25.453125  Q 14 27.203125 18.546875 27.953125  Q 23.09375 28.703125 28.59375 28.703125  Q 30 28.703125 31.34375 28.703125  Q 32.703125 28.703125 34.09375 28.5  Q 34.40625 31.5 34.40625 33.90625  Q 34.40625 39.40625 32.203125 41.59375  Q 30 43.796875 24.203125 43.796875  Q 22.5 43.796875 20.546875 43.546875  Q 18.59375 43.296875 16.546875 42.84375  Q 14.5 42.40625 12.640625 41.75  Q 10.796875 41.09375 9.40625 40.296875  z M 21.09375 6.203125  Q 23.90625 6.203125 26.09375 6.953125  Q 28.296875 7.703125 29.890625 8.84375  Q 31.5 10 32.546875 11.390625  Q 33.59375 12.796875 34.09375 14.09375  L 34.09375 22.40625  Q 32.703125 22.5 31.25 22.546875  Q 29.796875 22.59375 28.40625 22.59375  Q 25.296875 22.59375 22.34375 22.25  Q 19.40625 21.90625 17.15625 20.953125  Q 14.90625 20 13.546875 18.34375  Q 12.203125 16.703125 12.203125 14.203125  Q 12.203125 10.703125 14.703125 8.453125  Q 17.203125 6.203125 21.09375 6.203125  "
             id="PTSans-Regular-61" />
          <path
             d="M 1.09375 50  L 8.90625 50  L 8.90625 59.90625  L 16.90625 62.203125  L 16.90625 50  L 30.5 50  L 30.5 43  L 16.90625 43  L 16.90625 15.296875  Q 16.90625 10.09375 18.203125 7.9375  Q 19.5 5.796875 22.59375 5.796875  Q 25.203125 5.796875 27 6.34375  Q 28.796875 6.90625 31 7.796875  L 32.796875 1.703125  Q 30.09375 0.40625 26.890625 -0.390625  Q 23.703125 -1.203125 20 -1.203125  Q 13.90625 -1.203125 11.40625 2.25  Q 8.90625 5.703125 8.90625 13.796875  L 8.90625 43  L 1.09375 43  z "
             id="PTSans-Regular-74" />
          <path
             d="M 44.203125 4  Q 41.203125 1.59375 36.640625 0.1875  Q 32.09375 -1.203125 27 -1.203125  Q 21.296875 -1.203125 17.09375 0.640625  Q 12.90625 2.5 10.203125 5.953125  Q 7.5 9.40625 6.203125 14.203125  Q 4.90625 19 4.90625 25  Q 4.90625 37.796875 10.59375 44.5  Q 16.296875 51.203125 26.90625 51.203125  Q 30.296875 51.203125 33.6875 50.453125  Q 37.09375 49.703125 39.796875 47.59375  Q 42.5 45.5 44.203125 41.640625  Q 45.90625 37.796875 45.90625 31.5  Q 45.90625 28.203125 45.296875 24.203125  L 13.203125 24.203125  Q 13.203125 19.796875 14.09375 16.390625  Q 15 13 16.890625 10.640625  Q 18.796875 8.296875 21.84375 7.046875  Q 24.90625 5.796875 29.296875 5.796875  Q 32.703125 5.796875 36.09375 7  Q 39.5 8.203125 41.203125 9.796875  z M 27 44.203125  Q 21.09375 44.203125 17.546875 41.09375  Q 14 38 13.296875 30.5  L 38.09375 30.5  Q 38.09375 38.09375 35.1875 41.140625  Q 32.296875 44.203125 27 44.203125  "
             id="PTSans-Regular-65" />
        </defs>
        <g
           style="fill:#ffffff;"
           transform="translate(189.26 31.602272)scale(0.24 -0.24)"
           id="g47">
          <g
             id="g951">
            <g
               id="g962"
               transform="translate(-204.35622)"
               style="stroke-linecap:butt;stroke-linejoin:round">
              <use
                 xlink:href="#PTSans-Regular-63"
                 id="use29"
                 style="stroke-linecap:butt;stroke-linejoin:round"
                 x="0"
                 y="0"
                 width="100%"
                 height="100%"
                 transform="translate(0,15.625001)" />
              <use
                 x="45.099991"
                 xlink:href="#PTSans-Regular-6f"
                 id="use31"
                 style="stroke-linecap:butt;stroke-linejoin:round"
                 y="0"
                 width="100%"
                 height="100%"
                 transform="translate(0,15.625001)" />
              <use
                 x="98.699982"
                 xlink:href="#PTSans-Regular-72"
                 id="use33"
                 style="stroke-linecap:butt;stroke-linejoin:round"
                 y="0"
                 width="100%"
                 height="100%"
                 transform="translate(0,15.625001)" />
              <use
                 x="132.69997"
                 xlink:href="#PTSans-Regular-70"
                 id="use35"
                 style="stroke-linecap:butt;stroke-linejoin:round"
                 y="0"
                 width="100%"
                 height="100%"
                 transform="translate(0,15.625001)" />
              <use
                 x="186.79996"
                 xlink:href="#PTSans-Regular-6f"
                 id="use37"
                 style="stroke-linecap:butt;stroke-linejoin:round"
                 y="0"
                 width="100%"
                 height="100%"
                 transform="translate(0,15.625001)" />
              <use
                 x="240.39995"
                 xlink:href="#PTSans-Regular-72"
                 id="use39"
                 style="stroke-linecap:butt;stroke-linejoin:round"
                 y="0"
                 width="100%"
                 height="100%"
                 transform="translate(0,15.625001)" />
              <use
                 x="274.39993"
                 xlink:href="#PTSans-Regular-61"
                 id="use41"
                 style="stroke-linecap:butt;stroke-linejoin:round"
                 y="0"
                 width="100%"
                 height="100%"
                 transform="translate(0,15.625001)" />
              <use
                 x="323.99994"
                 xlink:href="#PTSans-Regular-74"
                 id="use43"
                 style="stroke-linecap:butt;stroke-linejoin:round"
                 y="0"
                 width="100%"
                 height="100%"
                 transform="translate(0,15.625001)" />
              <use
                 x="357.89993"
                 xlink:href="#PTSans-Regular-65"
                 id="use45"
                 style="stroke-linecap:butt;stroke-linejoin:round"
                 y="0"
                 width="100%"
                 height="100%"
                 transform="translate(0,15.625001)" />
            </g>
          </g>
        </g>
      </g>
      <g
         id="text_2">
        <!-- 50% -->
        <defs
           id="defs53">
          <path
             d="M 21.296875 5.796875  Q 28.203125 5.796875 32.703125 9.796875  Q 37.203125 13.796875 37.203125 21.40625  Q 37.203125 28.703125 32.75 32.296875  Q 28.296875 35.90625 20.5 35.90625  L 12.09375 35.40625  L 12.09375 70  L 43.296875 70  L 43.296875 62.59375  L 19.59375 62.59375  L 19.59375 42.703125  L 23.90625 42.90625  Q 33.796875 42.796875 39.5 37.390625  Q 45.203125 32 45.203125 21.90625  Q 45.203125 16.296875 43.296875 11.9375  Q 41.40625 7.59375 38.15625 4.6875  Q 34.90625 1.796875 30.5 0.296875  Q 26.09375 -1.203125 21.09375 -1.203125  Q 16.59375 -1.203125 13.5 -0.703125  Q 10.40625 -0.203125 7.703125 0.796875  L 9.796875 7.59375  Q 12.09375 6.703125 14.75 6.25  Q 17.40625 5.796875 21.296875 5.796875  "
             id="PTSans-Regular-35" />
          <path
             d="M 4.296875 35  Q 4.296875 53 10.140625 62.09375  Q 16 71.203125 27.203125 71.203125  Q 39.296875 71.203125 44.75 62.25  Q 50.203125 53.296875 50.203125 35  Q 50.203125 17 44.34375 7.890625  Q 38.5 -1.203125 27.203125 -1.203125  Q 15.296875 -1.203125 9.796875 8.296875  Q 4.296875 17.796875 4.296875 35  M 12.59375 35  Q 12.59375 28.5 13.4375 23.140625  Q 14.296875 17.796875 16.09375 13.9375  Q 17.90625 10.09375 20.65625 7.9375  Q 23.40625 5.796875 27.203125 5.796875  Q 34.796875 5.796875 38.34375 12.84375  Q 41.90625 19.90625 41.90625 35  Q 41.90625 41.40625 41.15625 46.796875  Q 40.40625 52.203125 38.65625 56.09375  Q 36.90625 60 34.09375 62.09375  Q 31.296875 64.203125 27.203125 64.203125  Q 19.703125 64.203125 16.140625 57.09375  Q 12.59375 50 12.59375 35  "
             id="PTSans-Regular-30" />
          <path
             d="M 7.03125 54.203125  Q 7.03125 58.703125 8.21875 61.890625  Q 9.421875 65.09375 11.46875 67.1875  Q 13.53125 69.296875 16.375 70.25  Q 19.21875 71.203125 22.53125 71.203125  Q 25.828125 71.203125 28.671875 70.296875  Q 31.53125 69.40625 33.578125 67.40625  Q 35.625 65.40625 36.828125 62.15625  Q 38.03125 58.90625 38.03125 54.203125  Q 38.03125 49.5 36.828125 46.25  Q 35.625 43 33.578125 41  Q 31.53125 39 28.671875 38.09375  Q 25.828125 37.203125 22.53125 37.203125  Q 19.21875 37.203125 16.375 38.09375  Q 13.53125 39 11.46875 41  Q 9.421875 43 8.21875 46.25  Q 7.03125 49.5 7.03125 54.203125  M 14.421875 54.203125  Q 14.421875 48.203125 16.5625 45.59375  Q 18.71875 43 22.53125 43  Q 24.421875 43 25.921875 43.546875  Q 27.421875 44.09375 28.46875 45.34375  Q 29.53125 46.59375 30.078125 48.75  Q 30.625 50.90625 30.625 54.203125  Q 30.625 57.5 30.078125 59.640625  Q 29.53125 61.796875 28.46875 63.046875  Q 27.421875 64.296875 25.921875 64.84375  Q 24.421875 65.40625 22.53125 65.40625  Q 18.71875 65.40625 16.5625 63.046875  Q 14.421875 60.703125 14.421875 54.203125  M 42.65625 17.203125  Q 42.65625 21.703125 43.84375 24.890625  Q 45.046875 28.09375 47.09375 30.1875  Q 49.15625 32.296875 52 33.25  Q 54.84375 34.203125 58.15625 34.203125  Q 61.453125 34.203125 64.296875 33.296875  Q 67.15625 32.40625 69.203125 30.40625  Q 71.25 28.40625 72.453125 25.15625  Q 73.65625 21.90625 73.65625 17.203125  Q 73.65625 12.5 72.453125 9.25  Q 71.25 6 69.203125 4  Q 67.15625 2 64.296875 1.09375  Q 61.453125 0.203125 58.15625 0.203125  Q 54.84375 0.203125 52 1.09375  Q 49.15625 2 47.09375 4  Q 45.046875 6 43.84375 9.25  Q 42.65625 12.5 42.65625 17.203125  M 50.046875 17.203125  Q 50.046875 11.203125 52.1875 8.59375  Q 54.34375 6 58.15625 6  Q 60.046875 6 61.546875 6.546875  Q 63.046875 7.09375 64.09375 8.34375  Q 65.15625 9.59375 65.703125 11.75  Q 66.25 13.90625 66.25 17.203125  Q 66.25 20.5 65.703125 22.640625  Q 65.15625 24.796875 64.09375 26.046875  Q 63.046875 27.296875 61.546875 27.84375  Q 60.046875 28.40625 58.15625 28.40625  Q 54.34375 28.40625 52.1875 26.046875  Q 50.046875 23.703125 50.046875 17.203125  M 63.65625 71.296875  L 68.546875 67.5  L 17.25 -1.203125  L 12.25 2.703125  z "
             id="PTSans-Regular-25" />
        </defs>
        <g
           style="fill:#ffffff;"
           transform="translate(170.630313 83.824672)scale(0.2 -0.2)"
           id="g61">
          <use
             xlink:href="#PTSans-Regular-35"
             id="use55" />
          <use
             x="54.499985"
             xlink:href="#PTSans-Regular-30"
             id="use57" />
          <use
             x="108.999969"
             xlink:href="#PTSans-Regular-25"
             id="use59" />
        </g>
      </g>
      <g
         id="text_3">
        <!-- indie -->
        <defs
           id="defs67">
          <path
             d="M 9.40625 50  L 17.40625 50  L 17.40625 0  L 9.40625 0  z M 7.703125 65.203125  Q 7.703125 67.5 9.25 69.140625  Q 10.796875 70.796875 13.203125 70.796875  Q 15.59375 70.796875 17.296875 69.140625  Q 19 67.5 19 65.203125  Q 19 62.90625 17.296875 61.40625  Q 15.59375 59.90625 13.203125 59.90625  Q 10.796875 59.90625 9.25 61.40625  Q 7.703125 62.90625 7.703125 65.203125  "
             id="PTSans-Regular-69" />
          <path
             d="M 39.796875 0  L 39.796875 28.5  Q 39.796875 36.296875 37.546875 40.25  Q 35.296875 44.203125 29.296875 44.203125  Q 24 44.203125 20.546875 41.34375  Q 17.09375 38.5 15.703125 34.203125  L 15.703125 0  L 7.703125 0  L 7.703125 50  L 13.296875 50  L 14.796875 43.90625  L 15.203125 43.90625  Q 17.59375 47.09375 21.640625 49.140625  Q 25.703125 51.203125 31.296875 51.203125  Q 35.40625 51.203125 38.5 50.25  Q 41.59375 49.296875 43.640625 46.890625  Q 45.703125 44.5 46.75 40.453125  Q 47.796875 36.40625 47.796875 30.203125  L 47.796875 0  z "
             id="PTSans-Regular-6e" />
          <path
             d="M 46.09375 17.203125  Q 46.09375 12.09375 46.1875 7.9375  Q 46.296875 3.796875 47.09375 -0.203125  L 41.703125 -0.203125  L 39.703125 6.90625  L 39.296875 6.90625  Q 37.296875 3.40625 33.5 1.09375  Q 29.703125 -1.203125 24.59375 -1.203125  Q 14.59375 -1.203125 9.75 5.09375  Q 4.90625 11.40625 4.90625 24.796875  Q 4.90625 37.59375 10.953125 44.25  Q 17 50.90625 27.59375 50.90625  Q 31.296875 50.90625 33.4375 50.5  Q 35.59375 50.09375 38.09375 49.203125  L 38.09375 70  L 46.09375 70  z M 25.90625 5.796875  Q 31 5.796875 34 8.4375  Q 37 11.09375 38.09375 16.5  L 38.09375 41.296875  Q 36.296875 42.703125 34 43.296875  Q 31.703125 43.90625 27.90625 43.90625  Q 21 43.90625 17.09375 39.34375  Q 13.203125 34.796875 13.203125 24.796875  Q 13.203125 20.703125 13.84375 17.203125  Q 14.5 13.703125 16 11.203125  Q 17.5 8.703125 19.953125 7.25  Q 22.40625 5.796875 25.90625 5.796875  "
             id="PTSans-Regular-64" />
        </defs>
        <g
           style="fill:#ffffff;"
           transform="translate(31.683003 237.302138)scale(0.24 -0.24)"
           id="g79">
          <use
             xlink:href="#PTSans-Regular-69"
             id="use69" />
          <use
             x="26.799988"
             xlink:href="#PTSans-Regular-6e"
             id="use71" />
          <use
             x="81.499985"
             xlink:href="#PTSans-Regular-64"
             id="use73" />
          <use
             x="135.299973"
             xlink:href="#PTSans-Regular-69"
             id="use75" />
          <use
             x="162.09996"
             xlink:href="#PTSans-Regular-65"
             id="use77" />
        </g>
      </g>
      <g
         id="text_4">
        <!-- 27% -->
        <defs
           id="defs84">
          <path
             d="M 44.59375 54.09375  Q 44.59375 48.796875 42.640625 43.25  Q 40.703125 37.703125 37.546875 32.09375  Q 34.40625 26.5 30.5 21.140625  Q 26.59375 15.796875 22.703125 11  L 17.796875 6.703125  L 17.796875 6.296875  L 24.203125 7.40625  L 46 7.40625  L 46 0  L 6.203125 0  L 6.203125 2.90625  Q 8.40625 5.203125 11.5 8.59375  Q 14.59375 12 17.9375 16.140625  Q 21.296875 20.296875 24.546875 24.9375  Q 27.796875 29.59375 30.4375 34.390625  Q 33.09375 39.203125 34.6875 43.890625  Q 36.296875 48.59375 36.296875 52.796875  Q 36.296875 57.703125 33.5 60.953125  Q 30.703125 64.203125 25 64.203125  Q 21.203125 64.203125 17.59375 62.640625  Q 14 61.09375 11.40625 59.09375  L 8.09375 64.796875  Q 11.59375 67.796875 16.390625 69.5  Q 21.203125 71.203125 26.703125 71.203125  Q 31 71.203125 34.296875 69.953125  Q 37.59375 68.703125 39.890625 66.390625  Q 42.203125 64.09375 43.390625 60.9375  Q 44.59375 57.796875 44.59375 54.09375  "
             id="PTSans-Regular-32" />
          <path
             d="M 11 0  L 36.09375 58.59375  L 40.5 63.5  L 34.59375 62.59375  L 6.09375 62.59375  L 6.09375 70  L 47.90625 70  L 47.90625 67.296875  L 19.09375 0  z "
             id="PTSans-Regular-37" />
        </defs>
        <g
           style="fill:#ffffff;"
           transform="translate(112.112492 196.866941)scale(0.2 -0.2)"
           id="g92">
          <use
             xlink:href="#PTSans-Regular-32"
             id="use86" />
          <use
             x="54.499985"
             xlink:href="#PTSans-Regular-37"
             id="use88" />
          <use
             x="108.999969"
             xlink:href="#PTSans-Regular-25"
             id="use90" />
        </g>
      </g>
      <g
         id="text_5">
        <!-- academia -->
        <defs
           id="defs96">
          <path
             d="M 37 0  L 37 28.296875  Q 37 32.296875 36.640625 35.25  Q 36.296875 38.203125 35.296875 40.203125  Q 34.296875 42.203125 32.4375 43.203125  Q 30.59375 44.203125 27.59375 44.203125  Q 23 44.203125 19.953125 41.390625  Q 16.90625 38.59375 15.703125 34.40625  L 15.703125 0  L 7.703125 0  L 7.703125 50  L 13.296875 50  L 14.796875 43.90625  L 15.203125 43.90625  Q 17.90625 47.09375 21.453125 49.140625  Q 25 51.203125 30.703125 51.203125  Q 35.5 51.203125 38.546875 49.34375  Q 41.59375 47.5 43.296875 42.90625  Q 45.59375 46.796875 49.640625 49  Q 53.703125 51.203125 58.796875 51.203125  Q 63 51.203125 65.890625 50.25  Q 68.796875 49.296875 70.6875 46.890625  Q 72.59375 44.5 73.4375 40.390625  Q 74.296875 36.296875 74.296875 30  L 74.296875 0  L 66.296875 0  L 66.296875 30.09375  Q 66.296875 33.703125 65.9375 36.34375  Q 65.59375 39 64.546875 40.75  Q 63.5 42.5 61.640625 43.34375  Q 59.796875 44.203125 56.796875 44.203125  Q 51.796875 44.203125 49 41.390625  Q 46.203125 38.59375 45 33.40625  L 45 0  z "
             id="PTSans-Regular-6d" />
        </defs>
        <g
           style="fill:#ffffff;"
           transform="translate(306.746159 229.103194)scale(0.24 -0.24)"
           id="g114">
          <use
             xlink:href="#PTSans-Regular-61"
             id="use98" />
          <use
             x="49.599991"
             xlink:href="#PTSans-Regular-63"
             id="use100" />
          <use
             x="94.699982"
             xlink:href="#PTSans-Regular-61"
             id="use102" />
          <use
             x="144.299973"
             xlink:href="#PTSans-Regular-64"
             id="use104" />
          <use
             x="198.09996"
             xlink:href="#PTSans-Regular-65"
             id="use106" />
          <use
             x="248.899948"
             xlink:href="#PTSans-Regular-6d"
             id="use108" />
          <use
             x="330.09993"
             xlink:href="#PTSans-Regular-69"
             id="use110" />
          <use
             x="356.899918"
             xlink:href="#PTSans-Regular-61"
             id="use112" />
        </g>
      </g>
      <g
         id="text_6">
        <!-- 23% -->
        <defs
           id="defs118">
          <path
             d="M 23.40625 5.796875  Q 26.796875 5.796875 29.6875 6.796875  Q 32.59375 7.796875 34.6875 9.75  Q 36.796875 11.703125 38 14.390625  Q 39.203125 17.09375 39.203125 20.296875  Q 39.203125 27.296875 35.046875 30.6875  Q 30.90625 34.09375 23.59375 34.09375  L 16.203125 34.09375  L 16.203125 37  L 30.59375 59.203125  L 35.203125 63.59375  L 28.703125 62.59375  L 8.90625 62.59375  L 8.90625 70  L 44.59375 70  L 44.59375 67.09375  L 28.703125 43.203125  L 25.203125 40.296875  L 25.203125 40.09375  L 28.59375 40.796875  Q 32.59375 40.703125 36 39.34375  Q 39.40625 38 41.90625 35.453125  Q 44.40625 32.90625 45.796875 29.34375  Q 47.203125 25.796875 47.203125 21.296875  Q 47.203125 15.90625 45.296875 11.703125  Q 43.40625 7.5 40.15625 4.640625  Q 36.90625 1.796875 32.5 0.296875  Q 28.09375 -1.203125 23.203125 -1.203125  Q 18.703125 -1.203125 15.09375 -0.5  Q 11.5 0.203125 8.796875 1.296875  L 10.90625 8.40625  Q 13.203125 7.296875 16.34375 6.546875  Q 19.5 5.796875 23.40625 5.796875  "
             id="PTSans-Regular-33" />
        </defs>
        <g
           style="fill:#ffffff;"
           transform="translate(235.194778 192.361215)scale(0.2 -0.2)"
           id="g126">
          <use
             xlink:href="#PTSans-Regular-32"
             id="use120" />
          <use
             x="54.499985"
             xlink:href="#PTSans-Regular-33"
             id="use122" />
          <use
             x="108.999969"
             xlink:href="#PTSans-Regular-25"
             id="use124" />
        </g>
      </g>
    </g>
  </g>
</svg>
