<?xml version="1.0" encoding="utf-8" standalone="no"?>
<!DOCTYPE svg PUBLIC "-//W3C//DTD SVG 1.1//EN"
  "http://www.w3.org/Graphics/SVG/1.1/DTD/svg11.dtd">
<!-- Created with matplotlib (http://matplotlib.org/) -->
<svg height="1036pt" version="1.1" viewBox="0 0 1755 1036" width="1755pt" xmlns="http://www.w3.org/2000/svg" xmlns:xlink="http://www.w3.org/1999/xlink">
 <defs>
  <style type="text/css">
*{stroke-linecap:butt;stroke-linejoin:round;}
  </style>
 </defs>
 <g id="figure_1">
  <g id="patch_1">
   <path d="M 0 1036.93912 
L 1755.556 1036.93912 
L 1755.556 0 
L 0 0 
z
" style="fill:none;"/>
  </g>
  <g id="axes_1">
   <g id="patch_2">
    <path clip-path="url(#p2163a934ee)" d="M 103.270727 947.0816 
L 287.20185 947.0816 
L 287.20185 55.2896 
L 103.270727 55.2896 
z
" style="fill:#ff99cb;"/>
   </g>
   <g id="patch_3">
    <path clip-path="url(#p2163a934ee)" d="M 379.167412 947.0816 
L 563.098535 947.0816 
L 563.098535 340.66304 
L 379.167412 340.66304 
z
" style="fill:#ffcb99;"/>
   </g>
   <g id="patch_4">
    <path clip-path="url(#p2163a934ee)" d="M 655.064096 947.0816 
L 838.995219 947.0816 
L 838.995219 554.69312 
L 655.064096 554.69312 
z
" style="fill:#feff99;"/>
   </g>
   <g id="patch_5">
    <path clip-path="url(#p2163a934ee)" d="M 930.960781 947.0816 
L 1114.891904 947.0816 
L 1114.891904 733.05152 
L 930.960781 733.05152 
z
" style="fill:#cefecc;"/>
   </g>
   <g id="patch_6">
    <path clip-path="url(#p2163a934ee)" d="M 1206.857465 947.0816 
L 1390.788588 947.0816 
L 1390.788588 840.06656 
L 1206.857465 840.06656 
z
" style="fill:#cbffff;"/>
   </g>
   <g id="patch_7">
    <path clip-path="url(#p2163a934ee)" d="M 1482.75415 947.0816 
L 1666.685273 947.0816 
L 1666.685273 875.73824 
L 1482.75415 875.73824 
z
" style="fill:#ca9bfb;"/>
   </g>
   <g id="text_1">
    <!-- Apache -->
    <defs>
     <path d="M 41.796875 19.40625 
L 16 19.40625 
L 9 0 
L 0.796875 0 
L 27.296875 71.09375 
L 31.09375 71.09375 
L 57.703125 0 
L 49 0 
z
M 18.703125 26.59375 
L 39.296875 26.59375 
L 31.5 47.90625 
L 29 58.5 
L 28.90625 58.5 
L 26.40625 47.703125 
z
" id="PTSans-Regular-41"/>
     <path d="M 7.703125 50 
L 13.203125 50 
L 14.703125 44 
L 15.09375 44 
Q 17.40625 47.5 21.046875 49.34375 
Q 24.703125 51.203125 29.40625 51.203125 
Q 39.40625 51.203125 44.296875 45.296875 
Q 49.203125 39.40625 49.203125 26 
Q 49.203125 19.703125 47.546875 14.640625 
Q 45.90625 9.59375 42.90625 6.09375 
Q 39.90625 2.59375 35.65625 0.6875 
Q 31.40625 -1.203125 26.203125 -1.203125 
Q 22.5 -1.203125 20.34375 -0.75 
Q 18.203125 -0.296875 15.703125 0.796875 
L 15.703125 -20 
L 7.703125 -20 
z
M 27.90625 44.203125 
Q 22.796875 44.203125 19.84375 41.546875 
Q 16.90625 38.90625 15.703125 33.5 
L 15.703125 8.703125 
Q 17.5 7.296875 19.796875 6.546875 
Q 22.09375 5.796875 25.90625 5.796875 
Q 32.796875 5.796875 36.84375 10.9375 
Q 40.90625 16.09375 40.90625 26.09375 
Q 40.90625 30.203125 40.203125 33.546875 
Q 39.5 36.90625 37.953125 39.25 
Q 36.40625 41.59375 33.953125 42.890625 
Q 31.5 44.203125 27.90625 44.203125 
" id="PTSans-Regular-70"/>
     <path d="M 6.90625 46.296875 
Q 10.703125 48.59375 15.75 49.6875 
Q 20.796875 50.796875 26.296875 50.796875 
Q 31.5 50.796875 34.640625 49.390625 
Q 37.796875 48 39.4375 45.75 
Q 41.09375 43.5 41.640625 40.796875 
Q 42.203125 38.09375 42.203125 35.40625 
Q 42.203125 29.40625 41.890625 23.703125 
Q 41.59375 18 41.59375 12.90625 
Q 41.59375 9.203125 41.890625 5.890625 
Q 42.203125 2.59375 43 -0.203125 
L 37.09375 -0.203125 
L 35 6.796875 
L 34.5 6.796875 
Q 33.59375 5.40625 32.25 4.046875 
Q 30.90625 2.703125 29 1.640625 
Q 27.09375 0.59375 24.59375 -0.09375 
Q 22.09375 -0.796875 18.90625 -0.796875 
Q 15.703125 -0.796875 12.953125 0.203125 
Q 10.203125 1.203125 8.203125 3.046875 
Q 6.203125 4.90625 5.046875 7.5 
Q 3.90625 10.09375 3.90625 13.40625 
Q 3.90625 17.796875 5.703125 20.75 
Q 7.5 23.703125 10.75 25.453125 
Q 14 27.203125 18.546875 27.953125 
Q 23.09375 28.703125 28.59375 28.703125 
Q 30 28.703125 31.34375 28.703125 
Q 32.703125 28.703125 34.09375 28.5 
Q 34.40625 31.5 34.40625 33.90625 
Q 34.40625 39.40625 32.203125 41.59375 
Q 30 43.796875 24.203125 43.796875 
Q 22.5 43.796875 20.546875 43.546875 
Q 18.59375 43.296875 16.546875 42.84375 
Q 14.5 42.40625 12.640625 41.75 
Q 10.796875 41.09375 9.40625 40.296875 
z
M 21.09375 6.203125 
Q 23.90625 6.203125 26.09375 6.953125 
Q 28.296875 7.703125 29.890625 8.84375 
Q 31.5 10 32.546875 11.390625 
Q 33.59375 12.796875 34.09375 14.09375 
L 34.09375 22.40625 
Q 32.703125 22.5 31.25 22.546875 
Q 29.796875 22.59375 28.40625 22.59375 
Q 25.296875 22.59375 22.34375 22.25 
Q 19.40625 21.90625 17.15625 20.953125 
Q 14.90625 20 13.546875 18.34375 
Q 12.203125 16.703125 12.203125 14.203125 
Q 12.203125 10.703125 14.703125 8.453125 
Q 17.203125 6.203125 21.09375 6.203125 
" id="PTSans-Regular-61"/>
     <path d="M 41.796875 3.296875 
Q 38.796875 1.09375 34.6875 -0.046875 
Q 30.59375 -1.203125 26.09375 -1.203125 
Q 20.296875 -1.203125 16.296875 0.640625 
Q 12.296875 2.5 9.75 5.953125 
Q 7.203125 9.40625 6.046875 14.25 
Q 4.90625 19.09375 4.90625 25 
Q 4.90625 37.703125 10.5 44.453125 
Q 16.09375 51.203125 26.59375 51.203125 
Q 31.40625 51.203125 34.75 50.453125 
Q 38.09375 49.703125 40.796875 48.296875 
L 38.5 41.40625 
Q 36.203125 42.703125 33.390625 43.453125 
Q 30.59375 44.203125 27.40625 44.203125 
Q 13.203125 44.203125 13.203125 25 
Q 13.203125 21.203125 13.953125 17.75 
Q 14.703125 14.296875 16.453125 11.640625 
Q 18.203125 9 21.046875 7.390625 
Q 23.90625 5.796875 28.09375 5.796875 
Q 31.703125 5.796875 34.546875 6.890625 
Q 37.40625 8 39.203125 9.40625 
z
" id="PTSans-Regular-63"/>
     <path d="M 39.796875 0 
L 39.796875 28.5 
Q 39.796875 32.40625 39.34375 35.34375 
Q 38.90625 38.296875 37.703125 40.25 
Q 36.5 42.203125 34.453125 43.203125 
Q 32.40625 44.203125 29.09375 44.203125 
Q 24.40625 44.203125 20.59375 41.140625 
Q 16.796875 38.09375 15.703125 33.296875 
L 15.703125 0 
L 7.703125 0 
L 7.703125 70 
L 15.703125 70 
L 15.703125 44.40625 
L 16.09375 44.40625 
Q 18.703125 47.5 22.34375 49.34375 
Q 26 51.203125 31.40625 51.203125 
Q 35.59375 51.203125 38.6875 50.25 
Q 41.796875 49.296875 43.84375 46.890625 
Q 45.90625 44.5 46.84375 40.453125 
Q 47.796875 36.40625 47.796875 30.203125 
L 47.796875 0 
z
" id="PTSans-Regular-68"/>
     <path d="M 44.203125 4 
Q 41.203125 1.59375 36.640625 0.1875 
Q 32.09375 -1.203125 27 -1.203125 
Q 21.296875 -1.203125 17.09375 0.640625 
Q 12.90625 2.5 10.203125 5.953125 
Q 7.5 9.40625 6.203125 14.203125 
Q 4.90625 19 4.90625 25 
Q 4.90625 37.796875 10.59375 44.5 
Q 16.296875 51.203125 26.90625 51.203125 
Q 30.296875 51.203125 33.6875 50.453125 
Q 37.09375 49.703125 39.796875 47.59375 
Q 42.5 45.5 44.203125 41.640625 
Q 45.90625 37.796875 45.90625 31.5 
Q 45.90625 28.203125 45.296875 24.203125 
L 13.203125 24.203125 
Q 13.203125 19.796875 14.09375 16.390625 
Q 15 13 16.890625 10.640625 
Q 18.796875 8.296875 21.84375 7.046875 
Q 24.90625 5.796875 29.296875 5.796875 
Q 32.703125 5.796875 36.09375 7 
Q 39.5 8.203125 41.203125 9.796875 
z
M 27 44.203125 
Q 21.09375 44.203125 17.546875 41.09375 
Q 14 38 13.296875 30.5 
L 38.09375 30.5 
Q 38.09375 38.09375 35.1875 41.140625 
Q 32.296875 44.203125 27 44.203125 
" id="PTSans-Regular-65"/>
    </defs>
    <g style="fill:#ffffff;" transform="translate(95.146289 1016.93912)scale(0.64 -0.64)">
     <use xlink:href="#PTSans-Regular-41"/>
     <use x="58.499985" xlink:href="#PTSans-Regular-70"/>
     <use x="112.599976" xlink:href="#PTSans-Regular-61"/>
     <use x="162.199966" xlink:href="#PTSans-Regular-63"/>
     <use x="207.299957" xlink:href="#PTSans-Regular-68"/>
     <use x="261.999954" xlink:href="#PTSans-Regular-65"/>
    </g>
   </g>
   <g id="text_2">
    <!-- BSD -->
    <defs>
     <path d="M 50.703125 54 
Q 50.703125 51.5 49.890625 48.890625 
Q 49.09375 46.296875 47.5 44.046875 
Q 45.90625 41.796875 43.40625 40.09375 
Q 40.90625 38.40625 37.5 37.5 
L 37.5 37.09375 
Q 40.5 36.59375 43.25 35.390625 
Q 46 34.203125 48.09375 32.09375 
Q 50.203125 30 51.5 27 
Q 52.796875 24 52.796875 19.90625 
Q 52.796875 14.5 50.546875 10.546875 
Q 48.296875 6.59375 44.640625 4.09375 
Q 41 1.59375 36.296875 0.390625 
Q 31.59375 -0.796875 26.703125 -0.796875 
Q 25 -0.796875 22.703125 -0.796875 
Q 20.40625 -0.796875 17.90625 -0.640625 
Q 15.40625 -0.5 12.90625 -0.25 
Q 10.40625 0 8.5 0.5 
L 8.5 69.40625 
Q 12.203125 70 17.09375 70.390625 
Q 22 70.796875 27.796875 70.796875 
Q 31.703125 70.796875 35.75 70.140625 
Q 39.796875 69.5 43.09375 67.640625 
Q 46.40625 65.796875 48.546875 62.5 
Q 50.703125 59.203125 50.703125 54 
M 27.5 6.40625 
Q 30.703125 6.40625 33.703125 7.15625 
Q 36.703125 7.90625 39 9.546875 
Q 41.296875 11.203125 42.640625 13.59375 
Q 44 16 44 19.296875 
Q 44 23.40625 42.34375 25.90625 
Q 40.703125 28.40625 38.046875 29.796875 
Q 35.40625 31.203125 32.09375 31.703125 
Q 28.796875 32.203125 25.5 32.203125 
L 16.796875 32.203125 
L 16.796875 7.09375 
Q 17.5 6.90625 18.796875 6.796875 
Q 20.09375 6.703125 21.59375 6.59375 
Q 23.09375 6.5 24.6875 6.453125 
Q 26.296875 6.40625 27.5 6.40625 
M 22 39.203125 
Q 23.703125 39.203125 26.09375 39.296875 
Q 28.5 39.40625 30.09375 39.59375 
Q 32.5 40.40625 34.59375 41.546875 
Q 36.703125 42.703125 38.34375 44.25 
Q 40 45.796875 40.953125 47.84375 
Q 41.90625 49.90625 41.90625 52.296875 
Q 41.90625 55.59375 40.65625 57.75 
Q 39.40625 59.90625 37.296875 61.203125 
Q 35.203125 62.5 32.5 63.046875 
Q 29.796875 63.59375 27 63.59375 
Q 23.703125 63.59375 20.953125 63.4375 
Q 18.203125 63.296875 16.796875 63 
L 16.796875 39.203125 
z
" id="PTSans-Regular-42"/>
     <path d="M 40.09375 17.796875 
Q 40.09375 22 37.59375 24.640625 
Q 35.09375 27.296875 31.34375 29.34375 
Q 27.59375 31.40625 23.1875 33.203125 
Q 18.796875 35 15.046875 37.546875 
Q 11.296875 40.09375 8.796875 43.84375 
Q 6.296875 47.59375 6.296875 53.40625 
Q 6.296875 61.59375 12 66.390625 
Q 17.703125 71.203125 28.203125 71.203125 
Q 34.296875 71.203125 39.296875 70.296875 
Q 44.296875 69.40625 47.09375 68 
L 44.59375 60.703125 
Q 42.296875 61.796875 37.84375 62.796875 
Q 33.40625 63.796875 27.796875 63.796875 
Q 21.203125 63.796875 17.890625 60.84375 
Q 14.59375 57.90625 14.59375 53.90625 
Q 14.59375 50 17.09375 47.390625 
Q 19.59375 44.796875 23.34375 42.75 
Q 27.09375 40.703125 31.5 38.703125 
Q 35.90625 36.703125 39.65625 34.046875 
Q 43.40625 31.40625 45.90625 27.703125 
Q 48.40625 24 48.40625 18.5 
Q 48.40625 14 46.796875 10.390625 
Q 45.203125 6.796875 42.09375 4.1875 
Q 39 1.59375 34.59375 0.1875 
Q 30.203125 -1.203125 24.59375 -1.203125 
Q 17.09375 -1.203125 12.1875 -0.046875 
Q 7.296875 1.09375 4.59375 2.5 
L 7.40625 10 
Q 9.703125 8.703125 14.203125 7.453125 
Q 18.703125 6.203125 24.296875 6.203125 
Q 27.59375 6.203125 30.5 6.84375 
Q 33.40625 7.5 35.5 8.953125 
Q 37.59375 10.40625 38.84375 12.59375 
Q 40.09375 14.796875 40.09375 17.796875 
" id="PTSans-Regular-53"/>
     <path d="M 8.5 70 
Q 10.40625 70.296875 12.75 70.4375 
Q 15.09375 70.59375 17.640625 70.640625 
Q 20.203125 70.703125 22.640625 70.75 
Q 25.09375 70.796875 27.203125 70.796875 
Q 35.59375 70.796875 41.75 68.1875 
Q 47.90625 65.59375 51.90625 60.9375 
Q 55.90625 56.296875 57.84375 49.796875 
Q 59.796875 43.296875 59.796875 35.5 
Q 59.796875 28.40625 57.9375 21.84375 
Q 56.09375 15.296875 52.09375 10.25 
Q 48.09375 5.203125 41.6875 2.140625 
Q 35.296875 -0.90625 26.203125 -0.90625 
Q 24.59375 -0.90625 22.046875 -0.84375 
Q 19.5 -0.796875 16.796875 -0.640625 
Q 14.09375 -0.5 11.796875 -0.390625 
Q 9.5 -0.296875 8.5 -0.09375 
z
M 27.40625 63.40625 
Q 26.09375 63.40625 24.546875 63.40625 
Q 23 63.40625 21.5 63.296875 
Q 20 63.203125 18.75 63.09375 
Q 17.5 63 16.796875 62.90625 
L 16.796875 6.90625 
Q 17.296875 6.796875 18.6875 6.75 
Q 20.09375 6.703125 21.59375 6.640625 
Q 23.09375 6.59375 24.5 6.546875 
Q 25.90625 6.5 26.40625 6.5 
Q 33.40625 6.5 38.15625 8.890625 
Q 42.90625 11.296875 45.75 15.34375 
Q 48.59375 19.40625 49.796875 24.65625 
Q 51 29.90625 51 35.5 
Q 51 40.40625 49.890625 45.34375 
Q 48.796875 50.296875 46.09375 54.296875 
Q 43.40625 58.296875 38.84375 60.84375 
Q 34.296875 63.40625 27.40625 63.40625 
" id="PTSans-Regular-44"/>
    </defs>
    <g style="fill:#ffffff;" transform="translate(414.522973 1016.58912)scale(0.64 -0.64)">
     <use xlink:href="#PTSans-Regular-42"/>
     <use x="58.399994" xlink:href="#PTSans-Regular-53"/>
     <use x="111.499985" xlink:href="#PTSans-Regular-44"/>
    </g>
   </g>
   <g id="text_3">
    <!-- MIT -->
    <defs>
     <path d="M 62.296875 47 
L 63.296875 57.5 
L 62.796875 57.5 
L 59 47.90625 
L 40.796875 16.296875 
L 38.296875 16.296875 
L 19 48 
L 15.40625 57.5 
L 14.90625 57.5 
L 16.296875 47.09375 
L 16.296875 0 
L 8.5 0 
L 8.5 70 
L 14.703125 70 
L 36.59375 34.203125 
L 39.90625 26.40625 
L 40.09375 26.40625 
L 43.203125 34.40625 
L 64.09375 70 
L 70.59375 70 
L 70.59375 0 
L 62.296875 0 
z
" id="PTSans-Regular-4d"/>
     <path d="M 10.40625 70 
L 18.703125 70 
L 18.703125 0 
L 10.40625 0 
z
" id="PTSans-Regular-49"/>
     <path d="M 53.703125 62.59375 
L 31.90625 62.59375 
L 31.90625 0 
L 23.59375 0 
L 23.59375 62.59375 
L 1.796875 62.59375 
L 1.796875 70 
L 53.703125 70 
z
" id="PTSans-Regular-54"/>
    </defs>
    <g style="fill:#ffffff;" transform="translate(694.649658 1016.58912)scale(0.64 -0.64)">
     <use xlink:href="#PTSans-Regular-4d"/>
     <use x="79.099991" xlink:href="#PTSans-Regular-49"/>
     <use x="108.199982" xlink:href="#PTSans-Regular-54"/>
    </g>
   </g>
   <g id="text_4">
    <!-- GPL -->
    <defs>
     <path d="M 32.09375 34.90625 
L 55.59375 34.90625 
L 55.59375 4.09375 
Q 54 2.90625 51.75 1.90625 
Q 49.5 0.90625 46.953125 0.203125 
Q 44.40625 -0.5 41.65625 -0.84375 
Q 38.90625 -1.203125 36.296875 -1.203125 
Q 29.59375 -1.203125 24 0.9375 
Q 18.40625 3.09375 14.296875 7.546875 
Q 10.203125 12 7.890625 18.84375 
Q 5.59375 25.703125 5.59375 35 
Q 5.59375 44.703125 8.390625 51.59375 
Q 11.203125 58.5 15.703125 62.84375 
Q 20.203125 67.203125 25.796875 69.203125 
Q 31.40625 71.203125 37 71.203125 
Q 43 71.203125 46.890625 70.546875 
Q 50.796875 69.90625 53.5 68.796875 
L 51.40625 61.5 
Q 46.59375 63.796875 37.703125 63.796875 
Q 33.5 63.796875 29.34375 62.34375 
Q 25.203125 60.90625 21.890625 57.5 
Q 18.59375 54.09375 16.5 48.59375 
Q 14.40625 43.09375 14.40625 35 
Q 14.40625 27.59375 16.09375 22.1875 
Q 17.796875 16.796875 20.84375 13.25 
Q 23.90625 9.703125 28.203125 7.953125 
Q 32.5 6.203125 37.59375 6.203125 
Q 44 6.203125 48.5 8.703125 
L 48.5 28.203125 
L 32.09375 30.203125 
z
" id="PTSans-Regular-47"/>
     <path d="M 8.5 69.296875 
Q 12.296875 70.203125 16.6875 70.5 
Q 21.09375 70.796875 25.40625 70.796875 
Q 30 70.796875 34.75 69.890625 
Q 39.5 69 43.390625 66.59375 
Q 47.296875 64.203125 49.75 60 
Q 52.203125 55.796875 52.203125 49.296875 
Q 52.203125 42.90625 49.890625 38.5 
Q 47.59375 34.09375 43.796875 31.34375 
Q 40 28.59375 35.09375 27.390625 
Q 30.203125 26.203125 25 26.203125 
Q 24.5 26.203125 23.34375 26.203125 
Q 22.203125 26.203125 20.953125 26.25 
Q 19.703125 26.296875 18.5 26.390625 
Q 17.296875 26.5 16.796875 26.59375 
L 16.796875 0 
L 8.5 0 
z
M 25.59375 63.59375 
Q 23 63.59375 20.59375 63.5 
Q 18.203125 63.40625 16.796875 63 
L 16.796875 34 
Q 17.296875 33.796875 18.390625 33.75 
Q 19.5 33.703125 20.703125 33.640625 
Q 21.90625 33.59375 23 33.59375 
Q 24.09375 33.59375 24.59375 33.59375 
Q 28 33.59375 31.34375 34.25 
Q 34.703125 34.90625 37.390625 36.59375 
Q 40.09375 38.296875 41.75 41.390625 
Q 43.40625 44.5 43.40625 49.296875 
Q 43.40625 53.40625 41.84375 56.15625 
Q 40.296875 58.90625 37.75 60.546875 
Q 35.203125 62.203125 32 62.890625 
Q 28.796875 63.59375 25.59375 63.59375 
" id="PTSans-Regular-50"/>
     <path d="M 49.90625 0 
L 8.5 0 
L 8.5 70 
L 16.796875 70 
L 16.796875 7.40625 
L 49.90625 7.40625 
z
" id="PTSans-Regular-4c"/>
    </defs>
    <g style="fill:#ffffff;" transform="translate(968.906342 1016.58912)scale(0.64 -0.64)">
     <use xlink:href="#PTSans-Regular-47"/>
     <use x="61.199997" xlink:href="#PTSans-Regular-50"/>
     <use x="117.099991" xlink:href="#PTSans-Regular-4c"/>
    </g>
   </g>
   <g id="text_5">
    <!-- LGPL -->
    <g style="fill:#ffffff;" transform="translate(1228.288027 1016.58912)scale(0.64 -0.64)">
     <use xlink:href="#PTSans-Regular-4c"/>
     <use x="51.606247" xlink:href="#PTSans-Regular-47"/>
     <use x="112.806244" xlink:href="#PTSans-Regular-50"/>
     <use x="168.706238" xlink:href="#PTSans-Regular-4c"/>
    </g>
   </g>
   <g id="text_6">
    <!-- Boost -->
    <defs>
     <path d="M 4.90625 25 
Q 4.90625 37.703125 10.546875 44.453125 
Q 16.203125 51.203125 26.796875 51.203125 
Q 32.40625 51.203125 36.546875 49.34375 
Q 40.703125 47.5 43.390625 44.046875 
Q 46.09375 40.59375 47.390625 35.75 
Q 48.703125 30.90625 48.703125 25 
Q 48.703125 12.296875 43.046875 5.546875 
Q 37.40625 -1.203125 26.796875 -1.203125 
Q 21.203125 -1.203125 17.046875 0.640625 
Q 12.90625 2.5 10.203125 5.953125 
Q 7.5 9.40625 6.203125 14.25 
Q 4.90625 19.09375 4.90625 25 
M 13.203125 25 
Q 13.203125 21.203125 13.953125 17.703125 
Q 14.703125 14.203125 16.296875 11.59375 
Q 17.90625 9 20.5 7.390625 
Q 23.09375 5.796875 26.796875 5.796875 
Q 40.40625 5.703125 40.40625 25 
Q 40.40625 28.90625 39.65625 32.40625 
Q 38.90625 35.90625 37.296875 38.5 
Q 35.703125 41.09375 33.09375 42.640625 
Q 30.5 44.203125 26.796875 44.203125 
Q 13.203125 44.296875 13.203125 25 
" id="PTSans-Regular-6f"/>
     <path d="M 29.703125 13.59375 
Q 29.703125 16.59375 27.890625 18.296875 
Q 26.09375 20 23.4375 21.140625 
Q 20.796875 22.296875 17.640625 23.34375 
Q 14.5 24.40625 11.84375 26.046875 
Q 9.203125 27.703125 7.390625 30.296875 
Q 5.59375 32.90625 5.59375 37.296875 
Q 5.59375 44.5 9.6875 47.84375 
Q 13.796875 51.203125 21.09375 51.203125 
Q 26.5 51.203125 30.140625 50.25 
Q 33.796875 49.296875 36.5 48 
L 34.59375 41.40625 
Q 32.296875 42.5 29.046875 43.34375 
Q 25.796875 44.203125 22.09375 44.203125 
Q 17.703125 44.203125 15.640625 42.703125 
Q 13.59375 41.203125 13.59375 37.5 
Q 13.59375 34.90625 15.390625 33.453125 
Q 17.203125 32 19.84375 30.84375 
Q 22.5 29.703125 25.640625 28.59375 
Q 28.796875 27.5 31.4375 25.703125 
Q 34.09375 23.90625 35.890625 21.15625 
Q 37.703125 18.40625 37.703125 13.90625 
Q 37.703125 10.703125 36.640625 7.890625 
Q 35.59375 5.09375 33.390625 3.09375 
Q 31.203125 1.09375 27.953125 -0.046875 
Q 24.703125 -1.203125 20.296875 -1.203125 
Q 14.59375 -1.203125 10.59375 -0.09375 
Q 6.59375 1 3.90625 2.5 
L 6.296875 9.296875 
Q 8.59375 8 12.296875 6.890625 
Q 16 5.796875 19.796875 5.796875 
Q 24.09375 5.796875 26.890625 7.5 
Q 29.703125 9.203125 29.703125 13.59375 
" id="PTSans-Regular-73"/>
     <path d="M 1.09375 50 
L 8.90625 50 
L 8.90625 59.90625 
L 16.90625 62.203125 
L 16.90625 50 
L 30.5 50 
L 30.5 43 
L 16.90625 43 
L 16.90625 15.296875 
Q 16.90625 10.09375 18.203125 7.9375 
Q 19.5 5.796875 22.59375 5.796875 
Q 25.203125 5.796875 27 6.34375 
Q 28.796875 6.90625 31 7.796875 
L 32.796875 1.703125 
Q 30.09375 0.40625 26.890625 -0.390625 
Q 23.703125 -1.203125 20 -1.203125 
Q 13.90625 -1.203125 11.40625 2.25 
Q 8.90625 5.703125 8.90625 13.796875 
L 8.90625 43 
L 1.09375 43 
z
" id="PTSans-Regular-74"/>
    </defs>
    <g style="fill:#ffffff;" transform="translate(1497.409711 1016.58912)scale(0.64 -0.64)">
     <use xlink:href="#PTSans-Regular-42"/>
     <use x="58.399994" xlink:href="#PTSans-Regular-6f"/>
     <use x="111.999985" xlink:href="#PTSans-Regular-6f"/>
     <use x="165.599976" xlink:href="#PTSans-Regular-73"/>
     <use x="207.699966" xlink:href="#PTSans-Regular-74"/>
    </g>
   </g>
   <g id="text_7">
    <!-- 25 -->
    <defs>
     <path d="M 44.59375 54.09375 
Q 44.59375 48.796875 42.640625 43.25 
Q 40.703125 37.703125 37.546875 32.09375 
Q 34.40625 26.5 30.5 21.140625 
Q 26.59375 15.796875 22.703125 11 
L 17.796875 6.703125 
L 17.796875 6.296875 
L 24.203125 7.40625 
L 46 7.40625 
L 46 0 
L 6.203125 0 
L 6.203125 2.90625 
Q 8.40625 5.203125 11.5 8.59375 
Q 14.59375 12 17.9375 16.140625 
Q 21.296875 20.296875 24.546875 24.9375 
Q 27.796875 29.59375 30.4375 34.390625 
Q 33.09375 39.203125 34.6875 43.890625 
Q 36.296875 48.59375 36.296875 52.796875 
Q 36.296875 57.703125 33.5 60.953125 
Q 30.703125 64.203125 25 64.203125 
Q 21.203125 64.203125 17.59375 62.640625 
Q 14 61.09375 11.40625 59.09375 
L 8.09375 64.796875 
Q 11.59375 67.796875 16.390625 69.5 
Q 21.203125 71.203125 26.703125 71.203125 
Q 31 71.203125 34.296875 69.953125 
Q 37.59375 68.703125 39.890625 66.390625 
Q 42.203125 64.09375 43.390625 60.9375 
Q 44.59375 57.796875 44.59375 54.09375 
" id="PTSans-Regular-32"/>
     <path d="M 21.296875 5.796875 
Q 28.203125 5.796875 32.703125 9.796875 
Q 37.203125 13.796875 37.203125 21.40625 
Q 37.203125 28.703125 32.75 32.296875 
Q 28.296875 35.90625 20.5 35.90625 
L 12.09375 35.40625 
L 12.09375 70 
L 43.296875 70 
L 43.296875 62.59375 
L 19.59375 62.59375 
L 19.59375 42.703125 
L 23.90625 42.90625 
Q 33.796875 42.796875 39.5 37.390625 
Q 45.203125 32 45.203125 21.90625 
Q 45.203125 16.296875 43.296875 11.9375 
Q 41.40625 7.59375 38.15625 4.6875 
Q 34.90625 1.796875 30.5 0.296875 
Q 26.09375 -1.203125 21.09375 -1.203125 
Q 16.59375 -1.203125 13.5 -0.703125 
Q 10.40625 -0.203125 7.703125 0.796875 
L 9.796875 7.59375 
Q 12.09375 6.703125 14.75 6.25 
Q 17.40625 5.796875 21.296875 5.796875 
" id="PTSans-Regular-35"/>
    </defs>
    <g transform="translate(160.356289 124.79712)scale(0.64 -0.64)">
     <use xlink:href="#PTSans-Regular-32"/>
     <use x="54.499985" xlink:href="#PTSans-Regular-35"/>
    </g>
   </g>
   <g id="text_8">
    <!-- 17 -->
    <defs>
     <path d="M 10.796875 7.40625 
L 24.796875 7.40625 
L 24.796875 55.796875 
L 25.796875 61.703125 
L 21.796875 57 
L 10.796875 49.09375 
L 7 54.203125 
L 29 71.203125 
L 32.59375 71.203125 
L 32.59375 7.40625 
L 46.296875 7.40625 
L 46.296875 0 
L 10.796875 0 
z
" id="PTSans-Regular-31"/>
     <path d="M 11 0 
L 36.09375 58.59375 
L 40.5 63.5 
L 34.59375 62.59375 
L 6.09375 62.59375 
L 6.09375 70 
L 47.90625 70 
L 47.90625 67.296875 
L 19.09375 0 
z
" id="PTSans-Regular-37"/>
    </defs>
    <g transform="translate(436.252973 410.17056)scale(0.64 -0.64)">
     <use xlink:href="#PTSans-Regular-31"/>
     <use x="54.499985" xlink:href="#PTSans-Regular-37"/>
    </g>
   </g>
   <g id="text_9">
    <!-- 11 -->
    <g transform="translate(712.149658 624.20064)scale(0.64 -0.64)">
     <use xlink:href="#PTSans-Regular-31"/>
     <use x="54.499985" xlink:href="#PTSans-Regular-31"/>
    </g>
   </g>
   <g id="text_10">
    <!-- 6 -->
    <defs>
     <path d="M 49.203125 21.09375 
Q 49.203125 16.5 47.796875 12.453125 
Q 46.40625 8.40625 43.703125 5.34375 
Q 41 2.296875 37 0.546875 
Q 33 -1.203125 27.90625 -1.203125 
Q 22.90625 -1.203125 18.90625 0.390625 
Q 14.90625 2 12 5.140625 
Q 9.09375 8.296875 7.546875 12.890625 
Q 6 17.5 6 23.5 
Q 6 33.40625 8.546875 41.75 
Q 11.09375 50.09375 15.59375 56.296875 
Q 20.09375 62.5 26.25 66.34375 
Q 32.40625 70.203125 39.59375 71.203125 
L 41.296875 64.796875 
Q 35.703125 63.796875 31.09375 61 
Q 26.5 58.203125 23.046875 54.09375 
Q 19.59375 50 17.390625 44.890625 
Q 15.203125 39.796875 14.40625 34.40625 
Q 16 37.09375 19.796875 39.34375 
Q 23.59375 41.59375 29.09375 41.59375 
Q 38.5 41.59375 43.84375 36.1875 
Q 49.203125 30.796875 49.203125 21.09375 
M 40.90625 20.296875 
Q 40.90625 27.40625 37.59375 31 
Q 34.296875 34.59375 27.40625 34.59375 
Q 22.5 34.59375 18.953125 32.1875 
Q 15.40625 29.796875 14 26.796875 
Q 13.796875 25.40625 13.796875 24.5 
Q 13.796875 23.59375 13.796875 22.5 
Q 13.796875 19.40625 14.640625 16.40625 
Q 15.5 13.40625 17.296875 11.046875 
Q 19.09375 8.703125 21.75 7.25 
Q 24.40625 5.796875 28 5.796875 
Q 30.90625 5.796875 33.25 6.890625 
Q 35.59375 8 37.296875 9.890625 
Q 39 11.796875 39.953125 14.5 
Q 40.90625 17.203125 40.90625 20.296875 
" id="PTSans-Regular-36"/>
    </defs>
    <g transform="translate(1005.486342 802.55904)scale(0.64 -0.64)">
     <use xlink:href="#PTSans-Regular-36"/>
    </g>
   </g>
   <g id="text_11">
    <!-- 3 -->
    <defs>
     <path d="M 23.40625 5.796875 
Q 26.796875 5.796875 29.6875 6.796875 
Q 32.59375 7.796875 34.6875 9.75 
Q 36.796875 11.703125 38 14.390625 
Q 39.203125 17.09375 39.203125 20.296875 
Q 39.203125 27.296875 35.046875 30.6875 
Q 30.90625 34.09375 23.59375 34.09375 
L 16.203125 34.09375 
L 16.203125 37 
L 30.59375 59.203125 
L 35.203125 63.59375 
L 28.703125 62.59375 
L 8.90625 62.59375 
L 8.90625 70 
L 44.59375 70 
L 44.59375 67.09375 
L 28.703125 43.203125 
L 25.203125 40.296875 
L 25.203125 40.09375 
L 28.59375 40.796875 
Q 32.59375 40.703125 36 39.34375 
Q 39.40625 38 41.90625 35.453125 
Q 44.40625 32.90625 45.796875 29.34375 
Q 47.203125 25.796875 47.203125 21.296875 
Q 47.203125 15.90625 45.296875 11.703125 
Q 43.40625 7.5 40.15625 4.640625 
Q 36.90625 1.796875 32.5 0.296875 
Q 28.09375 -1.203125 23.203125 -1.203125 
Q 18.703125 -1.203125 15.09375 -0.5 
Q 11.5 0.203125 8.796875 1.296875 
L 10.90625 8.40625 
Q 13.203125 7.296875 16.34375 6.546875 
Q 19.5 5.796875 23.40625 5.796875 
" id="PTSans-Regular-33"/>
    </defs>
    <g transform="translate(1281.383027 909.57408)scale(0.64 -0.64)">
     <use xlink:href="#PTSans-Regular-33"/>
    </g>
   </g>
   <g id="text_12">
    <!-- 2 -->
    <g transform="translate(1557.279711 934.544256)scale(0.64 -0.64)">
     <use xlink:href="#PTSans-Regular-32"/>
    </g>
   </g>
  </g>
 </g>
 <defs>
  <clipPath id="p2163a934ee">
   <rect height="936.3816" width="1719.756" x="25.1" y="10.7"/>
  </clipPath>
 </defs>
</svg>
