<svg xmlns="http://www.w3.org/2000/svg" viewBox="0 0 609.7002 216.44524" stroke-miterlimit="10" width="609.7" height="216.445" fill="none" stroke-linecap="square"><g clip-path="url(#g4c65c172ee_0_22.0)" transform="translate(-169.051 -270.54)"><path d="M587.449 449.608a7.375 7.375 0 0 1 7.375-7.375h81.218a7.375 7.375 0 0 1 7.375 7.375v29.501a7.375 7.375 0 0 1-7.375 7.376h-81.218a7.375 7.375 0 0 1-7.375-7.376z" fill="#400d9a" fill-rule="evenodd"/><path d="M587.449 449.608a7.375 7.375 0 0 1 7.375-7.375h81.218a7.375 7.375 0 0 1 7.375 7.375v29.501a7.375 7.375 0 0 1-7.375 7.376h-81.218a7.375 7.375 0 0 1-7.375-7.376z" stroke="#595959" stroke-linecap="butt" stroke-linejoin="round"/><path d="M605.72 458.202h1.016l5.11 12.297h-1.282l-1.593-3.844h-5.532l-1.578 3.844h-1.297l5.157-12.297zm2.97 7.5l-2.47-6.078-2.515 6.078h4.984zm12.275 4.797h-1.171v-5.047q0-1.61-.485-2.328-.468-.734-1.468-.734-.516 0-1.047.187-.516.188-.953.547-.438.344-.782.828-.343.469-.5 1.016v5.53h-1.187v-9.03h1.078v2.047q.547-.985 1.578-1.594 1.031-.61 2.25-.61.75 0 1.266.282.515.28.828.78.312.5.453 1.235.14.72.14 1.61v5.28zm4.775.172q-.641 0-1.188-.219-.531-.219-.953-.594-.406-.375-.625-.89-.219-.516-.219-1.11 0-.578.266-1.078.281-.515.781-.875t1.188-.562q.703-.203 1.53-.203.704 0 1.407.125.719.125 1.266.343v-.812q0-1.188-.672-1.89-.672-.704-1.875-.704-.688 0-1.422.281-.719.266-1.469.797l-.422-.781q1.75-1.188 3.407-1.188 1.687 0 2.656.954.984.953.984 2.64v4.063q0 .484.422.484v1.047q-.297.047-.453.047-.438 0-.703-.219-.25-.234-.266-.625l-.031-.703q-.625.812-1.578 1.25-.938.422-2.031.422zm.28-.906q.923 0 1.688-.344.782-.344 1.172-.922.156-.156.235-.328.078-.188.078-.344v-1.469q-.594-.218-1.235-.343-.625-.125-1.28-.125-1.25 0-2.032.53-.766.516-.766 1.36 0 .422.156.781.172.36.454.625.28.266.671.422.407.157.86.157zm6.96-11.922h1.172v10.61q0 .5.266.796.281.281.797.281.187 0 .437-.047.266-.062.485-.14l.218.953q-.328.14-.812.219-.469.093-.813.093-.828 0-1.297-.453-.453-.469-.453-1.297v-11.015zm5.167 15.422q.14.03.265.03.14.016.266.016.312 0 .484-.093.188-.078.36-.375.171-.297.39-.86.219-.547.61-1.484l-3.922-9.031h1.203l3.344 7.937 3.109-7.937h1.125l-4.688 11.64q-.187.516-.625.875-.437.375-1.203.375-.172 0-.328-.015-.156 0-.39-.032v-1.046zm8.11-3.563l6.11-7.344h-5.97v-.89h7.25v.797l-6.077 7.343h6.062v.89h-7.375v-.796zm13.197.969q-1 0-1.828-.375-.812-.375-1.422-1.016-.593-.656-.937-1.5-.344-.844-.344-1.828 0-.953.344-1.781.344-.844.937-1.469.594-.64 1.422-1.016.828-.375 1.813-.375.984 0 1.797.375.828.375 1.422 1.016.593.64.921 1.469.329.828.329 1.765v.282q0 .14-.016.187h-7.734q.046.735.328 1.36.297.609.75 1.062.453.438 1.03.688.579.25 1.235.25.438 0 .86-.11.437-.125.797-.328.375-.219.656-.516.297-.312.453-.671l1.031.28q-.203.5-.594.907-.375.406-.89.719-.5.297-1.11.453-.593.172-1.25.172zm3.329-5.156q-.063-.735-.344-1.329-.281-.593-.735-1.03-.437-.438-1.015-.673-.578-.25-1.235-.25-.656 0-1.25.25-.593.235-1.03.672-.438.438-.72 1.047-.265.594-.312 1.313h6.64zm7.452-3q-1.203.03-2.093.656-.875.625-1.235 1.719v5.609h-1.187v-9.031h1.11v2.172q.5-1.047 1.343-1.625.86-.594 1.828-.594.14 0 .234.015v1.079z" fill="#fff"/><path d="M587.449 367.57a7.375 7.375 0 0 1 7.375-7.376h81.218a7.375 7.375 0 0 1 7.375 7.375v29.502a7.375 7.375 0 0 1-7.375 7.375h-81.218a7.375 7.375 0 0 1-7.375-7.375z" fill="#400d9a" fill-rule="evenodd"/><path d="M587.449 367.57a7.375 7.375 0 0 1 7.375-7.376h81.218a7.375 7.375 0 0 1 7.375 7.375v29.502a7.375 7.375 0 0 1-7.375 7.375h-81.218a7.375 7.375 0 0 1-7.375-7.375z" stroke="#595959" stroke-linecap="butt" stroke-linejoin="round"/><path d="M605.72 376.163h1.016l5.11 12.297h-1.282l-1.593-3.844h-5.532l-1.578 3.844h-1.297l5.157-12.297zm2.97 7.5l-2.47-6.078-2.515 6.078h4.984zm12.275 4.797h-1.171v-5.047q0-1.61-.485-2.328-.468-.734-1.468-.734-.516 0-1.047.187-.516.188-.953.547-.438.344-.782.828-.343.469-.5 1.016v5.531h-1.187v-9.031h1.078v2.047q.547-.985 1.578-1.594 1.031-.61 2.25-.61.75 0 1.266.282.515.281.828.781.312.5.453 1.234.14.72.14 1.61v5.281zm4.775.172q-.641 0-1.188-.219-.531-.219-.953-.594-.406-.375-.625-.89-.219-.516-.219-1.11 0-.578.266-1.078.281-.515.781-.875t1.188-.562q.703-.203 1.53-.203.704 0 1.407.125.719.125 1.266.343v-.812q0-1.188-.672-1.89-.672-.704-1.875-.704-.688 0-1.422.281-.719.266-1.469.797l-.422-.781q1.75-1.188 3.407-1.188 1.687 0 2.656.954.984.953.984 2.64v4.063q0 .484.422.484v1.047q-.297.047-.453.047-.438 0-.703-.219-.25-.234-.266-.625l-.031-.703q-.625.813-1.578 1.25-.938.422-2.031.422zm.28-.906q.923 0 1.688-.344.782-.344 1.172-.922.156-.156.235-.328.078-.188.078-.344v-1.469q-.594-.218-1.235-.343-.625-.125-1.28-.125-1.25 0-2.032.53-.766.516-.766 1.36 0 .422.156.781.172.36.454.625.28.266.671.422.407.157.86.157zm6.96-11.922h1.172v10.61q0 .5.266.796.281.281.797.281.187 0 .437-.047.266-.062.485-.14l.218.953q-.328.14-.812.219-.469.093-.813.093-.828 0-1.297-.453-.453-.469-.453-1.297v-11.015zm5.167 15.422q.14.03.265.03.14.016.266.016.312 0 .484-.093.188-.078.36-.375.171-.297.39-.86.219-.547.61-1.484l-3.922-9.031h1.203l3.344 7.937 3.109-7.937h1.125l-4.688 11.64q-.187.516-.625.875-.437.375-1.203.375-.172 0-.328-.015-.156 0-.39-.031v-1.047zm8.11-3.563l6.11-7.344h-5.97v-.89h7.25v.797l-6.077 7.343h6.062v.891h-7.375v-.797zm13.197.969q-1 0-1.828-.375-.812-.375-1.422-1.016-.593-.656-.937-1.5-.344-.844-.344-1.828 0-.953.344-1.781.344-.844.937-1.469.594-.64 1.422-1.016.828-.375 1.813-.375.984 0 1.797.375.828.375 1.422 1.016.593.64.921 1.469.329.828.329 1.765v.282q0 .14-.016.187h-7.734q.046.735.328 1.36.297.609.75 1.062.453.438 1.03.688.579.25 1.235.25.438 0 .86-.11.437-.125.797-.328.375-.219.656-.516.297-.312.453-.671l1.031.28q-.203.5-.594.907-.375.406-.89.719-.5.297-1.11.453-.593.172-1.25.172zm3.329-5.156q-.063-.735-.344-1.329-.281-.593-.735-1.03-.437-.438-1.015-.673-.578-.25-1.235-.25-.656 0-1.25.25-.593.235-1.03.672-.438.438-.72 1.047-.265.594-.312 1.313h6.64zm7.452-3q-1.203.03-2.093.656-.875.625-1.235 1.719v5.609h-1.187v-9.031h1.11v2.172q.5-1.047 1.343-1.625.86-.594 1.828-.594.14 0 .234.015v1.079z" fill="#fff"/><path d="M587.449 285.53a7.375 7.375 0 0 1 7.375-7.375h81.218a7.375 7.375 0 0 1 7.375 7.376v29.5a7.375 7.375 0 0 1-7.375 7.376h-81.218a7.375 7.375 0 0 1-7.375-7.375z" fill="#400d9a" fill-rule="evenodd"/><path d="M587.449 285.53a7.375 7.375 0 0 1 7.375-7.375h81.218a7.375 7.375 0 0 1 7.375 7.376v29.5a7.375 7.375 0 0 1-7.375 7.376h-81.218a7.375 7.375 0 0 1-7.375-7.375z" stroke="#595959" stroke-linecap="butt" stroke-linejoin="round"/><path d="M605.72 294.124h1.016l5.11 12.297h-1.282l-1.593-3.844h-5.532l-1.578 3.844h-1.297l5.157-12.297zm2.97 7.5l-2.47-6.078-2.515 6.078h4.984zm12.275 4.797h-1.171v-5.047q0-1.61-.485-2.328-.468-.734-1.468-.734-.516 0-1.047.187-.516.188-.953.547-.438.344-.782.828-.343.469-.5 1.016v5.531h-1.187v-9.031h1.078v2.047q.547-.985 1.578-1.594 1.031-.61 2.25-.61.75 0 1.266.282.515.281.828.781.312.5.453 1.234.14.72.14 1.61v5.281zm4.775.172q-.641 0-1.188-.219-.531-.219-.953-.594-.406-.375-.625-.89-.219-.516-.219-1.11 0-.578.266-1.078.281-.515.781-.875t1.188-.562q.703-.203 1.53-.203.704 0 1.407.125.719.125 1.266.343v-.812q0-1.188-.672-1.89-.672-.704-1.875-.704-.688 0-1.422.281-.719.266-1.469.797l-.422-.78q1.75-1.188 3.407-1.188 1.687 0 2.656.953.984.953.984 2.64v4.063q0 .484.422.484v1.047q-.297.047-.453.047-.438 0-.703-.219-.25-.234-.266-.625l-.031-.703q-.625.813-1.578 1.25-.938.422-2.031.422zm.28-.906q.923 0 1.688-.344.782-.344 1.172-.922.156-.156.235-.328.078-.188.078-.344v-1.469q-.594-.218-1.235-.343-.625-.125-1.28-.125-1.25 0-2.032.53-.766.517-.766 1.36 0 .422.156.782.172.359.454.625.28.265.671.421.407.157.86.157zm6.96-11.922h1.172v10.61q0 .5.266.796.281.281.797.281.187 0 .437-.047.266-.062.485-.14l.218.953q-.328.14-.812.219-.469.093-.813.093-.828 0-1.297-.453-.453-.469-.453-1.297v-11.015zm5.167 15.422q.14.03.265.03.14.016.266.016.312 0 .484-.093.188-.078.36-.375.171-.297.39-.86.219-.546.61-1.484l-3.922-9.031h1.203l3.344 7.937 3.109-7.937h1.125l-4.688 11.64q-.187.516-.625.875-.437.375-1.203.375-.172 0-.328-.015-.156 0-.39-.031v-1.047zm8.11-3.563l6.11-7.344h-5.97v-.89h7.25v.797l-6.077 7.343h6.062v.891h-7.375v-.797zm13.197.969q-1 0-1.828-.375-.812-.375-1.422-1.016-.593-.656-.937-1.5-.344-.843-.344-1.828 0-.953.344-1.781.344-.844.937-1.469.594-.64 1.422-1.015.828-.375 1.813-.375.984 0 1.797.375.828.375 1.422 1.015.593.64.921 1.469.329.828.329 1.766v.28q0 .141-.016.188h-7.734q.046.735.328 1.36.297.61.75 1.062.453.438 1.03.688.579.25 1.235.25.438 0 .86-.11.437-.125.797-.328.375-.219.656-.515.297-.313.453-.672l1.031.28q-.203.5-.594.907-.375.406-.89.719-.5.297-1.11.453-.593.172-1.25.172zm3.329-5.156q-.063-.735-.344-1.328-.281-.594-.735-1.032-.437-.437-1.015-.672-.578-.25-1.235-.25-.656 0-1.25.25-.593.235-1.03.672-.438.438-.72 1.047-.265.594-.312 1.313h6.64zm7.452-3q-1.203.03-2.093.656-.875.625-1.235 1.719v5.61h-1.187v-9.032h1.11v2.172q.5-1.047 1.343-1.625.86-.594 1.828-.594.14 0 .234.016v1.078z" fill="#fff"/><path d="M380.797 367.503a7.375 7.375 0 0 1 7.375-7.375h81.218a7.375 7.375 0 0 1 7.375 7.375v29.501a7.376 7.376 0 0 1-7.375 7.376h-81.218a7.375 7.375 0 0 1-7.375-7.376z" fill="#400d9a" fill-rule="evenodd"/><path d="M380.797 367.503a7.375 7.375 0 0 1 7.375-7.375h81.218a7.375 7.375 0 0 1 7.375 7.375v29.501a7.376 7.376 0 0 1-7.375 7.376h-81.218a7.375 7.375 0 0 1-7.375-7.376z" stroke="#595959" stroke-linecap="butt" stroke-linejoin="round"/><path d="M397.17 377.894v-12.297h1.204v11.219h7.109v1.078h-8.312zm13.697.172q-.985 0-1.797-.375-.813-.375-1.422-1.016-.594-.64-.922-1.484-.328-.844-.328-1.782 0-.953.344-1.797.343-.859.937-1.5.594-.64 1.406-1.015.813-.39 1.782-.39.968 0 1.796.39.829.375 1.422 1.015.594.641.938 1.5.344.844.344 1.797 0 .938-.344 1.782-.328.843-.922 1.484-.594.64-1.422 1.016-.812.375-1.812.375zm-3.266-4.641q0 .766.25 1.422.266.64.703 1.14.453.485 1.047.766.594.281 1.266.281.687 0 1.28-.28.595-.298 1.048-.782.453-.5.703-1.156.265-.672.265-1.422 0-.75-.265-1.407-.25-.671-.703-1.171-.453-.5-1.047-.782-.594-.28-1.281-.28-.672 0-1.266.28-.578.282-1.031.797-.453.5-.72 1.172-.25.656-.25 1.422zm13.576 4.64q-.985 0-1.797-.374-.813-.375-1.422-1.016-.594-.64-.922-1.484-.328-.844-.328-1.782 0-.953.344-1.797.343-.859.937-1.5.594-.64 1.406-1.015.813-.39 1.782-.39.968 0 1.797.39.828.375 1.421 1.015.594.641.938 1.5.344.844.344 1.797 0 .938-.344 1.782-.328.843-.922 1.484-.594.64-1.422 1.016-.812.375-1.812.375zm-3.266-4.64q0 .766.25 1.422.266.64.703 1.14.453.485 1.047.766.594.281 1.266.281.687 0 1.28-.28.595-.298 1.048-.782.453-.5.703-1.156.266-.672.266-1.422 0-.75-.266-1.407-.25-.671-.703-1.171-.453-.5-1.047-.782-.594-.28-1.281-.28-.672 0-1.266.28-.578.282-1.031.797-.453.5-.719 1.172-.25.656-.25 1.422zm16.185 4.469l-3.328-4.625-1.937 1.797v2.828h-1.188v-12.657h1.188v8.594l5.078-4.953h1.328l-3.688 3.703 3.829 5.313h-1.282zm6.575.172q-.985 0-1.797-.375-.813-.375-1.422-1.016-.594-.64-.922-1.484-.328-.844-.328-1.782 0-.953.344-1.797.343-.859.937-1.5.594-.64 1.406-1.015.813-.39 1.782-.39.968 0 1.797.39.828.375 1.421 1.015.594.641.938 1.5.344.844.344 1.797 0 .938-.344 1.782-.328.843-.922 1.484-.594.64-1.422 1.016-.812.375-1.812.375zm-3.266-4.641q0 .766.25 1.422.266.64.703 1.14.453.485 1.047.766.594.281 1.266.281.687 0 1.281-.28.594-.298 1.047-.782.453-.5.703-1.156.266-.672.266-1.422 0-.75-.266-1.407-.25-.671-.703-1.171-.453-.5-1.047-.782-.594-.28-1.281-.28-.672 0-1.266.28-.578.282-1.031.797-.453.5-.719 1.172-.25.656-.25 1.422zm12.56 4.64q-1.468 0-2.187-.968-.719-.985-.719-2.922v-5.313h1.172v5.094q0 3.078 2.094 3.078.515 0 1.015-.172.516-.187.938-.515.422-.328.75-.766.344-.453.562-1.031v-5.688h1.172v7.5q0 .485.422.485v1.047q-.219.03-.344.03h-.187q-.406-.015-.672-.28-.25-.282-.25-.75v-1.047q-.594 1.062-1.61 1.64-1.015.579-2.156.579zm11.793-.609q-.094.063-.297.156-.203.079-.468.172-.25.078-.579.14-.328.079-.687.079-.39 0-.734-.11-.344-.109-.61-.312-.25-.219-.406-.547-.156-.343-.156-.765v-6.47h-1.25v-.937h1.25v-3.046h1.172v3.046h2.078v.938h-2.078v6.14q.03.5.343.735.328.234.75.234.5 0 .875-.156.39-.172.485-.25l.312.953zM407.987 399.066q-1.063 0-2.063-.344-1-.344-1.734-1l.547-.797q.75.61 1.531.922.797.312 1.703.312 1.094 0 1.734-.437.657-.438.657-1.25 0-.39-.172-.64t-.516-.438q-.328-.188-.844-.328-.515-.157-1.187-.313-.781-.187-1.36-.375-.562-.203-.937-.437-.375-.25-.562-.594-.172-.36-.172-.906 0-.672.265-1.188.266-.516.72-.86.468-.343 1.077-.515.625-.172 1.313-.172 1.047 0 1.89.344.844.328 1.375.89l-.578.688q-.5-.516-1.219-.766-.718-.265-1.5-.265-.468 0-.875.093-.39.094-.703.313-.297.203-.468.531-.172.313-.172.735 0 .375.11.593.124.22.405.391.282.172.703.297.422.125 1.032.265.86.204 1.515.422.672.203 1.11.485.437.265.656.672.234.39.234.968 0 1.25-.953 1.985-.953.719-2.562.719zm9.345 0q-1 0-1.828-.375-.813-.375-1.422-1.016-.594-.656-.938-1.5t-.344-1.828q0-.953.344-1.781.344-.844.938-1.47.593-.64 1.422-1.015.828-.375 1.812-.375.984 0 1.797.375.828.375 1.422 1.016.594.64.922 1.469.328.828.328 1.765v.281q0 .141-.016.188h-7.734q.047.734.328 1.36.297.609.75 1.062.453.437 1.031.687.578.25 1.235.25.437 0 .859-.11.438-.124.797-.327.375-.219.656-.516.297-.312.453-.672l1.031.282q-.203.5-.593.906-.375.406-.89.719-.5.296-1.11.453-.594.172-1.25.172zm3.328-5.157q-.063-.734-.344-1.328-.281-.594-.734-1.031-.438-.438-1.016-.672-.578-.25-1.234-.25-.657 0-1.25.25-.594.234-1.032.672-.437.437-.718 1.047-.266.594-.313 1.312h6.64zm7.453-3q-1.203.031-2.094.657-.875.625-1.234 1.718v5.61h-1.188v-9.032h1.11v2.172q.5-1.047 1.343-1.625.86-.593 1.828-.593.14 0 .235.015v1.078zm4.27 7.985l-3.673-9.032h1.22l3.093 7.938 3.125-7.938h1.14l-3.671 9.032h-1.235zm10.438.172q-1 0-1.828-.375-.812-.375-1.422-1.016-.594-.656-.937-1.5-.344-.844-.344-1.828 0-.953.344-1.781.343-.844.937-1.47.594-.64 1.422-1.015.828-.375 1.813-.375.984 0 1.796.375.829.375 1.422 1.016.594.64.922 1.469.328.828.328 1.765v.281q0 .141-.015.188h-7.735q.047.734.329 1.36.296.609.75 1.062.453.437 1.03.687.579.25 1.235.25.438 0 .86-.11.437-.124.796-.327.375-.219.657-.516.297-.312.453-.672l1.031.282q-.203.5-.594.906-.375.406-.89.719-.5.296-1.11.453-.593.172-1.25.172zm3.328-5.157q-.062-.734-.343-1.328-.282-.594-.735-1.031-.437-.438-1.015-.672-.579-.25-1.235-.25-.656 0-1.25.25-.594.234-1.031.672-.438.437-.719 1.047-.265.594-.312 1.312h6.64zm7.453-3q-1.203.031-2.094.657-.875.625-1.234 1.718v5.61h-1.187v-9.032h1.109v2.172q.5-1.047 1.344-1.625.86-.593 1.828-.593.14 0 .234.015v1.078z" fill="#fff"/><path d="M169.551 367.489a7.375 7.375 0 0 1 7.376-7.376h81.217a7.375 7.375 0 0 1 7.376 7.376v29.5a7.375 7.375 0 0 1-7.376 7.376h-81.217a7.375 7.375 0 0 1-7.376-7.375z" fill="#400d9a" fill-rule="evenodd"/><path d="M169.551 367.489a7.375 7.375 0 0 1 7.376-7.376h81.217a7.375 7.375 0 0 1 7.376 7.376v29.5a7.375 7.375 0 0 1-7.376 7.376h-81.217a7.375 7.375 0 0 1-7.376-7.375z" stroke="#595959" stroke-linecap="butt" stroke-linejoin="round"/><path d="M200.092 386.582q-1.719 1.891-3.953 1.891-1.25 0-2.297-.531-1.047-.547-1.828-1.422-.766-.89-1.203-2-.422-1.125-.422-2.313 0-1.234.422-2.359t1.187-1.969q.766-.86 1.797-1.375 1.047-.515 2.266-.515.906 0 1.64.203.75.203 1.329.562.593.344 1.015.844.422.484.719 1.078l-.937.625q-.61-1.14-1.579-1.672-.968-.547-2.203-.547-1.015 0-1.843.438-.829.422-1.407 1.14-.578.72-.89 1.657-.313.922-.313 1.906 0 1.047.36 1.984.359.938.984 1.641.625.688 1.453 1.11.844.421 1.828.421 1.063 0 2.016-.5.969-.5 1.86-1.562v-2.047h-2.75v-.938h3.765v6.047h-1.016v-1.797zm3.266 1.797v-9.031h1.188v9.031h-1.188zm0-10.922v-1.734h1.188v1.734h-1.188zm8.106 10.485q-.094.062-.297.156-.203.078-.469.172-.25.078-.578.14-.328.079-.687.079-.39 0-.735-.11-.343-.11-.609-.312-.25-.219-.406-.547-.156-.344-.156-.766v-6.469h-1.25v-.937h1.25v-3.047h1.171v3.047h2.079v.937h-2.079v6.141q.032.5.344.734.328.235.75.235.5 0 .875-.156.39-.172.485-.25l.312.953zm11.43-11.86v12.297h-1.203v-5.75h-7.297v5.75h-1.203v-12.297h1.203v5.47h7.297v-5.47h1.203zm5.663 12.47q-1.469 0-2.188-.97-.718-.984-.718-2.921v-5.313h1.172v5.094q0 3.078 2.093 3.078.516 0 1.016-.172.516-.187.937-.516.422-.328.75-.765.344-.453.563-1.031v-5.688h1.172v7.5q0 .484.422.484v1.047q-.219.031-.344.031h-.188q-.406-.015-.671-.28-.25-.282-.25-.75v-1.048q-.594 1.063-1.61 1.641-1.015.578-2.156.578zm11.887 0q-1.079 0-1.97-.532-.89-.547-1.39-1.39v1.75h-1.062v-12.657h1.187v5.516q.594-.922 1.438-1.485.86-.562 1.984-.562.953 0 1.703.406.766.39 1.281 1.063.532.671.813 1.515.297.828.297 1.719 0 .953-.328 1.797t-.907 1.484q-.562.625-1.359 1-.781.375-1.687.375zm-.282-1.032q.75 0 1.36-.297.625-.312 1.062-.828.438-.516.688-1.156.25-.657.25-1.344 0-.719-.235-1.375-.234-.656-.656-1.156-.422-.516-1.016-.813-.593-.312-1.312-.312-.531 0-1 .187-.469.172-.875.485-.39.312-.703.718-.313.407-.516.86v2.812q.063.469.36.875.312.406.734.703.422.282.906.469.5.172.953.172z" fill="#fff"/><path d="M698.53 290.846h80.221v34.393h-80.22z" fill="none"/><path d="M708.718 315.206v-11.36h4.813q.781 0 1.437.328.672.329 1.157.875.484.532.75 1.22.265.671.265 1.358 0 .72-.25 1.407-.25.672-.718 1.203-.47.515-1.125.844-.657.312-1.438.312h-2.687v3.813h-2.204zm2.204-5.75h2.562q.61 0 1.016-.485.406-.5.406-1.344 0-.437-.125-.78-.125-.344-.344-.579-.203-.25-.484-.36-.281-.124-.563-.124h-2.468v3.672zm7.733 7.375q.266.093.516.125.265.047.437.047.203 0 .375-.094.188-.078.328-.281.141-.188.282-.547.156-.344.312-.875l-3.312-8.39h2.203l2.281 6.53 2.016-6.53h2.015l-3.515 10.046q-.313.89-1.047 1.437-.735.563-1.828.563-.25 0-.516-.047-.266-.031-.547-.125v-1.86zm13.644-2.063q-.437.203-1.062.39-.625.188-1.313.188-.437 0-.828-.11-.39-.109-.688-.359-.296-.25-.484-.64-.172-.39-.172-.953v-4.813h-1.094v-1.656h1.094v-2.719h2.14v2.719h1.766v1.656h-1.765v4.094q0 .453.234.64.235.173.578.173.328 0 .64-.11.329-.11.517-.187l.437 1.687zm8.91.438h-2.141v-4.704q0-1-.375-1.468-.36-.469-1.031-.469-.297 0-.625.125-.313.125-.594.36-.281.234-.531.562-.235.312-.344.703v4.89h-2.156v-11.687h2.156v4.86q.453-.813 1.25-1.25.797-.454 1.75-.454.812 0 1.328.282.516.28.797.75.297.453.406 1.046.11.594.11 1.22v5.234zm5.742.156q-1.016 0-1.844-.344-.813-.36-1.375-.953-.563-.61-.875-1.39-.297-.782-.297-1.641 0-.89.297-1.672.312-.781.875-1.375.562-.61 1.375-.953.828-.36 1.844-.36 1.031 0 1.828.36.812.344 1.375.953.578.594.875 1.375.312.781.312 1.672 0 .86-.312 1.64-.297.782-.86 1.391-.562.594-1.375.953-.812.344-1.843.344zm-2.188-4.328q0 .562.156 1.015.172.454.47.797.296.328.702.516.407.187.86.187.468 0 .86-.187.405-.188.702-.516.297-.344.469-.797.172-.468.172-1.03 0-.548-.172-1-.172-.47-.469-.813-.297-.344-.703-.516-.39-.188-.86-.188-.452 0-.859.204-.406.187-.703.53-.297.329-.469.798-.156.453-.156 1zm15.806 4.172h-2.141v-4.704q0-1.015-.36-1.468-.343-.469-.968-.469-.328 0-.672.125-.328.125-.625.36-.281.234-.531.562-.235.312-.344.703v4.89h-2.156v-8.39h1.937v1.563q.469-.797 1.344-1.25.89-.454 1.984-.454.797 0 1.282.297.5.281.765.75.282.453.375 1.047.11.594.11 1.203v5.235z" fill="#fff"/><path d="M698.53 365.593h80.221v34.393h-80.22z" fill="none"/><path d="M708.14 387.64q.22.156.75.344.532.187 1.22.187.67 0 1.062-.218.406-.235.609-.719.219-.484.281-1.188.063-.718.063-1.671v-5.782h2.203v5.782q0 1.296-.14 2.359-.126 1.062-.579 1.812-.437.75-1.266 1.172-.828.407-2.234.407-1.437 0-2.469-.704l.5-1.78zm10.513 2.469q-.61 0-1.141-.188-.531-.203-.922-.562-.375-.36-.594-.844-.203-.484-.203-1.062 0-.594.25-1.094.266-.5.735-.844.484-.36 1.14-.562.656-.203 1.438-.203.562 0 1.093.093.532.094.954.282v-.485q0-.828-.47-1.281-.468-.453-1.405-.453-.672 0-1.313.25-.64.234-1.312.703l-.657-1.36q1.625-1.078 3.5-1.078 1.797 0 2.797.891 1 .89 1 2.563v2.609q0 .344.125.484t.39.157v1.828q-.546.109-.937.109-.61 0-.937-.266-.328-.28-.406-.718l-.047-.47q-.563.735-1.375 1.126-.797.375-1.703.375zm.609-1.563q.547 0 1.031-.187.485-.203.75-.516.36-.28.36-.61v-.968q-.391-.14-.844-.219-.438-.093-.86-.093-.828 0-1.359.375-.516.375-.516.953 0 .547.407.906.422.36 1.03.36zm8.543 1.407l-3.093-8.39h2.218l2.125 6.64 2.141-6.64h2.016l-3.094 8.39h-2.313zm8.816.156q-.61 0-1.141-.188-.531-.203-.922-.562-.375-.36-.594-.844-.203-.484-.203-1.062 0-.594.25-1.094.266-.5.735-.844.484-.36 1.14-.562.656-.203 1.438-.203.562 0 1.093.093.532.094.954.282v-.485q0-.828-.47-1.281-.468-.453-1.405-.453-.672 0-1.313.25-.64.234-1.312.703l-.657-1.36q1.625-1.078 3.5-1.078 1.797 0 2.797.891 1 .89 1 2.563v2.609q0 .344.125.484t.39.157v1.828q-.546.109-.937.109-.609 0-.937-.266-.328-.28-.406-.718l-.047-.47q-.563.735-1.375 1.126-.797.375-1.703.375zm.609-1.563q.547 0 1.031-.187.485-.203.75-.516.36-.28.36-.61v-.968q-.391-.14-.844-.219-.438-.093-.86-.093-.828 0-1.359.375-.516.375-.516.953 0 .547.407.906.422.36 1.031.36z" fill="#fff"/><path d="M698.53 440.34h80.221v34.393h-80.22z" fill="none"/><path d="M716.61 463.419q-1.36 1.359-3.173 1.359-1.125 0-2.11-.438-.984-.453-1.718-1.234-.719-.797-1.14-1.86-.422-1.062-.422-2.296 0-1.156.421-2.188.422-1.031 1.157-1.812.75-.781 1.75-1.235 1.015-.453 2.203-.453 1.594 0 2.734.672 1.156.672 1.735 1.813l-1.657 1.203q-.422-.844-1.203-1.281-.781-.454-1.687-.454-.719 0-1.328.313-.594.297-1.016.828-.422.516-.656 1.203-.235.688-.235 1.453 0 .813.25 1.516.266.687.703 1.203.454.5 1.063.797.625.297 1.344.297 1.656 0 2.984-1.547v-.797h-2.297v-1.625h4.11v5.844h-1.813v-1.281zm7.365 1.437q-1.016 0-1.844-.344-.812-.36-1.375-.953-.562-.61-.875-1.39-.297-.782-.297-1.641 0-.89.297-1.672.313-.781.875-1.375.563-.61 1.375-.953.828-.36 1.844-.36 1.031 0 1.828.36.812.344 1.375.953.578.594.875 1.375.312.781.312 1.672 0 .86-.312 1.64-.297.782-.86 1.391-.562.594-1.374.953-.813.344-1.844.344zm-2.188-4.328q0 .562.157 1.016.171.453.468.796.297.329.703.516.407.188.86.188.469 0 .86-.188.405-.187.702-.516.297-.343.469-.796.172-.47.172-1.032 0-.547-.172-1-.172-.468-.469-.812-.297-.344-.703-.516-.39-.187-.86-.187-.452 0-.859.203-.406.187-.703.531-.297.328-.468.797-.157.453-.157 1z" fill="#fff"/><path d="M296.49 373.154h60.157" fill="none"/><path d="M296.49 373.154h54.157" stroke="#fff" stroke-linecap="butt" stroke-linejoin="round"/><path d="M350.647 374.806l4.539-1.652-4.539-1.652z" fill="#fff" fill-rule="evenodd" stroke="#fff" stroke-linecap="butt"/><path d="M356.64 391.84h-60.158" fill="none"/><path d="M356.64 391.84h-54.158" stroke="#fff" stroke-linecap="butt" stroke-linejoin="round"/><path d="M302.482 390.19l-4.538 1.65 4.538 1.653z" fill="#fff" fill-rule="evenodd" stroke="#fff" stroke-linecap="butt"/><path d="M502.285 348.612l59.937-28.252" fill="none"/><path d="M502.285 348.612l54.51-25.693" stroke="#fff" stroke-linecap="butt" stroke-linejoin="round"/><path d="M557.499 324.413l3.4-3.43-4.809.442z" fill="#fff" fill-rule="evenodd" stroke="#fff" stroke-linecap="butt"/><path d="M556.595 303.965l-62.393 28.252" fill="none"/><path d="M556.595 303.965l-56.928 25.777" stroke="#fff" stroke-linecap="butt" stroke-linejoin="round"/><path d="M498.986 328.237l-3.453 3.377 4.816-.368z" fill="#fff" fill-rule="evenodd" stroke="#fff" stroke-linecap="butt"/><path d="M284.833 405.958h95.969v34.394h-95.969z" fill="none"/><path d="M295.255 430.318v-11.36h4.703q.734 0 1.344.313.625.313 1.062.813.453.5.703 1.14.266.641.266 1.297 0 .703-.234 1.36-.235.64-.672 1.14-.438.5-1.047.813-.594.297-1.328.297h-3.672v4.187h-1.125zm1.125-5.187h3.625q.5 0 .906-.204.406-.218.688-.578.297-.375.453-.843.172-.47.172-.985t-.188-.984q-.187-.485-.5-.828-.312-.36-.734-.563-.422-.203-.89-.203h-3.532v5.188zm8.827 5.187v-11.36h4.797q.734 0 1.344.313.625.313 1.078.813.453.5.687 1.14.25.641.25 1.297 0 .625-.187 1.203-.172.563-.5 1.016-.328.453-.797.766-.469.312-1.031.421l2.78 4.391h-1.265l-2.672-4.187h-3.36v4.187h-1.124zm1.125-5.187h3.703q.5 0 .906-.204.407-.218.688-.593.297-.375.453-.828.172-.47.172-.985 0-.5-.188-.969-.187-.484-.5-.828-.312-.359-.734-.562-.422-.219-.89-.219h-3.61v5.188zm9.276 6.484l.266-1.344h-.36v-1.515h1.063v1.515l-.406 1.344h-.563zm11.758-1.14q-1.047 0-1.86-.532-.812-.531-1.312-1.36v5.141h-1.078v-11.75h.969v1.625q.516-.78 1.328-1.265.813-.5 1.781-.5.86 0 1.578.36.72.358 1.25.968.532.594.829 1.39.296.782.296 1.61 0 .875-.28 1.656-.266.781-.766 1.375t-1.204.938q-.703.343-1.53.343zm-.297-.954q.672 0 1.22-.281.546-.297.937-.766.406-.468.609-1.062.203-.61.203-1.25 0-.672-.25-1.281-.234-.61-.656-1.063-.406-.469-.969-.734-.562-.282-1.219-.282-.422 0-.875.172-.453.157-.859.438-.39.281-.672.656-.266.375-.344.797v2.562q.203.438.5.829.297.375.672.656.375.281.797.453.438.156.906.156zm8.529.953q-1.36 0-2.032-.89-.656-.907-.656-2.703v-4.907h1.078v4.72q0 2.827 1.938 2.827.484 0 .937-.156.469-.172.86-.469.406-.312.703-.719.312-.421.515-.953v-5.25h1.078v6.938q0 .453.391.453v.953q-.187.031-.312.031h-.172q-.375-.015-.625-.265-.235-.266-.235-.688v-.969q-.547.985-1.484 1.516-.938.531-1.984.531zm9.66 0q-.984 0-1.906-.312-.922-.328-1.594-.938l.484-.734q.703.578 1.438.875.734.281 1.562.281 1 0 1.594-.406.61-.406.61-1.156 0-.36-.157-.594-.156-.234-.469-.406-.312-.172-.796-.313-.47-.14-1.094-.281-.719-.172-1.25-.344-.516-.187-.86-.406-.343-.219-.515-.547-.172-.328-.172-.828 0-.625.25-1.094.25-.484.672-.797.422-.312.984-.468.578-.172 1.219-.172.953 0 1.734.312.797.313 1.266.828l-.516.641q-.468-.484-1.14-.719-.657-.234-1.375-.234-.438 0-.813.094-.36.078-.64.265-.282.188-.438.485-.156.296-.156.703 0 .328.11.547.109.203.359.359.265.14.656.266.39.125.953.25.797.187 1.406.39.61.188 1.016.453.406.25.61.625.218.36.218.875 0 1.157-.89 1.828-.876.672-2.36.672zm12.026-.156h-1.078v-4.656q0-1.422-.5-2.125-.484-.703-1.422-.703-.468 0-.922.187-.453.172-.859.5-.39.313-.687.75-.297.438-.454.938v5.11h-1.078V418.63h1.078v5.234q.5-.938 1.375-1.484.891-.547 1.907-.547.718 0 1.218.265.5.266.813.735.328.468.469 1.14.14.657.14 1.47v4.874z" fill="#fff"/><path d="M480.679 295.264l62.11-24.724 13.606 28-62.11 24.724z" fill="none"/><path d="M503.989 312.322q-.799.318-1.624.26-.825-.059-1.565-.404-.739-.344-1.35-.925-.597-.587-.953-1.32-.384-.788-.465-1.597-.088-.823.117-1.543.219-.726.721-1.296.51-.59 1.323-.914.988-.393 1.953-.189.973.185 1.852.71l-.767-1.579.9-.358 3.67 7.553q.377.775.36 1.488-.01.728-.335 1.344-.31.611-.91 1.086-.587.469-1.356.775-1.335.532-2.389.396-1.032-.127-1.917-.7l.392-.728q.813.534 1.733.572.919.037 1.804-.315.567-.225.985-.577.44-.343.673-.79.248-.451.24-1.003 0-.538-.296-1.143l-.719-1.48q-.086.892-.664 1.627-.571.715-1.413 1.05zm-.122-.927q.45-.18.796-.502.353-.342.572-.749.233-.412.307-.829.068-.43-.024-.797l-1.13-2.326q-.358-.345-.812-.567-.447-.243-.927-.338-.471-.115-.946-.094-.475.021-.896.189-.654.26-1.046.735-.378.47-.529 1.052-.143.561-.064 1.186.093.619.366 1.182.295.606.78 1.07.485.462 1.075.715.605.247 1.23.284.639.032 1.248-.211zm6.357-1.673l-4.978-10.245 4.457-1.774q.682-.271 1.385-.215.718.05 1.358.334.64.283 1.139.775.513.485.8 1.077.274.563.353 1.154.087.57-.02 1.101-.106.53-.404.985-.299.455-.773.762l4.508 2.931-1.176.468-4.318-2.788-3.12 1.242 1.834 3.777-1.045.416zm-1.228-5.095l3.44-1.37q.465-.184.754-.518.281-.347.378-.79.112-.447.058-.914-.046-.486-.272-.951-.219-.451-.598-.804-.387-.368-.828-.562-.448-.209-.929-.236-.487-.041-.923.132l-3.353 1.335 2.273 4.678zm10.935 1.23l-4.978-10.244 4.37-1.74q.682-.27 1.385-.214.718.05 1.343.34.64.283 1.154.768.527.48.815 1.071.308.635.378 1.313.063.664-.125 1.277-.187.613-.616 1.12-.422.487-1.104.76l-3.412 1.357 1.836 3.777-1.046.416zm-1.228-5.094l3.368-1.34q.465-.185.753-.519.282-.347.386-.775.111-.448.05-.929-.045-.486-.27-.951-.227-.465-.607-.819-.386-.367-.827-.562-.448-.208-.929-.235-.48-.028-.916.146l-3.281 1.306 2.273 4.678zm7.251-3.508q-.445-.916-.556-1.965-.111-1.05.178-2.022.283-.987.993-1.808.724-.826 1.915-1.3 1.408-.56 2.71-.34 1.318.216 2.27 1.032l-.581.802q-.487-.395-1.035-.597-.534-.208-1.058-.251-.51-.05-1.007.03-.484.075-.92.249-.957.381-1.498 1.05-.541.67-.74 1.472-.2.803-.09 1.668.115.845.492 1.62.418.86 1.099 1.513.681.654 1.499 1.052.81.384 1.714.461.897.063 1.739-.272.45-.179.86-.477.41-.297.728-.71.334-.419.526-.916.206-.502.206-1.108l1.084.09q.019.682-.226 1.318-.238.616-.654 1.151-.422.522-.986.93-.548.404-1.158.647-1.089.434-2.223.347-1.126-.107-2.142-.594t-1.838-1.286q-.821-.8-1.3-1.786z" fill="#fff"/><path d="M551.325 467.691l-59.937-28.252" fill="none"/><path d="M551.325 467.691l-54.51-25.694" stroke="#fff" stroke-linecap="butt" stroke-linejoin="round"/><path d="M497.52 440.503l-4.81-.44 3.401 3.428z" fill="#fff" fill-rule="evenodd" stroke="#fff" stroke-linecap="butt"/><path d="M497.014 423.043l62.394 28.252" fill="none"/><path d="M497.014 423.043l56.928 25.777" stroke="#fff" stroke-linecap="butt" stroke-linejoin="round"/><path d="M553.261 450.325l4.815.367-3.452-3.376z" fill="#fff" fill-rule="evenodd" stroke="#fff" stroke-linecap="butt"/><path d="M502.033 372.008h60.158" fill="none"/><path d="M502.033 372.008h54.158" stroke="#fff" stroke-linecap="butt" stroke-linejoin="round"/><path d="M556.19 373.66l4.539-1.652-4.538-1.651z" fill="#fff" fill-rule="evenodd" stroke="#fff" stroke-linecap="butt"/><path d="M562.183 390.695h-60.158" fill="none"/><path d="M562.183 390.695h-54.158" stroke="#fff" stroke-linecap="butt" stroke-linejoin="round"/><path d="M508.025 389.043l-4.538 1.652 4.538 1.652z" fill="#fff" fill-rule="evenodd" stroke="#fff" stroke-linecap="butt"/></g></svg>