<svg xmlns="http://www.w3.org/2000/svg" viewBox="0 0 514.86615 213.78592" stroke-miterlimit="10" width="514.866" height="213.786" fill="none" stroke-linecap="square"><clipPath id="a"><path d="M0 0h960v540H0V0z"/></clipPath><g clip-path="url(#a)" transform="translate(-169.051 -277.655)"><path d="M587.449 449.608a7.375 7.375 0 0 1 7.375-7.375h81.218a7.375 7.375 0 0 1 7.375 7.375v29.501a7.375 7.375 0 0 1-7.375 7.376h-81.218a7.375 7.375 0 0 1-7.375-7.376z" fill="#400d9a" fill-rule="evenodd"/><path d="M587.449 449.608a7.375 7.375 0 0 1 7.375-7.375h81.218a7.375 7.375 0 0 1 7.375 7.375v29.501a7.375 7.375 0 0 1-7.375 7.376h-81.218a7.375 7.375 0 0 1-7.375-7.376z" stroke="#595959" stroke-linecap="butt" stroke-linejoin="round"/><path d="M605.72 458.202h1.016l5.11 12.297h-1.282l-1.593-3.844h-5.532l-1.578 3.844h-1.297l5.157-12.297zm2.97 7.5l-2.47-6.078-2.515 6.078h4.984zm12.275 4.797h-1.171v-5.047q0-1.61-.485-2.328-.468-.734-1.468-.734-.516 0-1.047.187-.516.188-.953.547-.438.344-.782.828-.343.469-.5 1.016v5.53h-1.187v-9.03h1.078v2.047q.547-.985 1.578-1.594 1.031-.61 2.25-.61.75 0 1.266.282.515.28.828.78.312.5.453 1.235.14.72.14 1.61v5.28zm4.775.172q-.641 0-1.188-.219-.531-.219-.953-.594-.406-.375-.625-.89-.219-.516-.219-1.11 0-.578.266-1.078.281-.515.781-.875t1.188-.562q.703-.203 1.53-.203.704 0 1.407.125.719.125 1.266.343v-.812q0-1.188-.672-1.89-.672-.704-1.875-.704-.688 0-1.422.281-.719.266-1.469.797l-.422-.781q1.75-1.188 3.407-1.188 1.687 0 2.656.954.984.953.984 2.64v4.063q0 .484.422.484v1.047q-.297.047-.453.047-.438 0-.703-.219-.25-.234-.266-.625l-.031-.703q-.625.812-1.578 1.25-.938.422-2.031.422zm.28-.906q.923 0 1.688-.344.782-.344 1.172-.922.156-.156.235-.328.078-.188.078-.344v-1.469q-.594-.218-1.235-.343-.625-.125-1.28-.125-1.25 0-2.032.53-.766.516-.766 1.36 0 .422.156.781.172.36.454.625.28.266.671.422.407.157.86.157zm6.96-11.922h1.172v10.61q0 .5.266.796.281.281.797.281.187 0 .437-.047.266-.062.485-.14l.218.953q-.328.14-.812.219-.469.093-.813.093-.828 0-1.297-.453-.453-.469-.453-1.297v-11.015zm5.167 15.422q.14.03.265.03.14.016.266.016.312 0 .484-.093.188-.078.36-.375.171-.297.39-.86.219-.547.61-1.484l-3.922-9.031h1.203l3.344 7.937 3.109-7.937h1.125l-4.688 11.64q-.187.516-.625.875-.437.375-1.203.375-.172 0-.328-.015-.156 0-.39-.032v-1.046zm8.11-3.563l6.11-7.344h-5.97v-.89h7.25v.797l-6.077 7.343h6.062v.89h-7.375v-.796zm13.197.969q-1 0-1.828-.375-.812-.375-1.422-1.016-.593-.656-.937-1.5-.344-.844-.344-1.828 0-.953.344-1.781.344-.844.937-1.469.594-.64 1.422-1.016.828-.375 1.813-.375.984 0 1.797.375.828.375 1.422 1.016.593.64.921 1.469.329.828.329 1.765v.282q0 .14-.016.187h-7.734q.046.735.328 1.36.297.609.75 1.062.453.438 1.03.688.579.25 1.235.25.438 0 .86-.11.437-.125.797-.328.375-.219.656-.516.297-.312.453-.671l1.031.28q-.203.5-.594.907-.375.406-.89.719-.5.297-1.11.453-.593.172-1.25.172zm3.329-5.156q-.063-.735-.344-1.329-.281-.593-.735-1.03-.437-.438-1.015-.673-.578-.25-1.235-.25-.656 0-1.25.25-.593.235-1.03.672-.438.438-.72 1.047-.265.594-.312 1.313h6.64zm7.452-3q-1.203.03-2.093.656-.875.625-1.235 1.719v5.609h-1.187v-9.031h1.11v2.172q.5-1.047 1.343-1.625.86-.594 1.828-.594.14 0 .234.015v1.079z" fill="#fff"/><path d="M587.449 367.57a7.375 7.375 0 0 1 7.375-7.376h81.218a7.375 7.375 0 0 1 7.375 7.375v29.502a7.375 7.375 0 0 1-7.375 7.375h-81.218a7.375 7.375 0 0 1-7.375-7.375z" fill="#400d9a" fill-rule="evenodd"/><path d="M587.449 367.57a7.375 7.375 0 0 1 7.375-7.376h81.218a7.375 7.375 0 0 1 7.375 7.375v29.502a7.375 7.375 0 0 1-7.375 7.375h-81.218a7.375 7.375 0 0 1-7.375-7.375z" stroke="#595959" stroke-linecap="butt" stroke-linejoin="round"/><path d="M605.72 376.163h1.016l5.11 12.297h-1.282l-1.593-3.844h-5.532l-1.578 3.844h-1.297l5.157-12.297zm2.97 7.5l-2.47-6.078-2.515 6.078h4.984zm12.275 4.797h-1.171v-5.047q0-1.61-.485-2.328-.468-.734-1.468-.734-.516 0-1.047.187-.516.188-.953.547-.438.344-.782.828-.343.469-.5 1.016v5.531h-1.187v-9.031h1.078v2.047q.547-.985 1.578-1.594 1.031-.61 2.25-.61.75 0 1.266.282.515.281.828.781.312.5.453 1.234.14.72.14 1.61v5.281zm4.775.172q-.641 0-1.188-.219-.531-.219-.953-.594-.406-.375-.625-.89-.219-.516-.219-1.11 0-.578.266-1.078.281-.515.781-.875t1.188-.562q.703-.203 1.53-.203.704 0 1.407.125.719.125 1.266.343v-.812q0-1.188-.672-1.89-.672-.704-1.875-.704-.688 0-1.422.281-.719.266-1.469.797l-.422-.781q1.75-1.188 3.407-1.188 1.687 0 2.656.954.984.953.984 2.64v4.063q0 .484.422.484v1.047q-.297.047-.453.047-.438 0-.703-.219-.25-.234-.266-.625l-.031-.703q-.625.813-1.578 1.25-.938.422-2.031.422zm.28-.906q.923 0 1.688-.344.782-.344 1.172-.922.156-.156.235-.328.078-.188.078-.344v-1.469q-.594-.218-1.235-.343-.625-.125-1.28-.125-1.25 0-2.032.53-.766.516-.766 1.36 0 .422.156.781.172.36.454.625.28.266.671.422.407.157.86.157zm6.96-11.922h1.172v10.61q0 .5.266.796.281.281.797.281.187 0 .437-.047.266-.062.485-.14l.218.953q-.328.14-.812.219-.469.093-.813.093-.828 0-1.297-.453-.453-.469-.453-1.297v-11.015zm5.167 15.422q.14.03.265.03.14.016.266.016.312 0 .484-.093.188-.078.36-.375.171-.297.39-.86.219-.547.61-1.484l-3.922-9.031h1.203l3.344 7.937 3.109-7.937h1.125l-4.688 11.64q-.187.516-.625.875-.437.375-1.203.375-.172 0-.328-.015-.156 0-.39-.031v-1.047zm8.11-3.563l6.11-7.344h-5.97v-.89h7.25v.797l-6.077 7.343h6.062v.891h-7.375v-.797zm13.197.969q-1 0-1.828-.375-.812-.375-1.422-1.016-.593-.656-.937-1.5-.344-.844-.344-1.828 0-.953.344-1.781.344-.844.937-1.469.594-.64 1.422-1.016.828-.375 1.813-.375.984 0 1.797.375.828.375 1.422 1.016.593.64.921 1.469.329.828.329 1.765v.282q0 .14-.016.187h-7.734q.046.735.328 1.36.297.609.75 1.062.453.438 1.03.688.579.25 1.235.25.438 0 .86-.11.437-.125.797-.328.375-.219.656-.516.297-.312.453-.671l1.031.28q-.203.5-.594.907-.375.406-.89.719-.5.297-1.11.453-.593.172-1.25.172zm3.329-5.156q-.063-.735-.344-1.329-.281-.593-.735-1.03-.437-.438-1.015-.673-.578-.25-1.235-.25-.656 0-1.25.25-.593.235-1.03.672-.438.438-.72 1.047-.265.594-.312 1.313h6.64zm7.452-3q-1.203.03-2.093.656-.875.625-1.235 1.719v5.609h-1.187v-9.031h1.11v2.172q.5-1.047 1.343-1.625.86-.594 1.828-.594.14 0 .234.015v1.079z" fill="#fff"/><path d="M587.449 285.53a7.375 7.375 0 0 1 7.375-7.375h81.218a7.375 7.375 0 0 1 7.375 7.376v29.5a7.375 7.375 0 0 1-7.375 7.376h-81.218a7.375 7.375 0 0 1-7.375-7.375z" fill="#400d9a" fill-rule="evenodd"/><path d="M587.449 285.53a7.375 7.375 0 0 1 7.375-7.375h81.218a7.375 7.375 0 0 1 7.375 7.376v29.5a7.375 7.375 0 0 1-7.375 7.376h-81.218a7.375 7.375 0 0 1-7.375-7.375z" stroke="#595959" stroke-linecap="butt" stroke-linejoin="round"/><path d="M605.72 294.124h1.016l5.11 12.297h-1.282l-1.593-3.844h-5.532l-1.578 3.844h-1.297l5.157-12.297zm2.97 7.5l-2.47-6.078-2.515 6.078h4.984zm12.275 4.797h-1.171v-5.047q0-1.61-.485-2.328-.468-.734-1.468-.734-.516 0-1.047.187-.516.188-.953.547-.438.344-.782.828-.343.469-.5 1.016v5.531h-1.187v-9.031h1.078v2.047q.547-.985 1.578-1.594 1.031-.61 2.25-.61.75 0 1.266.282.515.281.828.781.312.5.453 1.234.14.72.14 1.61v5.281zm4.775.172q-.641 0-1.188-.219-.531-.219-.953-.594-.406-.375-.625-.89-.219-.516-.219-1.11 0-.578.266-1.078.281-.515.781-.875t1.188-.562q.703-.203 1.53-.203.704 0 1.407.125.719.125 1.266.343v-.812q0-1.188-.672-1.89-.672-.704-1.875-.704-.688 0-1.422.281-.719.266-1.469.797l-.422-.78q1.75-1.188 3.407-1.188 1.687 0 2.656.953.984.953.984 2.64v4.063q0 .484.422.484v1.047q-.297.047-.453.047-.438 0-.703-.219-.25-.234-.266-.625l-.031-.703q-.625.813-1.578 1.25-.938.422-2.031.422zm.28-.906q.923 0 1.688-.344.782-.344 1.172-.922.156-.156.235-.328.078-.188.078-.344v-1.469q-.594-.218-1.235-.343-.625-.125-1.28-.125-1.25 0-2.032.53-.766.517-.766 1.36 0 .422.156.782.172.359.454.625.28.265.671.421.407.157.86.157zm6.96-11.922h1.172v10.61q0 .5.266.796.281.281.797.281.187 0 .437-.047.266-.062.485-.14l.218.953q-.328.14-.812.219-.469.093-.813.093-.828 0-1.297-.453-.453-.469-.453-1.297v-11.015zm5.167 15.422q.14.03.265.03.14.016.266.016.312 0 .484-.093.188-.078.36-.375.171-.297.39-.86.219-.546.61-1.484l-3.922-9.031h1.203l3.344 7.937 3.109-7.937h1.125l-4.688 11.64q-.187.516-.625.875-.437.375-1.203.375-.172 0-.328-.015-.156 0-.39-.031v-1.047zm8.11-3.563l6.11-7.344h-5.97v-.89h7.25v.797l-6.077 7.343h6.062v.891h-7.375v-.797zm13.197.969q-1 0-1.828-.375-.812-.375-1.422-1.016-.593-.656-.937-1.5-.344-.843-.344-1.828 0-.953.344-1.781.344-.844.937-1.469.594-.64 1.422-1.015.828-.375 1.813-.375.984 0 1.797.375.828.375 1.422 1.015.593.64.921 1.469.329.828.329 1.766v.28q0 .141-.016.188h-7.734q.046.735.328 1.36.297.61.75 1.062.453.438 1.03.688.579.25 1.235.25.438 0 .86-.11.437-.125.797-.328.375-.219.656-.515.297-.313.453-.672l1.031.28q-.203.5-.594.907-.375.406-.89.719-.5.297-1.11.453-.593.172-1.25.172zm3.329-5.156q-.063-.735-.344-1.328-.281-.594-.735-1.032-.437-.437-1.015-.672-.578-.25-1.235-.25-.656 0-1.25.25-.593.235-1.03.672-.438.438-.72 1.047-.265.594-.312 1.313h6.64zm7.452-3q-1.203.03-2.093.656-.875.625-1.235 1.719v5.61h-1.187v-9.032h1.11v2.172q.5-1.047 1.343-1.625.86-.594 1.828-.594.14 0 .234.016v1.078z" fill="#fff"/><path d="M380.797 367.503a7.375 7.375 0 0 1 7.375-7.375h81.218a7.375 7.375 0 0 1 7.375 7.375v29.501a7.376 7.376 0 0 1-7.375 7.376h-81.218a7.375 7.375 0 0 1-7.375-7.376z" fill="#400d9a" fill-rule="evenodd"/><path d="M380.797 367.503a7.375 7.375 0 0 1 7.375-7.375h81.218a7.375 7.375 0 0 1 7.375 7.375v29.501a7.376 7.376 0 0 1-7.375 7.376h-81.218a7.375 7.375 0 0 1-7.375-7.376z" stroke="#595959" stroke-linecap="butt" stroke-linejoin="round"/><path d="M397.17 377.894v-12.297h1.204v11.219h7.109v1.078h-8.312zm13.697.172q-.985 0-1.797-.375-.813-.375-1.422-1.016-.594-.64-.922-1.484-.328-.844-.328-1.782 0-.953.344-1.797.343-.859.937-1.5.594-.64 1.406-1.015.813-.39 1.782-.39.968 0 1.796.39.829.375 1.422 1.015.594.641.938 1.5.344.844.344 1.797 0 .938-.344 1.782-.328.843-.922 1.484-.594.64-1.422 1.016-.812.375-1.812.375zm-3.266-4.641q0 .766.25 1.422.266.64.703 1.14.453.485 1.047.766.594.281 1.266.281.687 0 1.28-.28.595-.298 1.048-.782.453-.5.703-1.156.265-.672.265-1.422 0-.75-.265-1.407-.25-.671-.703-1.171-.453-.5-1.047-.782-.594-.28-1.281-.28-.672 0-1.266.28-.578.282-1.031.797-.453.5-.72 1.172-.25.656-.25 1.422zm13.576 4.64q-.985 0-1.797-.374-.813-.375-1.422-1.016-.594-.64-.922-1.484-.328-.844-.328-1.782 0-.953.344-1.797.343-.859.937-1.5.594-.64 1.406-1.015.813-.39 1.782-.39.968 0 1.797.39.828.375 1.421 1.015.594.641.938 1.5.344.844.344 1.797 0 .938-.344 1.782-.328.843-.922 1.484-.594.64-1.422 1.016-.812.375-1.812.375zm-3.266-4.64q0 .766.25 1.422.266.64.703 1.14.453.485 1.047.766.594.281 1.266.281.687 0 1.28-.28.595-.298 1.048-.782.453-.5.703-1.156.266-.672.266-1.422 0-.75-.266-1.407-.25-.671-.703-1.171-.453-.5-1.047-.782-.594-.28-1.281-.28-.672 0-1.266.28-.578.282-1.031.797-.453.5-.719 1.172-.25.656-.25 1.422zm16.185 4.469l-3.328-4.625-1.937 1.797v2.828h-1.188v-12.657h1.188v8.594l5.078-4.953h1.328l-3.688 3.703 3.829 5.313h-1.282zm6.575.172q-.985 0-1.797-.375-.813-.375-1.422-1.016-.594-.64-.922-1.484-.328-.844-.328-1.782 0-.953.344-1.797.343-.859.937-1.5.594-.64 1.406-1.015.813-.39 1.782-.39.968 0 1.797.39.828.375 1.421 1.015.594.641.938 1.5.344.844.344 1.797 0 .938-.344 1.782-.328.843-.922 1.484-.594.64-1.422 1.016-.812.375-1.812.375zm-3.266-4.641q0 .766.25 1.422.266.64.703 1.14.453.485 1.047.766.594.281 1.266.281.687 0 1.281-.28.594-.298 1.047-.782.453-.5.703-1.156.266-.672.266-1.422 0-.75-.266-1.407-.25-.671-.703-1.171-.453-.5-1.047-.782-.594-.28-1.281-.28-.672 0-1.266.28-.578.282-1.031.797-.453.5-.719 1.172-.25.656-.25 1.422zm12.56 4.64q-1.468 0-2.187-.968-.719-.985-.719-2.922v-5.313h1.172v5.094q0 3.078 2.094 3.078.515 0 1.015-.172.516-.187.938-.515.422-.328.75-.766.344-.453.562-1.031v-5.688h1.172v7.5q0 .485.422.485v1.047q-.219.03-.344.03h-.187q-.406-.015-.672-.28-.25-.282-.25-.75v-1.047q-.594 1.062-1.61 1.64-1.015.579-2.156.579zm11.793-.609q-.094.063-.297.156-.203.079-.468.172-.25.078-.579.14-.328.079-.687.079-.39 0-.734-.11-.344-.109-.61-.312-.25-.219-.406-.547-.156-.343-.156-.765v-6.47h-1.25v-.937h1.25v-3.046h1.172v3.046h2.078v.938h-2.078v6.14q.03.5.343.735.328.234.75.234.5 0 .875-.156.39-.172.485-.25l.312.953zM407.987 399.066q-1.063 0-2.063-.344-1-.344-1.734-1l.547-.797q.75.61 1.531.922.797.312 1.703.312 1.094 0 1.734-.437.657-.438.657-1.25 0-.39-.172-.64t-.516-.438q-.328-.188-.844-.328-.515-.157-1.187-.313-.781-.187-1.36-.375-.562-.203-.937-.437-.375-.25-.562-.594-.172-.36-.172-.906 0-.672.265-1.188.266-.516.72-.86.468-.343 1.077-.515.625-.172 1.313-.172 1.047 0 1.89.344.844.328 1.375.89l-.578.688q-.5-.516-1.219-.766-.718-.265-1.5-.265-.468 0-.875.093-.39.094-.703.313-.297.203-.468.531-.172.313-.172.735 0 .375.11.593.124.22.405.391.282.172.703.297.422.125 1.032.265.86.204 1.515.422.672.203 1.11.485.437.265.656.672.234.39.234.968 0 1.25-.953 1.985-.953.719-2.562.719zm9.345 0q-1 0-1.828-.375-.813-.375-1.422-1.016-.594-.656-.938-1.5t-.344-1.828q0-.953.344-1.781.344-.844.938-1.47.593-.64 1.422-1.015.828-.375 1.812-.375.984 0 1.797.375.828.375 1.422 1.016.594.64.922 1.469.328.828.328 1.765v.281q0 .141-.016.188h-7.734q.047.734.328 1.36.297.609.75 1.062.453.437 1.031.687.578.25 1.235.25.437 0 .859-.11.438-.124.797-.327.375-.219.656-.516.297-.312.453-.672l1.031.282q-.203.5-.593.906-.375.406-.89.719-.5.296-1.11.453-.594.172-1.25.172zm3.328-5.157q-.063-.734-.344-1.328-.281-.594-.734-1.031-.438-.438-1.016-.672-.578-.25-1.234-.25-.657 0-1.25.25-.594.234-1.032.672-.437.437-.718 1.047-.266.594-.313 1.312h6.64zm7.453-3q-1.203.031-2.094.657-.875.625-1.234 1.718v5.61h-1.188v-9.032h1.11v2.172q.5-1.047 1.343-1.625.86-.593 1.828-.593.14 0 .235.015v1.078zm4.27 7.985l-3.673-9.032h1.22l3.093 7.938 3.125-7.938h1.14l-3.671 9.032h-1.235zm10.438.172q-1 0-1.828-.375-.812-.375-1.422-1.016-.594-.656-.937-1.5-.344-.844-.344-1.828 0-.953.344-1.781.343-.844.937-1.47.594-.64 1.422-1.015.828-.375 1.813-.375.984 0 1.796.375.829.375 1.422 1.016.594.64.922 1.469.328.828.328 1.765v.281q0 .141-.015.188h-7.735q.047.734.329 1.36.296.609.75 1.062.453.437 1.03.687.579.25 1.235.25.438 0 .86-.11.437-.124.796-.327.375-.219.657-.516.297-.312.453-.672l1.031.282q-.203.5-.594.906-.375.406-.89.719-.5.296-1.11.453-.593.172-1.25.172zm3.328-5.157q-.062-.734-.343-1.328-.282-.594-.735-1.031-.437-.438-1.015-.672-.579-.25-1.235-.25-.656 0-1.25.25-.594.234-1.031.672-.438.437-.719 1.047-.265.594-.312 1.312h6.64zm7.453-3q-1.203.031-2.094.657-.875.625-1.234 1.718v5.61h-1.187v-9.032h1.109v2.172q.5-1.047 1.344-1.625.86-.593 1.828-.593.14 0 .234.015v1.078z" fill="#fff"/><path d="M169.551 367.489a7.375 7.375 0 0 1 7.376-7.376h81.217a7.375 7.375 0 0 1 7.376 7.376v29.5a7.375 7.375 0 0 1-7.376 7.376h-81.217a7.375 7.375 0 0 1-7.376-7.375z" fill="#400d9a" fill-rule="evenodd"/><path d="M169.551 367.489a7.375 7.375 0 0 1 7.376-7.376h81.217a7.375 7.375 0 0 1 7.376 7.376v29.5a7.375 7.375 0 0 1-7.376 7.376h-81.217a7.375 7.375 0 0 1-7.376-7.375z" stroke="#595959" stroke-linecap="butt" stroke-linejoin="round"/><path d="M200.092 386.582q-1.719 1.891-3.953 1.891-1.25 0-2.297-.531-1.047-.547-1.828-1.422-.766-.89-1.203-2-.422-1.125-.422-2.313 0-1.234.422-2.359t1.187-1.969q.766-.86 1.797-1.375 1.047-.515 2.266-.515.906 0 1.64.203.75.203 1.329.562.593.344 1.015.844.422.484.719 1.078l-.937.625q-.61-1.14-1.579-1.672-.968-.547-2.203-.547-1.015 0-1.843.438-.829.422-1.407 1.14-.578.72-.89 1.657-.313.922-.313 1.906 0 1.047.36 1.984.359.938.984 1.641.625.688 1.453 1.11.844.421 1.828.421 1.063 0 2.016-.5.969-.5 1.86-1.562v-2.047h-2.75v-.938h3.765v6.047h-1.016v-1.797zm3.266 1.797v-9.031h1.188v9.031h-1.188zm0-10.922v-1.734h1.188v1.734h-1.188zm8.106 10.485q-.094.062-.297.156-.203.078-.469.172-.25.078-.578.14-.328.079-.687.079-.39 0-.735-.11-.343-.11-.609-.312-.25-.219-.406-.547-.156-.344-.156-.766v-6.469h-1.25v-.937h1.25v-3.047h1.171v3.047h2.079v.937h-2.079v6.141q.032.5.344.734.328.235.75.235.5 0 .875-.156.39-.172.485-.25l.312.953zm11.43-11.86v12.297h-1.203v-5.75h-7.297v5.75h-1.203v-12.297h1.203v5.47h7.297v-5.47h1.203zm5.663 12.47q-1.469 0-2.188-.97-.718-.984-.718-2.921v-5.313h1.172v5.094q0 3.078 2.093 3.078.516 0 1.016-.172.516-.187.937-.516.422-.328.75-.765.344-.453.563-1.031v-5.688h1.172v7.5q0 .484.422.484v1.047q-.219.031-.344.031h-.188q-.406-.015-.671-.28-.25-.282-.25-.75v-1.048q-.594 1.063-1.61 1.641-1.015.578-2.156.578zm11.887 0q-1.079 0-1.97-.532-.89-.547-1.39-1.39v1.75h-1.062v-12.657h1.187v5.516q.594-.922 1.438-1.485.86-.562 1.984-.562.953 0 1.703.406.766.39 1.281 1.063.532.671.813 1.515.297.828.297 1.719 0 .953-.328 1.797t-.907 1.484q-.562.625-1.359 1-.781.375-1.687.375zm-.282-1.032q.75 0 1.36-.297.625-.312 1.062-.828.438-.516.688-1.156.25-.657.25-1.344 0-.719-.235-1.375-.234-.656-.656-1.156-.422-.516-1.016-.813-.593-.312-1.312-.312-.531 0-1 .187-.469.172-.875.485-.39.312-.703.718-.313.407-.516.86v2.812q.063.469.36.875.312.406.734.703.422.282.906.469.5.172.953.172z" fill="#fff"/><path d="M475.465 409.425l109.89 49.008-14.71 33.008-109.889-49.008z" fill="none"/><path d="M488.213 441.783l4.624-10.375 4.38 1.953q.671.3 1.1.833.444.54.654 1.181.21.642.164 1.322-.032.687-.3 1.287-.254.57-.66 1.022-.386.444-.87.724-.485.28-1.04.375-.555.095-1.113-.035l.753 5.144-1.156-.516-.736-4.913-3.068-1.368-1.705 3.825-1.027-.459zm3.139-4.28l3.382 1.509q.457.203.91.183.46-.034.87-.262.424-.222.75-.572.349-.358.558-.83.204-.456.223-.96.026-.52-.12-.96-.138-.456-.44-.813-.297-.372-.725-.563l-3.297-1.47-2.111 4.738zm9.422 10.053q-.828-.369-1.387-.995-.545-.62-.817-1.39-.266-.786-.233-1.627.032-.841.395-1.655.362-.813.96-1.385.603-.587 1.337-.892.756-.313 1.595-.315.84-.002 1.653.36.841.376 1.387.995.559.626.802 1.385.258.765.218 1.585-.027.827-.383 1.626l-.101.228q-.051.115-.085.151l-6.507-2.902q-.23.633-.223 1.27.013.621.213 1.172.22.543.61.973.39.43.946.679.37.165.772.225.416.065.792.027.396-.045.753-.194.372-.142.634-.385l.768.617q-.376.345-.857.542-.466.202-1.009.268-.528.072-1.1-.028-.577-.087-1.133-.335zm4.75-3.099q.231-.633.212-1.24-.014-.623-.226-1.145-.206-.536-.616-.959-.396-.416-.953-.664-.556-.248-1.145-.271-.574-.017-1.125.182-.53.192-.987.604-.443.418-.753.998l5.594 2.495zm3.071 6.587q-.899-.4-1.614-1.062-.708-.675-1.074-1.505l.742-.473q.407.814.956 1.384.557.556 1.313.894.913.407 1.62.278.723-.123 1.028-.808.146-.329.1-.606-.048-.278-.264-.562-.215-.285-.6-.61-.371-.32-.885-.703-.586-.45-1.001-.823-.395-.381-.62-.72-.225-.34-.248-.71-.024-.37.18-.827.254-.57.673-.897.426-.34.938-.454.513-.114 1.09-.028.598.079 1.183.34.87.388 1.457.992.6.61.819 1.272l-.732.375q-.23-.634-.75-1.121-.503-.482-1.16-.774-.399-.179-.78-.246-.36-.075-.693-.018-.333.057-.597.264-.263.208-.428.579-.134.3-.123.544.017.23.182.475.185.236.491.51.306.273.769.616.651.496 1.125.93.48.419.743.827.27.394.302.82.054.417-.156.888-.47 1.056-1.558 1.307-1.072.257-2.428-.348zm8.472 3.779q-.956-.427-1.482-1.243-.525-.816-.645-1.776l-2.092 4.695-.985-.439 4.783-10.732.884.394-.661 1.484q.789-.503 1.728-.615.946-.125 1.83.27.785.35 1.295.97.51.621.748 1.394.243.759.19 1.608-.047.834-.384 1.59-.356.8-.931 1.399-.56.605-1.259.944-.698.339-1.48.366-.782.028-1.539-.31zm.117-.992q.614.274 1.228.24.62-.049 1.167-.318.562-.263.99-.722.433-.474.694-1.06.273-.613.293-1.271.034-.652-.167-1.238-.18-.594-.586-1.065-.399-.486-.998-.754-.386-.172-.87-.2-.477-.041-.962.05-.472.098-.881.326-.395.235-.638.588l-1.043 2.34q.007.483.12.96.118.464.346.874.228.41.543.738.336.321.764.512zm8.257 4.726q-.828-.369-1.373-.988-.545-.62-.817-1.391-.257-.765-.225-1.606.047-.835.397-1.62.362-.813.966-1.4.603-.586 1.344-.906.756-.313 1.58-.321.832-.023 1.645.34.814.362 1.366 1.003.56.625.818 1.39.257.766.225 1.606-.033.841-.395 1.655-.35.785-.954 1.371-.589.593-1.33.912-.74.32-1.58.322-.84.002-1.667-.367zm-1.011-5.139q-.287.643-.32 1.295-.028.637.158 1.217.201.586.593 1.05.397.452.968.707.57.254 1.179.234.621-.013 1.177-.262.57-.242 1.032-.703.476-.455.762-1.097.28-.628.3-1.286.04-.667-.16-1.252-.187-.58-.593-1.051-.391-.466-.962-.72-.571-.255-1.179-.235-.593.026-1.169.282-.57.243-1.038.718-.462.461-.748 1.103zm12.923 10.28l-.985-.439 1.896-4.253q.604-1.356.463-2.154-.126-.792-.953-1.16-.443-.198-.955-.238-.498-.034-1.003.1-.498.12-.982.4-.464.272-.81.665l-2.08 4.667-.984-.439 3.396-7.62.9.4-.77 1.727q.84-.618 1.939-.743 1.1-.126 2.127.332.628.28.948.714.34.425.406.968.087.535-.072 1.2-.16.664-.497 1.42l-1.984 4.453zm4.588 2.218q-.899-.401-1.613-1.062-.709-.675-1.074-1.505l.74-.474q.408.814.958 1.385.556.556 1.312.893.913.407 1.621.278.722-.123 1.027-.808.147-.328.1-.606-.048-.277-.263-.562-.216-.284-.601-.61-.371-.32-.885-.702-.586-.45-1.001-.823-.395-.382-.62-.721-.225-.34-.248-.71-.023-.37.18-.826.254-.571.674-.898.425-.34.938-.454.512-.113 1.09-.027.597.078 1.182.34.87.388 1.457.991.6.61.819 1.272l-.732.375q-.23-.633-.749-1.12-.504-.482-1.16-.775-.4-.178-.78-.245-.36-.075-.694-.019-.333.057-.596.265-.264.207-.43.578-.133.3-.122.544.017.23.182.475.185.237.491.51t.769.617q.651.495 1.125.93.48.419.743.827.27.393.303.819.053.417-.157.888-.47 1.056-1.557 1.307-1.073.257-2.429-.347zm7.873 3.51q-.828-.368-1.387-.994-.545-.62-.817-1.391-.266-.786-.233-1.627.032-.84.395-1.654.363-.813.96-1.386.603-.586 1.338-.891.755-.313 1.594-.316.84-.002 1.653.361.842.376 1.387.995.56.626.803 1.385.257.765.217 1.585-.026.826-.382 1.626l-.102.228q-.051.114-.084.15l-6.508-2.901q-.23.632-.223 1.269.014.622.213 1.173.22.542.61.973.39.43.946.679.371.165.772.224.416.066.792.028.397-.045.754-.194.37-.142.633-.385l.769.617q-.377.345-.858.541-.466.203-1.009.269-.528.072-1.099-.029-.577-.086-1.134-.334zm4.751-3.098q.23-.633.21-1.24-.013-.623-.225-1.145-.206-.537-.616-.96-.396-.415-.953-.664-.556-.248-1.145-.27-.574-.017-1.125.182-.53.191-.987.603-.443.419-.753.999l5.594 2.495z" fill="#fff"/><path d="M502.03 382.32h60.157" fill="none"/><path d="M502.03 382.32h54.157" stroke="#fff" stroke-linecap="butt" stroke-linejoin="round"/><path d="M556.187 383.971l4.538-1.652-4.538-1.651z" fill="#fff" fill-rule="evenodd" stroke="#fff" stroke-linecap="butt"/><path d="M477.21 382.079h110.236v36.157H477.21z" fill="none"/><path d="M496.982 406.439v-11.36h4.797q.734 0 1.344.313.625.312 1.078.812.453.5.687 1.141.25.64.25 1.297 0 .625-.187 1.203-.172.563-.5 1.016-.329.453-.797.765-.469.313-1.031.422l2.78 4.39h-1.265l-2.672-4.187h-3.36v4.188h-1.124zm1.125-5.188h3.703q.5 0 .906-.203.406-.219.688-.594.297-.375.453-.828.172-.468.172-.984 0-.5-.188-.969-.187-.484-.5-.828-.312-.36-.734-.563-.422-.218-.89-.218h-3.61v5.187zm12.698 5.344q-.906 0-1.672-.344-.75-.343-1.312-.937-.563-.61-.875-1.39-.313-.782-.313-1.673 0-.89.313-1.656.312-.781.859-1.36.562-.593 1.328-.937.766-.344 1.656-.344.922 0 1.672.344.766.344 1.297.938.547.593.844 1.359.312.766.312 1.64v.25q0 .126-.015.173h-7.125q.047.671.312 1.25.266.562.672.984.422.406.953.64.531.235 1.14.235.407 0 .798-.11.406-.109.734-.296.344-.203.61-.485.28-.281.421-.61l.953.25q-.203.47-.562.845-.344.375-.813.656-.453.281-1.015.422-.563.156-1.172.156zm3.078-4.766q-.047-.671-.312-1.218-.266-.563-.672-.953-.407-.407-.953-.625-.532-.22-1.141-.22-.61 0-1.156.22-.532.218-.953.625-.407.39-.657.953-.234.562-.281 1.218h6.125zm5.486 4.766q-.985 0-1.906-.313-.922-.328-1.594-.937l.484-.734q.703.578 1.438.875.734.28 1.562.28 1 0 1.594-.405.61-.407.61-1.157 0-.359-.157-.593-.156-.235-.469-.407-.312-.171-.797-.312-.468-.14-1.093-.281-.72-.172-1.25-.344-.516-.188-.86-.406-.343-.22-.515-.547-.172-.328-.172-.828 0-.625.25-1.094.25-.484.672-.797.422-.313.984-.469.578-.172 1.219-.172.953 0 1.734.313.797.312 1.266.828l-.516.64q-.469-.484-1.14-.718-.657-.234-1.375-.234-.438 0-.813.093-.36.078-.64.266-.282.187-.438.484-.156.297-.156.703 0 .328.109.547.11.203.36.36.265.14.656.265.39.125.953.25.797.188 1.406.39.61.188 1.016.454.406.25.609.625.219.36.219.875 0 1.156-.89 1.828-.876.672-2.36.672zm9.276 0q-1.047 0-1.86-.531-.812-.531-1.312-1.36v5.141h-1.078v-11.75h.969v1.625q.516-.781 1.328-1.266.813-.5 1.781-.5.86 0 1.578.36.72.36 1.25.969.532.593.829 1.39.296.781.296 1.61 0 .875-.28 1.656-.266.781-.766 1.375t-1.204.937q-.703.344-1.53.344zm-.297-.953q.672 0 1.22-.281.546-.297.937-.766.406-.469.609-1.063.203-.609.203-1.25 0-.671-.25-1.28-.234-.61-.656-1.063-.406-.469-.969-.735-.562-.28-1.219-.28-.422 0-.875.171-.453.156-.859.438-.39.28-.672.656-.266.375-.344.797v2.562q.203.438.5.828.297.375.672.657.375.28.797.453.438.156.906.156zm9.466.953q-.906 0-1.656-.344-.75-.343-1.313-.937-.547-.594-.859-1.375-.297-.781-.297-1.64 0-.891.313-1.673.312-.781.859-1.375.562-.593 1.312-.937.75-.36 1.641-.36.89 0 1.656.36.766.344 1.313.937.547.594.86 1.375.312.782.312 1.672 0 .86-.313 1.64-.297.782-.844 1.376-.546.594-1.312.937-.766.344-1.672.344zm-3.016-4.281q0 .703.235 1.312.234.594.64 1.047.422.453.97.719.546.25 1.171.25t1.172-.266q.562-.265.969-.718.422-.454.656-1.063.25-.61.25-1.313 0-.687-.25-1.296-.234-.625-.656-1.078-.407-.454-.969-.72-.547-.265-1.172-.265-.625 0-1.172.266-.531.265-.953.734-.422.453-.656 1.078-.235.61-.235 1.313zm15.99 4.125h-1.079v-4.656q0-1.485-.453-2.157-.438-.672-1.344-.672-.484 0-.969.172-.468.172-.875.5-.406.313-.734.766-.312.437-.469.937v5.11h-1.078v-8.344h.985v1.89q.515-.906 1.468-1.468.953-.563 2.078-.563.688 0 1.157.266.484.25.765.719.297.453.422 1.125.125.672.125 1.5v4.875zm5.093.156q-.985 0-1.906-.313-.922-.328-1.594-.937l.484-.734q.703.578 1.438.875.734.28 1.562.28 1 0 1.594-.405.61-.407.61-1.157 0-.359-.157-.593-.156-.235-.469-.407-.312-.171-.797-.312-.468-.14-1.093-.281-.719-.172-1.25-.344-.516-.188-.86-.406-.343-.22-.515-.547-.172-.328-.172-.828 0-.625.25-1.094.25-.484.672-.797.422-.313.984-.469.578-.172 1.219-.172.953 0 1.734.313.797.312 1.266.828l-.516.64q-.469-.484-1.14-.718-.657-.234-1.375-.234-.438 0-.813.093-.36.078-.64.266-.282.187-.438.484-.156.297-.156.703 0 .328.11.547.108.203.358.36.266.14.657.265.39.125.953.25.797.188 1.406.39.61.188 1.016.454.406.25.61.625.218.36.218.875 0 1.156-.89 1.828-.876.672-2.36.672zm8.62 0q-.906 0-1.672-.344-.75-.343-1.312-.937-.563-.61-.875-1.39-.313-.782-.313-1.673 0-.89.313-1.656.312-.781.859-1.36.563-.593 1.328-.937.766-.344 1.656-.344.922 0 1.672.344.766.344 1.297.938.547.593.844 1.359.312.766.312 1.64v.25q0 .126-.015.173h-7.125q.047.671.312 1.25.266.562.672.984.422.406.953.64.532.235 1.14.235.407 0 .798-.11.406-.109.734-.296.344-.203.61-.485.28-.281.421-.61l.954.25q-.204.47-.563.845-.344.375-.812.656-.454.281-1.016.422-.563.156-1.172.156zm3.078-4.766q-.047-.671-.312-1.218-.266-.563-.672-.953-.406-.407-.953-.625-.532-.22-1.141-.22-.61 0-1.156.22-.531.218-.953.625-.407.39-.657.953-.234.562-.28 1.218h6.124z" fill="#fff"/><path d="M502.285 348.612l59.937-28.252" fill="none"/><path d="M502.285 348.612l54.51-25.693" stroke="#fff" stroke-linecap="butt" stroke-linejoin="round"/><path d="M557.499 324.413l3.4-3.43-4.809.442z" fill="#fff" fill-rule="evenodd" stroke="#fff" stroke-linecap="butt"/><path d="M500.91 419.518l62.393 28.252" fill="none"/><path d="M500.91 419.518l56.927 25.777" stroke="#fff" stroke-linecap="butt" stroke-linejoin="round"/><path d="M557.156 446.8l4.815.367-3.452-3.376z" fill="#fff" fill-rule="evenodd" stroke="#fff" stroke-linecap="butt"/><path d="M468.163 322.052l91.244-40.63 14.708 33.008-91.244 40.63z" fill="none"/><path d="M491.41 338.366l-4.623-10.376 4.382-1.951q.67-.299 1.355-.261.698.03 1.315.303.618.273 1.092.763.49.483.757 1.082.254.571.318 1.176.072.583-.043 1.13-.116.548-.417 1.024-.3.476-.77.805l4.328 2.88-1.156.514-4.146-2.738-3.068 1.366 1.704 3.825-1.028.458zm-1.083-5.196l3.383-1.506q.456-.204.745-.555.282-.365.386-.822.119-.463.077-.94-.034-.498-.244-.97-.203-.456-.565-.808-.369-.366-.794-.553-.432-.201-.9-.215-.474-.028-.903.162l-3.297 1.469 2.112 4.738zm13.775-.284q-.828.368-1.668.366-.825-.01-1.58-.323-.762-.327-1.366-.914-.603-.586-.966-1.4-.362-.813-.388-1.64-.033-.84.232-1.591.272-.771.831-1.397.56-.625 1.373-.987.843-.375 1.668-.366.839.003 1.566.328.741.32 1.324.899.597.572.953 1.371l.102.229q.05.114.056.163l-6.51 2.898q.317.595.795 1.015.472.406 1.015.626.55.2 1.131.197.58-.002 1.137-.25.371-.165.684-.424.326-.265.55-.57.231-.325.36-.69.142-.371.137-.728l.972-.16q.005.511-.17 1-.162.482-.475.93-.3.441-.756.798-.45.372-1.007.62zm.872-5.605q-.316-.595-.782-.986-.471-.406-1.001-.598-.537-.206-1.126-.183-.574.016-1.13.264-.557.248-.968.67-.396.416-.616.959-.212.522-.212 1.138.015.609.24 1.227l5.595-2.491zm6.951 2.121q-.9.4-1.869.49-.975.075-1.837-.208l.143-.868q.878.242 1.67.215.785-.042 1.542-.379.913-.407 1.29-1.02.391-.618.086-1.303-.146-.329-.384-.48-.238-.15-.594-.18-.355-.03-.855.04-.485.061-1.114.187-.726.136-1.281.195-.548.038-.95-.022-.404-.06-.694-.29-.29-.23-.494-.686-.255-.571-.217-1.1.03-.545.29-1.002.257-.457.708-.829.458-.392 1.043-.652.87-.388 1.712-.42.855-.04 1.493.241l-.21.795q-.626-.252-1.335-.193-.695.053-1.351.346-.4.178-.705.416-.296.217-.477.503-.18.286-.202.62-.022.335.143.706.134.3.323.455.182.141.474.182.3.02.708-.024.408-.045.972-.16.805-.152 1.444-.214.633-.077 1.112 0 .473.063.811.323.346.24.556.71.471 1.057-.07 2.033-.525.97-1.881 1.573zm8.474-3.773q-.956.426-1.915.27-.958-.154-1.752-.707l2.092 4.696-.984.438-4.783-10.733.885-.394.661 1.485q.153-.924.699-1.697.538-.787 1.423-1.18.785-.35 1.588-.315.803.036 1.536.377.727.326 1.323.933.589.593.926 1.35.356.799.417 1.627.076.821-.14 1.567-.214.746-.717 1.346-.502.6-1.259.937zm-.659-.75q.614-.274.999-.753.379-.493.545-1.08.18-.594.124-1.219-.063-.64-.323-1.224-.274-.614-.75-1.069-.462-.461-1.032-.703-.562-.263-1.184-.277-.628-.028-1.228.239-.385.171-.73.513-.35.327-.606.749-.243.416-.347.873-.09.45.01.867l1.043 2.34q.364.318.794.554.424.222.881.326.457.104.913.09.463-.036.891-.226zm9.035-2.98q-.828.369-1.653.36-.825-.01-1.58-.323-.742-.32-1.345-.906-.59-.593-.94-1.378-.362-.813-.394-1.654-.033-.84.225-1.606.273-.77.818-1.39.539-.633 1.352-.996.814-.362 1.66-.345.839.003 1.58.322.741.32 1.345.907.603.586.966 1.4.35.785.382 1.625.047.835-.211 1.6-.258.764-.817 1.39-.56.625-1.388.994zm-4.497-2.684q.286.642.748 1.104.456.447 1.011.695.57.242 1.178.263.601.006 1.172-.249.571-.254.963-.719.405-.471.592-1.05.201-.586.167-1.238-.02-.658-.306-1.3-.28-.629-.756-1.084-.468-.475-1.038-.717-.556-.249-1.178-.263-.607-.02-1.178.234-.571.255-.963.72-.377.458-.572 1.058-.2.586-.16 1.252.034.652.32 1.294zm16.285-2.736l-.985.439-1.895-4.254q-.604-1.355-1.292-1.785-.673-.436-1.5-.067-.443.197-.816.551-.358.348-.596.813-.244.45-.359.998-.107.527-.047 1.047l2.08 4.667-.985.438-3.396-7.62.9-.401.769 1.727q.102-1.038.744-1.94.642-.901 1.67-1.359.627-.28 1.164-.227.544.031.992.345.455.293.843.856.388.563.725 1.319l1.984 4.453zm4.717-1.93q-.9.401-1.869.49-.976.076-1.837-.207l.143-.868q.878.242 1.67.214.785-.042 1.541-.378.914-.407 1.29-1.02.392-.619.087-1.304-.146-.328-.384-.479-.239-.15-.594-.18t-.855.039q-.486.062-1.114.188-.726.135-1.282.194-.547.039-.95-.021-.403-.06-.694-.29-.29-.23-.494-.687-.254-.57-.217-1.1.032-.544.29-1.002.258-.457.708-.828.459-.392 1.044-.653.87-.388 1.711-.42.856-.039 1.494.242l-.21.795q-.626-.252-1.335-.193-.695.053-1.352.345-.4.178-.704.416-.296.218-.477.504-.18.285-.202.62-.022.335.143.706.134.3.323.455.182.141.474.182.3.02.708-.024.407-.045.972-.16.804-.153 1.444-.215.633-.077 1.112 0 .473.064.811.324.346.24.556.71.47 1.056-.07 2.032-.525.97-1.881 1.574zm7.874-3.506q-.828.369-1.667.366-.825-.009-1.58-.322-.762-.328-1.366-.914-.603-.587-.966-1.4-.362-.814-.388-1.64-.033-.841.231-1.592.273-.77.832-1.396.56-.626 1.373-.988.842-.375 1.667-.366.84.003 1.567.329.74.32 1.324.898.597.572.953 1.372l.102.228q.05.114.055.163l-6.508 2.899q.316.594.794 1.014.472.406 1.014.626.551.2 1.132.198.58-.002 1.137-.25.371-.166.684-.424.326-.266.55-.57.231-.326.36-.69.142-.372.137-.729l.972-.16q.005.512-.17 1-.162.483-.476.93-.299.441-.756.799-.45.371-1.007.62zm.873-5.605q-.317-.595-.782-.986-.472-.406-1.002-.597-.536-.206-1.125-.184-.574.017-1.13.265-.557.248-.968.67-.396.416-.616.958-.212.522-.212 1.138.015.61.24 1.228l5.595-2.492z" fill="#fff"/></g></svg>