<svg xmlns="http://www.w3.org/2000/svg" version="1.2" width="575.853" height="395.229" viewBox="0 0 15236.111 10457.111" preserveAspectRatio="xMidYMid" fill-rule="evenodd" stroke-width="28.222" stroke-linejoin="round"><defs class="ClipPathGroup"><clipPath id="a"><path d="M0 0h21000v29700H0z"/></clipPath></defs><g class="SlideGroup"><g class="Slide" clip-path="url(#a)" transform="translate(-2289 -4794.889)"><g class="Page"><g class="com.sun.star.drawing.CustomShape"><path class="BoundingBox" fill="none" d="M7349 4808h3814v1401H7349z"/><path d="M7583 4809c-117 0-233 116-233 233v932c0 116 116 233 233 233h3345c116 0 233-117 233-233v-932c0-117-117-233-233-233zm-233 0zm3811 1398z" fill="#400d9a"/><path d="M7583 4809c-117 0-233 116-233 233v932c0 116 116 233 233 233h3345c116 0 233-117 233-233v-932c0-117-117-233-233-233z" fill="none" stroke="#595959"/><text class="TextShape"><tspan class="TextParagraph" font-size="635" font-weight="400" font-family="'PT Sans',sans-serif"><tspan class="TextPosition" x="7702" y="5745"><tspan fill="#fff">assignment</tspan></tspan></tspan></text></g><g class="com.sun.star.drawing.CustomShape"><path class="BoundingBox" fill="none" d="M3539 7348h3814v1401H3539z"/><path d="M3773 7349c-117 0-233 116-233 233v932c0 116 116 233 233 233h3345c116 0 233-117 233-233v-932c0-117-117-233-233-233zm-233 0zm3811 1398z" fill="#400d9a"/><path d="M3773 7349c-117 0-233 116-233 233v932c0 116 116 233 233 233h3345c116 0 233-117 233-233v-932c0-117-117-233-233-233z" fill="none" stroke="#595959"/><text class="TextShape"><tspan class="TextParagraph" font-size="635" font-weight="400" font-family="'PT Sans',sans-serif"><tspan class="TextPosition" x="5289" y="8285"><tspan fill="#fff">a</tspan></tspan></tspan></text></g><g class="com.sun.star.drawing.CustomShape"><path class="BoundingBox" fill="none" d="M11159 7348h3814v1401h-3814z"/><path d="M11393 7349c-117 0-233 116-233 233v932c0 116 116 233 233 233h3345c116 0 233-117 233-233v-932c0-117-117-233-233-233zm-233 0zm3811 1398z" fill="#400d9a"/><path d="M11393 7349c-117 0-233 116-233 233v932c0 116 116 233 233 233h3345c116 0 233-117 233-233v-932c0-117-117-233-233-233z" fill="none" stroke="#595959"/><text class="TextShape"><tspan class="TextParagraph" font-size="635" font-weight="400" font-family="'PT Sans',sans-serif"><tspan class="TextPosition" x="11937" y="8285"><tspan fill="#fff">multiply</tspan></tspan></tspan></text></g><g class="com.sun.star.drawing.CustomShape"><path class="BoundingBox" fill="none" d="M8619 9888h3814v1401H8619z"/><path d="M8853 9889c-117 0-233 116-233 233v932c0 116 116 233 233 233h3345c116 0 233-117 233-233v-932c0-117-117-233-233-233zm-233 0zm3811 1398z" fill="#400d9a"/><path d="M8853 9889c-117 0-233 116-233 233v932c0 116 116 233 233 233h3345c116 0 233-117 233-233v-932c0-117-117-233-233-233z" fill="none" stroke="#595959"/><text class="TextShape"><tspan class="TextParagraph" font-size="635" font-weight="400" font-family="'PT Sans',sans-serif"><tspan class="TextPosition" x="10354" y="10825"><tspan fill="#fff">b</tspan></tspan></tspan></text></g><g class="com.sun.star.drawing.CustomShape"><path class="BoundingBox" fill="none" d="M13699 9888h3814v1401h-3814z"/><path d="M13933 9889c-117 0-233 116-233 233v932c0 116 116 233 233 233h3345c116 0 233-117 233-233v-932c0-117-117-233-233-233zm-233 0zm3811 1398z" fill="#400d9a"/><path d="M13933 9889c-117 0-233 116-233 233v932c0 116 116 233 233 233h3345c116 0 233-117 233-233v-932c0-117-117-233-233-233z" fill="none" stroke="#595959"/><text class="TextShape"><tspan class="TextParagraph" font-size="635" font-weight="400" font-family="'PT Sans',sans-serif"><tspan class="TextPosition" x="15432" y="10825"><tspan fill="#fff">2</tspan></tspan></tspan></text></g><g class="com.sun.star.drawing.CustomShape"><path class="BoundingBox" fill="none" d="M4809 13699h1273v1273H4809z"/><path d="M5445 14970h-635v-1270h1270v1270z" fill="none" stroke="#b2b2b2"/><text class="TextShape"><tspan class="TextParagraph" font-size="1129" font-weight="400" font-family="'PT Sans',sans-serif"><tspan class="TextPosition" x="5166" y="14754"><tspan fill="#fff">a</tspan></tspan></tspan></text></g><g class="com.sun.star.drawing.CustomShape"><path class="BoundingBox" fill="none" d="M6079 13699h1273v1273H6079z"/><path d="M6715 14970h-635v-1270h1270v1270z" fill="none" stroke="#b2b2b2"/><text class="TextShape"><tspan class="TextParagraph" font-size="1129" font-weight="400" font-family="'PT Sans',sans-serif"><tspan class="TextPosition" x="6358" y="14531"><tspan fill="#fff">␣</tspan></tspan></tspan></text></g><g class="com.sun.star.drawing.CustomShape"><path class="BoundingBox" fill="none" d="M7349 13699h1273v1273H7349z"/><path d="M7985 14970h-635v-1270h1270v1270z" fill="none" stroke="#b2b2b2"/><text class="TextShape"><tspan class="TextParagraph" font-size="1129" font-weight="400" font-family="'PT Sans',sans-serif"><tspan class="TextPosition" x="7699" y="14754"><tspan fill="#fff">=</tspan></tspan></tspan></text></g><g class="com.sun.star.drawing.CustomShape"><path class="BoundingBox" fill="none" d="M8620 13699h1273v1273H8620z"/><path d="M9256 14970h-635v-1270h1270v1270z" fill="none" stroke="#b2b2b2"/><text class="TextShape"><tspan class="TextParagraph" font-size="1129" font-weight="400" font-family="'PT Sans',sans-serif"><tspan class="TextPosition" x="8899" y="14531"><tspan fill="#fff">␣</tspan></tspan></tspan></text></g><g class="com.sun.star.drawing.CustomShape"><path class="BoundingBox" fill="none" d="M9890 13699h1273v1273H9890z"/><path d="M10526 14970h-635v-1270h1270v1270z" fill="none" stroke="#b2b2b2"/><text class="TextShape"><tspan class="TextParagraph" font-size="1129" font-weight="400" font-family="'PT Sans',sans-serif"><tspan class="TextPosition" x="10221" y="14754"><tspan fill="#fff">b</tspan></tspan></tspan></text></g><g class="com.sun.star.drawing.CustomShape"><path class="BoundingBox" fill="none" d="M11160 13699h1273v1273h-1273z"/><path d="M11796 14970h-635v-1270h1270v1270z" fill="none" stroke="#b2b2b2"/><text class="TextShape"><tspan class="TextParagraph" font-size="1129" font-weight="400" font-family="'PT Sans',sans-serif"><tspan class="TextPosition" x="11439" y="14531"><tspan fill="#fff">␣</tspan></tspan></tspan></text></g><g class="com.sun.star.drawing.CustomShape"><path class="BoundingBox" fill="none" d="M12430 13699h1273v1273h-1273z"/><path d="M13066 14970h-635v-1270h1270v1270z" fill="none" stroke="#b2b2b2"/><text class="TextShape"><tspan class="TextParagraph" font-size="1270" font-weight="400" font-family="'PT Sans',sans-serif"><tspan class="TextPosition" x="12844" y="15116"><tspan fill="#fff">*</tspan></tspan></tspan></text></g><g class="com.sun.star.drawing.CustomShape"><path class="BoundingBox" fill="none" d="M13701 13699h1273v1273h-1273z"/><path d="M14337 14970h-635v-1270h1270v1270z" fill="none" stroke="#b2b2b2"/><text class="TextShape"><tspan class="TextParagraph" font-size="1129" font-weight="400" font-family="'PT Sans',sans-serif"><tspan class="TextPosition" x="13980" y="14531"><tspan fill="#fff">␣</tspan></tspan></tspan></text></g><g class="com.sun.star.drawing.CustomShape"><path class="BoundingBox" fill="none" d="M14971 13699h1273v1273h-1273z"/><path d="M15607 14970h-635v-1270h1270v1270z" fill="none" stroke="#b2b2b2"/><text class="TextShape"><tspan class="TextParagraph" font-size="1129" font-weight="400" font-family="'PT Sans',sans-serif"><tspan class="TextPosition" x="15298" y="14754"><tspan fill="#fff">2</tspan></tspan></tspan></text></g><g class="com.sun.star.drawing.CustomShape"><path class="BoundingBox" fill="none" d="M16239 13699h1273v1273h-1273z"/><path d="M16875 14970h-635v-1270h1270v1270z" fill="none" stroke="#b2b2b2"/><text class="TextShape"><tspan class="TextParagraph" font-size="794" font-weight="400" font-family="'PT Sans',sans-serif"><tspan class="TextPosition" x="16541" y="14630"><tspan fill="#fff">⏎</tspan></tspan></tspan></text></g><g class="com.sun.star.drawing.ConnectorShape"><path class="BoundingBox" fill="none" d="M5295 8747h301v4955h-301z"/><path d="M5445 13700V9177" fill="none" stroke="#b2b2b2"/><path d="M5445 8747l-150 450h300z" fill="#b2b2b2"/></g><g class="com.sun.star.drawing.ConnectorShape"><path class="BoundingBox" fill="none" d="M7984 6207h1417v7495H7984z"/><path d="M7985 13700v-62M7985 13577v-60M7986 13457v-60M7986 13339c0-20 0-39 1-59M7987 13223c0-19 1-39 1-57M7988 13109c1-19 1-37 1-56M7990 12998c0-19 0-37 1-55M7992 12888v-53M7993 12781c1-17 1-35 2-52M7996 12676c0-17 0-34 1-51M7998 12574c1-17 1-34 1-51M8001 12473c0-17 1-33 1-50M8004 12374c0-16 1-32 1-48M8007 12278c0-16 1-32 2-48M8010 12183c1-15 1-31 2-46M8014 12091c1-16 1-31 2-46M8018 12000c1-20 2-40 2-60M8023 11878c1-20 2-41 4-61M8030 11757c1-20 2-39 3-59M8036 11640c1-19 3-38 4-57M8043 11526c2-18 3-37 4-55M8051 11416c1-18 2-36 4-53M8059 11310c1-17 2-35 4-52M8067 11207c1-17 3-34 4-50M8076 11107c1-16 3-32 4-48M8085 11011c1-16 3-31 4-47M8094 10918c2-15 3-30 5-45M8104 10828c1-15 3-30 5-46M8117 10719c2-20 5-41 7-61M8132 10598c3-20 5-39 8-58M8148 10483c3-19 6-37 9-55M8165 10374c3-18 6-35 9-52M8183 10271c3-17 6-33 9-49M8201 10174c3-16 6-32 9-47M8220 10082c3-15 6-30 9-44M8239 9995c5-19 9-38 14-56M8268 9879c5-20 10-39 15-58M8299 9767c5-18 11-35 16-52M8331 9665c6-16 11-32 17-48M8364 9572c6-15 11-29 17-43M8398 9487c7-17 15-33 22-49M8445 9384c9-17 17-34 26-50M8496 9287c9-15 18-30 26-44M8548 9201c9-13 18-26 26-39M8604 9119c11-15 22-30 33-44M8669 9032c11-14 21-27 32-41M8733 8950c10-13 21-27 32-41M8795 8869c10-13 20-27 30-41M8854 8785c10-14 20-29 29-44M8911 8693c10-16 19-33 28-50M8959 8603c7-14 14-28 20-43M8999 8515c6-16 13-32 19-48M9036 8416c6-18 12-36 18-55M9072 8304c5-18 10-37 15-57M9098 8205c4-14 7-29 11-44M9119 8115c3-15 6-31 10-47M9138 8018c3-17 7-34 10-51M9157 7913c2-18 5-37 8-56M9173 7799c3-19 6-39 8-60M9189 7677c2-18 4-37 6-56M9200 7578c1-15 3-30 4-45M9208 7487c2-15 3-31 4-47M9216 7392c2-16 3-32 4-49M9224 7293c1-17 2-34 3-52M9230 7189l3-54M9236 7080l3-57M9241 6966c1-20 2-39 2-59M9245 6847c1-20 2-41 2-62M9249 6723c0-13 1-26 1-38" fill="none" stroke="#b2b2b2"/><path d="M9255 6207l-155 448 300 4z" fill="#b2b2b2"/></g><g class="com.sun.star.drawing.ConnectorShape"><path class="BoundingBox" fill="none" d="M10375 11287h302v2415h-302z"/><path d="M10526 13700c0-1809-1-803-1-1978" fill="none" stroke="#b2b2b2"/><path d="M10525 11287l-150 450h300z" fill="#b2b2b2"/></g><g class="com.sun.star.drawing.ConnectorShape"><path class="BoundingBox" fill="none" d="M12915 8747h302v4955h-302z"/><path d="M13066 13700v-62M13066 13577v-60M13066 13459v-58M13066 13345v-56M13066 13235v-53M13066 13129v-51M13066 13028v-50M13066 12930v-47M13066 12836v-45M13066 12742v-62M13066 12619v-59M13066 12503v-56M13066 12394v-52M13066 12291v-48M13066 12195v-45M13066 12106v-61M13066 11984v-58M13066 11871v-52M13066 11770v-47M13066 11679v-57M13066 11562v-54M13066 11458v-46M13066 11360v-56M13066 11253v-49M13065 11153v-53M13065 11046v-48M13065 10949v-54M13065 10835v-47M13065 10742v-50M13065 10639v-58M13065 10520v-53M13065 10423v-47M13065 10327v-51M13065 10223v-56M13065 10109v-61M13065 9984v-45M13065 9893v-46M13065 9799v-49M13065 9699v-52M13065 9594v-55M13065 9483v-57M13065 9367v-61M13065 9244v-25" fill="none" stroke="#b2b2b2"/><path d="M13065 8747l-150 450h300z" fill="#b2b2b2"/></g><g class="com.sun.star.drawing.ConnectorShape"><path class="BoundingBox" fill="none" d="M15455 11287h302v2415h-302z"/><path d="M15607 13700c0-1809-2-803-2-1978" fill="none" stroke="#b2b2b2"/><path d="M15605 11287l-150 450h300z" fill="#b2b2b2"/></g><g class="com.sun.star.drawing.ConnectorShape"><path class="BoundingBox" fill="none" d="M5445 6206h3812v1160H5445z"/><path d="M9255 6207L5857 7226" fill="none" stroke="#fff"/><path d="M5445 7350l474 14-86-287z" fill="#fff"/></g><g class="com.sun.star.drawing.ConnectorShape"><path class="BoundingBox" fill="none" d="M9254 6206h3812v1160H9254z"/><path d="M9255 6207l3398 1019" fill="none" stroke="#fff"/><path d="M13065 7350l-388-273-86 287z" fill="#fff"/></g><g class="com.sun.star.drawing.ConnectorShape"><path class="BoundingBox" fill="none" d="M10525 8746h2542v1145h-2542z"/><path d="M13065 8747l-2148 967" fill="none" stroke="#fff"/><path d="M10525 9890l472-48-123-273z" fill="#fff"/></g><g class="com.sun.star.drawing.ConnectorShape"><path class="BoundingBox" fill="none" d="M13064 8746h2542v1145h-2542z"/><path d="M13065 8747l2148 967" fill="none" stroke="#fff"/><path d="M15605 9890l-349-321-123 273z" fill="#fff"/></g><g class="com.sun.star.drawing.ConnectorShape"><path class="BoundingBox" fill="none" d="M6714 6207h2684v7495H6714z"/><path d="M6715 13700v-62M6715 13577c0-20 1-40 1-60M6716 13457c0-20 1-40 1-60M6718 13339c0-20 0-39 1-59M6720 13223c0-19 0-38 1-57M6722 13110c1-19 1-38 2-56M6725 12999c1-19 1-37 2-55M6729 12890c1-18 1-36 2-54M6733 12783c1-17 2-35 3-52M6738 12679l3-51M6743 12577c1-16 2-33 3-50M6749 12478c1-17 2-33 3-50M6755 12380c1-16 2-32 4-48M6762 12284c1-15 2-31 4-47M6769 12191c2-15 3-31 4-46M6777 12100c1-15 3-30 4-45M6787 11994c2-21 4-41 6-61M6799 11872c3-20 5-40 7-59M6813 11754c2-19 5-38 7-57M6827 11640c3-18 5-37 8-55M6842 11530c3-18 6-36 8-53M6858 11424c3-18 6-35 9-52M6875 11321c3-17 6-34 9-50M6893 11221l9-48M6911 11125c4-15 7-31 10-46M6931 11033c3-15 6-30 10-45M6951 10944c3-15 7-30 10-44M6975 10842c5-20 11-40 16-60M7006 10725c6-19 11-38 17-57M7039 10614c5-18 11-36 17-53M7073 10509c5-17 11-34 17-51M7108 10409c6-16 12-32 18-47M7144 10316c6-16 12-31 19-45M7182 10227c6-14 12-28 19-42M7220 10143c8-15 15-31 23-46M7271 10044c9-18 18-35 28-51M7327 9944c10-16 20-32 29-47M7386 9852c9-15 19-29 29-43M7445 9768c10-14 20-27 31-40M7506 9690c11-12 21-25 31-37M7571 9616c13-14 26-28 39-41M7649 9536c13-13 26-25 40-38M7728 9463c14-12 27-23 40-34M7809 9396c13-11 27-21 40-32M7890 9334c14-10 27-20 41-30M7976 9273c14-11 29-21 44-31M8064 9213c15-10 30-20 44-30M8152 9154c15-10 30-19 44-29M8240 9096c14-10 29-20 43-30M8326 9037c14-10 28-21 42-31M8410 8975l42-33M8493 8909c13-12 27-23 40-35M8573 8837c13-12 26-25 39-38M8647 8762l33-36M8712 8688c11-13 21-26 32-40M8775 8606c10-14 20-28 30-43M8834 8517c10-16 20-32 29-48M8891 8418c9-17 18-35 27-53M8938 8324c6-14 13-28 19-42M8975 8238c7-15 13-30 18-45M9011 8146c6-15 11-31 17-48M9044 8048c6-17 11-34 16-51M9076 7943c5-18 10-36 15-55M9105 7831c5-19 9-39 14-59M9132 7711c3-16 6-32 10-48M9150 7619c3-15 5-30 8-45M9166 7528c2-15 5-31 7-47M9180 7433c3-16 5-32 7-49M9194 7334l6-51M9206 7231c2-17 4-35 6-53M9217 7124c2-19 3-37 5-56M9227 7012c1-19 2-39 4-58M9235 6895l3-60M9242 6774c1-21 2-41 3-62" fill="none" stroke="#b2b2b2"/><path d="M9255 6207l-159 447 300 6z" fill="#b2b2b2"/></g><g class="com.sun.star.drawing.ConnectorShape"><path class="BoundingBox" fill="none" d="M9105 6207h302v7495h-302z"/><path d="M9256 13700v-62M9256 13577v-61M9256 13456v-59M9256 13338v-58M9256 13223v-57M9256 13109v-55M9256 12999v-55M9256 12890v-53M9256 12784v-52M9256 12681v-51M9256 12580v-50M9256 12481v-49M9256 12384v-48M9256 12289v-46M9256 12197v-46M9256 12107v-62M9256 11983v-61M9256 11862v-59M9256 11745v-57M9256 11632v-55M9256 11523v-53M9256 11418v-51M9256 11317v-49M9256 11219v-47M9256 11125v-45M9256 11035v-44M9256 10929v-62M9256 10806v-59M9256 10690v-56M9256 10580v-52M9256 10478v-49M9256 10381v-46M9256 10291v-43M9256 10186v-62M9256 10065v-55M9256 9957v-50M9256 9859v-45M9256 9771v-61M9256 9652v-54M9256 9547v-48M9256 9452c0-18 0-36-1-54M9255 9345v-52M9255 9241v-51M9255 9142v-49M9255 9040v-56M9255 8924v-47M9255 8832v-48M9255 8734v-52M9255 8626v-59M9255 8505v-58M9255 8404v-45M9255 8313v-48M9255 8215v-51M9255 8111v-55M9255 7999v-58M9255 7880v-62M9255 7754v-43M9255 7666v-46M9255 7574v-48M9255 7478v-49M9255 7378v-51M9255 7275v-54M9255 7167v-56M9255 7055v-58M9255 6938v-60M9255 6818v-63M9255 6692v-2" fill="none" stroke="#b2b2b2"/><path d="M9255 6207l-150 450h300z" fill="#b2b2b2"/></g><g class="com.sun.star.drawing.ConnectorShape"><path class="BoundingBox" fill="none" d="M11795 8747h1416v4955h-1416z"/><path d="M11796 13700v-63M11797 13576c0-20 0-40 1-59M11799 13459c0-20 1-38 1-57M11802 13347c1-18 1-36 2-54M11806 13240l3-51M11812 13140c1-17 2-33 3-49M11819 13044c1-16 3-31 4-46M11827 12953l6-54M11840 12837c2-20 5-39 8-58M11856 12722l9-54M11874 12617c3-17 6-34 10-50M11894 12520c4-15 7-30 11-45M11916 12432c5-19 11-38 16-56M11950 12320c7-18 13-36 19-53M11989 12218c7-16 14-31 21-46M12032 12130c7-14 15-28 22-41M12085 12040c10-16 21-31 31-45M12149 11954c11-14 22-27 33-39M12216 11879c13-13 25-26 38-38M12293 11805c13-12 26-23 39-35M12372 11735c13-12 26-23 39-35M12448 11665c13-11 25-23 37-36M12523 11591c12-14 24-27 36-42M12592 11509c10-12 20-25 29-38M12650 11429c9-14 19-29 28-44M12706 11337c9-17 18-34 27-52M12756 11237l18-42M12792 11150c6-15 12-30 18-46M12827 11055c6-17 12-34 17-52M12861 10949c5-19 10-38 16-57M12892 10832c4-15 7-31 11-46M12913 10741c3-15 6-30 10-46M12932 10648c3-16 6-33 9-49M12950 10548c3-17 6-34 9-52M12967 10442c3-18 6-37 9-56M12983 10329c3-20 5-39 8-59M12998 10209l6-57M13009 10107c1-15 3-31 4-46M13018 10014c1-16 2-31 4-48M13026 9918c1-17 2-33 3-50M13033 9817l3-51M13040 9713l3-54M13046 9605c0-19 1-37 2-56M13051 9492c1-19 1-38 2-58M13055 9375c1-20 1-40 2-60M13059 9254c0-13 0-26 1-38" fill="none" stroke="#b2b2b2"/><path d="M13065 8747l-155 448 300 4z" fill="#b2b2b2"/></g><g class="com.sun.star.drawing.ConnectorShape"><path class="BoundingBox" fill="none" d="M12923 8748h1416v4955h-1416z"/><path d="M14337 13701v-63M14336 13577c0-20 0-40-1-59M14334 13460c0-20-1-38-1-57M14331 13348c-1-18-1-36-2-54M14327 13241l-3-51M14321 13141c-1-17-2-33-3-49M14314 13045c-1-16-3-31-4-46M14306 12954l-6-54M14293 12838c-2-20-5-39-8-58M14277 12723l-9-54M14259 12618c-3-17-6-34-10-50M14239 12521c-4-15-7-30-11-45M14217 12433c-5-19-11-38-16-56M14183 12321c-7-18-13-36-19-53M14144 12219c-7-16-14-31-21-46M14101 12131c-7-14-15-28-22-41M14048 12041c-10-16-21-31-31-45M13984 11955c-11-14-22-27-33-39M13917 11880c-13-13-25-26-38-38M13840 11806c-13-12-26-23-39-35M13761 11736c-13-12-26-23-39-35M13685 11666c-13-11-25-23-37-36M13610 11592c-12-14-24-27-36-42M13541 11510c-10-12-20-25-29-38M13483 11430c-9-14-19-29-28-44M13427 11338c-9-17-18-34-27-52M13377 11238l-18-42M13341 11151c-6-15-12-30-18-46M13306 11056c-6-17-12-34-17-52M13272 10950c-5-19-10-38-16-57M13241 10833c-4-15-7-31-11-46M13220 10742c-3-15-6-30-10-46M13201 10649c-3-16-6-33-9-49M13183 10549c-3-17-6-34-9-52M13166 10443c-3-18-6-37-9-56M13150 10330c-3-20-5-39-8-59M13135 10210l-6-57M13124 10108c-1-15-3-31-4-46M13115 10015c-1-16-2-31-4-48M13107 9919c-1-17-2-33-3-50M13100 9818l-3-51M13093 9714l-3-54M13087 9606c0-19-1-37-2-56M13082 9493c-1-19-1-38-2-58M13078 9376c-1-20-1-40-2-60M13074 9255c0-13 0-26-1-38" fill="none" stroke="#b2b2b2"/><path d="M13068 8748l-145 452 300-4z" fill="#b2b2b2"/></g><g class="com.sun.star.drawing.ConnectorShape"><path class="BoundingBox" fill="none" d="M11160 5371h5717v8331h-5717z"/><path d="M16875 13700v-56M16875 13588c0-18 0-37-1-55M16874 13477c0-18 0-36-1-55M16873 13367c0-18-1-36-1-54M16871 13258c0-18-1-36-1-54M16869 13150c-1-18-1-36-1-54M16866 13042c0-18-1-36-1-53M16863 12935c-1-17-1-35-2-53M16859 12829c0-17-1-35-2-52M16855 12724c-1-17-2-35-2-52M16850 12620c-1-17-1-35-2-52M16845 12516l-3-51M16839 12414l-3-51M16833 12312l-3-51M16827 12211c-2-17-3-34-4-50M16819 12106c-1-19-3-37-4-56M16810 11995c-1-19-3-37-4-55M16801 11885c-2-19-3-37-5-55M16791 11776c-1-19-3-37-5-55M16781 11667c-2-18-4-35-6-53M16770 11560c-2-18-4-35-6-53M16758 11454c-2-17-4-35-6-53M16746 11349c-3-17-5-35-7-52M16733 11245c-3-17-5-35-7-52M16719 11142c-2-17-5-34-7-51M16705 11040c-3-17-5-34-8-51M16690 10939c-3-17-5-34-8-51M16674 10838c-2-16-5-33-8-49M16658 10735c-3-18-6-36-10-55M16639 10625c-3-18-6-36-10-54M16619 10517c-3-18-6-36-10-54M16599 10409c-3-17-7-35-10-53M16578 10303c-4-17-7-35-11-52M16556 10198c-4-17-7-34-11-52M16533 10095c-3-18-7-35-11-52M16510 9992l-12-51M16486 9891c-4-17-9-34-13-50M16461 9791c-5-17-9-33-13-50M16435 9692c-4-16-9-33-13-49M16408 9594c-4-17-9-33-14-50M16379 9490c-5-17-11-35-16-53M16347 9384c-5-17-11-35-16-52M16315 9280c-6-18-11-35-17-52M16281 9176c-5-17-11-34-17-51M16247 9075c-6-17-12-34-18-50M16211 8975c-6-17-12-33-18-50M16175 8876c-6-16-12-33-19-49M16137 8779c-6-16-12-32-19-48M16099 8683c-6-16-13-31-19-47M16060 8589c-7-15-14-31-20-46M16018 8494c-7-17-15-34-22-50M15973 8394c-8-17-16-34-24-50M15926 8295c-8-17-16-33-24-49M15878 8198c-8-16-16-32-25-48M15829 8103c-9-16-17-32-26-47M15778 8009c-8-15-17-31-26-46M15726 7918c-8-16-17-31-26-46M15674 7828c-9-15-18-30-27-44M15620 7740c-9-15-19-29-28-44M15564 7653c-9-14-19-29-29-44M15504 7564c-10-15-20-30-31-45M15442 7475c-10-15-21-30-31-44M15379 7388c-11-15-22-29-33-43M15314 7303l-33-42M15247 7220c-11-14-22-27-34-41M15179 7139c-11-13-23-27-34-40M15110 7060c-11-13-23-26-35-39M15040 6983c-12-12-24-25-36-37M14968 6908c-13-13-26-25-38-38M14891 6833c-13-13-26-25-38-37M14813 6759l-39-36M14734 6688c-13-12-27-23-40-35M14653 6619c-13-12-27-23-41-34M14571 6552l-42-33M14487 6487c-14-11-28-21-42-32M14402 6424c-14-10-29-20-43-30M14315 6364c-14-10-29-20-43-30M14227 6305c-14-9-29-19-44-28M14138 6249l-45-27M14047 6195c-15-9-30-17-46-26M13955 6143c-15-8-31-16-47-25M13861 6094c-15-9-31-17-47-24M13766 6046c-16-8-32-16-48-23M13669 6000c-16-7-32-15-49-22M13571 5957c-16-7-33-14-49-21M13472 5916c-16-7-32-13-48-20M13376 5878c-16-6-33-12-49-18M13278 5842c-16-6-33-12-50-17M13179 5808c-17-6-34-11-50-17M13078 5776c-17-6-34-11-51-16M12976 5745c-17-5-34-9-51-14M12873 5717c-18-5-35-9-52-14M12768 5690c-18-4-35-8-53-13M12662 5665c-18-4-36-8-54-11M12558 5643c-17-4-34-7-51-10M12457 5623l-51-9M12355 5605c-17-3-34-6-52-9M12252 5588c-18-2-35-5-52-7M12147 5573c-17-2-35-4-52-7M12042 5560c-18-2-35-4-53-6M11935 5548c-17-2-35-4-53-6M11828 5537c-18-1-36-3-55-4M11719 5529c-18-2-37-3-55-4M11609 5521c-6 0-12-1-18-1" fill="none" stroke="#b2b2b2"/><path d="M11160 5508l445 163 9-300z" fill="#b2b2b2"/></g><g class="com.sun.star.drawing.TextShape"><path class="BoundingBox" fill="none" d="M5191 5445h1980v1074H5191z"/><text class="TextShape"><tspan class="TextParagraph" font-size="635" font-weight="400" font-family="'PT Sans',sans-serif"><tspan class="TextPosition" x="5441" y="6218"><tspan fill="#fff">UAST</tspan></tspan></tspan></text></g><g class="com.sun.star.drawing.TextShape"><path class="BoundingBox" fill="none" d="M2289 13356h2328v1896H2289z"/><text class="TextShape"><tspan class="TextParagraph" font-size="635" font-weight="400" font-family="'PT Sans',sans-serif"><tspan class="TextPosition" x="2539" y="14129"><tspan fill="#fff">Virtual</tspan></tspan></tspan><tspan class="TextParagraph" font-size="635" font-weight="400" font-family="'PT Sans',sans-serif"><tspan class="TextPosition" x="2643" y="14951"><tspan fill="#fff">nodes</tspan></tspan></tspan></text></g></g></g></g></svg>