<?xml version="1.0" encoding="UTF-8" standalone="no"?>
<svg
   xmlns:dc="http://purl.org/dc/elements/1.1/"
   xmlns:cc="http://creativecommons.org/ns#"
   xmlns:rdf="http://www.w3.org/1999/02/22-rdf-syntax-ns#"
   xmlns:svg="http://www.w3.org/2000/svg"
   xmlns="http://www.w3.org/2000/svg"
   xmlns:sodipodi="http://sodipodi.sourceforge.net/DTD/sodipodi-0.dtd"
   xmlns:inkscape="http://www.inkscape.org/namespaces/inkscape"
   version="1.0"
   width="28.000000pt"
   height="28.000000pt"
   viewBox="0 0 28.000000 28.000000"
   preserveAspectRatio="xMidYMid meet"
   id="svg5042"
   inkscape:version="0.91 r"
   sodipodi:docname="cd_0_4.svg">
  <defs
     id="defs5054" />
  <sodipodi:namedview
     pagecolor="#ffffff"
     bordercolor="#666666"
     borderopacity="1"
     objecttolerance="10"
     gridtolerance="10"
     guidetolerance="10"
     inkscape:pageopacity="0"
     inkscape:pageshadow="2"
     inkscape:window-width="1863"
     inkscape:window-height="1056"
     id="namedview5052"
     showgrid="false"
     inkscape:zoom="26.257143"
     inkscape:cx="17.5"
     inkscape:cy="17.5"
     inkscape:window-x="57"
     inkscape:window-y="24"
     inkscape:window-maximized="1"
     inkscape:current-layer="svg5042" />
  <metadata
     id="metadata5044">
Created by potrace 1.11, written by Peter Selinger 2001-2013
<rdf:RDF>
  <cc:Work
     rdf:about="">
    <dc:format>image/svg+xml</dc:format>
    <dc:type
       rdf:resource="http://purl.org/dc/dcmitype/StillImage" />
  </cc:Work>
</rdf:RDF>
</metadata>
  <g
     transform="translate(0.000000,28.000000) scale(0.100000,-0.100000)"
     fill="#000000"
     stroke="none"
     id="g5046">
    <path
       d="M 21.75 6.25 C 20 6.25 18.125 8.5 19.125 9.625 C 19.5 10 17.875 11.875 15.5 14 C 11.125 17.875 7.875 25.75 9.125 29.25 C 10.375 32.625 16 31.5 20.75 27.125 C 24.625 23.625 25.375 22 26 16.5 C 26.375 12.25 26 9.375 25 8.125 C 24.125 7.125 22.75 6.25 21.75 6.25 z M 20.25 12.5 C 21 12.5 21 13.25 20 14.375 C 18.125 16.625 20.125 16.875 22.375 14.625 C 23.625 13.375 23.75 13.875 23.125 16.875 C 22.625 18.875 21.75 21.875 21 23.375 C 19.125 27.125 13.875 30.625 12.25 29 C 10.875 27.625 12.25 21.25 14 21.25 C 14.625 21.25 14.875 20.75 14.5 20.125 C 14.125 19.5 15 17.625 16.375 15.75 C 17.75 14 19.5 12.5 20.25 12.5 z "
       transform="matrix(8,0,0,-8,0,280)"
       id="path5048" />
  </g>
</svg>
