<?xml version="1.0" encoding="UTF-8" standalone="no"?>
<svg
   xmlns:dc="http://purl.org/dc/elements/1.1/"
   xmlns:cc="http://creativecommons.org/ns#"
   xmlns:rdf="http://www.w3.org/1999/02/22-rdf-syntax-ns#"
   xmlns:svg="http://www.w3.org/2000/svg"
   xmlns="http://www.w3.org/2000/svg"
   xmlns:sodipodi="http://sodipodi.sourceforge.net/DTD/sodipodi-0.dtd"
   xmlns:inkscape="http://www.inkscape.org/namespaces/inkscape"
   version="1.0"
   width="28.000000pt"
   height="28.000000pt"
   viewBox="0 0 28.000000 28.000000"
   preserveAspectRatio="xMidYMid meet"
   id="svg4881"
   inkscape:version="0.91 r"
   sodipodi:docname="cd_0_2.svg">
  <defs
     id="defs4891" />
  <sodipodi:namedview
     pagecolor="#ffffff"
     bordercolor="#666666"
     borderopacity="1"
     objecttolerance="10"
     gridtolerance="10"
     guidetolerance="10"
     inkscape:pageopacity="0"
     inkscape:pageshadow="2"
     inkscape:window-width="1863"
     inkscape:window-height="1056"
     id="namedview4889"
     showgrid="false"
     inkscape:zoom="26.257143"
     inkscape:cx="17.5"
     inkscape:cy="19.023395"
     inkscape:window-x="57"
     inkscape:window-y="24"
     inkscape:window-maximized="1"
     inkscape:current-layer="svg4881" />
  <metadata
     id="metadata4883">
Created by potrace 1.11, written by Peter Selinger 2001-2013
<rdf:RDF>
  <cc:Work
     rdf:about="">
    <dc:format>image/svg+xml</dc:format>
    <dc:type
       rdf:resource="http://purl.org/dc/dcmitype/StillImage" />
  </cc:Work>
</rdf:RDF>
</metadata>
  <g
     transform="translate(0.000000,28.000000) scale(0.100000,-0.100000)"
     fill="#000000"
     stroke="none"
     id="g4885">
    <path
       d="M 280,0 C 93.333333,0 186.66667,0 280,0 Z M 140,224 c 0,-3 -13,-17 -30,-31 -22,-18 -30,-33 -30,-57 0,-40 15,-56 54,-56 33,0 96,52 96,80 0,32 -49,53 -76,33 -5,-5 -1,0 9,10 22,20 40,21 68,7 C 272,187 239,81 184,60 144,45 95,48 77,68 c -35,39 -30,99 13,142 18,18 50,28 50,14 z"
       id="path4887"
       inkscape:connector-curvature="0"
       sodipodi:nodetypes="ccscssscccccss" />
  </g>
</svg>
