<?xml version="1.0" encoding="UTF-8" standalone="no"?>
<svg
   xmlns:dc="http://purl.org/dc/elements/1.1/"
   xmlns:cc="http://creativecommons.org/ns#"
   xmlns:rdf="http://www.w3.org/1999/02/22-rdf-syntax-ns#"
   xmlns:svg="http://www.w3.org/2000/svg"
   xmlns="http://www.w3.org/2000/svg"
   xmlns:sodipodi="http://sodipodi.sourceforge.net/DTD/sodipodi-0.dtd"
   xmlns:inkscape="http://www.inkscape.org/namespaces/inkscape"
   version="1.0"
   width="28.000000pt"
   height="28.000000pt"
   viewBox="0 0 28.000000 28.000000"
   preserveAspectRatio="xMidYMid meet"
   id="svg5114"
   inkscape:version="0.91 r"
   sodipodi:docname="cd_0_5.svg">
  <defs
     id="defs5126" />
  <sodipodi:namedview
     pagecolor="#ffffff"
     bordercolor="#666666"
     borderopacity="1"
     objecttolerance="10"
     gridtolerance="10"
     guidetolerance="10"
     inkscape:pageopacity="0"
     inkscape:pageshadow="2"
     inkscape:window-width="1863"
     inkscape:window-height="1056"
     id="namedview5124"
     showgrid="false"
     inkscape:zoom="26.257143"
     inkscape:cx="17.5"
     inkscape:cy="17.5"
     inkscape:window-x="57"
     inkscape:window-y="24"
     inkscape:window-maximized="1"
     inkscape:current-layer="svg5114" />
  <metadata
     id="metadata5116">
Created by potrace 1.11, written by Peter Selinger 2001-2013
<rdf:RDF>
  <cc:Work
     rdf:about="">
    <dc:format>image/svg+xml</dc:format>
    <dc:type
       rdf:resource="http://purl.org/dc/dcmitype/StillImage" />
  </cc:Work>
</rdf:RDF>
</metadata>
  <g
     transform="translate(0.000000,28.000000) scale(0.100000,-0.100000)"
     fill="#000000"
     stroke="none"
     id="g5118">
    <path
       d="M 18.15625 7.578125 C 17.0625 7.625 15.625 8.3125 13.75 9.625 C 7.875 13.75 5 17.875 5 22.375 C 5 28.375 19.75 32.375 25.875 28.125 C 31.75 24 30.125 11.25 23.625 11.25 C 22.25 11.25 20.875 10.375 20.5 9.375 C 20 8.125 19.25 7.53125 18.15625 7.578125 z M 16.804688 12.90625 C 17.414062 12.90625 18.03125 12.9375 18.625 13 C 25.5 14 28.375 20.25 24.25 26 C 21.5 30 13.875 29.75 10 25.625 C 7.375 22.875 7.25 22.25 8.75 18.75 C 9.625 16.625 11.25 14.375 12.375 13.75 C 13.21875 13.1875 14.976562 12.90625 16.804688 12.90625 z "
       transform="matrix(8,0,0,-8,0,280)"
       id="path5120" />
  </g>
</svg>
