<?xml version="1.0" encoding="UTF-8" standalone="no"?>
<svg
   xmlns:dc="http://purl.org/dc/elements/1.1/"
   xmlns:cc="http://creativecommons.org/ns#"
   xmlns:rdf="http://www.w3.org/1999/02/22-rdf-syntax-ns#"
   xmlns:svg="http://www.w3.org/2000/svg"
   xmlns="http://www.w3.org/2000/svg"
   xmlns:sodipodi="http://sodipodi.sourceforge.net/DTD/sodipodi-0.dtd"
   xmlns:inkscape="http://www.inkscape.org/namespaces/inkscape"
   version="1.0"
   width="28.000000pt"
   height="28.000000pt"
   viewBox="0 0 28.000000 28.000000"
   preserveAspectRatio="xMidYMid meet"
   id="svg4950"
   inkscape:version="0.91 r"
   sodipodi:docname="cd_0_3.svg">
  <defs
     id="defs4962" />
  <sodipodi:namedview
     pagecolor="#ffffff"
     bordercolor="#666666"
     borderopacity="1"
     objecttolerance="10"
     gridtolerance="10"
     guidetolerance="10"
     inkscape:pageopacity="0"
     inkscape:pageshadow="2"
     inkscape:window-width="1863"
     inkscape:window-height="1056"
     id="namedview4960"
     showgrid="false"
     inkscape:zoom="26.257143"
     inkscape:cx="17.5"
     inkscape:cy="17.5"
     inkscape:window-x="57"
     inkscape:window-y="24"
     inkscape:window-maximized="1"
     inkscape:current-layer="svg4950" />
  <metadata
     id="metadata4952">
Created by potrace 1.11, written by Peter Selinger 2001-2013
<rdf:RDF>
  <cc:Work
     rdf:about="">
    <dc:format>image/svg+xml</dc:format>
    <dc:type
       rdf:resource="http://purl.org/dc/dcmitype/StillImage" />
  </cc:Work>
</rdf:RDF>
</metadata>
  <g
     transform="translate(0.000000,28.000000) scale(0.100000,-0.100000)"
     fill="#000000"
     stroke="none"
     id="g4954">
    <path
       d="M 23.527344 6.4960938 C 19.588287 6.9149475 11.054688 13.726562 8.125 19 C 3 28.5 10.125 34.25 20.625 29.25 C 26.625 26.5 29.25 20.25 27.875 12.5 C 27.125 8.125 26.25 6.75 24.25 6.5 C 24.03125 6.46875 23.789948 6.4681702 23.527344 6.4960938 z M 20.390625 11.701172 C 20.572021 11.687256 20.734375 11.703125 20.875 11.75 C 21.875 12.125 23.25 12.5 23.875 12.5 C 24.5 12.5 25 15 25 17.875 C 25 24.625 22 27.75 15.375 28 C 11 28.125 10.625 27.875 10.25 24.375 C 10 21.375 10.875 19.5 14.5 15.75 C 16.90625 13.34375 19.12085 11.798584 20.390625 11.701172 z M 10.9375 35 C 11.666667 35 14.583333 35 17.5 35 C 11.666667 35 10.208333 35 10.9375 35 z "
       transform="matrix(8,0,0,-8,0,280)"
       id="path4956" />
  </g>
</svg>
