<?xml version="1.0" encoding="UTF-8" standalone="no"?>
<svg
   xmlns:dc="http://purl.org/dc/elements/1.1/"
   xmlns:cc="http://creativecommons.org/ns#"
   xmlns:rdf="http://www.w3.org/1999/02/22-rdf-syntax-ns#"
   xmlns:svg="http://www.w3.org/2000/svg"
   xmlns="http://www.w3.org/2000/svg"
   xmlns:sodipodi="http://sodipodi.sourceforge.net/DTD/sodipodi-0.dtd"
   xmlns:inkscape="http://www.inkscape.org/namespaces/inkscape"
   version="1.0"
   width="28.000000pt"
   height="28.000000pt"
   viewBox="0 0 28.000000 28.000000"
   preserveAspectRatio="xMidYMid meet"
   id="svg4271"
   inkscape:version="0.91 r"
   sodipodi:docname="cd_0_1.svg">
  <defs
     id="defs4283" />
  <sodipodi:namedview
     pagecolor="#ffffff"
     bordercolor="#666666"
     borderopacity="1"
     objecttolerance="10"
     gridtolerance="10"
     guidetolerance="10"
     inkscape:pageopacity="0"
     inkscape:pageshadow="2"
     inkscape:window-width="1863"
     inkscape:window-height="1056"
     id="namedview4281"
     showgrid="false"
     inkscape:zoom="19.07168"
     inkscape:cx="20.99939"
     inkscape:cy="18.256431"
     inkscape:window-x="57"
     inkscape:window-y="24"
     inkscape:window-maximized="1"
     inkscape:current-layer="svg4271" />
  <metadata
     id="metadata4273">
Created by potrace 1.11, written by Peter Selinger 2001-2013
<rdf:RDF>
  <cc:Work
     rdf:about="">
    <dc:format>image/svg+xml</dc:format>
    <dc:type
       rdf:resource="http://purl.org/dc/dcmitype/StillImage" />
  </cc:Work>
</rdf:RDF>
</metadata>
  <g
     transform="translate(0.000000,28.000000) scale(0.100000,-0.100000)"
     fill="#000000"
     stroke="none"
     id="g4275">
    <path
       d="M 18.207031 5.1054688 C 17.059326 5.1325684 15.921875 5.8125 14.75 7.125 C 10.25 12.25 10.625 23.125 15.375 27.5 C 18.75 30.75 21.5 30.625 24.75 27.125 C 28.5 23.25 28.25 17.375 24.25 10.5 C 22.0625 6.828125 20.119873 5.0603027 18.207031 5.1054688 z M 18.818359 7.7734375 C 20.154572 7.6860962 21.546875 9.4140625 23.375 13 C 26.375 19 25.875 24.375 22.25 26.75 C 17.375 29.75 12.25 17.875 15.625 11.25 C 16.773438 9.0078125 17.779083 7.8413696 18.818359 7.7734375 z "
       transform="matrix(8,0,0,-8,0,280)"
       id="path4277" />
  </g>
</svg>
