<?xml version="1.0" encoding="UTF-8" standalone="no"?>
<svg
   xmlns:dc="http://purl.org/dc/elements/1.1/"
   xmlns:cc="http://creativecommons.org/ns#"
   xmlns:rdf="http://www.w3.org/1999/02/22-rdf-syntax-ns#"
   xmlns:svg="http://www.w3.org/2000/svg"
   xmlns="http://www.w3.org/2000/svg"
   xmlns:sodipodi="http://sodipodi.sourceforge.net/DTD/sodipodi-0.dtd"
   xmlns:inkscape="http://www.inkscape.org/namespaces/inkscape"
   version="1.0"
   width="28.000000pt"
   height="28.000000pt"
   viewBox="0 0 28.000000 28.000000"
   preserveAspectRatio="xMidYMid meet"
   id="svg4185"
   inkscape:version="0.91 r"
   sodipodi:docname="cd_0_0.svg">
  <defs
     id="defs4197" />
  <sodipodi:namedview
     pagecolor="#ffffff"
     bordercolor="#666666"
     borderopacity="1"
     objecttolerance="10"
     gridtolerance="10"
     guidetolerance="10"
     inkscape:pageopacity="0"
     inkscape:pageshadow="2"
     inkscape:window-width="1863"
     inkscape:window-height="1056"
     id="namedview4195"
     showgrid="false"
     inkscape:zoom="26.257143"
     inkscape:cx="17.5"
     inkscape:cy="17.5"
     inkscape:window-x="57"
     inkscape:window-y="24"
     inkscape:window-maximized="1"
     inkscape:current-layer="svg4185" />
  <metadata
     id="metadata4187">
Created by potrace 1.11, written by Peter Selinger 2001-2013
<rdf:RDF>
  <cc:Work
     rdf:about="">
    <dc:format>image/svg+xml</dc:format>
    <dc:type
       rdf:resource="http://purl.org/dc/dcmitype/StillImage" />
  </cc:Work>
</rdf:RDF>
</metadata>
  <g
     transform="translate(0.000000,28.000000) scale(0.100000,-0.100000)"
     fill="#000000"
     stroke="none"
     id="g4189">
    <path
       d="M 22.654297 5.0605469 C 17.475845 5.0686531 10 14.085938 10 22.875 C 10 31.125 16.5 32.5 23.25 25.75 C 26.875 22.125 27.5 20.625 27.5 15.625 C 27.5 12.5 26.875 8.75 26.25 7.375 C 25.375 5.7617188 24.104263 5.0582771 22.654297 5.0605469 z M 22.353516 7.4589844 C 23.94165 7.5651855 24.9375 8.921875 25.25 11.5 C 26.5 19.875 22.125 27.5 16.25 27.5 C 13.75 27.5 12.625 26.75 12.125 24.875 C 11.125 21.25 14.25 13.125 16.625 13.25 C 17.875 13.375 18.25 12.75 17.875 11.625 C 17.5 10.625 17.875 9.25 18.875 8.625 C 20.234375 7.78125 21.400635 7.3952637 22.353516 7.4589844 z M 21.875 35 C 23.333333 35 29.166667 35 35 35 C 23.333333 35 20.416667 35 21.875 35 z "
       transform="matrix(8,0,0,-8,0,280)"
       id="path4191" />
  </g>
</svg>
