<?xml version="1.0" encoding="UTF-8" standalone="no"?>
<svg
   xmlns:dc="http://purl.org/dc/elements/1.1/"
   xmlns:cc="http://creativecommons.org/ns#"
   xmlns:rdf="http://www.w3.org/1999/02/22-rdf-syntax-ns#"
   xmlns:svg="http://www.w3.org/2000/svg"
   xmlns="http://www.w3.org/2000/svg"
   xmlns:sodipodi="http://sodipodi.sourceforge.net/DTD/sodipodi-0.dtd"
   xmlns:inkscape="http://www.inkscape.org/namespaces/inkscape"
   version="1.0"
   width="28.000000pt"
   height="28.000000pt"
   viewBox="0 0 28.000000 28.000000"
   preserveAspectRatio="xMidYMid meet"
   id="svg4589"
   inkscape:version="0.91 r"
   sodipodi:docname="cd_2_5.svg">
  <defs
     id="defs4601" />
  <sodipodi:namedview
     pagecolor="#ffffff"
     bordercolor="#666666"
     borderopacity="1"
     objecttolerance="10"
     gridtolerance="10"
     guidetolerance="10"
     inkscape:pageopacity="0"
     inkscape:pageshadow="2"
     inkscape:window-width="1863"
     inkscape:window-height="1056"
     id="namedview4599"
     showgrid="false"
     inkscape:zoom="26.257143"
     inkscape:cx="17.5"
     inkscape:cy="17.5"
     inkscape:window-x="57"
     inkscape:window-y="24"
     inkscape:window-maximized="1"
     inkscape:current-layer="svg4589" />
  <metadata
     id="metadata4591">
Created by potrace 1.11, written by Peter Selinger 2001-2013
<rdf:RDF>
  <cc:Work
     rdf:about="">
    <dc:format>image/svg+xml</dc:format>
    <dc:type
       rdf:resource="http://purl.org/dc/dcmitype/StillImage" />
  </cc:Work>
</rdf:RDF>
</metadata>
  <g
     transform="translate(0.000000,28.000000) scale(0.100000,-0.100000)"
     fill="#000000"
     stroke="none"
     id="g4593">
    <path
       d="M 17.595703 6.390625 C 15.768402 6.4263306 13.875 7.40625 11.625 9.375 C 9 11.75 8.625 12.375 10.25 12.5 C 11.375 12.5 12.75 11.875 13.125 11.25 C 14.125 9.75 19.625 9.625 20.5 11.125 C 20.875 11.75 20.625 14 19.875 16.125 C 18.75 19.125 17.75 20 15.125 20 C 9.25 20 6.5 25 11.125 27.5 C 14.125 29 17.125 28 18.125 25 C 18.75 23 19.375 22.875 22.5 23.875 C 24.375 24.625 27.875 25 30.25 24.75 L 34.375 24.25 L 29.25 23.25 C 21.5 21.75 21.25 21.375 22.875 15.125 C 24.125 10.375 24.125 9.625 21.875 8 C 20.398438 6.90625 19.016937 6.362854 17.595703 6.390625 z M 14.4375 22.5 C 15.40625 22.5 16.25 22.875 16.25 23.625 C 16.25 25.375 14 26.5 12.5 25.625 C 11.75 25.125 11.5 24.25 11.875 23.625 C 12.375 22.875 13.46875 22.5 14.4375 22.5 z "
       transform="matrix(8,0,0,-8,0,280)"
       id="path4595" />
  </g>
</svg>
