<?xml version="1.0" encoding="UTF-8" standalone="no"?>
<svg
   xmlns:dc="http://purl.org/dc/elements/1.1/"
   xmlns:cc="http://creativecommons.org/ns#"
   xmlns:rdf="http://www.w3.org/1999/02/22-rdf-syntax-ns#"
   xmlns:svg="http://www.w3.org/2000/svg"
   xmlns="http://www.w3.org/2000/svg"
   xmlns:sodipodi="http://sodipodi.sourceforge.net/DTD/sodipodi-0.dtd"
   xmlns:inkscape="http://www.inkscape.org/namespaces/inkscape"
   version="1.0"
   width="28.000000pt"
   height="28.000000pt"
   viewBox="0 0 28.000000 28.000000"
   preserveAspectRatio="xMidYMid meet"
   id="svg4359"
   inkscape:version="0.91 r"
   sodipodi:docname="cd_2_3.svg">
  <defs
     id="defs4371" />
  <sodipodi:namedview
     pagecolor="#ffffff"
     bordercolor="#666666"
     borderopacity="1"
     objecttolerance="10"
     gridtolerance="10"
     guidetolerance="10"
     inkscape:pageopacity="0"
     inkscape:pageshadow="2"
     inkscape:window-width="1863"
     inkscape:window-height="1056"
     id="namedview4369"
     showgrid="false"
     inkscape:zoom="26.257143"
     inkscape:cx="17.5"
     inkscape:cy="19.023395"
     inkscape:window-x="57"
     inkscape:window-y="24"
     inkscape:window-maximized="1"
     inkscape:current-layer="svg4359" />
  <metadata
     id="metadata4361">
Created by potrace 1.11, written by Peter Selinger 2001-2013
<rdf:RDF>
  <cc:Work
     rdf:about="">
    <dc:format>image/svg+xml</dc:format>
    <dc:type
       rdf:resource="http://purl.org/dc/dcmitype/StillImage" />
  </cc:Work>
</rdf:RDF>
</metadata>
  <g
     transform="translate(0.000000,28.000000) scale(0.100000,-0.100000)"
     fill="#000000"
     stroke="none"
     id="g4363">
    <path
       d="M 20.486328 6.4921875 C 17.600586 6.8680115 10.210938 13.210938 11.5 14.5 C 12 15 13.625 13.875 15.125 12.125 C 20 5.875 23.75 9.625 20.5 17.375 C 19.25 20.5 18.25 21.25 16.5 20.75 C 13.75 19.875 9.25 24.125 10.625 26.25 C 11.125 27 12.75 27.375 14.25 27 C 16.125 26.5 17.5 27.125 18.625 28.875 C 20.625 32.25 21.875 31 20 27.5 C 18.875 25.375 19.125 24.125 21.25 20.625 C 23 17.75 23.75 14.75 23.5 11.625 C 23.25 8.375 22.5 6.75 21 6.5 C 20.851562 6.46875 20.678711 6.4671326 20.486328 6.4921875 z M 14.375 22.5 C 15.375 22.5 16.25 23 16.25 23.625 C 16.25 24.25 15.375 25 14.375 25.5 C 13.25 25.875 12.5 25.5 12.5 24.375 C 12.5 23.375 13.375 22.5 14.375 22.5 z "
       transform="matrix(8,0,0,-8,0,280)"
       id="path4365" />
  </g>
</svg>
