<?xml version="1.0" encoding="UTF-8" standalone="no"?>
<svg
   xmlns:dc="http://purl.org/dc/elements/1.1/"
   xmlns:cc="http://creativecommons.org/ns#"
   xmlns:rdf="http://www.w3.org/1999/02/22-rdf-syntax-ns#"
   xmlns:svg="http://www.w3.org/2000/svg"
   xmlns="http://www.w3.org/2000/svg"
   xmlns:sodipodi="http://sodipodi.sourceforge.net/DTD/sodipodi-0.dtd"
   xmlns:inkscape="http://www.inkscape.org/namespaces/inkscape"
   version="1.0"
   width="28.000000pt"
   height="28.000000pt"
   viewBox="0 0 28.000000 28.000000"
   preserveAspectRatio="xMidYMid meet"
   id="svg4201"
   inkscape:version="0.91 r"
   sodipodi:docname="cd_2_1.svg">
  <defs
     id="defs4211" />
  <sodipodi:namedview
     pagecolor="#ffffff"
     bordercolor="#666666"
     borderopacity="1"
     objecttolerance="10"
     gridtolerance="10"
     guidetolerance="10"
     inkscape:pageopacity="0"
     inkscape:pageshadow="2"
     inkscape:window-width="1863"
     inkscape:window-height="1056"
     id="namedview4209"
     showgrid="false"
     inkscape:zoom="26.257143"
     inkscape:cx="17.5"
     inkscape:cy="12.929815"
     inkscape:window-x="57"
     inkscape:window-y="24"
     inkscape:window-maximized="1"
     inkscape:current-layer="svg4201" />
  <metadata
     id="metadata4203">
Created by potrace 1.11, written by Peter Selinger 2001-2013
<rdf:RDF>
  <cc:Work
     rdf:about="">
    <dc:format>image/svg+xml</dc:format>
    <dc:type
       rdf:resource="http://purl.org/dc/dcmitype/StillImage" />
  </cc:Work>
</rdf:RDF>
</metadata>
  <g
     transform="translate(0.000000,28.000000) scale(0.100000,-0.100000)"
     fill="#000000"
     stroke="none"
     id="g4205">
    <path
       d="m 155,225 c 30,-29 33,-77 6,-104 -19,-19 -19,-19 13,-25 37,-7 74,-31 64,-41 -3,-4 -15,-2 -26,4 -24,13 -75,15 -117,6 -28,-6 -27,-4 23,40 28,26 52,53 52,60 0,8 -10,26 -23,41 -19,22 -29,26 -50,20 -16,-4 -27,-13 -27,-23 0,-9 -3,-14 -6,-10 -10,10 6,46 24,50 34,9 43,7 67,-18 z"
       id="path4207"
       inkscape:connector-curvature="0"
       sodipodi:nodetypes="cscccscsccsccc" />
  </g>
</svg>
