<?xml version="1.0" encoding="UTF-8" standalone="no"?>
<svg
   xmlns:dc="http://purl.org/dc/elements/1.1/"
   xmlns:cc="http://creativecommons.org/ns#"
   xmlns:rdf="http://www.w3.org/1999/02/22-rdf-syntax-ns#"
   xmlns:svg="http://www.w3.org/2000/svg"
   xmlns="http://www.w3.org/2000/svg"
   xmlns:sodipodi="http://sodipodi.sourceforge.net/DTD/sodipodi-0.dtd"
   xmlns:inkscape="http://www.inkscape.org/namespaces/inkscape"
   version="1.0"
   width="28.000000pt"
   height="28.000000pt"
   viewBox="0 0 28.000000 28.000000"
   preserveAspectRatio="xMidYMid meet"
   id="svg4487"
   inkscape:version="0.91 r"
   sodipodi:docname="cd_2_4.svg">
  <defs
     id="defs4499" />
  <sodipodi:namedview
     pagecolor="#ffffff"
     bordercolor="#666666"
     borderopacity="1"
     objecttolerance="10"
     gridtolerance="10"
     guidetolerance="10"
     inkscape:pageopacity="0"
     inkscape:pageshadow="2"
     inkscape:window-width="1863"
     inkscape:window-height="1056"
     id="namedview4497"
     showgrid="false"
     inkscape:zoom="26.257143"
     inkscape:cx="17.5"
     inkscape:cy="32.73395"
     inkscape:window-x="57"
     inkscape:window-y="24"
     inkscape:window-maximized="1"
     inkscape:current-layer="svg4487" />
  <metadata
     id="metadata4489">
Created by potrace 1.11, written by Peter Selinger 2001-2013
<rdf:RDF>
  <cc:Work
     rdf:about="">
    <dc:format>image/svg+xml</dc:format>
    <dc:type
       rdf:resource="http://purl.org/dc/dcmitype/StillImage" />
  </cc:Work>
</rdf:RDF>
</metadata>
  <g
     transform="translate(0.000000,28.000000) scale(0.100000,-0.100000)"
     fill="#000000"
     stroke="none"
     id="g4491">
    <path
       d="M 21 3.75 C 18.5 3.75 11.25 9.125 11.25 10.875 C 11.25 13.25 13.375 12.875 16.375 9.875 C 19.375 6.875 21.875 7.25 22 10.75 C 22 13.375 20 18.75 18.875 18.875 C 18.25 18.875 15 19.625 11.875 20.375 C 8.875 21.125 7.5 22.875 7.5 25.75 C 7.5 29.75 11.75 29.75 16.75 25.625 L 20.5 22.625 L 25.125 25 C 29.375 27.25 31.25 27.125 31.25 24.875 C 31.25 24.5 29.375 23.125 27 22 C 22.875 20.125 22.875 20 24.125 15.125 C 25.125 11.5 25.125 9.25 24 7 C 23.25 5.25 21.875 3.75 21 3.75 z M 14.207031 21.337891 C 14.727783 21.419922 15.203125 21.765625 15.625 22.375 C 16.375 23.75 11.5 26.875 10.375 25.75 C 10 25.375 10.375 24.25 11.25 23.125 C 12.34375 21.796875 13.339111 21.201172 14.207031 21.337891 z "
       transform="matrix(8,0,0,-8,0,280)"
       id="path4493" />
  </g>
</svg>
