<?xml version="1.0" encoding="UTF-8" standalone="no"?>
<svg
   xmlns:dc="http://purl.org/dc/elements/1.1/"
   xmlns:cc="http://creativecommons.org/ns#"
   xmlns:rdf="http://www.w3.org/1999/02/22-rdf-syntax-ns#"
   xmlns:svg="http://www.w3.org/2000/svg"
   xmlns="http://www.w3.org/2000/svg"
   xmlns:sodipodi="http://sodipodi.sourceforge.net/DTD/sodipodi-0.dtd"
   xmlns:inkscape="http://www.inkscape.org/namespaces/inkscape"
   version="1.0"
   width="28.000000pt"
   height="28.000000pt"
   viewBox="0 0 28.000000 28.000000"
   preserveAspectRatio="xMidYMid meet"
   id="svg4360"
   inkscape:version="0.91 r"
   sodipodi:docname="cd_3_2.svg">
  <defs
     id="defs4370" />
  <sodipodi:namedview
     pagecolor="#ffffff"
     bordercolor="#666666"
     borderopacity="1"
     objecttolerance="10"
     gridtolerance="10"
     guidetolerance="10"
     inkscape:pageopacity="0"
     inkscape:pageshadow="2"
     inkscape:window-width="1863"
     inkscape:window-height="1056"
     id="namedview4368"
     showgrid="false"
     inkscape:zoom="26.257143"
     inkscape:cx="17.5"
     inkscape:cy="17.5"
     inkscape:window-x="57"
     inkscape:window-y="24"
     inkscape:window-maximized="1"
     inkscape:current-layer="svg4360" />
  <metadata
     id="metadata4362">
Created by potrace 1.11, written by Peter Selinger 2001-2013
<rdf:RDF>
  <cc:Work
     rdf:about="">
    <dc:format>image/svg+xml</dc:format>
    <dc:type
       rdf:resource="http://purl.org/dc/dcmitype/StillImage" />
  </cc:Work>
</rdf:RDF>
</metadata>
  <g
     transform="translate(0.000000,28.000000) scale(0.100000,-0.100000)"
     fill="#000000"
     stroke="none"
     id="g4364">
    <path
       d="m 178,218 c 9,-9 8,-16 -5,-30 -14,-15 -14,-22 -3,-42 18,-35 6,-67 -35,-95 -53,-36 -56,-16 -5,28 45,39 45,39 26,60 -16,18 -17,25 -8,46 13,29 6,32 -26,9 -28,-20 -28,-11 0,16 25,23 39,25 56,8 z"
       id="path4366"
       inkscape:connector-curvature="0"
       sodipodi:nodetypes="sccccccccs" />
  </g>
</svg>
