<?xml version="1.0" encoding="UTF-8" standalone="no"?>
<svg
   xmlns:dc="http://purl.org/dc/elements/1.1/"
   xmlns:cc="http://creativecommons.org/ns#"
   xmlns:rdf="http://www.w3.org/1999/02/22-rdf-syntax-ns#"
   xmlns:svg="http://www.w3.org/2000/svg"
   xmlns="http://www.w3.org/2000/svg"
   xmlns:sodipodi="http://sodipodi.sourceforge.net/DTD/sodipodi-0.dtd"
   xmlns:inkscape="http://www.inkscape.org/namespaces/inkscape"
   version="1.0"
   width="28.000000pt"
   height="28.000000pt"
   viewBox="0 0 28.000000 28.000000"
   preserveAspectRatio="xMidYMid meet"
   id="svg4492"
   inkscape:version="0.91 r"
   sodipodi:docname="cd_5_3.svg">
  <defs
     id="defs4502" />
  <sodipodi:namedview
     pagecolor="#ffffff"
     bordercolor="#666666"
     borderopacity="1"
     objecttolerance="10"
     gridtolerance="10"
     guidetolerance="10"
     inkscape:pageopacity="0"
     inkscape:pageshadow="2"
     inkscape:window-width="1863"
     inkscape:window-height="1056"
     id="namedview4500"
     showgrid="false"
     inkscape:zoom="26.257143"
     inkscape:cx="17.5"
     inkscape:cy="17.5"
     inkscape:window-x="57"
     inkscape:window-y="24"
     inkscape:window-maximized="1"
     inkscape:current-layer="svg4492" />
  <metadata
     id="metadata4494">
Created by potrace 1.11, written by Peter Selinger 2001-2013
<rdf:RDF>
  <cc:Work
     rdf:about="">
    <dc:format>image/svg+xml</dc:format>
    <dc:type
       rdf:resource="http://purl.org/dc/dcmitype/StillImage" />
  </cc:Work>
</rdf:RDF>
</metadata>
  <g
     transform="translate(0.000000,28.000000) scale(0.100000,-0.100000)"
     fill="#000000"
     stroke="none"
     id="g4496">
    <path
       d="m 220,228 c 0,-8 -21,-12 -52,-10 -10,1 -22,-7 -28,-18 -9,-17 -8,-20 13,-20 16,0 31,-10 42,-26 14,-22 15,-30 4,-55 C 184,63 140,38 97,42 63,45 43,80 75,80 c 9,0 13,-4 10,-10 -11,-19 42,-10 69,11 17,14 26,30 26,50 0,24 -4,29 -25,29 -14,0 -25,-4 -25,-10 0,-5 -11,-10 -25,-10 -14,0 -25,3 -25,6 0,9 42,68 58,81 16,14 82,15 82,1 z"
       id="path4498"
       inkscape:connector-curvature="0"
       sodipodi:nodetypes="sccscccsccssssscs" />
  </g>
</svg>
