<?xml version="1.0" encoding="UTF-8" standalone="no"?>
<svg
   xmlns:dc="http://purl.org/dc/elements/1.1/"
   xmlns:cc="http://creativecommons.org/ns#"
   xmlns:rdf="http://www.w3.org/1999/02/22-rdf-syntax-ns#"
   xmlns:svg="http://www.w3.org/2000/svg"
   xmlns="http://www.w3.org/2000/svg"
   xmlns:sodipodi="http://sodipodi.sourceforge.net/DTD/sodipodi-0.dtd"
   xmlns:inkscape="http://www.inkscape.org/namespaces/inkscape"
   version="1.0"
   width="28.000000pt"
   height="28.000000pt"
   viewBox="0 0 28.000000 28.000000"
   preserveAspectRatio="xMidYMid meet"
   id="svg4339"
   inkscape:version="0.91 r"
   sodipodi:docname="cd_5_2.svg">
  <defs
     id="defs4349" />
  <sodipodi:namedview
     pagecolor="#ffffff"
     bordercolor="#666666"
     borderopacity="1"
     objecttolerance="10"
     gridtolerance="10"
     guidetolerance="10"
     inkscape:pageopacity="0"
     inkscape:pageshadow="2"
     inkscape:window-width="1863"
     inkscape:window-height="1056"
     id="namedview4347"
     showgrid="false"
     inkscape:zoom="26.257143"
     inkscape:cx="17.5"
     inkscape:cy="17.5"
     inkscape:window-x="57"
     inkscape:window-y="24"
     inkscape:window-maximized="1"
     inkscape:current-layer="svg4339" />
  <metadata
     id="metadata4341">
Created by potrace 1.11, written by Peter Selinger 2001-2013
<rdf:RDF>
  <cc:Work
     rdf:about="">
    <dc:format>image/svg+xml</dc:format>
    <dc:type
       rdf:resource="http://purl.org/dc/dcmitype/StillImage" />
  </cc:Work>
</rdf:RDF>
</metadata>
  <g
     transform="translate(0.000000,28.000000) scale(0.100000,-0.100000)"
     fill="#000000"
     stroke="none"
     id="g4343">
    <path
       d="m 183,227 c 24,4 37,2 37,-6 0,-6 -12,-11 -27,-11 -34,0 -48,-9 -57,-35 -5,-16 0,-23 24,-32 26,-10 30,-17 30,-47 0,-37 -20,-56 -59,-56 -24,0 -51,25 -51,48 0,13 3,12 16,-6 19,-27 60,-29 74,-3 16,31 2,51 -36,51 -32,0 -34,2 -24,21 6,11 11,32 10,47 -3,41 -1,45 13,34 8,-7 29,-9 50,-5 z"
       id="path4345"
       inkscape:connector-curvature="0"
       sodipodi:nodetypes="cssccsssccscccc" />
  </g>
</svg>
