<?xml version="1.0" encoding="UTF-8" standalone="no"?>
<svg
   xmlns:dc="http://purl.org/dc/elements/1.1/"
   xmlns:cc="http://creativecommons.org/ns#"
   xmlns:rdf="http://www.w3.org/1999/02/22-rdf-syntax-ns#"
   xmlns:svg="http://www.w3.org/2000/svg"
   xmlns="http://www.w3.org/2000/svg"
   xmlns:sodipodi="http://sodipodi.sourceforge.net/DTD/sodipodi-0.dtd"
   xmlns:inkscape="http://www.inkscape.org/namespaces/inkscape"
   version="1.0"
   width="28.000000pt"
   height="28.000000pt"
   viewBox="0 0 28.000000 28.000000"
   preserveAspectRatio="xMidYMid meet"
   id="svg4567"
   inkscape:version="0.91 r"
   sodipodi:docname="cd_6_3.svg">
  <defs
     id="defs4579" />
  <sodipodi:namedview
     pagecolor="#ffffff"
     bordercolor="#666666"
     borderopacity="1"
     objecttolerance="10"
     gridtolerance="10"
     guidetolerance="10"
     inkscape:pageopacity="0"
     inkscape:pageshadow="2"
     inkscape:window-width="1863"
     inkscape:window-height="1056"
     id="namedview4577"
     showgrid="false"
     inkscape:zoom="26.257143"
     inkscape:cx="17.5"
     inkscape:cy="17.5"
     inkscape:window-x="57"
     inkscape:window-y="24"
     inkscape:window-maximized="1"
     inkscape:current-layer="svg4567" />
  <metadata
     id="metadata4569">
Created by potrace 1.11, written by Peter Selinger 2001-2013
<rdf:RDF>
  <cc:Work
     rdf:about="">
    <dc:format>image/svg+xml</dc:format>
    <dc:type
       rdf:resource="http://purl.org/dc/dcmitype/StillImage" />
  </cc:Work>
</rdf:RDF>
</metadata>
  <g
     transform="translate(0.000000,28.000000) scale(0.100000,-0.100000)"
     fill="#000000"
     stroke="none"
     id="g4571">
    <path
       d="M 22.5 2.5 C 21.875 2.5 21.25 3 21.25 3.75 C 21.25 4.375 18.75 8.5 15.625 12.875 C 12.5 17.5 10 22.375 10 24.25 C 10 27.25 10.375 27.5 15.5 27.5 C 19.625 27.5 21.625 26.75 24.25 24.25 C 27.625 20.875 28.5 17 26.25 15.625 C 25.5 15.125 22.375 16.25 19.375 18 C 16.25 19.625 13.75 20.75 13.75 20.375 C 13.75 20.125 16 16.625 18.75 12.625 C 21.5 8.75 23.75 4.875 23.75 4 C 23.75 3.125 23.25 2.5 22.5 2.5 z M 24.998047 17.556641 C 25.793457 17.519287 26.25 17.90625 26.25 18.75 C 26.25 20.375 21.25 24.875 18.375 25.75 C 14.125 27.125 14.25 24.875 18.75 21.125 C 21.40625 18.859375 23.672363 17.618896 24.998047 17.556641 z "
       transform="matrix(8,0,0,-8,0,280)"
       id="path4573" />
  </g>
</svg>
