<?xml version="1.0" encoding="UTF-8" standalone="no"?>
<svg
   xmlns:dc="http://purl.org/dc/elements/1.1/"
   xmlns:cc="http://creativecommons.org/ns#"
   xmlns:rdf="http://www.w3.org/1999/02/22-rdf-syntax-ns#"
   xmlns:svg="http://www.w3.org/2000/svg"
   xmlns="http://www.w3.org/2000/svg"
   xmlns:sodipodi="http://sodipodi.sourceforge.net/DTD/sodipodi-0.dtd"
   xmlns:inkscape="http://www.inkscape.org/namespaces/inkscape"
   version="1.0"
   width="28.000000pt"
   height="28.000000pt"
   viewBox="0 0 28.000000 28.000000"
   preserveAspectRatio="xMidYMid meet"
   id="svg4784"
   inkscape:version="0.91 r"
   sodipodi:docname="cd_6_5.svg">
  <defs
     id="defs4796" />
  <sodipodi:namedview
     pagecolor="#ffffff"
     bordercolor="#666666"
     borderopacity="1"
     objecttolerance="10"
     gridtolerance="10"
     guidetolerance="10"
     inkscape:pageopacity="0"
     inkscape:pageshadow="2"
     inkscape:window-width="1863"
     inkscape:window-height="1056"
     id="namedview4794"
     showgrid="false"
     inkscape:zoom="26.257143"
     inkscape:cx="17.5"
     inkscape:cy="17.5"
     inkscape:window-x="57"
     inkscape:window-y="24"
     inkscape:window-maximized="1"
     inkscape:current-layer="svg4784" />
  <metadata
     id="metadata4786">
Created by potrace 1.11, written by Peter Selinger 2001-2013
<rdf:RDF>
  <cc:Work
     rdf:about="">
    <dc:format>image/svg+xml</dc:format>
    <dc:type
       rdf:resource="http://purl.org/dc/dcmitype/StillImage" />
  </cc:Work>
</rdf:RDF>
</metadata>
  <g
     transform="translate(0.000000,28.000000) scale(0.100000,-0.100000)"
     fill="#000000"
     stroke="none"
     id="g4788">
    <path
       d="M 23.720703 3.7324219 C 22.438965 3.7678223 20.4375 4.96875 18.875 7 C 14.625 12.375 11.875 21 13.25 24.75 C 14.75 29.125 18.125 29.625 20.5 26 C 22.875 22.5 21.875 17.875 18.625 16.875 C 16.25 16.125 16.25 15.875 19 11.125 C 20.5 8.5 22.5 6.25 23.375 6.25 C 24.25 6.25 25 5.625 25 5 C 25 4.109375 24.489746 3.7111816 23.720703 3.7324219 z M 17.953125 18.8125 C 18.506104 18.869629 19.109375 19.484375 19.625 20.75 C 20 21.75 19.375 23.625 18.25 24.75 C 16.375 26.625 16.25 26.5 16.25 22.75 C 16.25 20.171875 17.031494 18.717285 17.953125 18.8125 z "
       transform="matrix(8,0,0,-8,0,280)"
       id="path4790" />
  </g>
</svg>
