<?xml version="1.0" encoding="UTF-8" standalone="no"?>
<svg
   xmlns:dc="http://purl.org/dc/elements/1.1/"
   xmlns:cc="http://creativecommons.org/ns#"
   xmlns:rdf="http://www.w3.org/1999/02/22-rdf-syntax-ns#"
   xmlns:svg="http://www.w3.org/2000/svg"
   xmlns="http://www.w3.org/2000/svg"
   xmlns:sodipodi="http://sodipodi.sourceforge.net/DTD/sodipodi-0.dtd"
   xmlns:inkscape="http://www.inkscape.org/namespaces/inkscape"
   version="1.0"
   width="28.000000pt"
   height="28.000000pt"
   viewBox="0 0 28.000000 28.000000"
   preserveAspectRatio="xMidYMid meet"
   id="svg4687"
   inkscape:version="0.91 r"
   sodipodi:docname="cd_6_4.svg">
  <defs
     id="defs4697" />
  <sodipodi:namedview
     pagecolor="#ffffff"
     bordercolor="#666666"
     borderopacity="1"
     objecttolerance="10"
     gridtolerance="10"
     guidetolerance="10"
     inkscape:pageopacity="0"
     inkscape:pageshadow="2"
     inkscape:window-width="1863"
     inkscape:window-height="1056"
     id="namedview4695"
     showgrid="false"
     inkscape:zoom="26.257143"
     inkscape:cx="17.5"
     inkscape:cy="17.5"
     inkscape:window-x="57"
     inkscape:window-y="24"
     inkscape:window-maximized="1"
     inkscape:current-layer="svg4687" />
  <metadata
     id="metadata4689">
Created by potrace 1.11, written by Peter Selinger 2001-2013
<rdf:RDF>
  <cc:Work
     rdf:about="">
    <dc:format>image/svg+xml</dc:format>
    <dc:type
       rdf:resource="http://purl.org/dc/dcmitype/StillImage" />
  </cc:Work>
</rdf:RDF>
</metadata>
  <g
     transform="translate(0.000000,28.000000) scale(0.100000,-0.100000)"
     fill="#000000"
     stroke="none"
     id="g4691">
    <path
       d="M 19.171875 2.7851562 C 18.820587 2.7376404 18.25 3.453125 17.125 5 C 16 6.625 14.010711 9.5000406 12.90625 11.572266 C 11.493454 14.550831 7.6058618 17.941059 11.375 25.75 C 13.625 28.5 19.625 27.125 24 22.875 C 28.5 18.625 28.625 15 24.375 15 C 21 15 16.875 18.75 16.875 21.875 C 16.875 22.875 16.375 23.75 15.625 23.625 C 13.625 23.625 14.625 17.375 17.625 11.75 C 19 8.875 20 5.5 19.75 4.25 C 19.585938 3.3203125 19.445099 2.822113 19.171875 2.7851562 z M 23.177734 17.669922 C 23.368899 17.682351 23.546393 17.740804 23.689453 17.861328 C 24.137742 18.238998 23.815619 19.0975 23.537109 19.613281 C 23.030294 20.551866 21.563968 21.722748 20.755859 21.060547 C 20.050442 20.482496 20.802838 19.225193 21.517578 18.433594 C 21.893661 18.017073 22.60424 17.632635 23.177734 17.669922 z "
       transform="matrix(8,0,0,-8,0,280)"
       id="path4693" />
  </g>
</svg>
