<?xml version="1.0" encoding="UTF-8" standalone="no"?>
<svg
   xmlns:dc="http://purl.org/dc/elements/1.1/"
   xmlns:cc="http://creativecommons.org/ns#"
   xmlns:rdf="http://www.w3.org/1999/02/22-rdf-syntax-ns#"
   xmlns:svg="http://www.w3.org/2000/svg"
   xmlns="http://www.w3.org/2000/svg"
   xmlns:sodipodi="http://sodipodi.sourceforge.net/DTD/sodipodi-0.dtd"
   xmlns:inkscape="http://www.inkscape.org/namespaces/inkscape"
   version="1.0"
   width="28.000000pt"
   height="28.000000pt"
   viewBox="0 0 28.000000 28.000000"
   preserveAspectRatio="xMidYMid meet"
   id="svg4599"
   inkscape:version="0.91 r"
   sodipodi:docname="cd_7_0.svg">
  <defs
     id="defs4609" />
  <sodipodi:namedview
     pagecolor="#ffffff"
     bordercolor="#666666"
     borderopacity="1"
     objecttolerance="10"
     gridtolerance="10"
     guidetolerance="10"
     inkscape:pageopacity="0"
     inkscape:pageshadow="2"
     inkscape:window-width="1863"
     inkscape:window-height="1056"
     id="namedview4607"
     showgrid="false"
     inkscape:zoom="26.257143"
     inkscape:cx="17.5"
     inkscape:cy="17.5"
     inkscape:window-x="57"
     inkscape:window-y="24"
     inkscape:window-maximized="1"
     inkscape:current-layer="svg4599" />
  <metadata
     id="metadata4601">
Created by potrace 1.11, written by Peter Selinger 2001-2013
<rdf:RDF>
  <cc:Work
     rdf:about="">
    <dc:format>image/svg+xml</dc:format>
    <dc:type
       rdf:resource="http://purl.org/dc/dcmitype/StillImage" />
  </cc:Work>
</rdf:RDF>
</metadata>
  <g
     transform="translate(0.000000,28.000000) scale(0.100000,-0.100000)"
     fill="#000000"
     stroke="none"
     id="g4603">
    <path
       d="m 136,200 c 32,-5 64,-16 72,-24 17,-17 8,-37 -47,-106 -19,-25 -36,-47 -38,-49 -1,-1 -7,-1 -13,1 -6,2 12,34 41,72 55,73 55,85 -6,86 -42,0 -105,19 -105,31 0,6 9,8 19,4 11,-3 45,-10 77,-15 z"
       id="path4605"
       inkscape:connector-curvature="0"
       sodipodi:nodetypes="sscssccscs" />
  </g>
</svg>
