<?xml version="1.0" encoding="UTF-8" standalone="no"?>
<svg
   xmlns:dc="http://purl.org/dc/elements/1.1/"
   xmlns:cc="http://creativecommons.org/ns#"
   xmlns:rdf="http://www.w3.org/1999/02/22-rdf-syntax-ns#"
   xmlns:svg="http://www.w3.org/2000/svg"
   xmlns="http://www.w3.org/2000/svg"
   xmlns:sodipodi="http://sodipodi.sourceforge.net/DTD/sodipodi-0.dtd"
   xmlns:inkscape="http://www.inkscape.org/namespaces/inkscape"
   version="1.0"
   width="28.000000pt"
   height="28.000000pt"
   viewBox="0 0 28.000000 28.000000"
   preserveAspectRatio="xMidYMid meet"
   id="svg4710"
   inkscape:version="0.91 r"
   sodipodi:docname="cd_8_0.svg">
  <defs
     id="defs4724" />
  <sodipodi:namedview
     pagecolor="#ffffff"
     bordercolor="#666666"
     borderopacity="1"
     objecttolerance="10"
     gridtolerance="10"
     guidetolerance="10"
     inkscape:pageopacity="0"
     inkscape:pageshadow="2"
     inkscape:window-width="1863"
     inkscape:window-height="1056"
     id="namedview4722"
     showgrid="false"
     inkscape:zoom="26.257143"
     inkscape:cx="17.5"
     inkscape:cy="17.5"
     inkscape:window-x="57"
     inkscape:window-y="24"
     inkscape:window-maximized="1"
     inkscape:current-layer="svg4710" />
  <metadata
     id="metadata4712">
Created by potrace 1.11, written by Peter Selinger 2001-2013
<rdf:RDF>
  <cc:Work
     rdf:about="">
    <dc:format>image/svg+xml</dc:format>
    <dc:type
       rdf:resource="http://purl.org/dc/dcmitype/StillImage" />
  </cc:Work>
</rdf:RDF>
</metadata>
  <g
     transform="translate(0.000000,28.000000) scale(0.100000,-0.100000)"
     fill="#000000"
     stroke="none"
     id="g4714">
    <path
       d="M 18.115234 6.8886719 C 17.769588 6.8741951 17.431885 6.8776855 17.107422 6.9003906 C 16.242188 6.9609375 15.46875 7.15625 14.875 7.5 C 13.75 8.125 12.125 10.5 11.25 12.625 C 9.75 16 9.875 16.625 11.625 17.75 C 13.375 18.625 13.5 19.375 12.375 21.375 C 11.375 23.375 11.5 24.625 13 26.75 C 15.75 31 19.375 31.5 22.5 28.125 C 25.125 25.25 25.125 25 23.25 21.125 C 21.25 17.125 21.75 15 25.625 12.25 C 26.375 11.625 26.125 10.625 25 9.625 C 23.359375 7.984375 20.534756 6.9900093 18.115234 6.8886719 z M 19.625 10.0625 C 21.1875 10.09375 22.5 10.625 22.5 11.625 C 22.5 14.125 19.75 16.25 16.625 16.25 C 13.5 16.25 12.875 13.875 15.25 11.5 C 16.25 10.5 18.0625 10.03125 19.625 10.0625 z M 18.875 19.15625 C 19.8125 19.21875 20.6875 20 21.625 21.5 C 23.5 24.375 21.75 27.5 18.125 27.5 C 14 27.5 12.75 24.375 15.75 21.125 C 16.9375 19.75 17.9375 19.09375 18.875 19.15625 z "
       transform="matrix(8,0,0,-8,0,280)"
       id="path4716" />
  </g>
</svg>
