<?xml version="1.0" encoding="UTF-8" standalone="no"?>
<svg
   xmlns:dc="http://purl.org/dc/elements/1.1/"
   xmlns:cc="http://creativecommons.org/ns#"
   xmlns:rdf="http://www.w3.org/1999/02/22-rdf-syntax-ns#"
   xmlns:svg="http://www.w3.org/2000/svg"
   xmlns="http://www.w3.org/2000/svg"
   xmlns:sodipodi="http://sodipodi.sourceforge.net/DTD/sodipodi-0.dtd"
   xmlns:inkscape="http://www.inkscape.org/namespaces/inkscape"
   version="1.0"
   width="28.000000pt"
   height="28.000000pt"
   viewBox="0 0 28.000000 28.000000"
   preserveAspectRatio="xMidYMid meet"
   id="svg4262"
   inkscape:version="0.91 r"
   sodipodi:docname="cd_8_4.svg">
  <defs
     id="defs4274" />
  <sodipodi:namedview
     pagecolor="#ffffff"
     bordercolor="#666666"
     borderopacity="1"
     objecttolerance="10"
     gridtolerance="10"
     guidetolerance="10"
     inkscape:pageopacity="0"
     inkscape:pageshadow="2"
     inkscape:window-width="1863"
     inkscape:window-height="1056"
     id="namedview4272"
     showgrid="false"
     inkscape:zoom="26.257143"
     inkscape:cx="17.5"
     inkscape:cy="17.5"
     inkscape:window-x="57"
     inkscape:window-y="24"
     inkscape:window-maximized="1"
     inkscape:current-layer="svg4262" />
  <metadata
     id="metadata4264">
Created by potrace 1.11, written by Peter Selinger 2001-2013
<rdf:RDF>
  <cc:Work
     rdf:about="">
    <dc:format>image/svg+xml</dc:format>
    <dc:type
       rdf:resource="http://purl.org/dc/dcmitype/StillImage" />
  </cc:Work>
</rdf:RDF>
</metadata>
  <g
     transform="translate(0.000000,28.000000) scale(0.100000,-0.100000)"
     fill="#000000"
     stroke="none"
     id="g4266">
    <path
       d="M 18.875 5.1875 C 17.78125 5.3125 16.625 5.9375 14.375 7.125 C 8.75 10.125 7.375 12.625 9.25 15.625 C 10.125 17 10.625 20.125 10.25 22.75 C 9.75 26.75 10.125 27.625 12.875 28.875 C 19.875 32 31.5 26.375 28.625 21.125 C 27.25 18.375 23.625 18.375 22.75 21 C 22.5 21.875 23 22.375 24 22.25 C 24.875 22 25.625 22.75 25.625 23.75 C 25.625 25.125 24 25.75 19.875 26 C 15 26.375 14 26 13.375 23.875 C 12.75 21.375 14.5 20 18.625 20 C 21.875 20 26.25 14.75 26.25 10.875 C 26.25 8.375 25.375 7.125 23 6.25 C 21 5.4375 19.96875 5.0625 18.875 5.1875 z M 19.384766 9.1152344 C 22.648438 9.109375 24.3125 10.5625 23.375 13 C 22.5 15.125 13.25 15.875 12 14 C 11.125 12.5 12.875 10.375 15.625 9.625 C 17.03125 9.28125 18.296875 9.1171875 19.384766 9.1152344 z "
       transform="matrix(8,0,0,-8,0,280)"
       id="path4268" />
  </g>
</svg>
