<?xml version="1.0" encoding="UTF-8" standalone="no"?>
<svg
   xmlns:dc="http://purl.org/dc/elements/1.1/"
   xmlns:cc="http://creativecommons.org/ns#"
   xmlns:rdf="http://www.w3.org/1999/02/22-rdf-syntax-ns#"
   xmlns:svg="http://www.w3.org/2000/svg"
   xmlns="http://www.w3.org/2000/svg"
   xmlns:sodipodi="http://sodipodi.sourceforge.net/DTD/sodipodi-0.dtd"
   xmlns:inkscape="http://www.inkscape.org/namespaces/inkscape"
   version="1.0"
   width="28.000000pt"
   height="28.000000pt"
   viewBox="0 0 28.000000 28.000000"
   preserveAspectRatio="xMidYMid meet"
   id="svg4380"
   inkscape:version="0.91 r"
   sodipodi:docname="cd_8_3.svg">
  <defs
     id="defs4394" />
  <sodipodi:namedview
     pagecolor="#ffffff"
     bordercolor="#666666"
     borderopacity="1"
     objecttolerance="10"
     gridtolerance="10"
     guidetolerance="10"
     inkscape:pageopacity="0"
     inkscape:pageshadow="2"
     inkscape:window-width="1863"
     inkscape:window-height="1056"
     id="namedview4392"
     showgrid="false"
     inkscape:zoom="26.257143"
     inkscape:cx="17.5"
     inkscape:cy="17.5"
     inkscape:window-x="57"
     inkscape:window-y="24"
     inkscape:window-maximized="1"
     inkscape:current-layer="svg4380" />
  <metadata
     id="metadata4382">
Created by potrace 1.11, written by Peter Selinger 2001-2013
<rdf:RDF>
  <cc:Work
     rdf:about="">
    <dc:format>image/svg+xml</dc:format>
    <dc:type
       rdf:resource="http://purl.org/dc/dcmitype/StillImage" />
  </cc:Work>
</rdf:RDF>
</metadata>
  <g
     transform="translate(0.000000,28.000000) scale(0.100000,-0.100000)"
     fill="#000000"
     stroke="none"
     id="g4384">
    <path
       d="M 22.339844 5.0488281 C 21.728241 5.0026855 21.25 5.375 21.25 6.25 C 21.25 6.875 20 7.5 18.5 7.5 C 15.375 7.625 10 11.5 10 13.5 C 10 14.25 11.125 15.25 12.5 15.625 L 15 16.375 L 12.5 19.625 C 9.375 23.625 9.375 25.25 12.25 27.875 C 15.125 30.5 18.625 30.625 22.25 28 C 25.375 25.875 25.75 21.75 23.25 18.375 C 21.75 16.375 21.75 15.625 23.5 12.625 C 24.5 10.75 25.125 8.25 24.625 7.125 C 24.132812 5.859375 23.12619 5.1081543 22.339844 5.0488281 z M 20.794922 10.207031 C 21.789795 10.275391 21.203125 11.125 19.25 13 C 18.25 14.125 16.75 14.75 16.125 14.375 C 14.25 13.125 14.875 11.5 17.25 10.875 C 19.03125 10.40625 20.197998 10.166016 20.794922 10.207031 z M 19.359375 18.84375 C 20.46875 18.8125 21.25 19.8125 21.25 21.875 C 21.25 25.375 16.75 28.5 14.625 26.375 C 13.75 25.5 14 24.125 15.5 22 C 16.8125 19.9375 18.25 18.875 19.359375 18.84375 z "
       transform="matrix(8,0,0,-8,0,280)"
       id="path4386" />
  </g>
</svg>
