<?xml version="1.0" encoding="UTF-8" standalone="no"?>
<svg
   xmlns:dc="http://purl.org/dc/elements/1.1/"
   xmlns:cc="http://creativecommons.org/ns#"
   xmlns:rdf="http://www.w3.org/1999/02/22-rdf-syntax-ns#"
   xmlns:svg="http://www.w3.org/2000/svg"
   xmlns="http://www.w3.org/2000/svg"
   xmlns:sodipodi="http://sodipodi.sourceforge.net/DTD/sodipodi-0.dtd"
   xmlns:inkscape="http://www.inkscape.org/namespaces/inkscape"
   version="1.0"
   width="28.000000pt"
   height="28.000000pt"
   viewBox="0 0 28.000000 28.000000"
   preserveAspectRatio="xMidYMid meet"
   id="svg4475"
   inkscape:version="0.91 r"
   sodipodi:docname="cd_8_2.svg">
  <defs
     id="defs4489" />
  <sodipodi:namedview
     pagecolor="#ffffff"
     bordercolor="#666666"
     borderopacity="1"
     objecttolerance="10"
     gridtolerance="10"
     guidetolerance="10"
     inkscape:pageopacity="0"
     inkscape:pageshadow="2"
     inkscape:window-width="1863"
     inkscape:window-height="1056"
     id="namedview4487"
     showgrid="false"
     inkscape:zoom="26.257143"
     inkscape:cx="17.5"
     inkscape:cy="17.5"
     inkscape:window-x="57"
     inkscape:window-y="24"
     inkscape:window-maximized="1"
     inkscape:current-layer="svg4475" />
  <metadata
     id="metadata4477">
Created by potrace 1.11, written by Peter Selinger 2001-2013
<rdf:RDF>
  <cc:Work
     rdf:about="">
    <dc:format>image/svg+xml</dc:format>
    <dc:type
       rdf:resource="http://purl.org/dc/dcmitype/StillImage" />
  </cc:Work>
</rdf:RDF>
</metadata>
  <g
     transform="translate(0.000000,28.000000) scale(0.100000,-0.100000)"
     fill="#000000"
     stroke="none"
     id="g4479">
    <path
       d="M 20.375 6.40625 C 18.40625 6.4375 16.4375 7.125 13.75 8.5 C 8.75 10.875 7.5 14.5 10.75 16.75 C 12.75 18.25 12.75 18.625 10.125 22.25 C 6.375 27.5 8.125 31.25 14.375 31.25 C 21.75 31.25 26.875 23.25 21.625 20.125 C 19.625 19 19.625 18.625 21.25 17.5 C 22.25 16.875 23.875 16.625 24.875 16.875 C 26.875 17.625 31.25 14.125 31.25 11.875 C 31.25 11 29.375 9.375 27 8.25 C 24.3125 7 22.34375 6.375 20.375 6.40625 z M 19.253906 9.5546875 C 21.664795 9.5498047 24.203125 10.15625 25.375 11.25 C 26.625 12.375 15.5 16.625 13.75 15.625 C 11.625 14.25 12.375 11.75 15.375 10.25 C 16.40625 9.78125 17.807373 9.5576172 19.253906 9.5546875 z M 17.263672 21.324219 C 19.208252 21.269287 20.390625 23.125 19.375 26.25 C 18.875 27.875 17.5 28.75 15.625 28.75 C 11.625 28.75 10.5 26.625 13.25 23.625 C 14.65625 22.078125 16.096924 21.357178 17.263672 21.324219 z "
       transform="matrix(8,0,0,-8,0,280)"
       id="path4481" />
  </g>
</svg>
