<?xml version="1.0" encoding="UTF-8" standalone="no"?>
<svg
   xmlns:dc="http://purl.org/dc/elements/1.1/"
   xmlns:cc="http://creativecommons.org/ns#"
   xmlns:rdf="http://www.w3.org/1999/02/22-rdf-syntax-ns#"
   xmlns:svg="http://www.w3.org/2000/svg"
   xmlns="http://www.w3.org/2000/svg"
   xmlns:sodipodi="http://sodipodi.sourceforge.net/DTD/sodipodi-0.dtd"
   xmlns:inkscape="http://www.inkscape.org/namespaces/inkscape"
   version="1.0"
   width="28.000000pt"
   height="28.000000pt"
   viewBox="0 0 28.000000 28.000000"
   preserveAspectRatio="xMidYMid meet"
   id="svg4187"
   inkscape:version="0.91 r"
   sodipodi:docname="cd_8_5.svg">
  <defs
     id="defs4201" />
  <sodipodi:namedview
     pagecolor="#ffffff"
     bordercolor="#666666"
     borderopacity="1"
     objecttolerance="10"
     gridtolerance="10"
     guidetolerance="10"
     inkscape:pageopacity="0"
     inkscape:pageshadow="2"
     inkscape:window-width="1863"
     inkscape:window-height="1056"
     id="namedview4199"
     showgrid="false"
     inkscape:zoom="26.257143"
     inkscape:cx="17.5"
     inkscape:cy="17.5"
     inkscape:window-x="57"
     inkscape:window-y="24"
     inkscape:window-maximized="1"
     inkscape:current-layer="svg4187" />
  <metadata
     id="metadata4189">
Created by potrace 1.11, written by Peter Selinger 2001-2013
<rdf:RDF>
  <cc:Work
     rdf:about="">
    <dc:format>image/svg+xml</dc:format>
    <dc:type
       rdf:resource="http://purl.org/dc/dcmitype/StillImage" />
  </cc:Work>
</rdf:RDF>
</metadata>
  <g
     transform="translate(0.000000,28.000000) scale(0.100000,-0.100000)"
     fill="#000000"
     stroke="none"
     id="g4191">
    <path
       d="M 25.296875 5.234375 C 23.84375 5.25 22.0625 5.875 19.75 7.125 C 15.625 9.25 13.25 13.125 14.125 16.25 C 14.5 17.625 13.25 19.75 11 21.875 C 9 23.75 7.5 26.25 7.75 27.375 C 8.25 30.125 13.25 30.625 17.125 28.125 C 19.625 26.5 20.125 25.25 19.625 22.75 C 19 19.875 19.875 18.5 24.75 14.25 C 29.875 9.75 30.375 8.75 28.875 7 C 27.875 5.8125 26.75 5.21875 25.296875 5.234375 z M 25.947266 8.1953125 C 26.033447 8.2004395 26.09375 8.21875 26.125 8.25 C 27.25 9.25 25 12 21.375 14.125 C 17.625 16.375 17.5 16.375 17.5 13.875 C 17.5 12.125 18.875 10.75 21.625 9.5 C 23.484375 8.734375 25.343994 8.1594238 25.947266 8.1953125 z M 15.445312 21.986328 C 15.755127 21.99292 15.984375 22.203125 16.125 22.625 C 16.625 24.25 12.5 28 11.5 26.875 C 11.125 26.5 11.875 25.125 13.25 23.625 C 14.1875 22.53125 14.928955 21.975342 15.445312 21.986328 z "
       transform="matrix(8,0,0,-8,0,280)"
       id="path4193" />
  </g>
</svg>
