<?xml version="1.0" encoding="UTF-8" standalone="no"?>
<svg
   xmlns:dc="http://purl.org/dc/elements/1.1/"
   xmlns:cc="http://creativecommons.org/ns#"
   xmlns:rdf="http://www.w3.org/1999/02/22-rdf-syntax-ns#"
   xmlns:svg="http://www.w3.org/2000/svg"
   xmlns="http://www.w3.org/2000/svg"
   xmlns:sodipodi="http://sodipodi.sourceforge.net/DTD/sodipodi-0.dtd"
   xmlns:inkscape="http://www.inkscape.org/namespaces/inkscape"
   version="1.0"
   width="28.000000pt"
   height="28.000000pt"
   viewBox="0 0 28.000000 28.000000"
   preserveAspectRatio="xMidYMid meet"
   id="svg4553"
   inkscape:version="0.91 r"
   sodipodi:docname="cd_9_0.svg">
  <defs
     id="defs4565" />
  <sodipodi:namedview
     pagecolor="#ffffff"
     bordercolor="#666666"
     borderopacity="1"
     objecttolerance="10"
     gridtolerance="10"
     guidetolerance="10"
     inkscape:pageopacity="0"
     inkscape:pageshadow="2"
     inkscape:window-width="1863"
     inkscape:window-height="1056"
     id="namedview4563"
     showgrid="false"
     inkscape:zoom="26.257143"
     inkscape:cx="17.5"
     inkscape:cy="17.5"
     inkscape:window-x="57"
     inkscape:window-y="24"
     inkscape:window-maximized="1"
     inkscape:current-layer="svg4553" />
  <metadata
     id="metadata4555">
Created by potrace 1.11, written by Peter Selinger 2001-2013
<rdf:RDF>
  <cc:Work
     rdf:about="">
    <dc:format>image/svg+xml</dc:format>
    <dc:type
       rdf:resource="http://purl.org/dc/dcmitype/StillImage" />
  </cc:Work>
</rdf:RDF>
</metadata>
  <g
     transform="translate(0.000000,28.000000) scale(0.100000,-0.100000)"
     fill="#000000"
     stroke="none"
     id="g4557">
    <path
       d="M 22.875 7.5 C 17.5 7.625 10 12.125 10 15.25 C 10 17.625 10.5 17.75 15.125 17 L 20.25 16.125 L 17.75 19.625 C 16.375 21.625 13.75 24.5 12 26.125 C 10.25 27.875 8.75 29.875 8.75 30.875 C 8.75 34.5 12.375 32.125 19.125 23.875 C 24.375 17.5 26.25 14.125 26.25 11.375 C 26.25 8 25.875 7.5 22.875 7.5 z M 23.058594 10.070312 C 23.63208 10.1604 23.703125 10.546875 23 11.25 C 21.625 12.625 13.75 15.25 13.75 14.375 C 13.75 14 15.25 13 17.25 12 C 19.75 10.59375 22.102783 9.920166 23.058594 10.070312 z "
       transform="matrix(8,0,0,-8,0,280)"
       id="path4559" />
  </g>
</svg>
