<?xml version="1.0" encoding="UTF-8" standalone="no"?>
<svg
   xmlns:dc="http://purl.org/dc/elements/1.1/"
   xmlns:cc="http://creativecommons.org/ns#"
   xmlns:rdf="http://www.w3.org/1999/02/22-rdf-syntax-ns#"
   xmlns:svg="http://www.w3.org/2000/svg"
   xmlns="http://www.w3.org/2000/svg"
   xmlns:sodipodi="http://sodipodi.sourceforge.net/DTD/sodipodi-0.dtd"
   xmlns:inkscape="http://www.inkscape.org/namespaces/inkscape"
   version="1.0"
   width="28.000000pt"
   height="28.000000pt"
   viewBox="0 0 28.000000 28.000000"
   preserveAspectRatio="xMidYMid meet"
   id="svg4185"
   inkscape:version="0.91 r"
   sodipodi:docname="cd_9_5.svg">
  <defs
     id="defs4197" />
  <sodipodi:namedview
     pagecolor="#ffffff"
     bordercolor="#666666"
     borderopacity="1"
     objecttolerance="10"
     gridtolerance="10"
     guidetolerance="10"
     inkscape:pageopacity="0"
     inkscape:pageshadow="2"
     inkscape:window-width="1863"
     inkscape:window-height="1056"
     id="namedview4195"
     showgrid="false"
     inkscape:zoom="26.257143"
     inkscape:cx="17.5"
     inkscape:cy="15.976605"
     inkscape:window-x="57"
     inkscape:window-y="24"
     inkscape:window-maximized="1"
     inkscape:current-layer="svg4185" />
  <metadata
     id="metadata4187">
Created by potrace 1.11, written by Peter Selinger 2001-2013
<rdf:RDF>
  <cc:Work
     rdf:about="">
    <dc:format>image/svg+xml</dc:format>
    <dc:type
       rdf:resource="http://purl.org/dc/dcmitype/StillImage" />
  </cc:Work>
</rdf:RDF>
</metadata>
  <g
     transform="translate(0.000000,28.000000) scale(0.100000,-0.100000)"
     fill="#000000"
     stroke="none"
     id="g4189">
    <path
       d="M 22.046875 7.671875 C 20.65625 7.65625 18.8125 8.5625 16.125 10.375 C 13.25 12.25 11.75 14.375 11.5 16.75 C 11.125 19.875 11.375 20.25 14 19.75 C 15.625 19.375 17.875 18.625 19.125 18.125 C 21 17.375 20.625 18.5 17.625 23.375 C 13.625 29.875 12.875 32.5 15 32.5 C 15.625 32.5 17.25 30.125 18.75 27.125 C 20.125 24.25 22.5 20 23.875 17.75 C 26.125 14.375 26.375 13 25.25 10.5 C 24.375 8.625 23.4375 7.6875 22.046875 7.671875 z M 22.732422 10.005859 C 23.371002 10.059723 23.75 10.421875 23.75 11.125 C 23.75 12.625 15.875 17.5 13.625 17.5 C 12.625 17.5 13.625 15.75 16 13.75 C 18.664062 11.257812 21.327545 9.8873596 22.732422 10.005859 z "
       transform="matrix(8,0,0,-8,0,280)"
       id="path4191" />
  </g>
</svg>
