<?xml version="1.0" encoding="UTF-8" standalone="no"?>
<svg
   xmlns:dc="http://purl.org/dc/elements/1.1/"
   xmlns:cc="http://creativecommons.org/ns#"
   xmlns:rdf="http://www.w3.org/1999/02/22-rdf-syntax-ns#"
   xmlns:svg="http://www.w3.org/2000/svg"
   xmlns="http://www.w3.org/2000/svg"
   xmlns:sodipodi="http://sodipodi.sourceforge.net/DTD/sodipodi-0.dtd"
   xmlns:inkscape="http://www.inkscape.org/namespaces/inkscape"
   version="1.0"
   width="28.000000pt"
   height="28.000000pt"
   viewBox="0 0 28.000000 28.000000"
   preserveAspectRatio="xMidYMid meet"
   id="svg4257"
   inkscape:version="0.91 r"
   sodipodi:docname="cd_9_4.svg">
  <defs
     id="defs4269" />
  <sodipodi:namedview
     pagecolor="#ffffff"
     bordercolor="#666666"
     borderopacity="1"
     objecttolerance="10"
     gridtolerance="10"
     guidetolerance="10"
     inkscape:pageopacity="0"
     inkscape:pageshadow="2"
     inkscape:window-width="1863"
     inkscape:window-height="1056"
     id="namedview4267"
     showgrid="false"
     inkscape:zoom="26.257143"
     inkscape:cx="17.5"
     inkscape:cy="17.5"
     inkscape:window-x="57"
     inkscape:window-y="24"
     inkscape:window-maximized="1"
     inkscape:current-layer="svg4257" />
  <metadata
     id="metadata4259">
Created by potrace 1.11, written by Peter Selinger 2001-2013
<rdf:RDF>
  <cc:Work
     rdf:about="">
    <dc:format>image/svg+xml</dc:format>
    <dc:type
       rdf:resource="http://purl.org/dc/dcmitype/StillImage" />
  </cc:Work>
</rdf:RDF>
</metadata>
  <g
     transform="translate(0.000000,28.000000) scale(0.100000,-0.100000)"
     fill="#000000"
     stroke="none"
     id="g4261">
    <path
       d="M 21.917969 7.4082031 C 19.585846 7.497467 16.351562 8.859375 13.75 11.25 C 8.375 16.25 8.875 20.75 14.75 20.5 C 19.375 20.25 19.375 20.375 16.875 27.375 C 15.375 31.75 15.375 32.5 16.875 32.5 C 18.625 32.5 25 14.5 25 9.625 C 25 8.0390625 23.731842 7.3387756 21.917969 7.4082031 z M 21.789062 10.082031 C 22.290039 10.102539 22.5 10.5 22.5 11.25 C 22.5 13 16.75 18.75 15.125 18.75 C 12.125 18.75 12.75 16.25 16.5 13.25 C 19.3125 11.0625 20.954102 10.047852 21.789062 10.082031 z "
       transform="matrix(8,0,0,-8,0,280)"
       id="path4263" />
  </g>
</svg>
