<?xml version="1.0" encoding="UTF-8" standalone="no"?>
<svg
   xmlns:dc="http://purl.org/dc/elements/1.1/"
   xmlns:cc="http://creativecommons.org/ns#"
   xmlns:rdf="http://www.w3.org/1999/02/22-rdf-syntax-ns#"
   xmlns:svg="http://www.w3.org/2000/svg"
   xmlns="http://www.w3.org/2000/svg"
   xmlns:sodipodi="http://sodipodi.sourceforge.net/DTD/sodipodi-0.dtd"
   xmlns:inkscape="http://www.inkscape.org/namespaces/inkscape"
   version="1.0"
   width="28.000000pt"
   height="28.000000pt"
   viewBox="0 0 28.000000 28.000000"
   preserveAspectRatio="xMidYMid meet"
   id="svg4335"
   inkscape:version="0.91 r"
   sodipodi:docname="cd_9_3.svg">
  <defs
     id="defs4347" />
  <sodipodi:namedview
     pagecolor="#ffffff"
     bordercolor="#666666"
     borderopacity="1"
     objecttolerance="10"
     gridtolerance="10"
     guidetolerance="10"
     inkscape:pageopacity="0"
     inkscape:pageshadow="2"
     inkscape:window-width="1863"
     inkscape:window-height="1056"
     id="namedview4345"
     showgrid="false"
     inkscape:zoom="26.257143"
     inkscape:cx="17.5"
     inkscape:cy="15.976605"
     inkscape:window-x="57"
     inkscape:window-y="24"
     inkscape:window-maximized="1"
     inkscape:current-layer="svg4335" />
  <metadata
     id="metadata4337">
Created by potrace 1.11, written by Peter Selinger 2001-2013
<rdf:RDF>
  <cc:Work
     rdf:about="">
    <dc:format>image/svg+xml</dc:format>
    <dc:type
       rdf:resource="http://purl.org/dc/dcmitype/StillImage" />
  </cc:Work>
</rdf:RDF>
</metadata>
  <g
     transform="translate(0.000000,28.000000) scale(0.100000,-0.100000)"
     fill="#000000"
     stroke="none"
     id="g4339">
    <path
       d="M 19.226562 7.6835938 C 16.642029 7.8137817 13.46875 9.421875 10.375 12.375 C 5.125 17.25 7.375 22.5 14.625 22.5 C 18.625 22.5 18.75 22.625 18.75 27.625 C 18.75 31.75 19.125 32.625 21 32.25 C 22.625 31.875 23 30.75 22.875 27.5 C 22.625 25.125 23.125 20.75 23.875 18 C 24.875 14.125 24.875 12.125 23.875 10.125 C 22.890625 8.375 21.236755 7.5823364 19.226562 7.6835938 z M 19.0625 11.46875 C 19.8125 11.5625 20 12.4375 20 14.125 C 20 17.375 15 20.875 12.625 19.5 C 10.25 18 11.125 15.625 14.75 13.5 C 17 12.0625 18.3125 11.375 19.0625 11.46875 z "
       transform="matrix(8,0,0,-8,0,280)"
       id="path4341" />
  </g>
</svg>
