<?xml version="1.0" encoding="UTF-8" standalone="no"?>
<!-- Generator: Adobe Illustrator 16.0.0, SVG Export Plug-In . SVG Version: 6.00 Build 0)  -->

<svg
   xmlns:dc="http://purl.org/dc/elements/1.1/"
   xmlns:cc="http://creativecommons.org/ns#"
   xmlns:rdf="http://www.w3.org/1999/02/22-rdf-syntax-ns#"
   xmlns:svg="http://www.w3.org/2000/svg"
   xmlns="http://www.w3.org/2000/svg"
   xmlns:sodipodi="http://sodipodi.sourceforge.net/DTD/sodipodi-0.dtd"
   xmlns:inkscape="http://www.inkscape.org/namespaces/inkscape"
   version="1.1"
   id="Layer_1"
   x="0px"
   y="0px"
   width="240"
   height="240"
   viewBox="0 0 240 240"
   enable-background="new 0 0 512 512"
   xml:space="preserve"
   inkscape:version="0.91 r13725"
   sodipodi:docname="chart.svg"><metadata
     id="metadata4206"><rdf:RDF><cc:Work
         rdf:about=""><dc:format>image/svg+xml</dc:format><dc:type
           rdf:resource="http://purl.org/dc/dcmitype/StillImage" /><dc:title></dc:title></cc:Work></rdf:RDF></metadata><defs
     id="defs4204" /><sodipodi:namedview
     pagecolor="#000000"
     bordercolor="#666666"
     borderopacity="1"
     objecttolerance="10"
     gridtolerance="10"
     guidetolerance="10"
     inkscape:pageopacity="0"
     inkscape:pageshadow="2"
     inkscape:window-width="1280"
     inkscape:window-height="682"
     id="namedview4202"
     showgrid="false"
     fit-margin-left="20"
     fit-margin-top="20"
     fit-margin-bottom="20"
     fit-margin-right="20"
     inkscape:zoom="0.93945312"
     inkscape:cx="120"
     inkscape:cy="120"
     inkscape:window-x="0"
     inkscape:window-y="0"
     inkscape:window-maximized="1"
     inkscape:current-layer="Layer_1" /><path
     d="m 219.80507,207.32943 0,12.47564 -187.134498,0 -12.47564,0 0,-12.47564 0,-187.134498 12.47564,0 0,37.4269 12.47563,0 0,12.47564 -12.47563,0 0,24.95126 12.47563,0 0,12.475638 -12.47563,0 0,24.95126 12.47563,0 0,12.47564 -12.47563,0 0,24.95126 12.47563,0 0,12.47564 -12.47563,0 0,24.95126 187.134498,0 z M 82.573102,20.194932 l -24.95127,0 0,174.658868 24.95127,0 0,-174.658868 z M 120,57.621832 l -24.951268,0 0,137.231968 24.951268,0 0,-137.231968 z m 37.4269,37.4269 -24.95127,0 0,99.805068 24.95127,0 0,-99.805068 z m 37.4269,37.426898 -24.95127,0 0,62.37817 24.95127,0 0,-62.37817 z"
     id="path4200"
     style="fill:#000000;fill-opacity:0;stroke:#ffffff;stroke-width:4;stroke-opacity:1;stroke-miterlimit:4;stroke-dasharray:none"
     inkscape:connector-curvature="0" /></svg>