<?xml version="1.0" encoding="UTF-8" standalone="no"?>
<!-- Created with Inkscape (http://www.inkscape.org/) -->

<svg
   xmlns:dc="http://purl.org/dc/elements/1.1/"
   xmlns:cc="http://creativecommons.org/ns#"
   xmlns:rdf="http://www.w3.org/1999/02/22-rdf-syntax-ns#"
   xmlns:svg="http://www.w3.org/2000/svg"
   xmlns="http://www.w3.org/2000/svg"
   xmlns:sodipodi="http://sodipodi.sourceforge.net/DTD/sodipodi-0.dtd"
   xmlns:inkscape="http://www.inkscape.org/namespaces/inkscape"
   id="svg2"
   version="1.1"
   inkscape:version="0.91 r"
   width="231.56993"
   height="219.6875"
   xml:space="preserve"
   sodipodi:docname="collaboration.svg"><metadata
     id="metadata8"><rdf:RDF><cc:Work
         rdf:about=""><dc:format>image/svg+xml</dc:format><dc:type
           rdf:resource="http://purl.org/dc/dcmitype/StillImage" /><dc:title></dc:title></cc:Work></rdf:RDF></metadata><defs
     id="defs6" /><sodipodi:namedview
     pagecolor="#ffffff"
     bordercolor="#666666"
     borderopacity="1"
     objecttolerance="10"
     gridtolerance="10"
     guidetolerance="10"
     inkscape:pageopacity="0"
     inkscape:pageshadow="2"
     inkscape:window-width="1863"
     inkscape:window-height="1056"
     id="namedview4"
     showgrid="false"
     inkscape:zoom="2.6697683"
     inkscape:cx="181.83352"
     inkscape:cy="149.50297"
     inkscape:window-x="57"
     inkscape:window-y="24"
     inkscape:window-maximized="1"
     inkscape:current-layer="g10"
     fit-margin-top="0"
     fit-margin-left="0"
     fit-margin-right="0"
     fit-margin-bottom="0" /><g
     id="g10"
     inkscape:groupmode="layer"
     inkscape:label="ink_ext_XXXXXX"
     transform="matrix(1.25,0,0,-1.25,-9.642575,219.6875)"><g
       id="g12"
       transform="scale(0.1,0.1)"><path
         d="m 481.66,248.32 c 0,0 -9.551,74.539 0,111.801 6.094,23.731 19.117,52.559 101.293,52.559 82.18,0 105.848,-29.95 112.762,-52.559 C 706.223,325.73 684.242,239.73 684.242,239.73 l -202.582,8.59"
         style="fill:#352115;fill-opacity:1;fill-rule:nonzero;stroke:none"
         id="path18"
         inkscape:connector-curvature="0" /><path
         d="m 514.633,234.469 c 0,-15.039 -12.192,-27.231 -27.231,-27.231 -15.043,0 -27.234,12.192 -27.234,27.231 0,15.051 12.191,27.23 27.234,27.23 15.039,0 27.231,-12.179 27.231,-27.23"
         style="fill:#f09f74;fill-opacity:1;fill-rule:nonzero;stroke:none"
         id="path20"
         inkscape:connector-curvature="0" /><path
         d="m 708.137,234.469 c 0,-15.039 -12.196,-27.231 -27.239,-27.231 -15.043,0 -27.23,12.192 -27.23,27.231 0,15.051 12.187,27.23 27.23,27.23 15.043,0 27.239,-12.179 27.239,-27.23"
         style="fill:#f09f74;fill-opacity:1;fill-rule:nonzero;stroke:none"
         id="path22"
         inkscape:connector-curvature="0" /><path
         d="M 689.426,0 482.449,0 c 0,0 -4.324,88.5313 4.16,211.449 8.485,122.942 20.325,135.5 20.325,135.5 l 158.027,0 c 0,0 8.699,-17.379 19.48,-138.82 C 695.23,86.6914 689.426,0 689.426,0"
         style="fill:#f9af83;fill-opacity:1;fill-rule:nonzero;stroke:none"
         id="path24"
         inkscape:connector-curvature="0" /><path
         d="m 697.621,0 -226.574,0 5.734,155.641 110,-32.493 104.551,31.934 L 697.621,0"
         style="fill:#3d5b7a;fill-opacity:1;fill-rule:nonzero;stroke:none"
         id="path26"
         inkscape:connector-curvature="0" /><path
         d="m 501.73,341.012 c 0,0 67.625,-60.723 183.465,-43 l -20.066,62.109 -156.707,2.867 -6.692,-21.976"
         style="fill:#352115;fill-opacity:1;fill-rule:nonzero;stroke:none"
         id="path28"
         inkscape:connector-curvature="0" /><path
         d="m 593.855,87.7891 -19.902,0 -4.738,32.1329 29.39,0 -4.75,-32.1329"
         style="fill:#a563b8;fill-opacity:1;fill-rule:nonzero;stroke:none"
         id="path30"
         inkscape:connector-curvature="0" /><path
         d="m 593.855,87.7891 -19.902,0 -4.738,-87.660194 29.39,0 -4.75,87.660194"
         style="fill:#8647a4;fill-opacity:1;fill-rule:nonzero;stroke:none"
         id="path32"
         inkscape:connector-curvature="0" /><path
         d="m 474.883,157.789 112.605,-33.68 -20.402,-24.8473 -93.063,41.0903 0.86,17.437"
         style="fill:#ffffff;fill-opacity:1;fill-rule:nonzero;stroke:none"
         id="path34"
         inkscape:connector-curvature="0" /><path
         d="m 694.031,157.789 -112.613,-33.68 20.406,-24.8473 92.207,41.0903 0,17.437"
         style="fill:#ffffff;fill-opacity:1;fill-rule:nonzero;stroke:none"
         id="path36"
         inkscape:connector-curvature="0" /><path
         d="m 553.988,256.91 c 0,-7.519 -6.093,-13.609 -13.605,-13.609 -7.528,0 -13.621,6.09 -13.621,13.609 0,7.52 6.093,13.61 13.621,13.61 7.512,0 13.605,-6.09 13.605,-13.61"
         style="fill:#1a1412;fill-opacity:1;fill-rule:nonzero;stroke:none"
         id="path38"
         inkscape:connector-curvature="0" /><path
         d="m 642.945,256.91 c 0,-7.519 -6.09,-13.609 -13.609,-13.609 -7.52,0 -13.617,6.09 -13.617,13.609 0,7.52 6.097,13.61 13.617,13.61 7.519,0 13.609,-6.09 13.609,-13.61"
         style="fill:#1a1412;fill-opacity:1;fill-rule:nonzero;stroke:none"
         id="path40"
         inkscape:connector-curvature="0" /><path
         d="m 590.172,201.961 -0.793,0.129 -7.66,2.551 c -1.676,0.558 -2.973,1.769 -3.766,3.48 -3.289,7.149 3.195,23.527 3.945,25.367 0.52,1.282 1.969,1.891 3.258,1.371 1.282,-0.519 1.895,-1.98 1.371,-3.257 -2.511,-6.192 -5.836,-17.473 -4.031,-21.391 l 0.805,-0.82 7.66,-2.551 c 1.309,-0.442 2.019,-1.86 1.582,-3.168 -0.352,-1.043 -1.328,-1.711 -2.371,-1.711"
         style="fill:#a8785c;fill-opacity:1;fill-rule:nonzero;stroke:none"
         id="path42"
         inkscape:connector-curvature="0" /><path
         d="m 589.148,156.871 c -1.187,0 -2.406,0.008 -3.636,0.027 -30.801,0.622 -52.735,7.633 -65.196,20.84 -10.257,10.883 -9.957,21.981 -9.933,22.453 0.07,2.059 1.594,3.918 3.89,3.59 2.059,-0.07 3.665,-1.801 3.602,-3.859 -0.008,-0.391 -0.078,-8.711 8.098,-17.242 7.617,-7.942 24.156,-17.559 59.687,-18.282 68.371,-1.398 70.539,36.84 70.551,37.223 0.078,2.07 1.762,3.617 3.879,3.617 2.066,-0.066 3.687,-1.808 3.621,-3.867 -0.02,-0.461 -2.395,-44.5 -74.563,-44.5"
         style="fill:#a8785c;fill-opacity:1;fill-rule:nonzero;stroke:none"
         id="path44"
         inkscape:connector-curvature="0" /><path
         d="m 1325.89,247.371 c 0,0 -15.44,69.961 -9.56,107.981 10.52,67.839 73.59,55.418 87.92,42.039 22.94,17.199 113.71,35.359 129.95,-37.27 11.87,-53.039 -11.46,-117.531 -11.46,-117.531 l -196.85,4.781"
         style="fill:#4d2e1c;fill-opacity:1;fill-rule:nonzero;stroke:none"
         id="path46"
         inkscape:connector-curvature="0" /><path
         d="m 1352.17,246.891 c 0,-15.039 -12.19,-27.231 -27.24,-27.231 -15.04,0 -27.22,12.192 -27.22,27.231 0,15.039 12.18,27.238 27.22,27.238 15.05,0 27.24,-12.199 27.24,-27.238"
         style="fill:#f09f74;fill-opacity:1;fill-rule:nonzero;stroke:none"
         id="path48"
         inkscape:connector-curvature="0" /><path
         d="m 1545.67,246.891 c 0,-15.039 -12.19,-27.231 -27.24,-27.231 -15.04,0 -27.23,12.192 -27.23,27.231 0,15.039 12.19,27.238 27.23,27.238 15.05,0 27.24,-12.199 27.24,-27.238"
         style="fill:#f09f74;fill-opacity:1;fill-rule:nonzero;stroke:none"
         id="path50"
         inkscape:connector-curvature="0" /><path
         d="m 1527.27,0 -206.98,0 c 0,0 -4.33,88.5313 4.16,211.449 8.48,122.942 20.32,135.5 20.32,135.5 l 158.02,0 c 0,0 8.71,-17.379 19.49,-138.82 C 1533.06,86.6914 1527.27,0 1527.27,0"
         style="fill:#f9af83;fill-opacity:1;fill-rule:nonzero;stroke:none"
         id="path52"
         inkscape:connector-curvature="0" /><path
         d="m 1535,0 -222.01,0 3.71,155.641 109.04,-43.961 105.51,43.402 L 1535,0"
         style="fill:#23b59d;fill-opacity:1;fill-rule:nonzero;stroke:none"
         id="path54"
         inkscape:connector-curvature="0" /><path
         d="m 1316.05,134.59 0.65,21.051 110,-37.27 104.55,36.711 0.73,-23.312 L 1428.7,94.6289 1316.05,134.59"
         style="fill:#3d5b7a;fill-opacity:1;fill-rule:nonzero;stroke:none"
         id="path56"
         inkscape:connector-curvature="0" /><path
         d="m 1330.07,315.238 c 0,0 33.55,5.832 48.87,26.992 0,0 49.57,-37.921 138.53,-32.82 l -12.39,57.602 -166.99,0.726 -8.02,-52.5"
         style="fill:#4d2e1c;fill-opacity:1;fill-rule:nonzero;stroke:none"
         id="path58"
         inkscape:connector-curvature="0" /><path
         d="m 1456.41,81.4805 50.21,0 c 0,0 10.91,-40.8203 -26.2,-40.8203 -35.08,0 -24.01,40.8203 -24.01,40.8203"
         style="fill:#3d5b7a;fill-opacity:1;fill-rule:nonzero;stroke:none"
         id="path60"
         inkscape:connector-curvature="0" /><path
         d="m 1411.5,263.332 22.8516,0 0,10 -22.8516,0 0,-10 z"
         style="fill:#3d5b7a;fill-opacity:1;fill-rule:nonzero;stroke:none"
         id="path62"
         inkscape:connector-curvature="0" /><path
         d="m 1506.88,269.34 -2.63,9.64 17.01,4.629 2.63,-9.648 -17.01,-4.621"
         style="fill:#3d5b7a;fill-opacity:1;fill-rule:nonzero;stroke:none"
         id="path64"
         inkscape:connector-curvature="0" /><path
         d="m 1339.69,269.34 -17,4.621 2.63,9.648 17,-4.629 -2.63,-9.64"
         style="fill:#3d5b7a;fill-opacity:1;fill-rule:nonzero;stroke:none"
         id="path66"
         inkscape:connector-curvature="0" /><path
         d="m 1366.4,288.969 c -11.24,0 -20.39,-9.149 -20.39,-20.399 0,-11.238 9.15,-20.39 20.39,-20.39 l 19.95,0 c 11.25,0 20.4,9.152 20.4,20.39 0,11.25 -9.15,20.399 -20.4,20.399 l -19.95,0 z m 19.95,-50.789 -19.95,0 c -16.76,0 -30.39,13.64 -30.39,30.39 0,16.762 13.63,30.399 30.39,30.399 l 19.95,0 c 16.76,0 30.4,-13.637 30.4,-30.399 0,-16.75 -13.64,-30.39 -30.4,-30.39"
         style="fill:#3d5b7a;fill-opacity:1;fill-rule:nonzero;stroke:none"
         id="path68"
         inkscape:connector-curvature="0" /><path
         d="m 1459.74,288.969 c -11.25,0 -20.39,-9.149 -20.39,-20.399 0,-11.238 9.14,-20.39 20.39,-20.39 l 19.95,0 c 11.24,0 20.39,9.152 20.39,20.39 0,11.25 -9.15,20.399 -20.39,20.399 l -19.95,0 z m 19.95,-50.789 -19.95,0 c -16.76,0 -30.39,13.64 -30.39,30.39 0,16.762 13.63,30.399 30.39,30.399 l 19.95,0 c 16.76,0 30.39,-13.637 30.39,-30.399 0,-16.75 -13.63,-30.39 -30.39,-30.39"
         style="fill:#3d5b7a;fill-opacity:1;fill-rule:nonzero;stroke:none"
         id="path70"
         inkscape:connector-curvature="0" /><path
         d="m 1383.79,267.609 c 0,-7.519 -6.08,-13.621 -13.61,-13.621 -7.53,0 -13.61,6.102 -13.61,13.621 0,7.52 6.08,13.61 13.61,13.61 7.53,0 13.61,-6.09 13.61,-13.61"
         style="fill:#1a1412;fill-opacity:1;fill-rule:nonzero;stroke:none"
         id="path72"
         inkscape:connector-curvature="0" /><path
         d="m 1472.75,267.609 c 0,-7.519 -6.09,-13.621 -13.61,-13.621 -7.52,0 -13.61,6.102 -13.61,13.621 0,7.52 6.09,13.61 13.61,13.61 7.52,0 13.61,-6.09 13.61,-13.61"
         style="fill:#1a1412;fill-opacity:1;fill-rule:nonzero;stroke:none"
         id="path74"
         inkscape:connector-curvature="0" /><path
         d="m 1429.86,207.129 -0.79,0.133 -7.67,2.547 c -1.67,0.57 -2.97,1.773 -3.76,3.492 -3.29,7.148 3.19,23.519 3.94,25.359 0.52,1.281 1.98,1.899 3.26,1.371 1.28,-0.519 1.89,-1.98 1.37,-3.261 -2.51,-6.18 -5.83,-17.461 -4.03,-21.391 l 0.8,-0.82 7.67,-2.559 c 1.31,-0.441 2.02,-1.852 1.58,-3.16 -0.35,-1.051 -1.33,-1.711 -2.37,-1.711"
         style="fill:#a8785c;fill-opacity:1;fill-rule:nonzero;stroke:none"
         id="path76"
         inkscape:connector-curvature="0" /><path
         d="m 1430.15,154.93 c -1.2,0 -2.42,0.011 -3.66,0.031 -30.8,0.617 -52.74,7.629 -65.19,20.84 -10.26,10.871 -9.96,21.969 -9.94,22.437 0.08,2.071 1.64,3.821 3.89,3.602 2.06,-0.078 3.67,-1.809 3.61,-3.871 -0.01,-0.387 -0.08,-8.707 8.09,-17.231 7.62,-7.949 24.15,-17.566 59.69,-18.277 68.06,-1.441 70.48,35.668 70.56,37.25 0.09,2.051 1.67,3.641 3.89,3.578 2.06,-0.078 3.67,-1.801 3.6,-3.859 -0.02,-0.461 -2.39,-44.5 -74.54,-44.5"
         style="fill:#a8785c;fill-opacity:1;fill-rule:nonzero;stroke:none"
         id="path78"
         inkscape:connector-curvature="0" /><path
         d="m 1133.83,402.172 c 0,0 30.93,46.328 84.56,32.476 29.63,-7.628 55.43,-36.296 48.74,-86.949 -3.53,-26.668 -12.43,-73.57 22.93,-73.097 0,0 -24.37,-126.133 -129,-35.832 -73.16,63.14 -27.23,163.402 -27.23,163.402"
         style="fill:#1a1412;fill-opacity:1;fill-rule:nonzero;stroke:none"
         id="path80"
         inkscape:connector-curvature="0" /><path
         d="m 1027.29,247.371 c 0,0 -14.77,69.859 -9.57,107.981 5.74,42.039 44.92,72.609 93.66,47.769 75.48,34.399 118.94,-13.449 124.22,-43 9.54,-53.5 -11.47,-120.391 -11.47,-120.391 l -196.84,7.641"
         style="fill:#352115;fill-opacity:1;fill-rule:nonzero;stroke:none"
         id="path82"
         inkscape:connector-curvature="0" /><path
         d="m 1057.38,254.539 c 0,-15.039 -12.19,-27.238 -27.23,-27.238 -15.04,0 -27.23,12.199 -27.23,27.238 0,15.043 12.19,27.231 27.23,27.231 15.04,0 27.23,-12.188 27.23,-27.231"
         style="fill:#f09f74;fill-opacity:1;fill-rule:nonzero;stroke:none"
         id="path84"
         inkscape:connector-curvature="0" /><path
         d="m 1250.88,254.539 c 0,-15.039 -12.2,-27.238 -27.23,-27.238 -15.04,0 -27.24,12.199 -27.24,27.238 0,15.043 12.2,27.231 27.24,27.231 15.03,0 27.23,-12.188 27.23,-27.231"
         style="fill:#f09f74;fill-opacity:1;fill-rule:nonzero;stroke:none"
         id="path86"
         inkscape:connector-curvature="0" /><path
         d="m 1230.79,0 -206.98,0 c 0,0 -4.32,88.5313 4.16,211.449 8.48,122.942 20.33,135.5 20.33,135.5 l 158.01,0 c 0,0 8.71,-17.379 19.5,-138.82 C 1236.58,86.6914 1230.79,0 1230.79,0"
         style="fill:#f9af83;fill-opacity:1;fill-rule:nonzero;stroke:none"
         id="path88"
         inkscape:connector-curvature="0" /><path
         d="m 1241.33,0 -226.57,0 5.73,155.641 110,-32.493 104.55,31.934 L 1241.33,0"
         style="fill:#a563b8;fill-opacity:1;fill-rule:nonzero;stroke:none"
         id="path90"
         inkscape:connector-curvature="0" /><path
         d="m 1018.59,157.789 112.62,-33.68 -20.42,-24.8473 -93.07,41.0903 0.87,17.437"
         style="fill:#ffffff;fill-opacity:1;fill-rule:nonzero;stroke:none"
         id="path92"
         inkscape:connector-curvature="0" /><path
         d="m 1237.74,157.789 -112.62,-33.68 20.41,-24.8473 92.21,41.0903 0,17.437"
         style="fill:#ffffff;fill-opacity:1;fill-rule:nonzero;stroke:none"
         id="path94"
         inkscape:connector-curvature="0" /><path
         d="m 1101.33,345.789 c 0,-18.078 -14.66,-32.719 -32.73,-32.719 -18.07,0 -32.72,14.641 -32.72,32.719 0,18.07 14.65,32.742 32.72,32.742 18.07,0 32.73,-14.672 32.73,-32.742"
         style="fill:#352115;fill-opacity:1;fill-rule:nonzero;stroke:none"
         id="path96"
         inkscape:connector-curvature="0" /><path
         d="m 1159.39,345.789 c 0,-18.078 -14.66,-32.719 -32.73,-32.719 -18.07,0 -32.72,14.641 -32.72,32.719 0,18.07 14.65,32.742 32.72,32.742 18.07,0 32.73,-14.672 32.73,-32.742"
         style="fill:#352115;fill-opacity:1;fill-rule:nonzero;stroke:none"
         id="path98"
         inkscape:connector-curvature="0" /><path
         d="m 1217.44,345.789 c 0,-18.078 -14.66,-32.719 -32.73,-32.719 -18.07,0 -32.72,14.641 -32.72,32.719 0,18.07 14.65,32.742 32.72,32.742 18.07,0 32.73,-14.672 32.73,-32.742"
         style="fill:#352115;fill-opacity:1;fill-rule:nonzero;stroke:none"
         id="path100"
         inkscape:connector-curvature="0" /><path
         d="m 1133.35,90.6602 c 0,-3.1719 -2.56,-5.7305 -5.73,-5.7305 -3.17,0 -5.73,2.5586 -5.73,5.7305 0,3.1718 2.56,5.7304 5.73,5.7304 3.17,0 5.73,-2.5586 5.73,-5.7304"
         style="fill:#ffffff;fill-opacity:1;fill-rule:nonzero;stroke:none"
         id="path102"
         inkscape:connector-curvature="0" /><path
         d="m 1133.35,70.6016 c 0,-3.1719 -2.56,-5.7422 -5.73,-5.7422 -3.17,0 -5.73,2.5703 -5.73,5.7422 0,3.1601 2.56,5.7304 5.73,5.7304 3.17,0 5.73,-2.5703 5.73,-5.7304"
         style="fill:#ffffff;fill-opacity:1;fill-rule:nonzero;stroke:none"
         id="path104"
         inkscape:connector-curvature="0" /><path
         d="m 1099.41,265.66 c 0,-7.531 -6.09,-13.609 -13.61,-13.609 -7.52,0 -13.61,6.078 -13.61,13.609 0,7.52 6.09,13.61 13.61,13.61 7.52,0 13.61,-6.09 13.61,-13.61"
         style="fill:#1a1412;fill-opacity:1;fill-rule:nonzero;stroke:none"
         id="path106"
         inkscape:connector-curvature="0" /><path
         d="m 1188.37,265.66 c 0,-7.531 -6.09,-13.609 -13.6,-13.609 -7.53,0 -13.62,6.078 -13.62,13.609 0,7.52 6.09,13.61 13.62,13.61 7.51,0 13.6,-6.09 13.6,-13.61"
         style="fill:#1a1412;fill-opacity:1;fill-rule:nonzero;stroke:none"
         id="path108"
         inkscape:connector-curvature="0" /><path
         d="m 1139.16,213.941 -0.8,0.129 -7.65,2.551 c -1.85,0.617 -3.28,1.918 -4.13,3.777 -3.05,6.622 2.01,19.481 2.6,20.922 0.52,1.282 1.98,1.918 3.26,1.379 1.28,-0.519 1.9,-1.98 1.37,-3.258 -1.9,-4.691 -4.31,-13.429 -2.69,-16.953 l 1.17,-1.129 7.66,-2.55 c 1.3,-0.438 2.01,-1.848 1.58,-3.161 -0.35,-1.046 -1.33,-1.707 -2.37,-1.707"
         style="fill:#a8785c;fill-opacity:1;fill-rule:nonzero;stroke:none"
         id="path110"
         inkscape:connector-curvature="0" /><path
         d="m 1135.44,169.988 -2.63,0.032 c -22.31,0.449 -38.23,5.57 -47.34,15.218 -7.64,8.102 -7.4,16.461 -7.39,16.813 0.08,2.07 1.76,3.91 3.89,3.597 2.06,-0.078 3.66,-1.796 3.61,-3.847 -0.02,-1.063 0.3,-23.34 47.37,-24.281 47.37,-1.211 49.28,24.511 49.34,25.601 0.1,2.051 1.88,3.68 3.9,3.559 2.06,-0.078 3.66,-1.801 3.59,-3.86 -0.01,-0.332 -1.76,-32.832 -54.34,-32.832"
         style="fill:#a8785c;fill-opacity:1;fill-rule:nonzero;stroke:none"
         id="path112"
         inkscape:connector-curvature="0" /><path
         d="M 960.105,0 753.137,0 c 0,0 -4.332,88.5313 4.164,211.449 8.48,122.942 20.316,135.5 20.316,135.5 l 158.02,0 c 0,0 8.695,-17.379 19.484,-138.82 C 965.906,86.6914 960.105,0 960.105,0"
         style="fill:#f9af83;fill-opacity:1;fill-rule:nonzero;stroke:none"
         id="path114"
         inkscape:connector-curvature="0" /><path
         d="m 966.453,0 -222.012,0 3.719,155.641 c 0,0 45.016,-21.02 109.988,-21.02 64.981,0 104.551,20.461 104.551,20.461 L 966.453,0"
         style="fill:#35b5ed;fill-opacity:1;fill-rule:nonzero;stroke:none"
         id="path116"
         inkscape:connector-curvature="0" /><path
         d="m 747.512,125.609 0.648,30.032 c 0,0 45.016,-16.481 109.988,-16.481 64.981,0 104.551,15.922 104.551,15.922 l 0.735,-32.312 c 0,0 -25.973,-14.2 -109.102,-14.211 -86.734,0 -106.82,17.05 -106.82,17.05"
         style="fill:#3d5b7a;fill-opacity:1;fill-rule:nonzero;stroke:none"
         id="path118"
         inkscape:connector-curvature="0" /><path
         d="m 925.453,383.738 c -16.344,9.391 -39.949,15.571 -73.992,15.571 -24.356,0 -43.031,-3.559 -57.328,-9.34 -59.074,-15.399 -73.664,-140.27 -72.485,-196.11 0.934,-43.949 27.278,-56.168 39.993,-57.32 31.535,-2.879 43.957,25.793 43.957,25.793 -44.91,-0.961 -34.567,120.379 -24.25,158.988 26.882,-9.711 82.906,-22.859 147.297,2.981 10.238,-37.449 33.66,-161.02 -16.028,-158.153 0,0 15.215,-27.707 37.047,-27.707 12.774,-0.011 38.551,11.469 39.484,55.418 1.071,51.02 -15.171,166.731 -63.695,189.879"
         style="fill:#4d2e1c;fill-opacity:1;fill-rule:nonzero;stroke:none"
         id="path120"
         inkscape:connector-curvature="0" /><path
         d="m 812.602,281.07 c -13.856,0 -25.129,-11.281 -25.129,-25.129 0,-13.871 11.273,-25.14 25.129,-25.14 13.863,0 25.136,11.269 25.136,25.14 0,13.848 -11.273,25.129 -25.136,25.129 z m 0,-60.269 c -19.372,0 -35.129,15.758 -35.129,35.14 0,19.368 15.757,35.129 35.129,35.129 19.375,0 35.136,-15.761 35.136,-35.129 0,-19.382 -15.761,-35.14 -35.136,-35.14"
         style="fill:#3d5b7a;fill-opacity:1;fill-rule:nonzero;stroke:none"
         id="path122"
         inkscape:connector-curvature="0" /><path
         d="m 900.105,281.07 c -13.859,0 -25.132,-11.281 -25.132,-25.129 0,-13.871 11.273,-25.14 25.132,-25.14 13.86,0 25.133,11.269 25.133,25.14 0,13.848 -11.273,25.129 -25.133,25.129 z m 0,-60.269 c -19.375,0 -35.132,15.758 -35.132,35.14 0,19.368 15.757,35.129 35.132,35.129 19.372,0 35.133,-15.761 35.133,-35.129 0,-19.382 -15.761,-35.14 -35.133,-35.14"
         style="fill:#3d5b7a;fill-opacity:1;fill-rule:nonzero;stroke:none"
         id="path124"
         inkscape:connector-curvature="0" /><path
         d="m 842.738,250.941 27.2344,0 0,10 -27.2344,0 0,-10 z"
         style="fill:#3d5b7a;fill-opacity:1;fill-rule:nonzero;stroke:none"
         id="path126"
         inkscape:connector-curvature="0" /><path
         d="m 931.547,255.352 -1.16,9.929 20.668,2.418 1.164,-9.929 -20.672,-2.418"
         style="fill:#3d5b7a;fill-opacity:1;fill-rule:nonzero;stroke:none"
         id="path128"
         inkscape:connector-curvature="0" /><path
         d="m 779.508,255.371 -20.406,3.16 1.535,9.879 20.402,-3.16 -1.531,-9.879"
         style="fill:#3d5b7a;fill-opacity:1;fill-rule:nonzero;stroke:none"
         id="path130"
         inkscape:connector-curvature="0" /><path
         d="m 826.703,262.738 c 0,-7.519 -6.094,-13.597 -13.617,-13.597 -7.516,0 -13.609,6.078 -13.609,13.597 0,7.524 6.093,13.614 13.609,13.614 7.523,0 13.617,-6.09 13.617,-13.614"
         style="fill:#1a1412;fill-opacity:1;fill-rule:nonzero;stroke:none"
         id="path132"
         inkscape:connector-curvature="0" /><path
         d="m 915.66,262.738 c 0,-7.519 -6.097,-13.597 -13.609,-13.597 -7.52,0 -13.617,6.078 -13.617,13.597 0,7.524 6.097,13.614 13.617,13.614 7.512,0 13.609,-6.09 13.609,-13.614"
         style="fill:#1a1412;fill-opacity:1;fill-rule:nonzero;stroke:none"
         id="path134"
         inkscape:connector-curvature="0" /><path
         d="m 863.043,202.281 -0.793,0.117 -7.656,2.551 c -2.012,0.672 -3.516,2.063 -4.344,4.02 -2.609,6.172 2.313,16.73 2.887,17.91 0.597,1.25 2.09,1.781 3.332,1.172 1.242,-0.59 1.769,-2.09 1.172,-3.332 -1.774,-3.688 -4.094,-10.707 -2.782,-13.797 l 1.317,-1.223 7.656,-2.551 c 1.309,-0.437 2.02,-1.847 1.582,-3.168 -0.351,-1.039 -1.32,-1.699 -2.371,-1.699"
         style="fill:#a8785c;fill-opacity:1;fill-rule:nonzero;stroke:none"
         id="path136"
         inkscape:connector-curvature="0" /><path
         d="m 860.902,163.879 -1.976,0.019 c -16.352,0.321 -28.071,4.122 -34.828,11.293 -5.703,6.039 -5.641,12.18 -5.614,12.86 0.075,2.07 1.727,3.961 3.887,3.597 2.059,-0.078 3.66,-1.789 3.609,-3.828 0,-0.738 0.411,-15.769 33.09,-16.422 33.164,-0.718 34.414,16.704 34.461,17.434 0.121,2.047 1.992,3.727 3.914,3.547 2.059,-0.098 3.649,-1.801 3.578,-3.848 -0.039,-1.031 -1.312,-24.652 -40.121,-24.652"
         style="fill:#a8785c;fill-opacity:1;fill-rule:nonzero;stroke:none"
         id="path138"
         inkscape:connector-curvature="0" /><path
         d="m 206.648,762.551 -79.675,0 c -13.305,0 -25.821,5.179 -35.2386,14.59 -9.4141,9.429 -14.5938,21.941 -14.5938,35.25 l 0,126.148 c 0,13.313 5.1797,25.82 14.586,35.242 9.4214,9.41 21.9334,14.598 35.2464,14.598 l 192.554,0 c 7.969,0 15.461,3.101 21.098,8.742 5.629,5.629 8.734,13.119 8.734,21.089 l 0,36.52 20,0 0,-36.52 c 0,-13.3 -5.179,-25.819 -14.589,-35.241 -9.422,-9.41 -21.938,-14.59 -35.243,-14.59 l -192.554,0 c -7.969,0 -15.457,-3.109 -21.098,-8.738 -5.633,-5.641 -8.7344,-13.129 -8.7344,-21.102 l 0,-126.148 c 0,-7.969 3.1014,-15.469 8.7384,-21.11 5.629,-5.633 13.125,-8.73 21.094,-8.73 l 79.675,0 0,-20"
         style="fill:#3d5b7a;fill-opacity:1;fill-rule:nonzero;stroke:none"
         id="path140"
         inkscape:connector-curvature="0" /><path
         d="m 299.605,1081.25 -139.429,0 c -7.988,0 -15.496,3.11 -21.153,8.77 -5.656,5.63 -8.769,13.16 -8.769,21.15 l 0,63.07 c 0,7.99 3.113,15.51 8.773,21.16 5.645,5.65 13.161,8.76 21.149,8.76 l 92.949,0 c 7.969,0 15.465,3.11 21.109,8.74 5.625,5.64 8.731,13.14 8.731,21.1 l 0,73.04 20,0 0,-73.04 c 0,-13.3 -5.184,-25.82 -14.586,-35.24 -9.434,-9.42 -21.949,-14.6 -35.254,-14.6 l -92.949,0 c -2.649,0 -5.137,-1.03 -7.012,-2.91 -1.879,-1.87 -2.91,-4.36 -2.91,-7.01 l 0,-63.07 c 0,-2.65 1.031,-5.13 2.898,-7 1.891,-1.88 4.383,-2.92 7.024,-2.92 l 139.429,0 0,-20"
         style="fill:#23b59d;fill-opacity:1;fill-rule:nonzero;stroke:none"
         id="path142"
         inkscape:connector-curvature="0" /><path
         d="m 463.535,1630.7 -20,0 c -2.765,0 -5,2.23 -5,5 0,2.76 2.235,5 5,5 l 20,0 c 2.766,0 5,-2.24 5,-5 0,-2.77 -2.234,-5 -5,-5 z m 50,0 -20,0 c -2.765,0 -5,2.23 -5,5 0,2.76 2.235,5 5,5 l 20,0 c 2.766,0 5,-2.24 5,-5 0,-2.77 -2.234,-5 -5,-5 z m -117.527,-10.02 c -1.379,0 -2.754,0.56 -3.742,1.68 -1.832,2.07 -1.645,5.22 0.425,7.05 5.633,5 12.489,8.52 19.813,10.18 2.691,0.61 5.371,-1.09 5.98,-3.78 0.61,-2.7 -1.082,-5.37 -3.773,-5.98 -5.688,-1.28 -11.012,-4.01 -15.391,-7.9 -0.953,-0.84 -2.132,-1.25 -3.312,-1.25 z m -13.41,-46.13 c -2.762,0 -5,2.24 -5,5 l 0,16.31 c 0,1.38 0.062,2.77 0.191,4.14 0.254,2.75 2.758,4.8 5.434,4.53 2.754,-0.26 4.773,-2.69 4.527,-5.44 -0.098,-1.07 -0.152,-2.15 -0.152,-3.23 l 0,-16.31 c 0,-2.76 -2.239,-5 -5,-5 z m -51.739,-36.81 -20,0 c -2.761,0 -5,2.24 -5,5 0,2.76 2.239,5 5,5 l 20,0 c 2.762,0 5,-2.24 5,-5 0,-2.76 -2.238,-5 -5,-5 z m 31.817,0 -1.817,0 c -2.761,0 -5,2.24 -5,5 0,2.76 2.239,5 5,5 l 1.817,0 c 3.984,0 7.734,1.55 10.547,4.37 l 1.269,1.44 c 1.699,2.17 4.832,2.58 7.016,0.88 2.18,-1.7 2.57,-4.84 0.875,-7.02 l -2.086,-2.37 c -4.699,-4.71 -10.961,-7.3 -17.621,-7.3 z m -101.817,-0.06 c -2.64,0 -4.847,2.07 -4.992,4.73 -0.14,2.76 1.977,5.11 4.735,5.26 l 2.449,0.07 17.808,0 c 2.762,0 5,-2.24 5,-5 0,-2.76 -2.238,-5 -5,-5 l -19.73,-0.06 -0.27,0 z m -36.273,-29.53 -1.285,0.17 c -2.672,0.71 -4.262,3.45 -3.555,6.11 1.926,7.26 5.688,13.98 10.895,19.43 1.91,2 5.078,2.07 7.07,0.17 1.996,-1.91 2.07,-5.07 0.164,-7.07 -4.043,-4.24 -6.973,-9.46 -8.461,-15.08 -0.598,-2.25 -2.617,-3.73 -4.828,-3.73 z m -1.34,-49.88 c -2.762,0 -5,2.24 -5,5 l 0,20 c 0,2.77 2.238,5 5,5 2.766,0 5,-2.23 5,-5 l 0,-20 c 0,-2.76 -2.234,-5 -5,-5 z m 0,-50 c -2.762,0 -5,2.24 -5,5 l 0,20 c 0,2.77 2.238,5 5,5 2.766,0 5,-2.23 5,-5 l 0,-20 c 0,-2.76 -2.234,-5 -5,-5"
         style="fill:#3d5b7a;fill-opacity:1;fill-rule:nonzero;stroke:none"
         id="path144"
         inkscape:connector-curvature="0" /><path
         d="m 544.434,1227.32 -57.262,0 c -13.317,0 -25.828,5.18 -35.238,14.6 -9.414,9.41 -14.598,21.93 -14.598,35.24 l 0,131.96 c 0,13.31 5.184,25.83 14.594,35.24 9.422,9.42 21.937,14.6 35.242,14.6 l 27.391,0 c 7.972,0 15.46,3.1 21.097,8.74 5.629,5.63 8.735,13.13 8.735,21.1 l 0,114.52 20,0 0,-114.52 c 0,-13.31 -5.18,-25.83 -14.59,-35.25 -9.418,-9.41 -21.934,-14.59 -35.242,-14.59 l -27.391,0 c -7.969,0 -15.461,-3.1 -21.098,-8.74 -5.636,-5.63 -8.738,-13.13 -8.738,-21.1 l 0,-131.96 c 0,-7.97 3.102,-15.46 8.738,-21.1 5.637,-5.63 13.125,-8.74 21.098,-8.74 l 57.262,0 0,-20"
         style="fill:#a563b8;fill-opacity:1;fill-rule:nonzero;stroke:none"
         id="path146"
         inkscape:connector-curvature="0" /><path
         d="m 850.73,632.91 -20,0 0,123.871 c 0,2.649 -1.027,5.141 -2.902,7.008 -1.883,1.871 -4.371,2.91 -7.015,2.91 l -107.067,0 c -7.988,0 -15.5,3.11 -21.152,8.77 -5.645,5.633 -8.762,13.14 -8.762,21.152 l 0,44.82 c 0,7.989 3.109,15.508 8.766,21.149 5.656,5.648 13.164,8.762 21.148,8.762 l 136.942,0 0,-20 -136.942,0 c -2.648,0 -5.137,-1.032 -7.016,-2.911 -1.867,-1.859 -2.898,-4.351 -2.898,-7 l 0,-44.82 c 0,-2.66 1.027,-5.141 2.891,-7 1.89,-1.891 4.382,-2.922 7.023,-2.922 l 107.067,0 c 7.98,0 15.492,-3.109 21.144,-8.758 5.66,-5.652 8.773,-13.16 8.773,-21.16 l 0,-123.871"
         style="fill:#35b5ed;fill-opacity:1;fill-rule:nonzero;stroke:none"
         id="path148"
         inkscape:connector-curvature="0" /><path
         d="m 566.848,1152.64 -18.11,0 c -2.761,0 -5,2.24 -5,5 0,2.77 2.239,5 5,5 l 18.11,0 c 2.761,0 5,-2.23 5,-5 0,-2.76 -2.239,-5 -5,-5 z m -66.336,-8.05 c -1.512,0 -3.008,0.69 -3.989,1.99 -1.668,2.2 -1.234,5.33 0.965,7 5.992,4.54 13.102,7.51 20.559,8.59 2.73,0.44 5.266,-1.49 5.664,-4.22 0.398,-2.74 -1.492,-5.27 -4.231,-5.67 -5.785,-0.85 -11.3,-3.15 -15.957,-6.67 -0.902,-0.68 -1.96,-1.02 -3.011,-1.02 z m -15.828,-44.98 c -2.766,0 -5,2.24 -5,5 l 0,13.2 c 0,2.55 0.214,5.1 0.648,7.62 0.465,2.71 3.086,4.52 5.773,4.08 2.723,-0.47 4.547,-3.05 4.083,-5.77 -0.34,-1.97 -0.504,-3.95 -0.504,-5.93 l 0,-13.2 c 0,-2.76 -2.239,-5 -5,-5 z m 0,-50 c -2.766,0 -5,2.24 -5,5 l 0,20 c 0,2.77 2.234,5 5,5 2.761,0 5,-2.23 5,-5 l 0,-20 c 0,-2.76 -2.239,-5 -5,-5 z m 4.246,-49.33 c -1.828,0 -3.594,1.01 -4.473,2.75 -3.117,6.2 -4.769,13.17 -4.773,20.16 l 0,1.42 c 0,2.77 2.234,5 5,5 2.761,0 5,-2.23 5,-5 l 0,-1.42 c 0.004,-5.43 1.289,-10.85 3.711,-15.67 1.238,-2.46 0.242,-5.47 -2.223,-6.71 l -2.242,-0.53 z m 41.582,-21.921 -5.992,0 c -5.29,0 -10.489,0.922 -15.442,2.743 -2.594,0.949 -3.926,3.82 -2.973,6.41 0.95,2.59 3.836,3.937 6.411,2.968 3.851,-1.398 7.89,-2.121 12.004,-2.121 l 5.992,0 c 2.765,0 5,-2.238 5,-5 0,-2.757 -2.235,-5 -5,-5 z m 50,0 -20,0 c -2.762,0 -5,2.243 -5,5 0,2.762 2.238,5 5,5 l 20,0 c 2.765,0 5,-2.238 5,-5 0,-2.757 -2.235,-5 -5,-5 z m 50,0 -20,0 c -2.762,0 -5,2.243 -5,5 0,2.762 2.238,5 5,5 l 20,0 c 2.765,0 5,-2.238 5,-5 0,-2.757 -2.235,-5 -5,-5 z m 50,0 -20,0 c -2.762,0 -5,2.243 -5,5 0,2.762 2.238,5 5,5 l 20,0 c 2.765,0 5,-2.238 5,-5 0,-2.757 -2.235,-5 -5,-5 z m 50,0 -20,0 c -2.762,0 -5,2.243 -5,5 0,2.762 2.238,5 5,5 l 20,0 c 2.765,0 5,-2.238 5,-5 0,-2.757 -2.235,-5 -5,-5 z m 50,0 -20,0 c -2.762,0 -5,2.243 -5,5 0,2.762 2.238,5 5,5 l 20,0 c 2.765,0 5,-2.238 5,-5 0,-2.757 -2.235,-5 -5,-5 z m 50,0 -20,0 c -2.762,0 -5,2.243 -5,5 0,2.762 2.238,5 5,5 l 20,0 c 2.765,0 5,-2.238 5,-5 0,-2.757 -2.235,-5 -5,-5 z m 50,0 -20,0 c -2.762,0 -5,2.243 -5,5 0,2.762 2.238,5 5,5 l 20,0 c 2.765,0 5,-2.238 5,-5 0,-2.757 -2.235,-5 -5,-5 z m 37.91,-27.41 c -2.106,0 -4.063,1.34 -4.75,3.442 -1.707,5.218 -4.563,9.847 -8.469,13.757 l -0.84,0.813 c -2.023,1.879 -2.144,5.039 -0.265,7.07 1.875,2.028 5.039,2.149 7.062,0.27 l 1.113,-1.082 c 5.032,-5.028 8.7,-10.989 10.903,-17.707 0.855,-2.633 -0.574,-5.453 -3.196,-6.313 l -1.558,-0.25 z m 1.984,-49.777 c -2.765,0 -5,2.226 -5,5 l 0,20 c 0,2.758 2.235,5 5,5 2.762,0 5,-2.242 5,-5 l 0,-20 c 0,-2.774 -2.238,-5 -5,-5"
         style="fill:#3d5b7a;fill-opacity:1;fill-rule:nonzero;stroke:none"
         id="path150"
         inkscape:connector-curvature="0" /><path
         d="m 1161.92,1077.93 -64.74,0 c -7.98,0 -15.49,3.11 -21.14,8.76 -5.66,5.65 -8.77,13.17 -8.77,21.16 l 0,69.71 c 0,7.99 3.11,15.51 8.76,21.15 5.64,5.66 13.16,8.77 21.15,8.77 l 231.56,0 c 7.97,0 15.46,3.11 21.1,8.74 5.63,5.64 8.74,13.14 8.74,21.1 l 0,62.25 20,0 0,-62.25 c 0,-13.3 -5.19,-25.82 -14.6,-35.24 -9.41,-9.41 -21.92,-14.6 -35.24,-14.6 l -231.56,0 c -2.64,0 -5.13,-1.02 -7,-2.9 -1.88,-1.88 -2.91,-4.37 -2.91,-7.02 l 0,-69.71 c 0,-2.65 1.03,-5.14 2.9,-7.01 1.88,-1.88 4.37,-2.91 7.01,-2.91 l 64.74,0 0,-20"
         style="fill:#3d5b7a;fill-opacity:1;fill-rule:nonzero;stroke:none"
         id="path152"
         inkscape:connector-curvature="0" /><path
         d="m 1118.04,1548.53 -20,0 c -2.77,0 -5,2.24 -5,5 0,2.76 2.23,5 5,5 l 20,0 c 2.76,0 5,-2.24 5,-5 0,-2.76 -2.24,-5 -5,-5 z m 48.96,-4.46 c -1.11,0 -2.23,0.37 -3.16,1.13 -2.63,2.15 -5.97,3.33 -9.39,3.33 l -6.41,0 c -2.77,0 -5,2.24 -5,5 0,2.76 2.23,5 5,5 l 6.41,0 c 5.72,0 11.3,-1.98 15.71,-5.58 2.14,-1.75 2.46,-4.9 0.72,-7.04 -0.99,-1.21 -2.43,-1.84 -3.88,-1.84 z m 7.37,-47.75 c -2.76,0 -5,2.23 -5,5 l 0,20 c 0,2.76 2.24,5 5,5 2.76,0 5,-2.24 5,-5 l 0,-20 c 0,-2.77 -2.24,-5 -5,-5 z m -2.5,-49.58 -2.43,0.64 c -2.41,1.33 -3.28,4.38 -1.94,6.8 1.23,2.19 1.87,4.69 1.87,7.23 l 0,9.91 c 0,2.76 2.24,5 5,5 2.76,0 5,-2.24 5,-5 l 0,-9.91 c 0,-4.23 -1.08,-8.42 -3.13,-12.1 -0.91,-1.64 -2.62,-2.57 -4.37,-2.57 z m -26.22,-10.25 -20,0 c -2.76,0 -5,2.24 -5,5 0,2.76 2.24,5 5,5 l 20,0 c 2.76,0 5,-2.24 5,-5 0,-2.76 -2.24,-5 -5,-5 z m -69.36,-3.27 c -1.62,0 -3.21,0.79 -4.18,2.25 -1.51,2.31 -0.88,5.41 1.43,6.93 4.06,2.67 8.79,4.09 13.69,4.09 l 8.42,0 c 2.76,0 5,-2.24 5,-5 0,-2.76 -2.24,-5 -5,-5 l -8.42,0 c -2.93,0 -5.77,-0.85 -8.19,-2.44 -0.85,-0.56 -1.8,-0.83 -2.75,-0.83 z m -8.99,-46.93 c -2.76,0 -5,2.23 -5,5 l 0,20 c 0,2.76 2.24,5 5,5 2.77,0 5,-2.24 5,-5 l 0,-20 c 0,-2.77 -2.23,-5 -5,-5 z m 9.67,-46.56 -2.58,0.72 c -1.73,1.04 -3.34,2.3 -4.78,3.75 -4.55,4.53 -7.13,10.56 -7.3,16.97 -0.06,2.76 2.12,5.05 4.88,5.12 2.87,-0.14 5.06,-2.12 5.12,-4.88 0.1,-3.82 1.65,-7.43 4.37,-10.14 0.87,-0.88 1.84,-1.63 2.87,-2.26 2.37,-1.42 3.13,-4.49 1.7,-6.86 -0.93,-1.55 -2.59,-2.42 -4.28,-2.42 z m 49.49,-2.84 -20,0 c -2.77,0 -5,2.24 -5,5 0,2.77 2.23,5 5,5 l 20,0 c 2.76,0 5,-2.23 5,-5 0,-2.76 -2.24,-5 -5,-5 z m 50,0 -20,0 c -2.77,0 -5,2.24 -5,5 0,2.77 2.23,5 5,5 l 20,0 c 2.76,0 5,-2.23 5,-5 0,-2.76 -2.24,-5 -5,-5 z m 50,0 -20,0 c -2.77,0 -5,2.24 -5,5 0,2.77 2.23,5 5,5 l 20,0 c 2.76,0 5,-2.23 5,-5 0,-2.76 -2.24,-5 -5,-5 z m 50,0 -20,0 c -2.77,0 -5,2.24 -5,5 0,2.77 2.23,5 5,5 l 20,0 c 2.76,0 5,-2.23 5,-5 0,-2.76 -2.24,-5 -5,-5"
         style="fill:#a563b8;fill-opacity:1;fill-rule:nonzero;stroke:none"
         id="path154"
         inkscape:connector-curvature="0" /><path
         d="m 935.387,1384.22 -20,0 0,69.71 c 0,2.65 -1.032,5.14 -2.903,7.01 -1.882,1.89 -4.375,2.92 -7.019,2.92 l -27.391,0 c -7.992,0 -15.5,3.11 -21.148,8.76 -5.656,5.65 -8.766,13.16 -8.766,21.16 l 0,134.45 c 0,2.65 -1.031,5.13 -2.906,7.01 -1.879,1.87 -4.371,2.91 -7.012,2.91 l -39.844,0 c -2.64,0 -5.132,-1.04 -7.011,-2.91 -1.871,-1.87 -2.903,-4.36 -2.903,-7.01 l 0,-72.21 c 0,-7.99 -3.113,-15.51 -8.773,-21.16 -5.645,-5.65 -13.156,-8.76 -21.148,-8.76 l -42.329,0 c -7.98,0 -15.492,3.11 -21.144,8.76 -5.656,5.65 -8.774,13.16 -8.774,21.16 l 0,112.05 c 0,13.3 5.184,25.82 14.59,35.23 9.426,9.42 21.942,14.6 35.25,14.6 l 234.043,0 c 13.313,0 25.824,-5.18 35.241,-14.59 9.42,-9.42 14.6,-21.93 14.6,-35.24 l 0,-59.77 -20,0 0,59.77 c 0,7.97 -3.102,15.46 -8.735,21.09 -5.637,5.64 -13.129,8.74 -21.106,8.74 l -234.043,0 c -7.972,0 -15.468,-3.1 -21.101,-8.74 -5.629,-5.63 -8.739,-13.12 -8.739,-21.09 l 0,-112.05 c 0,-2.65 1.032,-5.14 2.903,-7.01 1.879,-1.87 4.371,-2.91 7.015,-2.91 l 42.329,0 c 2.648,0 5.136,1.03 7.011,2.91 1.883,1.87 2.91,4.37 2.91,7.01 l 0,72.21 c 0,7.99 3.114,15.5 8.762,21.15 5.652,5.66 13.164,8.77 21.152,8.77 l 39.844,0 c 7.988,0 15.496,-3.11 21.153,-8.77 5.656,-5.65 8.765,-13.17 8.765,-21.15 l 0,-134.45 c 0,-2.65 1.028,-5.15 2.903,-7.02 1.871,-1.87 4.363,-2.9 7.011,-2.9 l 27.391,0 c 7.992,0 15.508,-3.12 21.156,-8.78 5.649,-5.63 8.766,-13.15 8.766,-21.15 l 0,-69.71"
         style="fill:#23b59d;fill-opacity:1;fill-rule:nonzero;stroke:none"
         id="path156"
         inkscape:connector-curvature="0" /><path
         d="m 1550.34,983.32 -161.84,0 c -13.31,0 -25.83,5.18 -35.25,14.59 -9.41,9.43 -14.59,21.94 -14.59,35.24 l 0,54.78 c 0,13.3 5.18,25.82 14.59,35.24 9.43,9.42 21.94,14.6 35.25,14.6 l 346.08,0 c 7.98,0 15.47,3.11 21.11,8.74 5.63,5.63 8.73,13.12 8.73,21.09 l 0,64.74 20,0 0,-64.74 c 0,-13.3 -5.18,-25.82 -14.59,-35.24 -9.42,-9.41 -21.93,-14.59 -35.25,-14.59 l -346.08,0 c -7.97,0 -15.47,-3.11 -21.11,-8.74 -5.63,-5.64 -8.73,-13.13 -8.73,-21.1 l 0,-54.78 c 0,-7.97 3.1,-15.46 8.74,-21.1 5.63,-5.63 13.13,-8.73 21.1,-8.73 l 161.84,0 0,-20"
         style="fill:#35b5ed;fill-opacity:1;fill-rule:nonzero;stroke:none"
         id="path158"
         inkscape:connector-curvature="0" /><path
         d="m 1684.79,1267.18 -10,0 c -2.76,0 -5,2.23 -5,5 0,2.76 2.24,5 5,5 l 10,0 c 2.76,0 5,-2.24 5,-5 0,-2.77 -2.24,-5 -5,-5"
         style="fill:#3d5b7a;fill-opacity:1;fill-rule:nonzero;stroke:none"
         id="path160"
         inkscape:connector-curvature="0" /><path
         d="m 1775.21,1610.78 -20.04,0 c -2.77,0 -5,2.23 -5,5 0,2.76 2.23,5 5,5 l 20.04,0 c 2.77,0 5,-2.24 5,-5 0,-2.77 -2.23,-5 -5,-5 z m 47.1,-11.46 c -1.27,0 -2.53,0.48 -3.51,1.43 -4.19,4.13 -9.37,7.14 -14.99,8.72 -2.66,0.75 -4.21,3.51 -3.46,6.17 0.75,2.66 3.54,4.19 6.16,3.46 7.24,-2.03 13.92,-5.92 19.31,-11.22 1.96,-1.94 1.99,-5.1 0.05,-7.07 -0.98,-1 -2.27,-1.49 -3.56,-1.49 z m 11.87,-46.92 c -2.76,0 -5,2.23 -5,5 l -0.02,19.85 c -0.11,2.76 2.04,5.09 4.8,5.19 2.79,0.22 5.08,-2.03 5.19,-4.8 l 0.03,-20.24 c 0,-2.77 -2.24,-5 -5,-5 z m 0,-50.13 c -2.76,0 -5,2.23 -5,5 l 0,20.05 c 0,2.76 2.24,5 5,5 2.76,0 5,-2.24 5,-5 l 0,-20.05 c 0,-2.77 -2.24,-5 -5,-5 z m -15.67,-45.18 c -1.51,0 -2.99,0.67 -3.98,1.95 -1.68,2.19 -1.26,5.34 0.93,7.01 1.22,0.94 2.4,1.97 3.52,3.09 3.07,3.07 5.5,6.62 7.24,10.54 1.12,2.53 4.06,3.65 6.59,2.55 2.53,-1.11 3.67,-4.07 2.56,-6.59 -2.24,-5.06 -5.37,-9.62 -9.32,-13.57 -1.43,-1.43 -2.94,-2.75 -4.51,-3.96 -0.91,-0.69 -1.97,-1.02 -3.03,-1.02 z m -178.68,-8.16 -20.05,0 c -2.76,0 -5,2.24 -5,5 0,2.77 2.24,5 5,5 l 20.05,0 c 2.76,0 5,-2.23 5,-5 0,-2.76 -2.24,-5 -5,-5 z m 50.13,0 -20.05,0 c -2.77,0 -5,2.24 -5,5 0,2.77 2.23,5 5,5 l 20.05,0 c 2.76,0 5,-2.23 5,-5 0,-2.76 -2.24,-5 -5,-5 z m 50.13,0 -20.05,0 c -2.76,0 -5,2.24 -5,5 0,2.77 2.24,5 5,5 l 20.05,0 c 2.76,0 5,-2.23 5,-5 0,-2.76 -2.24,-5 -5,-5 z m 50.13,0 -20.05,0 c -2.77,0 -5,2.24 -5,5 0,2.77 2.23,5 5,5 l 20.05,0 c 2.76,0 5,-2.23 5,-5 0,-2.76 -2.24,-5 -5,-5 z m -218.21,-7.61 c -1.09,0 -2.18,0.35 -3.1,1.08 -2.17,1.72 -2.53,4.87 -0.81,7.03 l 1.95,2.19 c 4.72,4.72 10.97,7.31 17.64,7.31 l 2.01,0 c 2.77,0 5,-2.23 5,-5 0,-2.76 -2.23,-5 -5,-5 l -2.01,0 c -3.99,0 -7.74,-1.55 -10.55,-4.36 l -1.21,-1.36 c -0.98,-1.24 -2.44,-1.89 -3.92,-1.89 z m -4.25,-49.17 c -2.76,0 -5,2.24 -5,5 l 0,20.05 c 0,2.76 2.24,5 5,5 2.77,0 5,-2.24 5,-5 l 0,-20.05 c 0,-2.76 -2.23,-5 -5,-5 z m -15.9,-42.4 c -2.32,0 -4.41,1.63 -4.89,4 -0.56,2.7 1.18,5.34 3.89,5.9 2.85,0.58 5.46,1.99 7.53,4.06 1.52,1.52 2.67,3.29 3.41,5.27 0.98,2.59 3.88,3.9 6.44,2.93 2.59,-0.97 3.89,-3.86 2.93,-6.44 -1.26,-3.33 -3.18,-6.3 -5.71,-8.83 -3.46,-3.46 -7.81,-5.8 -12.59,-6.79 l -1.01,-0.1 z m -44.9,-12.89 -1.87,0.37 c -2.56,1.03 -3.8,3.94 -2.77,6.5 1.25,3.11 3.1,5.91 5.5,8.31 3.59,3.6 8.13,5.99 13.13,6.89 2.69,0.54 5.32,-1.3 5.81,-4.02 0.5,-2.72 -1.31,-5.32 -4.03,-5.82 -2.97,-0.54 -5.68,-1.96 -7.83,-4.11 -1.45,-1.44 -2.56,-3.12 -3.3,-4.98 -0.79,-1.95 -2.66,-3.14 -4.64,-3.14 z m -1.44,-49.85 c -2.77,0 -5,2.15 -5,4.91 l 0,20.05 c 0,2.76 2.23,5 5,5 2.76,0 5,-2.24 5,-5 l 0,-19.87 c 0,-2.76 -2.24,-5.09 -5,-5.09 z m 38.93,-19.83 -20.33,0.04 c -2.76,0.15 -4.87,2.51 -4.71,5.27 0.15,2.76 2.41,4.86 5.27,4.71 l 19.77,-0.02 c 2.77,0 5,-2.24 5,-5 0,-2.77 -2.23,-5 -5,-5 z m 50.13,0 -20.05,0 c -2.76,0 -5,2.23 -5,5 0,2.76 2.24,5 5,5 l 20.05,0 c 2.77,0 5,-2.24 5,-5 0,-2.77 -2.23,-5 -5,-5 z m 50.13,0 -20.05,0 c -2.77,0 -5,2.23 -5,5 0,2.76 2.23,5 5,5 l 20.05,0 c 2.77,0 5,-2.24 5,-5 0,-2.77 -2.23,-5 -5,-5"
         style="fill:#3d5b7a;fill-opacity:1;fill-rule:nonzero;stroke:none"
         id="path162"
         inkscape:connector-curvature="0" /><path
         d="m 1724.67,1610.78 -10,0 c -2.77,0 -5,2.23 -5,5 0,2.76 2.23,5 5,5 l 10,0 c 2.76,0 5,-2.24 5,-5 0,-2.77 -2.24,-5 -5,-5"
         style="fill:#3d5b7a;fill-opacity:1;fill-rule:nonzero;stroke:none"
         id="path164"
         inkscape:connector-curvature="0" /><path
         d="m 1455.72,1468.84 -37.35,0 c -13.3,0 -25.82,5.18 -35.24,14.59 -9.41,9.41 -14.59,21.93 -14.59,35.24 l 0,139.44 20,0 0,-139.44 c 0,-7.97 3.1,-15.46 8.74,-21.1 5.63,-5.63 13.13,-8.73 21.09,-8.73 l 37.35,0 c 2.65,0 5.14,1.03 7.01,2.9 1.88,1.87 2.91,4.37 2.91,7.02 l 0,44.81 c 0,7.99 3.11,15.51 8.76,21.16 5.66,5.65 13.17,8.76 21.16,8.76 l 99.59,0 0,-20 -99.59,0 c -2.65,0 -5.14,-1.03 -7.02,-2.91 -1.87,-1.87 -2.9,-4.36 -2.9,-7.01 l 0,-44.81 c 0,-7.99 -3.11,-15.51 -8.76,-21.16 -5.65,-5.65 -13.16,-8.76 -21.16,-8.76"
         style="fill:#a563b8;fill-opacity:1;fill-rule:nonzero;stroke:none"
         id="path166"
         inkscape:connector-curvature="0" /><path
         d="m 1311.35,1409.12 -20,0 0,87.15 c 0,2.65 -1.03,5.14 -2.9,7.01 -1.87,1.87 -4.37,2.9 -7.01,2.9 l -29.89,0 c -7.99,0 -15.5,3.12 -21.15,8.77 -5.65,5.64 -8.76,13.16 -8.76,21.15 l 0,129.47 c 0,8 3.11,15.52 8.77,21.16 5.64,5.65 13.15,8.76 21.14,8.76 l 59.76,0 0,-20 -59.76,0 c -2.64,0 -5.13,-1.03 -7.01,-2.9 -1.87,-1.88 -2.9,-4.36 -2.9,-7.02 l 0,-129.47 c 0,-2.65 1.03,-5.13 2.9,-7 1.88,-1.88 4.37,-2.92 7.01,-2.92 l 29.89,0 c 7.98,0 15.49,-3.11 21.14,-8.75 5.66,-5.66 8.77,-13.17 8.77,-21.16 l 0,-87.15"
         style="fill:#35b5ed;fill-opacity:1;fill-rule:nonzero;stroke:none"
         id="path168"
         inkscape:connector-curvature="0" /><path
         d="m 1143.33,803.531 -20,0 0,51.668 c 0,8.02 3.13,15.551 8.8,21.223 5.65,5.648 13.19,8.777 21.2,8.777 l 201.67,0 c 2.67,0 5.18,1.039 7.07,2.93 1.89,1.891 2.93,4.402 2.93,7.07 l 0,20 c 0,2.672 -1.04,5.18 -2.92,7.071 -1.9,1.89 -4.41,2.929 -7.08,2.929 l -260,0 c -8.01,0 -15.55,3.121 -21.21,8.789 -5.66,5.66 -8.79,13.192 -8.79,21.211 l 0,13.332 c 0,8.02 3.13,15.559 8.79,21.219 5.66,5.66 13.2,8.781 21.21,8.781 l 90,0 c 2.67,0 5.18,1.039 7.07,2.929 1.89,1.9 2.93,4.4 2.93,7.08 l 0,26.66 20,0 0,-26.66 c 0,-8.02 -3.12,-15.56 -8.79,-21.22 -5.66,-5.66 -13.2,-8.789 -21.21,-8.789 l -90,0 c -2.67,0 -5.18,-1.043 -7.07,-2.922 -1.89,-1.89 -2.93,-4.398 -2.93,-7.078 l 0,-13.332 c 0,-2.668 1.04,-5.179 2.92,-7.07 1.9,-1.891 4.41,-2.93 7.08,-2.93 l 260,0 c 8.01,0 15.55,-3.117 21.21,-8.789 5.67,-5.66 8.79,-13.191 8.79,-21.211 l 0,-20 c 0,-8.019 -3.12,-15.551 -8.79,-21.219 -5.66,-5.66 -13.2,-8.781 -21.21,-8.781 l -201.67,0 c -2.67,0 -5.18,-1.039 -7.06,-2.918 -1.89,-1.902 -2.94,-4.41 -2.94,-7.082 l 0,-51.668"
         style="fill:#a563b8;fill-opacity:1;fill-rule:nonzero;stroke:none"
         id="path170"
         inkscape:connector-curvature="0" /><path
         d="m 608.344,606.32 c 0,-27.5 -22.297,-49.789 -49.797,-49.789 l -335.301,0 c -27.5,0 -49.793,22.289 -49.793,49.789 l 0,215.789 c 0,27.5 22.293,49.789 49.793,49.789 l 335.301,0 c 27.5,0 49.797,-22.289 49.797,-49.789 l 0,-215.789"
         style="fill:#3d5b7a;fill-opacity:1;fill-rule:nonzero;stroke:none"
         id="path172"
         inkscape:connector-curvature="0" /><path
         d="m 223.246,586.531 c -10.91,0 -19.793,8.879 -19.793,19.789 l 0,215.789 c 0,10.911 8.883,19.789 19.793,19.789 l 335.301,0 c 10.918,0 19.797,-8.878 19.797,-19.789 l 0,-215.789 c 0,-10.91 -8.879,-19.789 -19.797,-19.789 l -335.301,0"
         style="fill:#e9f1f0;fill-opacity:1;fill-rule:nonzero;stroke:none"
         id="path174"
         inkscape:connector-curvature="0" /><path
         d="m 943.645,547.961 c 0,-12.59 -10.215,-22.801 -22.809,-22.801 l -153.57,0 c -12.598,0 -22.809,10.211 -22.809,22.801 l 0,98.84 c 0,12.59 10.211,22.801 22.809,22.801 l 153.57,0 c 12.594,0 22.809,-10.211 22.809,-22.801 l 0,-98.84"
         style="fill:#35b5ed;fill-opacity:1;fill-rule:nonzero;stroke:none"
         id="path176"
         inkscape:connector-curvature="0" /><path
         d="m 767.266,546.32 c -0.911,0 -1.653,0.739 -1.653,1.641 l 0,98.84 c 0,0.898 0.742,1.64 1.653,1.64 l 153.57,0 c 0.906,0 1.644,-0.742 1.644,-1.64 l 0,-98.84 c 0,-0.902 -0.738,-1.641 -1.644,-1.641 l -153.57,0"
         style="fill:#e9f1f0;fill-opacity:1;fill-rule:nonzero;stroke:none"
         id="path178"
         inkscape:connector-curvature="0" /><path
         d="m 1533.29,841.352 -20,0 c -2.77,0 -5,2.238 -5,5 0,2.769 2.23,5 5,5 l 20,0 c 2.76,0 5,-2.231 5,-5 0,-2.762 -2.24,-5 -5,-5 z m 50,0 -20,0 c -2.77,0 -5,2.238 -5,5 0,2.769 2.23,5 5,5 l 20,0 c 2.76,0 5,-2.231 5,-5 0,-2.762 -2.24,-5 -5,-5 z m 34.9,0 -4.9,0 c -2.77,0 -5,2.238 -5,5 0,2.769 2.23,5 5,5 l 4.9,0 c 2.76,0 5,-2.231 5,-5 0,-2.762 -2.24,-5 -5,-5 z m -152.57,-7.563 c -1.09,0 -2.19,0.359 -3.11,1.082 -2.16,1.719 -2.51,4.867 -0.8,7.027 l 1.9,2.141 c 4.73,4.723 10.99,7.313 17.64,7.313 l 2.04,0 c 2.76,0 5,-2.231 5,-5 0,-2.762 -2.24,-5 -5,-5 l -2.04,0 c -3.98,0 -7.73,-1.551 -10.55,-4.372 l -1.16,-1.3 c -0.99,-1.25 -2.45,-1.891 -3.92,-1.891 z m -4.29,-49.019 c -2.76,0 -5,2.23 -5,5 l 0,20 c 0,2.761 2.24,5 5,5 2.77,0 5,-2.239 5,-5 l 0,-20 c 0,-2.77 -2.23,-5 -5,-5 z m 10.82,-45.879 -2.27,0.55 c -2.31,1.18 -4.42,2.719 -6.26,4.571 -4.09,4.09 -6.64,9.519 -7.18,15.297 -0.25,2.75 1.77,5.179 4.52,5.441 2.79,0.25 5.18,-1.77 5.44,-4.52 0.32,-3.511 1.81,-6.671 4.3,-9.148 1.11,-1.113 2.36,-2.031 3.74,-2.742 2.45,-1.258 3.43,-4.27 2.17,-6.731 -0.89,-1.73 -2.64,-2.718 -4.46,-2.718 z m 49.66,-2.192 -20,0 c -2.76,0 -5,2.242 -5,5 0,2.762 2.24,5 5,5 l 20,0 c 2.77,0 5,-2.238 5,-5 0,-2.758 -2.23,-5 -5,-5 z m 50,0 -20,0 c -2.76,0 -5,2.242 -5,5 0,2.762 2.24,5 5,5 l 20,0 c 2.77,0 5,-2.238 5,-5 0,-2.758 -2.23,-5 -5,-5 z m 36.42,-22.129 c -2.76,0 -5,2.239 -5,5 l 0,2.211 c 0,3.981 -1.55,7.731 -4.37,10.539 l -1.18,1.059 c -2.16,1.723 -2.51,4.871 -0.8,7.031 1.72,2.16 4.87,2.512 7.03,0.801 l 2.02,-1.813 c 4.71,-4.699 7.3,-10.957 7.3,-17.617 l 0,-2.211 c 0,-2.761 -2.23,-5 -5,-5 z m 0,-50 c -2.76,0 -5,2.239 -5,5 l 0,20 c 0,2.77 2.24,5 5,5 2.77,0 5,-2.23 5,-5 l 0,-20 c 0,-2.761 -2.23,-5 -5,-5"
         style="fill:#23b59d;fill-opacity:1;fill-rule:nonzero;stroke:none"
         id="path180"
         inkscape:connector-curvature="0" /><path
         d="m 1711.14,564.629 c 0,-12.59 -10.21,-22.801 -22.81,-22.801 l -153.56,0 c -12.6,0 -22.81,10.211 -22.81,22.801 l 0,98.84 c 0,12.59 10.21,22.801 22.81,22.801 l 153.56,0 c 12.6,0 22.81,-10.211 22.81,-22.801 l 0,-98.84"
         style="fill:#23b59d;fill-opacity:1;fill-rule:nonzero;stroke:none"
         id="path182"
         inkscape:connector-curvature="0" /><path
         d="m 1534.77,562.988 c -0.91,0 -1.65,0.742 -1.65,1.641 l 0,98.84 c 0,0.902 0.74,1.64 1.65,1.64 l 153.56,0 c 0.91,0 1.65,-0.738 1.65,-1.64 l 0,-98.84 c 0,-0.899 -0.74,-1.641 -1.65,-1.641 l -153.56,0"
         style="fill:#e9f1f0;fill-opacity:1;fill-rule:nonzero;stroke:none"
         id="path184"
         inkscape:connector-curvature="0" /><path
         d="m 1406.75,592.691 c 0,-23.312 -18.89,-42.203 -42.19,-42.203 l -284.11,0 c -23.3,0 -42.19,18.891 -42.19,42.203 l 0,182.829 c 0,23.312 18.89,42.199 42.19,42.199 l 284.11,0 c 23.3,0 42.19,-18.887 42.19,-42.199 l 0,-182.829"
         style="fill:#a563b8;fill-opacity:1;fill-rule:nonzero;stroke:none"
         id="path186"
         inkscape:connector-curvature="0" /><path
         d="m 1080.45,580.488 c -6.72,0 -12.19,5.473 -12.19,12.203 l 0,182.829 c 0,6.73 5.47,12.199 12.19,12.199 l 284.11,0 c 6.72,0 12.19,-5.469 12.19,-12.199 l 0,-182.829 c 0,-6.73 -5.47,-12.203 -12.19,-12.203 l -284.11,0"
         style="fill:#e9f1f0;fill-opacity:1;fill-rule:nonzero;stroke:none"
         id="path188"
         inkscape:connector-curvature="0" /><path
         d="m 427.207,1055.99 c 0,-10.68 -8.66,-19.33 -19.336,-19.33 l -130.219,0 c -10.675,0 -19.336,8.65 -19.336,19.33 l 0,83.8 c 0,10.68 8.661,19.34 19.336,19.34 l 130.219,0 c 10.676,0 19.336,-8.66 19.336,-19.34 l 0,-83.8"
         style="fill:#23b59d;fill-opacity:1;fill-rule:nonzero;stroke:none"
         id="path190"
         inkscape:connector-curvature="0" /><path
         d="m 279.473,1057.82 126.574,0 0,80.1563 -126.574,0 0,-80.1563 z"
         style="fill:#e9f1f0;fill-opacity:1;fill-rule:nonzero;stroke:none"
         id="path192"
         inkscape:connector-curvature="0" /><path
         d="m 1929.7,828.332 c 0,-24 -19.46,-43.461 -43.45,-43.461 l -292.65,0 c -23.99,0 -43.45,19.461 -43.45,43.461 l 0,188.328 c 0,24 19.46,43.46 43.45,43.46 l 292.65,0 c 23.99,0 43.45,-19.46 43.45,-43.46 l 0,-188.328"
         style="fill:#35b5ed;fill-opacity:1;fill-rule:nonzero;stroke:none"
         id="path194"
         inkscape:connector-curvature="0" /><path
         d="m 1599.3,807.969 c -13.25,0 -24.02,10.781 -24.02,24.019 l 0,181.002 c 0,13.26 10.77,24.03 24.02,24.03 l 281.25,0 c 13.25,0 24.02,-10.77 24.02,-24.03 l 0,-181.002 c 0,-13.238 -10.77,-24.019 -24.02,-24.019 l -281.25,0"
         style="fill:#f7fdfe;fill-opacity:1;fill-rule:nonzero;stroke:none"
         id="path196"
         inkscape:connector-curvature="0" /><path
         d="m 372.633,1314.96 c 0,-15.32 -12.43,-27.74 -27.75,-27.74 l -186.84,0 c -15.324,0 -27.746,12.42 -27.746,27.74 l 0,120.25 c 0,15.33 12.422,27.75 27.746,27.75 l 186.84,0 c 15.32,0 27.75,-12.42 27.75,-27.75 l 0,-120.25"
         style="fill:#3d5b7a;fill-opacity:1;fill-rule:nonzero;stroke:none"
         id="path198"
         inkscape:connector-curvature="0" /><path
         d="m 158.043,1308.38 c -3.633,0 -6.59,2.96 -6.59,6.58 l 0,120.25 c 0,3.64 2.957,6.59 6.59,6.59 l 186.84,0 c 3.633,0 6.586,-2.95 6.586,-6.59 l 0,-120.25 c 0,-3.62 -2.953,-6.58 -6.586,-6.58 l -186.84,0"
         style="fill:#f7fdfe;fill-opacity:1;fill-rule:nonzero;stroke:none"
         id="path200"
         inkscape:connector-curvature="0" /><path
         d="m 638.219,1589.02 c 0,-10.69 -8.668,-19.37 -19.356,-19.37 l -130.386,0 c -10.688,0 -19.356,8.68 -19.356,19.37 l 0,83.91 c 0,10.68 8.668,19.36 19.356,19.36 l 130.386,0 c 10.688,0 19.356,-8.68 19.356,-19.36 l 0,-83.91"
         style="fill:#a563b8;fill-opacity:1;fill-rule:nonzero;stroke:none"
         id="path202"
         inkscape:connector-curvature="0" /><path
         d="m 488.477,1589.65 0.644,83.28 129.742,-0.64 -0.64,-82.64 -129.746,0"
         style="fill:#e9f1f0;fill-opacity:1;fill-rule:nonzero;stroke:none"
         id="path204"
         inkscape:connector-curvature="0" /><path
         d="m 976.836,833.359 c 0,-9.23 -7.484,-16.718 -16.719,-16.718 l -112.617,0 c -9.234,0 -16.723,7.488 -16.723,16.718 l 0,72.481 c 0,9.23 7.489,16.719 16.723,16.719 l 112.617,0 c 9.235,0 16.719,-7.489 16.719,-16.719 l 0,-72.481"
         style="fill:#3d5b7a;fill-opacity:1;fill-rule:nonzero;stroke:none"
         id="path206"
         inkscape:connector-curvature="0" /><path
         d="m 851.934,837.801 103.746,0 0,63.6094 -103.746,0 0,-63.6094 z"
         style="fill:#e9f1f0;fill-opacity:1;fill-rule:nonzero;stroke:none"
         id="path208"
         inkscape:connector-curvature="0" /><path
         d="m 1280.6,1045 c 0,-9.24 -7.49,-16.72 -16.72,-16.72 l -112.62,0 c -9.23,0 -16.72,7.48 -16.72,16.72 l 0,72.48 c 0,9.23 7.49,16.72 16.72,16.72 l 112.62,0 c 9.23,0 16.72,-7.49 16.72,-16.72 l 0,-72.48"
         style="fill:#3d5b7a;fill-opacity:1;fill-rule:nonzero;stroke:none"
         id="path210"
         inkscape:connector-curvature="0" /><path
         d="m 1155.69,1049.44 103.75,0 0,63.6055 -103.75,0 0,-63.6055 z"
         style="fill:#e9f1f0;fill-opacity:1;fill-rule:nonzero;stroke:none"
         id="path212"
         inkscape:connector-curvature="0" /><path
         d="m 1113.28,1533.75 c 0,-10.84 -8.8,-19.64 -19.66,-19.64 l -132.307,0 c -10.852,0 -19.649,8.8 -19.649,19.64 l 0,85.16 c 0,10.86 8.797,19.65 19.649,19.65 l 132.307,0 c 10.86,0 19.66,-8.79 19.66,-19.65 l 0,-85.16"
         style="fill:#23b59d;fill-opacity:1;fill-rule:nonzero;stroke:none"
         id="path214"
         inkscape:connector-curvature="0" /><path
         d="m 962.82,1535.27 129.301,0 0,82.1328 -129.301,0 0,-82.1328 z"
         style="fill:#f7fdfe;fill-opacity:1;fill-rule:nonzero;stroke:none"
         id="path216"
         inkscape:connector-curvature="0" /><path
         d="m 1018.34,1119.05 c 0,-30.02 -24.348,-54.36 -54.367,-54.36 l -366.008,0 c -30.02,0 -54.363,24.34 -54.363,54.36 l 0,235.55 c 0,30.02 24.343,54.36 54.363,54.36 l 366.008,0 c 30.019,0 54.367,-24.34 54.367,-54.36 l 0,-235.55"
         style="fill:#35b5ed;fill-opacity:1;fill-rule:nonzero;stroke:none"
         id="path218"
         inkscape:connector-curvature="0" /><path
         d="m 597.965,1085.85 c -18.309,0 -33.199,14.9 -33.199,33.2 l 0,235.55 c 0,18.31 14.89,33.2 33.199,33.2 l 366.008,0 c 18.312,0 33.207,-14.89 33.207,-33.2 l 0,-235.55 c 0,-18.3 -14.895,-33.2 -33.207,-33.2 l -366.008,0"
         style="fill:#e9f1f0;fill-opacity:1;fill-rule:nonzero;stroke:none"
         id="path220"
         inkscape:connector-curvature="0" /><path
         d="m 1916.34,1233.7 c 0,-18.26 -14.8,-33.06 -33.06,-33.06 l -222.69,0 c -18.26,0 -33.07,14.8 -33.07,33.06 l 0,143.31 c 0,18.27 14.81,33.07 33.07,33.07 l 222.69,0 c 18.26,0 33.06,-14.8 33.06,-33.07 l 0,-143.31"
         style="fill:#3d5b7a;fill-opacity:1;fill-rule:nonzero;stroke:none"
         id="path222"
         inkscape:connector-curvature="0" /><path
         d="m 1660.59,1230.64 c -1.69,0 -3.07,1.37 -3.07,3.06 l 0,143.31 c 0,1.7 1.38,3.07 3.07,3.07 l 222.69,0 c 1.69,0 3.06,-1.37 3.06,-3.07 l 0,-143.31 c 0,-1.69 -1.37,-3.06 -3.06,-3.06 l -222.69,0"
         style="fill:#e9f1f0;fill-opacity:1;fill-rule:nonzero;stroke:none"
         id="path224"
         inkscape:connector-curvature="0" /><path
         d="m 1752.85,1537.47 c 0,-12.39 -10.04,-22.43 -22.42,-22.43 l -151.02,0 c -12.38,0 -22.43,10.04 -22.43,22.43 l 0,97.19 c 0,12.38 10.05,22.43 22.43,22.43 l 151.02,0 c 12.38,0 22.42,-10.05 22.42,-22.43 l 0,-97.19"
         style="fill:#a563b8;fill-opacity:1;fill-rule:nonzero;stroke:none"
         id="path226"
         inkscape:connector-curvature="0" /><path
         d="m 1579.41,1536.2 -1.27,1.27 0,97.19 1.27,1.26 151.02,0 1.26,-1.26 0,-97.19 -1.26,-1.27 -151.02,0"
         style="fill:#e9f1f0;fill-opacity:1;fill-rule:nonzero;stroke:none"
         id="path228"
         inkscape:connector-curvature="0" /><path
         d="m 1493.9,1631.8 c 0,-13.01 -10.56,-23.57 -23.57,-23.57 l -158.69,0 c -13.01,0 -23.56,10.56 -23.56,23.57 l 0,102.13 c 0,13.01 10.55,23.57 23.56,23.57 l 158.69,0 c 13.01,0 23.57,-10.56 23.57,-23.57 l 0,-102.13"
         style="fill:#35b5ed;fill-opacity:1;fill-rule:nonzero;stroke:none"
         id="path230"
         inkscape:connector-curvature="0" /><path
         d="m 1311.64,1628.23 c -1.97,0 -3.56,1.61 -3.56,3.57 l 0,102.13 c 0,1.96 1.59,3.57 3.56,3.57 l 158.69,0 c 1.97,0 3.57,-1.61 3.57,-3.57 l 0,-102.13 c 0,-1.96 -1.6,-3.57 -3.57,-3.57 l -158.69,0"
         style="fill:#e9f1f0;fill-opacity:1;fill-rule:nonzero;stroke:none"
         id="path232"
         inkscape:connector-curvature="0" /><path
         d="m 1451.58,1288.56 c 0,-14.9 -12.09,-26.99 -26.99,-26.99 l -181.73,0 c -14.9,0 -26.99,12.09 -26.99,26.99 l 0,116.95 c 0,14.9 12.09,26.99 26.99,26.99 l 181.73,0 c 14.9,0 26.99,-12.09 26.99,-26.99 l 0,-116.95"
         style="fill:#a563b8;fill-opacity:1;fill-rule:nonzero;stroke:none"
         id="path234"
         inkscape:connector-curvature="0" /><path
         d="m 1242.86,1282.73 c -3.21,0 -5.83,2.62 -5.83,5.83 l 0,116.95 c 0,3.22 2.62,5.83 5.83,5.83 l 181.73,0 c 3.22,0 5.83,-2.61 5.83,-5.83 l 0,-116.95 c 0,-3.21 -2.61,-5.83 -5.83,-5.83 l -181.73,0"
         style="fill:#f7fdfe;fill-opacity:1;fill-rule:nonzero;stroke:none"
         id="path236"
         inkscape:connector-curvature="0" /><path
         d="m 775.18,1019.97 c -0.137,0 -0.274,0 -0.41,0 -19.184,0.16 -34.665,13.35 -34.465,29.43 l 0.144,1.42 -21.828,0.2 c -5.297,0.03 -9.621,6.11 -9.687,13.67 l 132.425,0 c 0.008,-0.23 0.008,-0.47 0.008,-0.71 -0.039,-7.73 -4.461,-14.04 -9.906,-14.04 -0.016,0 -0.027,0 -0.039,0 l -21.774,0.22 0.141,-1.39 c -0.141,-15.97 -15.625,-28.8 -34.609,-28.8 m 97.3,388.99 -190.433,0 c 24.777,21.17 57.344,34.27 95.094,34.27 0.48,0 0.972,0 1.457,0 37.332,-0.35 69.425,-13.39 93.882,-34.27"
         style="fill:#c4cacb;fill-opacity:1;fill-rule:nonzero;stroke:none"
         id="path238"
         inkscape:connector-curvature="0" /><path
         d="m 841.359,1064.69 -132.425,0 c 0,0.16 0,0.32 0.004,0.48 0.011,2.84 0.726,5.3 1.785,7.48 -4.184,1.9 -7.262,6.98 -7.203,13.2 l 143.683,0 c 0.024,-0.41 0.031,-0.82 0.027,-1.24 -0.085,-6.21 -3.199,-11.31 -7.496,-13.14 0.918,-2.03 1.539,-4.27 1.625,-6.78 m 51.317,323.11 -230.813,0 c 5.977,7.7 12.723,14.79 20.184,21.16 l 190.433,0 c 7.465,-6.37 14.219,-13.47 20.196,-21.16"
         style="fill:#2e99ce;fill-opacity:1;fill-rule:nonzero;stroke:none"
         id="path240"
         inkscape:connector-curvature="0" /><path
         d="m 847.203,1085.85 -143.683,0 c 0,0.03 0,0.04 0,0.07 0.015,3.98 1.308,7.54 3.328,10.08 -3.571,2.38 -6.047,7.01 -6.012,12.47 0.019,3.02 1.016,5.66 2.301,7.96 -4.051,2.26 -6.824,7.12 -6.797,12.77 0.027,4.38 1.875,8.14 4.515,10.67 -2.234,7.07 -5.089,14.95 -7.441,18.78 -20.832,33.69 -52.461,66.45 -60.379,110.12 -7.844,43.35 3.555,86.5 28.828,119.03 l 230.813,0 c 25.832,-33.25 37.094,-77.53 28.285,-121.66 -8.691,-43.55 -42.508,-75.28 -63.945,-108.59 -2.36,-3.71 -4.871,-11.44 -6.871,-18.46 3,-2.57 5.011,-6.58 4.972,-11.32 -0.035,-5.7 -2.91,-10.49 -7.015,-12.68 1.285,-2.31 2.136,-4.95 2.113,-7.96 -0.027,-5.47 -2.582,-10.1 -6.227,-12.38 1.848,-2.32 3.016,-5.41 3.215,-8.9"
         style="fill:#c4cacb;fill-opacity:1;fill-rule:nonzero;stroke:none"
         id="path242"
         inkscape:connector-curvature="0" /><path
         d="m 793.57,1065.25 c -0.254,-16.05 -15.84,-28.97 -35.097,-28.78 -19.16,0.16 -34.66,13.35 -34.489,29.42 0.114,16.1 15.786,28.99 35.043,28.81 19.203,-0.15 34.641,-13.35 34.543,-29.45"
         style="fill:#46484c;fill-opacity:1;fill-rule:nonzero;stroke:none"
         id="path244"
         inkscape:connector-curvature="0" /><path
         d="m 904.727,1282.64 c 17.5,87.77 -44.418,176.16 -142.403,177.11 -97.988,0.85 -161.519,-86.37 -145.562,-174.5 7.922,-43.67 39.523,-76.41 60.367,-110.08 4.766,-7.76 11.504,-32.37 11.504,-32.37 l 141.625,-1.29 c 0,0 5.609,24.84 10.5,32.5 21.387,33.35 55.222,65.07 63.969,108.63"
         style="fill:#fbc044;fill-opacity:1;fill-rule:nonzero;stroke:none"
         id="path246"
         inkscape:connector-curvature="0" /><path
         d="m 696.332,1187.03 c -5.848,9.35 -12.379,18.66 -19.098,28.14 -17.16,24.17 -33.363,47.02 -38.273,74.1 -6.832,37.8 3.223,76.16 27.539,105 23.605,28 57.594,43.23 95.641,42.88 38.027,-0.33 71.699,-16.2 94.828,-44.61 L 696.332,1187.03"
         style="fill:#fcd071;fill-opacity:1;fill-rule:nonzero;stroke:none"
         id="path248"
         inkscape:connector-curvature="0" /><path
         d="m 779.781,1343.79 c -0.23,-0.42 -0.933,-3.53 0.532,-8.86 l 0.773,-2.34 c 0.684,6.29 -0.387,10.57 -1.305,11.2 z m -53.25,-10.98 c 0.289,-0.49 0.262,-4.96 2.606,-10.83 1.062,2.2 1.629,4.36 1.648,6.2 0.028,1.96 -0.48,4.05 -4.254,4.63 z m 66.555,-191.08 -1.34,0.2 c -2.558,0.89 -3.957,3.91 -3.191,6.75 l 35.886,150.87 c -6.343,-3.12 -13.898,-3.43 -22.421,-0.99 -7.239,2.06 -13.489,6.25 -18.415,11.39 -6.585,-11.22 -16.433,-17.43 -27.996,-17.59 -10.609,0.09 -20.433,4.34 -27.511,12.41 -4.535,-3.71 -10.16,-6.43 -16.477,-7.45 -5.758,-0.95 -12.266,0.14 -17.297,1.43 l 34.746,-148.14 c 0.739,-2.89 -0.636,-5.9 -3.191,-6.76 -2.543,-0.93 -5.266,0.74 -6.043,3.58 l -37.395,157.71 c -0.543,1.97 -0.039,4.07 1.375,5.49 1.317,1.41 3.286,1.89 4.973,1.16 0.09,-0.04 12.594,-5.15 21.481,-3.76 4.707,0.75 8.675,2.79 11.953,5.4 l -0.832,1.66 c -4.395,9.37 -5.153,19.27 -1.758,24.55 1.847,3 4.871,4.36 8.289,3.86 7.742,-1.19 12.609,-7.07 12.566,-15.31 -0.039,-5.21 -2.015,-10.82 -5.449,-15.85 4.086,-4.7 11.113,-9.79 20.395,-9.18 11.675,0.18 18.164,8.37 21.539,15.35 -5.317,8.52 -7.793,17.88 -7.106,24.76 0.621,6.71 4.289,11.05 9.567,11.29 3.586,-0.01 6.875,-1.87 8.921,-5.54 3.633,-6.57 3.422,-18.12 -0.128,-28.91 4.117,-5.02 9.617,-9.18 16.25,-11.07 19.043,-5.4 24.707,8.47 25.914,12.55 l 0.351,1.11 c 0.75,2.78 3.438,4.39 5.903,3.64 2.543,-0.81 4.085,-3.7 3.433,-6.54 l -0.293,-0.95 -42.043,-173.3 c -0.562,-2.3 -2.547,-3.85 -4.656,-3.82"
         style="fill:#ffffff;fill-opacity:1;fill-rule:nonzero;stroke:none"
         id="path250"
         inkscape:connector-curvature="0" /><path
         d="m 825.094,1080.48 c -0.055,-7.78 -4.524,-14.09 -9.938,-14.02 l -112.773,1.06 c -5.442,0.02 -9.805,6.38 -9.75,14.16 0.078,7.77 4.519,14.04 9.972,14 l 112.84,-1.07 c 5.391,-0.04 9.746,-6.39 9.649,-14.13"
         style="fill:#6e7178;fill-opacity:1;fill-rule:nonzero;stroke:none"
         id="path252"
         inkscape:connector-curvature="0" /><path
         d="m 830.969,1101.09 c -0.094,-7.79 -4.953,-14.04 -10.817,-14 l -122.41,1.15 c -5.887,0.04 -10.586,6.37 -10.535,14.17 0.117,7.8 4.883,14.06 10.762,14 l 122.383,-1.13 c 5.914,-0.05 10.664,-6.4 10.617,-14.19"
         style="fill:#46484c;fill-opacity:1;fill-rule:nonzero;stroke:none"
         id="path254"
         inkscape:connector-curvature="0" /><path
         d="m 833.98,1123.63 c -0.042,-7.77 -5.085,-14.07 -11.246,-14.01 l -127.187,1.15 c -6.168,0.09 -11.074,6.41 -10.973,14.19 0.055,7.81 5.074,14.05 11.231,14 l 127.215,-1.14 c 6.101,-0.07 11.023,-6.43 10.96,-14.19"
         style="fill:#6e7178;fill-opacity:1;fill-rule:nonzero;stroke:none"
         id="path256"
         inkscape:connector-curvature="0" /><path
         d="m 838.828,1144.28 c -0.027,-7.8 -5.355,-14.1 -11.902,-14.02 l -135.18,1.23 c -6.535,0.09 -11.781,6.44 -11.742,14.23 0.152,7.74 5.476,14.01 12.016,13.96 l 135.132,-1.24 c 6.578,-0.04 11.735,-6.4 11.676,-14.16"
         style="fill:#46484c;fill-opacity:1;fill-rule:nonzero;stroke:none"
         id="path258"
         inkscape:connector-curvature="0" /><path
         d="m 1595,550.199 c 0,0 -3.33,-28.328 -30,-63.328 0,0 48.33,20 60,61.66 l -30,1.668"
         style="fill:#23b59d;fill-opacity:1;fill-rule:nonzero;stroke:none"
         id="path302"
         inkscape:connector-curvature="0" /><path
         d="m 1124.34,556.059 c 0,0 11.12,-26.278 5.25,-69.879 0,0 32.11,41.289 21.65,83.269 l -26.9,-13.39"
         style="fill:#a563b8;fill-opacity:1;fill-rule:nonzero;stroke:none"
         id="path304"
         inkscape:connector-curvature="0" /><path
         d="m 815.004,530.75 c 0,0 -4.246,-28.211 12.262,-69 0,0 -41.364,32.02 -41.641,75.301 l 29.379,-6.301"
         style="fill:#35b5ed;fill-opacity:1;fill-rule:nonzero;stroke:none"
         id="path306"
         inkscape:connector-curvature="0" /><path
         d="m 503.34,560.75 c 0,0 -4.246,-28.219 12.262,-69 0,0 -41.364,32.02 -41.641,75.289 l 29.379,-6.289"
         style="fill:#3d5b7a;fill-opacity:1;fill-rule:nonzero;stroke:none"
         id="path308"
         inkscape:connector-curvature="0" /></g></g></svg>