<?xml version="1.0" encoding="UTF-8" standalone="no"?>
<!-- Created with Inkscape (http://www.inkscape.org/) -->

<svg
   xmlns:dc="http://purl.org/dc/elements/1.1/"
   xmlns:cc="http://creativecommons.org/ns#"
   xmlns:rdf="http://www.w3.org/1999/02/22-rdf-syntax-ns#"
   xmlns:svg="http://www.w3.org/2000/svg"
   xmlns="http://www.w3.org/2000/svg"
   xmlns:sodipodi="http://sodipodi.sourceforge.net/DTD/sodipodi-0.dtd"
   xmlns:inkscape="http://www.inkscape.org/namespaces/inkscape"
   width="227.0788"
   height="212.20021"
   id="svg2"
   version="1.1"
   inkscape:version="0.48.4 r9939"
   sodipodi:docname="diffy.svg"
   inkscape:export-filename="/home/sarah/art/diffy.png"
   inkscape:export-xdpi="500"
   inkscape:export-ydpi="500">
  <defs
     id="defs4" />
  <sodipodi:namedview
     id="base"
     pagecolor="#ffffff"
     bordercolor="#666666"
     borderopacity="1.0"
     inkscape:pageopacity="0.0"
     inkscape:pageshadow="2"
     inkscape:zoom="8.981132"
     inkscape:cx="34.901281"
     inkscape:cy="149.59745"
     inkscape:document-units="px"
     inkscape:current-layer="layer1"
     showgrid="false"
     inkscape:window-width="1863"
     inkscape:window-height="1056"
     inkscape:window-x="57"
     inkscape:window-y="24"
     inkscape:window-maximized="1"
     fit-margin-top="0"
     fit-margin-left="0"
     fit-margin-right="0"
     fit-margin-bottom="0"
     inkscape:snap-intersection-paths="true"
     inkscape:object-paths="true"
     inkscape:snap-midpoints="true"
     inkscape:snap-smooth-nodes="true"
     inkscape:object-nodes="true"
     inkscape:snap-bbox="true" />
  <metadata
     id="metadata7">
    <rdf:RDF>
      <cc:Work
         rdf:about="">
        <dc:format>image/svg+xml</dc:format>
        <dc:type
           rdf:resource="http://purl.org/dc/dcmitype/StillImage" />
        <dc:title />
      </cc:Work>
    </rdf:RDF>
  </metadata>
  <g
     inkscape:label="Layer 1"
     inkscape:groupmode="layer"
     id="layer1"
     transform="translate(-3068.897,2251.6213)">
    <text
       xml:space="preserve"
       style="font-style:normal;font-variant:normal;font-weight:bold;font-stretch:normal;font-size:51.65934372px;line-height:125%;font-family:FreeSans;-inkscape-font-specification:'FreeSans Bold';text-align:end;letter-spacing:0px;word-spacing:0px;text-anchor:end;fill:#000000;fill-opacity:0;stroke:#000000;stroke-width:5.44999981;stroke-miterlimit:4;stroke-dasharray:none;stroke-opacity:1"
       x="475.83173"
       y="900.47076"
       id="text4257"
       sodipodi:linespacing="125%"
       transform="scale(1.1411753,0.87628955)"><tspan
         sodipodi:role="line"
         x="475.83173"
         y="900.47076"
         style="font-style:normal;font-variant:normal;font-weight:bold;font-stretch:normal;font-family:Acme;-inkscape-font-specification:'Acme Bold';text-align:end;text-anchor:end;fill:#000000;fill-opacity:0;stroke:#000000;stroke-width:5.44999981;stroke-miterlimit:4;stroke-dasharray:none;stroke-opacity:1"
         id="tspan3008" /></text>
    <flowRoot
       xml:space="preserve"
       id="flowRoot4263"
       style="font-style:normal;font-weight:normal;font-size:12px;line-height:125%;font-family:Sans;letter-spacing:0px;word-spacing:0px;fill:#000000;fill-opacity:0;stroke:#000000;stroke-width:5.44999981;stroke-miterlimit:4;stroke-dasharray:none;stroke-opacity:1"><flowRegion
         id="flowRegion4265"><rect
           id="rect4267"
           width="313.14728"
           height="343.45187"
           x="-335.37064"
           y="205.85435"
           style="fill:#000000;fill-opacity:0;stroke:#000000;stroke-width:5.44999981;stroke-miterlimit:4;stroke-dasharray:none;stroke-opacity:1" /></flowRegion><flowPara
         id="flowPara4269" /></flowRoot>    <g
       id="g10119"
       transform="matrix(0.37107392,-0.0471644,0.0471644,0.37107392,2024.1426,-1255.5302)"
       style="fill:#000000;fill-opacity:0;stroke:#ffffff;stroke-width:10.00000000;stroke-miterlimit:4;stroke-dasharray:none;stroke-opacity:1">
      <path
         sodipodi:nodetypes="cac"
         inkscape:connector-curvature="0"
         d="m 3416.7152,-2205.8015 c 0,0 6.815,-5.4321 9.9561,-8.4435 3.7455,-3.5909 10.5596,-11.437 10.5596,-11.437"
         style="fill:#000000;fill-opacity:0;stroke:#ffffff;stroke-width:10.00000000;stroke-linecap:butt;stroke-linejoin:miter;stroke-miterlimit:4;stroke-dasharray:none;stroke-opacity:1"
         id="path4185" />
      <path
         style="fill:#000000;fill-opacity:0;stroke:#ffffff;stroke-width:5.34674644;stroke-linecap:butt;stroke-linejoin:miter;stroke-miterlimit:4;stroke-dasharray:none;stroke-opacity:1"
         d="m 282.95864,45.808525 c -3.07083,-0.303423 -5.14824,-0.459659 -5.14824,-0.459659 l 0,0 c 0,0 12.18233,-10.459322 24.62154,-20.439408 12.43932,-9.979999 19.37212,-23.909412 19.37212,-23.909412 l 37.55527,23.599777 c 0,0 -13.97484,17.454364 -21.84172,24.63993 -1.39646,1.275477 -3.31501,3.306071 -5.0777,5.240579"
         id="path4524"
         transform="matrix(0.99201905,0.12608805,-0.12608805,0.99201905,3109.1212,-2286.3127)"
         inkscape:connector-curvature="0" />
      <path
         style="fill:#000000;fill-opacity:0;stroke:#ffffff;stroke-width:10.00000000;stroke-linecap:butt;stroke-linejoin:miter;stroke-miterlimit:4;stroke-dasharray:none;stroke-opacity:1"
         d="m 161.63358,92.007196 c 0.0144,-0.0045 0.0219,-0.007 0.0219,-0.007"
         id="path4659"
         transform="matrix(0.99201905,0.12608805,-0.12608805,0.99201905,3109.1212,-2286.3127)"
         inkscape:connector-curvature="0" />
      <path
         style="fill:#000000;fill-opacity:0;stroke:#ffffff;stroke-width:5.34674644;stroke-linecap:butt;stroke-linejoin:miter;stroke-miterlimit:4;stroke-dasharray:none;stroke-opacity:1"
         d="m 152.37779,89.991639 c 1.19833,-6.674578 3.39206,-16.034141 6.84492,-20.877211 6.39933,-8.975814 17.13511,-16.445987 27.19368,-18.818992 27.22517,-6.422626 63.31285,-3.627242 63.31285,-3.627242 0,0 -30.30492,6.092916 -44.46902,12.022463 -4.94389,2.069684 -13.88196,8.112797 -13.88196,8.112797 0,0 -15.88239,2.862828 -28.13375,15.765856 -2.60996,2.748779 -4.18001,4.754398 -5.03477,6.208744"
         id="path4655"
         transform="matrix(0.99201905,0.12608805,-0.12608805,0.99201905,3109.1212,-2286.3127)"
         inkscape:connector-curvature="0" />
      <path
         style="fill:#000000;fill-opacity:0;stroke:#ffffff;stroke-width:10.00000000;stroke-linecap:butt;stroke-linejoin:miter;stroke-miterlimit:4;stroke-dasharray:none;stroke-opacity:1"
         d="m 314.55287,270.17827 c -12.59596,-2.32827 -26.54391,-5.36646 -35.69581,-8.72717 -20.39266,-7.4885 -63.65285,-15.13896 -96.07901,-18.83219 -26.86552,-3.0598 -34.43537,6.92264 -81.07275,-2.69742 l 0,0 m 0,0 c 57.24987,-1.39726 86.04582,-70.66753 120.75384,-79.78308"
         id="path4534"
         transform="matrix(0.99201905,0.12608805,-0.12608805,0.99201905,3109.1212,-2286.3127)"
         inkscape:connector-curvature="0"
         sodipodi:nodetypes="csscccc" />
      <path
         style="fill:#ffffff;fill-opacity:1;stroke:#ffffff;stroke-width:2.67337322;stroke-linecap:butt;stroke-linejoin:miter;stroke-miterlimit:4;stroke-dasharray:none;stroke-opacity:1"
         d="m 250.26801,253.82095 -10.40805,16.9628 c 0,0 -16.8582,-2.98017 -39.37669,10.01738 -22.51847,12.99764 -35.57704,31.13855 -35.57704,31.13855 l 7.72618,-1.78593 c 0,0 18.49799,-16.90439 29.54651,-21.02264 11.04851,-4.11826 23.07325,-5.79431 23.07325,-5.79431 0,0 -24.02434,13.16062 -28.94384,16.1543 -5.8558,3.56359 -13.8071,11.02792 -13.8071,11.02792 l 10.35511,-1.61504 c 16.63105,-9.425 38.97254,-21.10108 57.59264,-22.48822 15.60962,-0.84755 35.78214,12.34109 35.78214,12.34109 l -5.04559,-9.42856 c 0,0 -11.77733,-6.76219 -17.98942,-11.57321 -3.71556,-2.87756 2.08985,-12.26939 7.35598,-19.35328"
         id="path3011"
         transform="matrix(0.99201905,0.12608805,-0.12608805,0.99201905,3109.1212,-2286.3127)"
         inkscape:connector-curvature="0" />
      <path
         style="fill:#ffffff;fill-opacity:1;stroke:#ffffff;stroke-width:2.67337322;stroke-linecap:butt;stroke-linejoin:miter;stroke-miterlimit:4;stroke-dasharray:none;stroke-opacity:1"
         d="m 321.39207,273.56387 -7.99518,24.65178 c 0,0 -14.61405,-0.37685 -38.60001,9.65798 -23.98587,10.03472 -42.07093,25.55621 -42.07093,25.55621 l 10.71597,0.47463 c 0,0 18.16828,-13.51688 28.48257,-17.92991 7.40656,-3.16887 23.43615,-5.90293 23.43615,-5.90293 0,0 -19.26379,9.18917 -28.44234,14.60611 -5.06989,2.99213 -14.65621,9.85392 -14.65621,9.85392 l 10.94512,0.14803 c 0,0 29.31243,-15.68362 45.34304,-19.22102 10.89413,-2.404 11.36519,-4.43037 33.44991,-1.11866 10.32863,1.54884 17.05028,4.13517 17.05028,4.13517 l -4.02586,-5.40513 c 0,0 -5.92423,-3.85489 -9.03876,-5.51544 -3.89081,-2.07437 -12.01402,-5.53525 -12.01402,-5.53525 l 6.65095,-18.93884"
         id="path3013"
         inkscape:connector-curvature="0"
         transform="matrix(0.99201905,0.12608805,-0.12608805,0.99201905,3109.1212,-2286.3127)" />
      <path
         style="fill:#000000;fill-opacity:0;stroke:#ffffff;stroke-width:10.00000000;stroke-linecap:butt;stroke-linejoin:miter;stroke-miterlimit:4;stroke-dasharray:none;stroke-opacity:1"
         d="m 358.39933,242.1306 c -0.0168,0.0217 -0.0336,0.0435 -0.0505,0.0651"
         id="path4438"
         transform="matrix(0.99201905,0.12608805,-0.12608805,0.99201905,3109.1212,-2286.3127)"
         inkscape:connector-curvature="0" />
      <path
         style="fill:#000000;fill-opacity:0;stroke:#ffffff;stroke-width:10.00000000;stroke-linecap:butt;stroke-linejoin:miter;stroke-miterlimit:4;stroke-dasharray:none;stroke-opacity:1"
         d="m 47.884914,172.16082 c 0.126874,-5.66642 0.720035,-11.00652 2.085664,-15.12313 l 0,0 c 7.169669,-21.6123 22.501612,-42.1267 42.014286,-53.86338 21.287526,-12.804317 49.477946,-16.45785 73.390936,-12.951203 8.45257,5.477952 8.06297,-18.343441 43.07412,-33.116229 35.01116,-14.77269 90.09079,-18.012127 143.88897,4.680071 10.95602,4.621284 17.08063,9.098169 19.96863,13.663782"
         id="path4619"
         transform="matrix(0.99201905,0.12608805,-0.12608805,0.99201905,3109.1212,-2286.3127)"
         inkscape:connector-curvature="0" />
      <path
         style="fill:#000000;fill-opacity:0;stroke:#ffffff;stroke-width:10.00000000;stroke-linecap:round;stroke-linejoin:miter;stroke-miterlimit:4;stroke-dasharray:none;stroke-opacity:1"
         d="m 102.10699,239.76825 c -4.18435,-0.89234 -8.596909,-1.93848 -13.255813,-3.15526 -9.873655,-2.5787 -22.246229,-6.93724 -28.226882,-12.00601"
         id="path4436"
         transform="matrix(0.99201905,0.12608805,-0.12608805,0.99201905,3109.1212,-2286.3127)"
         inkscape:connector-curvature="0"
         sodipodi:nodetypes="csc" />
      <path
         style="fill:#000000;fill-opacity:0;stroke:#ffffff;stroke-width:10.00000000;stroke-linecap:butt;stroke-linejoin:miter;stroke-miterlimit:4;stroke-dasharray:none;stroke-opacity:1"
         d="m 102.11278,239.7694 c -0.002,-4.1e-4 -0.004,-8.1e-4 -0.006,-10e-4"
         id="path4426"
         transform="matrix(0.99201905,0.12608805,-0.12608805,0.99201905,3109.1212,-2286.3127)"
         inkscape:connector-curvature="0" />
      <path
         style="fill:#000000;fill-opacity:0;stroke:#ffffff;stroke-width:10.00000000;stroke-linecap:butt;stroke-linejoin:miter;stroke-miterlimit:4;stroke-dasharray:none;stroke-opacity:1"
         d="m 124.10503,243.35719 c -6.55398,-0.69501 -13.83997,-1.84949 -21.99221,-3.58781"
         id="path4424"
         transform="matrix(0.99201905,0.12608805,-0.12608805,0.99201905,3109.1212,-2286.3127)"
         inkscape:connector-curvature="0" />
      <path
         style="fill:#000000;fill-opacity:0;stroke:#ffffff;stroke-width:10.00000000;stroke-linecap:butt;stroke-linejoin:miter;stroke-miterlimit:4;stroke-dasharray:none;stroke-opacity:1"
         d="m 124.90218,243.43983 c -0.26451,-0.0268 -0.53022,-0.0543 -0.79715,-0.0826"
         id="path4422"
         transform="matrix(0.99201905,0.12608805,-0.12608805,0.99201905,3109.1212,-2286.3127)"
         inkscape:connector-curvature="0" />
      <path
         style="fill:#000000;fill-opacity:0;stroke:#ffffff;stroke-width:10.00000000;stroke-linecap:butt;stroke-linejoin:miter;stroke-miterlimit:4;stroke-dasharray:none;stroke-opacity:1"
         d="m 133.11036,244.05699 c -2.60149,-0.12389 -5.33367,-0.32602 -8.20818,-0.61716"
         id="path4420"
         transform="matrix(0.99201905,0.12608805,-0.12608805,0.99201905,3109.1212,-2286.3127)"
         inkscape:connector-curvature="0" />
      <path
         style="fill:#000000;fill-opacity:0;stroke:#ffffff;stroke-width:10.00000000;stroke-linecap:butt;stroke-linejoin:miter;stroke-miterlimit:4;stroke-dasharray:none;stroke-opacity:1"
         d="m 137.83242,244.20018 c -1.52497,-0.019 -3.09805,-0.0658 -4.72206,-0.14319"
         id="path4418"
         transform="matrix(0.99201905,0.12608805,-0.12608805,0.99201905,3109.1212,-2286.3127)"
         inkscape:connector-curvature="0" />
      <path
         style="fill:#000000;fill-opacity:0;stroke:#ffffff;stroke-width:10.00000000;stroke-linecap:butt;stroke-linejoin:miter;stroke-miterlimit:4;stroke-dasharray:none;stroke-opacity:1"
         d="m 141.37814,244.19399 c -1.15248,0.0188 -2.33391,0.0213 -3.54572,0.006"
         id="path4416"
         transform="matrix(0.99201905,0.12608805,-0.12608805,0.99201905,3109.1212,-2286.3127)"
         inkscape:connector-curvature="0" />
      <path
         style="fill:#000000;fill-opacity:0;stroke:#ffffff;stroke-width:10.00000000;stroke-linecap:butt;stroke-linejoin:miter;stroke-miterlimit:4;stroke-dasharray:none;stroke-opacity:1"
         d="m 150.19201,243.70366 c -2.74174,0.26676 -5.67009,0.43911 -8.81387,0.49033"
         id="path4414"
         transform="matrix(0.99201905,0.12608805,-0.12608805,0.99201905,3109.1212,-2286.3127)"
         inkscape:connector-curvature="0" />
      <path
         style="fill:#000000;fill-opacity:0;stroke:#ffffff;stroke-width:10.00000000;stroke-linecap:butt;stroke-linejoin:miter;stroke-miterlimit:4;stroke-dasharray:none;stroke-opacity:1"
         d="m 474.02926,313.95314 c 1.04224,1.31662 2.03226,2.60808 2.96093,3.86719 l -0.32226,1.73828"
         id="path4490"
         transform="matrix(0.99201905,0.12608805,-0.12608805,0.99201905,3109.1212,-2286.3127)"
         inkscape:connector-curvature="0" />
      <path
         style="fill:#000000;fill-opacity:0;stroke:#ffffff;stroke-width:10.00000000;stroke-linecap:butt;stroke-linejoin:miter;stroke-miterlimit:4;stroke-dasharray:none;stroke-opacity:1"
         d="m 476.66793,319.55861 c -3.1823,17.4318 -4.22656,18.19141 -4.22656,18.19141 0,0 -23.94908,-6.14576 -52.3125,-17.54688"
         id="path4488"
         transform="matrix(0.99201905,0.12608805,-0.12608805,0.99201905,3109.1212,-2286.3127)"
         inkscape:connector-curvature="0" />
      <path
         style="fill:#000000;fill-opacity:0;stroke:#ffffff;stroke-width:10.00000000;stroke-linecap:butt;stroke-linejoin:miter;stroke-miterlimit:4;stroke-dasharray:none;stroke-opacity:1"
         d="m 420.12887,320.20314 c 8.19655,23.67592 17.5626,48.25551 27.05273,67.86133 27.05182,55.88652 100.57617,169.14258 100.57617,169.14258 l 23.86328,-35.14062 -65.97851,-102.2168 72.125,87.50586 21.29883,-38.72266 c 0,0 -81.25545,-78.87221 -110.85547,-127.5 -3.91478,-6.4313 -7.77939,-13.74654 -11.54297,-21.57422"
         id="path4486"
         transform="matrix(0.99201905,0.12608805,-0.12608805,0.99201905,3109.1212,-2286.3127)"
         inkscape:connector-curvature="0" />
      <path
         style="fill:#000000;fill-opacity:0;stroke:#ffffff;stroke-width:10.00000000;stroke-linecap:butt;stroke-linejoin:miter;stroke-miterlimit:4;stroke-dasharray:none;stroke-opacity:1"
         d="m 474.02926,313.95314 c -4.46425,-9.68998 -8.75567,-20.01482 -12.78516,-30.40039"
         id="path4484"
         transform="matrix(0.99201905,0.12608805,-0.12608805,0.99201905,3109.1212,-2286.3127)"
         inkscape:connector-curvature="0" />
      <path
         style="fill:#000000;fill-opacity:0;stroke:#ffffff;stroke-width:10.00000000;stroke-linecap:butt;stroke-linejoin:round;stroke-miterlimit:4;stroke-dasharray:none;stroke-opacity:1"
         d="m 461.2441,283.55275 c -14.27317,-12.36056 -45.77762,-33.89347 -63.36295,-41.3332 16.92622,12.90396 60.62143,52.11944 76.14811,71.73359"
         id="path4482"
         transform="matrix(0.99201905,0.12608805,-0.12608805,0.99201905,3109.1212,-2286.3127)"
         inkscape:connector-curvature="0"
         sodipodi:nodetypes="ccc" />
      <path
         style="fill:#000000;fill-opacity:0;stroke:#ffffff;stroke-width:10.00000000;stroke-linecap:butt;stroke-linejoin:miter;stroke-miterlimit:4;stroke-dasharray:none;stroke-opacity:1"
         d="m 461.2441,283.55275 c 6.72051,5.81997 13.23995,12.66984 19.70898,21.01954 0,0 2.22154,-21.84762 2.63086,-31.37305 -2.70829,-5.85263 -24.1851,-24.7538 -39.29101,-37.60742"
         id="path4480"
         transform="matrix(0.99201905,0.12608805,-0.12608805,0.99201905,3109.1212,-2286.3127)"
         inkscape:connector-curvature="0" />
      <path
         style="fill:#000000;fill-opacity:0;stroke:#ffffff;stroke-width:10.00000000;stroke-linecap:butt;stroke-linejoin:round;stroke-miterlimit:4;stroke-dasharray:none;stroke-opacity:1"
         d="m 441.72262,227.60158 c -3.91352,-1.7735 -18.6405,-10.74165 -23.01006,-11.98184 0,0 17.15461,12.80259 25.58037,19.97208 -0.8857,-2.72926 -1.76496,-5.44465 -2.57031,-7.99024"
         id="path4478"
         transform="matrix(0.99201905,0.12608805,-0.12608805,0.99201905,3109.1212,-2286.3127)"
         inkscape:connector-curvature="0"
         sodipodi:nodetypes="cccc" />
      <path
         style="fill:#000000;fill-opacity:0;stroke:#ffffff;stroke-width:10.00000000;stroke-linecap:butt;stroke-linejoin:miter;stroke-miterlimit:4;stroke-dasharray:none;stroke-opacity:1"
         d="m 314.52503,270.16566 c 2.1e-4,2.5e-4 3.2e-4,3.8e-4 3.2e-4,3.8e-4 0,0 51.33663,25.76614 89.03516,42.96093 5.60007,2.55425 11.15565,4.90046 16.56836,7.07617"
         id="path4476"
         transform="matrix(0.99201905,0.12608805,-0.12608805,0.99201905,3109.1212,-2286.3127)"
         inkscape:connector-curvature="0" />
      <path
         style="fill:#000000;fill-opacity:0;stroke:#ffffff;stroke-width:10.00000000;stroke-linecap:butt;stroke-linejoin:miter;stroke-miterlimit:4;stroke-dasharray:none;stroke-opacity:1"
         d="m 222.44406,160.1682 c 28.30473,38.5229 61.23583,73.2842 92.08093,109.99748"
         id="path4643"
         transform="matrix(0.99201905,0.12608805,-0.12608805,0.99201905,3109.1212,-2286.3127)"
         inkscape:connector-curvature="0" />
      <path
         style="fill:#000000;fill-opacity:0;stroke:#ffffff;stroke-width:10.00000000;stroke-linecap:butt;stroke-linejoin:miter;stroke-miterlimit:4;stroke-dasharray:none;stroke-opacity:1"
         d="m 207.70094,124.17822 c 1.16043,11.0651 6.87168,23.5055 14.74312,35.98998"
         id="path4641"
         transform="matrix(0.99201905,0.12608805,-0.12608805,0.99201905,3109.1212,-2286.3127)"
         inkscape:connector-curvature="0" />
      <path
         style="fill:#000000;fill-opacity:0;stroke:#ffffff;stroke-width:10.00000000;stroke-linecap:butt;stroke-linejoin:miter;stroke-miterlimit:4;stroke-dasharray:none;stroke-opacity:1"
         d="m 341.36584,62.177687 c -15.81197,-4.789386 -30.32529,-6.260065 -42.57686,-6.122967 -23.54478,0.26347 -38.73633,6.464843 -38.73633,6.464843 0,0 -40.76706,13.247935 -52.55706,51.782767"
         id="path4637"
         transform="matrix(0.99201905,0.12608805,-0.12608805,0.99201905,3109.1212,-2286.3127)"
         inkscape:connector-curvature="0"
         sodipodi:nodetypes="cscc" />
      <path
         style="fill:#000000;fill-opacity:0;stroke:#ffffff;stroke-width:10.00000000;stroke-linecap:butt;stroke-linejoin:miter;stroke-miterlimit:4;stroke-dasharray:none;stroke-opacity:1"
         d="m 441.72258,227.6016 c 15.3357,6.94975 27.86742,15.53878 42.96484,31.08548 0,0 0.58193,-19.32423 -0.34766,-30.68509 -3.33304,-6.19518 -44.25955,-36.2025 -44.25955,-36.2025 13.89723,4.92443 26.98157,11.32864 43.19978,22.3532 0,0 -10.31164,-57.01013 -82.20195,-118.435861 -15.47606,-13.223336 -30.8243,-22.291634 -45.38262,-28.381118"
         id="path3009"
         transform="matrix(0.99201905,0.12608805,-0.12608805,0.99201905,3109.1212,-2286.3127)"
         inkscape:connector-curvature="0"
         sodipodi:nodetypes="cccccsc" />
      <g
         transform="translate(2935.644,-2513.1499)"
         id="g3138"
         style="fill:#000000;fill-opacity:0;stroke:#ffffff;stroke-width:10.00000000;stroke-miterlimit:4;stroke-dasharray:none;stroke-opacity:1">
        <path
           style="fill:#000000;fill-opacity:0;stroke:#ffffff;stroke-width:5.34674644;stroke-linecap:butt;stroke-linejoin:miter;stroke-miterlimit:4;stroke-dasharray:none;stroke-opacity:1"
           d="m 337.66259,394.0585 c 0,0 -28.86328,-30.61257 -60.78781,-25.80202 -31.92454,4.81054 -41.10831,33.67382 -39.79634,39.79633 1.31197,6.12252 13.557,11.80771 22.30345,15.74361 8.74644,3.9359 32.79917,-0.43732 45.48152,-6.55984 12.68235,-6.12251 32.79918,-23.17808 32.79918,-23.17808 z"
           id="path3022"
           inkscape:connector-curvature="0" />
        <path
           style="fill:#ffffff;fill-opacity:1;stroke:#000000;stroke-width:2;stroke-miterlimit:4;stroke-opacity:0;stroke-dasharray:none"
           d="M 50 49.78125 L 41 57.96875 C 40.778438 62.711151 44.445095 66.715939 49.1875 66.9375 C 53.929905 67.159061 57.965942 63.492401 58.1875 58.75 C 58.409061 54.007595 54.742404 50.002807 50 49.78125 z M 46.8125 55.875 C 49.255897 55.813374 51.403931 57.616857 51.71875 60.09375 C 52.054557 62.735769 50.173269 65.132943 47.53125 65.46875 C 44.889231 65.804557 42.492057 63.954519 42.15625 61.3125 C 41.820443 58.670481 43.670481 56.242057 46.3125 55.90625 C 46.477626 55.885262 46.649607 55.879108 46.8125 55.875 z "
           transform="matrix(2.6520371,0.33708038,-0.33708038,2.6520371,170.84621,223.64555)"
           id="path3024" />
      </g>
      <path
         sodipodi:nodetypes="cssssssc"
         style="fill:#000000;fill-opacity:0;stroke:#ffffff;stroke-width:10.00000000;stroke-linecap:butt;stroke-linejoin:miter;stroke-miterlimit:4;stroke-dasharray:none;stroke-opacity:1"
         d="m 3110.2692,-2103.8575 c -32.3249,20.7081 -31.4522,56.0845 -27.4116,60.6301 4.0406,4.5457 8.0812,1.0102 15.6574,-1.5152 7.5761,-2.5254 26.2639,-10.1015 42.4264,-11.1117 16.1624,-1.0101 21.2132,3.0305 23.7386,-0.505 2.5254,-3.5356 4.0406,-15.1523 3.0304,-25.7589 -1.0101,-10.6066 -1.0101,-23.2335 -7.071,-25.2538 -6.061,-2.0203 -38.2484,-5.0718 -50.3702,3.5145 z"
         id="path3296"
         inkscape:connector-curvature="0" />
      <path
         inkscape:connector-curvature="0"
         id="path3305"
         d="m 3255.0931,-2173.6566 c 0,0 12.1428,21.0714 67.1428,32.5 55,11.4286 121.7616,-42.8306 121.7616,-42.8306 l 38.7857,38.6429 c 0,0 -113.0714,25.6428 -150.2143,21 -37.1428,-4.6429 -82.2258,-47.4322 -82.2258,-47.4322"
         style="fill:#000000;fill-opacity:0;stroke:#ffffff;stroke-width:5.34674644;stroke-linecap:butt;stroke-linejoin:miter;stroke-miterlimit:4;stroke-dasharray:none;stroke-opacity:1"
         sodipodi:nodetypes="csccsc" />
      <path
         sodipodi:nodetypes="ccccc"
         inkscape:connector-curvature="0"
         id="path4099"
         d="m 3453.1169,-2166.1191 -30.2186,14.3667 6.8378,5.5184 29.9689,-14.0733 z"
         style="color:#000000;font-style:normal;font-variant:normal;font-weight:normal;font-stretch:normal;font-size:medium;line-height:normal;font-family:Sans;-inkscape-font-specification:Sans;text-indent:0;text-align:start;text-decoration:none;text-decoration-line:none;letter-spacing:normal;word-spacing:normal;text-transform:none;direction:ltr;block-progression:tb;writing-mode:lr-tb;baseline-shift:baseline;text-anchor:start;display:inline;overflow:visible;visibility:visible;fill:#ffffff;fill-opacity:1;fill-rule:nonzero;stroke:none;stroke-width:5.34674644;stroke-miterlimit:4;stroke-dasharray:none;stroke-opacity:1;marker:none;enable-background:accumulate" />
      <path
         sodipodi:nodetypes="cacscacsc"
         inkscape:connector-curvature="0"
         id="path3303"
         d="m 3155.5587,-2148.9253 c 0,0 -6.2697,7.3959 -8.9843,11.4012 -2.8718,4.2372 -7.682,13.2965 -7.682,13.2965 0,0 49.5694,-23.7735 67.3092,-29.9876 18.2787,-6.4028 54.803,-21.7873 54.803,-21.7873 0,0 -3.8451,-1.8876 -5.9103,-2.3872 -3.1018,-0.7503 -9.5343,-0.868 -9.5343,-0.868 0,0 -25.7837,-0.1235 -42.8032,6.1343 -17.0196,6.2579 -47.1981,24.1981 -47.1981,24.1981 z"
         style="fill:#000000;fill-opacity:0;stroke:#ffffff;stroke-width:5.34674644;stroke-linecap:butt;stroke-linejoin:miter;stroke-miterlimit:4;stroke-dasharray:none;stroke-opacity:1" />
      <path
         style="color:#000000;font-style:normal;font-variant:normal;font-weight:normal;font-stretch:normal;font-size:medium;line-height:normal;font-family:Sans;-inkscape-font-specification:Sans;text-indent:0;text-align:start;text-decoration:none;text-decoration-line:none;letter-spacing:normal;word-spacing:normal;text-transform:none;direction:ltr;block-progression:tb;writing-mode:lr-tb;baseline-shift:baseline;text-anchor:start;display:inline;overflow:visible;visibility:visible;fill:#ffffff;fill-opacity:1;fill-rule:nonzero;stroke:none;stroke-width:5.34674644;stroke-miterlimit:4;stroke-dasharray:none;stroke-opacity:1;marker:none;enable-background:accumulate"
         d="m 3433.0379,-2169.2212 24.4739,22.8165 -8.1844,3.1976 -24.3243,-22.4616 z"
         id="path27241"
         inkscape:connector-curvature="0"
         sodipodi:nodetypes="ccccc" />
    </g>
  </g>
</svg>
