<?xml version="1.0" encoding="UTF-8" standalone="no"?>
<svg
   xmlns:dc="http://purl.org/dc/elements/1.1/"
   xmlns:cc="http://creativecommons.org/ns#"
   xmlns:rdf="http://www.w3.org/1999/02/22-rdf-syntax-ns#"
   xmlns:svg="http://www.w3.org/2000/svg"
   xmlns="http://www.w3.org/2000/svg"
   xmlns:sodipodi="http://sodipodi.sourceforge.net/DTD/sodipodi-0.dtd"
   xmlns:inkscape="http://www.inkscape.org/namespaces/inkscape"
   width="244.226"
   height="256.248"
   viewBox="0 0 244.22627 256.24801"
   id="svg4393"
   version="1.1"
   inkscape:version="0.91 r13725"
   sodipodi:docname="forge.svg">
  <metadata
     id="metadata4401">
    <rdf:RDF>
      <cc:Work
         rdf:about="">
        <dc:format>image/svg+xml</dc:format>
        <dc:type
           rdf:resource="http://purl.org/dc/dcmitype/StillImage" />
        <dc:title></dc:title>
      </cc:Work>
    </rdf:RDF>
  </metadata>
  <defs
     id="defs4399" />
  <sodipodi:namedview
     pagecolor="#000000"
     bordercolor="#666666"
     borderopacity="1"
     objecttolerance="10"
     gridtolerance="10"
     guidetolerance="10"
     inkscape:pageopacity="0"
     inkscape:pageshadow="2"
     inkscape:window-width="1280"
     inkscape:window-height="682"
     id="namedview4397"
     showgrid="false"
     inkscape:zoom="1.3273016"
     inkscape:cx="187.06219"
     inkscape:cy="177.55381"
     inkscape:window-x="0"
     inkscape:window-y="0"
     inkscape:window-maximized="1"
     inkscape:current-layer="svg4393" />
  <path
     d="m 92.94,231.35 c 4.66,-2.964 8.866,-4.768 14.566,-6.25 5.79,-1.506 15.84,-1.92 21.73,-0.894 7.44,1.295 13.808,3.81 19.488,7.7 l 2.69,1.842 12.366,0 c 12.3,0 12.37,-0.005 13.022,-0.937 0.525,-0.748 0.657,-2.23 0.657,-7.388 l -0.002,-6.45 -1.654,-1.796 c -2.036,-2.208 -5.082,-3.64 -11.417,-5.36 -12.044,-3.276 -17.934,-8.192 -19.44,-16.228 -0.616,-3.278 -0.225,-11.52 0.69,-14.547 1.83,-6.055 6.404,-11.987 12.306,-15.957 11.118,-7.48 28.972,-12.26 50.718,-13.586 6.955,-0.423 7.882,-0.567 8.54,-1.324 0.652,-0.75 0.737,-1.88 0.737,-9.774 0,-7.397 -0.112,-9.087 -0.656,-9.863 l -0.656,-0.937 -66.625,0 c -45.12,0 -66.89,0.14 -67.44,0.436 -0.72,0.384 -0.817,0.913 -0.817,4.427 l 0,3.99 -56.136,0 0.29,0.95 c 1.76,5.763 7.177,12.1 14.522,16.99 6.14,4.088 13.345,7.125 21.327,8.988 4.42,1.032 13.517,2.168 17.358,2.168 l 2.638,0 0,4.587 c 0,5.232 0.052,5.325 3.287,5.938 1.182,0.224 2.812,0.685 3.622,1.023 2.253,0.942 5.112,3.827 6.22,6.277 0.865,1.913 0.995,2.844 0.986,7.053 -0.014,6.357 -0.91,8.795 -4.59,12.478 -3.21,3.212 -7.024,5.106 -14.288,7.097 -6.878,1.886 -8.65,2.693 -11.246,5.12 l -2.122,1.985 0,6.506 c 0,3.68 0.19,6.86 0.437,7.322 0.415,0.778 1.007,0.816 12.777,0.816 l 12.34,0 z M 48.433,123.486 c 11.48,-0.338 22.54,-0.618 24.58,-0.623 l 3.71,-0.01 1.738592,-2.14407 L 76.473,117.235 49.543,97.887 C 34.73,87.247 22.929705,78.173207 22.483,78.667 c -0.06641,0.07341 6.32,7.974 14.202,17.563 7.882,9.59 17.625398,16.92794 15.047585,16.99894 -0.074,0.072 -6.387585,2.81806 -12.997585,5.41206 -6.61,2.595 -12.302,4.883 -12.65,5.085 -0.81,0.47 -2.42,0.488 22.348,-0.24 z m 104.07,-48.78 c 9.79642,-3.261736 20.20664,-6.225685 28.54,-8.771 12.292,-3.756 26.143,-7.972 30.78,-9.368 4.64,-1.396 8.792,-2.727 9.23,-2.958 0.698,-0.37 0.765,-0.762 0.55,-3.22 -0.397,-4.583 -2.263,-10.892 -4.63,-15.662 -1.89,-3.806 -2.354,-4.446 -3.317,-4.557 -0.616,-0.07 -4.316,1.01 -8.222,2.4 -34.267,12.207 -58.69,20.842 -59.414,21.004 m -3.99,-7.25 C 139.43,39.998 130.666,22.5 130.097,22.5 c -0.494,0 -37.03,12.147 -37.275,12.393 -0.2,0.2 1.86,11.114 3.51,18.598 3.333,15.097 6.92,26.834 11.844,38.76 4.552,11.02 12.695,27.652 13.54,27.652 0.162,0 8.62,-2.775 18.794,-6.167 l 18.5,-6.167 -0.273,-2.373 c -0.392,-3.423 -3.383,-17.86 -5.076,-24.51 -0.796,-3.13 -1.318,-5.822 -4.9555,-16.3595 C 145.068,53.789 145.196,54.022 142.03,46.324 Z m -42.337,66.124 c -1.178,-3.07 -48.73,-75.845 -48.73,-74.577 0,0.865 8.124,43.085 8.366,43.482 0.152,0.25 7.77,7.503 16.932,16.12 l 16.655,15.667 3.524,0.007 c 3.127,0.007 3.494,-0.072 3.253,-0.7 z M 51.2,85.043 51.647,82.088 39.82,68.082 C 30.44,56.972 27.933,54.232 27.696,54.838 c -0.165,0.42 -0.698,3.213 -1.185,6.21 -0.724,4.458 -0.786,5.545 -0.34,5.99 2.91,2.903 23.84,21.156 24.16,21.072 0.232,-0.06 0.623,-1.44 0.87,-3.067 z"
     id="path4395"
     inkscape:connector-curvature="0"
     style="fill:none;stroke:#ffffff;stroke-width:5.00000581;stroke-miterlimit:4;stroke-dasharray:none"
     sodipodi:nodetypes="cccccsccccccccccsccscscccccscsccccccccscsccccccccscccccccccccccccscccscccccccsccccccccccccccc" />
  <path
     style="fill:#ffffff;fill-opacity:0;fill-rule:evenodd;stroke:#ffffff;stroke-width:5.00000572;stroke-linecap:butt;stroke-linejoin:miter;stroke-miterlimit:4;stroke-dasharray:none;stroke-opacity:1"
     d="m 104.1591,149.64103 15.8213,34.46819 14.69147,-34.46846"
     id="path4416"
     inkscape:connector-curvature="0"
     sodipodi:nodetypes="ccc" />
</svg>
