<?xml version="1.0" encoding="UTF-8" standalone="no"?>
<!-- Created with Inkscape (http://www.inkscape.org/) -->

<svg
   xmlns:dc="http://purl.org/dc/elements/1.1/"
   xmlns:cc="http://creativecommons.org/ns#"
   xmlns:rdf="http://www.w3.org/1999/02/22-rdf-syntax-ns#"
   xmlns:svg="http://www.w3.org/2000/svg"
   xmlns="http://www.w3.org/2000/svg"
   xmlns:sodipodi="http://sodipodi.sourceforge.net/DTD/sodipodi-0.dtd"
   xmlns:inkscape="http://www.inkscape.org/namespaces/inkscape"
   width="33.617939mm"
   height="33.617935mm"
   viewBox="0 0 119.11868 119.11867"
   id="svg9726"
   version="1.1"
   inkscape:version="0.91 r"
   sodipodi:docname="intro_7.svg">
  <defs
     id="defs9728" />
  <sodipodi:namedview
     id="base"
     pagecolor="#ffffff"
     bordercolor="#666666"
     borderopacity="1.0"
     inkscape:pageopacity="0.0"
     inkscape:pageshadow="2"
     inkscape:zoom="0.35"
     inkscape:cx="-549.72643"
     inkscape:cy="48.130712"
     inkscape:document-units="px"
     inkscape:current-layer="layer1"
     showgrid="false"
     fit-margin-top="0"
     fit-margin-left="7.708945"
     fit-margin-right="7.708945"
     fit-margin-bottom="0"
     inkscape:window-width="1863"
     inkscape:window-height="1056"
     inkscape:window-x="57"
     inkscape:window-y="24"
     inkscape:window-maximized="1" />
  <metadata
     id="metadata9731">
    <rdf:RDF>
      <cc:Work
         rdf:about="">
        <dc:format>image/svg+xml</dc:format>
        <dc:type
           rdf:resource="http://purl.org/dc/dcmitype/StillImage" />
        <dc:title></dc:title>
      </cc:Work>
    </rdf:RDF>
  </metadata>
  <g
     inkscape:label="Layer 1"
     inkscape:groupmode="layer"
     id="layer1"
     transform="translate(-434.72642,-461.37425)">
    <path
       inkscape:connector-curvature="0"
       id="path5204"
       style="fill:#000000;fill-opacity:1;fill-rule:nonzero;stroke:none"
       d="m 499.27252,495.72055 c -1.88125,2.16375 -3.71475,4.26875 -5.871,6.16625 0.88375,0.88375 1.767,1.7675 2.65137,2.65125 2.57325,-2.41125 5.05713,-4.84625 7.33975,-7.5375 1.55138,-1.8275 -1.06437,-4.48875 -2.65137,-2.65125 -2.52288,2.92125 -5.25675,5.58625 -8.07363,8.2225 -1.80137,1.68375 0.8125,4.13625 2.65138,2.65125 3.77875,-3.05125 6.704,-6.695 9.46825,-10.65625 1.39687,-2.00375 -1.83213,-3.81 -3.23838,-1.89375 -2.65712,3.6225 -5.187,7.1975 -8.51512,10.24 0.88387,0.88375 1.76762,1.76875 2.65137,2.6525 2.77888,-2.79625 5.09763,-5.96 7.7075,-8.90625 -0.98137,-0.7575 -1.96287,-1.515 -2.94475,-2.2725 -1.95175,3.2175 -4.01662,6.18 -6.67925,8.86875 0.9815,0.7575 1.96288,1.515 2.94488,2.27125 1.2465,-2.295 2.3555,-4.355 2.75675,-6.955 0.21437,-1.3875 -0.80563,-2.68625 -2.30613,-2.30625 -2.92525,0.73875 -4.57912,2.49875 -6.69875,4.5925 0.9815,0.7575 1.963,1.515 2.94488,2.2725 1.16012,-1.755 2.05125,-3.28 2.75737,-5.24375 0.56688,-1.575 -1.4165,-2.93625 -2.7545,-2.1175 -2.19775,1.345 -3.92912,3.07875 -5.88475,4.74625 0.88388,0.88375 1.76763,1.7675 2.65138,2.65125 2.25587,-2.83 4.35062,-5.59625 5.79887,-8.9425 0.7675,-1.77375 -0.78175,-3.3525 -2.5655,-2.565 -2.74062,1.20875 -4.728,3.3575 -7.33887,4.795 0.8555,0.855 1.7105,1.71125 2.5655,2.565 0.97162,-1.6825 3.46337,-5.145 1.54,-7.0675 -2.17775,-2.1775 -5.19338,-0.71 -7.05563,1.02875 -1.11275,1.0375 -0.42187,2.66375 0.82713,3.13375 2.60887,0.98125 4.126,0.89375 6.61675,-0.18875 0.58537,-0.255 0.96187,-1.02 0.96187,-1.62 0,-0.11375 0,-0.22875 0,-0.3425 0,-0.595 -0.376,-1.37 -0.96187,-1.62 -1.562,-0.6625 -2.07375,-0.85125 -3.76713,-1.21625 -1.92825,-0.415 -3.00537,1.68875 -1.832,3.13375 3.19913,3.945 14.27725,4.535 13.20213,-2.76625 -1.25975,-8.56125 -8.62888,-0.0312 -9.28713,4.3675 -0.23,1.5375 1.20163,3.035 2.75338,2.11875 3.95175,-2.33375 5.65675,-6.2975 6.36675,-10.7125 0.31,-1.92625 -2.47513,-3.5325 -3.42775,-1.44375 -1.14888,2.51875 -2.231,5.01875 -3.126,7.64 -0.74063,2.17 2.252,3.0275 3.42725,1.445 3.6705,-4.94125 3.585,-10.78125 3.55912,-16.70375 -0.007,-1.74875 -2.6905,-2.715 -3.49412,-0.94625 -2.2115,4.86875 -3.689,9.79375 -2.75738,15.14625 0.249,1.43125 2.209,1.75 3.13388,0.8275 4.96237,-4.94875 2.416,-16.58875 -1.46875,-21.49125 -0.61188,-0.7725 -2.0255,-0.69875 -2.651,0 -4.52588,5.04625 -5.643,12.78875 -4.5195,19.29375 0.26612,1.54125 2.78225,1.89375 3.42725,0.4475 2.814,-6.30875 2.20075,-12.68375 2.09087,-19.44375 -0.0332,-2.045 -3.32625,-2.645 -3.68312,-0.49875 -1.147,6.89375 -2.477,13.70375 -2.63675,20.71 -0.0492,2.175 3.05712,2.47375 3.68262,0.49875 2.36475,-7.4625 1.29838,-15.08125 1.1685,-22.765 -0.041,-2.42375 -3.66212,-2.41125 -3.75,0 -0.12937,3.55125 -0.603,7.06875 -0.7325,10.62 -0.0903,2.47875 3.45663,2.32375 3.75,0 0.5635,-4.46 0.41413,-8.87625 0.36625,-13.36 -0.94037,0.53875 -1.88137,1.07875 -2.82075,1.61875 3.67963,2.30125 7.8745,2.60125 12.08788,1.90125 0.59912,-0.0987 1.18362,-0.73 1.309,-1.30875 0.41262,-1.89875 0.1495,-2.83375 -1.21575,-4.2225 -0.7735,-0.78625 -1.86238,-0.63625 -2.65138,0 -4.169,3.36 -5.86862,8.76625 -5.32075,14 0.15175,1.45 2.02625,2.70875 3.20013,1.32625 3.28425,-3.86625 4.394,-9.9825 2.12837,-14.605 -0.63037,-1.28625 -2.57175,-1.15375 -3.23825,0 -3.18012,5.50875 -3.83887,11.81625 -3.92525,18.075 -0.0254,1.85125 2.58638,2.57875 3.49413,0.94625 2.75875,-4.96375 2.57025,-13.7225 -1.3945,-18.02875 -1.02788,-1.1175 -2.67338,-0.42 -3.13388,0.82625 -1.9125,5.18 -4.79437,13.49625 -1.27825,18.5725 0.61525,0.8875 2.1445,1.4 2.94475,0.37875 4.53425,-5.78625 3.36188,-14.61375 1.94925,-21.34875 -0.46037,-2.19875 -3.51612,-1.49 -3.68262,0.49875 -0.5825,6.9475 -2.84125,14.185 -0.66788,21.05 0.5,1.58 2.53513,1.825 3.42713,0.44875 3.90625,-6.0275 3.2115,-13.53 4.59337,-20.315 -1.22762,-0.16625 -2.45562,-0.3325 -3.68312,-0.49875 -0.40575,8.69375 -5.02638,16.5175 -4.03663,25.3475 0.14988,1.34 1.498,2.4325 2.82075,1.62 6.30713,-3.8775 5.11775,-12.675 6.73438,-18.9325 -1.227,-0.1675 -2.455,-0.3325 -3.68263,-0.49875 -0.456,5.96 -4.0185,11.21375 -2.50237,17.2825 0.312,1.25 2.25337,2.1475 3.13325,1.00875 4.6445,-6.0075 4.53962,-13.5125 4.95412,-21.0125 -1.25,0 -2.5,0 -3.75,0 -0.227,6.25 -1.9375,12.7575 -1.835,19.34375 0.0294,1.86625 2.52988,2.4675 3.49413,0.855 3.42925,-5.73375 1.87062,-12.4625 2.09087,-18.8025 -1.2275,0.16625 -2.45562,0.31 -3.68312,0.47625 1.71437,6.335 -0.69138,12.73875 0.36762,19.17 0.31163,1.895 3.16663,1.5475 3.61525,-0.1425 0.62113,-2.3325 0.78425,-4.65 0.80138,-7.15 -1.25,0 -2.5,0 -3.75,0 -0.0118,5 0.31875,10.1675 -3.51175,12.905 0.93987,0.54125 1.53512,1.2175 2.78512,1.75625 0,-0.2275 0,-0.45625 0,-0.68375 0,-1.7675 -2.63475,-2.6925 -3.458,-0.94625 -1.55512,3.2975 -2.3565,5.83125 -0.90475,9.3225 0.74463,1.79 3.84275,1.80125 3.69188,-0.49875 -0.43063,-6.57875 -0.19388,-13.17875 -0.74275,-19.76 -0.30563,-3.67 -0.37988,-10.72125 -4.665,-12.1925 0.4365,0.76875 0.874,1.5375 1.3105,2.3075 0.64212,-2.61375 1.55375,-5.0175 1.90387,-7.69125 0.12938,-0.98875 -0.95075,-1.9125 -1.8745,-1.875 -0.61037,0.11625 -1.15087,-0.0275 -1.62262,-0.43 0.1275,0.98125 0.2535,1.9625 0.37987,2.94375 1.689,-1.73 2.18363,-2.97375 2.01663,-5.43625 -0.0664,-0.98125 -0.80325,-1.925 -1.875,-1.875 -0.93988,0.045 -1.4355,0.1175 -2.3345,0.41125 -1.99213,0.65375 -1.666,3.65375 0.49862,3.68375 2.895,0.0388 5.42325,-0.6425 8.206,-1.44 -0.48137,-1.14125 -0.96287,-2.28375 -1.44425,-3.42625 -2.4835,1.6025 -6.76375,0.63 -8.38087,3.41375 -1.21738,2.095 2.02437,3.9825 3.23825,1.8925 0.47562,-0.81875 5.71925,-1.21875 7.03412,-2.06875 1.7535,-1.13125 0.65825,-4.02875 -1.44425,-3.42625 -2.47762,0.71 -4.55862,1.34125 -7.209,1.305 0.166,1.2275 0.332,2.455 0.4985,3.6825 0.44575,-0.0925 0.89213,-0.185 1.33738,-0.2775 -0.625,-0.625 -1.25,-1.25 -1.875,-1.875 -0.30563,0.92875 -0.61225,1.8575 -0.91788,2.785 -0.82325,0.84375 -0.69787,2.36 0.37988,2.945 1.36862,0.745 1.91737,1.0075 3.51412,0.9425 -0.625,-0.625 -1.25,-1.25 -1.875,-1.875 -0.30025,2.2925 -1.22025,4.46 -1.769,6.69375 -0.25537,1.04 0.32313,1.9675 1.3095,2.30625 2.6475,0.90875 2.22463,12.9625 2.32038,15.2 0.187,4.37375 0.0551,8.76875 0.34125,13.13625 1.2275,-0.165 2.45562,-0.33125 3.68312,-0.49875 -0.80275,-1.92875 -0.399,-4.50875 0.50875,-6.43375 -1.165,-0.31375 -2.28025,-0.63 -3.53025,-0.945 0,0.2275 0,0.45625 0,0.68375 0,1.32375 1.6675,2.47 2.85688,1.62 5.13925,-3.67375 5.335,-10.1875 5.35112,-16.0075 0.007,-2.41875 -3.72362,-2.435 -3.74075,-0.0163 -0.0156,2.12125 -0.1005,3.4925 -0.65725,5.9925 1.20513,0 2.41025,0 3.61525,0 -1.06337,-6.25 1.3745,-12.73 -0.36712,-19.165 -0.5645,-2.085 -3.61038,-1.58375 -3.68263,0.5075 -0.19187,5.52875 1.41263,11.86625 -1.57912,16.87 1.165,0.315 2.32962,0.6325 3.49412,0.9475 -0.1025,-6.57625 1.608,-12.965 1.835,-19.52375 0.084,-2.4275 -3.61325,-2.39625 -3.75,0 -0.34575,6.05375 0.0439,13.5 -3.8555,18.54375 1.0445,0.27625 2.08938,0.55125 3.13375,0.8275 -1.33687,-5.35 2.22663,-10.92 2.63675,-16.28625 0.16363,-2.14125 -3.163,-2.5125 -3.68312,-0.49875 -1.27,4.91625 -0.15275,13.705 -5.01075,16.69125 0.94,0.54 1.88037,1.08 2.82137,1.61875 -0.979,-8.7375 3.63225,-16.6925 4.03663,-25.3475 0.0981,-2.10125 -3.25975,-2.5775 -3.68263,-0.49875 -1.30762,6.4175 -0.545,13.75375 -4.21587,19.41875 1.14262,0.15 2.28512,0.29875 3.42675,0.44875 -2.05025,-6.48125 0.2505,-13.475 0.80225,-20.05375 -1.2275,0.165 -2.4555,0.33125 -3.68313,0.49875 1.05863,5.0475 2.48838,13.2675 -0.98475,17.7 0.98138,0.12625 1.96288,0.2525 2.94475,0.37875 -2.82512,-4.0775 0.0976,-11.46 1.65575,-15.68125 -1.04387,0.27625 -2.08887,0.55125 -3.13325,0.8275 2.75725,2.995 2.69238,10.09375 0.80763,13.48375 1.165,0.31625 2.3295,0.52 3.49412,0.835 0.0776,-5.59625 0.563,-11.2925 3.4135,-16.2925 -1.0795,0 -2.15862,0 -3.23825,0 1.46775,3.75 0.563,7.69375 -1.5415,10.17125 1.06688,0.4425 2.13375,0.81 3.20125,1.25125 -0.45412,-4.34375 0.73088,-8.9225 4.22213,-11.4225 -0.88375,0 -1.76763,0 -2.65138,0 -1.49362,-1.25 -5.55612,-0.8275 -7.63825,-2.13 -1.207,-0.755 -2.83537,0.0512 -2.82075,1.445 0.0479,4.48375 0.19725,9.435 -0.36625,13.185 1.25,0 2.5,0 3.75,0 0.1295,-2.5 0.60313,-6.25 0.7325,-10 -1.25,0 -2.5,0 -3.75,0 0.124,7.5 1.22163,14.57875 -1.03425,21.69625 1.22763,0.1675 2.45563,0.29875 3.68313,0.465 0.15287,-6.66625 1.41262,-13.1725 2.5025,-19.73 -1.22763,-0.16625 -2.45563,-0.34125 -3.68263,-0.5075 0.0961,5.92375 0.91263,11.95875 -1.57912,17.5475 1.14262,0.14875 2.28512,0.0362 3.42725,0.18625 -0.88038,-5.0975 10e-4,-10.9075 3.55425,-15.9075 -0.88388,0 -1.76713,0 -2.651,0 2.57187,3.75 4.76712,13.1575 1.46837,16.4475 1.04438,0.27625 2.08925,0.68125 3.13375,0.9575 -0.74362,-4.27125 0.63375,-8.35 2.37938,-12.19125 -1.165,-0.31625 -2.32963,-0.59875 -3.49413,-0.915 0.0225,5.23125 0.23138,10.41375 -3.04737,14.82625 1.14262,0.4825 2.28512,0.9725 3.42725,1.45375 0.78762,-2.30625 1.73687,-4.525 2.748,-6.74125 -1.1425,-0.48125 -2.28513,-0.96125 -3.42725,-1.4425 -0.539,3.3525 -1.45113,6.58625 -4.643,8.47125 0.918,0.70625 1.83537,1.4125 2.75337,2.11875 0.23825,-1.5925 0.99025,-2.90875 1.81738,-4.26 0.34912,-2.01 -0.16113,-1.72375 -1.52975,0.85875 -1.98188,0.68625 -3.9805,-0.37875 -5.17388,-1.84875 -0.60787,1.04375 -1.21575,2.08875 -1.82412,3.13375 -0.27988,-0.74875 -0.55913,-1.49625 -0.83888,-2.245 0.27588,1.04375 0.55125,2.08875 0.82713,3.13375 1.43212,-1.33625 -0.20213,1.1975 -0.374,1.49625 -0.95613,1.655 0.92912,3.465 2.56487,2.565 2.58788,-1.425 4.63188,-3.60125 7.33888,-4.79625 -0.855,-0.855 -1.71,-1.71 -2.56488,-2.565 -1.3365,3.0875 -3.10987,5.54625 -5.212,8.18375 -1.49562,1.875 0.78375,4.24375 2.65138,2.65125 1.70175,-1.45 3.19287,-2.97625 5.1255,-4.15875 -0.918,-0.70625 -1.83538,-1.41125 -2.75338,-2.1175 -0.59625,1.56125 -1.38912,3.01 -2.37987,4.3475 -1.19875,1.81375 1.458,3.74125 2.94475,2.27125 1.39162,-1.5775 3.07325,-2.78625 5.0445,-3.6275 -0.76913,-0.76875 -1.53813,-1.5375 -2.30613,-2.3075 -0.34575,2.23625 -1.30862,4.0875 -2.37987,6.06125 -1.00638,1.85375 1.4165,3.81375 2.94475,2.27125 2.88087,-2.90875 5.1445,-6.13 7.26612,-9.62625 1.09275,-1.80125 -1.51662,-3.885 -2.94487,-2.2725 -2.60975,2.945 -4.92913,6.11 -7.7075,8.905 -1.71388,1.725 0.87362,4.2775 2.65137,2.6525 3.56938,-3.2625 6.25738,-7.1225 9.10213,-10.99875 -1.07963,-0.63125 -2.15875,-1.2625 -3.23838,-1.89375 -2.6015,3.72875 -5.34325,7.04125 -8.88125,9.89875 0.88375,0.88375 1.7675,1.7675 2.65138,2.65125 2.81687,-2.63625 5.55125,-5.3 8.07362,-8.2225 -0.88375,-0.88375 -1.7675,-1.7675 -2.65137,-2.65125 -2.28263,2.69125 -4.7665,5.125 -7.33975,7.5375 -1.77838,1.665 0.85,4.235 2.65137,2.65125 2.15625,-1.8975 3.99013,-4.0025 5.871,-6.16625 1.57863,-1.81625 -1.062,-4.48 -2.65137,-2.65125 l 0,0 m -16.49263,48.7525 c 0,0 5.67975,-0.0812 8.311,-0.65 2.36338,-0.50875 1.20413,-4.12375 -1.15325,-3.615 -2.29987,0.49625 -4.65775,0.515 -7.15775,0.515 -1.25,0.001 -1.25,3.75125 0,3.75 0,0 -1.25,0 0,0 m 0,-13.41625 c 0,-10e-4 5.66938,-0.08 8.311,-0.65 2.36338,-0.51125 1.20413,-4.125 -1.15325,-3.61625 -2.31062,0.49875 -4.65775,0.515 -7.15775,0.51625 -1.25,0.001 -1.25,3.75125 0,3.75 0,0 -1.25,0 0,0 m 0,6.5675 c 6.875,0 13.75,0 20,0 2.5,0 2.5,-3.75 0,-3.75 -6.25,0 -13.125,0 -20,0 -2.4185,0 -2.4185,3.75 0,3.75 l 0,0 m 0,-14.73375 c 8.14113,-0.085 16.23388,-1.08125 24.375,-1.1675 2.417,-0.025 2.41938,-3.775 0,-3.75 -8.14112,0.0863 -16.23387,1.0825 -24.375,1.1675 -2.417,0.025 -2.41937,3.775 0,3.75 l 0,0 m 8.42925,36.1725 c -3.06987,2.09875 -3.49125,6.44 -1.98487,9.635 1.90187,4.03375 6.36862,4.5025 9.96237,2.395 7.86675,-4.6125 -2.78562,-17.4825 -8.98237,-10.57 -1.609,1.795 1.03412,4.45625 2.65125,2.65125 2.56062,-2.855 7.32725,2.69875 4.4385,4.68125 -1.67325,1.14875 -3.90863,1.17875 -4.76125,-0.88875 -0.53563,-1.29875 -0.78663,-3.73875 0.56787,-4.665 1.9835,-1.35625 0.10988,-4.6075 -1.8915,-3.23875 l 0,0 m 17.06925,-74.74125 c 2.19288,-0.58125 4.98838,-0.0425 7.128,0.58375 -0.4585,-0.6025 -0.9175,-1.205 -1.3765,-1.8075 -0.0494,2.36375 -0.47162,4.56875 0.0669,6.915 0.541,2.35625 4.15675,1.3575 3.61625,-0.9975 -0.44975,-1.9575 0.0254,-3.93875 0.0669,-5.9175 0.0176,-0.84125 -0.58637,-1.5775 -1.3765,-1.8075 -2.78562,-0.81625 -6.27437,-1.34 -9.122,-0.58375 -2.3355,0.61875 -1.34325,4.23625 0.997,3.615 l 0,0 m 5.7515,3.4425 c -0.0864,21.5725 -2.10887,43.17625 -1.25,64.75125 0.0957,2.41 3.84625,2.42 3.75,0 -0.85887,-21.575 1.16363,-43.17875 1.25,-64.75125 0.01,-2.41875 -3.74025,-2.4175 -3.75,0 l 0,0 m -40,66.62625 c 13.3355,0.0312 26.6645,0.5525 40,0.58375 2.4185,0.005 2.4185,-3.745 0,-3.75 -13.3355,-0.0312 -26.6645,-0.5525 -40,-0.58375 -2.4185,-0.005 -2.4185,3.745 0,3.75 l 0,0 m -4.30812,-67.29375 c 3.31937,21.46875 1.253,42.73125 2.43312,64.25125 0.13188,2.405 3.88238,2.41875 3.75,0 -1.19925,-21.8625 0.80475,-43.44 -2.56687,-65.24875 -0.36863,-2.38375 -3.9815,-1.3675 -3.61625,0.9975 l 0,0 m 9.30812,-4.12375 c 0,0 -4.6875,-0.0238 -7.061,0.65 -2.32175,0.66 -1.49075,4.27875 0.84075,3.61625 2.05425,-0.58375 4.97025,-0.51625 6.22025,-0.51625 2.5,-0.001 2.5,-3.75125 0,-3.75 0,0 2.5,0 0,0 m 40,-7.33375 c 4.58688,-0.10375 3.29838,20.30625 3.36625,24.15125 0.15425,8.775 0.21575,17.815 0.2705,26.59125 0.101,16.57625 0.11325,32.4925 0.11325,49.9925 0,2.5 3.75,2.5 3.75,0 0,-20 -0.02,-38.96125 -0.17137,-58.31125 -0.0712,-9.11 -0.15425,-18.3525 -0.42338,-27.45875 -0.17137,-5.8225 2.1075,-18.85375 -6.90525,-18.64875 -2.4145,0.055 -2.41937,3.73875 0,3.68375 l 0,0 m -53.19187,2.29375 c -0.45513,-3.33375 12.393,-2.53125 14.706,-3.09 2.35012,-0.56625 1.35312,-4.1825 -0.997,-3.615 -5.30525,1.28 -18.57813,-1.47875 -17.32525,7.70125 0.32575,2.3875 3.939,1.3675 3.61625,-0.99625 l 0,0 m 42.16887,-2.46375 c 3.25638,0.10875 6.51525,0.16375 9.773,0.17 2.4185,0.005 2.4185,-3.745 0,-3.75 -3.25775,-0.006 -6.51662,-0.0612 -9.773,-0.17 -2.41937,-0.08 -2.41162,3.67 0,3.75 l 0,0 m -45.227,96.88 c -0.0904,11.68125 17.05225,7.42625 24.24125,7.22375 11.95938,-0.33875 24.38713,0.94625 36.25725,-0.75 2.38575,-0.34 1.36725,-3.95375 -0.997,-3.615 -8.89987,1.27125 -18.34775,0.4425 -27.30962,0.49625 -4.96038,0.03 -9.92338,0.11 -14.8755,0.415 -3.82225,0.235 -13.61525,2.5625 -13.56638,-3.77 0.019,-2.41875 -3.731,-2.4175 -3.75,0 l 0,0 m -0.625,-93.335 c 1.18313,31.30125 -0.55712,62.61125 0,93.91875 0.043,2.415 3.7935,2.41875 3.75,0 -0.55712,-31.3075 1.18313,-62.6175 0,-93.91875 -0.0909,-2.41 -3.84125,-2.41875 -3.75,0 l 0,0 m 35.46625,5.745 c -3.8925,3.18625 -7.11662,7.08875 -11.01062,10.27625 -1.87313,1.53125 0.79637,4.16875 2.65125,2.65125 3.89412,-3.18625 7.11825,-7.09 11.01075,-10.27625 1.87262,-1.5325 -0.79725,-4.17 -2.65138,-2.65125 l 0,0 M 497.32782,472.293 c -2.52975,5.045 -6.645,9.15375 -10.71725,12.98 -1.76563,1.65875 0.891,4.305 2.65125,2.65125 4.28762,-4.02875 8.64025,-8.42625 11.30425,-13.73875 1.08062,-2.155 -2.15375,-4.055 -3.23825,-1.8925 l 0,0 m 0,-8.22125 c -2.84088,4.58875 -7.03325,8.0725 -10.71725,11.95125 -1.66463,1.7525 0.98337,4.40875 2.65125,2.65125 3.91412,-4.12 8.28525,-7.83375 11.30425,-12.71 1.27687,-2.0625 -1.96825,-3.94375 -3.23825,-1.8925 l 0,0 m -10.26713,7.92375 c 1.65188,-1.54125 3.30375,-3.08375 4.95513,-4.625 1.772,-1.6525 -0.88575,-4.29875 -2.65138,-2.65125 -1.65237,1.54125 -3.30325,3.08375 -4.95512,4.625 -1.771,1.6525 0.88675,4.29875 2.65137,2.65125 l 0,0 m -0.55025,18.92875 c -1.19637,-0.98 -2.58787,-1.06125 -4.07812,-1.0625 -2.4185,-0.002 -2.4185,3.7475 0,3.75 0.42912,0 0.85737,0.004 1.28562,0.0325 0.60938,0.0412 -0.292,-0.0762 0.25488,0.0525 0.36762,0.0863 -0.006,-0.0325 -0.11375,-0.12125 0.7895,0.6475 1.8755,0.77625 2.65137,0 0.66888,-0.66875 0.7915,-2.0025 0,-2.65125 l 0,0 m -7.05575,3.165 c 1.90588,2.445 3.80188,4.8975 5.691,7.355 1.36375,1.775 2.72213,3.5525 4.06438,5.34375 0.48437,0.64625 0.96437,1.295 1.43662,1.95 0.25188,0.35 0.71725,1.45375 0.55613,0.6975 0.28712,-0.705 0.57425,-1.2625 0.86175,-1.9675 -0.005,0.002 -0.01,0.15625 -0.0146,0.15625 0.63137,0 1.26225,0 1.89262,0 0.66888,0 -0.56737,-0.84125 -0.82575,-1.13625 -1.59462,-1.82375 -4.23625,0.765 -2.65137,2.57625 0.92975,1.06375 1.8995,2.31 3.49175,1.52875 0.77787,-0.38 1.02837,-1.35375 0.86137,-2.135 -0.22362,-1.04625 -1.2925,-2.1025 -1.9,-2.9225 -1.38662,-1.8725 -2.80512,-3.725 -4.22312,-5.5725 -2.1845,-2.85 -4.38225,-5.69125 -6.58938,-8.5225 -1.48524,-1.90625 -4.11912,0.76625 -2.65137,2.64875 l 0,0 m 25.58063,-1.7575 c -2.89263,6.1175 -7.92038,10.79625 -11.56,16.44125 -1.314,2.03875 1.9325,3.9175 3.23825,1.89375 3.64112,-5.64875 8.6635,-10.31625 11.56,-16.4425 1.02737,-2.1725 -2.205,-4.0775 -3.23825,-1.8925 l 0,0 m -19.75538,-27.2075 c 0,0 11.25,0 16.25,0 2.5,0 2.5,-3.75 0,-3.75 -5,0 -10,0 -16.25,0 -2.5,0 -2.5,3.75 0,3.75 0,0 -2.5,0 0,0 m 13.51075,0.3925 c 1.57075,7.775 0.55175,15.78875 0.48338,23.65 -0.021,2.41875 3.729,2.4175 3.75,0 0.0713,-8.22875 1.02737,-16.50875 -0.61763,-24.6475 -0.4785,-2.36875 -4.09275,-1.36375 -3.61575,0.9975 l 0,0 m -0.0684,26.435 c -3.32325,3.59125 -6.88425,6.93875 -10.459,10.27625 -1.7715,1.6525 0.88625,4.3 2.65138,2.65125 3.57575,-3.33625 7.13625,-6.68375 10.459,-10.27625 1.63912,-1.77125 -1.00588,-4.42875 -2.65138,-2.65125 l 0,0 m 1.55762,0.6725 c 0,0 3.75,0 6.25,0 2.5,0 2.5,-3.75 0,-3.75 -2.5,0 -3.75,0 -6.25,0 -2.5,0 -2.5,3.75 0,3.75 0,0 -2.5,0 0,0 M 483.37657,466.0305 c 1.59337,8.4675 0.5435,17.15375 1.03425,25.70625 0.13762,2.4025 3.88862,2.41625 3.75,0 -0.51175,-8.9075 0.49262,-17.88125 -1.1685,-26.70375 -0.44625,-2.37375 -4.0605,-1.36625 -3.61575,0.9975 l 0,0" />
  </g>
</svg>
