<?xml version="1.0" encoding="UTF-8" standalone="no"?>
<!-- Created with Inkscape (http://www.inkscape.org/) -->

<svg
   xmlns:dc="http://purl.org/dc/elements/1.1/"
   xmlns:cc="http://creativecommons.org/ns#"
   xmlns:rdf="http://www.w3.org/1999/02/22-rdf-syntax-ns#"
   xmlns:svg="http://www.w3.org/2000/svg"
   xmlns="http://www.w3.org/2000/svg"
   xmlns:sodipodi="http://sodipodi.sourceforge.net/DTD/sodipodi-0.dtd"
   xmlns:inkscape="http://www.inkscape.org/namespaces/inkscape"
   width="87.77507mm"
   height="87.77507mm"
   viewBox="0 0 311.01403 311.01403"
   id="svg10311"
   version="1.1"
   inkscape:version="0.91 r"
   sodipodi:docname="intro_8.svg">
  <defs
     id="defs10313" />
  <sodipodi:namedview
     id="base"
     pagecolor="#ffffff"
     bordercolor="#666666"
     borderopacity="1.0"
     inkscape:pageopacity="0.0"
     inkscape:pageshadow="2"
     inkscape:zoom="0.35"
     inkscape:cx="-390.92156"
     inkscape:cy="69.792715"
     inkscape:document-units="px"
     inkscape:current-layer="layer1"
     showgrid="false"
     fit-margin-top="0"
     fit-margin-left="8.74765"
     fit-margin-right="8.74765"
     fit-margin-bottom="0"
     inkscape:window-width="1863"
     inkscape:window-height="1056"
     inkscape:window-x="57"
     inkscape:window-y="24"
     inkscape:window-maximized="1" />
  <metadata
     id="metadata10316">
    <rdf:RDF>
      <cc:Work
         rdf:about="">
        <dc:format>image/svg+xml</dc:format>
        <dc:type
           rdf:resource="http://purl.org/dc/dcmitype/StillImage" />
        <dc:title></dc:title>
      </cc:Work>
    </rdf:RDF>
  </metadata>
  <g
     inkscape:label="Layer 1"
     inkscape:groupmode="layer"
     id="layer1"
     transform="translate(-275.92155,-291.1409)">
    <path
       inkscape:connector-curvature="0"
       id="path1528"
       style="fill:#000000;fill-opacity:1;fill-rule:nonzero;stroke:none"
       d="m 484.13954,422.84487 c 2.8125,-0.9925 5.355,-2.56875 7.49375,-4.64875 1.735,-1.68875 -0.91875,-4.3375 -2.6525,-2.6525 -1.6625,1.61625 -3.64625,2.9125 -5.83625,3.685 -2.265,0.79875 -1.29125,4.4225 0.995,3.61625 l 0,0 m -10.915,45.275 c 0,0 0,5 0,7.5 0,2.5 3.75,2.5 3.75,0 0,-2.5 0,-5 0,-7.5 0,-2.5 -3.75,-2.5 -3.75,0 0,0 0,-2.5 0,0 m 20.4175,-69.375 c 12.04625,-0.0988 23.91625,-1.73375 35.8325,-3.33375 2.36,-0.31625 2.39125,-4.07 0,-3.75 -11.92,1.60125 -23.785,3.235 -35.8325,3.33375 -2.4175,0.02 -2.42,3.77 0,3.75 l 0,0 m -62.5,6.66625 c 4.67375,-0.0975 9.1925,-1.825 12.15875,-5.54875 1.49,-1.87 -1.145,-4.5425 -2.6525,-2.65125 -2.3775,2.98375 -5.7325,4.37125 -9.50625,4.45 -2.415,0.0513 -2.42,3.80125 0,3.75 l 0,0 M 328.30578,382.56237 c -2.57,-0.80125 -5.6875,-0.94125 -7.93,0.7875 -2.33,1.795 -2.6975,4.66 -1.87625,7.3525 0.70375,2.30625 4.32375,1.3225 3.615,-0.9975 -0.37375,-1.2275 -0.57625,-2.66 0.64,-3.465 1.325,-0.8775 3.155,-0.4975 4.55375,-0.0625 2.315,0.7225 3.2975,-2.89875 0.9975,-3.615 l 0,0 m 104.83876,-77.5 c -6.14375,1.13 -11.3175,5.62125 -9.645,12.30625 0.58625,2.345 4.2025,1.35 3.615,-0.9975 -1.17,-4.6775 3.05125,-6.96125 7.025,-7.69375 2.3775,-0.43625 1.3675,-4.05 -0.995,-3.615 l 0,0 m 17.9975,101.1825 c 19.14875,0.0412 38.29875,0.975 57.43375,-0.15125 12.9425,-0.7625 30.01375,-1.23625 40.5425,-9.85375 6.89375,-5.645 8.77,-19.10625 4.67625,-26.84375 -4.09125,-7.7325 -17.80125,-11.0725 -25.26625,-6.22875 0.855,0.855 1.71,1.71 2.565,2.56625 4.74,-7.93 -0.22875,-15.36375 -7.62375,-19.185 -8.3125,-4.29625 -18.84875,-3.1325 -24.36375,4.79125 -1.385,1.99 1.86625,3.8625 3.2375,1.89375 7.5225,-10.8075 33.39,-2.575 25.5125,10.60625 -0.9425,1.57625 0.965,3.605 2.565,2.56625 3.64125,-2.36375 9.84,-1.21 13.8075,-0.3675 5.7275,1.21625 7.4575,6.9575 7.75375,12.08125 0.64875,11.21125 -6.21375,17.755 -16.45875,20.48125 -27.085,7.2075 -56.7,3.95375 -84.38125,3.89375 -2.41875,-0.005 -2.41875,3.745 0,3.75 l 0,0 m 17.64,-83.46 c 1.305,-4.22 7.60875,-5.28875 11.3975,-5.66875 4.55375,-0.4575 9.14875,1.64 12.97125,3.8525 9.24375,5.3475 17.28875,23.09125 6.21,30.5325 -1.995,1.34 -0.12,4.59 1.8925,3.2375 12.27875,-8.2475 6.88,-27.2425 -3.37,-35 -5.38875,-4.07625 -12.4225,-7.2475 -19.33125,-6.1925 -5.225,0.79875 -11.65125,2.63125 -13.385,8.2425 -0.7175,2.31625 2.90375,3.3 3.615,0.99625 l 0,0 m -50,-3.49625 c -6.37625,-33.06625 57.8525,-32.58625 48.0525,2.0825 -0.66,2.3325 2.95875,3.32 3.615,0.9975 2.49,-8.80875 1.13625,-14.7525 -3.96875,-22.3025 -4.38875,-6.495 -13.7425,-8.39125 -20.985,-8.8375 -7.12375,-0.43875 -16.1775,0.675 -21.8075,5.4725 -6.76125,5.7625 -10.20875,14.8375 -8.52125,23.58375 0.4575,2.37375 4.07125,1.36625 3.615,-0.99625 l 0,0 m -25.00001,20.8325 c -1.71375,-7.99375 1.1625,-14.39375 8.67875,-18.12 3.735,-1.85125 13.98001,-3.89375 14.78876,2.03375 0.32375,2.3875 3.9375,1.3675 3.615,-0.99625 -1.1875,-8.7225 -13.275,-6.9125 -19.09126,-4.785 -9.94125,3.6375 -13.68625,13.1675 -11.60625,22.865 0.50625,2.36375 4.12125,1.36125 3.615,-0.9975 l 0,0 m -67.225,68.2075 c -13.19125,0.5275 -17.22375,-12.03 -15.005,-23.14 2.96875,-14.86875 24.8075,-15.62125 35.75625,-11.51125 1.285,0.48375 2.795,-1.0175 2.30625,-2.30625 -2.27875,-6.01125 0.20875,-10.95 3.11125,-16.32375 4.34375,-8.04625 13.26375,-10.73375 21.74875,-11.71875 7.12875,-0.8275 14.57625,0.265 20.29125,4.85375 5.465,4.38625 5.72,13.5625 6.16625,19.9375 0.1675,2.3875 3.82375,2.43625 3.75,0 -0.33625,-11.11625 34.50501,-5.33125 20.13376,11.17375 0.9825,0.7575 1.96375,1.515 2.945,2.2725 1.9025,-4.435 10.36625,-2.305 13.855,-1.3375 8.25625,2.2875 10.15,14.3 7.1025,21.09125 -4.53625,10.10625 -22.13,7.425 -30.91125,7.425 -30.28376,0 -60.55626,-0.10625 -90.83251,0 -2.4175,0.009 -2.41875,4.07125 0,4.0625 19.45,-0.0688 38.88125,0.3125 58.3325,0.3125 11.66625,0 23.33376,0 35.00001,0 6.86875,0 13.79625,0.04 20.54,-1.51 14.22875,-3.27125 16.14625,-19.93375 8.3275,-30.45875 -4.31,-5.8025 -21.10375,-9.67 -24.65125,-1.39875 -0.77,1.79375 1.42375,3.98 2.945,2.2325 19.0275,-21.85625 -27.08626,-32.09 -26.53626,-13.865 1.25,0 2.5,0 3.75,0 -0.55875,-7.97 -1.23625,-16.7275 -7.265,-22.59 -6.41375,-6.2375 -16.5475,-6.69375 -24.86375,-5.72875 -8.82125,1.025 -17.06125,4.46375 -22.21125,11.9325 -4.19375,6.0825 -7.04875,13.49875 -4.3425,20.635 0.7675,-0.76875 1.5375,-1.53875 2.30625,-2.30625 -13.95375,-5.23875 -35.5425,-2.34625 -40.37,14.13 -3.93625,13.43 3.80125,28.47875 18.62125,27.88625 2.41,-0.0962 2.41875,-3.84625 0,-3.75 l 0,0 m 66.6675,158.54125 c 0,0 0,15 0,23.75 0,2.5 3.75,2.5 3.75,0 0,-8.75 0,-16.25 0,-23.75 0,-2.5 -3.75,-2.5 -3.75,0 0,0 0,-2.5 0,0 m -30,2.70875 c 10.56125,-0.0575 21.10625,-0.77625 31.6675,-0.83375 2.4175,-0.0138 2.42,-3.76375 0,-3.75 -10.56125,0.0575 -21.10625,0.77625 -31.6675,0.83375 -2.4175,0.0137 -2.41875,3.76375 0,3.75 l 0,0 m 0.4175,23.33375 c 9.58375,-0.0163 19.16875,-0.21875 28.75,-0.4175 2.415,-0.05 2.42,-3.8 0,-3.75 -9.58125,0.19875 -19.16625,0.40125 -28.75,0.4175 -2.41875,0.004 -2.41875,3.75375 0,3.75 l 0,0 m -1.46,-24.7925 c -0.3875,7.2125 -0.8,14.44375 -0.8325,21.6675 -0.0113,2.41875 3.73875,2.41875 3.75,0 0.0325,-7.22375 0.445,-14.455 0.8325,-21.6675 0.13,-2.4175 -3.62,-2.405 -3.75,0 l 0,0 m 41.46,24.375 c 5.42876,-0.0613 10.82126,-0.77125 16.25001,-0.8325 2.4175,-0.0263 2.42,-3.77625 0,-3.75 -5.42875,0.0612 -10.82125,0.77125 -16.25001,0.8325 -2.4175,0.0263 -2.42,3.77625 0,3.75 l 0,0 m 0.8325,-8.3325 c 6.25876,-0.0525 12.49126,-0.78125 18.75001,-0.83375 2.4175,-0.0213 2.42,-3.77125 0,-3.75 -6.25875,0.0525 -12.49125,0.78125 -18.75001,0.83375 -2.4175,0.0212 -2.42,3.77125 0,3.75 l 0,0 m 1.25,-8.33375 c 5.97501,-0.0275 11.94251,-0.3875 17.91751,-0.4175 2.4175,-0.0113 2.41875,-3.76125 0,-3.75 -5.975,0.03 -11.9425,0.39 -17.91751,0.4175 -2.41875,0.0112 -2.41875,3.76125 0,3.75 l 0,0 m 0.4175,-7.5 c 6.80751,-0.0275 13.60751,-0.39 20.41501,-0.4175 2.41875,-0.009 2.41875,-3.75875 0,-3.75 -6.8075,0.0275 -13.6075,0.39 -20.41501,0.4175 -2.41875,0.01 -2.41875,3.76 0,3.75 l 0,0 m -42.9175,-7.5 c 20.26875,-0.50875 40.60875,-2.725 60.83251,-4.1675 2.3975,-0.17 2.415,-3.92125 0,-3.75 -20.22376,1.4425 -40.56376,3.65875 -60.83251,4.1675 -2.41375,0.06 -2.42,3.81125 0,3.75 l 0,0 m -3.5425,-14.375 c 0.0863,4.17375 0.795,8.32 0.835,12.5 0.0238,2.4175 3.77375,2.42 3.75,0 -0.04,-4.18 -0.74875,-8.32625 -0.835,-12.5 -0.05,-2.415 -3.8,-2.42 -3.75,0 l 0,0 m 64.58501,-9.1675 c -0.205,5.5525 -0.40125,11.11125 -0.4175,16.6675 -0.008,2.41875 3.7425,2.41875 3.75,0 0.0162,-5.55625 0.2125,-11.115 0.4175,-16.6675 0.0888,-2.41875 -3.66125,-2.41 -3.75,0 l 0,0 m -62.21126,10.55875 c 21.1675,-3.29 42.43875,-5.8375 63.66876,-8.68375 2.36,-0.315 2.39125,-4.07 0,-3.75 -21.56251,2.89125 -43.16626,5.47625 -64.66626,8.8175 -2.38375,0.37125 -1.3675,3.98375 0.9975,3.61625 l 0,0 m 75.33626,19.23375 c 11.24375,0.025 22.51125,0.48625 33.75,0 2.40875,-0.105 2.42,-3.855 0,-3.75 -11.23875,0.48625 -22.50625,0.025 -33.75,0 -2.41875,-0.005 -2.41875,3.745 0,3.75 l 0,0 m 31.9425,-1.37625 c 1.15875,7.27375 0.79125,14.66625 0.765,22.00125 -0.009,2.41875 3.74125,2.41875 3.75,0 0.0263,-7.6925 0.31625,-15.37125 -0.9,-22.99875 -0.37875,-2.3825 -3.9925,-1.3675 -3.615,0.9975 l 0,0 m -30.6925,25.12625 c 11.255,-0.33125 22.49625,0.36 33.75,0.41625 2.41875,0.0125 2.4175,-3.7375 0,-3.75 -11.25375,-0.0562 -22.495,-0.7475 -33.75,-0.41625 -2.4125,0.0712 -2.42,3.82125 0,3.75 l 0,0 m -3.125,-25.625 c 0.035,7.77875 0.46375,15.565 0.8325,23.33375 0.11375,2.4075 3.865,2.41875 3.75,0 -0.36875,-7.76875 -0.7975,-15.555 -0.8325,-23.33375 -0.0113,-2.4175 -3.76125,-2.41875 -3.75,0 l 0,0 m 1.04,-58.5425 c 11.53625,0.36875 23.05125,-0.7575 34.585,-0.8325 2.4175,-0.0163 2.42,-3.76625 0,-3.75 -11.53375,0.075 -23.04875,1.20125 -34.585,0.8325 -2.42,-0.0775 -2.4125,3.67375 0,3.75 l 0,0 m 35.4175,47.70875 c 0,0 0,-33.195 0,-50 0,-2.41875 -3.75,-2.41875 -3.75,0 0,16.805 0,33.75 0,50 0,2.5 3.75,2.5 3.75,0 0,0 0,2.5 0,0 m -33.75,2.70875 c 10.5575,-0.0288 21.11,-0.38875 31.6675,-0.4175 2.41875,-0.006 2.41875,-3.75625 0,-3.75 -10.5575,0.0288 -21.11,0.38875 -31.6675,0.4175 -2.41875,0.006 -2.41875,3.75625 0,3.75 l 0,0 m -3.125,-51.0425 c 0.0175,15.835 0.4,31.66625 0.4175,47.5 0.002,2.41875 3.7525,2.41875 3.75,0 -0.0175,-15.83375 -0.4,-31.665 -0.4175,-47.5 -0.002,-2.4175 -3.7525,-2.4175 -3.75,0 l 0,0 m 45.8325,-4.16625 c -0.39375,32.5 -0.01,65 0,97.5 0.001,2.41875 3.75125,2.41875 3.75,0 -0.01,-32.5 -0.39375,-65 0,-97.5 0.0288,-2.42 -3.72125,-2.41625 -3.75,0 l 0,0 m -130.41626,99.375 c 44.05875,1.76625 87.70876,0.4175 132.70876,0.4175 2.5,0 2.5,-3.75 0,-3.75 -45,0 -88.54501,1.34875 -132.60376,-0.4175 -2.42,-0.0962 -2.515,3.65375 -0.105,3.75 l 0,0 m -3.33375,-98.95875 c 1.33125,16.77 -0.60875,33.745 -0.12625,50.5775 0.42875,14.92875 0.93,29.91375 0.1925,44.84 -0.12,2.41875 3.63125,2.40625 3.75,0 0.7075,-14.31625 0.2575,-28.6825 -0.14,-43.00125 -0.4825,-17.43375 1.4525,-35.05625 0.0738,-52.41625 -0.19,-2.39375 -3.94125,-2.41125 -3.75,0 l 0,0 m 45.73875,29.9525 c 9.96125,-4.58375 20.53126,-8.07 30.80126,-11.89375 2.24625,-0.83625 1.275,-4.4625 -0.995,-3.61625 -10.57875,3.93875 -21.44001,7.55125 -31.69876,12.2725 -2.195,1.01 -0.2875,4.24125 1.8925,3.2375 l 0,0 m -10.4825,-11.505 c 2.08375,3.3325 4.16625,6.66625 6.25,10 1.27875,2.045 4.5225,0.16375 3.2375,-1.89375 -2.0825,-3.3325 -4.165,-6.66625 -6.25,-10 -1.27875,-2.04375 -4.52375,-0.16375 -3.2375,1.89375 l 0,0 m 32.31126,-16.28125 c 1.765,4.77125 3.85375,9.395 6.43875,13.78125 1.2275,2.08 4.46875,0.195 3.2375,-1.89375 -2.4225,-4.10875 -4.40625,-8.4125 -6.06125,-12.885 -0.83125,-2.2475 -4.45625,-1.275 -3.615,0.9975 l 0,0 m -28.49626,16.53625 c 9.93125,-5.005 19.65375,-10.41125 29.58501,-15.41625 2.16,-1.08875 0.26125,-4.32375 -1.8925,-3.2375 -9.93126,5.005 -19.65376,10.41125 -29.58501,15.41625 -2.16,1.08875 -0.26125,4.32375 1.8925,3.2375 l 0,0 m 63.75001,-40 c 2.9175,-1.66625 5.83375,-3.3325 8.75,-5 2.09875,-1.2 0.21,-4.44 -1.8925,-3.2375 -2.91625,1.6675 -5.83375,3.33375 -8.75,5 -2.1,1.19875 -0.21125,4.43875 1.8925,3.2375 l 0,0 m -61.28126,-37.5925 c -1.83875,-0.46125 -3.64875,-0.97375 -5.4175,-1.6675 -0.95125,-0.37375 -2.05625,0.4025 -2.305,1.31 -0.29375,1.06375 0.35875,1.9325 1.31,2.30625 1.7675,0.6925 3.57625,1.20625 5.4175,1.66625 2.34625,0.5875 3.34,-3.02875 0.995,-3.615 l 0,0 m 17.695,11.4725 c 1.11001,3.88875 2.22126,7.7775 3.33251,11.66625 0.6625,2.32125 4.28125,1.33375 3.615,-0.99625 -1.11,-3.88875 -2.22125,-7.77875 -3.3325,-11.6675 -0.6625,-2.32125 -4.28126,-1.3325 -3.61501,0.9975 l 0,0 m -17.695,7.1425 c 6.16125,-2.07375 12.24625,-4.385 18.33251,-6.66625 2.24375,-0.84125 1.2725,-4.46625 -0.99501,-3.61625 -6.0875,2.28125 -12.17375,4.5925 -18.3325,6.6675 -2.28,0.76625 -1.30125,4.38875 0.995,3.615 l 0,0 m 2.0825,14.16625 c 7.06875,-2.8175 14.16375,-5.56625 21.25001,-8.3325 2.2275,-0.87 1.26,-4.49625 -0.995,-3.61625 -7.08751,2.76625 -14.18376,5.515 -21.25001,8.33375 -2.21875,0.88375 -1.2525,4.5125 0.995,3.615 l 0,0 m 16.09375,8.685 c 2.13376,2.58 4.11251,5.31125 6.66751,7.5 1.82625,1.565 4.49125,-1.07625 2.6525,-2.65125 -2.55625,-2.19 -4.53375,-4.92 -6.6675,-7.5 -1.5425,-1.86625 -4.18001,0.8025 -2.65251,2.65125 l 0,0 m -0.68,17.08375 c 2.95376,-2.4925 6.21001,-4.59125 9.16501,-7.08375 1.85,-1.56125 -0.81625,-4.2 -2.6525,-2.65125 -2.95375,2.49125 -6.21001,4.59125 -9.16501,7.0825 -1.85,1.56125 0.81625,4.2 2.6525,2.6525 l 0,0 m -7.5,-7.91625 c 3.47125,-3.06 6.77625,-6.3 10.41501,-9.1675 1.8975,-1.49625 -0.775,-4.13 -2.65251,-2.65125 -3.6375,2.86625 -6.94375,6.1075 -10.415,9.16625 -1.8175,1.6025 0.845,4.24375 2.6525,2.6525 l 0,0 m -32.5,17.0825 c 1.7725,-1.72875 3.89375,-3.0525 5.8325,-4.5825 0.8025,-0.635 0.65875,-1.9925 0,-2.6525 -0.785,-0.785 -1.85125,-0.6325 -2.6525,0 -1.94125,1.53375 -4.05375,2.85 -5.8325,4.58375 -1.73375,1.69 0.92,4.33875 2.6525,2.65125 l 0,0 m -10.03,-8.29625 c 1.98375,2.75375 4.11875,5.39875 5.835,8.33375 1.21875,2.08625 4.46,0.19875 3.2375,-1.8925 -1.71625,-2.935 -3.85125,-5.58 -5.835,-8.33375 -1.39875,-1.9425 -4.655,-0.0738 -3.2375,1.8925 l 0,0 m 8.6275,-7.12 c 2.04375,2.50375 3.6775,5.31625 5.54,7.95375 1.3825,1.95875 4.63625,0.0875 3.2375,-1.8925 -2.05,-2.90375 -3.875,-5.955 -6.125,-8.71375 -1.53,-1.875 -4.16625,0.795 -2.6525,2.6525 l 0,0 m -19.59,-19.51875 c 6.6675,2.64 13.33375,5.27875 20,7.9175 2.25125,0.89125 3.21875,-2.7375 0.9975,-3.61625 -6.6675,-2.63875 -13.33375,-5.2775 -20,-7.91625 -2.25125,-0.89125 -3.21875,2.73625 -0.9975,3.615 l 0,0 m 24.10875,-3.55625 c -0.48,3.0725 -2.31625,5.52125 -3.56125,8.3025 -0.98,2.1875 2.25125,4.09625 3.2375,1.8925 1.375,-3.06625 3.41,-5.8075 3.93875,-9.1975 0.36875,-2.365 -3.24375,-3.38125 -3.615,-0.9975 l 0,0 m -19.13875,-5.79875 c 6.60125,2.9 13.15875,5.88875 20.03125,8.105 2.30625,0.745 3.2875,-2.87625 0.995,-3.615 -6.56375,-2.1175 -12.8275,-4.95875 -19.13375,-7.7275 -2.1925,-0.9625 -4.1025,2.2675 -1.8925,3.2375 l 0,0 m 116.70251,-36.5425 c 3.14125,3.01875 7.02,4.88125 10.7975,6.95875 2.12,1.16625 4.01125,-2.0725 1.8925,-3.2375 -3.48125,-1.915 -7.1425,-3.59 -10.0375,-6.37375 -1.74375,-1.675 -4.3975,0.97375 -2.6525,2.6525 l 0,0 m 8.07,15.8325 c 2.4875,-2.16375 3.97875,-5.1475 6.25,-7.5 1.67875,-1.74 -0.97,-4.395 -2.6525,-2.65125 -2.27,2.3525 -3.76625,5.34 -6.25,7.5 -1.82625,1.59 0.83625,4.23125 2.6525,2.65125 l 0,0 m -15.1525,-8.75 c 3.8975,3.34875 8.195,6.1975 12.4625,9.04375 2.0175,1.34625 3.8925,-1.90375 1.8925,-3.23875 -4,-2.6675 -8.05125,-5.31625 -11.7025,-8.45625 -1.82375,-1.5675 -4.48875,1.0725 -2.6525,2.65125 l 0,0 m 5.35125,-10.57375 c -1.305,3.17375 -4.44875,5.2725 -6.06125,8.30125 -1.13625,2.13375 2.10125,4.02875 3.2375,1.89375 1.79,-3.3625 4.9675,-5.61625 6.43875,-9.19875 0.92,-2.2375 -2.71,-3.20125 -3.615,-0.99625 l 0,0 m -26.63875,16.7 c 2.5675,1.29625 5.07625,2.6375 7.94875,3.10625 2.36375,0.38625 3.37875,-3.2275 0.995,-3.61625 -2.57125,-0.42 -4.75125,-1.5675 -7.05125,-2.7275 -2.15375,-1.08625 -4.05125,2.14875 -1.8925,3.2375 l 0,0 m 6.22125,3.3 c -1.7625,7.8225 -4.96125,15.19625 -7.0825,22.91625 -0.6425,2.33625 2.97625,3.32625 3.615,0.9975 2.12375,-7.72 5.32,-15.095 7.0825,-22.9175 0.53125,-2.355 -3.08375,-3.355 -3.615,-0.99625 l 0,0 m -9.165,-6.6675 c -2.86,8.38875 -5.71625,16.82875 -7.9175,25.4175 -0.6025,2.34375 3.015,3.3375 3.615,0.99625 2.2025,-8.5875 5.0575,-17.02875 7.9175,-25.41625 0.7825,-2.295 -2.84,-3.2725 -3.615,-0.9975 l 0,0 m -15.35375,-18.175 c 3.13875,2.71875 6.51375,5.075 9.965,7.37625 2.0175,1.34625 3.8925,-1.90375 1.8925,-3.2375 -3.185,-2.125 -6.3075,-4.28 -9.205,-6.79125 -1.81875,-1.575 -4.4825,1.06625 -2.6525,2.6525 l 0,0 m 6.28,16.70375 c 1.60875,-2.45125 2.97375,-5.05 4.5825,-7.5 1.3325,-2.0275 -1.91625,-3.90375 -3.2375,-1.8925 -1.61,2.45 -2.975,5.04875 -4.5825,7.5 -1.33125,2.02875 1.9175,3.905 3.2375,1.8925 l 0,0 m -11.315,-4.3275 c 3.0075,2.12375 6.17625,3.865 9.61375,5.18875 2.25875,0.87125 3.22875,-2.75625 0.995,-3.615 -3.1225,-1.20375 -5.98875,-2.885 -8.71625,-4.81125 -1.98,-1.39875 -3.85125,1.855 -1.8925,3.2375 l 0,0 m 3.30375,-13.3675 c -0.93375,3.75 -3.07125,6.98125 -4.81125,10.385 -1.09875,2.14875 2.1375,4.04625 3.2375,1.89375 1.88625,-3.69125 4.1775,-7.2175 5.18875,-11.28125 0.585,-2.3475 -3.03125,-3.3425 -3.615,-0.9975 l 0,0 m -30.64376,8.945 c 2.63875,3.88875 5.27875,7.7775 7.9175,11.66625 1.34875,1.98875 4.6,0.115 3.2375,-1.8925 -2.63875,-3.88875 -5.27875,-7.7775 -7.9175,-11.66625 -1.34875,-1.98875 -4.6,-0.115 -3.2375,1.8925 l 0,0 m -30.16,6.9225 c 3.68375,2.0125 7.63125,3.64875 10.87,6.37375 1.8375,1.545 4.505,-1.09375 2.6525,-2.6525 -3.5125,-2.95375 -7.635,-4.7775 -11.63,-6.95875 -2.1225,-1.16 -4.015,2.07875 -1.8925,3.2375 l 0,0 m 5.48,19.74375 c 2.405,-3.58375 4.9775,-7.045 7.625,-10.45375 1.4625,-1.885 -1.17,-4.56 -2.6525,-2.65125 -2.8425,3.66125 -5.62625,7.36125 -8.21,11.2125 -1.35125,2.01375 1.89875,3.88875 3.2375,1.8925 l 0,0 m -14.23,-7.24375 c 3.38625,2.59875 6.2775,5.76125 10,7.91625 2.09625,1.215 3.98375,-2.02625 1.8925,-3.2375 -3.70125,-2.14375 -6.625,-5.3275 -10,-7.91625 -1.91875,-1.47375 -3.7825,1.7875 -1.8925,3.2375 l 0,0 m 5.5775,-16.7325 c -2.08875,4.7975 -5.21,8.89125 -8.4575,12.95375 -1.49375,1.87 1.1425,4.54125 2.6525,2.6525 3.44,-4.30375 6.8275,-8.6275 9.0425,-13.7125 0.95625,-2.195 -2.27375,-4.105 -3.2375,-1.89375 l 0,0 m 31.47625,28.52875 c 0.66125,4.605 1.40125,9.22625 2.5,13.75 0.57,2.34875 4.18625,1.3525 3.615,-0.9975 -1.09875,-4.52375 -1.8375,-9.14375 -2.5,-13.75 -0.3425,-2.38625 -3.955,-1.3675 -3.615,0.9975 l 0,0 m 10.48125,35.41125 c 1.73875,2.14375 3.69125,4.095 5.835,5.8325 0.79375,0.6425 1.8725,0.77875 2.6525,0 0.66625,-0.66625 0.795,-2.0075 0,-2.65125 -2.145,-1.7375 -4.0975,-3.68875 -5.835,-5.83375 -0.645,-0.795 -1.985,-0.66625 -2.6525,0 -0.77875,0.77875 -0.6425,1.85875 0,2.6525 l 0,0 m -37.7625,5.41625 c 2.5,-2.08375 5,-4.16625 7.5,-6.25 1.86,-1.55 -0.80875,-4.18875 -2.6525,-2.6525 -2.5,2.08375 -5,4.1675 -7.5,6.25 -1.85875,1.55 0.80875,4.18875 2.6525,2.6525 l 0,0 m -11.28,-36.43875 c -1.2025,2.46 -2.13,5.04 -3.3325,7.5 -1.0575,2.16375 2.17625,4.065 3.2375,1.8925 1.2025,-2.46 2.13125,-5.04 3.3325,-7.5 1.0575,-2.16375 -2.17625,-4.065 -3.2375,-1.8925 l 0,0 m 81.95626,4.00375 c 3.47625,0.86875 6.9425,1.6725 10.4975,2.15 2.39125,0.32125 2.36,-3.4325 0,-3.75 -3.21125,-0.43125 -6.3625,-1.23125 -9.5025,-2.015 -2.34625,-0.5875 -3.34125,3.03 -0.995,3.615 l 0,0" />
  </g>
</svg>
