<?xml version="1.0" encoding="UTF-8" standalone="no"?>
<!-- Created with Inkscape (http://www.inkscape.org/) -->

<svg
   xmlns:dc="http://purl.org/dc/elements/1.1/"
   xmlns:cc="http://creativecommons.org/ns#"
   xmlns:rdf="http://www.w3.org/1999/02/22-rdf-syntax-ns#"
   xmlns:svg="http://www.w3.org/2000/svg"
   xmlns="http://www.w3.org/2000/svg"
   xmlns:sodipodi="http://sodipodi.sourceforge.net/DTD/sodipodi-0.dtd"
   xmlns:inkscape="http://www.inkscape.org/namespaces/inkscape"
   width="31.605255mm"
   height="31.605257mm"
   viewBox="0 0 111.98712 111.98713"
   id="svg8541"
   version="1.1"
   inkscape:version="0.91 r"
   sodipodi:docname="intro_4.svg">
  <defs
     id="defs8543" />
  <sodipodi:namedview
     id="base"
     pagecolor="#ffffff"
     bordercolor="#666666"
     borderopacity="1.0"
     inkscape:pageopacity="0.0"
     inkscape:pageshadow="2"
     inkscape:zoom="1.4"
     inkscape:cx="-117.82483"
     inkscape:cy="-68.02244"
     inkscape:document-units="px"
     inkscape:current-layer="layer1"
     showgrid="false"
     fit-margin-top="3.38443"
     fit-margin-left="0"
     fit-margin-right="0"
     fit-margin-bottom="3.38443"
     inkscape:window-width="1863"
     inkscape:window-height="1056"
     inkscape:window-x="57"
     inkscape:window-y="24"
     inkscape:window-maximized="1" />
  <metadata
     id="metadata8546">
    <rdf:RDF>
      <cc:Work
         rdf:about="">
        <dc:format>image/svg+xml</dc:format>
        <dc:type
           rdf:resource="http://purl.org/dc/dcmitype/StillImage" />
        <dc:title></dc:title>
      </cc:Work>
    </rdf:RDF>
  </metadata>
  <g
     inkscape:label="Layer 1"
     inkscape:groupmode="layer"
     id="layer1"
     transform="translate(-470.29591,-505.4345)">
    <path
       inkscape:connector-curvature="0"
       id="path2524"
       style="fill:#000000;fill-opacity:1;fill-rule:nonzero;stroke:none"
       d="m 511.15013,598.54448 c 2.62125,2.55 5.7425,4.44125 8.71375,6.5425 1.97875,1.4 3.85,-1.85375 1.8925,-3.2375 -2.7125,-1.91875 -5.56125,-3.62875 -7.95375,-5.9575 -1.73375,-1.68625 -4.3875,0.9625 -2.6525,2.6525 l 0,0 m 2.57625,-0.70125 c 3.65875,-0.45375 7.325,-0.875 10.915,-1.73375 2.3525,-0.56125 1.35375,-4.1775 -0.995,-3.615 -3.26875,0.78 -6.59125,1.18625 -9.92,1.59875 -2.3675,0.29375 -2.39625,4.0475 0,3.75 l 0,0 m -2.6125,-0.6725 c 8.8925,5.1525 19.6075,4.96625 29.36,2.68875 2.355,-0.54875 1.35625,-4.165 -0.995,-3.615 -8.7625,2.04375 -18.465,2.3275 -26.4725,-2.31125 -2.09625,-1.215 -3.98375,2.02625 -1.8925,3.2375 l 0,0 m -16.1375,-56.41125 c 5.7375,0.055 11.50125,0.765 17.165,-0.48375 2.2175,-0.4875 1.46875,-3.4775 -0.4975,-3.6825 -5.57,-0.58125 -8.17125,3.89125 -11.32625,7.6325 -1.5475,1.83625 1.09125,4.5025 2.6525,2.65125 2.415,-2.865 4.365,-6.98375 8.67375,-6.53375 -0.16625,-1.2275 -0.3325,-2.455 -0.4975,-3.6825 -5.3025,1.1675 -10.79875,0.4 -16.17,0.34875 -2.42,-0.0225 -2.4175,3.7275 0,3.75 l 0,0 m -8.9575,22.2925 c 0.45125,-10.21875 11.00875,-17.01875 18.65375,-22.13125 1.99875,-1.33625 0.12375,-4.5875 -1.8925,-3.23875 -8.9225,5.9675 -19.99,13.56125 -20.51125,25.37 -0.10625,2.41875 3.64375,2.40875 3.75,0 l 0,0 m 81.79875,-1.17375 c 1.66625,2.0825 3.3325,4.16625 5,6.25 0.64,0.79875 1.98875,0.6625 2.6525,0 0.7825,-0.7825 0.6375,-1.855 0,-2.6525 -1.66625,-2.0825 -3.3325,-4.16625 -5,-6.25 -0.64,-0.79875 -1.98875,-0.6625 -2.6525,0 -0.7825,0.7825 -0.6375,1.855 0,2.6525 l 0,0 m -6.2875,-23.04125 c 8.81375,5.05875 10.24375,15.32125 10.32125,24.63125 0.02,2.4175 3.77,2.41875 3.75,0 -0.0888,-10.69375 -2.16,-22.1175 -12.17875,-27.86875 -2.10125,-1.20625 -3.99,2.035 -1.8925,3.2375 l 0,0 m -27.38625,-21.41 c -6.68875,0.0388 -12.05875,3.91 -13.03375,10.72375 -0.8925,6.24625 2.585,13.0475 8.58625,15.36375 9.175,3.54125 17.96125,-3.93625 19.5875,-12.88125 1.7125,-9.41375 -6.95125,-13.06625 -14.72375,-13.20625 -2.42,-0.045 -2.41625,3.705 0,3.75 6.16625,0.11125 12.2475,2.2025 10.895,9.635 -1.305,7.17125 -9.23875,12.21625 -15.82625,8.4925 -3.7025,-2.09375 -5.37125,-6.86875 -4.79375,-10.91375 0.6925,-4.8475 4.71875,-7.1875 9.30875,-7.21375 2.4175,-0.015 2.41875,-3.765 0,-3.75 l 0,0 m 36.7475,59.23375 c -7.12625,-1.44875 -13.57,1.2825 -17.1475,7.68875 -3.13,5.60375 -2.67125,13.2525 2.34125,17.5675 7.2675,6.25875 18.41125,1.245 23.60875,-5.20375 6.1225,-7.5975 0.48875,-17.03 -7.5525,-20.0525 -2.2675,-0.8525 -3.2375,2.7725 -0.995,3.615 3.39,1.275 5.88375,3.6925 7.115,7.11375 1.3525,3.76125 -1.15,6.95125 -3.72625,9.3575 -4.57,4.2675 -13.4475,6.51625 -17.59625,0.59 -2.44625,-3.495 -1.47875,-8.37125 0.45,-11.82375 2.54875,-4.5625 7.5725,-6.24 12.5075,-5.2375 2.35875,0.48 3.365,-3.13375 0.995,-3.615 l 0,0 m -85.915,-3.8175 c -9.82375,-0.3875 -14.4725,4.30375 -14.67625,14.10125 -0.20625,9.93375 7.17625,14.27375 16.2225,13.79125 9.15125,-0.48625 14.4675,-6.49 14.39375,-15.47875 -0.0725,-8.77875 -7.83375,-12.23125 -15.5225,-12.41375 -2.42,-0.0575 -2.415,3.6925 0,3.75 5.9025,0.14 11.29625,2.0825 11.7725,8.66375 0.505,6.98375 -4.00125,11.02 -10.64375,11.72875 -7.3525,0.78625 -12.1675,-2.52875 -12.4725,-10.04125 -0.12125,-3 0.325,-6.44125 2.4725,-8.68 1.98875,-2.07375 5.8575,-1.77375 8.45375,-1.67125 2.42,0.095 2.41,-3.655 0,-3.75 l 0,0 m 91.8075,-6.37625 c 0.705,-2.03875 1.76125,-3.875 3.26875,-5.4225 1.6875,-1.7325 -0.9625,-4.38625 -2.6525,-2.6525 -1.96875,2.0225 -3.315,4.42125 -4.23125,7.0775 -0.79125,2.2925 2.83125,3.26875 3.615,0.9975 l 0,0" />
  </g>
</svg>
