<?xml version="1.0" encoding="UTF-8" standalone="no"?>
<!-- Created with Inkscape (http://www.inkscape.org/) -->

<svg
   xmlns:dc="http://purl.org/dc/elements/1.1/"
   xmlns:cc="http://creativecommons.org/ns#"
   xmlns:rdf="http://www.w3.org/1999/02/22-rdf-syntax-ns#"
   xmlns:svg="http://www.w3.org/2000/svg"
   xmlns="http://www.w3.org/2000/svg"
   xmlns:sodipodi="http://sodipodi.sourceforge.net/DTD/sodipodi-0.dtd"
   xmlns:inkscape="http://www.inkscape.org/namespaces/inkscape"
   width="55.643124mm"
   height="55.643127mm"
   viewBox="0 0 197.16067 197.16069"
   id="svg7949"
   version="1.1"
   inkscape:version="0.91 r"
   sodipodi:docname="intro_3.svg">
  <defs
     id="defs7951" />
  <sodipodi:namedview
     id="base"
     pagecolor="#ffffff"
     bordercolor="#666666"
     borderopacity="1.0"
     inkscape:pageopacity="0.0"
     inkscape:pageshadow="2"
     inkscape:zoom="0.35"
     inkscape:cx="-399.2766"
     inkscape:cy="27.151779"
     inkscape:document-units="px"
     inkscape:current-layer="layer1"
     showgrid="false"
     fit-margin-top="2.54641"
     fit-margin-left="0"
     fit-margin-right="0"
     fit-margin-bottom="2.54641"
     inkscape:window-width="1863"
     inkscape:window-height="1056"
     inkscape:window-x="57"
     inkscape:window-y="24"
     inkscape:window-maximized="1" />
  <metadata
     id="metadata7954">
    <rdf:RDF>
      <cc:Work
         rdf:about="">
        <dc:format>image/svg+xml</dc:format>
        <dc:type
           rdf:resource="http://purl.org/dc/dcmitype/StillImage" />
        <dc:title></dc:title>
      </cc:Work>
    </rdf:RDF>
  </metadata>
  <g
     inkscape:label="Layer 1"
     inkscape:groupmode="layer"
     id="layer1"
     transform="translate(-284.27661,-362.35329)">
    <path
       inkscape:connector-curvature="0"
       d="m 418.06326,436.30257 c 0.5838,2.505 0.5563,4.18875 0.5575,7.93875 10e-4,1.25 3.7513,1.25 3.75,0 0,-3.75 -0.029,-5.9425 -0.6925,-8.78 -0.5487,-2.35375 -4.165,-1.51125 -3.615,0.84125 l 0,0 m -17.8525,76.3475 c 6.3113,5.31 9.4725,13.29875 16.2138,18.21 1.9587,1.4275 3.8262,-1.82875 1.8925,-3.2375 -6.4175,-4.67625 -9.4075,-12.53625 -15.4538,-17.625 -1.8375,-1.545 -4.505,1.0925 -2.6525,2.6525 l 0,0 m 5.0288,12.5375 c 3.42,-5.305 8.8237,-8.81125 13.4575,-12.9525 1.8062,-1.615 -0.855,-4.25875 -2.6525,-2.6525 -4.905,4.3875 -10.4188,8.09125 -14.0425,13.7125 -1.315,2.03875 1.9325,3.9175 3.2375,1.8925 l 0,0 m -3.7788,-31.7025 c 4.5938,5.56 8.82,11.72375 14.9638,15.7075 2.035,1.32 3.9137,-1.9275 1.8925,-3.2375 -5.8238,-3.77625 -9.85,-9.85125 -14.2038,-15.1225 -1.5425,-1.86625 -4.1787,0.80375 -2.6525,2.6525 l 0,0 m 14.5838,-7.2375 c -5.4725,4.65625 -10.7313,9.54 -15.4163,15 -1.565,1.825 1.075,4.49 2.6525,2.6525 4.6838,-5.46125 9.9425,-10.34375 15.4163,-15 1.8437,-1.57 -0.8225,-4.20875 -2.6525,-2.6525 l 0,0 m -14.0425,-18.1425 c 3.6812,6.335 8.0725,12.23125 13.2087,17.4625 1.6963,1.7275 4.3475,-0.92625 2.6525,-2.6525 -4.9225,-5.0125 -9.0962,-10.6325 -12.6237,-16.7025 -1.2138,-2.09 -4.4563,-0.2025 -3.2375,1.8925 l 0,0 m 13.75,-4.3925 c -4.2575,6.60125 -9.9088,12.145 -14.1663,18.75 -1.315,2.03875 1.9325,3.9175 3.2375,1.8925 4.2563,-6.6025 9.9075,-12.14625 14.1663,-18.75 1.3162,-2.03875 -1.9325,-3.91625 -3.2375,-1.8925 l 0,0 m -10,-12.6925 c 2.855,4.115 5.4762,8.38625 8.3337,12.5 1.3688,1.97125 4.62,0.0987 3.2375,-1.8925 -2.8562,-4.11375 -5.4787,-8.385 -8.3337,-12.5 -1.3675,-1.97125 -4.62,-0.1 -3.2375,1.8925 l 0,0 m -1.2213,9.965 c 4.0025,-5.13625 9.4538,-8.7725 14.62,-12.625 1.915,-1.4275 0.049,-4.685 -1.8925,-3.2375 -5.4075,4.03125 -11.19,7.835 -15.38,13.21 -1.4662,1.88375 1.1663,4.5575 2.6525,2.6525 l 0,0 m 17.84,-15.70125 c 11.1175,-0.0563 22.2163,-0.77875 33.3338,-0.835 2.4187,-0.0125 2.4187,-3.7625 0,-3.75 -11.1175,0.0562 -22.2163,0.77875 -33.3338,0.835 -2.4175,0.0125 -2.42,3.7625 0,3.75 l 0,0 m -0.8337,11.665 c 11.275,-1.3075 22.6162,-2.035 33.8312,-3.8175 2.385,-0.3775 1.3688,-3.99125 -0.995,-3.615 -10.8837,1.72875 -21.8962,2.41375 -32.8362,3.6825 -2.3725,0.275 -2.4,4.02875 0,3.75 l 0,0 m -3.5413,-1.4575 c 0.01,0 0.2288,47.57 0.4163,71.45875 0.02,2.4175 3.77,2.52375 3.75,0.10375 -0.1875,-23.8875 -0.4075,-47.8125 -0.4163,-71.5625 0,-2.5 -3.7512,-2.5 -3.75,0 0,0 0,-2.5 0,0 m -20,-6.25 c 0.011,0 0.4463,52.43375 0,78.54125 -0.041,2.42 3.7088,2.31125 3.75,-0.10375 0.4463,-26.10875 0.011,-52.1875 0,-78.4375 0,-2.5 -3.7512,-2.5 -3.75,0 0,0 0,-2.5 0,0 m -32.785,-30.7625 c 3.1975,3.125 6.915,5.6125 10.7975,7.8 2.1113,1.18625 4,-2.05 1.8925,-3.2375 -3.6137,-2.0375 -7.0612,-4.3 -10.0375,-7.2125 -1.7312,-1.6875 -4.385,0.9625 -2.6525,2.65 l 0,0 m 4.7725,9.46375 c 5.5238,-3.76375 11.4263,-6.90125 16.63,-11.12625 1.8775,-1.525 -0.7925,-4.1625 -2.6525,-2.65 -4.9437,4.0125 -10.62,6.9625 -15.87,10.5375 -1.9862,1.35 -0.1125,4.60375 1.8925,3.23875 l 0,0 m -23.105,-8.62625 c 3.0475,3.9 6.375,7.3625 11.245,8.815 2.3225,0.6925 3.3075,-2.9275 0.995,-3.615 -4.205,-1.25 -6.975,-4.5125 -9.5875,-7.85 -1.4887,-1.9 -4.1225,0.775 -2.6525,2.65 l 0,0 m 2.6563,9.65 c 6.84,-2.6625 13.1687,-6.3125 19.6162,-9.775 2.1313,-1.15 0.2363,-4.375 -1.8925,-3.2375 -6.155,3.3125 -12.1912,6.8625 -18.7187,9.4 -2.23,0.8625 -1.2613,4.49 0.995,3.6125 l 0,0 m -22.5325,-10.45 c 2.9225,4.2 7.1037,6.575 11.955,7.95 2.33,0.6625 3.3187,-2.9625 0.995,-3.6125 -3.8525,-1.1 -7.37,-2.8625 -9.7125,-6.225 -1.3725,-1.975 -4.6238,-0.1 -3.2375,1.8875 l 0,0 m 1.7312,9.84375 c 5.165,-3.38125 10.67,-6.20625 15.8338,-9.58125 2.0137,-1.325 0.1362,-4.575 -1.8925,-3.2375 -5.165,3.375 -10.67,6.2 -15.8338,9.5875 -2.0137,1.3125 -0.1362,4.56125 1.8925,3.23125 l 0,0 m -24.35624,-9.45625 c 4.48125,4.375 9.675,7.775 15.83004,9.2275 2.35,0.555 3.3487,-3.065 0.995,-3.615 -5.55379,-1.3125 -10.12754,-4.3125 -14.17254,-8.2625 -1.73,-1.7 -4.3825,0.95 -2.6525,2.65 l 0,0 m 3.1075,11.95625 c 5.235,-3.86 10.86624,-7.06875 16.66624,-10.00625 2.1588,-1.0875 0.2613,-4.325 -1.8925,-3.225 -5.79999,2.925 -11.43124,6.1375 -16.66624,9.99375 -1.92375,1.41875 -0.0575,4.675 1.8925,3.2375 l 0,0 m 107.38624,1.92375 c 19.04,-0.0637 38.0438,-1.60375 57.0838,-1.6675 2.4187,-0.007 2.4187,-3.7575 0,-3.75 -19.04,0.0637 -38.0438,1.60375 -57.0838,1.6675 -2.4187,0.008 -2.4187,3.7575 0,3.75 l 0,0 m -20.625,-13.5425 c -0.033,3.3375 -0.3837,6.6625 -0.4162,10 -0.01,1.0325 0.86,1.86125 1.875,1.875 2.675,0.035 5.3087,0.38625 7.8937,-0.485 0.7963,-0.2675 1.2725,-0.9375 1.2725,-1.8075 0,-3.6075 0,-7.22 0,-10.8325 0,-1.025 -0.645,-1.25 -1.6662,-1.25 -2.5,0 -4.5838,0 -7.0838,0 -2.5,0 -2.5,3.75 0,3.75 2.5,0 4.5838,0 7.0838,0 -0.625,-1.25 -0.8338,-1.875 -2.0838,-2.5 0,3.6125 0,7.225 0,10.8325 1.25,-0.6025 1.0225,-1.205 1.4825,-1.8075 -2.2487,0.75625 -4.6237,0.38 -6.9512,0.35 0.625,0.625 1.2762,1.25 1.9012,1.875 0.034,-3.3375 0.3963,-6.6625 0.4288,-10 0.025,-2.425 -3.7125,-2.4125 -3.7363,0 l 0,0 m -3.9587,-6.0375 c 6.2525,-0.0375 12.4975,-0.3875 18.75,-0.425 2.4187,-0.0125 2.4187,-3.7625 0,-3.75 -6.2525,0.0375 -12.4975,0.3875 -18.75,0.425 -2.4188,0 -2.4188,3.75 0,3.75 l 0,0 m 16.875,0.625 c 0.3812,10 -0.3613,19.995 -0.4163,29.995 -0.014,2.41875 3.7363,2.4175 3.75,0 0.055,-10 0.7975,-19.995 0.4163,-29.995 -0.091,-2.4125 -3.8413,-2.425 -3.75,0 l 0,0 m -16.4575,33.12 c 5.4687,0.0287 10.9,0.31625 16.33,-0.4825 2.3862,-0.35 1.3687,-3.96375 -0.995,-3.615 -5.075,0.745 -10.2288,0.375 -15.335,0.3475 -2.4188,-0.0125 -2.4175,3.7375 0,3.75 l 0,0 m -3.475,-34.295 c 1.5925,9.75 0.6287,20.4675 0.7662,30.3375 0.034,2.41625 3.7838,2.42 3.75,0 -0.1425,-10.235 0.7525,-21.2125 -0.9012,-31.3375 -0.3888,-2.375 -4.0025,-1.3625 -3.615,1 l 0,0 m -71.86129,0.475 c 13.17629,-3.5125 25.95749,-9.7 38.53879,-14.9125 15.5062,-6.425 31.5387,-11.8125 47.295,-17.5875 2.2525,-0.825 1.28,-4.45 -0.995,-3.6125 -15.7025,5.75 -31.6913,11.1125 -47.1375,17.525 -12.6288,5.2375 -25.4688,11.4375 -38.69629,14.975 -2.335,0.625 -1.34375,4.2375 0.995,3.6125 l 0,0 m -13.415,4.2375 c 27.89249,0.025 55.88249,1.1125 83.75129,-0.4125 2.405,-0.1375 2.4175,-3.8875 0,-3.75 -27.8688,1.525 -55.8588,0.4375 -83.75129,0.4125 -2.41875,0 -2.41875,3.75 0,3.75 l 0,0 m 30.41749,21.875 0,1.25 c 0,2.5 3.75,2.5 3.75,0 l 0,-1.25 c 0,-2.5 -3.75,-2.5 -3.75,0 0,0 0,-2.5 0,0 m -12.6412,-2.16625 c -0.4288,1.68 -0.4775,3.35625 -0.4838,5.08375 0,1.01875 0.8563,1.88 1.875,1.875 4.445,-0.0212 8.8925,-0.24625 13.3338,-0.4175 2.41,-0.0925 2.42,-3.8425 0,-3.75 -4.4413,0.17125 -8.8888,0.39625 -13.3338,0.4175 0.625,0.625 1.25,1.25 1.875,1.875 0,-1.3875 0,-2.735 0.3488,-4.08625 0.5987,-2.345 -3.0188,-3.33875 -3.615,-0.9975 l 0,0 m -3.60879,1.54125 c 7.22379,-0.0263 14.44249,-0.39125 21.66629,-0.4175 2.4187,-0.009 2.4187,-3.75875 0,-3.75 -7.2238,0.0262 -14.4425,0.39125 -21.66629,0.4175 -2.41875,0.009 -2.41875,3.75875 0,3.75 l 0,0 m 7.00249,30.765 c 1.68,0.42875 3.3338,0.87375 5.0813,0.9025 2.42,0.04 2.4162,-3.71 0,-3.75 -1.4088,-0.0237 -2.7288,-0.4225 -4.0863,-0.7675 -2.345,-0.59625 -3.3375,3.02 -0.995,3.615 l 0,0 m 0.4975,5.0675 c 0,0 2.9538,-0.0237 4.455,-0.4825 2.3075,-0.70375 1.4275,-4.32375 -0.89,-3.615 -1.1937,0.36375 -2.315,0.3475 -3.565,0.3475 -2.5,10e-4 -2.5,3.75125 0,3.75 0,0 -2.5,0 0,0 m -2.5,2.5 c 0,0 5.83,-0.055 8.6225,-0.4825 2.3863,-0.36375 1.265,-3.97625 -1.0987,-3.615 -2.4488,0.37375 -5.0238,0.3475 -7.5238,0.3475 -2.5,10e-4 -2.5,3.75125 0,3.75 0,0 -2.5,0 0,0 m 4.375,-34.79 c -0.1212,8.6425 -1.545,17.19 -1.6662,25.8325 -0.034,2.42 3.7162,2.41625 3.75,0 0.1212,-8.6425 1.545,-17.19 1.6662,-25.8325 0.034,-2.42 -3.7162,-2.41625 -3.75,0 l 0,0 m -2.595,47.96375 c -3.5775,-2.43625 -1.1937,-9.1575 2.4763,-10.08125 2.1762,-0.5475 4.4825,1.08625 5.695,2.7325 1.6525,2.2425 1.5675,4.9075 0.096,7.18875 -1.3162,2.03875 1.9325,3.91625 3.2375,1.8925 4.2713,-6.62 -1.15,-16.82375 -9.4625,-15.5175 -7.4687,1.1725 -10.24624,12.7275 -3.935,17.0225 2.005,1.365 3.8788,-1.88625 1.8925,-3.2375 l 0,0 m 0.3838,-18.65625 c 1.03,-0.3275 1.6825,-0.35 2.8362,-0.35 1.0213,0 1.875,-0.8525 1.875,-1.875 0,-1.02125 -0.8537,-1.875 -1.875,-1.875 -1.3037,0 -2.5812,0.085 -3.8312,0.485 -0.9738,0.31 -1.59,1.29 -1.31,2.30625 0.2625,0.955 1.3325,1.62 2.305,1.30875 l 0,0 m -23.91129,-56.5375 c -4.555,1.8875 -8.88874,4.4125 -13.74999,5.425 -1.64,0.3375 -1.7725,2.6375 -0.44875,3.425 4.12875,2.4625 7.9925,5.4075 11.70249,8.45625 1.8525,1.52125 4.5225,-1.11625 2.6525,-2.6525 -3.955,-3.25375 -8.06249,-6.41625 -12.46249,-9.04125 -0.14875,1.1375 -0.2975,2.2875 -0.44875,3.425 4.87625,-1.0125 9.18999,-3.5375 13.74999,-5.4125 2.20375,-0.9125 1.24,-4.55 -0.995,-3.625 l 0,0 m -0.96,2.225 c 0.0275,4.6 0.3575,9.1875 0.8325,13.755 0.2475,2.38 4,2.40375 3.75,0 -0.475,-4.5675 -0.805,-9.155 -0.8325,-13.755 -0.015,-2.4125 -3.765,-2.4125 -3.75,0 l 0,0 m 5.2075,14.5875 c 0,0 54.30499,0 81.24999,0 2.4188,0 2.4188,-3.75 0,-3.75 -26.945,0 -53.75,0 -81.24999,0 -2.5,0 -2.5,3.75 0,3.75 0,0 -2.5,0 0,0 m 150.62499,5 c 0.425,4.0975 0.6113,8.1775 1.7338,12.16625 0.6525,2.32375 4.2712,1.335 3.615,-0.9975 -1.0313,-3.66875 -1.2075,-7.4 -1.5988,-11.16875 -0.2462,-2.38 -3.9987,-2.405 -3.75,0 l 0,0 m 2.8213,-8.38125 c 5.0625,-3.41875 9.7887,-7.24375 14.13,-11.54375 1.7212,-1.7 -0.9325,-4.35 -2.6525,-2.65 -4.1175,4.075 -8.5675,7.7125 -13.37,10.9625 -1.9938,1.3375 -0.1188,4.5875 1.8925,3.23125 l 0,0 m -2.565,-8.59375 c 3.1062,4.3375 6.9637,7.32 11.955,9.2 2.2662,0.855 3.2362,-2.775 0.995,-3.6125 -4.005,-1.5125 -7.2188,-4 -9.7125,-7.475 -1.395,-1.95 -4.6513,-0.075 -3.2375,1.8875 l 0,0 m -18.685,9.42625 c 5.2825,-3.32625 10.5662,-6.65125 15.8337,-10.00125 2.0338,-1.2875 0.155,-4.5375 -1.8925,-3.2375 -5.2675,3.35 -10.5512,6.675 -15.8337,10 -2.0413,1.285 -0.16,4.53125 1.8925,3.23875 l 0,0 m -0.4813,-9.42625 c 2.0475,4.45 5.5375,8.46375 10.2875,10.0325 2.3013,0.76125 3.2813,-2.86125 0.995,-3.62 -3.8175,-1.2625 -6.425,-4.7875 -8.045,-8.3 -1.01,-2.2 -4.2412,-0.2875 -3.2375,1.8875 l 0,0 m -20.4175,-2.075 c 2.7588,4.525 6.22,8.75 11.09,11.08625 2.17,1.04125 4.0725,-2.19875 1.8925,-3.23625 -4.325,-2.075 -7.2937,-5.725 -9.745,-9.75 -1.255,-2.0625 -4.4987,-0.175 -3.2375,1.9 l 0,0 m 4.6488,10.25125 c 6.3675,-3.85125 12.5625,-7.96375 18.75,-12.08875 2.0012,-1.325 0.125,-4.575 -1.8925,-3.225 -6.1875,4.125 -12.3838,8.225 -18.75,12.075 -2.0663,1.25 -0.1825,4.4925 1.8925,3.23875 l 0,0 m 57.6625,-14.61375 c -1.205,5.3375 -2.1388,10.725 -4.1663,15.83125 -0.8937,2.25 2.7338,3.21625 3.615,0.9975 2.0275,-5.10375 2.9613,-10.50375 4.1663,-15.84125 0.5325,-2.35 -3.0825,-3.35 -3.615,-0.9875 l 0,0 m -62.9463,2.925 c 21.82,0.625 43.5488,-1.775 65.3425,-2.35 2.4125,-0.075 2.4188,-3.825 0,-3.75 -21.7937,0.575 -43.5225,2.975 -65.3425,2.35 -2.4187,-0.075 -2.4125,3.675 0,3.75 l 0,0 m -7.0537,-31.9375 c 3.1337,9.1125 4.3037,18.7125 7.0837,27.925 0.6963,2.3125 4.3163,1.325 3.615,-1 -2.7787,-9.2125 -3.9487,-18.8 -7.0837,-27.9125 -0.7813,-2.275 -4.4038,-1.3 -3.615,0.9875 l 0,0 m -2.0825,-0.575 c -2.1613,7.7625 -5.7,15.05 -7.5,22.9125 -0.5388,2.3625 3.0762,3.3625 3.615,1 1.8012,-7.8625 5.3412,-15.15 7.5,-22.9125 0.65,-2.3375 -2.9688,-3.325 -3.615,-1 l 0,0 m 9.6112,-2.8875 c 19.4438,9.8625 38.8888,19.725 58.3325,29.5875 2.1513,1.0875 4.0488,-2.1375 1.8925,-3.2375 -19.4437,-9.8625 -38.8887,-19.725 -58.3325,-29.575 -2.1512,-1.1 -4.0487,2.1375 -1.8925,3.225 l 0,0 m -8.75,-1.6625 c 1.5313,1.125 3.805,1.4 5.4325,0.3125 2.0975,-1.4125 1.8175,-4.025 0.5625,-5.9125 -1.2212,-1.825 -3.4975,-2.175 -5.275,-0.9375 -1.7137,1.1875 -2.8175,3.2625 -2.8987,5.3375 -0.034,0.875 0.6075,1.525 1.3775,1.8125 3.1812,1.15 8.4537,-0.525 8.5175,-4.4375 0.041,-2.5375 -2.2063,-4.4 -4.635,-3.9125 -2.2388,0.45 -3.835,3.125 -3.5938,5.2875 0.1138,1.0125 0.7663,1.875 1.875,1.875 0.9363,0 1.99,-0.8625 1.875,-1.875 -0.078,-0.7 0.1725,-1.45 0.84,-1.6625 -0.2925,0.0875 -0.39,-0.4875 -0.1625,0.1375 0.15,0.4 0.055,-0.025 0.049,0.35 0,-0.125 0.145,-0.375 -0.04,-0.0375 0.14,-0.25 -0.2037,0.1875 -0.225,0.2125 0.1925,-0.175 -0.3587,0.1875 -0.3262,0.175 -0.2788,0.15 -0.67,0.25 -1.06,0.35 -0.7775,0.175 -1.4238,0.1625 -2.1188,-0.0875 0.46,0.6125 0.9188,1.2125 1.3775,1.8125 0.023,-0.55 0.3113,-1.225 0.6975,-1.7 0.215,-0.275 0.4488,-0.4875 0.735,-0.65 0.3138,-0.1875 -0.021,0.125 -0.125,0.0125 0.1388,0.1375 0.3713,0.6 0.39,0.775 0.051,0.45 -0.082,0.075 0.1013,-0.05 0.14,-0.0375 0.095,-0.0125 -0.1375,0.05 0.1862,-0.0625 -0.3988,0.0125 -0.4088,0.0125 -0.2875,-0.0125 -0.665,-0.2875 -0.9312,-0.4875 -0.8238,-0.6125 -2.09,-0.1375 -2.565,0.675 -0.5588,0.95 -0.1475,1.9625 0.6725,2.5625 l 0,0 m -93.63759,52.55 c 0,0 0,2.5 0,3.75 0,2.5 3.75,2.5 3.75,0 0,-1.25 0,-2.5 0,-3.75 0,-2.5 -3.75,-2.5 -3.75,0 0,0 0,-2.5 0,0 m 24.21499,0.52875 c -0.21,-0.47625 0.04,0.34625 0.066,0.48625 0.074,0.40375 0.072,0.4875 0.135,0.9775 0.1212,0.955 0.2412,1.81875 0.6312,2.70375 0.4125,0.935 1.7588,1.145 2.565,0.6725 0.955,-0.55875 1.0863,-1.63 0.6725,-2.565 0.2113,0.4775 -0.04,-0.34375 -0.066,-0.485 -0.074,-0.40375 -0.072,-0.48625 -0.135,-0.97625 -0.1213,-0.9575 -0.2413,-1.82 -0.6313,-2.70625 -0.4112,-0.93625 -1.76,-1.14375 -2.565,-0.6725 -0.955,0.56 -1.085,1.63 -0.6725,2.565 l 0,0 m 39.1188,113.43 c 2.005,-0.0588 3.97,-0.43 5.9137,-0.90125 -0.3312,-1.205 -0.6637,-2.41 -0.995,-3.615 -2.0887,0.78875 -4.2475,1.34 -6.2812,2.2725 -1.965,0.89875 -0.5575,4 1.4437,3.42625 1.9263,-0.55125 3.7238,-1.385 4.995,-2.98125 0.9663,-1.21625 0.4513,-3.20625 -1.3262,-3.20125 -1.915,0.005 -2.5725,0.4525 -3.8263,1.79875 -0.8175,0.87875 -0.4862,2.3225 0.5875,2.945 1.8238,1.0575 3.655,1.4425 6.155,1.50625 0,-1.25 0,-2.70875 0,-3.95875 -1.25,0 -2.3612,0 -3.3325,0 -2.0562,0 -2.635,3.47125 -0.4975,3.7875 2.8738,0.42625 5.6213,0.4775 8.495,0.0513 2.3863,-0.3525 1.3688,-3.94 -0.995,-3.58875 -2.1625,0.32 -4.3425,0.22875 -6.505,-0.0913 -0.165,1.2275 -0.3312,2.34125 -0.4975,3.59125 0.9713,0 1.945,0 2.9163,0 2.4225,0 2.4112,-3.5725 0,-3.64625 -1.4325,-0.0425 -2.8,-0.21375 -4.0538,-0.94125 0.1263,0.98125 0.2538,1.98875 0.38,2.97125 0.3125,-0.33625 0.6,-0.66 0.8725,-1.02875 -0.5,0.675 -0.97,0.35125 0.3013,0.3475 -0.4425,-1.0675 -0.8838,-2.13 -1.3263,-3.1975 -0.8987,1.13 -1.97,1.62625 -3.3375,2.01875 0.48,1.1425 0.9625,2.28625 1.4438,3.42875 1.73,-0.79125 3.6087,-1.22375 5.3837,-1.895 2.23,-0.8425 1.3925,-4.19375 -0.995,-3.615 -1.6262,0.39375 -3.2412,0.7175 -4.9187,0.76625 -2.4138,0.07 -2.42,3.82 0,3.75 l 0,0 m 65.4975,2.4325 c 1.2325,-0.37125 2.52,-0.46 3.75,-0.83375 2.3137,-0.7 1.355,-4.195 -0.995,-3.615 -1.6188,0.39875 -3.2463,0.74 -4.9188,0.76625 0.315,1.165 0.6313,2.32875 0.9463,3.49375 0.9537,-0.5575 1.5675,-1.225 2.5,-1.77125 1.61,-0.9425 0.9225,-3.18125 -0.9463,-3.18125 -0.695,0 -1.3887,0 -2.0837,0 0.54,0 1.0787,1.56875 1.6187,2.50875 0.1663,-0.26875 1.0925,-0.79625 1.3738,-1.02625 0.6425,-0.5275 0.6862,-1.6775 0.2925,-2.35 -0.5513,-0.94375 -1.6388,-1.14125 -2.565,-0.7125 -0.3813,0.17625 -0.7238,0.245 -1.1363,0.24625 -2.4187,0.008 -2.4187,3.83375 0,3.83375 0.555,0 0.8325,0 2.0825,0 2.5,0 2.5,-3.75 0,-3.75 -1.25,0 -1.25,0 -2.5,0 0,1.25 0,2.2925 0,3.5425 1.25,-0.004 2.2288,-0.20625 3.2375,-0.67375 -0.7575,-0.98125 -1.4112,-1.9625 -2.1687,-2.945 0.1037,-0.11 0.105,-0.1 -0.093,0.0312 -0.2125,0.10375 -0.3875,0.20125 -0.59,0.325 -0.5125,0.3125 -0.875,1.0825 -1.185,1.58625 -0.7513,1.22 0.2362,3.13375 1.6325,3.13375 0.695,0 1.3887,0 2.0837,0 -0.315,-1.25 -0.6312,-2.64125 -0.9462,-3.80625 -0.9538,0.5575 -1.5675,1.38125 -2.5,1.9275 -1.5938,0.9325 -0.935,3.445 0.9462,3.415 1.9963,-0.0312 3.9825,-0.46375 5.9138,-0.93875 -0.3313,-1.20625 -0.6638,-2.43 -0.995,-3.63625 -1.2325,0.3725 -2.52,0.4525 -3.75,0.825 -2.31,0.69625 -1.325,4.30625 0.995,3.605 l 0,0 m 3.4612,-6.39125 c 10e-4,0 0.036,4.1825 0.4838,6.12375 0.5412,2.35625 4.1562,1.2525 3.615,-1.10125 -0.37,-1.61125 -0.3488,-2.5225 -0.3488,-5.0225 0,-2.5 -3.7512,-2.5 -3.75,0 0,0 0,-2.5 0,0 m -11.54,-0.14 c -2.0937,0.52625 -4.1575,1.13875 -6.25,1.66625 0.6075,1.04375 1.215,2.08875 1.8238,3.13375 1.0612,-0.73 2.0337,-1.56375 2.9175,-2.5 1.4275,-1.37 -0.066,-3.50125 -1.8238,-3.13375 -2.8137,0.585 -5.5212,1.495 -8.3337,2.08375 0.48,1.14125 0.9625,2.28375 1.4437,3.42625 2.5725,-1.80125 5.4088,-2.825 8.3013,-3.97875 2.1887,-0.87125 1.3862,-4.29125 -0.995,-3.615 -5.2375,1.485 -10.0975,3.755 -15.0325,6.0225 -1.9238,0.88375 -0.5363,4.19 1.4437,3.42625 6.325,-2.435 12.0638,-5.7825 17.5325,-9.7725 1.705,-1.24375 0.7113,-3.8775 -1.4437,-3.42625 -6.1525,1.285 -11.5063,4.57875 -17.115,7.2725 -1.9325,0.9275 -0.5638,4.04625 1.4437,3.42625 6.3775,-1.9675 11.7575,-5.71125 17.5313,-8.93875 1.985,-1.10875 0.5387,-3.7425 -1.4438,-3.42625 -8.8312,1.405 -15.9537,7.125 -23.7812,11.0225 0.6312,1.07875 1.2612,2.15875 1.8925,3.2375 7.3075,-4.85 14.0375,-10.53125 22.0825,-14.1675 1.9962,-0.90125 0.5462,-3.92625 -1.4438,-3.42625 -8.7275,2.18625 -15.1437,8.7225 -23.3325,12.08375 0.48,1.14125 0.9625,2.28375 1.4438,3.42625 6.4175,-4.45875 13.7075,-7.435 20,-12.08375 1.9012,-1.405 0.2637,-4.4525 -1.8925,-3.2375 -8.025,4.52 -15.8988,9.75875 -24.9688,11.895 0.48,1.14125 0.9625,2.28375 1.4438,3.42625 5.875,-4.1625 11.8475,-8.0975 18.3337,-11.25 2.19,-1.06375 0.2775,-4.22875 -1.8925,-3.2375 -8.9887,4.1075 -16.6462,10.71875 -26.2175,13.56125 0.6075,1.04375 1.215,2.08875 1.8238,3.13375 6.7,-7.11625 15.8412,-10.81 24.2025,-15.54125 1.8325,-1.03625 0.5987,-4.095 -1.4438,-3.42625 -9.67,3.16375 -18.2762,8.57375 -27.5312,12.68875 0.6312,1.07875 1.2612,2.15875 1.8925,3.2375 6.0062,-3.40375 12.0937,-6.62625 18.3325,-9.5825 -0.6313,-1.07875 -1.2613,-2.15875 -1.8925,-3.2375 -5.4988,3.1525 -11.4788,4.9325 -17.4675,6.89375 0.6075,1.04375 1.215,2.08875 1.8237,3.13375 3.7288,-3.1075 7.8138,-5.43125 12.12,-7.62375 1.8738,-0.95375 0.53,-4.23875 -1.4437,-3.42625 -6.5275,2.68375 -12.2313,6.90125 -18.75,9.58375 0.48,1.14125 0.9625,2.28375 1.4437,3.42625 6.015,-3.11125 11.6425,-6.81 17.0838,-10.83375 1.5775,-1.16625 0.7112,-4.21 -1.4438,-3.42625 -4.6762,1.6975 -8.775,4.60875 -13.75,5.41625 0.48,1.14125 0.9625,2.28375 1.4438,3.42625 2.9725,-1.42 5.7612,-2.7575 8.2962,-4.875 1.6025,-1.34 -0.1837,-3.39625 -1.8237,-3.13375 -5.5175,0.88125 -7.69,7.36 -10.705,11.2775 -0.87,1.13 0.31,2.88625 1.6187,2.82125 1.0925,-0.0538 1.5413,-0.12 2.5813,-0.48375 -0.48,-1.14125 -0.9625,-2.28375 -1.4438,-3.42625 -1.1537,0.47125 -2.2637,1.02625 -3.3337,1.66625 -1.3288,0.7325 -1.1913,3.15625 0.4487,3.42625 1.995,0.33 3.8838,0.46625 5.915,0.48375 2.0825,0.0188 2.6013,-3.2475 0.4975,-3.6825 -3.0462,-0.63125 -4.7275,-0.2925 -7.59,1.0225 -0.5837,0.2675 -0.825,1.00875 -0.825,1.61875 0,0.2775 0,0.55625 0,0.83375 0,0.84 0.47,1.57875 1.2738,1.8075 4.3,1.23 8.49,0.89125 12.61,-0.83375 2.1975,-0.91875 1.2075,-4.54875 -1.0225,-3.615 -3.4975,1.4625 -6.9875,1.89 -10.6825,0.83375 0.4587,0.6025 0.9112,1.205 1.37,1.8075 -0.1375,-1.60375 1.1525,-1.55625 3.8737,0.14 0.1663,-1.2275 0.33,-2.455 0.4963,-3.6825 -1.6488,0.0437 -3.2888,-0.0737 -4.92,-0.34875 0.1512,1.14125 0.2987,2.28375 0.4475,3.42625 1.0687,-0.63875 2.18,-1.19375 3.3337,-1.66625 1.9338,-0.88375 0.5513,-4.12375 -1.4437,-3.42625 -0.5288,0.115 -1.0575,0.2325 -1.5863,0.34875 0.54,0.94 1.0788,1.88125 1.6188,2.82125 2.3612,-3.065 4.2637,-8.8825 8.4625,-9.555 -0.6075,-1.04375 -1.215,-2.08875 -1.8238,-3.13375 -2.2837,1.91 -4.8862,3.0225 -7.5362,4.29 -2.0675,0.9875 -0.4925,3.74125 1.4437,3.42625 5.0438,-0.8175 9.0213,-3.69875 13.75,-5.41625 -0.48,-1.14125 -0.9625,-2.28375 -1.4437,-3.42625 -5.4413,4.02375 -11.0675,7.72125 -17.0838,10.83375 -1.865,0.965 -0.5337,4.24 1.4438,3.42625 6.5275,-2.68375 12.2312,-6.90125 18.75,-9.58375 -0.48,-1.14125 -0.9625,-2.28375 -1.4438,-3.42625 -4.5987,2.34 -8.9112,4.9025 -12.88,8.20875 -1.4525,1.21 0.096,3.7 1.8238,3.13375 6.3062,-2.06375 12.5825,-3.95625 18.365,-7.27125 2.1262,-1.21875 0.2625,-4.25875 -1.8925,-3.2375 -6.2388,2.95625 -12.3263,6.17875 -18.3325,9.5825 -2.15,1.2175 -0.2663,4.1975 1.8925,3.2375 8.9562,-3.98125 17.2787,-9.24875 26.6337,-12.31125 -0.48,-1.14125 -0.9625,-2.28375 -1.4437,-3.42625 -8.6513,4.89375 -18.0338,8.76625 -24.9625,16.12625 -1.2525,1.33125 -0.03,3.685 1.8237,3.13375 9.9038,-2.93875 17.8213,-9.69125 27.115,-13.93875 -0.6312,-1.07875 -1.2612,-2.15875 -1.8925,-3.2375 -6.4862,3.1525 -12.46,7.0875 -18.3337,11.25 -1.7075,1.21 -0.7025,3.9325 1.4437,3.42625 9.3913,-2.21125 17.5588,-7.5925 25.8663,-12.2725 -0.6313,-1.07875 -1.2613,-2.15875 -1.8925,-3.2375 -6.2925,4.6475 -13.5825,7.62375 -20,12.08375 -1.6275,1.13 -0.6425,4.28375 1.4437,3.42625 8.15,-3.34375 14.6963,-9.91875 23.3325,-12.08375 -0.48,-1.14125 -0.9625,-2.28375 -1.4437,-3.42625 -8.045,3.635 -14.7763,9.31625 -22.0825,14.1675 -2.02,1.34 -0.2738,4.31625 1.8925,3.2375 7.5337,-3.75 14.3912,-9.2925 22.8837,-10.645 -0.48,-1.14125 -0.9625,-2.28375 -1.4437,-3.42625 -5.48,3.0625 -10.5763,6.69125 -16.6338,8.56125 0.48,1.14125 0.9625,2.28375 1.4438,3.42625 5.3162,-2.5525 10.385,-5.67625 16.2175,-6.895 -0.48,-1.14125 -0.9625,-2.28375 -1.4438,-3.42625 -5.1925,3.7875 -10.62,7.0775 -16.635,9.395 0.48,1.14125 0.9625,2.28375 1.4438,3.42625 4.6325,-2.12875 9.2175,-4.24875 14.135,-5.645 -0.3313,-1.205 -0.6638,-2.41 -0.995,-3.615 -3.2263,1.285 -6.3413,2.355 -9.1988,4.35625 -1.745,1.2225 -0.6862,3.87125 1.4438,3.42625 2.8125,-0.58625 5.5212,-1.49625 8.3337,-2.08375 -0.6075,-1.04375 -1.215,-2.08875 -1.8237,-3.13375 -0.8838,0.93625 -1.8563,1.77 -2.9175,2.5 -1.5725,1.21875 0.155,3.555 1.8237,3.13375 2.0938,-0.52625 4.1588,-1.13875 6.25,-1.66625 2.3438,-0.59 1.3513,-4.20625 -0.995,-3.615 l 0,0 m 1.54,-12.77625 c -0.1137,6.75625 -1.4162,13.3375 -0.35,20.0825 0.3763,2.3825 3.9888,1.3675 3.615,-0.9975 -1.0037,-6.35875 0.3775,-12.7125 0.485,-19.085 0.04,-2.42 -3.71,-2.41625 -3.75,0 l 0,0 m -51.0425,21.66625 c 0,0 35,0 52.5,0 2.5,0 2.5,-3.75 0,-3.75 -17.5,0 -35,0 -52.5,0 -2.5,0 -2.5,3.75 0,3.75 0,0 -2.5,0 0,0 m -1.8075,-19.9175 c 1.1363,5.175 0.4025,10.50875 0.35,15.75125 -0.025,2.42 3.725,2.4175 3.75,0 0.056,-5.60875 0.7313,-11.21125 -0.485,-16.74875 -0.5187,-2.36125 -4.1325,-1.36 -3.615,0.9975 l 0,0 m -6.525,11.37625 c 2.7838,0.0275 5.5488,0.38875 8.3325,0.41625 2.42,0.0238 2.4175,-3.72625 0,-3.75 -2.7837,-0.0275 -5.5487,-0.38875 -8.3325,-0.41625 -2.42,-0.0238 -2.4175,3.72625 0,3.75 l 0,0 m 0.625,7.91625 c 2.905,-0.38375 5.2075,-0.41625 8.9575,-0.41625 2.5,0 2.5,-3.75 0,-3.75 -3.75,0 -5.9475,0.0325 -8.8537,0.41625 -2.3625,0.3125 -2.4963,4.065 -0.1038,3.75 l 0,0 m 60.2075,-0.625 c 0,0 6.25,0 8.75,0 2.5,0 2.5,-3.75 0,-3.75 -2.5,0 -5,0 -8.75,0 -2.5,0 -2.5,3.75 0,3.75 0,0 -2.5,0 0,0 m -64.375,-9.16625 c -0.026,2.67375 -0.25,5.1825 1.09,7.6125 1.1675,2.1175 4.405,0.22625 3.2375,-1.8925 -0.9637,-1.74875 -0.5962,-3.805 -0.5775,-5.72 0.024,-2.42 -3.7262,-2.4175 -3.75,0 l 0,0 m 14.7163,-7.57625 c -0.7938,0.9575 -0.8688,2.3925 0.3287,3.095 0.8413,0.4925 1.84,0.2025 2.715,-0.0225 2.0025,-0.51375 4.1188,-1.4675 6.1988,-1.5375 -0.54,-0.94 -1.0788,-1.88125 -1.6188,-2.82125 -1.64,2.3075 -4.5712,3.75625 -7.2125,4.555 -2.0087,0.60625 -1.6562,3.69875 0.4975,3.6825 1.1963,-0.009 2.0538,-0.2125 2.9938,-0.965 1.8875,-1.51125 -0.7838,-4.1475 -2.6525,-2.6525 0.23,-0.2075 0.115,-0.2525 -0.3413,-0.1325 0.1663,1.2275 0.3325,2.455 0.4975,3.6825 3.6538,-1.10375 7.2138,-3.125 9.455,-6.2775 0.8275,-1.1625 -0.2787,-2.86625 -1.6187,-2.82125 -1.4788,0.05 -2.9413,0.4825 -4.355,0.87375 -0.7663,0.2125 -1.5275,0.435 -2.2913,0.65 -0.34,0.0937 -0.68,0.18375 -1.0225,0.26625 -0.62,0.15 -0.1775,-0.025 0.2,0.0925 0.3738,0.2875 0.7475,0.57375 1.1213,0.86125 -0.01,-0.01 -0.015,-0.0213 -0.021,-0.0325 0.062,0.48125 0.1262,0.9625 0.1887,1.445 -0.1375,0.23625 -0.2737,0.47375 -0.41,0.71125 1.5325,-1.84625 -1.105,-4.51375 -2.6525,-2.6525 l 0,0 m -2.8412,-1.3825 c 16.9437,0.40625 33.895,0.035 50.8337,-0.41625 2.4138,-0.065 2.42,-3.815 0,-3.75 -16.9387,0.45125 -33.89,0.8225 -50.8337,0.41625 -2.42,-0.0575 -2.415,3.6925 0,3.75 l 0,0 m 55,11.6675 c 2.9275,-10e-4 5.8437,-0.0325 8.75,-0.4175 2.3612,-0.3125 2.3912,-4.06625 0,-3.75 -2.9063,0.385 -5.8225,0.41625 -8.75,0.4175 -2.4188,0 -2.4188,3.75 0,3.75 l 0,0 m -35.335,4.9325 c 3.0462,-0.87 6.095,-1.72625 9.1662,-2.5 2.345,-0.59 1.3513,-4.20625 -0.995,-3.615 -3.0725,0.7725 -6.1212,1.62875 -9.1662,2.5 -2.3225,0.6625 -1.3338,4.28125 0.995,3.615 l 0,0 m 26.585,-3.475 c 0,0.2775 0,0 0,1.25 0,2.5 3.75,2.5 3.75,0 0,-1.25 0,-0.9725 0,-1.25 0,-2.41875 -3.75,-2.41875 -3.75,0 l 0,0 m -2.5,-10 0,0 c 2.5,0 2.5,-3.75 0,-3.75 l 0,0 c -2.5,0 -2.5,3.75 0,3.75 0,0 -2.5,0 0,0 m -19.5825,-0.2075 c 0.2737,0 0.545,0.002 0.8175,0.015 0.2387,0.02 0.2575,0.02 0.059,10e-4 0.365,0.0613 0,-0.0513 -0.12,-0.14875 0.7787,0.66125 1.8862,0.765 2.6525,0 0.6787,-0.67875 0.78,-1.99 0,-2.6525 -0.9975,-0.8475 -2.1438,-0.96375 -3.4088,-0.965 -2.4187,-0.002 -2.4187,3.7475 0,3.75 l 0,0 m -1.5912,1.95125 c -0.08,0.0875 -0.175,0.15 -0.2875,0.1875 0.2125,-0.0438 0.2237,-0.0525 0.032,-0.0263 0.335,-0.0387 0.6762,-0.03 1.0125,-0.03 2.4187,-0.002 2.4187,-3.7525 0,-3.75 -1.2663,0.001 -2.4125,0.11875 -3.41,0.96625 -0.7788,0.66375 -0.6788,1.97375 0,2.6525 0.7662,0.765 1.8737,0.66125 2.6525,0 l 0,0"
       style="fill:#000000;fill-opacity:1;fill-rule:nonzero;stroke:none"
       id="path7947" />
  </g>
</svg>
