<?xml version="1.0" encoding="UTF-8" standalone="no"?>
<!-- Created with Inkscape (http://www.inkscape.org/) -->

<svg
   xmlns:dc="http://purl.org/dc/elements/1.1/"
   xmlns:cc="http://creativecommons.org/ns#"
   xmlns:rdf="http://www.w3.org/1999/02/22-rdf-syntax-ns#"
   xmlns:svg="http://www.w3.org/2000/svg"
   xmlns="http://www.w3.org/2000/svg"
   xmlns:sodipodi="http://sodipodi.sourceforge.net/DTD/sodipodi-0.dtd"
   xmlns:inkscape="http://www.inkscape.org/namespaces/inkscape"
   width="42.475063mm"
   height="42.475063mm"
   viewBox="0 0 150.50219 150.50219"
   id="svg10885"
   version="1.1"
   inkscape:version="0.91 r"
   sodipodi:docname="intro_5.svg">
  <defs
     id="defs10887" />
  <sodipodi:namedview
     id="base"
     pagecolor="#ffffff"
     bordercolor="#666666"
     borderopacity="1.0"
     inkscape:pageopacity="0.0"
     inkscape:pageshadow="2"
     inkscape:zoom="0.35"
     inkscape:cx="-299.7489"
     inkscape:cy="-236.17748"
     inkscape:document-units="px"
     inkscape:current-layer="layer1"
     showgrid="false"
     fit-margin-top="0"
     fit-margin-left="4.192095"
     fit-margin-right="4.192095"
     fit-margin-bottom="0"
     inkscape:window-width="1863"
     inkscape:window-height="1056"
     inkscape:window-x="57"
     inkscape:window-y="24"
     inkscape:window-maximized="1" />
  <metadata
     id="metadata10890">
    <rdf:RDF>
      <cc:Work
         rdf:about="">
        <dc:format>image/svg+xml</dc:format>
        <dc:type
           rdf:resource="http://purl.org/dc/dcmitype/StillImage" />
        <dc:title></dc:title>
      </cc:Work>
    </rdf:RDF>
  </metadata>
  <g
     inkscape:label="Layer 1"
     inkscape:groupmode="layer"
     id="layer1"
     transform="translate(-184.74891,-145.68254)">
    <path
       inkscape:connector-curvature="0"
       id="path4422"
       style="fill:#000000;fill-opacity:1;fill-rule:nonzero;stroke:none"
       d="m 269.5271,262.42035 c -5.37875,4.96125 -8.2375,11.84375 -12.1675,17.88 -1.32375,2.0325 1.92375,3.91 3.2375,1.8925 3.75,-5.76 6.4525,-12.38875 11.5825,-17.12 1.78,-1.64375 -0.8775,-4.28875 -2.6525,-2.6525 l 0,0 m 10.7775,8.125 c -2.69,-2.125 -4.18625,-5.37375 -6.875,-7.5 -1.87625,-1.48125 -4.54875,1.1525 -2.6525,2.6525 2.69,2.125 4.18625,5.37375 6.875,7.5 1.87625,1.48125 4.54875,-1.1525 2.6525,-2.6525 l 0,0 m 8.305,-12.1025 c 4.1925,8.02625 6.97375,16.72 11.875,24.375 1.29875,2.03 4.54625,0.15125 3.2375,-1.8925 -4.9,-7.65625 -7.6825,-16.35 -11.875,-24.375 -1.12,-2.145 -4.35625,-0.2475 -3.2375,1.8925 l 0,0 m -2.5,-1.8925 c -4.76,7.385 -10.21125,14.4075 -13.75,22.5 -0.95875,2.1925 2.27125,4.10375 3.2375,1.8925 3.53875,-8.09375 8.99125,-15.115 13.75,-22.5 1.315,-2.03875 -1.9325,-3.9175 -3.2375,-1.8925 l 0,0 m -27.75625,29.07125 c 14.385,0.0662 28.755,1.115 43.125,0 2.395,-0.185 2.4125,-3.93625 0,-3.75 -14.37,1.115 -28.74,0.0662 -43.125,0 -2.41875,-0.0113 -2.4175,3.73875 0,3.75 l 0,0 M 237.0271,271.8741 c -3.535,2.8625 -4.3,7.44125 -1.3275,10.99375 3.0075,3.595 8.7125,3.1425 12.105,0.43875 3.425,-2.7275 3.46125,-7.01 0.8525,-10.29625 -2.70625,-3.4075 -7.7975,-3.86125 -11.25,-1.42875 -1.96,1.38 -0.09,4.63375 1.8925,3.23625 1.905,-1.34125 4.14375,-1.44875 5.9825,0.10125 1.6725,1.40875 2.115,3.55 0.52875,5.17875 -1.875,1.925 -5.2375,2.2325 -7.2175,0.375 -2.07625,-1.94875 -0.75125,-4.46 1.08625,-5.9475 1.87875,-1.5225 -0.79125,-4.15875 -2.6525,-2.65125 l 0,0 m 0,-18.20375 c -3.3725,2.91875 -4.4525,7.805 -1.445,11.4125 3.09375,3.71375 8.65625,3.655 12.2225,0.615 7.7,-6.56375 -2.55,-18.20625 -10.3975,-12.32 -1.91,1.4325 -0.0438,4.69 1.8925,3.2375 2.08125,-1.56125 4.355,-1.48 6.22625,0.37 1.725,1.70375 1.68625,4.1025 -0.015,5.755 -1.99375,1.935 -5.15625,1.975 -7.0375,-0.0213 -1.9625,-2.0825 -0.60625,-4.82875 1.20625,-6.39625 1.83125,-1.58625 -0.8325,-4.22625 -2.6525,-2.6525 l 0,0 m -20.87,17.2075 c -3.8125,2.4225 -6.41625,7.02 -4.2625,11.4125 2.2575,4.6025 9.31,4.0175 12.94375,1.735 3.47625,-2.18375 3.99875,-6.75875 1.6025,-9.94 -2.81125,-3.735 -7.61125,-4.0675 -11.53375,-1.9575 -2.13,1.14625 -0.23625,4.38375 1.8925,3.2375 2.24,-1.205 4.6725,-1.19375 6.47625,0.73 1.315,1.40125 1.24625,3.5525 -0.33,4.69125 -2.00125,1.445 -6.33625,2.08875 -7.8125,-0.38875 -1.38,-2.3125 1.1375,-5.1525 2.91625,-6.2825 2.035,-1.29125 0.155,-4.53875 -1.8925,-3.2375 l 0,0 m 0,-17.5 c -3.8125,2.4225 -6.41625,7.02 -4.2625,11.4125 2.2575,4.6025 9.31,4.0175 12.94375,1.735 3.47625,-2.18375 3.99875,-6.75875 1.6025,-9.94 -2.81125,-3.735 -7.61125,-4.0675 -11.53375,-1.9575 -2.13,1.14625 -0.23625,4.38375 1.8925,3.2375 2.24,-1.205 4.6725,-1.19375 6.47625,0.73 1.315,1.40125 1.24625,3.5525 -0.33,4.69125 -2.00125,1.445 -6.33625,2.08875 -7.8125,-0.38875 -1.38,-2.3125 1.1375,-5.1525 2.91625,-6.2825 2.035,-1.29125 0.155,-4.53875 -1.8925,-3.2375 l 0,0 m 0.94625,-5.88125 c 26.6675,-0.0175 53.3325,-0.6075 80,-0.625 2.41875,-0.001 2.41875,-3.75125 0,-3.75 -26.6675,0.0175 -53.3325,0.6075 -80,0.625 -2.41875,10e-4 -2.41875,3.75125 0,3.75 l 0,0 m 0,-12.5 c 26.6675,-0.0175 53.3325,-0.6075 80,-0.625 2.41875,-0.001 2.41875,-3.75125 0,-3.75 -26.6675,0.0175 -53.3325,0.6075 -80,0.625 -2.41875,10e-4 -2.41875,3.75125 0,3.75 l 0,0 m -1.25,-11.875 c 0,0 52.81625,-0.02 79.0625,-0.625 2.415,-0.0563 2.26375,-3.80625 -0.15625,-3.75 -26.24625,0.605 -51.40625,0.625 -78.90625,0.625 -1.25,0 -1.25,3.75 0,3.75 0,0 -1.25,0 0,0 m 0,-11.875 c 10.6275,0.0362 21.2475,0.585 31.875,0.625 2.41875,0.009 2.4175,-3.74125 0,-3.75 -10.6275,-0.04 -21.2475,-0.58875 -31.875,-0.625 -2.41875,-0.009 -2.4175,3.74125 0,3.75 l 0,0 m -1.25,-11.25 c 0,0 21.25,0 31.25,0 2.5,0 2.5,-3.75 0,-3.75 -10,0 -20,0 -31.25,0 -1.25,0 -1.25,3.75 0,3.75 0,0 -1.25,0 0,0 m 1.25,-11.875 c 10.4175,0.525 20.8275,0.0437 31.25,0 2.4175,-0.01 2.41875,-3.76 0,-3.75 -10.4225,0.0437 -20.8325,0.525 -31.25,0 -2.41875,-0.1225 -2.40625,3.62875 0,3.75 l 0,0 m 86.25,-26.25 c -0.0387,3.96875 -0.58,7.9075 -0.625,11.875 -0.0275,2.42 3.7225,2.4175 3.75,0 0.045,-3.9675 0.58625,-7.90625 0.625,-11.875 0.0238,-2.42 -3.72625,-2.4175 -3.75,0 l 0,0 m -86.25,1.875 c 28.95875,0 57.5,0 86.25,0 2.5,0 2.5,-3.75 0,-3.75 -28.75,0 -57.29125,0 -86.25,0 -2.41875,0 -2.41875,3.75 0,3.75 l 0,0 m 0,12.5 c 0,0 57.70875,0 86.25,0 2.41875,0 2.41875,-3.75 0,-3.75 -28.54125,0 -57.5,0 -86.25,0 -1.25,0 -1.25,3.75 0,3.75 0,0 -1.25,0 0,0 m -3.125,-15 c 0.0725,3.54125 1.26625,7.21625 0.6925,10.7525 -0.385,2.36375 3.22875,3.37875 3.615,0.995 0.6425,-3.94875 -0.47625,-7.80375 -0.5575,-11.7475 -0.05,-2.415 -3.8,-2.42 -3.75,0 l 0,0 m 102.5,-12.18745 c 2.08375,47.66625 1.26,94.6875 1.25,143.4375 0,1.25 3.75,1.25 3.75,0 0.01,-48.75 0.83375,-95.615 -1.25,-143.28125 -0.105,-2.40875 -3.855,-2.575 -3.75,-0.15625 l 0,0 M 203.04086,294.9966 c 37.29249,0.0137 75.31249,0.61125 111.56249,0.625 2.5,10e-4 2.5,-3.74875 0,-3.75 -36.25,-0.0138 -73.9575,-0.61125 -111.24999,-0.625 -2.41875,-10e-4 -2.41875,3.74875 0,3.75 l -0.3125,0 m 0.3125,-145 c 0,0.0225 74.52624,1.60625 111.56249,0 2.40875,-0.105 2.2625,-3.855 -0.15625,-3.75 -37.03625,1.60625 -73.90625,0.0225 -111.40624,0 -1.25,-0.001 -1.25,3.74875 0,3.75 0,0 -1.25,0 0,0 m -3.75,-2.5 c 0.0375,48.9875 1.10375,97.89125 0,146.875 -0.0538,2.42 3.69625,2.415 3.75,0 1.10375,-48.98375 0.0375,-97.8875 0,-146.875 -0.001,-2.41875 -3.75125,-2.41875 -3.75,0 l 0,0" />
  </g>
</svg>
