<?xml version="1.0" encoding="UTF-8" standalone="no"?>
<!-- Created with Inkscape (http://www.inkscape.org/) -->

<svg
   xmlns:dc="http://purl.org/dc/elements/1.1/"
   xmlns:cc="http://creativecommons.org/ns#"
   xmlns:rdf="http://www.w3.org/1999/02/22-rdf-syntax-ns#"
   xmlns:svg="http://www.w3.org/2000/svg"
   xmlns="http://www.w3.org/2000/svg"
   xmlns:sodipodi="http://sodipodi.sourceforge.net/DTD/sodipodi-0.dtd"
   xmlns:inkscape="http://www.inkscape.org/namespaces/inkscape"
   width="59.332935mm"
   height="59.332939mm"
   viewBox="0 0 210.2348 210.23482"
   id="svg9141"
   version="1.1"
   inkscape:version="0.91 r"
   sodipodi:docname="intro_6.svg">
  <defs
     id="defs9143" />
  <sodipodi:namedview
     id="base"
     pagecolor="#ffffff"
     bordercolor="#666666"
     borderopacity="1.0"
     inkscape:pageopacity="0.0"
     inkscape:pageshadow="2"
     inkscape:zoom="0.35"
     inkscape:cx="-621.31122"
     inkscape:cy="199.4031"
     inkscape:document-units="px"
     inkscape:current-layer="layer1"
     showgrid="false"
     fit-margin-top="0"
     fit-margin-left="1.982605"
     fit-margin-right="1.982605"
     fit-margin-bottom="0"
     inkscape:window-width="1863"
     inkscape:window-height="1056"
     inkscape:window-x="57"
     inkscape:window-y="24"
     inkscape:window-maximized="1" />
  <metadata
     id="metadata9146">
    <rdf:RDF>
      <cc:Work
         rdf:about="">
        <dc:format>image/svg+xml</dc:format>
        <dc:type
           rdf:resource="http://purl.org/dc/dcmitype/StillImage" />
        <dc:title></dc:title>
      </cc:Work>
    </rdf:RDF>
  </metadata>
  <g
     inkscape:label="Layer 1"
     inkscape:groupmode="layer"
     id="layer1"
     transform="translate(-506.31122,-521.53047)">
    <path
       id="path1932"
       style="fill:#000000;fill-opacity:1;fill-rule:nonzero;stroke:none"
       d="m 589.72974,608.41492 c 0,0 0,5.975 0,8.75 0,2.4125 3.75,2.4125 3.75,0 0,-2.775 0,-5 0,-8.75 0,-2.5 -3.75,-2.5 -3.75,0 0,0 0,-2.5 0,0 m -15.41625,2.7125 c 5.13,-0.125 10.42875,0.125 15.53125,-0.425 2.38625,-0.25 2.44,-3.5625 0,-3.75 -0.0375,0 -0.0775,0 -0.115,0 -2.42,-0.0125 -2.47375,3.7375 -0.0575,3.75 0.0375,0 0.0575,0 0.0575,0 0,-1.25 0,-2.5 0,-3.75 -5,0.55 -10.3425,0.3 -15.47375,0.425 -2.41375,0.05 -2.3625,3.8 0.0575,3.75 l 0,0 m -1.7475,8.2625 c 5.66375,1.2375 11.425,0.5375 17.16375,0.4875 2.4175,-0.025 2.42,-3.775 0,-3.75 -5.37125,0.05 -10.8675,0.8125 -16.16875,-0.35 -2.355,-0.525 -3.3575,3.0875 -0.995,3.6125 l 0,0 m 2.9975,-23.68375 c 6.1175,-0.025 12.22,-0.335 18.33375,0 -0.625,-0.625 -1.25,-1.25 -1.875,-1.875 -0.2725,2.0825 -0.145,4.1675 -0.4175,6.25 -0.31375,2.39625 3.44125,2.35875 3.75,0 0.2725,-2.0825 0.145,-4.1675 0.4175,-6.25 0.1375,-1.05375 -0.96,-1.825 -1.875,-1.875 -6.11375,-0.335 -12.21625,-0.025 -18.33375,0 -2.41875,0.01 -2.41875,3.76 0,3.75 l 0,0 m -4.3075,-0.96 c 0.63875,2.315 0.34875,4.6325 0.34875,7.00625 0,1.0375 0.85375,1.8375 1.875,1.875 6.38625,0.175 12.77875,0.3875 19.1675,0.4125 2.41875,0.0125 2.41875,-3.7425 0,-3.75 -6.38875,-0.02 -12.78125,-0.23875 -19.1675,-0.41625 0.625,0.625 1.25,1.25375 1.875,1.87875 0,-2.745 0.2575,-5.3275 -0.48375,-8.00125 -0.64375,-2.32875 -4.2625,-1.33875 -3.615,0.995 l 0,0 m 2.22375,-17.58125 c 0,0 13.4725,0 20,0 -0.625,-1.25 -1.25,-1.355 -1.875,-1.98 -0.3575,3.60875 -0.41375,6.98 -0.41625,10.73 -10e-4,2.5 3.74875,2.5 3.75,0 0.003,-3.75 0.0588,-7.12125 0.41625,-10.73 0.10125,-1.0175 -0.92875,-1.77 -1.875,-1.77 -6.5275,0 -12.5,0 -20,0 -2.5,0 -2.5,3.75 0,3.75 0,0 -2.5,0 0,0 m -0.8325,10.625 c 6.8075,0.0263 13.60875,0.3875 20.41625,0.41625 2.41875,0.01 2.41875,-3.74 0,-3.75 -6.8075,-0.0288 -13.60875,-0.39 -20.41625,-0.41625 -2.41875,-0.01 -2.41875,3.74 0,3.75 l 0,0 m -2.9175,-11.875 c 0,0 0,5.97125 0,8.75 0,2.41875 3.75,2.41875 3.75,0 0,-2.77875 0,-5 0,-8.75 0,-2.5 -3.75,-2.5 -3.75,0 0,0 0,-2.5 0,0 m -27.64,18.41375 c 1.08125,5.2075 0.79125,10.47375 0.765,15.74875 -0.0125,2.425 3.7375,2.425 3.75,0 0.0288,-5.625 0.25375,-11.19625 -0.9,-16.74375 -0.49125,-2.3675 -4.10625,-1.36375 -3.615,0.995 l 0,0 m 0.8925,-0.6375 c -4.2825,0.945 -8.14625,2.98 -12.115,4.77125 -2.2025,0.9925 -0.2925,4.2275 1.8925,3.24 3.6825,-1.6625 7.24625,-3.52 11.2175,-4.39625 2.36125,-0.52125 1.36,-4.135 -0.995,-3.615 l 0,0 m 3.13875,-0.3575 c -1.27375,-4.125 -2.9725,-8.08375 -4.58375,-12.0825 -0.89125,-2.215 -4.52,-1.24875 -3.615,0.995 1.61,4.00125 3.30875,7.96 4.58375,12.0825 0.71125,2.30375 4.3325,1.32125 3.615,-0.995 l 0,0 m -1.92,2.53375 c 5.485,3.07 10.02625,7.46 15,11.2475 1.92375,1.475 3.78875,-1.7875 1.8925,-3.2375 -4.98,-3.7925 -9.505,-8.1725 -15,-11.2475 -2.1125,-1.1825 -4.0025,2.0575 -1.8925,3.2375 l 0,0 m 2.68875,0.12375 c 3.33375,-3.05625 6.66625,-6.11125 10,-9.16625 1.785,-1.6375 -0.87375,-4.2825 -2.6525,-2.6525 -3.33375,3.05625 -6.66625,6.11125 -10,9.16625 -1.785,1.6375 0.87375,4.2825 2.6525,2.6525 l 0,0 m -0.0762,-20.70125 c -11.56875,-0.285 -20.605,10.165 -19.6825,21.545 0.945,11.6675 9.325,19.0925 20.87375,18.305 23.5575,-1.5875 22.805,-39.13375 -0.3575,-39.43375 -2.42,-0.0312 -2.41625,3.71875 0,3.75 8.71875,0.11375 13.425,7.42 14.21875,15.435 0.895,9.06125 -5.235,15.46125 -13.86125,16.49875 -21.85875,2.65 -22.58875,-32.87625 -1.19125,-32.35 2.42,0.06 2.41375,-3.69 0,-3.75 l 0,0 m 120.36875,-0.5125 c 2.3625,-4.72125 4.7225,-9.44375 7.08375,-14.16625 -0.98125,0.12625 -1.9625,0.2525 -2.945,0.38 2.91625,2.91625 5.83375,5.83375 8.75,8.75 1.0675,1.06625 2.6525,0.45875 3.13375,-0.82875 2.5,-6.66625 5,-13.3325 7.5,-20 0.85125,-2.2675 -2.77375,-3.2375 -3.615,-0.995 -2.5,6.66625 -5,13.3325 -7.5,20 1.045,-0.27625 2.08875,-0.5525 3.13375,-0.82875 -2.91625,-2.91625 -5.83375,-5.83375 -8.75,-8.75 -0.81375,-0.8125 -2.39875,-0.7125 -2.945,0.38 -2.3625,4.7225 -4.7225,9.44375 -7.08375,14.16625 -1.0775,2.15625 2.15625,4.055 3.2375,1.8925 l 0,0 m -10.16,-30.1125 c -0.0263,11.8625 -1.1325,24.12625 0.48375,35.91375 0.0775,0.56875 0.745,1.2275 1.31,1.31 10.445,1.5425 21.64125,0.4125 32.16375,0.0675 2.4125,-0.0788 2.42,-3.82875 0,-3.75 -8.6675,0.285 -17.35125,0.5025 -26.02125,0.34875 -0.98625,-0.0163 -1.97375,-0.0563 -2.95875,-0.1 -1.4625,-0.0662 -1.0125,-0.0438 -1.0375,-0.2725 -0.33625,-3.28625 -0.315,-6.625 -0.3475,-9.92625 -0.0788,-7.86375 0.14,-15.7275 0.1575,-23.59125 0.005,-2.41875 -3.745,-2.41875 -3.75,0 l 0,0 m -38.20625,56.8125 c 8.94,2.2125 18.73,1.55 27.66125,-0.425 2.3625,-0.51625 1.36,-4.13 -0.995,-3.61125 -8.23625,1.8125 -17.4225,2.46375 -25.67125,0.41625 -2.34625,-0.58375 -3.34125,3.0325 -0.995,3.62 l 0,0 m 1.53875,-4.3125 c 0.004,0 -0.0188,-29.41875 13.36,-30.87875 15.055,-1.64125 13.35625,22.445 13.3075,31.81625 -0.0125,2.41875 3.7375,2.3675 3.75,-0.0513 0.0662,-12.5725 1.04625,-35.925 -17.0575,-35.48875 -16.1725,0.3925 -17.10625,22.1025 -17.11,34.6025 -10e-4,2.5 3.74875,2.5 3.75,0 0,0 0,2.5 0,0 m 8.0125,-51.2025 c -5.24875,3.26 -5.92875,9.71625 -2.645,14.69625 3.83875,5.82375 10.76125,5.4325 15.55,1.0925 4.565,-4.1375 4.215,-11.05125 0.135,-15.32375 -4.83875,-5.065 -12,-2.9575 -16.33625,1.495 -1.68625,1.7325 0.9625,4.38625 2.6525,2.6525 2.8875,-2.96625 7.0675,-4.83375 10.655,-1.8475 2.8625,2.38125 3.18125,6.29875 1.2,9.30375 -2.47125,3.745 -7.2075,4.46875 -10.23875,1.21375 -2.77375,-2.97875 -2.61375,-7.84875 0.92,-10.045 2.04875,-1.27375 0.16875,-4.5175 -1.8925,-3.2375 l 0,0 m -47.0475,82.94 c 6.70625,7.6875 12.22375,16.275 18.04,24.625 1.37125,1.975 4.6225,0.1 3.2375,-1.8875 -6,-8.625 -11.70875,-17.45 -18.625,-25.3875 -1.5925,-1.825 -4.23375,0.8375 -2.6525,2.65 l 0,0 m -66.17375,-0.275 c 21.64125,1.0125 43.33375,1.6375 65,1.6625 2.41875,0 2.41875,-3.75 0,-3.75 -21.66625,-0.025 -43.35875,-0.65 -65,-1.6625 -2.41875,-0.1125 -2.4075,3.6375 0,3.75 l 0,0 m 0.2075,-67.295 c 0.77375,20.85 -0.7725,41.6825 -1.66625,62.495 -0.10375,2.425 3.64625,2.4125 3.75,0 0.89375,-20.8125 2.44,-41.645 1.66625,-62.495 -0.0888,-2.41125 -3.84,-2.42 -3.75,0 l 0,0 m 2.70875,1.4575 c 26.8075,0.0225 53.60875,0.81125 80.41625,0.83375 2.41875,0.003 2.41875,-3.7475 0,-3.75 -26.8075,-0.0225 -53.60875,-0.81125 -80.41625,-0.83375 -2.41875,-0.003 -2.41875,3.7475 0,3.75 l 0,0 m 109.47,46.5125 c -10.64,6.5625 -20.295,15.25 -28.7125,24.45 -1.6275,1.7875 1.01625,4.45 2.6525,2.65 8.21,-8.975 17.58,-17.4625 27.9525,-23.875 2.0525,-1.2625 0.17125,-4.5 -1.8925,-3.225 l 0,0 m 0.94625,4.325 c 24.7275,-0.0375 49.44,-1.2125 74.1675,-1.25 2.41875,-0.0125 2.41875,-3.7625 0,-3.75 -24.7275,0.0375 -49.44,1.2125 -74.1675,1.25 -2.41875,0 -2.41875,3.75 0,3.75 l 0,0 m 77.2925,-88.545 c -0.0863,28.50625 -3.2475,56.91 -3.33375,85.42 -0.007,2.4125 3.7425,2.4125 3.75,0 0.0863,-28.51 3.2475,-56.91375 3.33375,-85.42 0.007,-2.41875 -3.7425,-2.41875 -3.75,0 l 0,0 m -103.125,0.2075 c 34.66,3.18 69.43125,1.29625 104.16625,1.25 2.41875,-0.004 2.41875,-3.75375 0,-3.75 -34.735,0.0462 -69.50625,1.93 -104.16625,-1.25 -2.40875,-0.22125 -2.3875,3.53125 0,3.75 l 0,0 m -0.625,128.125 c 0.0462,-42.7875 2.45375,-85.54125 2.5,-128.3325 0.003,-2.41875 -3.7475,-2.41875 -3.75,0 -0.0462,42.79125 -2.45375,85.545 -2.5,128.3325 -0.002,2.4125 3.7475,2.4125 3.75,0 l 0,0 m 2.21,28.475 c 31.8225,6.025 65.13875,6.025 96.82875,-0.8375 2.36375,-0.5 1.36125,-4.125 -0.995,-3.6125 -30.99,6.7 -63.715,6.725 -94.83875,0.8375 -2.36125,-0.45 -3.37,3.1625 -0.995,3.6125 l 0,0 m 84.2,33.07475 c -7.395,-11.44963 -20.34,-13.61225 -33.0125,-14.375 -14.555,-0.88713 -30.0675,3.15 -38.55875,16.05037 -1.33375,2.02488 1.91375,3.89988 3.2375,1.88713 7.76875,-11.79975 22.15375,-14.96238 35.32125,-14.1875 11.22125,0.66262 23.165,2.2755 29.775,12.525 1.30625,2.02537 4.55375,0.13762 3.2375,-1.9 l 0,0 m -72.40375,-68.93725 c 7.80875,11.4625 26.29625,12.925 38.80625,13.0125 11.71625,0.0875 31.1025,-1.55 36.93125,-13.85 1.03,-2.1625 -2.2025,-4.075 -3.2375,-1.8875 -5.2325,11.0375 -23.32,11.9125 -33.69375,11.9875 -10.82375,0.0875 -28.74375,-1.1375 -35.56875,-11.15 -1.3525,-1.9875 -4.60375,-0.1125 -3.2375,1.8875 l 0,0 m 38.1725,-13.075 c 30.0925,21.1 29.22,69.23737 -0.4175,90.51225 -1.945,1.4005 -0.0762,4.65 1.8925,3.23787 32.0075,-22.97512 32.92625,-74.20012 0.4175,-96.98762 -1.985,-1.3875 -3.85625,1.8625 -1.8925,3.2375 l 0,0 m -4.135,-6.1375 c -18.0925,7.05 -24.975,32.7125 -28.0025,49.8375 -3.28875,18.61262 4.01375,44.03737 22.585,52.12475 2.1925,0.963 4.10375,-2.26213 1.89125,-3.225 -17.64875,-7.69975 -23.7375,-31.61238 -20.6425,-49.12475 2.685,-15.2 9.09,-39.7375 25.16375,-46 2.22875,-0.8625 1.26,-4.5 -0.995,-3.6125 l 0,0 m -0.1275,4.9375 c -0.06,31.675 -2.46375,63.31237 -1.66625,94.99987 0.0613,2.41263 3.81125,2.41263 3.75,0 -0.7975,-31.6875 1.60625,-63.32487 1.66625,-94.99987 0.005,-2.425 -3.745,-2.425 -3.75,0 l 0,0 m 26.535,0.3375 c -7.54125,-6.8375 -20.38875,-6.525 -29.7925,-5.5375 -12.66375,1.325 -24.25375,6.275 -32.6725,15.9625 -15.92375,18.3125 -19.20375,45.9625 -6.1875,66.57475 19.48125,30.8375 66.84,29.30037 87.6025,0.98787 8.30625,-11.33787 10.62875,-25.86262 9.515,-39.57512 -0.58,-7.15 -5.14625,-14.175 -9.01,-19.95 -4.02125,-6.0125 -9.08625,-12.5125 -15.66875,-15.8375 -2.1525,-1.0875 -4.05125,2.15 -1.8925,3.2375 10.555,5.3375 19.6325,19.8625 22.5525,31.05 2.7425,10.4875 -0.41,23.975 -5.19125,33.4125 -8.72,17.21237 -27.69875,26.33737 -46.50375,25.75 -20.0675,-0.61225 -37.16125,-13.48775 -43.6125,-32.38775 -4.87625,-14.28725 -1.48875,-29.73725 5.60625,-42.67475 7.85375,-14.325 21.24125,-21.3125 37.12,-22.975 7.785,-0.8125 19.25875,-1.0375 25.4825,4.6125 1.78625,1.625 4.44625,-1.025 2.6525,-2.65 l 0,0 m -105.4925,-22.425 c 0,0 0,4.8625 0,7.5 0,2.4125 3.75,2.4125 3.75,0 0,-2.6375 0,-5 0,-7.5 0,-2.5 -3.75,-2.5 -3.75,0 0,0 0,-2.5 0,0"
       inkscape:connector-curvature="0" />
  </g>
</svg>
