<?xml version="1.0" encoding="UTF-8" standalone="no"?>
<!-- Created with Inkscape (http://www.inkscape.org/) -->

<svg
   xmlns:dc="http://purl.org/dc/elements/1.1/"
   xmlns:cc="http://creativecommons.org/ns#"
   xmlns:rdf="http://www.w3.org/1999/02/22-rdf-syntax-ns#"
   xmlns:svg="http://www.w3.org/2000/svg"
   xmlns="http://www.w3.org/2000/svg"
   xmlns:sodipodi="http://sodipodi.sourceforge.net/DTD/sodipodi-0.dtd"
   xmlns:inkscape="http://www.inkscape.org/namespaces/inkscape"
   width="46.412235mm"
   height="46.412239mm"
   viewBox="0 0 164.45279 164.4528"
   id="svg6763"
   version="1.1"
   inkscape:version="0.91 r"
   sodipodi:docname="intro_2.svg">
  <defs
     id="defs6765" />
  <sodipodi:namedview
     id="base"
     pagecolor="#ffffff"
     bordercolor="#666666"
     borderopacity="1.0"
     inkscape:pageopacity="0.0"
     inkscape:pageshadow="2"
     inkscape:zoom="0.35"
     inkscape:cx="-264.20216"
     inkscape:cy="233.65499"
     inkscape:document-units="px"
     inkscape:current-layer="layer1"
     showgrid="false"
     fit-margin-top="3.62611"
     fit-margin-left="0"
     fit-margin-right="0"
     fit-margin-bottom="3.62611"
     inkscape:window-width="1370"
     inkscape:window-height="759"
     inkscape:window-x="504"
     inkscape:window-y="197"
     inkscape:window-maximized="0" />
  <metadata
     id="metadata6768">
    <rdf:RDF>
      <cc:Work
         rdf:about="">
        <dc:format>image/svg+xml</dc:format>
        <dc:type
           rdf:resource="http://purl.org/dc/dcmitype/StillImage" />
        <dc:title></dc:title>
      </cc:Work>
    </rdf:RDF>
  </metadata>
  <g
     inkscape:label="Layer 1"
     inkscape:groupmode="layer"
     id="layer1"
     transform="translate(-149.20217,-601.56437)">
    <path
       inkscape:connector-curvature="0"
       d="m 189.30158,648.86114 c -3.12625,0.59375 -5.36875,2.945 -5.49875,6.15875 -0.1125,2.7475 1.7475,5.4025 4.39625,6.13 3.53625,0.97 7.3275,-1.8625 8.37625,-5.1225 1.4025,-4.36 -3.04125,-7.1375 -6.775,-7.23375 -2.42,-0.0625 -2.41375,3.6875 0,3.75 1.68375,0.0438 3.71,0.77375 3.0625,2.78625 -0.50625,1.57125 -2.7075,2.54875 -4.09125,2.0725 -0.84375,-0.29 -1.25,-1.615 -1.21,-2.60375 0.0525,-1.29375 1.3475,-2.0575 2.7375,-2.3225 2.37375,-0.45125 1.36625,-4.065 -0.9975,-3.615 l 0,0 m -22.5,9.865 c 4.66,1.44375 7.74125,4.6575 11.7125,7.24125 3.83625,2.495 8.86375,3.07875 13.3125,2.71625 10.89,-0.8875 17.5475,-12.40125 28.59875,-12.39 2.41875,0.003 2.41875,-3.7475 0,-3.75 -9.3775,-0.01 -15.7225,6.96875 -23.6525,10.88875 -12.17625,6.01625 -18.725,-5.14625 -28.97375,-8.32125 -2.31625,-0.71875 -3.3,2.9025 -0.9975,3.615 l 0,0 m 1.2,-1.10625 c 7.14625,-8.34 14.25875,-13.0025 25.6425,-12.4625 10.29875,0.48625 16.08875,10.7575 26.15625,10.51125 2.41375,-0.0588 2.42,-3.81 0,-3.75 -6.27375,0.15375 -10.08,-4.86 -15.24,-7.57125 -4.62375,-2.42875 -9.6225,-2.9875 -14.76,-3.05375 -10.45125,-0.13375 -18.04,6.19375 -24.45125,13.67375 -1.56375,1.825 1.07625,4.49125 2.6525,2.6525 l 0,0 m 68.75,29.37375 c 0.39875,-0.425 0.73875,-0.9 1.065,-1.375 0.1475,-0.225 0.2925,-0.45 0.44125,-0.6625 0.0712,-0.1 0.145,-0.2125 0.22,-0.3125 -0.2025,0.2875 0.125,-0.125 0.14875,-0.15 0.70125,-0.7375 0.73625,-1.9125 0,-2.65 -0.7075,-0.7125 -1.95,-0.7375 -2.6525,0 -0.39875,0.425 -0.73875,0.9 -1.065,1.375 -0.1475,0.225 -0.2925,0.45 -0.44125,0.6625 -0.0712,0.1 -0.145,0.2125 -0.22,0.3125 0.2025,-0.2875 -0.125,0.125 -0.14875,0.15 -0.70125,0.7375 -0.73625,1.9125 0,2.65 0.7075,0.7125 1.95,0.7375 2.6525,0 l 0,0 m 6.875,10.625 c 1.13875,-1.175 1.985,-2.575 3.125,-3.75 1.68625,-1.7375 -0.9625,-4.3875 -2.6525,-2.65 -1.13875,1.175 -1.985,2.575 -3.125,3.75 -1.68625,1.7375 0.9625,4.3875 2.6525,2.65 l 0,0 m 9.6675,7.125 c 0.625,-1.25 1.25,-2.5 1.875,-3.75 0.4575,-0.9125 0.25125,-2.025 -0.6725,-2.5625 -0.8375,-0.5 -2.10875,-0.25 -2.565,0.6625 -0.625,1.25 -1.25,2.5 -1.875,3.75 -0.4575,0.9125 -0.25125,2.025 0.6725,2.5625 0.8375,0.5 2.10875,0.25 2.565,-0.6625 l 0,0 m 5.9575,9.75 c 0.37375,-0.4 0.6775,-0.825 0.89,-1.325 0.125,-0.3 0.245,-0.5875 0.35875,-0.8875 0.14125,-0.3625 0.0975,-0.2625 0.29375,-0.6625 0.44625,-0.925 0.25875,-2.025 -0.6725,-2.5625 -0.83,-0.4875 -2.11875,-0.25 -2.565,0.6625 -0.2725,0.5625 -0.50875,1.1375 -0.73,1.725 -0.0825,0.2 -0.075,0.1875 0.0213,-0.0375 -0.0375,0.0875 -0.0775,0.1625 -0.12,0.25 -0.0438,0.075 -0.0913,0.1625 -0.1425,0.2375 0.15375,-0.2 0.15875,-0.2125 0.0138,-0.05 -0.7,0.7375 -0.7375,1.9125 0,2.65 0.70625,0.7125 1.95125,0.75 2.6525,0 l 0,0 m 4.375,9.375 c 1.25,-1.25 2.5,-2.5 3.75,-3.75 1.71125,-1.7125 -0.94,-4.3625 -2.6525,-2.65 -1.25,1.25 -2.5,2.5 -3.75,3.75 -1.71125,1.7125 0.94,4.3625 2.6525,2.65 l 0,0 m 5.625,6.25 c 1.25375,-1.25 2.52375,-2.4625 3.995,-3.4625 0.845,-0.5625 1.215,-1.6375 0.6725,-2.5625 -0.49,-0.8375 -1.7175,-1.2375 -2.565,-0.6625 -1.73875,1.175 -3.2725,2.55 -4.755,4.0375 -1.71125,1.7125 0.94,4.3625 2.6525,2.65 l 0,0 m 27.12,-32.8375 c 5.79875,-3.925 11.12,-8.475 16.63,-12.7875 1.9025,-1.4875 -0.77125,-4.125 -2.6525,-2.65 -5.2575,4.1125 -10.33625,8.4625 -15.87,12.2125 -1.99,1.3375 -0.11625,4.5875 1.8925,3.225 l 0,0 m -6.445,-4.675 c -4.5425,0.675 -7.60625,5.4875 -5.6725,9.825 1.7725,3.9625 7.1525,5.2625 10.775,3.0875 2.83375,-1.7 3.96125,-5.55 2.87,-8.6 -1.40875,-3.9375 -5.57875,-4.7375 -9.2225,-3.6875 -2.3175,0.675 -1.33,4.3 0.9975,3.625 1.50875,-0.4375 3.84,-0.7625 4.60875,1.0625 0.6025,1.425 0.235,3.0625 -0.8625,4.1375 -1.51625,1.4875 -4.52125,0.7875 -5.595,-0.85 -1.57125,-2.3875 0.865,-4.65 3.09875,-4.975 2.385,-0.3625 1.3675,-3.975 -0.9975,-3.625 l 0,0 m -12.9475,-1.575 c 2.10125,1.6 3.9825,3.4875 5.5775,5.5875 0.61625,0.8125 1.60375,1.2375 2.565,0.6625 0.8025,-0.4625 1.2925,-1.7375 0.6725,-2.5625 -2.0125,-2.65 -4.26875,-4.9 -6.9225,-6.9125 -0.81625,-0.625 -2.095,-0.1375 -2.565,0.6625 -0.56375,0.9625 -0.14,1.95 0.6725,2.5625 l 0,0 m -11.005,-10.4375 c -3.2625,3.3125 -3.105,8.3625 1.1725,10.725 3.60625,2 8.83625,0.1625 10.795,-3.375 1.76125,-3.175 -0.10125,-6.7375 -2.76625,-8.675 -3.14375,-2.275 -7.3,-1.3875 -9.82625,1.325 -1.64625,1.7625 1,4.425 2.6525,2.65 1.34625,-1.4375 3.035,-2 4.83375,-1.0125 1.27375,0.6875 2.30375,2.175 1.95625,3.5625 -0.4825,1.9375 -3.5925,2.9125 -5.275,2.475 -0.92,-0.25 -1.75,-0.975 -2.06375,-1.875 -0.4275,-1.225 0.35625,-2.325 1.17375,-3.15 1.69625,-1.725 -0.95375,-4.375 -2.6525,-2.65 l 0,0 m -6.7225,18.275 c 2,-1.9625 4.24875,-3.6625 6.25,-5.625 1.72625,-1.7 -0.9275,-4.35 -2.6525,-2.65 -2,1.9625 -4.24875,3.6625 -6.25,5.625 -1.72625,1.7 0.9275,4.35 2.6525,2.65 l 0,0 m -46.4025,-11.25 c 8.64625,10.7375 16.88125,22.1375 26.36,32.1375 4.2575,4.5 30.14375,30.025 35.78875,16.1625 2.12625,-5.225 -2.02375,-11.7625 -4.5675,-16.075 -3.45875,-5.8625 -7.69875,-11.2125 -11.8375,-16.6 -8.76,-11.4 -19.4875,-21.3875 -29.9575,-31.1875 -1.7625,-1.65 -4.41875,0.9875 -2.65125,2.65 8.91125,8.35 17.74375,16.8875 25.8175,26.05 7.51875,8.5375 17.005,19.55 19.80375,30.7125 2.56125,10.2125 -15.4525,-1.625 -17.8575,-3.5 -5.455,-4.225 -10.65,-9.1 -15.05375,-14.425 -7.82,-9.45 -15.4975,-19.025 -23.1925,-28.575 -1.5175,-1.8875 -4.15375,0.7875 -2.6525,2.65 l 0,0 m 22.0275,36.25 c 1.04125,-1.0375 2.08375,-2.0875 3.125,-3.125 0.7225,-0.725 0.7225,-1.925 0,-2.65 -0.7225,-0.725 -1.93,-0.725 -2.6525,0 -1.04125,1.0375 -2.08375,2.0875 -3.125,3.125 -0.7225,0.725 -0.7225,1.925 0,2.65 0.7225,0.725 1.93,0.725 2.6525,0 l 0,0 m -8.9175,-2.5125 c -8.965,1.6125 -9.5175,16.525 0.51125,16.25 9.26,-0.2625 10.31375,-15.725 0.5325,-16.3125 -2.41625,-0.15 -2.4025,3.6 0,3.75 4.97375,0.3 3.82375,8.3875 -0.5325,8.8125 -2.44,0.2375 -3.7325,-1.575 -3.78125,-3.825 -0.0575,-2.6375 1.75875,-4.6 4.2675,-5.05 2.3775,-0.4375 1.3675,-4.05 -0.9975,-3.625 l 0,0 m -20.23,-0.0625 c 3.75,2.425 7.5,4.85 11.25,7.275 2.0375,1.3125 3.915,-1.9375 1.8925,-3.2375 -3.75,-2.425 -7.5,-4.85 -11.25,-7.275 -2.0375,-1.3125 -3.915,1.925 -1.8925,3.2375 l 0,0 m -18.505,1.8 c -4.13125,3.5625 -8.01625,7.3875 -11.875,11.25 -1.71125,1.7125 0.94,4.3625 2.6525,2.65 3.8575,-3.8625 7.7425,-7.675 11.875,-11.25 1.8325,-1.5875 -0.83125,-4.225 -2.6525,-2.65 l 0,0 m 14.1475,-12.1625 c -3.07875,-2.325 -7.22625,-0.425 -9.5575,2.0375 -2.9575,3.1125 -2.9825,7.25 -0.19625,10.4375 2.77625,3.1625 7.15875,2.875 10.21125,0.3875 3.265,-2.6625 3.68875,-7.5375 1.465,-10.95 -1.31625,-2.0125 -4.56375,-0.1375 -3.2375,1.9 1.25625,1.925 1.2075,4.1125 -0.3375,5.875 -1.39375,1.5875 -3.50375,1.875 -5.11625,0.4625 -1.84,-1.6125 -1.64875,-3.7125 -0.1375,-5.4625 1.17625,-1.3625 3.34875,-2.7125 5.01375,-1.4625 1.935,1.4625 3.8,-1.8 1.8925,-3.225 l 0,0 m -6.57125,-17.1375 c 0,3.75 0,7.5 0,11.25 0,2.4125 3.75,2.4125 3.75,0 0,-3.75 0,-7.5 0,-11.25 0,-2.4125 -3.75,-2.4125 -3.75,0 l 0,0 m 0,36.25 c 0,7.0875 0,14.1625 0,21.25 0,2.4125 3.75,2.4125 3.75,0 0,-7.0875 0,-14.1625 0,-21.25 0,-2.4125 -3.75,-2.4125 -3.75,0 l 0,0 m 2.5,23.125 c 30.415,-0.3 60.83375,-0.6125 91.25,-0.625 2.41875,0 2.41875,-3.75 0,-3.75 -30.41625,0.0125 -60.835,0.325 -91.25,0.625 -2.4175,0.025 -2.42,3.775 0,3.75 l 0,0 m 90.6249,-41.875 c -0.02,12.5 -0.32125,25 -0.625,37.5 -0.0588,2.425 3.69125,2.4125 3.75,0 0.30375,-12.5 0.605,-25 0.625,-37.5 0.004,-2.4125 -3.74625,-2.4125 -3.75,0 l 0,0 m -2.5,-52.5 c 0.0462,9.37875 0.57875,18.75 0.625,28.125 0.0112,2.4125 3.76125,2.425 3.75,0 -0.0463,-9.375 -0.57875,-18.74625 -0.625,-28.125 -0.0113,-2.4175 -3.76125,-2.41875 -3.75,0 l 0,0 m -49.375,0.625 c 16.4675,0.0288 32.92125,0.61875 49.375,1.25 2.42,0.0925 2.41,-3.6575 0,-3.75 -16.45375,-0.63125 -32.9075,-1.22125 -49.375,-1.25 -2.41875,-0.005 -2.41875,3.745 0,3.75 l 0,0 m -49.375,-45 c -24.8875,1.78375 -42.255,24.395 -36.29625,49.0675 5.67625,23.5075 33.89125,36.6575 55.94,29.22 32.2975,-10.9125 39.48125,-58.51 6.78875,-73.48375 -7.475,-3.42375 -15.785,-4.56875 -23.9325,-4.80375 -2.42,-0.07 -2.4125,3.68 0,3.75 17.29125,0.49625 35.57,6.97375 40.78125,25.1275 4.075,14.1925 -2.31375,29.7725 -13.12,39.1725 -17.35125,15.075 -43.73375,9.2125 -57.09875,-8.25 -7.715,-10.07125 -8.33,-22.9225 -4.00625,-34.485 4.92625,-13.1725 17.34875,-20.59125 30.94375,-21.565 2.3975,-0.1725 2.415,-3.92375 0,-3.75 l 0,0 m 44.375,63.125 c 0,-0.2125 0,0 0,0 0,-2.5 -3.75,-2.5 -3.75,0 0,0 0,-0.2125 0,0 0,2.4125 3.75,2.4125 3.75,0 l 0,0"
       style="fill:#000000;fill-opacity:1;fill-rule:nonzero;stroke:none"
       id="path6761" />
  </g>
</svg>
