<?xml version="1.0" encoding="UTF-8" standalone="no"?>
<!-- Created with Inkscape (http://www.inkscape.org/) -->

<svg
   xmlns:dc="http://purl.org/dc/elements/1.1/"
   xmlns:cc="http://creativecommons.org/ns#"
   xmlns:rdf="http://www.w3.org/1999/02/22-rdf-syntax-ns#"
   xmlns:svg="http://www.w3.org/2000/svg"
   xmlns="http://www.w3.org/2000/svg"
   xmlns:sodipodi="http://sodipodi.sourceforge.net/DTD/sodipodi-0.dtd"
   xmlns:inkscape="http://www.inkscape.org/namespaces/inkscape"
   width="69.118896mm"
   height="69.118896mm"
   viewBox="0 0 244.90948 244.90947"
   id="svg9428"
   version="1.1"
   inkscape:version="0.91 r"
   sodipodi:docname="intro_1.svg">
  <defs
     id="defs9430" />
  <sodipodi:namedview
     id="base"
     pagecolor="#ffffff"
     bordercolor="#666666"
     borderopacity="1.0"
     inkscape:pageopacity="0.0"
     inkscape:pageshadow="2"
     inkscape:zoom="2.0405291"
     inkscape:cx="3.9891465"
     inkscape:cy="114.29113"
     inkscape:document-units="px"
     inkscape:current-layer="layer1"
     showgrid="false"
     fit-margin-top="0"
     fit-margin-left="1.454565"
     fit-margin-right="1.454565"
     fit-margin-bottom="0"
     inkscape:window-width="1863"
     inkscape:window-height="1056"
     inkscape:window-x="57"
     inkscape:window-y="24"
     inkscape:window-maximized="1" />
  <metadata
     id="metadata9433">
    <rdf:RDF>
      <cc:Work
         rdf:about="">
        <dc:format>image/svg+xml</dc:format>
        <dc:type
           rdf:resource="http://purl.org/dc/dcmitype/StillImage" />
        <dc:title></dc:title>
      </cc:Work>
    </rdf:RDF>
  </metadata>
  <g
     inkscape:label="Layer 1"
     inkscape:groupmode="layer"
     id="layer1"
     transform="translate(-261.83098,-562.76463)">
    <path
       inkscape:connector-curvature="0"
       d="m 267.28723,681.00538 c 4.42086,13.32795 4.45385,27.55931 12.07487,39.62109 3.4971,5.5879 12.07487,0.35229 8.5118,-5.28095 -7.02718,-11.20022 -6.92821,-24.71653 -11.01915,-37.11665 -2.11145,-6.33086 -11.67897,-3.61016 -9.56752,2.77651 l 0,0 m 14.6812,-38.01308 c 19.23401,-1.87658 11.54701,32.74608 -5.27863,29.83703 -6.23539,-1.08131 -8.90769,9.00273 -2.63932,10.08752 32.0347,5.53907 40.71145,-53.59084 7.91795,-50.38878 -6.30137,0.61739 -6.36735,11.08511 0,10.46423 l 0,0 m 29.13145,117.77149 c 24.97453,-17.48574 -1.64957,-71.37307 -25.76632,-45.96939 -4.55282,4.76472 2.44136,12.16293 6.99418,7.39821 13.39453,-14.11276 26.78906,20.42619 13.79043,29.53705 -5.31162,3.70434 -0.36291,12.77335 4.98171,9.03413 l 0,0 m 30.31914,18.26358 c -9.07265,-6.88198 -19.10205,-12.12456 -27.71282,-19.70765 -4.84974,-4.29033 -11.90991,3.06951 -6.99418,7.39822 9.27059,8.17954 19.92683,13.93138 29.6923,21.34355 5.21265,3.94502 10.12838,-5.14143 5.0147,-9.03412 l 0,0 m 50.83983,17.18227 c -3.72804,-28.93012 -43.91162,-36.82016 -53.77607,-8.05048 -2.17743,6.35876 7.42308,9.07598 9.56752,2.77999 6.82923,-19.97622 32.4306,-9.362 34.64103,8.05049 0.85777,6.66223 10.3923,3.81247 9.56752,-2.78 l 0,0 m 28.24068,-8.05397 c -5.83949,0.77086 -11.71197,0.55111 -17.51846,1.315 -6.40034,0.84412 -11.71197,4.20663 -16.85863,8.17955 -5.08069,3.93455 -0.16496,13.02099 4.98171,9.03412 3.92598,-3.00672 8.04991,-6.24366 12.96564,-6.89244 5.44358,-0.71506 10.95316,-0.44996 16.42974,-1.172 6.23538,-0.82667 6.30136,-11.30137 0,-10.46423 l 0,0 M 463.12448,757.628 c -10.82119,-8.96785 -25.0735,-10.5619 -36.81846,-2.39631 -12.20683,8.46208 -13.36153,23.97357 -7.25812,36.86551 2.83727,6.03786 11.38205,0.73598 8.54479,-5.28095 -9.40256,-19.86461 13.42752,-34.2913 28.5376,-21.79003 4.94872,4.10896 12.00889,-3.24043 6.99419,-7.39822 l 0,0 m 22.7641,-33.27626 c -7.88496,11.25602 -13.46051,24.15843 -22.99504,34.06108 -4.55282,4.73332 2.44137,12.12805 6.99419,7.39822 10.16136,-10.54795 16.16581,-24.1968 24.54564,-36.17835 3.79401,-5.43443 -4.78376,-10.64213 -8.54479,-5.28095 l 0,0 m 3.79402,-44.77298 c -16.09983,0.21291 -27.84479,12.01294 -27.21795,29.35218 0.52786,14.07091 11.38205,27.80347 25.50239,21.84932 5.87248,-2.46607 3.33214,-12.58847 -2.60632,-10.09101 -8.04992,3.38693 -12.3718,-3.92757 -12.99863,-11.75831 -0.89077,-11.59088 6.79624,-18.75191 17.32051,-18.88794 6.40034,-0.0801 6.40034,-10.54795 0,-10.46424 l 0,0 m -10.12838,-34.84939 c 3.59607,14.24182 7.06017,28.50806 12.14086,42.25458 2.27641,6.21924 11.84393,3.51598 9.53453,-2.78 -5.0477,-13.75 -8.54479,-28.01625 -12.10787,-42.25458 -1.64957,-6.51573 -11.1841,-3.74969 -9.56752,2.78 l 0,0 M 463.4214,599.24133 c -12.23982,7.25521 -17.88136,25.41414 -10.32632,38.36887 8.67675,14.82084 21.24649,16.97648 35.13589,8.28419 5.50958,-3.42879 0.52787,-12.47686 -4.9817,-9.03413 -9.43556,5.89485 -15.57197,5.14143 -21.6094,-4.5345 -5.0147,-8.047 -0.69283,-19.62393 6.76324,-24.0503 5.57556,-3.30321 0.56086,-12.34431 -4.98171,-9.03413 l 0,0 m -30.91298,-16.16026 c 6.49931,0.84062 10.85418,5.6158 15.11008,10.36308 4.68479,5.16584 9.43555,9.94451 15.57196,13.10122 5.70752,2.94743 10.72222,-6.07623 4.98171,-9.03412 -13.62547,-7.02848 -19.39897,-22.78762 -35.66375,-24.89442 -6.30137,-0.8197 -6.23539,9.655 0,10.46424 l 0,0 m -47.4747,20.82731 c 23.09401,15.14175 42.65794,-1.71962 50.17999,-25.79782 1.97949,-6.42505 -7.55504,-9.1597 -9.56752,-2.78349 -5.50957,17.68804 -18.21128,30.94972 -35.59777,19.54719 -5.44359,-3.56482 -10.4253,5.48675 -5.0147,9.03412 l 0,0 m -44.0106,-18.65773 c 13.03163,-5.27746 25.73334,-11.55251 39.91966,-12.01992 -1.58359,-1.28012 -3.16718,-2.56025 -4.78376,-3.84037 1.64957,10.46772 3.0682,20.97381 4.94872,31.38922 1.22068,6.62386 10.75521,3.81247 9.56752,-2.77651 -1.91351,-10.42238 -3.33214,-20.92499 -4.94872,-31.3962 -0.36291,-2.21493 -2.77128,-3.90665 -4.78376,-3.84037 -15.17607,0.49879 -28.60359,6.74245 -42.55897,12.39663 -5.90547,2.38584 -3.33214,12.50476 2.63931,10.08752 l 0,0 m -37.8082,28.30576 c 11.1841,11.05023 29.16444,17.25901 41.89914,5.43791 11.84393,-10.98047 4.75077,-25.33042 1.02274,-38.43513 -1.84752,-6.439 -11.41504,-3.69388 -9.56752,2.78348 2.17743,7.55169 8.24786,17.86594 4.05795,25.56762 -6.63128,12.1699 -23.45692,4.13686 -30.41812,-2.75558 -4.65179,-4.60427 -11.67897,2.78 -6.99419,7.4017 l 0,0 m -18.64017,21.61213 c 3.03522,-5.09608 7.22513,-9.40734 11.31607,-13.52328 1.97949,-1.98123 4.05795,-3.86479 6.1694,-5.67161 0.82479,-0.72552 1.74855,-1.37082 2.67231,-2.00216 0.62684,-0.43601 1.81453,-0.81272 0.32991,-0.62785 6.26838,-0.77436 6.33436,-11.24906 0,-10.46424 -5.60854,0.69064 -10.32632,5.81463 -14.35128,9.59919 -5.44359,5.11701 -10.7882,10.85839 -14.6482,17.409 -3.43111,5.73789 5.14667,10.98745 8.51179,5.28095 l 0,0 m 99.83213,44.0928 c 0.72581,2.4312 0.7918,5.03679 1.68256,7.40519 1.35265,3.66249 3.92599,6.12507 7.19214,7.9319 4.6188,2.55676 8.84171,-2.45561 6.76325,-7.15754 -1.45163,-3.33809 -1.81453,-7.08778 -3.29915,-10.46424 -2.57333,2.11378 -5.17965,4.22755 -7.75299,6.34133 3.00222,3.26833 5.24564,7.19242 8.24787,10.46424 4.45384,4.84842 11.44803,-2.55677 6.99418,-7.40171 -3.00222,-3.26833 -5.24564,-7.19242 -8.24786,-10.46423 -1.5506,-1.68126 -4.09094,-1.9917 -6.00444,-0.81621 -2.47436,1.54173 -2.90325,4.56938 -1.74855,7.15753 1.45162,3.33809 1.81453,7.08778 3.29914,10.46424 2.24342,-2.38585 4.48684,-4.77169 6.76325,-7.15754 -1.08872,-0.59297 -1.88051,-1.06037 -2.67231,-1.92891 0.56086,0.62437 -0.23094,-0.45693 -0.29692,-0.57553 0.49487,0.96271 -0.066,-0.27904 -0.099,-0.48135 -0.52787,-2.00914 -0.65983,-4.09501 -1.25368,-6.09368 -1.9135,-6.41806 -11.48102,-3.67643 -9.56752,2.77651 l 0,0 m -9.73248,-11.66413 c -11.97589,5.11003 -19.69589,16.22654 -13.42752,29.6382 5.57556,11.83157 20.28974,15.75914 31.20991,10.80956 11.90992,-5.39257 16.56171,-20.6878 11.34906,-32.87514 -5.64153,-13.18145 -19.10205,-15.64055 -30.31914,-8.78996 -5.50957,3.37297 -0.52786,12.41407 5.0147,9.03412 6.46633,-3.94501 12.70171,-3.30321 16.33077,4.00781 3.39812,6.89244 0.23094,15.66147 -6.10342,19.017 -5.97145,3.17066 -13.92239,0.92783 -17.88136,-4.66356 -4.91573,-7.01104 -0.13197,-13.26865 6.46632,-16.09051 5.83949,-2.49049 3.29914,-12.61638 -2.63932,-10.08752 l 0,0 m -3.29914,-33.13675 c -30.41812,6.71804 -46.74889,35.82606 -38.30308,67.39666 8.64376,32.20194 45.06633,48.69009 73.76889,36.58645 24.11675,-10.17472 31.67179,-40.18964 26.69008,-64.91314 -6.30137,-31.42759 -33.91521,-45.59616 -62.15589,-40.81401 -6.26838,1.06038 -3.59607,11.14442 2.63931,10.08753 22.92906,-3.87875 42.36103,7.08777 49.35521,30.90437 5.8065,19.85763 -0.42889,43.52425 -18.01333,53.99197 -22.53316,13.41515 -52.62136,-2.18354 -61.79298,-25.74551 -10.32633,-26.478 5.14666,-51.81889 30.4511,-57.40679 6.23539,-1.37779 3.59607,-11.46532 -2.63931,-10.08753 l 0,0 m 9.56752,41.66859 c 0.19795,7.63192 3.36513,13.86511 7.29111,20.08087 3.49709,5.5879 12.07487,0.35229 8.51179,-5.28095 -2.87025,-4.58334 -5.74051,-9.12133 -5.90547,-14.79992 -0.19794,-6.73548 -10.09538,-6.75292 -9.89743,0 l 0,0 m -3.49709,1.95681 c -0.65983,-0.82318 0.89076,1.8452 1.1217,2.31957 1.02274,2.10332 1.9465,4.28336 2.80428,6.4669 1.9135,4.87285 3.62906,9.89917 4.68478,15.06152 1.35265,6.59596 10.92017,3.79852 9.56752,-2.77651 -1.1547,-5.62278 -3.13418,-11.02581 -5.21265,-16.32072 -1.61658,-4.13337 -3.20017,-8.69577 -5.97145,-12.15246 -4.12393,-5.1484 -11.11812,2.29167 -6.99418,7.4017 l 0,0"
       style="fill:#000014;fill-opacity:1;fill-rule:nonzero;stroke:none"
       id="path9976" />
  </g>
</svg>
