<?xml version="1.0" encoding="UTF-8" standalone="no"?>
<!-- Created with Inkscape (http://www.inkscape.org/) -->

<svg
   xmlns:dc="http://purl.org/dc/elements/1.1/"
   xmlns:cc="http://creativecommons.org/ns#"
   xmlns:rdf="http://www.w3.org/1999/02/22-rdf-syntax-ns#"
   xmlns:svg="http://www.w3.org/2000/svg"
   xmlns="http://www.w3.org/2000/svg"
   xmlns:sodipodi="http://sodipodi.sourceforge.net/DTD/sodipodi-0.dtd"
   xmlns:inkscape="http://www.inkscape.org/namespaces/inkscape"
   id="svg4206"
   version="1.1"
   inkscape:version="0.91 r"
   width="638.94141"
   height="549.25623"
   viewBox="0 0 638.94141 549.25623"
   sodipodi:docname="king.svg">
  <metadata
     id="metadata4212">
    <rdf:RDF>
      <cc:Work
         rdf:about="">
        <dc:format>image/svg+xml</dc:format>
        <dc:type
           rdf:resource="http://purl.org/dc/dcmitype/StillImage" />
        <dc:title></dc:title>
      </cc:Work>
    </rdf:RDF>
  </metadata>
  <defs
     id="defs4210" />
  <sodipodi:namedview
     pagecolor="#ffffff"
     bordercolor="#666666"
     borderopacity="1"
     objecttolerance="10"
     gridtolerance="10"
     guidetolerance="10"
     inkscape:pageopacity="0"
     inkscape:pageshadow="2"
     inkscape:window-width="1863"
     inkscape:window-height="1056"
     id="namedview4208"
     showgrid="false"
     fit-margin-top="0"
     fit-margin-left="0"
     fit-margin-right="0"
     fit-margin-bottom="0"
     inkscape:zoom="1.4984513"
     inkscape:cx="291.12843"
     inkscape:cy="332.77067"
     inkscape:window-x="57"
     inkscape:window-y="24"
     inkscape:window-maximized="1"
     inkscape:current-layer="svg4206" />
  <path
     style="fill:#000000"
     d="m 129.50116,547.63943 c -6.13528,-1.93381 -16.59857,-12.76853 -18.47985,-19.13583 -3.46007,-11.71081 -1.02256,-21.04646 7.8177,-29.9417 4.63278,-4.66158 7.8469,-6.72686 12.15839,-7.8125 8.42421,-2.12124 368.58331,-2.12124 377.00752,0 11.271,2.83807 21.49624,16.40635 21.49624,28.52423 0,11.55616 -10.0275,25.30588 -20.77002,28.47985 -7.02664,2.07609 -372.63032,1.96614 -379.22998,-0.114 z M 116.32036,446.4177 c -2.96861,-2.55348 -7.33398,-16.56181 -38.664703,-124.07377 l -35.31826,-121.1953 -6.99518,-0.76736 C 21.337837,198.84502 9.4926327,190.23992 2.9755601,176.86809 c -3.981547,-8.1694 -3.96493904,-23.23925 0.03523,-31.96946 7.7644389,-16.94558 26.1400939,-26.64364 43.7422539,-23.08571 29.32839,5.92814 42.22908,39.57583 24.21894,63.16807 l -4.83408,6.33236 61.994116,37.99647 c 35.45713,21.73183 63.59949,38.19293 65.74449,38.45545 2.71299,0.33203 4.49661,-0.34672 6.44821,-2.45383 4.37697,-4.72572 104.81913,-188.94858 103.29561,-189.45642 -4.51324,-1.50441 -13.27182,-8.79494 -16.59712,-13.81523 -8.76765,-13.23673 -9.5922,-28.062 -2.31962,-41.70674 4.4399,-8.33011 8.44289,-12.15919 17.78826,-17.01547 C 307.93626,0.48841 310.44034,0 319.50115,0 c 9.06081,0 11.56489,0.48841 17.0093,3.31758 9.34537,4.85628 13.34836,8.68536 17.78826,17.01547 7.27258,13.64474 6.44803,28.47001 -2.31962,41.70674 -3.32763,5.0238 -12.08452,12.31103 -16.6043,13.81763 -1.53574,0.51191 98.90389,184.73265 103.29288,189.45402 1.96355,2.11226 3.7385,2.78368 6.45812,2.44295 2.12532,-0.26628 30.63025,-16.92895 65.78532,-38.45507 l 62.03496,-37.98518 -4.84384,-6.12793 c -15.94617,-20.17341 -7.96023,-50.48627 16.12738,-61.21597 8.15803,-3.63395 22.38505,-3.63395 30.54308,0 8.22207,3.66249 17.6367,12.8669 21.13304,20.6612 4.04499,9.01741 4.04816,23.95672 0.006,32.31235 -6.46807,13.37307 -17.55595,21.45746 -31.9254,23.27742 l -7.32243,0.92743 -35.32093,121.07941 c -26.30666,90.17871 -36.00245,121.76098 -37.99141,123.75 l -2.67049,2.67059 -200.50756,0.32377 -200.50755,0.32379 -3.34644,-2.87849 z"
     id="path4216"
     inkscape:connector-curvature="0" />
</svg>
