<?xml version="1.0" encoding="UTF-8" standalone="no"?>
<!-- Created with Inkscape (http://www.inkscape.org/) -->

<svg
   xmlns:dc="http://purl.org/dc/elements/1.1/"
   xmlns:cc="http://creativecommons.org/ns#"
   xmlns:rdf="http://www.w3.org/1999/02/22-rdf-syntax-ns#"
   xmlns:svg="http://www.w3.org/2000/svg"
   xmlns="http://www.w3.org/2000/svg"
   xmlns:sodipodi="http://sodipodi.sourceforge.net/DTD/sodipodi-0.dtd"
   xmlns:inkscape="http://www.inkscape.org/namespaces/inkscape"
   id="svg4206"
   version="1.1"
   inkscape:version="0.91 r"
   width="557.56357"
   height="634.33517"
   viewBox="0 0 557.56357 634.33517"
   sodipodi:docname="king.svg">
  <metadata
     id="metadata4212">
    <rdf:RDF>
      <cc:Work
         rdf:about="">
        <dc:format>image/svg+xml</dc:format>
        <dc:type
           rdf:resource="http://purl.org/dc/dcmitype/StillImage" />
        <dc:title />
      </cc:Work>
    </rdf:RDF>
  </metadata>
  <defs
     id="defs4210" />
  <sodipodi:namedview
     pagecolor="#ffffff"
     bordercolor="#666666"
     borderopacity="1"
     objecttolerance="10"
     gridtolerance="10"
     guidetolerance="10"
     inkscape:pageopacity="0"
     inkscape:pageshadow="2"
     inkscape:window-width="1863"
     inkscape:window-height="1056"
     id="namedview4208"
     showgrid="false"
     fit-margin-top="0"
     fit-margin-left="0"
     fit-margin-right="0"
     fit-margin-bottom="0"
     inkscape:zoom="2.1191302"
     inkscape:cx="276.56606"
     inkscape:cy="466.75453"
     inkscape:window-x="1977"
     inkscape:window-y="24"
     inkscape:window-maximized="1"
     inkscape:current-layer="svg4206" />
  <path
     style="fill:#000000"
     d="m 266.88908,334.25915 c -0.38409,-0.121 -1.03913,-0.79936 -1.15691,-1.19798 -0.21662,-0.73314 -0.064,-1.31759 0.48942,-1.87447 0.29002,-0.29182 0.49125,-0.42112 0.76117,-0.48908 0.52738,-0.1328 23.07471,-0.1328 23.60209,0 0.7056,0.1776 1.34575,1.0271 1.34575,1.78573 0,0.72346 -0.62777,1.58424 -1.30029,1.78294 -0.43988,0.13001 -23.32807,0.12301 -23.74123,-0.008 z m -0.82517,-6.33686 c -0.1858,-0.1598 -0.45914,-1.03684 -2.42055,-7.76749 l -2.21107,-7.58729 -0.43792,-0.048 c -0.87672,-0.0962 -1.61828,-0.63489 -2.02627,-1.47201 -0.24926,-0.51144 -0.24822,-1.45486 0.002,-2.00141 0.48609,-1.06086 1.63647,-1.668 2.73843,-1.44526 1.83607,0.37112 2.6437,2.47761 1.51621,3.95455 l -0.30264,0.39645 3.88108,2.37872 c 2.21974,1.36049 3.98155,2.39101 4.11583,2.40745 0.1698,0.0208 0.28152,-0.0218 0.4037,-0.1536 0.274,-0.29584 6.56207,-11.8289 6.46669,-11.86068 -0.28254,-0.0942 -0.83086,-0.55061 -1.03904,-0.86489 -0.54889,-0.82868 -0.60051,-1.75678 -0.14521,-2.61101 0.27797,-0.52148 0.52857,-0.7612 1.11363,-1.06522 0.34084,-0.1772 0.4976,-0.2077 1.06484,-0.2077 0.56725,0 0.72401,0.0306 1.06485,0.2077 0.58506,0.30402 0.83566,0.54374 1.1136,1.06522 0.4553,0.85423 0.40368,1.78233 -0.1452,2.61101 -0.20832,0.3145 -0.75654,0.77071 -1.0395,0.86503 -0.0962,0.032 6.19176,11.56496 6.46652,11.86054 0.123,0.1322 0.23404,0.1742 0.40431,0.153 0.133,-0.016 1.91756,-1.05982 4.11841,-2.40743 l 3.88362,-2.37802 -0.30324,-0.38363 c -0.99829,-1.26292 -0.49835,-3.16063 1.00964,-3.83235 0.51072,-0.2275 1.40139,-0.2275 1.91211,0 0.51474,0.22928 1.10412,0.80552 1.323,1.29346 0.25324,0.56453 0.25344,1.49979 3.8e-4,2.02289 -0.40492,0.8372 -1.09906,1.34331 -1.99864,1.45725 l -0.45843,0.058 -2.21121,7.58003 c -1.6469,5.64554 -2.25388,7.62271 -2.37841,7.74723 l -0.1672,0.1672 -12.55253,0.0202 -12.55255,0.0202 -0.2095,-0.1802 z"
     id="path4216"
     inkscape:connector-curvature="0" />
</svg>
