<?xml version="1.0" encoding="UTF-8" standalone="no"?>
<svg
   xmlns:dc="http://purl.org/dc/elements/1.1/"
   xmlns:cc="http://creativecommons.org/ns#"
   xmlns:rdf="http://www.w3.org/1999/02/22-rdf-syntax-ns#"
   xmlns:svg="http://www.w3.org/2000/svg"
   xmlns="http://www.w3.org/2000/svg"
   xmlns:sodipodi="http://sodipodi.sourceforge.net/DTD/sodipodi-0.dtd"
   xmlns:inkscape="http://www.inkscape.org/namespaces/inkscape"
   viewBox="-0.2 -1 379.62958 333.61002"
   id="svg4295"
   version="1.1"
   inkscape:version="0.48.4 r9939"
   sodipodi:docname="octocat.svg"
   width="379.62958"
   height="333.61002">
  <metadata
     id="metadata4317">
    <rdf:RDF>
      <cc:Work
         rdf:about="">
        <dc:format>image/svg+xml</dc:format>
        <dc:type
           rdf:resource="http://purl.org/dc/dcmitype/StillImage" />
        <dc:title />
      </cc:Work>
    </rdf:RDF>
  </metadata>
  <defs
     id="defs4315" />
  <sodipodi:namedview
     pagecolor="#ffffff"
     bordercolor="#666666"
     borderopacity="1"
     objecttolerance="10"
     gridtolerance="10"
     guidetolerance="10"
     inkscape:pageopacity="0"
     inkscape:pageshadow="2"
     inkscape:window-width="1863"
     inkscape:window-height="1056"
     id="namedview4313"
     showgrid="false"
     inkscape:zoom="2.0239343"
     inkscape:cx="133.90668"
     inkscape:cy="108.11852"
     inkscape:window-x="57"
     inkscape:window-y="24"
     inkscape:window-maximized="1"
     inkscape:current-layer="svg4295"
     fit-margin-top="0"
     fit-margin-left="0"
     fit-margin-right="0"
     fit-margin-bottom="0" />
  <path
     id="puddle"
     d="m 297.32053,294.93402 c 0,20.533 -47.56,37.176 -106.22,37.176 -58.67,0 -106.230005,-16.643 -106.230005,-37.176 0,-20.533 47.558005,-37.18 106.230005,-37.18 58.66,0 106.22,16.65 106.22,37.18 z"
     style="fill:#000000;fill-opacity:0;stroke:#ffffff;stroke-opacity:1;stroke-width:8;stroke-miterlimit:4;stroke-dasharray:none"
     inkscape:connector-curvature="0" />
  <g
     id="shadow-legs"
     style="fill:#7dbbe6"
     transform="translate(0.38052511,-0.49598125)" />
  <path
     style="fill:none;stroke:#ffffff;stroke-width:8;stroke-miterlimit:4;stroke-opacity:1;stroke-dasharray:none"
     d="M 100.125 0.5 C 97.077244 0.43038673 95.625 0.90625 95.625 0.90625 C 85.845 25.36325 91.88175 43.47175 93.71875 47.96875 C 82.22375 60.37475 75.218749 76.209 75.21875 95.625 C 75.21875 110.283 76.89275 123.446 80.96875 134.875 C 61.45775 134.165 30.643749 134.4285 0.59375 140.4375 L 0.875 141.84375 C 31.106 135.79775 62.108 135.5785 81.5 136.3125 C 82.398 138.6785 83.378 140.9695 84.5 143.1875 C 65.323 143.8055 32.599749 146.24075 1.21875 155.09375 L 1.59375 156.46875 C 33.22275 147.55075 66.259 145.17475 85.25 144.59375 C 96.708 165.95175 119.28075 179.7305 159.46875 184.0625 C 153.76475 187.8955 147.95175 194.4125 145.59375 205.4375 C 137.82075 209.1555 113.23176 218.23575 98.46875 192.84375 C 98.46875 192.84375 90.193 177.71425 74.375 176.53125 C 74.375 176.53125 59.0275 176.29675 73.3125 186.09375 C 73.3125 186.09375 83.572251 190.944 90.65625 209.125 C 90.65625 209.125 99.90599 240.1365 144.5 230.1875 L 144.5 262.21875 C 144.5 262.21875 143.5745 273.5375 133.1875 277.3125 C 133.1875 277.3125 127.04425 281.5805 133.65625 283.9375 C 133.65625 283.9375 162.4375 286.2865 162.4375 262.6875 L 162.4375 227.75 C 162.4375 227.75 161.28875 213.90875 168.09375 209.09375 L 168.09375 266.46875 C 168.09375 266.46875 167.6435 280.15075 160.5625 285.34375 C 160.5625 285.34375 155.83275 293.857 166.21875 291.5 C 166.21875 291.5 186.055 288.66025 187 265.53125 L 187.4375 207.46875 L 192.1875 207.46875 L 192.65625 265.53125 C 193.59925 288.66025 213.40625 291.5 213.40625 291.5 C 223.78925 293.857 219.09376 285.34375 219.09375 285.34375 C 212.01375 280.15075 211.53125 266.46875 211.53125 266.46875 L 211.53125 209.59375 C 218.33225 214.88975 217.1875 227.75 217.1875 227.75 L 217.1875 262.6875 C 217.1875 286.2875 246 283.9375 246 283.9375 C 252.606 281.5805 246.46875 277.3125 246.46875 277.3125 C 236.08275 273.5375 235.125 262.21875 235.125 262.21875 L 235.125 216.4375 C 235.125 198.5835 227.602 189.116 220.25 184.125 C 263.109 179.875 283.67925 166.03325 293.15625 144.53125 C 311.92925 145.04725 345.71525 147.35275 378.03125 156.46875 L 378.4375 155.09375 C 346.3065 146.03075 312.74425 143.70825 293.78125 143.15625 C 294.67925 140.98425 295.46027 138.699 296.15625 136.375 C 315.40625 135.575 347.5325 135.59375 378.8125 141.84375 L 378.75 141.8125 L 379.03125 140.4375 C 347.86925 134.2065 315.9085 134.1335 296.5625 134.9375 C 299.7405 123.4865 300.6875 110.318 300.6875 95.625 C 300.6875 74.552 292.75925 57.703 279.90625 44.875 C 282.15225 37.625 285.14825 21.51825 276.90625 0.90625 C 276.90625 0.90625 275.4875 0.44817505 272.53125 0.5 C 266.0275 0.6140149 252.11186 3.1785622 229.5 18.3125 C 216.61599 15.0925 202.88825 13.5 189.15625 13.5 C 174.04725 13.5 158.8015 15.4065 144.5625 19.3125 C 121.22875 3.3941251 106.83006 0.65314919 100.125 0.5 z M 228.96875 86.28125 C 240.91875 86.14775 251.135 87.732 258.75 94.625 L 258.78125 94.625 C 268.01225 102.988 273.40625 113.08775 273.40625 123.96875 C 273.40625 174.77275 235.5255 176.15625 188.8125 176.15625 C 142.0915 176.15625 104.21875 169.11475 104.21875 123.96875 C 104.21875 113.15975 109.53925 103.1415 118.65625 94.8125 C 133.86425 80.9315 159.6115 88.28125 188.8125 88.28125 C 203.3475 88.27925 217.01875 86.41475 228.96875 86.28125 z M 143.09375 101.21875 C 133.37375 101.21875 125.46875 112.5705 125.46875 126.5625 C 125.46875 140.5565 133.37375 151.90625 143.09375 151.90625 C 152.81375 151.90625 160.6875 140.5565 160.6875 126.5625 C 160.6875 112.5725 152.81375 101.22875 143.09375 101.21875 z M 237.5 101.21875 C 227.78 101.21875 219.90625 112.5705 219.90625 126.5625 C 219.90625 140.5565 227.78 151.90625 237.5 151.90625 C 247.22 151.90625 255.125 140.5565 255.125 126.5625 C 255.125 112.5725 247.22 101.22875 237.5 101.21875 z M 78.15625 178.1875 C 79.849308 178.1875 81.21722 179.13342 81.21875 180.3125 C 81.21725 181.48559 79.849304 182.4375 78.15625 182.4375 C 76.46325 182.4375 75.09375 181.4865 75.09375 180.3125 C 75.09375 179.1375 76.46325 178.1875 78.15625 178.1875 z M 86.65625 182.90625 C 88.348365 182.90625 89.715692 183.85308 89.71875 185.03125 L 89.71875 185.0625 C 89.71565 186.23469 88.348365 187.15625 86.65625 187.15625 C 84.96325 187.15625 83.59375 186.20525 83.59375 185.03125 C 83.59375 183.85625 84.96325 182.90625 86.65625 182.90625 z M 91.84375 189.0625 C 93.535873 189.0625 94.903206 190.00931 94.90625 191.1875 C 94.90315 192.35969 93.535856 193.3125 91.84375 193.3125 C 90.15075 193.3125 88.78125 192.3615 88.78125 191.1875 C 88.78125 190.0125 90.15075 189.0625 91.84375 189.0625 z M 96.5625 196.125 C 98.254623 196.125 99.621956 197.07181 99.625 198.25 L 99.625 198.28125 C 99.6219 199.45343 98.254606 200.375 96.5625 200.375 C 94.8695 200.375 93.5 199.424 93.5 198.25 C 93.5 197.075 94.8695 196.125 96.5625 196.125 z M 101.75 202.75 C 103.44212 202.75 104.80944 203.69683 104.8125 204.875 C 104.8095 206.04719 103.44212 207 101.75 207 C 100.057 207 98.6875 206.049 98.6875 204.875 C 98.6875 203.7 100.057 202.75 101.75 202.75 z M 108.84375 208.40625 C 110.53587 208.40625 111.90319 209.35307 111.90625 210.53125 C 111.90325 211.70344 110.53587 212.65625 108.84375 212.65625 C 107.15075 212.65625 105.78125 211.70525 105.78125 210.53125 C 105.78125 209.35625 107.15075 208.40625 108.84375 208.40625 z M 138.625 210.5625 C 140.31713 210.5625 141.68445 211.50932 141.6875 212.6875 C 141.6845 213.85968 140.31711 214.8125 138.625 214.8125 C 136.932 214.8125 135.5625 213.8615 135.5625 212.6875 C 135.5625 211.5125 136.932 210.5625 138.625 210.5625 z M 118.75 212.1875 C 120.44306 212.1875 121.81097 213.13341 121.8125 214.3125 C 121.8105 215.48559 120.44306 216.4375 118.75 216.4375 C 117.057 216.4375 115.6875 215.4865 115.6875 214.3125 C 115.6875 213.1375 117.057 212.1875 118.75 212.1875 z M 128.625 212.1875 C 130.31805 212.1875 131.68597 213.13341 131.6875 214.3125 C 131.6855 215.48559 130.31805 216.4375 128.625 216.4375 C 126.932 216.4375 125.56249 215.4865 125.5625 214.3125 C 125.5625 213.1375 126.932 212.1875 128.625 212.1875 z "
     transform="translate(-0.20000117,-1)"
     id="cat" />
  <g
     id="g4306"
     style="fill:#ad5c51"
     transform="translate(0.38052511,-0.49598125)">
    <path
       id="pupils"
       d="m 154.46,126.38 c 0,9.328 -5.26,16.887 -11.734,16.887 -6.474,0 -11.733,-7.559 -11.733,-16.887 0,-9.331 5.255,-16.894 11.733,-16.894 6.47,0 11.73,7.56 11.73,16.89 z m 94.42,0 c 0,9.328 -5.26,16.887 -11.734,16.887 -6.474,0 -11.733,-7.559 -11.733,-16.887 0,-9.331 5.255,-16.894 11.733,-16.894 6.47,0 11.73,7.56 11.73,16.89 z"
       style="fill:#000000;fill-opacity:0;stroke:#000000;stroke-opacity:0"
       inkscape:connector-curvature="0" />
    <circle
       id="nose"
       cx="188.5"
       cy="148.56"
       r="4.401"
       style="fill:#ffffff;fill-opacity:1"
       d="m 192.901,148.56 c 0,2.4306 -1.97039,4.401 -4.401,4.401 -2.43061,0 -4.401,-1.9704 -4.401,-4.401 0,-2.43061 1.97039,-4.401 4.401,-4.401 2.43061,0 4.401,1.97039 4.401,4.401 z" />
    <path
       id="mouth"
       d="m 178.23,159.69 c -0.26,-0.738 0.128,-1.545 0.861,-1.805 0.737,-0.26 1.546,0.128 1.805,0.861 1.134,3.198 4.167,5.346 7.551,5.346 3.384,0 6.417,-2.147 7.551,-5.346 0.26,-0.738 1.067,-1.121 1.805,-0.861 0.738,0.26 1.121,1.067 0.862,1.805 -1.529,4.324 -5.639,7.229 -10.218,7.229 -4.579,0 -8.68,-2.89 -10.21,-7.22 z"
       style="fill:#ffffff;fill-opacity:1;stroke:none;stroke-opacity:1"
       inkscape:connector-curvature="0" />
  </g>
  <path
     id="drop"
     d="m 69.749525,185.62402 -3.066,10.683 c 0,0 -0.8,3.861 2.84,4.546 3.8,-0.074 3.486,-3.627 3.223,-4.781 z"
     style="fill:#ffffff;fill-opacity:1"
     inkscape:connector-curvature="0" />
</svg>
