<svg id="Layer_1" xmlns="http://www.w3.org/2000/svg" viewBox="0 0 500 500"><style>.st0{fill:#f4d3aa}.st1{fill:#6290c3}.st2{fill:#78a6d1}.st3{fill:#fff}.st4{opacity:.3}.st5{fill:#eef3f9}.st6{opacity:.9}.st7{fill:#f0f2f8}.st8{fill:#edf0f7}.st9{fill:#eef1f8}.st10{fill:#c2cfe6}.st11{fill:#cad5e9}.st12{fill:#c5d2e7}.st13{fill:#cdd7ea}.st14{fill:#dae1ef}.st15{fill:#d5deed}.st16{fill:#dfe5f1}.st17{fill:#e7ebf5}.st18{fill:#4e5057}.st19{fill:#4f5057}.st20{fill:#dabd9d}.st21{fill:#336390}</style><g id="XMLID_1562_"><path id="XMLID_1556_" class="st0" d="M248.8 465.9c-2-2-4.4-3.4-7-4.3v-60.8h-8.6v56.9c-7.7-4.2-18.1-2.6-25.2 4.5-8.4 8.5-1.3 33.4-1.1 29.3.1-2.4 3.8-5.5 8.6-9 .2 8.6 2.9 16.6 2.9 14.2.3-7.8 38.2-23.2 30.4-30.8z"/><path class="st1" d="M250.3 464.7c-1.8-1.6-6.1-3.2-6.5-4.2-.6-1.3 0-4.4 0-5.9v-54c0-1-.9-1.4-1.8-1.4h-8.6c-.8 0-2.1.7-2.1 1.6v56.9l3-1.5c-10.8-5.3-27.4-1.3-31.2 11.2-1.7 5.5-1.3 11.6-.4 17.2.3 2 .6 7.7 3 8.6 1.1.4 2.4-.1 2.9-1.1 2.2-3.8 4.5-6.1 8.2-8.7-1.1-.3-2.2-.6-3.2-.8.1 2.9 0 14.7 3.7 15.8 1.2.4 2.8-.1 3-1.5 1.6-8.4 39-21.9 30.3-31.9-1.2-1.4-4.8.2-3.5 1.7 4.3 5-13.5 14.7-16.7 16.8-4.9 3.3-12.8 7.2-14 13.6l3-1.5c-1.3-.4-2-13-2-13.4-.1-1.7-2.2-1.6-3.2-.8-4.4 3.2-6.8 5.7-9.3 10.1 1-.4 2-.7 2.9-1.1.3.1-.9-4.5-1.1-5.7-.7-3.9-1.1-8-.7-12 1.1-13 14.6-19.5 26.1-13.9 1 .5 3-.2 3-1.5v-56.9c-.7.5-1.4 1.1-2.1 1.6h8.6c-.6-.5-1.2-.9-1.8-1.4v60.8c0 .6.3 1 .9 1.2 2.5 1 4.6 2.3 6.6 4.1 1.4 1.5 4.7-.5 3-2z"/><path id="XMLID_1555_" class="st0" d="M253.4 467.2c2-2 4.4-3.4 7-4.3v-60.8h8.6V459c7.7-4.2 18.1-2.6 25.2 4.5 8.4 8.5 1.3 33.4 1.1 29.3-.1-2.4-3.8-5.5-8.6-9-.2 8.6-2.9 16.6-2.9 14.2-.3-7.8-38.2-23.1-30.4-30.8z"/><path class="st1" d="M254.9 467.4c1.8-1.8 3.8-3 6.2-3.9.5-.2 1.2-.5 1.2-1.2v-60.8l-2.7 1.5c1.8 0 7-1 8.4 0-1.5-1.1-.9 1.9-.9 2.9v53.6c0 1 2.7.1 3.1-.1 12.1-5.9 25.1 3 26.1 15.4.3 4 0 8.1-.8 12.1-.3 1.4-2 6-.8 5.6.9 0 1.8.1 2.6.1-2.4-4.2-4.7-6.6-8.9-9.6-.7-.5-3.6-.2-3.7 1-.2 3.2-.5 6.4-1.2 9.6-.4 2-2.1 4.6 0 3.9l2.1.3c-1.5-8-36.8-23.6-30.6-30.7 1-1.1-2.8-.8-3.5.1-7.9 9.1 28.7 23.1 30.3 31.7.1.7 1.8.4 2.1.3 4.9-1.4 4.3-12 4.5-15.7-1.2.3-2.5.7-3.7 1 4 2.9 6.3 5.2 8.6 9.2.5.8 2 .4 2.6.1 2.5-.9 2.7-5.3 3.1-7.5 1-5.8 1.6-12.3-.2-18-4-12.8-20.7-15-31.3-9.8 1 0 2-.1 3.1-.1v-56.9c0-.4-.9-.4-1.1-.4h-8.6c-.8 0-2.7.4-2.7 1.5v60.8l1.2-1.2c-3 1.2-5.4 2.6-7.8 4.7-1.3 1.5 2.5 1.2 3.3.5z"/></g><path class="st2" d="M449.7 217.2c-6.1-12.5-19.3-19.4-31.8-17.3-3.2.5-6.3 1.7-9.1 3.3-.3-37.2-1.5-73-3.3-107.5 0-13.6-5.5-25.9-14.5-34.8-1.6-1.6-3.2-3-4.9-4.3-.3-.9-.6-1.9-1-2.8-5.5-14.6-.5-27.5-5.7-33.6-7.1.1-30.9 3.8-43 9.7-7.6 3.7-13.4 8.2-17.7 12.1-13.3-1.2-27.3-2.1-42-2.6-8.5-2.1-17.9-5-27.7-9.1-19.5-8.1-34.4-18-44.7-26.1l36.6 32c-6-1.8-12.2-4-18.7-6.7-19.5-8.1-34.4-18-44.7-26.1L219 39.7c-10.2.4-20.1 1.1-29.7 1.8-4.4-4.3-10.8-9.7-19.6-14-12.1-5.8-35.9-9.5-43-9.7-5.2 6.1-.2 19-5.7 33.6-.2.6-.5 1.3-.7 1.9-3.5 2.1-6.8 4.6-9.7 7.5-13.9 14.3-14.2 31.7-14.3 35-2.9 33.5-4.8 69.4-5.3 107.4-2.7-1.5-5.7-2.6-8.9-3.2-12.5-2.1-25.7 4.8-31.8 17.3-4.8 13.7-12.1 40.1-8.3 73.4 3.9 34.1 17.4 58.6 25.3 70.9 8.6-16.5 17.8-37.2 25.4-61.8 0-.1.1-.3.1-.4.9 17.2 2 34 3.4 50.1 0 13.6 5.5 25.9 14.5 34.8 14.1 14.1 31.5 14.5 34.8 14.5 33.8 3.5 71.3 5.6 112 5.4 35.5-.2 68.5-2.3 98.6-5.4 13.6 0 25.9-5.5 34.8-14.5 14.1-14.1 14.5-31.5 14.5-34.8.9-16 1.6-32.2 2.1-48.8 7.5 24.2 16.6 44.6 25.1 60.9 7.9-12.2 21.5-36.8 25.3-70.9 3.9-33.3-3.3-59.8-8.2-73.5z"/><path class="st1" d="M453.8 220.1c-8.7-16.5-31.2-29.2-48.9-19.7 2.7 1.9 5.4 3.9 8 5.8-.3-30.2-1.1-60.4-2.5-90.5-.6-13.1 0-26.7-6-38.8-2.5-5.1-6-9.8-10.1-13.7-5.3-5.1-6.9-10.6-7.7-17.9-.9-8.5 1.7-18.4-6-24.1-1.9-1.4-3.7-3.2-5.9-3.6-3.8-.7-9 .9-12.7 1.6-10.3 1.7-21 3.9-30.4 8.6-5.1 2.5-9.8 5.7-14.2 9.4-3 2.5-4.4 2-8.4 1.7-4-.3-8.1-.6-12.1-.9-8.1-.5-16.9 0-24.9-1.5-7.1-1.3-14.3-4.1-21.1-6.7-14.8-5.6-29.8-12.9-42.4-22.7-2.5-2-5.5-3.6-7.9-5.7 10 8.8 20.1 17.5 30.1 26.3 1.6 1.4 4.5 3.1 5.6 4.9.1.2.8.5.8.7 0-.2-10.8-3.6-11.5-3.8-15.4-5.7-30.9-13.2-43.9-23.2-2.5-2-5.5-3.6-7.9-5.7 8.9 7.8 17.7 15.5 26.6 23.3 4.1 3.6 10.2 7.3 13.5 11.8.2.2 1.2.8 1.2 1.1 0 .4-3.9.4-4.9.4-8.2.4-16.4 1-24.6 1.6 2.7 1.9 5.4 3.9 8 5.8-8.2-8-18.5-15.7-29-20.4-6.4-2.8-13.4-4.6-20.2-6-5.7-1.2-13.8-3.8-19.7-3-2.8.4-3.3 1.9-4 4.9-.7 3.4-.5 7.1-.6 10.6-.1 3.6-.3 7.3-1 10.9-.4 2.2-.9 5.1-2 7.1-1.5 2.7-3.3 3.5-5.8 5.4-11.4 8.8-17.9 22.2-19 36.4-1.3 17.3-2.6 34.7-3.5 52-.5 9.1-.9 18.1-1.2 27.2-.2 5.1-.3 10.1-.4 15.2-.1 2.6-.1 5.1-.2 7.7 0 1.7-.1 3.4-.1 5.2.7 2.9 0 3.4-2.1 1.5-2-.1-4.7-1.8-6.8-2.1-1.8-.3-3.6-.4-5.4-.4-3.6.1-7.2.9-10.5 2.4-7.2 3.1-13.4 9.1-16.3 16.4-4.9 12.3-7.2 26.3-8.4 39.4-3.2 36.4 6.1 73.1 25.8 103.8.6.9 8.2 5.4 8 5.8 10.3-19.9 19-40.7 25.5-62.2-2.7-1.9-5.4-3.9-8-5.8 1 18.7 1.4 37.9 3.8 56.4 1.8 13.7 9.3 25.5 20.2 33.7 8.5 6.4 17 12 27.6 14.1 11.9 2.3 24.7 2.5 36.8 3.4 36.5 2.8 73.2 3.6 109.8 2.4 17.6-.6 35.3-1.6 52.8-3 16.1-1.3 33.4-.8 47.3-10 12.3-8.2 20.3-21.6 21.9-36.2 2-17.7 1.8-35.9 2.4-53.6-2.7-1.9-5.4-3.9-8-5.8 6.6 21 14.9 41.3 25.1 60.9.5.9 8.2 5.5 8 5.8 27.7-43 34.1-96.6 17.4-144.6-.9-2.6-7.2-3.3-8-5.8 16.7 47.9 10.4 101.6-17 144.3 2.7 1.9 5.4 3.9 8 5.8a380.56 380.56 0 0 1-25.1-60.9c-.6-1.9-8.1-4-8-5.8-.6 16.6-1.2 33.2-2.1 49.8-.6 10.4-3.8 20.5-10.1 28.8-8.6 11.3-21.8 18.4-36 19.3-15.6 1-31.2 2.7-46.8 3.7-35 2.1-70.1 2.4-105.2.9-15.5-.7-31-1.7-46.5-3-9.9-.9-20.7-.8-30.2-3.9-7.5-2.4-12.4-6-17-12.3-4.4-6-7.3-13-8.6-20.4-1.6-9.1-1.6-18.8-2.3-28-.7-10.1-1.3-20.3-1.9-30.5-.1-1.5-8.4-4.6-8-5.8-6.5 21.5-15.1 42.3-25.5 62.2 2.7 1.9 5.4 3.9 8 5.8-22.3-34.7-31-77.1-23.9-117.8 3-17.2 7.1-37.4 26.3-43 4.4-1.3 9.1-1.5 13.6-.5.6.1 7.4 3.1 7.7 2.9.9-.5.2-10.1.2-11.6.3-13.4.7-26.7 1.4-40.1 1-20.6 1.2-41.8 4.2-62.2 1.3-9.1 5.1-17.8 11-24.9 3.5-4.2 8.1-6.6 11.8-10.3 3.8-3.8 4.1-12.1 4.4-17.3.2-4.5-.2-9.2.7-13.7 1-4.8 2.4-5.1 6.8-4.7 8.7.9 17.4 2.6 25.8 4.9 4.3 1.2 8.5 2.5 12.6 4.5 1.4.7 10.4 6.3 6.5 3.5-3.6-2.6.9.8 2 1.9 1 .9 2 2 3 2.8 1.7 1.5 3.7 2.7 5.5 4 3.8 2.7 7.6 1.3 12.2 1 1.9-.1 19.9-1.4 20-1.1-.1-.5-2.2-1.9-2.5-2.2l-13.8-12c-8.4-7.3-16.8-14.7-25.2-22-2.6-1.9-5.3-3.8-7.9-5.7C183.2 8 193 15 203.3 21.1c8.5 5 17.5 9.3 26.7 12.9 1.5.6 14.8 4.2 15.1 5.2-.1-.3-1-.8-1.2-1-2-2.5-5.3-4.6-7.7-6.8l-12.3-10.8c-5.1-4.5-10.2-8.9-15.3-13.4-2.6-1.9-5.3-3.8-7.9-5.7C226 21.1 257.2 41.3 290 42.8l16.2.9c4.8.3 11 2 15.6 1.2 3.2-.6 6.7-4.6 9.6-6.6 3.6-2.4 7.3-4.6 11.3-6.3 12.4-5.3 27.5-8.3 41-8.8-2.7-1.9-5.4-3.9-8-5.8 3.6 5 2.6 11.8 2.8 17.6.2 5.8.7 13.9 4 18.9 2.3 3.4 6.7 6 9.3 9.4 2.2 2.9 4.1 6.1 5.6 9.5 3.1 6.8 4 13.9 4.4 21.3 1.5 35.4 2.9 70.8 3.2 106.3 0 .6 7.8 5.9 8 5.8 6.2-3.3 12.9-4.5 19.8-3 7.1 1.6 9.3 4.2 13 11.2 1.3 2.6 6.6 3.2 8 5.7z"/><path id="XMLID_1554_" class="st3" d="M240.9 123.6c12.5 33.5 20.1 102.2-31.5 134.2-45.8 28.3-105.9 14.2-134.2-31.5-31.6-50.9 2.9-108.9 31.5-134.3 6.6-5.9 42.7-38 82.5-25.8 34.1 10.4 47.5 46.1 51.7 57.4z"/><path class="st1" d="M236.9 123.6c11.3 30.6 13.7 67.8.1 98-18.5 41.1-68.4 60.1-110 44.3-19.8-7.6-36.8-21.6-48-39.6-12.7-20.5-15.3-44.9-9.3-68.1 9-34.9 34-66.7 65.8-83.7 13.3-7.1 28.9-12.4 44-9.5 12.1 2.3 23.2 8.7 32.1 17.2 11.9 11.3 19.6 26.1 25.3 41.4.5 1.4 7.8-.3 7.9 0-5.7-15.3-13.4-30.1-25.2-41.5-15.5-15-36-20.5-57.2-18.6-39.4 3.6-73.2 35.2-90.7 69-11.9 23.2-17.3 50.4-9 75.7 7.5 22.9 25.1 42.2 46.3 53.3 36.8 19.2 87.9 14.8 118.3-14.5 32.2-31.1 32.1-83.8 17.5-123.3-.5-1.5-7.8.1-7.9-.1z"/><path id="XMLID_1553_" class="st3" d="M264.3 127.6c-12.5 33.5-20.1 102.2 31.5 134.2 45.8 28.3 105.9 14.2 134.2-31.5 31.5-50.9-2.9-108.8-31.5-134.2-6.6-5.9-42.7-38-82.5-25.8-34.1 10.3-47.5 46.1-51.7 57.3z"/><path class="st1" d="M260.3 127.6c-12.7 34.3-14.4 77.9 6.1 109.6 24.1 37.2 75.5 48.6 115.9 34.5 21.3-7.4 39.7-21.9 51.6-41.1 14.3-23.1 15.7-50.6 7.2-76-12.3-37-42.5-71-80-83.7-23.7-8-50.6-5.4-70.4 10.5-14.7 11.9-23.8 28.8-30.4 46.2-.3.7 7.2 2 7.9 0 5.1-13.5 11.5-26.4 21.2-37.2 16.6-18.5 40.2-26.1 64.3-18.5 34.5 10.9 62.7 41.7 76.3 74.4 9 21.5 11.7 45.7 3.8 68-7.5 21.1-23.8 39.1-43.4 49.8-38.4 20.9-89.6 11.4-115-25.4-21.8-31.5-20-76.3-7.2-111 .4-.8-7.1-2.1-7.9-.1z"/><path id="XMLID_1552_" class="st3" d="M250.7 272.8c-55.3 0-104.4 93-92.4 127 .1.4.3.7.4 1.1 28.9 2.5 60.4 3.9 94 3.7h.4c.3-.1.5-.1.6-.1.2 0 .5 0 .9.1 31.4-.3 60.8-1.9 87.9-4.5.2-.5.4-1.1.6-1.6 12.1-33.9-36.9-125.7-92.4-125.7z"/><path class="st1" d="M252 272c-23.2.3-43.4 14.2-58.5 30.8-17.1 18.8-30.6 42.5-36.5 67.3-2.4 10-4 21.4-.1 31.2.1.1.2.2.3.2 61.4 5.2 123.1 4.9 184.5-.8.6-.1 2.4-.4 2.7-1.1 4.4-11.1 2.4-23.8-.7-35-4.2-15.2-11.3-29.8-20-42.9-15.9-24.2-40.7-49.2-71.7-49.7-.8 0-4.3 1.4-2.5 1.5 31.4.4 56.6 27.3 72.1 52 7.9 12.5 14.3 26 18.2 40.3 3.1 11.1 5.2 23.7.8 34.7.9-.4 1.8-.7 2.7-1.1-29.5 2.7-59.1 4.1-88.8 4.4-15.2.2-30.5-.1-45.7-.6-6.8-.3-13.5-.6-20.3-1-7.7-.4-16.2-.2-23.8-1.6-5.2-1-5.4-2.8-6-7.6-.5-3.6-.4-7.2-.1-10.7.7-8.2 2.7-16.2 5.4-24 6.2-18.1 15.9-35.1 27.9-49.9 14.1-17.3 34-34.5 57.6-34.8.7-.1 4.3-1.6 2.5-1.6z"/><g class="st4"><ellipse id="XMLID_1551_" class="st5" cx="162.9" cy="171.6" rx="25.6" ry="43.2"/><g class="st6 st6"><path class="st7" d="M184.3 191.2l.4-1.1c-.3 0-.6-.3-.8-.7-.1-1.4-1.2 2.7-3.2 6.9.5.5 1.7-.6 3.6-5.1z"/><path class="st8" d="M193.7 173.4l-.3-1.8c0 .1-.1.1-.1.2.2.5.3 1.1.4 1.6z"/><path class="st7" d="M188.8 178c-.2 1.5-.3 2.8-.5 3.9-.1 1.1-.2 2.2-.4 3.3.6-1.2 1-2.1 1.5-2.7.5-.8 1.2-2 1.6-3.4 0-1 0-2.5.1-3.8-.2.7-.2.7-.1 1.6 0-.5 0-1.2-.1-1.8 0-.6-.1-1.1-.1-1.1-.2.2-.4 1.3-.6 2.6-.2 1.3-.4 2.9-.5 4.2 0-1.5 0-3.7-.1-5.4-.1.5-.3.9-.5 1.5-.1.7-.2 1.3-.3 1.9v-.8zm-16.6 24.5c.2-.1.3-.2.5-.4.3-.7.7-1.4 1.1-2.3l-.8.7-.8.6c-.2.4-.4.8-.7 1.2h-.3c0-.1 0-.3.2-.6h-.1c-.3.3-.6.4-.9.6h.4c-.4.4-.8.7-1.1 1-.3.3-.5.5-.5.7.4.2 1.8-.7 3-1.5z"/><path class="st9" d="M159.2 205.7c-.1.4-.3.7-.7 1 .6.1 1.1.5 1.7.8.6.2 1.2.6 1.7.4-.7.9.9 2.1 3.6 2.1 2.6.1 5.9-1.5 7.2-1.9 1.7-.5 3.7-2.1 5.7-4.1 1.9-2 3.6-4.3 5-6.2.2-.9-.1-.9.5-2.6-.6.9-1.2 2-1.7 3.4-.1.3-.2.5-.3.8.1-.3.2-.5.3-.8.3-1 .7-1.9 1.2-3.1-.2.4-.4.6-.4.5 0-.2.1-.5.2-.8-1.2 1.7-2.4 3.3-3.6 4.3-1.1 1-2.1 1.5-2.7 1.2l-.7.9c-2.9 3.3-4.3 3.6-4.6 3.1-1.8 1.5-3.8 2.8-5.1 2.9-2.3.3-4-.4-5.3-1.4-.3 0-.6.1-.8 0-.3-.1-.6-.1-.8-.1l-.4-.4z"/><path class="st10" d="M189.8 171.6c.5-.3 1-1.2 1.5-2.6.2-.7.5-1.5.7-2.4.2-.9.3-2 .4-3.1.4-4.5-.1-10.4-2.2-16.3-2-6-4.9-12-9.9-17.2-2.5-2.5-5.5-5-9.3-6.5-3.8-1.5-8.2-2.1-12.5-1.2.6.1 1 .3 1.1.5.1.2-.1.5-.6.8-.5.3-1.2.8-2.1 1.2-.5.2-1 .6-1.6.9-.6.4-1.2.7-1.9 1.1-.7.5-1.5 1-2.3 1.5-.8.5-1.6 1.2-2.5 1.8-.8.6-1.4 1.2-2 1.7-.5.5-.9 1-1.1 1.3-2 3-2.8 5-3.6 7.2-.8 2.2-1.6 4.5-2.7 8.3.8-1.2 1.3-1.1 2-2.5 2.3-3.7 4.9-8.3 9.1-13.3.7-.7 1.9-1.4 2.6-1.5.7-.1.7.2-.8 1.7 2.1-1.6 4-2.6 5.9-3.4 1-.3 1.9-.6 2.8-.8l1.4-.2.7-.1.7.1c.7 0 1.3.1 1.9.2.5.2 1 .3 1.4.4.4.1.8.2 1.1.4.3.2.5.3.7.4.8.5.9.9.7 1.1-.3.6-1.3.9-.2 2.1.3.5.8 1.1 1.4 1.7 2.9 1.6 5.6 3.9 7.9 6.7 2.3 2.8 4.3 5.9 5.9 9.4.7 1.6.9 4.3 1.4 6 .9 3.2 1.7 7 2.3 10 .8 2.9 1.3 5 1.7 4.6z"/><path class="st11" d="M131.3 167.1c-.1-2.3-.2-4.7.2-7.3-1 3.8-1.6 7.6-2.1 11.4.2 1 .5 2.1.7 3.1 0-3 .5-5.5 1.2-7.2z"/><path class="st11" d="M163.5 132.7c.4-.5 0-.8-.7-1.1-.4-.1-.9-.2-1.4-.3-.3 0-.5-.1-.8-.2-.3 0-.5 0-.8-.1-4.3 1.8-6.8 3.9-9.4 5.3 0 .3-1.4 1.8-1.9 2.5-.1-.4-1.6.9-.7-.6-.5.7-1 1.5-1.5 2.2-.2.3-.5.7-.7 1-.2.3-.3.6-.3.9-1.6 2.3.4-2.3-.9-.9-1.9 4.8-3.5 9-4.7 11.6-.7 1.3-1.2 2.2-1.7 2.6-.4.3-.8.1-.9-.9-.2-.8-.1-1.9 0-3 0-1.1.1-2.3 0-3.3-.3-2 2.3-7 4.7-10.3-1.1.7-4.1 5.8-3.1 2.7.6-1.5 1.2-3.1 2-4.6.4-.7.7-1.5 1-2.1.4-.7.7-1.3.9-1.8-3 3.7-5.2 8.2-6.7 12.3-1.5 4.1-2.4 7.8-3.1 10-.3.9-.5 1.7-.8 2.5-.3.8-.5 1.7-.7 2.5-.3 2.6-.3 5.1-.2 7.3-.7 1.7-1.2 4.2-1.2 7.2.3 1.2.6 2.2.9 2.7.6 1.3.6-.6.8-3.2 0-.6.1-1.3.1-2 .1-.7.2-1.4.2-2 .2-1.3.4-2.4.6-3 0 5.4.8 8.5 1.5 9.8.8 1.3 1.5.7 2.1-1 .4-1.2.7-2.5 1-4 .4-1.5.7-3.2 1.2-5.2.2-1.1.3-2.4.5-3.7.2-1.4.3-2.8.4-4.1-.1.9-.1 3.6.1 3 1.3-4.8 2.7-6.6 4.6-12.7.2.3.5-.2.1 1.5.4-1.7.7-1.9 1.1-2.1.4-.2.7-.4 1.2-2 .7-.6 1.3-.5 1.9-.9.7-.3 1.3-1 2.5-2.8.1-.3.3-.5.4-.7.2-.2.3-.4.4-.6.3-.4.5-.7.8-1 1.5-2.4 3.6-4.8 6.6-6.1 2.1-.8 4.2-1.1 6.4-.8-.3-.1-.5-.1-.8-.2-.2-.1-.5-.1-.6-.1 0 0-.3-.1-.4-.2z"/><path class="st12" d="M169.3 133.3c-1.1-1.2-.1-1.5.2-2.1.1-.3 0-.6-.7-1.1-.2-.1-.4-.3-.7-.4-.3-.1-.7-.2-1.1-.4-.4-.1-.9-.3-1.4-.4-.6-.1-1.2-.1-1.9-.2l-.7-.1-.7.1-1.4.2c-1 .2-1.9.5-2.8.8-1.8.8-3.8 1.8-5.9 3.4 1.5-1.5 1.5-1.7.8-1.7-.7.1-1.9.9-2.6 1.5-4.2 5-6.8 9.6-9.1 13.3-.7 1.4-1.3 1.4-2 2.5 1.1-3.8 1.9-6.1 2.7-8.3.8-2.2 1.6-4.2 3.6-7.2.1-.3.6-.7 1.1-1.3.6-.5 1.2-1.2 2-1.7.8-.6 1.6-1.2 2.5-1.8.9-.5 1.7-1 2.3-1.5.7-.4 1.3-.8 1.9-1.1.6-.3 1.1-.7 1.6-.9 1-.5 1.7-.9 2.1-1.2.4-.4.6-.6.6-.8-.1-.2-.5-.4-1.1-.5-1.5.3-3 .7-4.4 1.3l-2.1.9-1.9 1.1c-1.3.7-2.3 1.7-3.5 2.6-1.1.9-2 2-3 3-.3.4-.6.8-1 1.2-.3.5-.6 1.2-.9 1.8-.4.6-.7 1.4-1 2.1-.8 1.5-1.4 3.1-2 4.6-1 3.2 1.9-2 3.1-2.7-2.4 3.4-5 8.4-4.7 10.3.1 1 0 2.2 0 3.3 0 1.1-.1 2.2 0 3 .1 1 .5 1.3.9.9.4-.3 1-1.3 1.7-2.6 1.2-2.7 2.9-6.9 4.7-11.6 1.3-1.5-.8 3.2.9.9l.3-.9c.2-.3.4-.6.7-1 .5-.7 1-1.4 1.5-2.2-.9 1.5.6.3.7.6.4-.7 1.9-2.3 1.9-2.5 2.7-1.4 5.2-3.5 9.4-5.3.3 0 .5.1.8.1.3 0 .5.1.8.2.5.1.9.2 1.4.3.8.3 1.1.6.7 1.1.1.1.3.2.7.3.2 0 .4 0 .6.1.2.1.5.1.8.2 1.7.1 3.4.9 5.1 1.7-.7-.8-1.2-1.4-1.5-1.9z"/><path class="st13" d="M151 142.4c-1.1 1.7-1.8 2.4-2.5 2.8-.7.3-1.3.3-1.9.9-.5 1.6-.8 1.8-1.2 2-.4.2-.7.4-1.1 2.1.4-1.7 0-1.1-.1-1.5-1.8 6.1-3.3 7.8-4.6 12.7-.2.6-.2-2.1-.1-3-.1 1.3-.2 2.8-.4 4.1-.2 1.4-.3 2.7-.5 3.7-.5 2-.8 3.7-1.2 5.2-.3 1.5-.6 2.7-1 4-.6 1.8-1.3 2.3-2.1 1-.7-1.3-1.5-4.4-1.5-9.8-.2.6-.4 1.7-.6 3-.1.6-.2 1.3-.2 2s-.1 1.4-.1 2c-.2 2.6-.2 4.5-.8 3.2-.4-.5-.6-1.5-.9-2.7-.2 3.6.4 7.8 1.3 12s2.4 8.4 4 12.1c.4.1.6-.3.3-1.5-.2-1.1-.4-2.1-.5-2.8-.1-.8 0-1.4 0-1.8.1-1 .3-1.5.6-1.9.5-.9 1.2-1.5 1.2-5 0-.7-.1-2-.1-3.2-.1-1.2-.1-2.3-.1-2.7.7-3.1 2.1.2 2.8-2.9.2.2-.3-4.8.1-5.2.8-1.7 1.7-.7 2.1-4.2.2-1.2.4-2.3.6-3.3.2-1 .5-1.9.8-2.7.5-1.6 1.1-2.9 1.7-4 .5-1.1 1.2-2 1.8-2.8l.9-1.2 1-1.1c.9-4.4 1.9-8.3 4.2-12.1-.3.3-.5.6-.8 1-.1.2-.3.4-.4.6-.4.5-.6.7-.7 1z"/><path class="st14" d="M189.3 209.7c.4-.6.7-1.2 1.1-1.8.3-.6.6-1.2.9-1.7.6-1.1 1.2-2.2 1.6-3.3-2.7 4.8-5.6 8-8.3 10.2-1.3 1.1-2.7 1.9-3.8 2.6-1.3.6-2.4 1.1-3.5 1.4-.3.1-1.6.8-3.4 1.8-.9.4-2.1.9-3.2 1.4-1.2.4-2.6.7-3.9 1-1.4.1-2.8.3-4.1.2-1.3-.1-2.6-.3-3.7-.5-1.1-.3-2-.7-2.7-1-.7-.3-1.2-.7-1.4-1 .2-.1.6 0 1 .1.6.1 1.2.2 1.9.3 1.5.3 3.5.4 5.7.3-1 0-2-.3-2.9-.5-.9-.1-1.7-.5-2.4-.8-.7-.3-1.4-.6-2-1-.6-.4-1.1-.7-1.6-1.1-1-.6-1.6-1.5-2.2-2.1-.3-.4-.6-.7-.8-1-.2-.4-.4-.7-.6-1-.4-.7-.8-1.3-1.1-2-.3-.7-.6-1.4-1-2.1-.4-.7-.7-1.6-1.1-2.4-.4-.8-.8-1.8-1.3-2.9-1.9-4.4-2.4-8.8-2.4-12 .1-1.7.3-3 .6-4.1.4-1.1.8-1.8 1.4-2.1.9-.4.4-6.2 1.1-10.9-.4-1.8-.5-3.7-.7-5.5-.3 1.3-.7 2.5-1 3.5-.3 1-.6 1.7-.9 2-1.1.8-2.1 2.3-2.6 4.8-.6 2.5-.8 6.2 0 11.4.5 3.4-2.1 1.5-1.8 3.5.1 1 .2 1.9.2 2.8.1.9.2 1.7.3 2.6.2 1.7.5 3.1.7 4.6.2 1.5.6 2.8 1 4.3.4 1.4.9 2.8 1.5 4.4.2.6.7 1.5 1.4 2.7.6 1.1 1.8 2.4 3 3.7 2.7 1.8 5.6 3.5 9.1 4.3 1.7.5 3.5.6 5.3.8.9.1 1.8 0 2.7-.1.9-.1 1.8-.1 2.7-.3 1.2-.3 2.4-.6 3.4-1s1.9-.8 2.7-1.1c1.6-.7 2.8-1.4 3.9-2 1-.6 1.8-1.1 2.5-1.4.7-.4 1.4-.7 1.9-1 1.1-.6 2-1.1 3.2-2l1.8-1.8c.3-.4.7-.8 1-1.3.1-.8.4-1.3.8-1.9z"/><path class="st15" d="M141.7 167.2c-.4 3.5-1.3 2.6-2.1 4.2-.4.4.1 5.4-.1 5.2-.7 3-2.1-.3-2.8 2.9-.1.3 0 1.5.1 2.7.1 1.2.1 2.5.1 3.2 0 3.4-.7 4.1-1.2 5-.3.4-.5.9-.6 1.9 0 .5-.1 1.1 0 1.8.1.8.2 1.7.5 2.8.3 1.2.1 1.5-.3 1.5v.1c-1.2-.9.8 3.8 1.5 5 .8 1.4 1.4 2.7 2.1 3.8.7 1.1 1.2 2.1 1.9 3 .7.9 1.2 1.8 1.9 2.8.8.9 1.5 1.9 2.6 3 .9.8 1.8 1.5 2.7 2.3-1.2-1.4-2.3-2.6-3-3.7-.7-1.1-1.2-2-1.4-2.7-.6-1.6-1.1-3-1.5-4.4-.3-1.4-.7-2.8-1-4.3-.2-1.5-.5-2.9-.7-4.6-.1-.8-.2-1.7-.3-2.6-.1-.9-.2-1.9-.2-2.8-.2-2 2.3-.1 1.8-3.5-.8-5.2-.6-8.9 0-11.4s1.5-3.9 2.6-4.8c.3-.3.6-1.1.9-2 .3-1 .7-2.2 1-3.5-.1-1.6-.2-3.1-.1-4.6 0-.8.3-1.7.5-2.5.1-.4.2-.7.3-.9l.2-.4c.2-1.3.3-2.6.6-3.8.2-1.2.4-2.4.6-3.5l-1 1.1-.9 1.2c-.6.8-1.3 1.7-1.8 2.8-.6 1.1-1.2 2.4-1.7 4-.2.8-.6 1.7-.8 2.7 0 .7-.2 1.8-.4 3z"/><path class="st16" d="M195.9 195.4c.3-1.4.6-3 1-4.3.7-3.9 1.1-3.2 1.5-5 0 0-.1.2-.1.4l-.2.4.3-1.2c-.9 1.7-1.8 2.6-2.4 2.4-.5 2.3-1.1 4.1-1.7 4.9-.5.6-.9 1.2-1.3 1.8l-1.4 1.6c-1 1.2-2.1 2.4-3.1 3.6-.6.7-1.2 1.5-1.9 2.3-.7.8-1.4 1.8-2.3 2.8-.9 1-1.8 2.2-3 3.3-1.1 1.2-2.5 2.5-4.1 3.8-2.8 2-2.9 1.2-3.4.6-.2-.3-.6-.6-1.3-.6-.4 0-.9.1-1.5.3-.6.2-1.4.3-2.4.6-1.3.4-3.3.7-5 .6-1.7-.2-3.1-.6-3.4-1.1-.1-.6.8-.9 1.1-1.4.2-.3.2-.5-.1-.8-.3-.3-.8-.6-1.7-1.1-2.3-1.2-4.2-3.2-5.5-5.3-.4-.5-.7-1.1-.9-1.6-.3-.6-.6-1-.8-1.6-.2-.5-.4-1.1-.6-1.6l-.3-.8-.2-.8c-.5-2-.6-3.8-.6-5.2.1-1.4.4-2.4.9-3-1.2-4.4-3.1-9.9-4.1-15.9-.7 4.7-.2 10.5-1.1 10.9-.5.3-1 1-1.4 2.1-.4 1.1-.5 2.4-.6 4.1-.1 3.3.5 7.6 2.4 12 .5 1.1.9 2.1 1.3 2.9.4.9.7 1.7 1.1 2.4.4.7.7 1.4 1 2.1.3.7.7 1.3 1.1 2 .2.3.4.7.6 1 .2.4.5.7.8 1 .6.7 1.3 1.5 2.2 2.1.5.3 1 .7 1.6 1.1.6.4 1.3.6 2 1 .7.3 1.5.7 2.4.8.9.2 1.9.4 2.9.5-2.2.1-4.2 0-5.7-.3-.7-.1-1.3-.2-1.9-.3-.5-.1-.8-.1-1-.1.2.3.7.7 1.4 1 .7.3 1.7.7 2.7 1 1.1.3 2.4.4 3.7.5 1.3 0 2.8-.1 4.1-.2 1.3-.3 2.7-.6 3.9-1 1.2-.5 2.3-.9 3.2-1.4 1.7-1 3-1.7 3.4-1.8 1.1-.4 2.3-.8 3.5-1.4 1.1-.7 2.5-1.5 3.8-2.6 2.7-2.2 5.5-5.4 8.3-10.2.6-1.3 1.2-2.6 1.6-3.8.3-1.1.8-2.3 1.2-3.5z"/><path class="st17" d="M159.2 209.3c.9.4 1.4.8 1.7 1.1.3.3.2.5.1.8-.3.5-1.2.8-1.1 1.4.2.5 1.7.9 3.4 1.1 1.7.1 3.7-.3 5-.6 1-.3 1.8-.4 2.4-.6.6-.2 1.1-.3 1.5-.3.8 0 1.1.2 1.3.6.5.6.7 1.4 3.4-.6 1.6-1.3 3-2.5 4.1-3.8 1.2-1.2 2.1-2.3 3-3.3.9-1 1.6-2 2.3-2.8.7-.8 1.3-1.6 1.9-2.3 1.1-1.2 2.1-2.4 3.1-3.6l1.4-1.6c.5-.6.9-1.1 1.3-1.8.5-.7 1.2-2.6 1.7-4.9-.2-.1-.5-.4-.6-.9-.2-.3-.8 1.1-1.5 2.9-.8 1.8-1.7 3.9-2.5 5.2-.8.6-1 0-1-1.2s.1-3.1.3-4.9c0-.6 0-1.1-.1-1.7 0-.1.1-.1.1-.2v-1.4c-.5 1.1-1 2.2-1.4 3.2-.1.4-.2.8-.4 1.2 0-.2.1-.4.1-.7-.8 1.3-1.5 2.4-2.1 3.1-.6.5-1.3 1.4-2 2.4-.2.5-.4 1.1-.6 1.6.2-.5.3-.9.4-1.2-.6 1-1.4 2.1-2.1 3.2-.8 1.1-1.6 2.3-2.5 3.3-.9 1-1.8 2.1-2.7 2.8-.5.4-.9.8-1.3 1.1-.4.3-.9.5-1.3.7-1.3.6-4.4 2.6-7.2 3-.3.1-.7.1-1 .2h-.9c-.6 0-1-.1-1.4-.3-.7-.3-1-.7-.8-1.3-.5.2-1.2 0-1.8-.1-.3 0-.6-.2-.9-.3-.3-.1-.6-.2-.9-.2.4-.3.5-.7.5-1.1-.4-.4-.8-.7-1.2-1.1-.3-.4-.6-.8-.6-1 .2-.1.4 0 .7.2.3.2.6.3.9.5l-.1-.3-.2-.2c-.4-.1-.9-.4-1.3-.5-.6 0-1.3-.2-1.9-.3.2-.1.5 0 .8 0 .2 0 .3.1.5.2.2 0 .4.1.6.1h.8c-.7-.8-1.5-1.7-2.3-2.9-.2-.2-.5-.4-.7-.5.2.1.4.3.6.4l-.3-.5c-.1-.1-.3-.2-.4-.3-.1-.1-.3-.3-.5-.4-.3-.3-.7-.6-1.1-1-.8-.9-1.7-1.8-2.6-3 0-.5 0-1-.1-1.5 0-.5-.1-1.1-.2-1.6-.2-1.1-.4-2.3-.8-3.4-.5.5-.8 1.5-.9 3 0 1.4.1 3.2.6 5.2l.2.8.3.8c.2.5.4 1.1.6 1.6.2.6.5 1 .8 1.6.3.6.6 1.1.9 1.6 1.8 2.1 3.7 4.1 6 5.3z"/></g></g><path id="XMLID_1550_" class="st18" d="M173.6 170.7c-5.1 0-9.2-6.8-9.2-15.1 0-3.6.8-6.8 2-9.4-1.3-.5-2.7-.8-4.1-.8-9.3 0-16.8 12.3-16.8 27.6 0 15.2 7.5 27.6 16.8 27.6s16.8-12.3 16.8-27.6c0-1.6-.1-3.2-.3-4.8-1.5 1.5-3.3 2.5-5.2 2.5z"/><path class="st19" d="M174.3 169.6c-10-1.1-8.6-17.6-6-23.7.2-.5-.4-.7-.8-.8-9.6-3-17.3 3.6-20.9 12.1-4.8 11.2-4.4 26.3 2.4 36.6 4.7 7.1 13.2 10.1 20.7 5.2 10-6.5 11.9-20.7 11-31.5-.1-1.3-3-.3-3.5.2-1.1.6-2.3 1.3-3.4 1.9-1.8.3-3.1 2.6-.5 2.2 3-.5 4.8-1.4 7-3.4-1.2.1-2.3.1-3.5.2.7 8.7-2.4 35.4-17.1 30.1-11.2-4-13.2-21.4-12.1-31.3.6-5.4 2.2-10.8 5.4-15.3 1.8-2.6 5.8-6.9 9.2-4.8 2.3 1.4 1 2.1.6 4.4-.2 1.4-.3 2.7-.3 4.1 0 6.8 2.7 15.2 10.4 16 1.4.2 4-1.9 1.4-2.2z"/><g class="st4"><ellipse id="XMLID_1548_" class="st5" cx="339.4" cy="174.3" rx="25.6" ry="43.2"/><g class="st6 st6"><path class="st7" d="M360.8 193.9l.4-1.1c-.3 0-.6-.3-.8-.7-.1-1.4-1.2 2.7-3.2 6.9.4.5 1.7-.6 3.6-5.1z"/><path class="st8" d="M370.2 176.1l-.3-1.8c0 .1-.1.1-.1.2.2.6.3 1.1.4 1.6z"/><path class="st7" d="M365.2 180.8c-.2 1.5-.3 2.8-.5 3.9-.1 1.1-.2 2.2-.4 3.3.6-1.2 1-2.1 1.5-2.7.5-.8 1.2-2 1.6-3.4 0-1 0-2.5.1-3.8-.2.7-.2.7-.1 1.6 0-.5 0-1.2-.1-1.8 0-.6-.1-1.1-.1-1.1-.2.2-.4 1.3-.6 2.6-.2 1.3-.4 2.9-.5 4.2 0-1.5 0-3.7-.1-5.4-.1.5-.3.9-.5 1.5-.1.7-.2 1.3-.3 1.9v-.8zm-16.5 24.4c.2-.1.3-.2.5-.4.3-.7.7-1.4 1.1-2.3l-.8.7-.8.6c-.2.4-.4.8-.7 1.2h-.3c0-.1 0-.3.2-.6h-.1c-.3.3-.6.4-.9.6h.4c-.4.4-.8.7-1.1 1-.3.3-.5.5-.5.7.4.3 1.7-.6 3-1.5z"/><path class="st9" d="M335.6 208.5c-.1.4-.3.7-.7 1 .6.1 1.1.5 1.7.8.6.2 1.2.6 1.7.4-.7.9.9 2.1 3.6 2.1 2.6.1 5.9-1.5 7.2-1.9 1.7-.5 3.7-2.1 5.7-4.1 1.9-2 3.6-4.3 5-6.2.2-.9-.1-.9.5-2.6-.6.9-1.2 2-1.7 3.4-.1.3-.2.5-.3.8.1-.3.2-.5.3-.8.3-1 .7-1.9 1.2-3.1-.2.4-.4.6-.4.5 0-.2.1-.5.2-.8-1.2 1.7-2.4 3.3-3.6 4.3-1.1 1-2.1 1.5-2.7 1.2l-.7.9c-2.9 3.3-4.3 3.6-4.6 3.1-1.8 1.5-3.8 2.8-5.1 2.9-2.3.3-4-.4-5.3-1.4-.3 0-.6.1-.8 0-.3-.1-.6-.1-.8-.1l-.4-.4z"/><path class="st10" d="M366.2 174.3c.5-.3 1-1.2 1.5-2.6.2-.7.5-1.5.7-2.4.2-.9.3-2 .4-3.1.4-4.5-.1-10.4-2.2-16.3-2-6-4.9-12-9.9-17.2-2.5-2.5-5.5-5-9.3-6.5-3.8-1.5-8.2-2.1-12.5-1.2.6.1 1 .3 1.1.5.1.2-.1.5-.6.8-.5.3-1.2.8-2.1 1.2-.5.2-1 .6-1.6.9-.6.4-1.2.7-1.9 1.1-.7.5-1.5 1-2.3 1.5-.8.5-1.6 1.2-2.5 1.8-.8.6-1.4 1.2-2 1.7-.5.5-.9 1-1.1 1.3-2 3-2.8 5-3.6 7.2-.8 2.2-1.6 4.5-2.7 8.3.8-1.2 1.3-1.1 2-2.5 2.3-3.7 4.9-8.3 9.1-13.3.7-.7 1.9-1.4 2.6-1.5.7-.1.7.2-.8 1.7 2.1-1.6 4-2.6 5.9-3.4 1-.3 1.9-.6 2.8-.8l1.4-.2.7-.1.7.1c.7 0 1.3.1 1.9.2.5.2 1 .3 1.4.4.4.1.8.2 1.1.4.3.2.5.3.7.4.8.5.9.9.7 1.1-.3.6-1.3.9-.2 2.1.3.5.8 1.1 1.4 1.7 2.9 1.6 5.6 3.9 7.9 6.7 2.3 2.8 4.3 5.9 5.9 9.4.7 1.6.9 4.3 1.4 6 .9 3.2 1.7 7 2.3 10 .8 2.9 1.3 5 1.7 4.6z"/><path class="st11" d="M307.7 169.8c-.1-2.3-.2-4.7.2-7.3-1 3.8-1.6 7.6-2.1 11.4.2 1 .5 2.1.7 3.1 0-3 .6-5.5 1.2-7.2z"/><path class="st11" d="M340 135.4c.4-.5 0-.8-.7-1.1-.4-.1-.9-.2-1.4-.3-.3 0-.5-.1-.8-.2-.3 0-.5 0-.8-.1-4.3 1.8-6.8 3.9-9.4 5.3 0 .3-1.4 1.8-1.9 2.5-.1-.4-1.6.9-.7-.6-.5.7-1 1.5-1.5 2.2-.2.3-.5.7-.7 1-.2.3-.3.6-.3.9-1.6 2.3.4-2.3-.9-.9-1.9 4.8-3.5 9-4.7 11.6-.7 1.3-1.2 2.2-1.7 2.6-.4.3-.8.1-.9-.9-.2-.8-.1-1.9 0-3 0-1.1.1-2.3 0-3.3-.3-2 2.3-7 4.7-10.3-1.1.7-4.1 5.8-3.1 2.7.6-1.5 1.2-3.1 2-4.6.4-.7.7-1.5 1-2.1.4-.7.7-1.3.9-1.8-3 3.7-5.2 8.2-6.7 12.3-1.5 4.1-2.4 7.8-3.1 10-.3.9-.5 1.7-.8 2.5-.3.8-.5 1.7-.7 2.5-.3 2.6-.3 5.1-.2 7.3-.7 1.7-1.2 4.2-1.2 7.2.3 1.2.6 2.2.9 2.7.6 1.3.6-.6.8-3.2 0-.6.1-1.3.1-2 .1-.7.2-1.4.2-2 .2-1.3.4-2.4.6-3 0 5.4.8 8.5 1.5 9.8.8 1.3 1.5.7 2.1-1 .4-1.2.7-2.5 1-4 .4-1.5.7-3.2 1.2-5.2.2-1.1.3-2.4.5-3.7.2-1.4.3-2.8.4-4.1-.1.9-.1 3.6.1 3 1.3-4.8 2.7-6.6 4.6-12.7.2.3.5-.2.1 1.5.4-1.7.7-1.9 1.1-2.1.4-.2.7-.4 1.2-2 .7-.6 1.3-.5 1.9-.9.7-.3 1.3-1 2.5-2.8.1-.3.3-.5.4-.7.2-.2.3-.4.4-.6.3-.4.5-.7.8-1 1.5-2.4 3.6-4.8 6.6-6.1 2.1-.8 4.2-1.1 6.4-.8-.3-.1-.5-.1-.8-.2-.2-.1-.5-.1-.6-.1-.1 0-.4 0-.4-.2z"/><path class="st12" d="M345.8 136c-1.1-1.2-.1-1.5.2-2.1.1-.3 0-.6-.7-1.1-.2-.1-.4-.3-.7-.4-.3-.1-.7-.2-1.1-.4-.4-.1-.9-.3-1.4-.4-.6-.1-1.2-.1-1.9-.2l-.7-.1-.7.1-1.4.2c-1 .2-1.9.5-2.8.8-1.8.8-3.8 1.8-5.9 3.4 1.5-1.5 1.5-1.7.8-1.7-.7.1-1.9.9-2.6 1.5-4.2 5-6.8 9.6-9.1 13.3-.7 1.4-1.3 1.4-2 2.5 1.1-3.8 1.9-6.1 2.7-8.3.8-2.2 1.6-4.2 3.6-7.2.1-.3.6-.7 1.1-1.3.6-.5 1.2-1.2 2-1.7.8-.6 1.6-1.2 2.5-1.8.9-.5 1.7-1 2.3-1.5.7-.4 1.3-.8 1.9-1.1.6-.3 1.1-.7 1.6-.9 1-.5 1.7-.9 2.1-1.2.4-.4.6-.6.6-.8-.1-.2-.5-.4-1.1-.5-1.5.3-3 .7-4.4 1.3l-2.1.9-1.9 1.1c-1.3.7-2.3 1.7-3.5 2.6-1.1.9-2 2-3 3-.3.4-.6.8-1 1.2-.3.5-.6 1.2-.9 1.8-.4.6-.7 1.4-1 2.1-.8 1.5-1.4 3.1-2 4.6-1 3.2 1.9-2 3.1-2.7-2.4 3.4-5 8.4-4.7 10.3.1 1 0 2.2 0 3.3 0 1.1-.1 2.2 0 3 .1 1 .5 1.3.9.9.4-.3 1-1.2 1.7-2.6 1.2-2.7 2.9-6.9 4.7-11.6 1.3-1.5-.8 3.2.9.9l.3-.9c.2-.3.4-.6.7-1 .5-.7 1-1.4 1.5-2.2-.9 1.5.6.3.7.6.4-.7 1.9-2.3 1.9-2.5 2.7-1.4 5.2-3.5 9.4-5.3.3 0 .5.1.8.1.3 0 .5.1.8.2.5.1.9.2 1.4.3.8.3 1.1.6.7 1.1.1.1.3.2.7.3.2 0 .4 0 .6.1.2.1.5.1.8.2 1.7.1 3.4.9 5.1 1.7-.7-.8-1.2-1.3-1.5-1.9z"/><path class="st13" d="M327.5 145.1c-1.1 1.7-1.8 2.4-2.5 2.8-.7.3-1.3.3-1.9.9-.5 1.6-.8 1.8-1.2 2-.4.2-.7.4-1.1 2.1.4-1.7 0-1.1-.1-1.5-1.8 6.1-3.3 7.8-4.6 12.7-.2.6-.2-2.1-.1-3-.1 1.3-.2 2.8-.4 4.1-.2 1.4-.3 2.7-.5 3.7-.5 2-.8 3.7-1.2 5.2-.3 1.5-.6 2.7-1 4-.6 1.8-1.3 2.3-2.1 1-.7-1.3-1.5-4.4-1.5-9.8-.2.6-.4 1.7-.6 3-.1.6-.2 1.3-.2 2s-.1 1.4-.1 2c-.2 2.6-.2 4.5-.8 3.2-.4-.5-.6-1.5-.9-2.7-.2 3.6.4 7.8 1.3 12s2.4 8.4 4 12.1c.4.1.6-.3.3-1.5-.2-1.1-.4-2.1-.5-2.8-.1-.8 0-1.4 0-1.8.1-1 .3-1.5.6-1.9.5-.9 1.2-1.5 1.2-5 0-.7-.1-2-.1-3.2-.1-1.2-.1-2.3-.1-2.7.7-3.1 2.1.2 2.8-2.9.2.2-.3-4.8.1-5.2.8-1.7 1.7-.7 2.1-4.2.2-1.2.4-2.3.6-3.3.2-1 .5-1.9.8-2.7.5-1.6 1.1-2.9 1.7-4 .5-1.1 1.2-2 1.8-2.8l.9-1.2 1-1.1c.9-4.4 1.9-8.3 4.2-12.1-.3.3-.5.6-.8 1-.1.2-.3.4-.4.6-.5.5-.6.8-.7 1z"/><path class="st14" d="M365.8 212.4c.4-.6.7-1.2 1.1-1.8.3-.6.6-1.2.9-1.7.6-1.1 1.2-2.2 1.6-3.3-2.7 4.8-5.6 8-8.3 10.2-1.3 1.1-2.7 1.9-3.8 2.6-1.3.6-2.4 1.1-3.5 1.4-.3.1-1.6.8-3.4 1.8-.9.4-2.1.9-3.2 1.4-1.2.4-2.6.7-3.9 1-1.4.1-2.8.3-4.1.2-1.3-.1-2.6-.3-3.7-.5-1.1-.3-2-.7-2.8-1-.7-.3-1.2-.7-1.4-1 .2-.1.6 0 1 .1.6.1 1.2.2 1.9.3 1.5.3 3.5.4 5.7.3-1 0-2-.3-2.9-.5-.9-.1-1.7-.5-2.4-.8-.7-.3-1.4-.6-2-1-.6-.4-1.1-.7-1.6-1.1-1-.6-1.6-1.5-2.2-2.1-.3-.4-.6-.7-.8-1-.2-.4-.4-.7-.6-1-.4-.7-.8-1.3-1.1-2-.3-.7-.6-1.4-1-2.1-.4-.7-.7-1.6-1.1-2.4-.4-.8-.8-1.8-1.3-2.9-1.9-4.4-2.4-8.8-2.4-12 .1-1.7.3-3 .6-4.1.4-1.1.8-1.8 1.4-2.1.9-.4.4-6.2 1.1-10.9-.4-1.8-.5-3.7-.7-5.5-.3 1.3-.7 2.5-1 3.5-.3 1-.6 1.7-.9 2-1.1.8-2.1 2.3-2.6 4.8-.6 2.5-.8 6.2 0 11.4.5 3.4-2.1 1.5-1.8 3.5.1 1 .2 1.9.2 2.8.1.9.2 1.7.3 2.6.2 1.7.5 3.1.7 4.6.2 1.5.6 2.8 1 4.3.4 1.4.9 2.8 1.5 4.4.2.6.7 1.5 1.4 2.7.6 1.1 1.8 2.4 3 3.7 2.7 1.8 5.6 3.5 9.1 4.3 1.7.5 3.5.6 5.3.8.9.1 1.8 0 2.7-.1.9-.1 1.8-.1 2.7-.3 1.2-.3 2.4-.6 3.4-1s1.9-.8 2.7-1.1c1.6-.7 2.8-1.4 3.9-2 1-.6 1.8-1.1 2.5-1.4.7-.4 1.4-.7 1.9-1 1.1-.6 2-1.1 3.2-2l1.8-1.8c.3-.4.7-.8 1-1.3.2-.7.5-1.3.9-1.9z"/><path class="st15" d="M318.2 170c-.4 3.5-1.3 2.6-2.1 4.2-.4.4.1 5.4-.1 5.2-.7 3-2.1-.3-2.8 2.9-.1.3 0 1.5.1 2.7.1 1.2.1 2.5.1 3.2 0 3.4-.7 4.1-1.2 5-.3.4-.5.9-.6 1.9 0 .5-.1 1.1 0 1.8.1.8.2 1.7.5 2.8.3 1.2.1 1.5-.3 1.5v.1c-1.2-.9.8 3.8 1.5 5 .8 1.4 1.4 2.7 2.1 3.8.7 1.1 1.2 2.1 1.9 3 .7.9 1.2 1.8 1.9 2.8.8.9 1.5 1.9 2.6 3 .9.8 1.8 1.5 2.7 2.3-1.2-1.4-2.3-2.6-3-3.7-.7-1.1-1.2-2-1.4-2.7-.6-1.6-1.1-3-1.5-4.4-.3-1.4-.7-2.8-1-4.3-.2-1.5-.5-2.9-.7-4.6-.1-.8-.2-1.7-.3-2.6-.1-.9-.2-1.9-.2-2.8-.2-2 2.3-.1 1.8-3.5-.8-5.2-.6-8.9 0-11.4s1.5-3.9 2.6-4.8c.3-.3.6-1.1.9-2 .3-1 .7-2.2 1-3.5-.1-1.6-.2-3.1-.1-4.6 0-.8.3-1.7.5-2.5.1-.4.2-.7.3-.9l.2-.4c.2-1.3.3-2.6.6-3.8.2-1.2.4-2.4.6-3.5l-1 1.1-.9 1.2c-.6.8-1.3 1.7-1.8 2.8-.6 1.1-1.2 2.4-1.7 4-.2.8-.6 1.7-.8 2.7 0 .7-.2 1.8-.4 3z"/><path class="st16" d="M372.4 198.1c.3-1.4.6-3 1-4.3.7-3.9 1.1-3.2 1.5-5 0 0-.1.2-.1.4l-.2.4.3-1.2c-.9 1.7-1.8 2.6-2.4 2.4-.5 2.3-1.1 4.1-1.7 4.9-.5.6-.9 1.2-1.3 1.8L368 199c-1 1.2-2.1 2.4-3.1 3.6-.6.7-1.2 1.5-1.9 2.3-.7.8-1.4 1.8-2.3 2.8-.9 1-1.8 2.2-3 3.3-1.1 1.2-2.5 2.5-4.1 3.8-2.8 2-2.9 1.2-3.4.6-.2-.3-.6-.6-1.3-.6-.4 0-.9.1-1.5.3-.6.2-1.4.3-2.4.6-1.3.4-3.3.7-5 .6-1.7-.2-3.1-.6-3.4-1.1-.1-.6.8-.9 1.1-1.4.2-.3.2-.5-.1-.8-.3-.3-.8-.6-1.7-1.1-2.3-1.2-4.2-3.2-5.5-5.3-.4-.5-.7-1.1-.9-1.6-.3-.6-.6-1-.8-1.6-.2-.5-.4-1.1-.6-1.6l-.3-.8-.2-.8c-.5-2-.6-3.8-.6-5.2.1-1.4.4-2.4.9-3-1.2-4.4-3.1-9.9-4.1-15.9-.7 4.7-.2 10.5-1.1 10.9-.5.3-1 1-1.4 2.1-.4 1.1-.5 2.4-.6 4.1-.1 3.3.5 7.6 2.4 12 .5 1.1.9 2.1 1.3 2.9.4.9.7 1.7 1.1 2.4.4.7.7 1.4 1 2.1.3.7.7 1.3 1.1 2 .2.3.4.7.6 1 .2.4.5.7.8 1 .6.7 1.3 1.5 2.2 2.1.5.3 1 .7 1.6 1.1.6.4 1.3.6 2 1 .7.3 1.5.7 2.4.8.9.2 1.9.4 2.9.5-2.2.1-4.2 0-5.7-.3-.7-.1-1.3-.2-1.9-.3-.5-.1-.8-.1-1-.1.2.3.7.7 1.4 1 .7.3 1.7.7 2.8 1 1.1.3 2.4.4 3.7.5 1.3 0 2.8-.1 4.1-.2 1.3-.3 2.7-.6 3.9-1 1.2-.5 2.3-.9 3.2-1.4 1.7-1 3-1.7 3.4-1.8 1.1-.4 2.3-.8 3.5-1.4 1.1-.7 2.5-1.5 3.8-2.6 2.7-2.2 5.5-5.4 8.3-10.2.6-1.3 1.2-2.6 1.6-3.8.3-.9.7-2.2 1.2-3.4z"/><path class="st17" d="M335.7 212c.9.4 1.4.8 1.7 1.1.3.3.2.5.1.8-.3.5-1.2.8-1.1 1.4.2.5 1.7.9 3.4 1.1 1.7.1 3.7-.3 5-.6 1-.3 1.8-.4 2.4-.6.6-.2 1.1-.3 1.5-.3.8 0 1.1.2 1.3.6.5.6.7 1.4 3.4-.6 1.6-1.3 3-2.5 4.1-3.8 1.2-1.2 2.1-2.3 3-3.3.9-1 1.6-2 2.3-2.8.7-.8 1.3-1.6 1.9-2.3 1.1-1.2 2.1-2.4 3.1-3.6l1.4-1.6c.5-.6.9-1.1 1.3-1.8.5-.7 1.2-2.6 1.7-4.9-.2-.1-.5-.4-.6-.9-.2-.3-.8 1.1-1.5 2.9-.8 1.8-1.7 3.9-2.5 5.2-.8.6-1 0-1-1.2s.1-3.1.3-4.9c0-.6 0-1.1-.1-1.7 0-.1.1-.1.1-.2v-1.4c-.5 1.1-1 2.2-1.4 3.2-.1.4-.2.8-.4 1.2 0-.2.1-.4.1-.7-.8 1.3-1.5 2.4-2.1 3.1-.6.5-1.3 1.4-2 2.4-.2.5-.4 1.1-.6 1.6.2-.5.3-.9.4-1.2-.6 1-1.4 2.1-2.1 3.2-.8 1.1-1.6 2.3-2.5 3.3-.9 1-1.8 2.1-2.7 2.8-.5.4-.9.8-1.3 1.1-.4.3-.9.5-1.3.7-1.3.6-4.4 2.6-7.2 3-.3.1-.7.1-1 .2h-.9c-.6 0-1-.1-1.4-.3-.7-.3-1-.7-.8-1.3-.5.2-1.2 0-1.8-.1-.3 0-.6-.2-.9-.3-.3-.1-.6-.2-.9-.2.4-.3.5-.7.5-1.1-.4-.4-.8-.7-1.2-1.1-.3-.4-.6-.8-.6-1 .2-.1.4 0 .7.2.3.2.6.3.9.5l-.1-.3-.2-.2c-.4-.1-.9-.4-1.3-.5-.6 0-1.3-.2-1.9-.3.2-.1.5 0 .8 0 .2 0 .3.1.5.2.2 0 .4.1.6.1h.8c-.7-.8-1.5-1.7-2.3-2.9-.2-.2-.5-.4-.7-.5.2.1.4.3.6.4l-.3-.5c-.1-.1-.3-.2-.4-.3-.1-.1-.3-.3-.5-.4-.3-.3-.7-.6-1.1-1-.8-.9-1.7-1.8-2.6-3 0-.5 0-1-.1-1.5 0-.5-.1-1.1-.2-1.6-.2-1.1-.4-2.3-.8-3.4-.5.5-.8 1.5-.9 3 0 1.4.1 3.2.6 5.2l.2.8.3.8c.2.5.4 1.1.6 1.6.2.6.5 1 .8 1.6.3.6.6 1.1.9 1.6 1.8 2.1 3.7 4.1 6 5.3z"/></g></g><path id="XMLID_1546_" class="st18" d="M349.8 171.9c-5.1 0-9.2-6.8-9.2-15.1 0-3.6.8-6.8 2-9.4-1.3-.5-2.7-.8-4.1-.8-9.3 0-16.8 12.3-16.8 27.6 0 15.2 7.5 27.6 16.8 27.6s16.8-12.3 16.8-27.6c0-1.6-.1-3.2-.3-4.8-1.5 1.5-3.3 2.5-5.2 2.5z"/><path class="st19" d="M350.4 170.5c-9.6-1.1-8.6-16.8-6-22.8.3-.6-.1-1.4-.7-1.6-25.4-7.8-27.6 35.2-18.4 49.1 4.7 7.1 13.2 10.5 20.7 5.5 10-6.7 11.8-21 10.9-31.8-.1-1.4-2.5-1-3.2-.4-1.4.7-2.9 1.5-4.3 2.2-2.4.4-1.6 3.2.7 2.8 2.6-.4 4.2-1.3 6.1-3.1-1.1-.1-2.1-.3-3.2-.4.7 8.7-.4 18.8-6.2 25.8-6.4 7.7-14.6 4-19-3.6-4.1-7.2-5-16.3-3.9-24.3 1.2-8.3 6.4-22.3 17.5-18.9-.2-.5-.5-1.1-.7-1.6-3.5 8.2-3.3 25 8.4 26.3 2-.1 3.9-3 1.3-3.2z"/><path id="XMLID_1549_" class="st0" d="M293.9 258.3L251.6 314l-42.3-55.7 42.3-42.3z"/><path class="st1" d="M292.3 257.8c-14.1 18.6-28.2 37.2-42.3 55.7l3.3-.3c-11.3-14.9-22.5-29.7-33.8-44.6-2.3-3.1-4.5-6.6-7.1-9.4-.4-.4-1.1-1.2-1.3-1.7.6 1.4-.7 1.1 1 0 3.1-2.1 5.7-5.7 8.4-8.4l12.9-12.9 19.8-19.8-3.3.3 42.3 42.3c1.1 1.1 4.8-.4 3.5-1.6l-42.3-42.3c-.9-.9-2.5-.5-3.3.3l-42.3 42.3c-.3.3-.5.9-.2 1.3 14.1 18.6 28.2 37.2 42.3 55.7.7.9 2.7.5 3.3-.3 14.1-18.6 28.2-37.2 42.3-55.7 1.5-1.8-2.2-2.2-3.2-.9z"/><path id="XMLID_1545_" class="st20" d="M291.9 258.6l-39.7 52.3-.8-92.8z"/><path id="XMLID_1544_" class="st21" d="M185.4 23.6c-10.8-5.1-14-.1-3.8 4.7 10.6 6.7 29.7 20.6 45 45.1 13.2 21.1 22.7 48.6 24.7 56.8-1.2-12.5-5.2-36.4-20.9-61.5-15.3-24.5-34.4-38.4-45-45.1z"/><path id="XMLID_160_" class="st21" d="M321.2 17.8c10.8-5.1 14-.1 3.8 4.7-10.6 6.7-29.7 20.6-45 45.1-13.2 21.1-22.7 48.6-24.7 56.8 1.2-12.5 5.2-36.4 20.9-61.5 15.3-24.4 34.4-38.4 45-45.1z"/><path class="st1" d="M203.8 333c9.8 4.4 20.7 4.4 30.6 0 .8-.4-2.5-5.9-4.1-5.1-9.4 4.2-19.9 4.2-29.2 0-1.6-.6 1.3 4.5 2.7 5.1zm61.4 0c9.7 4.8 20.8 4.8 30.6 0 .9-.4-2.6-5.9-4.1-5.1-9.3 4.6-19.9 4.6-29.2 0-1.6-.7 1.3 4.4 2.7 5.1zm-28.8 26.1c9.6 5.2 20.9 5.2 30.6 0 .9-.5-2.7-5.9-4.1-5.1-9.2 5-20 5-29.2 0-1.6-.7 1.3 4.4 2.7 5.1zm-44 23.7c9.9 4.1 20.7 4.2 30.6 0 .8-.3-2.5-5.8-4.1-5.1-9.4 4-19.8 4-29.2 0-1.7-.6 1.3 4.5 2.7 5.1zm83.2-.9c9.8 4.6 20.8 4.6 30.6 0 .9-.4-2.6-5.9-4.1-5.1-9.4 4.4-19.9 4.4-29.2 0-1.7-.7 1.3 4.5 2.7 5.1z"/></svg>