<svg xmlns="http://www.w3.org/2000/svg" viewBox="0 0 261.266 42.947" height="45.81" width="278.684"><defs><marker orient="auto" id="d" overflow="visible"><path d="M-5.231-2.42L1.324-.01-5.23 2.401c1.047-1.423 1.041-3.37 0-4.821z" fill-rule="evenodd" stroke="#000" stroke-width=".375" stroke-linejoin="round"/></marker><marker id="c" orient="auto" overflow="visible"><path d="M-5.231-2.42L1.324-.01-5.23 2.401c1.047-1.423 1.041-3.37 0-4.821z" fill-rule="evenodd" stroke="#000" stroke-width=".375" stroke-linejoin="round"/></marker><marker orient="auto" id="b" overflow="visible"><path d="M-5.231-2.42L1.324-.01-5.23 2.401c1.047-1.423 1.041-3.37 0-4.821z" fill-rule="evenodd" stroke="#000" stroke-width=".375" stroke-linejoin="round"/></marker><marker id="a" orient="auto" overflow="visible"><path d="M-5.231-2.42L1.324-.01-5.23 2.401c1.047-1.423 1.041-3.37 0-4.821z" fill-rule="evenodd" stroke="#000" stroke-width=".375" stroke-linejoin="round"/></marker></defs><g transform="translate(-153.614 -463.316)" fill="#ff9e68"><circle r="21.191" cy="484.789" cx="338.826" stroke-linejoin="round" stroke-width=".565" stroke="#000"/><text y="489.345" x="338.795" style="line-height:125%;-inkscape-font-specification:STIXIntegralsUpD" font-weight="400" font-size="12.5" letter-spacing="0" word-spacing="0" font-family="STIXIntegralsUpD" fill="#000"><tspan style="-inkscape-font-specification:monospace;text-align:center" y="489.345" x="338.795" font-family="monospace" text-anchor="middle">D</tspan></text></g><g transform="translate(-152.42 -462.608)"><circle cx="173.894" cy="484.081" r="21.191" fill="#ff9e68" stroke="#000" stroke-width=".565" stroke-linejoin="round"/><text style="line-height:125%;-inkscape-font-specification:STIXIntegralsUpD" x="169.622" y="488.638" font-weight="400" font-size="12.5" letter-spacing="0" word-spacing="0" font-family="STIXIntegralsUpD">A</text></g><g transform="translate(-154.94 -462.432)"><circle r="21.191" cy="483.905" cx="230.993" stroke="#000" stroke-width=".565" stroke-linejoin="round"/><text y="488.461" x="226.534" style="line-height:125%;-inkscape-font-specification:STIXIntegralsUpD" font-weight="400" font-size="12.5" letter-spacing="0" word-spacing="0" font-family="STIXIntegralsUpD" fill="#fff">B</text></g><g transform="translate(-153.393 -462.255)"><circle cx="284.026" cy="483.728" r="21.191" stroke="#000" stroke-width=".565" stroke-linejoin="round"/><text style="line-height:125%;-inkscape-font-specification:STIXIntegralsUpD" x="284.09" y="472.653" font-weight="400" font-size="12.5" letter-spacing="0" word-spacing="0" font-family="STIXIntegralsUpD" fill="#fff"><tspan x="284.09" y="488.278" style="-inkscape-font-specification:monospace;text-align:center" font-family="monospace" text-anchor="middle">C</tspan></text></g><g transform="translate(-152.42 -463.67)"><circle cx="392.213" cy="485.142" r="21.191" stroke="#000" stroke-width=".565" stroke-linejoin="round"/><text style="line-height:125%;-inkscape-font-specification:STIXIntegralsUpD" x="392.012" y="474.073" font-weight="400" font-size="12.5" letter-spacing="0" word-spacing="0" font-family="STIXIntegralsUpD" fill="#fff"><tspan x="392.012" y="489.698" style="-inkscape-font-specification:monospace;text-align:center" font-family="monospace" text-anchor="middle">E</tspan></text></g><path d="M195.085 484.082h10.798" stroke="#000" stroke-width=".941" marker-end="url(#a)" transform="translate(-152.42 -462.608)"/><path d="M249.664 484.082h10.798" fill="none" stroke="#000" stroke-width=".941" marker-end="url(#b)" transform="translate(-152.42 -462.608)"/><path d="M304.244 484.082h10.798" stroke="#000" stroke-width=".941" marker-end="url(#c)" transform="translate(-152.42 -462.608)"/><path d="M358.824 484.082h10.798" stroke="#000" stroke-width=".941" marker-end="url(#d)" transform="translate(-152.42 -462.608)"/></svg>