<svg xmlns="http://www.w3.org/2000/svg" viewBox="0 0 210.007 129.203" height="137.816" width="224.008"><defs><marker id="d" refX="0" refY="0" orient="auto" overflow="visible"><path d="M-5.231-2.42L1.324-.01-5.23 2.401c1.047-1.423 1.041-3.37 0-4.821z" fill-rule="evenodd" stroke="#000" stroke-width=".375" stroke-linejoin="round"/></marker><marker orient="auto" refY="0" refX="0" id="c" overflow="visible"><path d="M-5.231-2.42L1.324-.01-5.23 2.401c1.047-1.423 1.041-3.37 0-4.821z" fill-rule="evenodd" stroke="#000" stroke-width=".375" stroke-linejoin="round"/></marker><marker id="b" orient="auto" overflow="visible"><path d="M-5.231-2.42L1.324-.01-5.23 2.401c1.047-1.423 1.041-3.37 0-4.821z" fill-rule="evenodd" stroke="#000" stroke-width=".375" stroke-linejoin="round"/></marker><marker id="a" orient="auto" overflow="visible"><path d="M-5.231-2.42L1.324-.01-5.23 2.401c1.047-1.423 1.041-3.37 0-4.821z" fill-rule="evenodd" stroke="#000" stroke-width=".375" stroke-linejoin="round"/></marker></defs><g transform="translate(-150.292 -377.06)" fill="#ff9e68"><circle r="21.191" cy="484.789" cx="338.826" stroke="#000" stroke-width=".565" stroke-linejoin="round"/><text y="489.345" x="338.795" style="line-height:125%;-inkscape-font-specification:STIXIntegralsUpD" font-weight="400" font-size="12.5" letter-spacing="0" word-spacing="0" font-family="STIXIntegralsUpD" fill="#000"><tspan style="-inkscape-font-specification:monospace;text-align:center" y="489.345" x="338.795" font-family="monospace" text-anchor="middle">F</tspan></text></g><g transform="translate(-152.421 -419.685)"><circle cx="173.894" cy="484.081" r="21.191" fill="#ff9e68" stroke="#000" stroke-width=".565" stroke-linejoin="round"/><text style="line-height:125%;-inkscape-font-specification:STIXIntegralsUpD" x="169.622" y="488.638" font-weight="400" font-size="12.5" letter-spacing="0" word-spacing="0" font-family="STIXIntegralsUpD">A</text></g><g transform="translate(-154.941 -419.51)"><circle r="21.191" cy="483.905" cx="230.993" stroke="#000" stroke-width=".565" stroke-linejoin="round"/><text y="488.461" x="226.534" style="line-height:125%;-inkscape-font-specification:STIXIntegralsUpD" font-weight="400" font-size="12.5" letter-spacing="0" word-spacing="0" font-family="STIXIntegralsUpD" fill="#fff">B</text></g><g transform="translate(-150.66 -462.246)"><circle cx="284.026" cy="483.728" r="21.191" stroke="#000" stroke-width=".565" stroke-linejoin="round"/><text style="line-height:125%;-inkscape-font-specification:STIXIntegralsUpD" x="284.09" y="472.653" font-weight="400" font-size="12.5" letter-spacing="0" word-spacing="0" font-family="STIXIntegralsUpD" fill="#fff"><tspan x="284.09" y="488.278" style="-inkscape-font-specification:monospace;text-align:center" font-family="monospace" text-anchor="middle">C</tspan></text></g><g transform="translate(-258.846 -377.413)"><circle cx="392.213" cy="485.142" r="21.191" stroke="#000" stroke-width=".565" stroke-linejoin="round"/><text style="line-height:125%;-inkscape-font-specification:STIXIntegralsUpD" x="392.012" y="474.073" font-weight="400" font-size="12.5" letter-spacing="0" word-spacing="0" font-family="STIXIntegralsUpD" fill="#fff"><tspan x="392.012" y="489.698" style="-inkscape-font-specification:monospace;text-align:center" font-family="monospace" text-anchor="middle">E</tspan></text></g><path d="M42.664 64.397h10.798" stroke="#000" stroke-width=".941" marker-end="url(#a)"/><path d="M154.558 21.482h10.798" stroke="#000" stroke-width=".941" marker-end="url(#b)"/><path d="M97.244 21.473c0-14.091 0-28.318 2.49-35.47 2.489-7.151 7.466-7.297 12.443-7.443" transform="translate(-.001 42.923)" fill="none" stroke="#000" stroke-width=".938" marker-end="url(#c)"/><path d="M97.244 21.473c0-14.091 0-28.318 2.49-35.47 2.489-7.151 7.466-7.297 12.443-7.443" transform="matrix(1 0 0 -1 -.001 86.289)" fill="none" stroke="#000" stroke-width=".938" marker-end="url(#d)"/><path d="M154.84 107.738h10.798" stroke="#000" stroke-width=".941" marker-end="url(#b)"/><g transform="translate(-150.575 -463.315)" fill="#ff9e68"><circle cx="338.826" cy="484.789" r="21.191" stroke="#000" stroke-width=".565" stroke-linejoin="round"/><text word-spacing="0" letter-spacing="0" font-size="12.5" font-weight="400" style="line-height:125%;-inkscape-font-specification:STIXIntegralsUpD" x="338.795" y="489.345" font-family="STIXIntegralsUpD" fill="#000"><tspan x="338.795" y="489.345" style="-inkscape-font-specification:monospace;text-align:center" font-family="monospace" text-anchor="middle">D</tspan></text></g></svg>