<svg xmlns="http://www.w3.org/2000/svg" viewBox="0 0 514.86615 209.32986" stroke-miterlimit="10" width="514.866" height="209.33" fill="none" stroke-linecap="square"><clipPath id="a"><path d="M0 0h960v540H0V0z"/></clipPath><g clip-path="url(#a)" transform="translate(-169.051 -277.655)"><path d="M491.794 416.705l75.023 33.448-14.708 33.008-75.024-33.449z" fill="none"/><path d="M492.485 443.684l4.624-10.376 4.38 1.954q.672.299 1.1.832.445.54.655 1.182.21.64.164 1.321-.033.687-.3 1.287-.254.57-.661 1.022-.386.444-.87.724-.484.28-1.04.375-.555.095-1.113-.034l.753 5.143-1.156-.516-.736-4.913-3.068-1.368-1.704 3.825-1.028-.458zm3.139-4.28l3.382 1.508q.457.204.91.183.46-.034.87-.262.424-.222.751-.572.348-.358.558-.829.203-.457.223-.961.026-.519-.12-.96-.139-.456-.442-.813-.296-.372-.724-.563l-3.297-1.47-2.111 4.74zm9.423 10.052q-.828-.37-1.388-.995-.545-.62-.817-1.39-.265-.786-.233-1.627.033-.841.395-1.655.363-.813.96-1.385.603-.587 1.338-.892.755-.313 1.595-.315.839-.002 1.652.36.842.375 1.387.995.56.626.803 1.384.258.765.218 1.585-.027.827-.383 1.626l-.102.229q-.05.114-.084.15l-6.507-2.901q-.231.633-.224 1.269.014.622.213 1.173.22.543.61.973.39.43.946.679.371.165.773.224.415.066.791.028.397-.046.754-.194.371-.143.633-.385l.77.616q-.377.346-.858.542-.467.203-1.01.269-.528.072-1.099-.029-.577-.086-1.133-.334zm4.75-3.1q.231-.633.211-1.24-.013-.622-.225-1.144-.206-.537-.617-.96-.396-.416-.952-.664-.557-.248-1.145-.27-.575-.017-1.125.182-.53.191-.988.603-.443.419-.753 1l5.595 2.493zm3.485 6.772q-.785-.35-1.28-.965-.482-.608-.697-1.354-.195-.754-.14-1.568.075-.822.419-1.592.356-.8.945-1.392.604-.587 1.33-.913.727-.326 1.538-.34.817-.03 1.573.307.443.198.8.51.356.314.617.687.282.365.448.798.167.434.236.892l.668-1.498.884.394-4.19 9.406q-.185.413.18.593l-.382.856q-.17-.041-.312-.105l-.257-.114q-.33-.181-.458-.546-.114-.36.039-.702l1.691-3.796q-.938.608-1.863.726-.918.104-1.789-.284zm.688-.737q.442.197.891.226.455.015.885-.067.437-.097.84-.31.424-.222.768-.496l1.05-2.355q.12-.425.023-.896-.084-.465-.32-.895-.23-.445-.588-.793-.344-.341-.757-.526-.614-.273-1.249-.231-.628.028-1.204.284-.562.263-1.01.73-.448.468-.708 1.053-.274.614-.322 1.26-.048.645.124 1.218.187.58.572 1.059.405.471 1.005.739zm7.772 4.508q-1.242-.553-1.493-1.64-.23-1.095.501-2.737l1.997-4.481.985.439-1.92 4.31q-1.152 2.583.618 3.372.442.198.92.24.498.033.975-.079.498-.12.935-.37.457-.258.859-.66l2.137-4.796.984.439-2.823 6.337q-.185.414.172.573l-.388.87q-.184-.047-.298-.098l-.157-.07q-.336-.167-.463-.497-.106-.339.066-.724l.394-.885q-.9.677-1.972.78-1.073.104-2.029-.323zm9.58 4.271q-.828-.369-1.388-.994-.545-.62-.817-1.391-.266-.786-.233-1.627.033-.84.395-1.654.363-.814.96-1.386.603-.586 1.338-.891.755-.314 1.595-.316.839-.002 1.652.36.842.376 1.387.995.56.626.803 1.385.258.765.217 1.585-.026.827-.382 1.626l-.102.228q-.05.114-.084.15l-6.507-2.9q-.231.632-.224 1.268.014.622.213 1.173.22.543.61.973.39.43.946.679.371.165.773.225.415.065.791.027.397-.045.754-.194.371-.142.633-.385l.77.617q-.377.345-.858.542-.467.202-1.01.268-.528.072-1.099-.028-.577-.086-1.134-.335zm4.75-3.1q.231-.632.211-1.24-.013-.622-.225-1.144-.206-.536-.617-.959-.396-.416-.952-.664-.557-.248-1.145-.271-.575-.017-1.125.183-.53.191-.988.603-.443.418-.753.999l5.595 2.494zm3.071 6.588q-.899-.401-1.614-1.062-.708-.675-1.074-1.505l.742-.474q.406.814.956 1.385.557.556 1.313.893.913.407 1.62.278.723-.123 1.028-.808.146-.329.099-.606-.047-.278-.263-.562-.215-.284-.6-.61-.371-.32-.885-.702-.586-.45-1.002-.823-.394-.382-.62-.721-.224-.34-.247-.71-.024-.37.18-.826.254-.571.673-.898.426-.34.938-.454.513-.113 1.09-.027.598.078 1.183.34.87.387 1.457.99.6.61.819 1.273l-.732.375q-.23-.634-.75-1.121-.503-.482-1.16-.774-.4-.178-.78-.245-.36-.075-.693-.019-.333.057-.597.265-.263.207-.429.578-.133.3-.122.544.017.23.182.475.185.237.49.51.307.273.77.616.651.496 1.125.93.48.42.743.827.27.394.302.82.054.417-.156.887-.47 1.057-1.557 1.308-1.073.257-2.429-.347zm8.473 3.161l-.314.014q-.203-.005-.463-.035-.246-.024-.557-.094-.296-.064-.596-.198-.328-.146-.59-.365-.247-.213-.378-.494-.132-.281-.154-.616 0-.343.158-.7l2.43-5.451-1.042-.465.356-.8 1.042.465 1.144-2.569 1 .446-1.145 2.569 1.755.782-.356.8-1.756-.783-2.302 5.167q-.162.44.02.761.182.32.525.473.428.191.805.189.392.004.503-.016l-.085.92z" fill="#fff"/><path d="M587.449 449.608a7.375 7.375 0 0 1 7.375-7.375h81.218a7.375 7.375 0 0 1 7.375 7.375v29.501a7.375 7.375 0 0 1-7.375 7.376h-81.218a7.375 7.375 0 0 1-7.375-7.376z" fill="#400d9a" fill-rule="evenodd"/><path d="M587.449 449.608a7.375 7.375 0 0 1 7.375-7.375h81.218a7.375 7.375 0 0 1 7.375 7.375v29.501a7.375 7.375 0 0 1-7.375 7.376h-81.218a7.375 7.375 0 0 1-7.375-7.376z" stroke="#595959" stroke-linecap="butt" stroke-linejoin="round"/><path d="M605.72 458.202h1.016l5.11 12.297h-1.282l-1.593-3.844h-5.532l-1.578 3.844h-1.297l5.157-12.297zm2.97 7.5l-2.47-6.078-2.515 6.078h4.984zm12.275 4.797h-1.171v-5.047q0-1.61-.485-2.328-.468-.734-1.468-.734-.516 0-1.047.187-.516.188-.953.547-.438.344-.782.828-.343.469-.5 1.016v5.53h-1.187v-9.03h1.078v2.047q.547-.985 1.578-1.594 1.031-.61 2.25-.61.75 0 1.266.282.515.28.828.78.312.5.453 1.235.14.72.14 1.61v5.28zm4.775.172q-.641 0-1.188-.219-.531-.219-.953-.594-.406-.375-.625-.89-.219-.516-.219-1.11 0-.578.266-1.078.281-.515.781-.875t1.188-.562q.703-.203 1.53-.203.704 0 1.407.125.719.125 1.266.343v-.812q0-1.188-.672-1.89-.672-.704-1.875-.704-.688 0-1.422.281-.719.266-1.469.797l-.422-.781q1.75-1.188 3.407-1.188 1.687 0 2.656.954.984.953.984 2.64v4.063q0 .484.422.484v1.047q-.297.047-.453.047-.438 0-.703-.219-.25-.234-.266-.625l-.031-.703q-.625.812-1.578 1.25-.938.422-2.031.422zm.28-.906q.923 0 1.688-.344.782-.344 1.172-.922.156-.156.235-.328.078-.188.078-.344v-1.469q-.594-.218-1.235-.343-.625-.125-1.28-.125-1.25 0-2.032.53-.766.516-.766 1.36 0 .422.156.781.172.36.454.625.28.266.671.422.407.157.86.157zm6.96-11.922h1.172v10.61q0 .5.266.796.281.281.797.281.187 0 .437-.047.266-.062.485-.14l.218.953q-.328.14-.812.219-.469.093-.813.093-.828 0-1.297-.453-.453-.469-.453-1.297v-11.015zm5.167 15.422q.14.03.265.03.14.016.266.016.312 0 .484-.093.188-.078.36-.375.171-.297.39-.86.219-.547.61-1.484l-3.922-9.031h1.203l3.344 7.937 3.109-7.937h1.125l-4.688 11.64q-.187.516-.625.875-.437.375-1.203.375-.172 0-.328-.015-.156 0-.39-.032v-1.046zm8.11-3.563l6.11-7.344h-5.97v-.89h7.25v.797l-6.077 7.343h6.062v.89h-7.375v-.796zm13.197.969q-1 0-1.828-.375-.812-.375-1.422-1.016-.593-.656-.937-1.5-.344-.844-.344-1.828 0-.953.344-1.781.344-.844.937-1.469.594-.64 1.422-1.016.828-.375 1.813-.375.984 0 1.797.375.828.375 1.422 1.016.593.64.921 1.469.329.828.329 1.765v.282q0 .14-.016.187h-7.734q.046.735.328 1.36.297.609.75 1.062.453.438 1.03.688.579.25 1.235.25.438 0 .86-.11.437-.125.797-.328.375-.219.656-.516.297-.312.453-.671l1.031.28q-.203.5-.594.907-.375.406-.89.719-.5.297-1.11.453-.593.172-1.25.172zm3.329-5.156q-.063-.735-.344-1.329-.281-.593-.735-1.03-.437-.438-1.015-.673-.578-.25-1.235-.25-.656 0-1.25.25-.593.235-1.03.672-.438.438-.72 1.047-.265.594-.312 1.313h6.64zm7.452-3q-1.203.03-2.093.656-.875.625-1.235 1.719v5.609h-1.187v-9.031h1.11v2.172q.5-1.047 1.343-1.625.86-.594 1.828-.594.14 0 .234.015v1.079z" fill="#fff"/><path d="M587.449 367.57a7.375 7.375 0 0 1 7.375-7.376h81.218a7.375 7.375 0 0 1 7.375 7.375v29.502a7.375 7.375 0 0 1-7.375 7.375h-81.218a7.375 7.375 0 0 1-7.375-7.375z" fill="#400d9a" fill-rule="evenodd"/><path d="M587.449 367.57a7.375 7.375 0 0 1 7.375-7.376h81.218a7.375 7.375 0 0 1 7.375 7.375v29.502a7.375 7.375 0 0 1-7.375 7.375h-81.218a7.375 7.375 0 0 1-7.375-7.375z" stroke="#595959" stroke-linecap="butt" stroke-linejoin="round"/><path d="M605.72 376.163h1.016l5.11 12.297h-1.282l-1.593-3.844h-5.532l-1.578 3.844h-1.297l5.157-12.297zm2.97 7.5l-2.47-6.078-2.515 6.078h4.984zm12.275 4.797h-1.171v-5.047q0-1.61-.485-2.328-.468-.734-1.468-.734-.516 0-1.047.187-.516.188-.953.547-.438.344-.782.828-.343.469-.5 1.016v5.531h-1.187v-9.031h1.078v2.047q.547-.985 1.578-1.594 1.031-.61 2.25-.61.75 0 1.266.282.515.281.828.781.312.5.453 1.234.14.72.14 1.61v5.281zm4.775.172q-.641 0-1.188-.219-.531-.219-.953-.594-.406-.375-.625-.89-.219-.516-.219-1.11 0-.578.266-1.078.281-.515.781-.875t1.188-.562q.703-.203 1.53-.203.704 0 1.407.125.719.125 1.266.343v-.812q0-1.188-.672-1.89-.672-.704-1.875-.704-.688 0-1.422.281-.719.266-1.469.797l-.422-.781q1.75-1.188 3.407-1.188 1.687 0 2.656.954.984.953.984 2.64v4.063q0 .484.422.484v1.047q-.297.047-.453.047-.438 0-.703-.219-.25-.234-.266-.625l-.031-.703q-.625.813-1.578 1.25-.938.422-2.031.422zm.28-.906q.923 0 1.688-.344.782-.344 1.172-.922.156-.156.235-.328.078-.188.078-.344v-1.469q-.594-.218-1.235-.343-.625-.125-1.28-.125-1.25 0-2.032.53-.766.516-.766 1.36 0 .422.156.781.172.36.454.625.28.266.671.422.407.157.86.157zm6.96-11.922h1.172v10.61q0 .5.266.796.281.281.797.281.187 0 .437-.047.266-.062.485-.14l.218.953q-.328.14-.812.219-.469.093-.813.093-.828 0-1.297-.453-.453-.469-.453-1.297v-11.015zm5.167 15.422q.14.03.265.03.14.016.266.016.312 0 .484-.093.188-.078.36-.375.171-.297.39-.86.219-.547.61-1.484l-3.922-9.031h1.203l3.344 7.937 3.109-7.937h1.125l-4.688 11.64q-.187.516-.625.875-.437.375-1.203.375-.172 0-.328-.015-.156 0-.39-.031v-1.047zm8.11-3.563l6.11-7.344h-5.97v-.89h7.25v.797l-6.077 7.343h6.062v.891h-7.375v-.797zm13.197.969q-1 0-1.828-.375-.812-.375-1.422-1.016-.593-.656-.937-1.5-.344-.844-.344-1.828 0-.953.344-1.781.344-.844.937-1.469.594-.64 1.422-1.016.828-.375 1.813-.375.984 0 1.797.375.828.375 1.422 1.016.593.64.921 1.469.329.828.329 1.765v.282q0 .14-.016.187h-7.734q.046.735.328 1.36.297.609.75 1.062.453.438 1.03.688.579.25 1.235.25.438 0 .86-.11.437-.125.797-.328.375-.219.656-.516.297-.312.453-.671l1.031.28q-.203.5-.594.907-.375.406-.89.719-.5.297-1.11.453-.593.172-1.25.172zm3.329-5.156q-.063-.735-.344-1.329-.281-.593-.735-1.03-.437-.438-1.015-.673-.578-.25-1.235-.25-.656 0-1.25.25-.593.235-1.03.672-.438.438-.72 1.047-.265.594-.312 1.313h6.64zm7.452-3q-1.203.03-2.093.656-.875.625-1.235 1.719v5.609h-1.187v-9.031h1.11v2.172q.5-1.047 1.343-1.625.86-.594 1.828-.594.14 0 .234.015v1.079z" fill="#fff"/><path d="M587.449 285.53a7.375 7.375 0 0 1 7.375-7.375h81.218a7.375 7.375 0 0 1 7.375 7.376v29.5a7.375 7.375 0 0 1-7.375 7.376h-81.218a7.375 7.375 0 0 1-7.375-7.375z" fill="#400d9a" fill-rule="evenodd"/><path d="M587.449 285.53a7.375 7.375 0 0 1 7.375-7.375h81.218a7.375 7.375 0 0 1 7.375 7.376v29.5a7.375 7.375 0 0 1-7.375 7.376h-81.218a7.375 7.375 0 0 1-7.375-7.375z" stroke="#595959" stroke-linecap="butt" stroke-linejoin="round"/><path d="M605.72 294.124h1.016l5.11 12.297h-1.282l-1.593-3.844h-5.532l-1.578 3.844h-1.297l5.157-12.297zm2.97 7.5l-2.47-6.078-2.515 6.078h4.984zm12.275 4.797h-1.171v-5.047q0-1.61-.485-2.328-.468-.734-1.468-.734-.516 0-1.047.187-.516.188-.953.547-.438.344-.782.828-.343.469-.5 1.016v5.531h-1.187v-9.031h1.078v2.047q.547-.985 1.578-1.594 1.031-.61 2.25-.61.75 0 1.266.282.515.281.828.781.312.5.453 1.234.14.72.14 1.61v5.281zm4.775.172q-.641 0-1.188-.219-.531-.219-.953-.594-.406-.375-.625-.89-.219-.516-.219-1.11 0-.578.266-1.078.281-.515.781-.875t1.188-.562q.703-.203 1.53-.203.704 0 1.407.125.719.125 1.266.343v-.812q0-1.188-.672-1.89-.672-.704-1.875-.704-.688 0-1.422.281-.719.266-1.469.797l-.422-.78q1.75-1.188 3.407-1.188 1.687 0 2.656.953.984.953.984 2.64v4.063q0 .484.422.484v1.047q-.297.047-.453.047-.438 0-.703-.219-.25-.234-.266-.625l-.031-.703q-.625.813-1.578 1.25-.938.422-2.031.422zm.28-.906q.923 0 1.688-.344.782-.344 1.172-.922.156-.156.235-.328.078-.188.078-.344v-1.469q-.594-.218-1.235-.343-.625-.125-1.28-.125-1.25 0-2.032.53-.766.517-.766 1.36 0 .422.156.782.172.359.454.625.28.265.671.421.407.157.86.157zm6.96-11.922h1.172v10.61q0 .5.266.796.281.281.797.281.187 0 .437-.047.266-.062.485-.14l.218.953q-.328.14-.812.219-.469.093-.813.093-.828 0-1.297-.453-.453-.469-.453-1.297v-11.015zm5.167 15.422q.14.03.265.03.14.016.266.016.312 0 .484-.093.188-.078.36-.375.171-.297.39-.86.219-.546.61-1.484l-3.922-9.031h1.203l3.344 7.937 3.109-7.937h1.125l-4.688 11.64q-.187.516-.625.875-.437.375-1.203.375-.172 0-.328-.015-.156 0-.39-.031v-1.047zm8.11-3.563l6.11-7.344h-5.97v-.89h7.25v.797l-6.077 7.343h6.062v.891h-7.375v-.797zm13.197.969q-1 0-1.828-.375-.812-.375-1.422-1.016-.593-.656-.937-1.5-.344-.843-.344-1.828 0-.953.344-1.781.344-.844.937-1.469.594-.64 1.422-1.015.828-.375 1.813-.375.984 0 1.797.375.828.375 1.422 1.015.593.64.921 1.469.329.828.329 1.766v.28q0 .141-.016.188h-7.734q.046.735.328 1.36.297.61.75 1.062.453.438 1.03.688.579.25 1.235.25.438 0 .86-.11.437-.125.797-.328.375-.219.656-.515.297-.313.453-.672l1.031.28q-.203.5-.594.907-.375.406-.89.719-.5.297-1.11.453-.593.172-1.25.172zm3.329-5.156q-.063-.735-.344-1.328-.281-.594-.735-1.032-.437-.437-1.015-.672-.578-.25-1.235-.25-.656 0-1.25.25-.593.235-1.03.672-.438.438-.72 1.047-.265.594-.312 1.313h6.64zm7.452-3q-1.203.03-2.093.656-.875.625-1.235 1.719v5.61h-1.187v-9.032h1.11v2.172q.5-1.047 1.343-1.625.86-.594 1.828-.594.14 0 .234.016v1.078z" fill="#fff"/><path d="M380.797 367.503a7.375 7.375 0 0 1 7.375-7.375h81.218a7.375 7.375 0 0 1 7.375 7.375v29.501a7.376 7.376 0 0 1-7.375 7.376h-81.218a7.375 7.375 0 0 1-7.375-7.376z" fill="#400d9a" fill-rule="evenodd"/><path d="M380.797 367.503a7.375 7.375 0 0 1 7.375-7.375h81.218a7.375 7.375 0 0 1 7.375 7.375v29.501a7.376 7.376 0 0 1-7.375 7.376h-81.218a7.375 7.375 0 0 1-7.375-7.376z" stroke="#595959" stroke-linecap="butt" stroke-linejoin="round"/><path d="M397.17 377.894v-12.297h1.204v11.219h7.109v1.078h-8.312zm13.697.172q-.985 0-1.797-.375-.813-.375-1.422-1.016-.594-.64-.922-1.484-.328-.844-.328-1.782 0-.953.344-1.797.343-.859.937-1.5.594-.64 1.406-1.015.813-.39 1.782-.39.968 0 1.796.39.829.375 1.422 1.015.594.641.938 1.5.344.844.344 1.797 0 .938-.344 1.782-.328.843-.922 1.484-.594.64-1.422 1.016-.812.375-1.812.375zm-3.266-4.641q0 .766.25 1.422.266.64.703 1.14.453.485 1.047.766.594.281 1.266.281.687 0 1.28-.28.595-.298 1.048-.782.453-.5.703-1.156.265-.672.265-1.422 0-.75-.265-1.407-.25-.671-.703-1.171-.453-.5-1.047-.782-.594-.28-1.281-.28-.672 0-1.266.28-.578.282-1.031.797-.453.5-.72 1.172-.25.656-.25 1.422zm13.576 4.64q-.985 0-1.797-.374-.813-.375-1.422-1.016-.594-.64-.922-1.484-.328-.844-.328-1.782 0-.953.344-1.797.343-.859.937-1.5.594-.64 1.406-1.015.813-.39 1.782-.39.968 0 1.797.39.828.375 1.421 1.015.594.641.938 1.5.344.844.344 1.797 0 .938-.344 1.782-.328.843-.922 1.484-.594.64-1.422 1.016-.812.375-1.812.375zm-3.266-4.64q0 .766.25 1.422.266.64.703 1.14.453.485 1.047.766.594.281 1.266.281.687 0 1.28-.28.595-.298 1.048-.782.453-.5.703-1.156.266-.672.266-1.422 0-.75-.266-1.407-.25-.671-.703-1.171-.453-.5-1.047-.782-.594-.28-1.281-.28-.672 0-1.266.28-.578.282-1.031.797-.453.5-.719 1.172-.25.656-.25 1.422zm16.185 4.469l-3.328-4.625-1.937 1.797v2.828h-1.188v-12.657h1.188v8.594l5.078-4.953h1.328l-3.688 3.703 3.829 5.313h-1.282zm6.575.172q-.985 0-1.797-.375-.813-.375-1.422-1.016-.594-.64-.922-1.484-.328-.844-.328-1.782 0-.953.344-1.797.343-.859.937-1.5.594-.64 1.406-1.015.813-.39 1.782-.39.968 0 1.797.39.828.375 1.421 1.015.594.641.938 1.5.344.844.344 1.797 0 .938-.344 1.782-.328.843-.922 1.484-.594.64-1.422 1.016-.812.375-1.812.375zm-3.266-4.641q0 .766.25 1.422.266.64.703 1.14.453.485 1.047.766.594.281 1.266.281.687 0 1.281-.28.594-.298 1.047-.782.453-.5.703-1.156.266-.672.266-1.422 0-.75-.266-1.407-.25-.671-.703-1.171-.453-.5-1.047-.782-.594-.28-1.281-.28-.672 0-1.266.28-.578.282-1.031.797-.453.5-.719 1.172-.25.656-.25 1.422zm12.56 4.64q-1.468 0-2.187-.968-.719-.985-.719-2.922v-5.313h1.172v5.094q0 3.078 2.094 3.078.515 0 1.015-.172.516-.187.938-.515.422-.328.75-.766.344-.453.562-1.031v-5.688h1.172v7.5q0 .485.422.485v1.047q-.219.03-.344.03h-.187q-.406-.015-.672-.28-.25-.282-.25-.75v-1.047q-.594 1.062-1.61 1.64-1.015.579-2.156.579zm11.793-.609q-.094.063-.297.156-.203.079-.468.172-.25.078-.579.14-.328.079-.687.079-.39 0-.734-.11-.344-.109-.61-.312-.25-.219-.406-.547-.156-.343-.156-.765v-6.47h-1.25v-.937h1.25v-3.046h1.172v3.046h2.078v.938h-2.078v6.14q.03.5.343.735.328.234.75.234.5 0 .875-.156.39-.172.485-.25l.312.953zM407.987 399.066q-1.063 0-2.063-.344-1-.344-1.734-1l.547-.797q.75.61 1.531.922.797.312 1.703.312 1.094 0 1.734-.437.657-.438.657-1.25 0-.39-.172-.64t-.516-.438q-.328-.188-.844-.328-.515-.157-1.187-.313-.781-.187-1.36-.375-.562-.203-.937-.437-.375-.25-.562-.594-.172-.36-.172-.906 0-.672.265-1.188.266-.516.72-.86.468-.343 1.077-.515.625-.172 1.313-.172 1.047 0 1.89.344.844.328 1.375.89l-.578.688q-.5-.516-1.219-.766-.718-.265-1.5-.265-.468 0-.875.093-.39.094-.703.313-.297.203-.468.531-.172.313-.172.735 0 .375.11.593.124.22.405.391.282.172.703.297.422.125 1.032.265.86.204 1.515.422.672.203 1.11.485.437.265.656.672.234.39.234.968 0 1.25-.953 1.985-.953.719-2.562.719zm9.345 0q-1 0-1.828-.375-.813-.375-1.422-1.016-.594-.656-.938-1.5t-.344-1.828q0-.953.344-1.781.344-.844.938-1.47.593-.64 1.422-1.015.828-.375 1.812-.375.984 0 1.797.375.828.375 1.422 1.016.594.64.922 1.469.328.828.328 1.765v.281q0 .141-.016.188h-7.734q.047.734.328 1.36.297.609.75 1.062.453.437 1.031.687.578.25 1.235.25.437 0 .859-.11.438-.124.797-.327.375-.219.656-.516.297-.312.453-.672l1.031.282q-.203.5-.593.906-.375.406-.89.719-.5.296-1.11.453-.594.172-1.25.172zm3.328-5.157q-.063-.734-.344-1.328-.281-.594-.734-1.031-.438-.438-1.016-.672-.578-.25-1.234-.25-.657 0-1.25.25-.594.234-1.032.672-.437.437-.718 1.047-.266.594-.313 1.312h6.64zm7.453-3q-1.203.031-2.094.657-.875.625-1.234 1.718v5.61h-1.188v-9.032h1.11v2.172q.5-1.047 1.343-1.625.86-.593 1.828-.593.14 0 .235.015v1.078zm4.27 7.985l-3.673-9.032h1.22l3.093 7.938 3.125-7.938h1.14l-3.671 9.032h-1.235zm10.438.172q-1 0-1.828-.375-.812-.375-1.422-1.016-.594-.656-.937-1.5-.344-.844-.344-1.828 0-.953.344-1.781.343-.844.937-1.47.594-.64 1.422-1.015.828-.375 1.813-.375.984 0 1.796.375.829.375 1.422 1.016.594.64.922 1.469.328.828.328 1.765v.281q0 .141-.015.188h-7.735q.047.734.329 1.36.296.609.75 1.062.453.437 1.03.687.579.25 1.235.25.438 0 .86-.11.437-.124.796-.327.375-.219.657-.516.297-.312.453-.672l1.031.282q-.203.5-.594.906-.375.406-.89.719-.5.296-1.11.453-.593.172-1.25.172zm3.328-5.157q-.062-.734-.343-1.328-.282-.594-.735-1.031-.437-.438-1.015-.672-.579-.25-1.235-.25-.656 0-1.25.25-.594.234-1.031.672-.438.437-.719 1.047-.265.594-.312 1.312h6.64zm7.453-3q-1.203.031-2.094.657-.875.625-1.234 1.718v5.61h-1.187v-9.032h1.109v2.172q.5-1.047 1.344-1.625.86-.593 1.828-.593.14 0 .234.015v1.078z" fill="#fff"/><path d="M169.551 367.489a7.375 7.375 0 0 1 7.376-7.376h81.217a7.375 7.375 0 0 1 7.376 7.376v29.5a7.375 7.375 0 0 1-7.376 7.376h-81.217a7.375 7.375 0 0 1-7.376-7.375z" fill="#400d9a" fill-rule="evenodd"/><path d="M169.551 367.489a7.375 7.375 0 0 1 7.376-7.376h81.217a7.375 7.375 0 0 1 7.376 7.376v29.5a7.375 7.375 0 0 1-7.376 7.376h-81.217a7.375 7.375 0 0 1-7.376-7.375z" stroke="#595959" stroke-linecap="butt" stroke-linejoin="round"/><path d="M200.092 386.582q-1.719 1.891-3.953 1.891-1.25 0-2.297-.531-1.047-.547-1.828-1.422-.766-.89-1.203-2-.422-1.125-.422-2.313 0-1.234.422-2.359t1.187-1.969q.766-.86 1.797-1.375 1.047-.515 2.266-.515.906 0 1.64.203.75.203 1.329.562.593.344 1.015.844.422.484.719 1.078l-.937.625q-.61-1.14-1.579-1.672-.968-.547-2.203-.547-1.015 0-1.843.438-.829.422-1.407 1.14-.578.72-.89 1.657-.313.922-.313 1.906 0 1.047.36 1.984.359.938.984 1.641.625.688 1.453 1.11.844.421 1.828.421 1.063 0 2.016-.5.969-.5 1.86-1.562v-2.047h-2.75v-.938h3.765v6.047h-1.016v-1.797zm3.266 1.797v-9.031h1.188v9.031h-1.188zm0-10.922v-1.734h1.188v1.734h-1.188zm8.106 10.485q-.094.062-.297.156-.203.078-.469.172-.25.078-.578.14-.328.079-.687.079-.39 0-.735-.11-.343-.11-.609-.312-.25-.219-.406-.547-.156-.344-.156-.766v-6.469h-1.25v-.937h1.25v-3.047h1.171v3.047h2.079v.937h-2.079v6.141q.032.5.344.734.328.235.75.235.5 0 .875-.156.39-.172.485-.25l.312.953zm11.43-11.86v12.297h-1.203v-5.75h-7.297v5.75h-1.203v-12.297h1.203v5.47h7.297v-5.47h1.203zm5.663 12.47q-1.469 0-2.188-.97-.718-.984-.718-2.921v-5.313h1.172v5.094q0 3.078 2.093 3.078.516 0 1.016-.172.516-.187.937-.516.422-.328.75-.765.344-.453.563-1.031v-5.688h1.172v7.5q0 .484.422.484v1.047q-.219.031-.344.031h-.188q-.406-.015-.671-.28-.25-.282-.25-.75v-1.048q-.594 1.063-1.61 1.641-1.015.578-2.156.578zm11.887 0q-1.079 0-1.97-.532-.89-.547-1.39-1.39v1.75h-1.062v-12.657h1.187v5.516q.594-.922 1.438-1.485.86-.562 1.984-.562.953 0 1.703.406.766.39 1.281 1.063.532.671.813 1.515.297.828.297 1.719 0 .953-.328 1.797t-.907 1.484q-.562.625-1.359 1-.781.375-1.687.375zm-.282-1.032q.75 0 1.36-.297.625-.312 1.062-.828.438-.516.688-1.156.25-.657.25-1.344 0-.719-.235-1.375-.234-.656-.656-1.156-.422-.516-1.016-.813-.593-.312-1.312-.312-.531 0-1 .187-.469.172-.875.485-.39.312-.703.718-.313.407-.516.86v2.812q.063.469.36.875.312.406.734.703.422.282.906.469.5.172.953.172z" fill="#fff"/><path d="M502.03 382.32h60.157" fill="none"/><path d="M502.03 382.32h54.157" stroke="#fff" stroke-linecap="butt" stroke-linejoin="round"/><path d="M556.187 383.971l4.538-1.652-4.538-1.651z" fill="#fff" fill-rule="evenodd" stroke="#fff" stroke-linecap="butt"/><path d="M491.037 382.08h82.141v36.157h-82.141z" fill="none"/><path d="M502.65 406.44v-11.36h4.796q.735 0 1.344.313.625.313 1.078.813.453.5.688 1.14.25.64.25 1.297 0 .625-.188 1.203-.172.563-.5 1.016-.328.453-.797.765-.469.313-1.031.422l2.781 4.391h-1.265l-2.672-4.188h-3.36v4.188h-1.125zm1.124-5.188h3.704q.5 0 .906-.203.406-.218.687-.593.297-.375.453-.829.172-.468.172-.984 0-.5-.187-.969-.188-.484-.5-.828-.313-.36-.735-.562-.421-.219-.89-.219h-3.61v5.188zm12.698 5.344q-.906 0-1.671-.344-.75-.343-1.313-.937-.562-.61-.875-1.39-.312-.782-.312-1.673 0-.89.312-1.656.313-.781.86-1.36.562-.593 1.328-.937.765-.343 1.656-.343.922 0 1.672.343.765.344 1.297.938.546.594.843 1.36.313.765.313 1.64v.25q0 .125-.016.172h-7.125q.047.672.313 1.25.265.562.672.984.421.406.953.64.53.235 1.14.235.407 0 .797-.11.406-.109.735-.296.343-.203.609-.485.281-.28.422-.609l.953.25q-.203.469-.563.844-.343.375-.812.656-.453.281-1.016.422-.562.156-1.172.156zm3.079-4.765q-.047-.672-.313-1.22-.266-.562-.672-.952-.406-.406-.953-.625-.531-.219-1.14-.219-.61 0-1.157.219-.531.219-.953.625-.406.39-.656.953-.235.562-.281 1.219h6.125zm5.938 4.765q-.859 0-1.562-.36-.688-.358-1.188-.952-.484-.61-.765-1.375-.266-.781-.266-1.625 0-.875.297-1.656.313-.782.844-1.375.531-.594 1.265-.938.735-.36 1.563-.36.484 0 .937.141.454.14.844.375.406.219.735.547.328.328.578.719v-1.64h.968v10.296q0 .453.407.469v.937q-.172.032-.328.032h-.282q-.375-.032-.64-.313-.25-.281-.25-.656v-4.156q-.61.937-1.407 1.421-.796.47-1.75.47zm.329-.953q.484 0 .906-.156.422-.172.781-.422.36-.266.64-.625.298-.375.5-.766v-2.578q-.062-.437-.343-.828-.266-.39-.656-.687-.39-.313-.86-.485-.453-.172-.906-.172-.672 0-1.234.297-.563.281-.985.75-.406.469-.625 1.078-.218.61-.218 1.25 0 .672.218 1.282.22.609.61 1.062.406.453.953.735.562.265 1.219.265zm8.934.953q-1.36 0-2.031-.89-.656-.907-.656-2.704v-4.906h1.078v4.719q0 2.828 1.937 2.828.485 0 .938-.156.468-.172.86-.469.405-.312.702-.719.313-.421.516-.953v-5.25h1.078v6.938q0 .453.39.453v.953q-.187.031-.312.031h-.172q-.375-.015-.625-.265-.234-.266-.234-.688v-.969q-.547.985-1.485 1.516-.937.531-1.984.531zm10.488 0q-.906 0-1.671-.344-.75-.343-1.313-.937-.562-.61-.875-1.39-.312-.782-.312-1.673 0-.89.312-1.656.313-.781.86-1.36.562-.593 1.328-.937.765-.343 1.656-.343.922 0 1.672.343.765.344 1.297.938.546.594.843 1.36.313.765.313 1.64v.25q0 .125-.016.172h-7.125q.047.672.313 1.25.265.562.672.984.422.406.953.64.531.235 1.14.235.407 0 .797-.11.407-.109.735-.296.343-.203.609-.485.281-.28.422-.609l.953.25q-.203.469-.563.844-.343.375-.812.656-.453.281-1.016.422-.562.156-1.172.156zm3.079-4.765q-.047-.672-.313-1.22-.266-.562-.672-.952-.406-.406-.953-.625-.531-.219-1.14-.219-.61 0-1.157.219-.531.219-.953.625-.406.39-.656.953-.235.562-.281 1.219h6.125zm5.485 4.765q-.984 0-1.906-.312-.922-.328-1.594-.938l.485-.734q.703.578 1.437.875.735.281 1.563.281 1 0 1.593-.406.61-.406.61-1.156 0-.36-.156-.594-.157-.235-.47-.406-.312-.172-.796-.313-.469-.14-1.094-.281-.719-.172-1.25-.344-.515-.187-.86-.406-.343-.219-.515-.547-.172-.328-.172-.828 0-.625.25-1.094.25-.484.672-.797.422-.312.985-.469.578-.171 1.218-.171.953 0 1.735.312.797.313 1.265.828l-.515.64q-.469-.483-1.14-.718-.657-.234-1.376-.234-.437 0-.812.093-.36.079-.641.266-.281.188-.438.484-.156.297-.156.704 0 .328.11.546.109.204.359.36.266.14.656.265t.953.25q.797.188 1.407.391.609.188 1.015.453.406.25.61.625.218.36.218.875 0 1.156-.89 1.828-.875.672-2.36.672zm9.027-.562l-.282.14q-.187.078-.437.157-.234.078-.547.14-.297.063-.625.063-.36 0-.687-.094-.313-.094-.547-.297-.235-.203-.39-.5-.142-.312-.142-.703v-5.969h-1.14v-.875h1.14v-2.812h1.094v2.812h1.922v.875h-1.922v5.657q.031.468.328.687.297.219.672.219.469 0 .813-.156.36-.157.453-.22l.297.876z" fill="#fff"/><path d="M502.285 348.612l59.937-28.252" fill="none"/><path d="M502.285 348.612l54.51-25.693" stroke="#fff" stroke-linecap="butt" stroke-linejoin="round"/><path d="M557.499 324.413l3.4-3.43-4.809.442z" fill="#fff" fill-rule="evenodd" stroke="#fff" stroke-linecap="butt"/><path d="M500.91 419.518l62.393 28.252" fill="none"/><path d="M500.91 419.518l56.927 25.777" stroke="#fff" stroke-linecap="butt" stroke-linejoin="round"/><path d="M557.156 446.8l4.815.367-3.452-3.376z" fill="#fff" fill-rule="evenodd" stroke="#fff" stroke-linecap="butt"/><path d="M476.733 318.236l75.055-33.417 14.709 33.007-75.055 33.418z" fill="none"/><path d="M497.264 335.76l-4.623-10.376 4.382-1.95q.67-.3 1.355-.262.698.031 1.315.304.618.272 1.093.762.489.483.756 1.083.254.57.318 1.175.072.584-.043 1.131-.115.547-.416 1.023-.301.477-.77.805l4.327 2.88-1.156.514-4.145-2.738-3.07 1.366 1.705 3.825-1.028.458zm-1.083-5.196l3.383-1.506q.456-.204.745-.554.282-.365.386-.822.119-.464.077-.941-.033-.498-.243-.97-.204-.456-.566-.808-.368-.366-.794-.553-.432-.2-.9-.215-.474-.028-.902.163l-3.298 1.468 2.112 4.738zm13.775-.284q-.828.369-1.667.366-.825-.009-1.58-.322-.763-.328-1.366-.914-.604-.587-.966-1.4-.363-.814-.389-1.64-.032-.841.232-1.592.272-.77.832-1.396.56-.626 1.373-.988.842-.375 1.667-.366.84.003 1.566.329.742.32 1.324.898.598.573.954 1.372l.101.228q.051.114.056.164l-6.509 2.898q.317.594.794 1.014.472.406 1.015.626.55.2 1.131.198.581-.002 1.138-.25.37-.165.683-.424.327-.265.55-.57.232-.325.36-.69.142-.372.137-.729l.973-.159q.005.51-.17 1-.162.482-.476.93-.3.44-.756.798-.45.371-1.007.62zm.872-5.605q-.316-.594-.781-.986-.472-.406-1.002-.597-.537-.206-1.125-.183-.575.016-1.131.264-.557.248-.967.67-.397.416-.617.958-.212.522-.211 1.138.014.61.239 1.228l5.595-2.492zm7.365 1.938q-.785.35-1.573.307-.775-.049-1.473-.388-.69-.36-1.26-.944-.56-.606-.903-1.376-.356-.8-.403-1.634-.033-.84.211-1.6.244-.758.775-1.37.524-.627 1.28-.964.443-.197.914-.253.472-.056.924 0 .46.034.893.2.434.166.821.422l-.668-1.499.885-.394 4.191 9.405q.185.414.562.263l.382.857q-.144.098-.287.162l-.257.114q-.355.124-.713-.025-.342-.155-.495-.498l-1.692-3.796q-.175 1.104-.706 1.87-.537.753-1.408 1.14zm-.088-1.004q.443-.197.765-.512.315-.328.541-.703.22-.389.331-.831.119-.464.146-.903l-1.05-2.355q-.235-.374-.651-.617-.402-.248-.88-.36-.483-.127-.982-.093-.483.027-.897.211-.614.273-1.007.773-.4.486-.594 1.086-.18.593-.132 1.239.048.645.309 1.23.273.614.72 1.082.449.468.99.723.556.248 1.17.283.622.013 1.221-.253zm8.55-2.764q-1.242.553-2.218.013-.968-.561-1.7-2.202l-1.997-4.482.985-.438 1.92 4.31q1.152 2.583 2.922 1.795.443-.197.793-.524.358-.348.594-.778.244-.45.35-.942.114-.513.083-1.08l-2.137-4.796.985-.438 2.824 6.336q.184.414.541.255l.388.871q-.158.105-.273.156l-.157.07q-.349.138-.679.011-.322-.147-.494-.533l-.394-.884q-.099 1.121-.74 1.988-.64.866-1.596 1.292zm9.582-4.266q-.828.369-1.667.366-.825-.009-1.581-.322-.762-.328-1.365-.915-.604-.586-.966-1.4-.363-.813-.389-1.64-.033-.84.232-1.59.272-.772.831-1.397.56-.626 1.374-.988.842-.375 1.667-.366.84.003 1.566.329.741.32 1.324.898.597.572.954 1.372l.101.228q.051.114.056.163l-6.509 2.898q.316.595.794 1.015.472.406 1.015.626.55.2 1.131.197.581-.002 1.138-.25.37-.165.683-.423.327-.266.55-.57.232-.326.36-.69.142-.372.137-.729l.972-.16q.005.512-.17 1-.161.483-.475.93-.3.441-.756.799-.45.371-1.007.619zm.872-5.605q-.316-.595-.781-.986-.472-.406-1.002-.597-.537-.206-1.125-.184-.575.017-1.131.265-.557.247-.968.67-.396.416-.616.958-.212.522-.211 1.138.014.609.239 1.227l5.595-2.49zm6.951 2.122q-.899.4-1.868.49-.976.075-1.838-.208l.144-.868q.877.242 1.67.214.784-.041 1.541-.378.914-.407 1.29-1.02.392-.619.087-1.304-.147-.328-.385-.478-.238-.15-.593-.18-.356-.03-.856.038-.485.062-1.113.188-.727.135-1.282.194-.547.039-.95-.021-.403-.06-.694-.29-.29-.23-.494-.687-.255-.57-.217-1.1.031-.544.29-1.001.258-.457.708-.829.458-.392 1.043-.653.871-.387 1.712-.42.855-.038 1.493.242l-.21.795q-.625-.252-1.335-.193-.694.053-1.351.345-.4.178-.704.417-.297.217-.477.503-.18.285-.203.62-.022.335.144.706.133.3.322.455.183.141.475.182.3.02.707-.024.408-.045.973-.16.804-.152 1.443-.215.634-.076 1.113.001.473.063.81.323.347.24.557.71.47 1.056-.07 2.032-.526.97-1.882 1.574zm8.017-4.185l-.2.242q-.139.148-.335.321-.183.167-.443.351-.246.178-.545.311-.329.146-.666.194-.324.042-.621-.048t-.56-.298q-.256-.229-.415-.585l-2.43-5.452-1.041.464-.357-.8 1.042-.463-1.144-2.57.999-.444 1.145 2.569 1.755-.782.357.8-1.756.78 2.302 5.167q.22.416.58.495.36.079.702-.074.429-.19.68-.473.264-.289.324-.384l.627.679z" fill="#fff"/></g></svg>