<svg xmlns="http://www.w3.org/2000/svg" viewBox="0 0 514.86615 240.47879" stroke-miterlimit="10" width="514.866" height="240.479" fill="none" stroke-linecap="square"><clipPath id="a"><path d="M0 0h960v540H0V0z"/></clipPath><g clip-path="url(#a)" transform="translate(-169.051 -277.655)"><path d="M587.449 449.608a7.375 7.375 0 0 1 7.375-7.375h81.218a7.375 7.375 0 0 1 7.375 7.375v29.501a7.375 7.375 0 0 1-7.375 7.376h-81.218a7.375 7.375 0 0 1-7.375-7.376z" fill="#400d9a" fill-rule="evenodd"/><path d="M587.449 449.608a7.375 7.375 0 0 1 7.375-7.375h81.218a7.375 7.375 0 0 1 7.375 7.375v29.501a7.375 7.375 0 0 1-7.375 7.376h-81.218a7.375 7.375 0 0 1-7.375-7.376z" stroke="#595959" stroke-linecap="butt" stroke-linejoin="round"/><path d="M605.72 458.202h1.016l5.11 12.297h-1.282l-1.593-3.844h-5.532l-1.578 3.844h-1.297l5.157-12.297zm2.97 7.5l-2.47-6.078-2.515 6.078h4.984zm12.275 4.797h-1.171v-5.047q0-1.61-.485-2.328-.468-.734-1.468-.734-.516 0-1.047.187-.516.188-.953.547-.438.344-.782.828-.343.469-.5 1.016v5.53h-1.187v-9.03h1.078v2.047q.547-.985 1.578-1.594 1.031-.61 2.25-.61.75 0 1.266.282.515.28.828.78.312.5.453 1.235.14.72.14 1.61v5.28zm4.775.172q-.641 0-1.188-.219-.531-.219-.953-.594-.406-.375-.625-.89-.219-.516-.219-1.11 0-.578.266-1.078.281-.515.781-.875t1.188-.562q.703-.203 1.53-.203.704 0 1.407.125.719.125 1.266.343v-.812q0-1.188-.672-1.89-.672-.704-1.875-.704-.688 0-1.422.281-.719.266-1.469.797l-.422-.781q1.75-1.188 3.407-1.188 1.687 0 2.656.954.984.953.984 2.64v4.063q0 .484.422.484v1.047q-.297.047-.453.047-.438 0-.703-.219-.25-.234-.266-.625l-.031-.703q-.625.812-1.578 1.25-.938.422-2.031.422zm.28-.906q.923 0 1.688-.344.782-.344 1.172-.922.156-.156.235-.328.078-.188.078-.344v-1.469q-.594-.218-1.235-.343-.625-.125-1.28-.125-1.25 0-2.032.53-.766.516-.766 1.36 0 .422.156.781.172.36.454.625.28.266.671.422.407.157.86.157zm6.96-11.922h1.172v10.61q0 .5.266.796.281.281.797.281.187 0 .437-.047.266-.062.485-.14l.218.953q-.328.14-.812.219-.469.093-.813.093-.828 0-1.297-.453-.453-.469-.453-1.297v-11.015zm5.167 15.422q.14.03.265.03.14.016.266.016.312 0 .484-.093.188-.078.36-.375.171-.297.39-.86.219-.547.61-1.484l-3.922-9.031h1.203l3.344 7.937 3.109-7.937h1.125l-4.688 11.64q-.187.516-.625.875-.437.375-1.203.375-.172 0-.328-.015-.156 0-.39-.032v-1.046zm8.11-3.563l6.11-7.344h-5.97v-.89h7.25v.797l-6.077 7.343h6.062v.89h-7.375v-.796zm13.197.969q-1 0-1.828-.375-.812-.375-1.422-1.016-.593-.656-.937-1.5-.344-.844-.344-1.828 0-.953.344-1.781.344-.844.937-1.469.594-.64 1.422-1.016.828-.375 1.813-.375.984 0 1.797.375.828.375 1.422 1.016.593.64.921 1.469.329.828.329 1.765v.282q0 .14-.016.187h-7.734q.046.735.328 1.36.297.609.75 1.062.453.438 1.03.688.579.25 1.235.25.438 0 .86-.11.437-.125.797-.328.375-.219.656-.516.297-.312.453-.671l1.031.28q-.203.5-.594.907-.375.406-.89.719-.5.297-1.11.453-.593.172-1.25.172zm3.329-5.156q-.063-.735-.344-1.329-.281-.593-.735-1.03-.437-.438-1.015-.673-.578-.25-1.235-.25-.656 0-1.25.25-.593.235-1.03.672-.438.438-.72 1.047-.265.594-.312 1.313h6.64zm7.452-3q-1.203.03-2.093.656-.875.625-1.235 1.719v5.609h-1.187v-9.031h1.11v2.172q.5-1.047 1.343-1.625.86-.594 1.828-.594.14 0 .234.015v1.079z" fill="#fff"/><path d="M587.449 367.57a7.375 7.375 0 0 1 7.375-7.376h81.218a7.375 7.375 0 0 1 7.375 7.375v29.502a7.375 7.375 0 0 1-7.375 7.375h-81.218a7.375 7.375 0 0 1-7.375-7.375z" fill="#400d9a" fill-rule="evenodd"/><path d="M587.449 367.57a7.375 7.375 0 0 1 7.375-7.376h81.218a7.375 7.375 0 0 1 7.375 7.375v29.502a7.375 7.375 0 0 1-7.375 7.375h-81.218a7.375 7.375 0 0 1-7.375-7.375z" stroke="#595959" stroke-linecap="butt" stroke-linejoin="round"/><path d="M605.72 376.163h1.016l5.11 12.297h-1.282l-1.593-3.844h-5.532l-1.578 3.844h-1.297l5.157-12.297zm2.97 7.5l-2.47-6.078-2.515 6.078h4.984zm12.275 4.797h-1.171v-5.047q0-1.61-.485-2.328-.468-.734-1.468-.734-.516 0-1.047.187-.516.188-.953.547-.438.344-.782.828-.343.469-.5 1.016v5.531h-1.187v-9.031h1.078v2.047q.547-.985 1.578-1.594 1.031-.61 2.25-.61.75 0 1.266.282.515.281.828.781.312.5.453 1.234.14.72.14 1.61v5.281zm4.775.172q-.641 0-1.188-.219-.531-.219-.953-.594-.406-.375-.625-.89-.219-.516-.219-1.11 0-.578.266-1.078.281-.515.781-.875t1.188-.562q.703-.203 1.53-.203.704 0 1.407.125.719.125 1.266.343v-.812q0-1.188-.672-1.89-.672-.704-1.875-.704-.688 0-1.422.281-.719.266-1.469.797l-.422-.781q1.75-1.188 3.407-1.188 1.687 0 2.656.954.984.953.984 2.64v4.063q0 .484.422.484v1.047q-.297.047-.453.047-.438 0-.703-.219-.25-.234-.266-.625l-.031-.703q-.625.813-1.578 1.25-.938.422-2.031.422zm.28-.906q.923 0 1.688-.344.782-.344 1.172-.922.156-.156.235-.328.078-.188.078-.344v-1.469q-.594-.218-1.235-.343-.625-.125-1.28-.125-1.25 0-2.032.53-.766.516-.766 1.36 0 .422.156.781.172.36.454.625.28.266.671.422.407.157.86.157zm6.96-11.922h1.172v10.61q0 .5.266.796.281.281.797.281.187 0 .437-.047.266-.062.485-.14l.218.953q-.328.14-.812.219-.469.093-.813.093-.828 0-1.297-.453-.453-.469-.453-1.297v-11.015zm5.167 15.422q.14.03.265.03.14.016.266.016.312 0 .484-.093.188-.078.36-.375.171-.297.39-.86.219-.547.61-1.484l-3.922-9.031h1.203l3.344 7.937 3.109-7.937h1.125l-4.688 11.64q-.187.516-.625.875-.437.375-1.203.375-.172 0-.328-.015-.156 0-.39-.031v-1.047zm8.11-3.563l6.11-7.344h-5.97v-.89h7.25v.797l-6.077 7.343h6.062v.891h-7.375v-.797zm13.197.969q-1 0-1.828-.375-.812-.375-1.422-1.016-.593-.656-.937-1.5-.344-.844-.344-1.828 0-.953.344-1.781.344-.844.937-1.469.594-.64 1.422-1.016.828-.375 1.813-.375.984 0 1.797.375.828.375 1.422 1.016.593.64.921 1.469.329.828.329 1.765v.282q0 .14-.016.187h-7.734q.046.735.328 1.36.297.609.75 1.062.453.438 1.03.688.579.25 1.235.25.438 0 .86-.11.437-.125.797-.328.375-.219.656-.516.297-.312.453-.671l1.031.28q-.203.5-.594.907-.375.406-.89.719-.5.297-1.11.453-.593.172-1.25.172zm3.329-5.156q-.063-.735-.344-1.329-.281-.593-.735-1.03-.437-.438-1.015-.673-.578-.25-1.235-.25-.656 0-1.25.25-.593.235-1.03.672-.438.438-.72 1.047-.265.594-.312 1.313h6.64zm7.452-3q-1.203.03-2.093.656-.875.625-1.235 1.719v5.609h-1.187v-9.031h1.11v2.172q.5-1.047 1.343-1.625.86-.594 1.828-.594.14 0 .234.015v1.079z" fill="#fff"/><path d="M587.449 285.53a7.375 7.375 0 0 1 7.375-7.375h81.218a7.375 7.375 0 0 1 7.375 7.376v29.5a7.375 7.375 0 0 1-7.375 7.376h-81.218a7.375 7.375 0 0 1-7.375-7.375z" fill="#400d9a" fill-rule="evenodd"/><path d="M587.449 285.53a7.375 7.375 0 0 1 7.375-7.375h81.218a7.375 7.375 0 0 1 7.375 7.376v29.5a7.375 7.375 0 0 1-7.375 7.376h-81.218a7.375 7.375 0 0 1-7.375-7.375z" stroke="#595959" stroke-linecap="butt" stroke-linejoin="round"/><path d="M605.72 294.124h1.016l5.11 12.297h-1.282l-1.593-3.844h-5.532l-1.578 3.844h-1.297l5.157-12.297zm2.97 7.5l-2.47-6.078-2.515 6.078h4.984zm12.275 4.797h-1.171v-5.047q0-1.61-.485-2.328-.468-.734-1.468-.734-.516 0-1.047.187-.516.188-.953.547-.438.344-.782.828-.343.469-.5 1.016v5.531h-1.187v-9.031h1.078v2.047q.547-.985 1.578-1.594 1.031-.61 2.25-.61.75 0 1.266.282.515.281.828.781.312.5.453 1.234.14.72.14 1.61v5.281zm4.775.172q-.641 0-1.188-.219-.531-.219-.953-.594-.406-.375-.625-.89-.219-.516-.219-1.11 0-.578.266-1.078.281-.515.781-.875t1.188-.562q.703-.203 1.53-.203.704 0 1.407.125.719.125 1.266.343v-.812q0-1.188-.672-1.89-.672-.704-1.875-.704-.688 0-1.422.281-.719.266-1.469.797l-.422-.78q1.75-1.188 3.407-1.188 1.687 0 2.656.953.984.953.984 2.64v4.063q0 .484.422.484v1.047q-.297.047-.453.047-.438 0-.703-.219-.25-.234-.266-.625l-.031-.703q-.625.813-1.578 1.25-.938.422-2.031.422zm.28-.906q.923 0 1.688-.344.782-.344 1.172-.922.156-.156.235-.328.078-.188.078-.344v-1.469q-.594-.218-1.235-.343-.625-.125-1.28-.125-1.25 0-2.032.53-.766.517-.766 1.36 0 .422.156.782.172.359.454.625.28.265.671.421.407.157.86.157zm6.96-11.922h1.172v10.61q0 .5.266.796.281.281.797.281.187 0 .437-.047.266-.062.485-.14l.218.953q-.328.14-.812.219-.469.093-.813.093-.828 0-1.297-.453-.453-.469-.453-1.297v-11.015zm5.167 15.422q.14.03.265.03.14.016.266.016.312 0 .484-.093.188-.078.36-.375.171-.297.39-.86.219-.546.61-1.484l-3.922-9.031h1.203l3.344 7.937 3.109-7.937h1.125l-4.688 11.64q-.187.516-.625.875-.437.375-1.203.375-.172 0-.328-.015-.156 0-.39-.031v-1.047zm8.11-3.563l6.11-7.344h-5.97v-.89h7.25v.797l-6.077 7.343h6.062v.891h-7.375v-.797zm13.197.969q-1 0-1.828-.375-.812-.375-1.422-1.016-.593-.656-.937-1.5-.344-.843-.344-1.828 0-.953.344-1.781.344-.844.937-1.469.594-.64 1.422-1.015.828-.375 1.813-.375.984 0 1.797.375.828.375 1.422 1.015.593.64.921 1.469.329.828.329 1.766v.28q0 .141-.016.188h-7.734q.046.735.328 1.36.297.61.75 1.062.453.438 1.03.688.579.25 1.235.25.438 0 .86-.11.437-.125.797-.328.375-.219.656-.515.297-.313.453-.672l1.031.28q-.203.5-.594.907-.375.406-.89.719-.5.297-1.11.453-.593.172-1.25.172zm3.329-5.156q-.063-.735-.344-1.328-.281-.594-.735-1.032-.437-.437-1.015-.672-.578-.25-1.235-.25-.656 0-1.25.25-.593.235-1.03.672-.438.438-.72 1.047-.265.594-.312 1.313h6.64zm7.452-3q-1.203.03-2.093.656-.875.625-1.235 1.719v5.61h-1.187v-9.032h1.11v2.172q.5-1.047 1.343-1.625.86-.594 1.828-.594.14 0 .234.016v1.078z" fill="#fff"/><path d="M380.797 367.503a7.375 7.375 0 0 1 7.375-7.375h81.218a7.375 7.375 0 0 1 7.375 7.375v29.501a7.376 7.376 0 0 1-7.375 7.376h-81.218a7.375 7.375 0 0 1-7.375-7.376z" fill="#400d9a" fill-rule="evenodd"/><path d="M380.797 367.503a7.375 7.375 0 0 1 7.375-7.375h81.218a7.375 7.375 0 0 1 7.375 7.375v29.501a7.376 7.376 0 0 1-7.375 7.376h-81.218a7.375 7.375 0 0 1-7.375-7.376z" stroke="#595959" stroke-linecap="butt" stroke-linejoin="round"/><path d="M397.17 377.894v-12.297h1.204v11.219h7.109v1.078h-8.312zm13.697.172q-.985 0-1.797-.375-.813-.375-1.422-1.016-.594-.64-.922-1.484-.328-.844-.328-1.782 0-.953.344-1.797.343-.859.937-1.5.594-.64 1.406-1.015.813-.39 1.782-.39.968 0 1.796.39.829.375 1.422 1.015.594.641.938 1.5.344.844.344 1.797 0 .938-.344 1.782-.328.843-.922 1.484-.594.64-1.422 1.016-.812.375-1.812.375zm-3.266-4.641q0 .766.25 1.422.266.64.703 1.14.453.485 1.047.766.594.281 1.266.281.687 0 1.28-.28.595-.298 1.048-.782.453-.5.703-1.156.265-.672.265-1.422 0-.75-.265-1.407-.25-.671-.703-1.171-.453-.5-1.047-.782-.594-.28-1.281-.28-.672 0-1.266.28-.578.282-1.031.797-.453.5-.72 1.172-.25.656-.25 1.422zm13.576 4.64q-.985 0-1.797-.374-.813-.375-1.422-1.016-.594-.64-.922-1.484-.328-.844-.328-1.782 0-.953.344-1.797.343-.859.937-1.5.594-.64 1.406-1.015.813-.39 1.782-.39.968 0 1.797.39.828.375 1.421 1.015.594.641.938 1.5.344.844.344 1.797 0 .938-.344 1.782-.328.843-.922 1.484-.594.64-1.422 1.016-.812.375-1.812.375zm-3.266-4.64q0 .766.25 1.422.266.64.703 1.14.453.485 1.047.766.594.281 1.266.281.687 0 1.28-.28.595-.298 1.048-.782.453-.5.703-1.156.266-.672.266-1.422 0-.75-.266-1.407-.25-.671-.703-1.171-.453-.5-1.047-.782-.594-.28-1.281-.28-.672 0-1.266.28-.578.282-1.031.797-.453.5-.719 1.172-.25.656-.25 1.422zm16.185 4.469l-3.328-4.625-1.937 1.797v2.828h-1.188v-12.657h1.188v8.594l5.078-4.953h1.328l-3.688 3.703 3.829 5.313h-1.282zm6.575.172q-.985 0-1.797-.375-.813-.375-1.422-1.016-.594-.64-.922-1.484-.328-.844-.328-1.782 0-.953.344-1.797.343-.859.937-1.5.594-.64 1.406-1.015.813-.39 1.782-.39.968 0 1.797.39.828.375 1.421 1.015.594.641.938 1.5.344.844.344 1.797 0 .938-.344 1.782-.328.843-.922 1.484-.594.64-1.422 1.016-.812.375-1.812.375zm-3.266-4.641q0 .766.25 1.422.266.64.703 1.14.453.485 1.047.766.594.281 1.266.281.687 0 1.281-.28.594-.298 1.047-.782.453-.5.703-1.156.266-.672.266-1.422 0-.75-.266-1.407-.25-.671-.703-1.171-.453-.5-1.047-.782-.594-.28-1.281-.28-.672 0-1.266.28-.578.282-1.031.797-.453.5-.719 1.172-.25.656-.25 1.422zm12.56 4.64q-1.468 0-2.187-.968-.719-.985-.719-2.922v-5.313h1.172v5.094q0 3.078 2.094 3.078.515 0 1.015-.172.516-.187.938-.515.422-.328.75-.766.344-.453.562-1.031v-5.688h1.172v7.5q0 .485.422.485v1.047q-.219.03-.344.03h-.187q-.406-.015-.672-.28-.25-.282-.25-.75v-1.047q-.594 1.062-1.61 1.64-1.015.579-2.156.579zm11.793-.609q-.094.063-.297.156-.203.079-.468.172-.25.078-.579.14-.328.079-.687.079-.39 0-.734-.11-.344-.109-.61-.312-.25-.219-.406-.547-.156-.343-.156-.765v-6.47h-1.25v-.937h1.25v-3.046h1.172v3.046h2.078v.938h-2.078v6.14q.03.5.343.735.328.234.75.234.5 0 .875-.156.39-.172.485-.25l.312.953zM407.987 399.066q-1.063 0-2.063-.344-1-.344-1.734-1l.547-.797q.75.61 1.531.922.797.312 1.703.312 1.094 0 1.734-.437.657-.438.657-1.25 0-.39-.172-.64t-.516-.438q-.328-.188-.844-.328-.515-.157-1.187-.313-.781-.187-1.36-.375-.562-.203-.937-.437-.375-.25-.562-.594-.172-.36-.172-.906 0-.672.265-1.188.266-.516.72-.86.468-.343 1.077-.515.625-.172 1.313-.172 1.047 0 1.89.344.844.328 1.375.89l-.578.688q-.5-.516-1.219-.766-.718-.265-1.5-.265-.468 0-.875.093-.39.094-.703.313-.297.203-.468.531-.172.313-.172.735 0 .375.11.593.124.22.405.391.282.172.703.297.422.125 1.032.265.86.204 1.515.422.672.203 1.11.485.437.265.656.672.234.39.234.968 0 1.25-.953 1.985-.953.719-2.562.719zm9.345 0q-1 0-1.828-.375-.813-.375-1.422-1.016-.594-.656-.938-1.5t-.344-1.828q0-.953.344-1.781.344-.844.938-1.47.593-.64 1.422-1.015.828-.375 1.812-.375.984 0 1.797.375.828.375 1.422 1.016.594.64.922 1.469.328.828.328 1.765v.281q0 .141-.016.188h-7.734q.047.734.328 1.36.297.609.75 1.062.453.437 1.031.687.578.25 1.235.25.437 0 .859-.11.438-.124.797-.327.375-.219.656-.516.297-.312.453-.672l1.031.282q-.203.5-.593.906-.375.406-.89.719-.5.296-1.11.453-.594.172-1.25.172zm3.328-5.157q-.063-.734-.344-1.328-.281-.594-.734-1.031-.438-.438-1.016-.672-.578-.25-1.234-.25-.657 0-1.25.25-.594.234-1.032.672-.437.437-.718 1.047-.266.594-.313 1.312h6.64zm7.453-3q-1.203.031-2.094.657-.875.625-1.234 1.718v5.61h-1.188v-9.032h1.11v2.172q.5-1.047 1.343-1.625.86-.593 1.828-.593.14 0 .235.015v1.078zm4.27 7.985l-3.673-9.032h1.22l3.093 7.938 3.125-7.938h1.14l-3.671 9.032h-1.235zm10.438.172q-1 0-1.828-.375-.812-.375-1.422-1.016-.594-.656-.937-1.5-.344-.844-.344-1.828 0-.953.344-1.781.343-.844.937-1.47.594-.64 1.422-1.015.828-.375 1.813-.375.984 0 1.796.375.829.375 1.422 1.016.594.64.922 1.469.328.828.328 1.765v.281q0 .141-.015.188h-7.735q.047.734.329 1.36.296.609.75 1.062.453.437 1.03.687.579.25 1.235.25.438 0 .86-.11.437-.124.796-.327.375-.219.657-.516.297-.312.453-.672l1.031.282q-.203.5-.594.906-.375.406-.89.719-.5.296-1.11.453-.593.172-1.25.172zm3.328-5.157q-.062-.734-.343-1.328-.282-.594-.735-1.031-.437-.438-1.015-.672-.579-.25-1.235-.25-.656 0-1.25.25-.594.234-1.031.672-.438.437-.719 1.047-.265.594-.312 1.312h6.64zm7.453-3q-1.203.031-2.094.657-.875.625-1.234 1.718v5.61h-1.187v-9.032h1.109v2.172q.5-1.047 1.344-1.625.86-.593 1.828-.593.14 0 .234.015v1.078z" fill="#fff"/><path d="M169.551 367.489a7.375 7.375 0 0 1 7.376-7.376h81.217a7.375 7.375 0 0 1 7.376 7.376v29.5a7.375 7.375 0 0 1-7.376 7.376h-81.217a7.375 7.375 0 0 1-7.376-7.375z" fill="#400d9a" fill-rule="evenodd"/><path d="M169.551 367.489a7.375 7.375 0 0 1 7.376-7.376h81.217a7.375 7.375 0 0 1 7.376 7.376v29.5a7.375 7.375 0 0 1-7.376 7.376h-81.217a7.375 7.375 0 0 1-7.376-7.375z" stroke="#595959" stroke-linecap="butt" stroke-linejoin="round"/><path d="M200.092 386.582q-1.719 1.891-3.953 1.891-1.25 0-2.297-.531-1.047-.547-1.828-1.422-.766-.89-1.203-2-.422-1.125-.422-2.313 0-1.234.422-2.359t1.187-1.969q.766-.86 1.797-1.375 1.047-.515 2.266-.515.906 0 1.64.203.75.203 1.329.562.593.344 1.015.844.422.484.719 1.078l-.937.625q-.61-1.14-1.579-1.672-.968-.547-2.203-.547-1.015 0-1.843.438-.829.422-1.407 1.14-.578.72-.89 1.657-.313.922-.313 1.906 0 1.047.36 1.984.359.938.984 1.641.625.688 1.453 1.11.844.421 1.828.421 1.063 0 2.016-.5.969-.5 1.86-1.562v-2.047h-2.75v-.938h3.765v6.047h-1.016v-1.797zm3.266 1.797v-9.031h1.188v9.031h-1.188zm0-10.922v-1.734h1.188v1.734h-1.188zm8.106 10.485q-.094.062-.297.156-.203.078-.469.172-.25.078-.578.14-.328.079-.687.079-.39 0-.735-.11-.343-.11-.609-.312-.25-.219-.406-.547-.156-.344-.156-.766v-6.469h-1.25v-.937h1.25v-3.047h1.171v3.047h2.079v.937h-2.079v6.141q.032.5.344.734.328.235.75.235.5 0 .875-.156.39-.172.485-.25l.312.953zm11.43-11.86v12.297h-1.203v-5.75h-7.297v5.75h-1.203v-12.297h1.203v5.47h7.297v-5.47h1.203zm5.663 12.47q-1.469 0-2.188-.97-.718-.984-.718-2.921v-5.313h1.172v5.094q0 3.078 2.093 3.078.516 0 1.016-.172.516-.187.937-.516.422-.328.75-.765.344-.453.563-1.031v-5.688h1.172v7.5q0 .484.422.484v1.047q-.219.031-.344.031h-.188q-.406-.015-.671-.28-.25-.282-.25-.75v-1.048q-.594 1.063-1.61 1.641-1.015.578-2.156.578zm11.887 0q-1.079 0-1.97-.532-.89-.547-1.39-1.39v1.75h-1.062v-12.657h1.187v5.516q.594-.922 1.438-1.485.86-.562 1.984-.562.953 0 1.703.406.766.39 1.281 1.063.532.671.813 1.515.297.828.297 1.719 0 .953-.328 1.797t-.907 1.484q-.562.625-1.359 1-.781.375-1.687.375zm-.282-1.032q.75 0 1.36-.297.625-.312 1.062-.828.438-.516.688-1.156.25-.657.25-1.344 0-.719-.235-1.375-.234-.656-.656-1.156-.422-.516-1.016-.813-.593-.312-1.312-.312-.531 0-1 .187-.469.172-.875.485-.39.312-.703.718-.313.407-.516.86v2.812q.063.469.36.875.312.406.734.703.422.282.906.469.5.172.953.172z" fill="#fff"/><path d="M463.932 346.428l118.645-52.819 14.71 33.008-118.647 52.82z" fill="none"/><path d="M528.495 344.436q-1.085.483-2.181.441-1.097-.042-2.07-.498-.973-.456-1.75-1.24-.768-.803-1.213-1.802-.458-1.028-.507-2.135-.055-1.121.277-2.142.326-1.034 1.02-1.856.709-.829 1.751-1.293 1.085-.483 2.188-.426 1.102.056 2.068.533.973.456 1.735 1.246.777.783 1.215 1.767.458 1.028.513 2.15.049 1.107-.283 2.127-.318 1.014-1.027 1.842-.694.822-1.736 1.286zm-6.187-3.557q.382.857 1.003 1.52.629.644 1.402 1.036.78.37 1.646.43.872.04 1.729-.342.87-.388 1.413-1.09.556-.71.768-1.54.226-.836.154-1.728-.073-.891-.435-1.705-.375-.842-1.004-1.485-.635-.658-1.416-1.029-.767-.377-1.64-.416-.865-.06-1.707.315-.87.388-1.427 1.097-.548.69-.774 1.525-.212.83-.14 1.722.072.891.428 1.69zm12.95.46l-4.617-10.36 1.028-.458 2.683 6.023 3.02-8.58 1.128-.501-2.211 6.44 7.048 3.84-1.113.496-6.31-3.45-1.046 2.91 1.418 3.183-1.028.458z" fill="#fff"/><path d="M556.595 303.965l-62.393 28.252" fill="none"/><path d="M556.595 303.965l-56.928 25.777" stroke="#fff" stroke-linecap="butt" stroke-linejoin="round"/><path d="M498.986 328.237l-3.453 3.377 4.816-.368z" fill="#fff" fill-rule="evenodd" stroke="#fff" stroke-linecap="butt"/><path d="M555.367 470.486l-59.937-28.252" fill="none"/><path d="M555.367 470.486l-54.51-25.693" stroke="#fff" stroke-linecap="butt" stroke-linejoin="round"/><path d="M501.562 443.299l-4.81-.441 3.401 3.429z" fill="#fff" fill-rule="evenodd" stroke="#fff" stroke-linecap="butt"/><path d="M562.183 390.695h-60.158" fill="none"/><path d="M562.183 390.695h-54.158" stroke="#fff" stroke-linecap="butt" stroke-linejoin="round"/><path d="M508.025 389.043l-4.538 1.652 4.538 1.652z" fill="#fff" fill-rule="evenodd" stroke="#fff" stroke-linecap="butt"/><path d="M470.995 390.696h125.984v36.157H470.995z" fill="none"/><path d="M528.835 415.134q-1.188 0-2.172-.485-.984-.484-1.688-1.297-.703-.812-1.093-1.843-.375-1.047-.375-2.141 0-1.125.406-2.156.406-1.047 1.125-1.844.719-.812 1.687-1.281.985-.469 2.125-.469 1.188 0 2.172.5.985.5 1.672 1.328.703.813 1.078 1.844.391 1.031.391 2.11 0 1.124-.406 2.171-.407 1.031-1.125 1.828-.703.797-1.688 1.266-.969.469-2.11.469zm-4.203-5.766q0 .938.297 1.797.312.844.859 1.516.562.656 1.328 1.062.781.39 1.719.39.953 0 1.734-.421.797-.422 1.328-1.094.547-.672.844-1.516.297-.843.297-1.734 0-.922-.313-1.766-.312-.859-.875-1.515-.546-.656-1.328-1.047-.765-.406-1.687-.406-.953 0-1.75.422-.781.406-1.328 1.078-.532.672-.828 1.515-.297.844-.297 1.719zm11.64 5.688v-11.344h1.126v6.594l6.25-6.61h1.234l-4.64 4.985 4.875 6.375h-1.22l-4.359-5.72-2.14 2.235v3.485h-1.125z" fill="#fff"/><path d="M468.714 432.842l117.26 52.284-14.709 33.008-117.26-52.284z" fill="none"/><path d="M512.692 479.208q-1.085-.483-1.787-1.327-.702-.843-1.013-1.871-.312-1.029-.249-2.13.084-1.109.529-2.108.458-1.027 1.249-1.804.797-.79 1.778-1.226.987-.45 2.062-.483 1.09-.027 2.132.437 1.085.484 1.78 1.341.696.858.986 1.894.312 1.029.235 2.123-.063 1.101-.502 2.086-.458 1.028-1.255 1.819-.791.776-1.772 1.211-.966.442-2.056.47-1.076.033-2.117-.432zm-1.493-6.978q-.381.857-.46 1.762-.058.898.168 1.735.247.828.78 1.511.555.675 1.411 1.057.871.388 1.756.32.9-.06 1.658-.457.773-.391 1.388-1.041.615-.65.977-1.463.375-.843.433-1.74.065-.913-.182-1.741-.232-.822-.787-1.497-.534-.683-1.376-1.059-.87-.388-1.77-.327-.879.053-1.652.444-.758.397-1.373 1.047-.614.65-.97 1.45zm8.318 9.936l4.617-10.362 1.027.458-2.684 6.023 8.399-3.492 1.127.503-6.267 2.663 1.858 7.808-1.113-.496-1.654-6.999-2.865 1.17-1.418 3.182-1.027-.458z" fill="#fff"/></g></svg>