<svg xmlns="http://www.w3.org/2000/svg" viewBox="0 0 514.86615 240.47879" stroke-miterlimit="10" width="514.866" height="240.479" fill="none" stroke-linecap="square"><clipPath id="a"><path d="M0 0h960v540H0V0z"/></clipPath><g clip-path="url(#a)" transform="translate(-169.051 -277.655)"><path d="M587.449 449.608a7.375 7.375 0 0 1 7.375-7.375h81.218a7.375 7.375 0 0 1 7.375 7.375v29.501a7.375 7.375 0 0 1-7.375 7.376h-81.218a7.375 7.375 0 0 1-7.375-7.376z" fill="#400d9a" fill-rule="evenodd"/><path d="M587.449 449.608a7.375 7.375 0 0 1 7.375-7.375h81.218a7.375 7.375 0 0 1 7.375 7.375v29.501a7.375 7.375 0 0 1-7.375 7.376h-81.218a7.375 7.375 0 0 1-7.375-7.376z" stroke="#595959" stroke-linecap="butt" stroke-linejoin="round"/><path d="M605.72 458.202h1.016l5.11 12.297h-1.282l-1.593-3.844h-5.532l-1.578 3.844h-1.297l5.157-12.297zm2.97 7.5l-2.47-6.078-2.515 6.078h4.984zm12.275 4.797h-1.171v-5.047q0-1.61-.485-2.328-.468-.734-1.468-.734-.516 0-1.047.187-.516.188-.953.547-.438.344-.782.828-.343.469-.5 1.016v5.53h-1.187v-9.03h1.078v2.047q.547-.985 1.578-1.594 1.031-.61 2.25-.61.75 0 1.266.282.515.28.828.78.312.5.453 1.235.14.72.14 1.61v5.28zm4.775.172q-.641 0-1.188-.219-.531-.219-.953-.594-.406-.375-.625-.89-.219-.516-.219-1.11 0-.578.266-1.078.281-.515.781-.875t1.188-.562q.703-.203 1.53-.203.704 0 1.407.125.719.125 1.266.343v-.812q0-1.188-.672-1.89-.672-.704-1.875-.704-.688 0-1.422.281-.719.266-1.469.797l-.422-.781q1.75-1.188 3.407-1.188 1.687 0 2.656.954.984.953.984 2.64v4.063q0 .484.422.484v1.047q-.297.047-.453.047-.438 0-.703-.219-.25-.234-.266-.625l-.031-.703q-.625.812-1.578 1.25-.938.422-2.031.422zm.28-.906q.923 0 1.688-.344.782-.344 1.172-.922.156-.156.235-.328.078-.188.078-.344v-1.469q-.594-.218-1.235-.343-.625-.125-1.28-.125-1.25 0-2.032.53-.766.516-.766 1.36 0 .422.156.781.172.36.454.625.28.266.671.422.407.157.86.157zm6.96-11.922h1.172v10.61q0 .5.266.796.281.281.797.281.187 0 .437-.047.266-.062.485-.14l.218.953q-.328.14-.812.219-.469.093-.813.093-.828 0-1.297-.453-.453-.469-.453-1.297v-11.015zm5.167 15.422q.14.03.265.03.14.016.266.016.312 0 .484-.093.188-.078.36-.375.171-.297.39-.86.219-.547.61-1.484l-3.922-9.031h1.203l3.344 7.937 3.109-7.937h1.125l-4.688 11.64q-.187.516-.625.875-.437.375-1.203.375-.172 0-.328-.015-.156 0-.39-.032v-1.046zm8.11-3.563l6.11-7.344h-5.97v-.89h7.25v.797l-6.077 7.343h6.062v.89h-7.375v-.796zm13.197.969q-1 0-1.828-.375-.812-.375-1.422-1.016-.593-.656-.937-1.5-.344-.844-.344-1.828 0-.953.344-1.781.344-.844.937-1.469.594-.64 1.422-1.016.828-.375 1.813-.375.984 0 1.797.375.828.375 1.422 1.016.593.64.921 1.469.329.828.329 1.765v.282q0 .14-.016.187h-7.734q.046.735.328 1.36.297.609.75 1.062.453.438 1.03.688.579.25 1.235.25.438 0 .86-.11.437-.125.797-.328.375-.219.656-.516.297-.312.453-.671l1.031.28q-.203.5-.594.907-.375.406-.89.719-.5.297-1.11.453-.593.172-1.25.172zm3.329-5.156q-.063-.735-.344-1.329-.281-.593-.735-1.03-.437-.438-1.015-.673-.578-.25-1.235-.25-.656 0-1.25.25-.593.235-1.03.672-.438.438-.72 1.047-.265.594-.312 1.313h6.64zm7.452-3q-1.203.03-2.093.656-.875.625-1.235 1.719v5.609h-1.187v-9.031h1.11v2.172q.5-1.047 1.343-1.625.86-.594 1.828-.594.14 0 .234.015v1.079z" fill="#fff"/><path d="M587.449 367.57a7.375 7.375 0 0 1 7.375-7.376h81.218a7.375 7.375 0 0 1 7.375 7.375v29.502a7.375 7.375 0 0 1-7.375 7.375h-81.218a7.375 7.375 0 0 1-7.375-7.375z" fill="#400d9a" fill-rule="evenodd"/><path d="M587.449 367.57a7.375 7.375 0 0 1 7.375-7.376h81.218a7.375 7.375 0 0 1 7.375 7.375v29.502a7.375 7.375 0 0 1-7.375 7.375h-81.218a7.375 7.375 0 0 1-7.375-7.375z" stroke="#595959" stroke-linecap="butt" stroke-linejoin="round"/><path d="M605.72 376.163h1.016l5.11 12.297h-1.282l-1.593-3.844h-5.532l-1.578 3.844h-1.297l5.157-12.297zm2.97 7.5l-2.47-6.078-2.515 6.078h4.984zm12.275 4.797h-1.171v-5.047q0-1.61-.485-2.328-.468-.734-1.468-.734-.516 0-1.047.187-.516.188-.953.547-.438.344-.782.828-.343.469-.5 1.016v5.531h-1.187v-9.031h1.078v2.047q.547-.985 1.578-1.594 1.031-.61 2.25-.61.75 0 1.266.282.515.281.828.781.312.5.453 1.234.14.72.14 1.61v5.281zm4.775.172q-.641 0-1.188-.219-.531-.219-.953-.594-.406-.375-.625-.89-.219-.516-.219-1.11 0-.578.266-1.078.281-.515.781-.875t1.188-.562q.703-.203 1.53-.203.704 0 1.407.125.719.125 1.266.343v-.812q0-1.188-.672-1.89-.672-.704-1.875-.704-.688 0-1.422.281-.719.266-1.469.797l-.422-.781q1.75-1.188 3.407-1.188 1.687 0 2.656.954.984.953.984 2.64v4.063q0 .484.422.484v1.047q-.297.047-.453.047-.438 0-.703-.219-.25-.234-.266-.625l-.031-.703q-.625.813-1.578 1.25-.938.422-2.031.422zm.28-.906q.923 0 1.688-.344.782-.344 1.172-.922.156-.156.235-.328.078-.188.078-.344v-1.469q-.594-.218-1.235-.343-.625-.125-1.28-.125-1.25 0-2.032.53-.766.516-.766 1.36 0 .422.156.781.172.36.454.625.28.266.671.422.407.157.86.157zm6.96-11.922h1.172v10.61q0 .5.266.796.281.281.797.281.187 0 .437-.047.266-.062.485-.14l.218.953q-.328.14-.812.219-.469.093-.813.093-.828 0-1.297-.453-.453-.469-.453-1.297v-11.015zm5.167 15.422q.14.03.265.03.14.016.266.016.312 0 .484-.093.188-.078.36-.375.171-.297.39-.86.219-.547.61-1.484l-3.922-9.031h1.203l3.344 7.937 3.109-7.937h1.125l-4.688 11.64q-.187.516-.625.875-.437.375-1.203.375-.172 0-.328-.015-.156 0-.39-.031v-1.047zm8.11-3.563l6.11-7.344h-5.97v-.89h7.25v.797l-6.077 7.343h6.062v.891h-7.375v-.797zm13.197.969q-1 0-1.828-.375-.812-.375-1.422-1.016-.593-.656-.937-1.5-.344-.844-.344-1.828 0-.953.344-1.781.344-.844.937-1.469.594-.64 1.422-1.016.828-.375 1.813-.375.984 0 1.797.375.828.375 1.422 1.016.593.64.921 1.469.329.828.329 1.765v.282q0 .14-.016.187h-7.734q.046.735.328 1.36.297.609.75 1.062.453.438 1.03.688.579.25 1.235.25.438 0 .86-.11.437-.125.797-.328.375-.219.656-.516.297-.312.453-.671l1.031.28q-.203.5-.594.907-.375.406-.89.719-.5.297-1.11.453-.593.172-1.25.172zm3.329-5.156q-.063-.735-.344-1.329-.281-.593-.735-1.03-.437-.438-1.015-.673-.578-.25-1.235-.25-.656 0-1.25.25-.593.235-1.03.672-.438.438-.72 1.047-.265.594-.312 1.313h6.64zm7.452-3q-1.203.03-2.093.656-.875.625-1.235 1.719v5.609h-1.187v-9.031h1.11v2.172q.5-1.047 1.343-1.625.86-.594 1.828-.594.14 0 .234.015v1.079z" fill="#fff"/><path d="M587.449 285.53a7.375 7.375 0 0 1 7.375-7.375h81.218a7.375 7.375 0 0 1 7.375 7.376v29.5a7.375 7.375 0 0 1-7.375 7.376h-81.218a7.375 7.375 0 0 1-7.375-7.375z" fill="#400d9a" fill-rule="evenodd"/><path d="M587.449 285.53a7.375 7.375 0 0 1 7.375-7.375h81.218a7.375 7.375 0 0 1 7.375 7.376v29.5a7.375 7.375 0 0 1-7.375 7.376h-81.218a7.375 7.375 0 0 1-7.375-7.375z" stroke="#595959" stroke-linecap="butt" stroke-linejoin="round"/><path d="M605.72 294.124h1.016l5.11 12.297h-1.282l-1.593-3.844h-5.532l-1.578 3.844h-1.297l5.157-12.297zm2.97 7.5l-2.47-6.078-2.515 6.078h4.984zm12.275 4.797h-1.171v-5.047q0-1.61-.485-2.328-.468-.734-1.468-.734-.516 0-1.047.187-.516.188-.953.547-.438.344-.782.828-.343.469-.5 1.016v5.531h-1.187v-9.031h1.078v2.047q.547-.985 1.578-1.594 1.031-.61 2.25-.61.75 0 1.266.282.515.281.828.781.312.5.453 1.234.14.72.14 1.61v5.281zm4.775.172q-.641 0-1.188-.219-.531-.219-.953-.594-.406-.375-.625-.89-.219-.516-.219-1.11 0-.578.266-1.078.281-.515.781-.875t1.188-.562q.703-.203 1.53-.203.704 0 1.407.125.719.125 1.266.343v-.812q0-1.188-.672-1.89-.672-.704-1.875-.704-.688 0-1.422.281-.719.266-1.469.797l-.422-.78q1.75-1.188 3.407-1.188 1.687 0 2.656.953.984.953.984 2.64v4.063q0 .484.422.484v1.047q-.297.047-.453.047-.438 0-.703-.219-.25-.234-.266-.625l-.031-.703q-.625.813-1.578 1.25-.938.422-2.031.422zm.28-.906q.923 0 1.688-.344.782-.344 1.172-.922.156-.156.235-.328.078-.188.078-.344v-1.469q-.594-.218-1.235-.343-.625-.125-1.28-.125-1.25 0-2.032.53-.766.517-.766 1.36 0 .422.156.782.172.359.454.625.28.265.671.421.407.157.86.157zm6.96-11.922h1.172v10.61q0 .5.266.796.281.281.797.281.187 0 .437-.047.266-.062.485-.14l.218.953q-.328.14-.812.219-.469.093-.813.093-.828 0-1.297-.453-.453-.469-.453-1.297v-11.015zm5.167 15.422q.14.03.265.03.14.016.266.016.312 0 .484-.093.188-.078.36-.375.171-.297.39-.86.219-.546.61-1.484l-3.922-9.031h1.203l3.344 7.937 3.109-7.937h1.125l-4.688 11.64q-.187.516-.625.875-.437.375-1.203.375-.172 0-.328-.015-.156 0-.39-.031v-1.047zm8.11-3.563l6.11-7.344h-5.97v-.89h7.25v.797l-6.077 7.343h6.062v.891h-7.375v-.797zm13.197.969q-1 0-1.828-.375-.812-.375-1.422-1.016-.593-.656-.937-1.5-.344-.843-.344-1.828 0-.953.344-1.781.344-.844.937-1.469.594-.64 1.422-1.015.828-.375 1.813-.375.984 0 1.797.375.828.375 1.422 1.015.593.64.921 1.469.329.828.329 1.766v.28q0 .141-.016.188h-7.734q.046.735.328 1.36.297.61.75 1.062.453.438 1.03.688.579.25 1.235.25.438 0 .86-.11.437-.125.797-.328.375-.219.656-.515.297-.313.453-.672l1.031.28q-.203.5-.594.907-.375.406-.89.719-.5.297-1.11.453-.593.172-1.25.172zm3.329-5.156q-.063-.735-.344-1.328-.281-.594-.735-1.032-.437-.437-1.015-.672-.578-.25-1.235-.25-.656 0-1.25.25-.593.235-1.03.672-.438.438-.72 1.047-.265.594-.312 1.313h6.64zm7.452-3q-1.203.03-2.093.656-.875.625-1.235 1.719v5.61h-1.187v-9.032h1.11v2.172q.5-1.047 1.343-1.625.86-.594 1.828-.594.14 0 .234.016v1.078z" fill="#fff"/><path d="M380.797 367.503a7.375 7.375 0 0 1 7.375-7.375h81.218a7.375 7.375 0 0 1 7.375 7.375v29.501a7.376 7.376 0 0 1-7.375 7.376h-81.218a7.375 7.375 0 0 1-7.375-7.376z" fill="#400d9a" fill-rule="evenodd"/><path d="M380.797 367.503a7.375 7.375 0 0 1 7.375-7.375h81.218a7.375 7.375 0 0 1 7.375 7.375v29.501a7.376 7.376 0 0 1-7.375 7.376h-81.218a7.375 7.375 0 0 1-7.375-7.376z" stroke="#595959" stroke-linecap="butt" stroke-linejoin="round"/><path d="M397.17 377.894v-12.297h1.204v11.219h7.109v1.078h-8.312zm13.697.172q-.985 0-1.797-.375-.813-.375-1.422-1.016-.594-.64-.922-1.484-.328-.844-.328-1.782 0-.953.344-1.797.343-.859.937-1.5.594-.64 1.406-1.015.813-.39 1.782-.39.968 0 1.796.39.829.375 1.422 1.015.594.641.938 1.5.344.844.344 1.797 0 .938-.344 1.782-.328.843-.922 1.484-.594.64-1.422 1.016-.812.375-1.812.375zm-3.266-4.641q0 .766.25 1.422.266.64.703 1.14.453.485 1.047.766.594.281 1.266.281.687 0 1.28-.28.595-.298 1.048-.782.453-.5.703-1.156.265-.672.265-1.422 0-.75-.265-1.407-.25-.671-.703-1.171-.453-.5-1.047-.782-.594-.28-1.281-.28-.672 0-1.266.28-.578.282-1.031.797-.453.5-.72 1.172-.25.656-.25 1.422zm13.576 4.64q-.985 0-1.797-.374-.813-.375-1.422-1.016-.594-.64-.922-1.484-.328-.844-.328-1.782 0-.953.344-1.797.343-.859.937-1.5.594-.64 1.406-1.015.813-.39 1.782-.39.968 0 1.797.39.828.375 1.421 1.015.594.641.938 1.5.344.844.344 1.797 0 .938-.344 1.782-.328.843-.922 1.484-.594.64-1.422 1.016-.812.375-1.812.375zm-3.266-4.64q0 .766.25 1.422.266.64.703 1.14.453.485 1.047.766.594.281 1.266.281.687 0 1.28-.28.595-.298 1.048-.782.453-.5.703-1.156.266-.672.266-1.422 0-.75-.266-1.407-.25-.671-.703-1.171-.453-.5-1.047-.782-.594-.28-1.281-.28-.672 0-1.266.28-.578.282-1.031.797-.453.5-.719 1.172-.25.656-.25 1.422zm16.185 4.469l-3.328-4.625-1.937 1.797v2.828h-1.188v-12.657h1.188v8.594l5.078-4.953h1.328l-3.688 3.703 3.829 5.313h-1.282zm6.575.172q-.985 0-1.797-.375-.813-.375-1.422-1.016-.594-.64-.922-1.484-.328-.844-.328-1.782 0-.953.344-1.797.343-.859.937-1.5.594-.64 1.406-1.015.813-.39 1.782-.39.968 0 1.797.39.828.375 1.421 1.015.594.641.938 1.5.344.844.344 1.797 0 .938-.344 1.782-.328.843-.922 1.484-.594.64-1.422 1.016-.812.375-1.812.375zm-3.266-4.641q0 .766.25 1.422.266.64.703 1.14.453.485 1.047.766.594.281 1.266.281.687 0 1.281-.28.594-.298 1.047-.782.453-.5.703-1.156.266-.672.266-1.422 0-.75-.266-1.407-.25-.671-.703-1.171-.453-.5-1.047-.782-.594-.28-1.281-.28-.672 0-1.266.28-.578.282-1.031.797-.453.5-.719 1.172-.25.656-.25 1.422zm12.56 4.64q-1.468 0-2.187-.968-.719-.985-.719-2.922v-5.313h1.172v5.094q0 3.078 2.094 3.078.515 0 1.015-.172.516-.187.938-.515.422-.328.75-.766.344-.453.562-1.031v-5.688h1.172v7.5q0 .485.422.485v1.047q-.219.03-.344.03h-.187q-.406-.015-.672-.28-.25-.282-.25-.75v-1.047q-.594 1.062-1.61 1.64-1.015.579-2.156.579zm11.793-.609q-.094.063-.297.156-.203.079-.468.172-.25.078-.579.14-.328.079-.687.079-.39 0-.734-.11-.344-.109-.61-.312-.25-.219-.406-.547-.156-.343-.156-.765v-6.47h-1.25v-.937h1.25v-3.046h1.172v3.046h2.078v.938h-2.078v6.14q.03.5.343.735.328.234.75.234.5 0 .875-.156.39-.172.485-.25l.312.953zM407.987 399.066q-1.063 0-2.063-.344-1-.344-1.734-1l.547-.797q.75.61 1.531.922.797.312 1.703.312 1.094 0 1.734-.437.657-.438.657-1.25 0-.39-.172-.64t-.516-.438q-.328-.188-.844-.328-.515-.157-1.187-.313-.781-.187-1.36-.375-.562-.203-.937-.437-.375-.25-.562-.594-.172-.36-.172-.906 0-.672.265-1.188.266-.516.72-.86.468-.343 1.077-.515.625-.172 1.313-.172 1.047 0 1.89.344.844.328 1.375.89l-.578.688q-.5-.516-1.219-.766-.718-.265-1.5-.265-.468 0-.875.093-.39.094-.703.313-.297.203-.468.531-.172.313-.172.735 0 .375.11.593.124.22.405.391.282.172.703.297.422.125 1.032.265.86.204 1.515.422.672.203 1.11.485.437.265.656.672.234.39.234.968 0 1.25-.953 1.985-.953.719-2.562.719zm9.345 0q-1 0-1.828-.375-.813-.375-1.422-1.016-.594-.656-.938-1.5t-.344-1.828q0-.953.344-1.781.344-.844.938-1.47.593-.64 1.422-1.015.828-.375 1.812-.375.984 0 1.797.375.828.375 1.422 1.016.594.64.922 1.469.328.828.328 1.765v.281q0 .141-.016.188h-7.734q.047.734.328 1.36.297.609.75 1.062.453.437 1.031.687.578.25 1.235.25.437 0 .859-.11.438-.124.797-.327.375-.219.656-.516.297-.312.453-.672l1.031.282q-.203.5-.593.906-.375.406-.89.719-.5.296-1.11.453-.594.172-1.25.172zm3.328-5.157q-.063-.734-.344-1.328-.281-.594-.734-1.031-.438-.438-1.016-.672-.578-.25-1.234-.25-.657 0-1.25.25-.594.234-1.032.672-.437.437-.718 1.047-.266.594-.313 1.312h6.64zm7.453-3q-1.203.031-2.094.657-.875.625-1.234 1.718v5.61h-1.188v-9.032h1.11v2.172q.5-1.047 1.343-1.625.86-.593 1.828-.593.14 0 .235.015v1.078zm4.27 7.985l-3.673-9.032h1.22l3.093 7.938 3.125-7.938h1.14l-3.671 9.032h-1.235zm10.438.172q-1 0-1.828-.375-.812-.375-1.422-1.016-.594-.656-.937-1.5-.344-.844-.344-1.828 0-.953.344-1.781.343-.844.937-1.47.594-.64 1.422-1.015.828-.375 1.813-.375.984 0 1.796.375.829.375 1.422 1.016.594.64.922 1.469.328.828.328 1.765v.281q0 .141-.015.188h-7.735q.047.734.329 1.36.296.609.75 1.062.453.437 1.03.687.579.25 1.235.25.438 0 .86-.11.437-.124.796-.327.375-.219.657-.516.297-.312.453-.672l1.031.282q-.203.5-.594.906-.375.406-.89.719-.5.296-1.11.453-.593.172-1.25.172zm3.328-5.157q-.062-.734-.343-1.328-.282-.594-.735-1.031-.437-.438-1.015-.672-.579-.25-1.235-.25-.656 0-1.25.25-.594.234-1.031.672-.438.437-.719 1.047-.265.594-.312 1.312h6.64zm7.453-3q-1.203.031-2.094.657-.875.625-1.234 1.718v5.61h-1.187v-9.032h1.109v2.172q.5-1.047 1.344-1.625.86-.593 1.828-.593.14 0 .234.015v1.078z" fill="#fff"/><path d="M169.551 367.489a7.375 7.375 0 0 1 7.376-7.376h81.217a7.375 7.375 0 0 1 7.376 7.376v29.5a7.375 7.375 0 0 1-7.376 7.376h-81.217a7.375 7.375 0 0 1-7.376-7.375z" fill="#400d9a" fill-rule="evenodd"/><path d="M169.551 367.489a7.375 7.375 0 0 1 7.376-7.376h81.217a7.375 7.375 0 0 1 7.376 7.376v29.5a7.375 7.375 0 0 1-7.376 7.376h-81.217a7.375 7.375 0 0 1-7.376-7.375z" stroke="#595959" stroke-linecap="butt" stroke-linejoin="round"/><path d="M200.092 386.582q-1.719 1.891-3.953 1.891-1.25 0-2.297-.531-1.047-.547-1.828-1.422-.766-.89-1.203-2-.422-1.125-.422-2.313 0-1.234.422-2.359t1.187-1.969q.766-.86 1.797-1.375 1.047-.515 2.266-.515.906 0 1.64.203.75.203 1.329.562.593.344 1.015.844.422.484.719 1.078l-.937.625q-.61-1.14-1.579-1.672-.968-.547-2.203-.547-1.015 0-1.843.438-.829.422-1.407 1.14-.578.72-.89 1.657-.313.922-.313 1.906 0 1.047.36 1.984.359.938.984 1.641.625.688 1.453 1.11.844.421 1.828.421 1.063 0 2.016-.5.969-.5 1.86-1.562v-2.047h-2.75v-.938h3.765v6.047h-1.016v-1.797zm3.266 1.797v-9.031h1.188v9.031h-1.188zm0-10.922v-1.734h1.188v1.734h-1.188zm8.106 10.485q-.094.062-.297.156-.203.078-.469.172-.25.078-.578.14-.328.079-.687.079-.39 0-.735-.11-.343-.11-.609-.312-.25-.219-.406-.547-.156-.344-.156-.766v-6.469h-1.25v-.937h1.25v-3.047h1.171v3.047h2.079v.937h-2.079v6.141q.032.5.344.734.328.235.75.235.5 0 .875-.156.39-.172.485-.25l.312.953zm11.43-11.86v12.297h-1.203v-5.75h-7.297v5.75h-1.203v-12.297h1.203v5.47h7.297v-5.47h1.203zm5.663 12.47q-1.469 0-2.188-.97-.718-.984-.718-2.921v-5.313h1.172v5.094q0 3.078 2.093 3.078.516 0 1.016-.172.516-.187.937-.516.422-.328.75-.765.344-.453.563-1.031v-5.688h1.172v7.5q0 .484.422.484v1.047q-.219.031-.344.031h-.188q-.406-.015-.671-.28-.25-.282-.25-.75v-1.048q-.594 1.063-1.61 1.641-1.015.578-2.156.578zm11.887 0q-1.079 0-1.97-.532-.89-.547-1.39-1.39v1.75h-1.062v-12.657h1.187v5.516q.594-.922 1.438-1.485.86-.562 1.984-.562.953 0 1.703.406.766.39 1.281 1.063.532.671.813 1.515.297.828.297 1.719 0 .953-.328 1.797t-.907 1.484q-.562.625-1.359 1-.781.375-1.687.375zm-.282-1.032q.75 0 1.36-.297.625-.312 1.062-.828.438-.516.688-1.156.25-.657.25-1.344 0-.719-.235-1.375-.234-.656-.656-1.156-.422-.516-1.016-.813-.593-.312-1.312-.312-.531 0-1 .187-.469.172-.875.485-.39.312-.703.718-.313.407-.516.86v2.812q.063.469.36.875.312.406.734.703.422.282.906.469.5.172.953.172z" fill="#fff"/><path d="M463.932 346.428l118.645-52.819 14.71 33.008-118.647 52.82z" fill="none"/><path d="M494.083 353.36q-.413-.929-.498-2.002-.086-1.074.218-2.082.298-1.022 1.008-1.885.724-.87 1.894-1.39 1.385-.617 2.65-.428 1.279.183 2.187.993l-.583.842q-.465-.392-.995-.584-.516-.197-1.026-.227-.495-.036-.982.06-.472.091-.9.282-.943.42-1.485 1.123-.542.703-.754 1.532-.211.83-.125 1.715.094.865.444 1.65.388.87 1.038 1.522.65.651 1.437 1.036.78.37 1.66.424.872.04 1.7-.33.443-.196.849-.514.406-.317.726-.75.334-.44.532-.956.212-.522.226-1.144l1.053.061q.004.7-.249 1.36-.245.64-.662 1.201-.423.548-.981.984-.544.43-1.144.698-1.07.476-2.173.42-1.095-.077-2.074-.548-.98-.47-1.763-1.267-.783-.798-1.228-1.797zm16.163-.714q-.828.368-1.653.36-.825-.01-1.58-.323-.742-.32-1.345-.907-.59-.593-.94-1.377-.362-.814-.394-1.655-.033-.84.225-1.605.273-.771.818-1.39.539-.634 1.352-.996.814-.362 1.66-.345.84.003 1.58.322.742.32 1.345.907.604.586.966 1.4.35.785.382 1.626.047.834-.21 1.599-.259.764-.818 1.39-.56.625-1.388.994zm-4.497-2.684q.286.642.748 1.103.456.447 1.011.696.57.242 1.178.262.601.006 1.172-.248t.963-.72q.406-.47.592-1.05.201-.585.167-1.237-.02-.658-.305-1.3-.28-.629-.757-1.083-.468-.476-1.038-.718-.556-.249-1.178-.263-.607-.02-1.178.234t-.963.72q-.377.458-.572 1.058-.2.585-.16 1.251.034.652.32 1.295zm21.21-4.928l-.985.439-1.895-4.253q-.592-1.327-1.3-1.765-.708-.437-1.536-.069-.442.197-.757.526-.316.329-.51.774-.202.432-.274.96-.065.508.017 1.036l2.073 4.653-1 .445-1.895-4.253q-.604-1.356-1.291-1.786-.673-.435-1.516-.06-.87.387-1.274 1.285-.404.898-.271 2.002l2.08 4.667-.985.439-3.397-7.622.9-.4.77 1.727q.082-1.08.623-1.902.548-.843 1.461-1.25.971-.432 1.784-.144.827.282 1.343 1.095.2-2.431 2.07-3.264.642-.286 1.192-.24.545.031 1.007.339.462.307.85.87.395.542.732 1.299l1.984 4.452zm13.433-5.98l-.985.439-1.895-4.253q-.591-1.328-1.3-1.765-.708-.437-1.535-.069-.443.197-.758.526-.316.328-.51.774-.202.432-.274.96-.065.508.017 1.036l2.073 4.653-1 .444-1.895-4.253q-.604-1.355-1.291-1.785-.673-.436-1.516-.06-.87.387-1.274 1.285-.404.898-.271 2.002l2.08 4.667-.985.438-3.397-7.62.9-.401.77 1.727q.082-1.08.623-1.903.548-.842 1.461-1.249.971-.432 1.784-.144.827.282 1.343 1.095.2-2.432 2.07-3.264.642-.286 1.192-.24.545.031 1.007.338.462.308.85.87.395.543.732 1.3l1.984 4.452zm5.46-2.26q-.828.37-1.667.367-.825-.01-1.58-.323-.763-.328-1.366-.914-.604-.587-.966-1.4-.362-.814-.389-1.64-.032-.841.232-1.591.272-.772.832-1.397.56-.625 1.373-.988.842-.374 1.667-.366.84.003 1.567.33.741.32 1.324.898.597.572.953 1.371l.102.229q.05.114.056.163l-6.51 2.898q.317.594.795 1.014.471.406 1.014.626.551.2 1.132.198.58-.002 1.137-.25.371-.165.684-.424.326-.265.55-.57.231-.325.36-.69.142-.371.137-.728l.972-.16q.005.511-.17 1-.162.482-.476.93-.299.441-.756.798-.45.372-1.007.62zm.873-5.604q-.317-.595-.782-.986-.472-.406-1.002-.598-.536-.206-1.125-.183-.574.016-1.13.264-.558.248-.968.67-.396.416-.616.959-.213.522-.212 1.137.015.61.239 1.228l5.596-2.491zm10.756.257l-.985.438-1.895-4.253q-.605-1.356-1.292-1.785-.673-.436-1.501-.067-.443.197-.815.55-.358.348-.596.813-.244.45-.36.998-.107.527-.046 1.047l2.08 4.667-.985.439-3.396-7.622.899-.4.77 1.727q.102-1.038.743-1.939.642-.901 1.67-1.359.628-.28 1.164-.228.545.032.992.346.456.293.844.856.387.562.724 1.319l1.985 4.453zm5.615-2.945l-.2.243q-.139.148-.335.32-.183.167-.443.351-.246.178-.545.312-.329.146-.666.194-.324.041-.621-.049t-.56-.298q-.256-.228-.415-.585l-2.43-5.452-1.041.464-.357-.8 1.042-.463-1.144-2.57.999-.444 1.145 2.57 1.755-.783.356.8-1.755.781 2.302 5.167q.22.415.58.494.36.08.702-.073.429-.19.68-.473.264-.29.324-.384l.627.678zm3.998-1.164q-.899.4-1.868.49-.976.075-1.838-.208l.144-.868q.877.242 1.67.214.784-.041 1.541-.378.914-.407 1.29-1.02.392-.618.087-1.303-.147-.329-.385-.48-.238-.15-.593-.18-.356-.03-.855.04-.486.061-1.114.187-.727.135-1.282.194-.547.039-.95-.021-.404-.06-.694-.29-.29-.23-.494-.686-.255-.571-.217-1.101.031-.544.29-1.001.258-.457.708-.829.458-.392 1.043-.652.871-.388 1.712-.42.855-.039 1.493.241l-.21.795q-.625-.252-1.335-.192-.694.052-1.351.345-.4.178-.704.416-.297.217-.477.503-.181.286-.203.62-.022.335.144.706.133.3.322.455.183.141.475.182.3.02.707-.024.408-.045.973-.16.804-.152 1.444-.214.633-.077 1.112 0 .473.064.81.323.347.24.557.71.47 1.057-.07 2.033-.526.97-1.882 1.573z" fill="#fff"/><path d="M556.595 303.965l-62.393 28.252" fill="none"/><path d="M556.595 303.965l-56.928 25.777" stroke="#fff" stroke-linecap="butt" stroke-linejoin="round"/><path d="M498.986 328.237l-3.453 3.377 4.816-.368z" fill="#fff" fill-rule="evenodd" stroke="#fff" stroke-linecap="butt"/><path d="M555.367 470.486l-59.937-28.252" fill="none"/><path d="M555.367 470.486l-54.51-25.693" stroke="#fff" stroke-linecap="butt" stroke-linejoin="round"/><path d="M501.562 443.299l-4.81-.441 3.401 3.429z" fill="#fff" fill-rule="evenodd" stroke="#fff" stroke-linecap="butt"/><path d="M562.183 390.695h-60.158" fill="none"/><path d="M562.183 390.695h-54.158" stroke="#fff" stroke-linecap="butt" stroke-linejoin="round"/><path d="M508.025 389.043l-4.538 1.652 4.538 1.652z" fill="#fff" fill-rule="evenodd" stroke="#fff" stroke-linecap="butt"/><path d="M470.995 390.696h125.984v36.157H470.995z" fill="none"/><path d="M493.77 409.29q0-1.016.36-2.031.36-1.016 1.047-1.813.687-.812 1.687-1.312 1.016-.5 2.297-.5 1.516 0 2.594.687 1.094.688 1.594 1.797l-.875.531q-.266-.547-.672-.937-.39-.39-.844-.625-.437-.235-.922-.344-.468-.11-.937-.11-1.031 0-1.813.423-.781.421-1.312 1.093-.531.672-.813 1.516-.265.828-.265 1.687 0 .954.328 1.813.328.86.89 1.531.563.656 1.344 1.063.781.39 1.688.39.484 0 .984-.125t.969-.39q.484-.266.875-.657.406-.39.672-.953l.937.485q-.281.64-.781 1.14-.484.485-1.094.828-.61.329-1.297.5-.672.172-1.328.172-1.172 0-2.156-.5-.969-.515-1.672-1.343-.703-.829-1.094-1.875-.39-1.047-.39-2.141zm15.055 5.922q-.906 0-1.656-.344-.75-.344-1.313-.937-.547-.594-.86-1.375-.296-.782-.296-1.641 0-.89.312-1.672.313-.781.86-1.375.562-.594 1.312-.937.75-.36 1.64-.36.891 0 1.657.36.766.343 1.313.937.546.594.859 1.375.312.781.312 1.672 0 .86-.312 1.64-.297.782-.844 1.376-.547.593-1.312.937-.766.344-1.672.344zm-3.016-4.281q0 .703.235 1.312.234.594.64 1.047.422.453.969.719.547.25 1.172.25.625 0 1.172-.266.562-.266.968-.719.422-.453.657-1.062.25-.61.25-1.313 0-.687-.25-1.297-.235-.625-.657-1.078-.406-.453-.968-.718-.547-.266-1.172-.266-.625 0-1.172.266-.531.265-.953.734-.422.453-.656 1.078-.235.61-.235 1.313zm21.38 4.125h-1.079v-4.657q0-1.453-.468-2.14-.469-.688-1.375-.688-.485 0-.907.172-.421.172-.78.5-.36.313-.641.766-.266.437-.407.953v5.094h-1.093v-4.657q0-1.484-.454-2.156-.437-.672-1.359-.672-.953 0-1.687.656-.735.657-1.063 1.72v5.109h-1.078v-8.344h.984v1.89q.516-.953 1.344-1.484.844-.547 1.844-.547 1.062 0 1.687.594.641.594.782 1.547 1.171-2.14 3.218-2.14.703 0 1.188.265.484.25.781.719.297.468.422 1.14.14.656.14 1.485v4.875zm14.704 0h-1.079v-4.657q0-1.453-.468-2.14-.469-.688-1.375-.688-.485 0-.907.172-.421.172-.78.5-.36.313-.641.766-.266.437-.407.953v5.094h-1.093v-4.657q0-1.484-.454-2.156-.437-.672-1.359-.672-.953 0-1.687.656-.735.657-1.063 1.72v5.109h-1.078v-8.344h.984v1.89q.516-.953 1.344-1.484.844-.547 1.844-.547 1.062 0 1.687.594.641.594.782 1.547 1.171-2.14 3.218-2.14.703 0 1.188.265.484.25.781.719.297.468.422 1.14.14.656.14 1.485v4.875zm5.907.156q-.907 0-1.672-.344-.75-.344-1.313-.937-.562-.61-.875-1.391-.312-.781-.312-1.672 0-.89.312-1.656.313-.781.86-1.36.562-.593 1.328-.937.765-.344 1.656-.344.922 0 1.672.344.766.344 1.297.937.547.594.844 1.36.312.765.312 1.64v.25q0 .125-.015.172h-7.125q.046.672.312 1.25.266.563.672.985.422.406.953.64.531.235 1.14.235.407 0 .798-.11.406-.11.734-.297.344-.203.61-.484.28-.281.421-.61l.953.25q-.203.47-.562.844-.344.375-.813.657-.453.28-1.015.422-.563.156-1.172.156zm3.078-4.766q-.047-.672-.313-1.219-.265-.562-.672-.953-.406-.406-.953-.625-.53-.218-1.14-.218-.61 0-1.157.218-.53.219-.953.625-.406.39-.656.953-.234.563-.281 1.22h6.125zm9.72 4.61h-1.078v-4.657q0-1.484-.453-2.156-.438-.672-1.344-.672-.484 0-.969.172-.468.172-.875.5-.406.313-.734.766-.313.437-.469.937v5.11h-1.078v-8.344h.984v1.89q.516-.906 1.47-1.468.952-.563 2.077-.563.688 0 1.157.266.484.25.765.719.297.453.422 1.125.125.671.125 1.5v4.875zm6.328-.407l-.281.14q-.188.079-.438.157-.234.078-.547.14-.296.063-.625.063-.359 0-.687-.093-.313-.094-.547-.297-.234-.203-.39-.5-.141-.313-.141-.703v-5.97h-1.14v-.874h1.14v-2.813h1.094v2.813h1.921v.875h-1.921v5.656q.03.469.328.688.297.218.672.218.468 0 .812-.156.36-.156.453-.219l.297.875zm4.126.563q-.985 0-1.907-.313-.921-.328-1.593-.937l.484-.735q.703.579 1.438.875.734.282 1.562.282 1 0 1.594-.407.61-.406.61-1.156 0-.36-.157-.594-.156-.234-.469-.406-.312-.172-.797-.312-.468-.141-1.093-.282-.72-.171-1.25-.343-.516-.188-.86-.407-.344-.218-.515-.546-.172-.329-.172-.829 0-.625.25-1.093.25-.485.672-.797.421-.313.984-.469.578-.172 1.219-.172.953 0 1.734.313.797.312 1.266.828l-.516.64q-.469-.484-1.14-.718-.657-.235-1.376-.235-.437 0-.812.094-.36.078-.64.266-.282.187-.438.484-.156.297-.156.703 0 .328.109.547.11.203.36.36.265.14.656.265.39.125.953.25.797.187 1.406.39.61.188 1.016.454.406.25.609.625.219.36.219.875 0 1.156-.89 1.828-.876.672-2.36.672z" fill="#fff"/><path d="M468.714 432.842l117.26 52.284-14.709 33.008-117.26-52.284z" fill="none"/><path d="M483.045 459.591q.413-.927 1.155-1.709.742-.781 1.694-1.229.959-.462 2.075-.512 1.132-.043 2.302.48 1.384.616 2.089 1.683.719 1.074.724 2.29l-1.015.13q-.02-.608-.232-1.13-.198-.516-.517-.915-.304-.392-.702-.69-.383-.29-.811-.481-.942-.42-1.828-.353-.885.067-1.643.465-.76.397-1.36 1.053-.58.649-.929 1.434-.388.87-.438 1.789-.05.918.19 1.761.247.829.795 1.518.555.675 1.382 1.044.443.197.95.287.508.089 1.044.037.55-.045 1.066-.243.53-.191 1.002-.597l.659.824q-.518.471-1.178.724-.64.245-1.336.311-.69.052-1.388-.071-.683-.117-1.283-.384-1.07-.477-1.766-1.335-.675-.865-.98-1.908-.305-1.043-.235-2.158.069-1.116.514-2.115zm11.339 11.54q-.828-.37-1.373-.988-.545-.62-.817-1.391-.258-.765-.225-1.606.047-.835.396-1.62.363-.813.966-1.4.604-.586 1.345-.906.755-.313 1.58-.321.832-.023 1.645.34.813.362 1.366 1.002.56.626.818 1.391.257.765.225 1.606-.033.84-.395 1.654-.35.785-.953 1.372-.59.592-1.33.912-.742.32-1.581.322-.84.002-1.667-.367zm-1.012-5.139q-.286.643-.32 1.295-.027.637.16 1.217.2.585.591 1.05.398.452.969.706.57.255 1.178.235.622-.014 1.178-.262.57-.242 1.032-.703.476-.455.762-1.097.28-.628.3-1.287.04-.666-.16-1.252-.187-.58-.593-1.05-.391-.466-.962-.72-.571-.255-1.179-.235-.593.026-1.17.282-.569.243-1.037.718-.462.461-.749 1.103zm17.848 12.475l-.985-.44 1.895-4.253q.592-1.327.443-2.146-.148-.819-.976-1.188-.442-.197-.897-.212-.455-.015-.917.139-.456.139-.897.438-.42.292-.759.705l-2.073 4.653-1-.445 1.896-4.253q.604-1.356.464-2.154-.126-.792-.968-1.168-.87-.388-1.809-.087-.937.3-1.67 1.137l-2.08 4.667-.984-.44 3.396-7.62.9.4-.77 1.727q.859-.66 1.831-.808.993-.156 1.907.25.97.434 1.3 1.23.343.804.083 1.732 1.942-1.479 3.811-.645.642.286.977.726.34.426.42.975.081.549-.078 1.214-.139.656-.476 1.413l-1.984 4.453zm13.43 5.988l-.985-.44 1.895-4.253q.591-1.327.443-2.146-.148-.819-.976-1.188-.442-.197-.898-.212-.455-.015-.917.139-.455.139-.896.438-.421.292-.76.705l-2.073 4.653-.999-.445 1.896-4.253q.604-1.356.463-2.154-.126-.792-.968-1.168-.87-.388-1.808-.088-.938.3-1.67 1.138l-2.08 4.667-.984-.44 3.396-7.62.899.4-.77 1.727q.86-.66 1.832-.809.993-.155 1.906.252.97.432 1.3 1.23.343.803.084 1.73 1.941-1.478 3.81-.644.643.286.977.726.34.426.421.975.08.549-.079 1.213-.138.657-.475 1.414l-1.985 4.452zm5.33 2.548q-.827-.37-1.386-.995-.545-.62-.817-1.39-.266-.787-.233-1.627.032-.841.395-1.655.362-.813.96-1.385.603-.587 1.337-.892.756-.313 1.595-.316.84-.002 1.653.36.841.376 1.387.996.559.626.802 1.384.258.765.218 1.585-.026.827-.383 1.626l-.101.229q-.051.114-.085.15l-6.507-2.901q-.23.633-.223 1.269.013.622.213 1.173.22.542.61.973.39.43.946.678.37.166.772.225.416.066.792.028.396-.046.753-.194.372-.143.634-.385l.768.616q-.376.346-.857.542-.466.203-1.009.269-.528.072-1.1-.029-.577-.086-1.133-.334zm4.752-3.1q.23-.632.21-1.24-.013-.622-.225-1.144-.206-.537-.616-.96-.396-.416-.953-.664-.557-.248-1.145-.27-.574-.017-1.125.182-.53.191-.987.603-.443.419-.753.999l5.594 2.494zm7.001 8.169l-.984-.44 1.895-4.252q.604-1.356.464-2.154-.126-.792-.954-1.161-.442-.197-.955-.238-.498-.034-1.002.1-.499.12-.983.4-.463.273-.81.666l-2.08 4.667-.984-.439 3.396-7.621.9.4-.77 1.728q.84-.618 1.939-.744 1.1-.125 2.127.333.628.28.948.713.34.426.407.969.086.534-.073 1.199-.16.665-.496 1.421l-1.985 4.453zm5.945 2.206l-.314.014q-.203-.005-.463-.036-.246-.024-.557-.094-.296-.064-.596-.197-.328-.147-.59-.366-.247-.213-.378-.494-.132-.28-.154-.616 0-.342.158-.7l2.43-5.451-1.042-.465.356-.799 1.042.465 1.145-2.57.998.446-1.144 2.569 1.755.783-.356.799-1.755-.783-2.303 5.167q-.162.44.02.761t.525.474q.428.19.805.188.392.004.503-.015l-.085.92zm3.54 2.194q-.9-.401-1.614-1.062-.709-.675-1.074-1.505l.74-.474q.408.814.958 1.385.556.556 1.312.893.914.407 1.621.278.722-.123 1.027-.808.147-.328.1-.606-.048-.278-.263-.562-.216-.284-.601-.61-.37-.32-.885-.702-.586-.45-1.001-.823-.395-.382-.62-.721-.225-.34-.248-.71-.024-.37.18-.826.254-.571.673-.898.426-.34.938-.454.513-.113 1.09-.027.598.078 1.183.34.87.387 1.457.99.6.61.82 1.273l-.733.375q-.23-.633-.749-1.121-.504-.481-1.16-.774-.4-.178-.78-.245-.36-.075-.694-.019-.333.057-.596.265-.264.207-.43.578-.133.3-.122.544.017.23.182.475.185.237.491.51t.769.616q.651.496 1.125.93.48.42.743.827.27.394.303.82.053.417-.157.888-.47 1.056-1.557 1.307-1.073.257-2.429-.347z" fill="#fff"/></g></svg>