<svg xmlns="http://www.w3.org/2000/svg" viewBox="0 0 779.13647 234.61418" stroke-miterlimit="10" width="779.136" height="234.614" fill="none" stroke-linecap="square"><clipPath id="a"><path d="M0 0h960v540H0V0z"/></clipPath><g clip-path="url(#a)" transform="translate(-68.181 -158.822)"><path d="M68.181 240.711h362.677v67.402H68.181z" fill="none"/><path d="M120.582 288.111v-28.36h2.797v16.485l15.64-16.53h3.079l-11.594 12.483 12.203 15.922h-3.093l-10.875-14.28-5.36 5.562v8.718h-2.797zm42.673 0h-2.718v-11.64q0-3.72-1.11-5.39-1.093-1.688-3.375-1.688-1.187 0-2.39.437-1.203.438-2.22 1.25-1.015.797-1.827 1.89-.797 1.094-1.156 2.376v12.765h-2.72v-20.843h2.485v4.718q1.281-2.28 3.656-3.672 2.375-1.406 5.172-1.406 1.735 0 2.922.64 1.203.641 1.922 1.813.719 1.157 1.031 2.844.328 1.672.328 3.703v12.203zm14.68.407q-2.281 0-4.156-.86-1.875-.86-3.266-2.344-1.375-1.484-2.14-3.437-.75-1.969-.75-4.125 0-2.203.78-4.156.782-1.97 2.157-3.438 1.375-1.484 3.25-2.36 1.89-.89 4.125-.89 2.25 0 4.14.89 1.907.876 3.282 2.36 1.39 1.469 2.156 3.438.781 1.953.781 4.156 0 2.156-.766 4.125-.75 1.953-2.14 3.437-1.375 1.485-3.281 2.344-1.891.86-4.172.86zm-7.563-10.72q0 1.75.594 3.25.61 1.5 1.625 2.641 1.031 1.141 2.406 1.782 1.375.64 2.938.64 1.562 0 2.937-.656 1.39-.656 2.422-1.797 1.047-1.14 1.64-2.656.61-1.531.61-3.297 0-1.719-.61-3.25-.593-1.547-1.64-2.687-1.031-1.141-2.422-1.797-1.375-.657-2.937-.657-1.563 0-2.922.657-1.36.656-2.406 1.828-1.032 1.156-1.641 2.703-.594 1.531-.594 3.297zm48.722-10.53h2.688l-8.97 20.843h-2.234l-4.484-10.64-4.437 10.64h-2.235l-8.969-20.843h2.641l7.61 18.046 3.953-9.515-3.563-8.485h2.281l2.72 6.797 2.718-6.797h2.328l-3.563 8.485 3.97 9.515 7.546-18.046zm17.048 20.843v-28.406h11.75q1.844 0 3.375.781 1.547.782 2.672 2.047 1.125 1.266 1.766 2.86.64 1.593.64 3.234 0 1.766-.609 3.39-.594 1.61-1.672 2.86-1.078 1.234-2.578 2-1.5.75-3.344.75h-9.203v10.484h-2.797zm2.797-12.953h9.078q1.25 0 2.266-.547 1.015-.547 1.734-1.437.719-.906 1.11-2.078.406-1.188.406-2.47 0-1.312-.453-2.483-.453-1.188-1.235-2.063-.78-.89-1.843-1.39-1.063-.5-2.22-.5h-8.843v12.968zm22.724 19.36q.312.03.61.046.312.032.593.032.719 0 1.125-.203.422-.204.828-.891.406-.672.906-1.953.5-1.281 1.422-3.438l-9.094-20.843h2.813l7.719 18.328 7.156-18.328h2.594l-10.797 26.89q-.438 1.156-1.469 2.016-1.016.86-2.766.86-.406 0-.765-.032-.36-.016-.875-.094v-2.39zm30.477-7.407q-.235.125-.703.328-.454.188-1.063.391-.594.203-1.36.36-.75.156-1.593.156-.875 0-1.688-.235-.796-.234-1.406-.734-.594-.5-.953-1.266-.36-.765-.36-1.765v-14.922h-2.874v-2.156h2.875v-7.032h2.718v7.032h4.813v2.156h-4.813v14.172q.094 1.156.829 1.703.734.531 1.703.531 1.156 0 2.03-.375.892-.39 1.126-.547l.719 2.203zm20.915 1h-2.718v-11.64q0-3.563-1.22-5.313-1.218-1.765-3.577-1.765-1.157 0-2.297.468-1.14.453-2.14 1.25-1 .797-1.75 1.875-.735 1.078-1.095 2.36v12.765h-2.718v-29.203h2.718v13.078q1.235-2.36 3.438-3.718 2.203-1.36 4.766-1.36 1.796 0 3.03.672 1.25.656 2.048 1.844.797 1.172 1.156 2.828.36 1.656.36 3.656v12.203zm14.68.407q-2.282 0-4.157-.86t-3.265-2.344q-1.375-1.484-2.14-3.437-.75-1.969-.75-4.125 0-2.203.78-4.156.782-1.97 2.157-3.438 1.375-1.484 3.25-2.36 1.89-.89 4.125-.89 2.25 0 4.14.89 1.907.876 3.282 2.36 1.39 1.469 2.156 3.438.781 1.953.781 4.156 0 2.156-.766 4.125-.75 1.953-2.14 3.437-1.375 1.485-3.281 2.344-1.891.86-4.172.86zm-7.563-10.72q0 1.75.594 3.25.61 1.5 1.625 2.641 1.031 1.141 2.406 1.782 1.375.64 2.938.64 1.562 0 2.937-.656 1.39-.656 2.422-1.797 1.047-1.14 1.64-2.656.61-1.531.61-3.297 0-1.719-.61-3.25-.593-1.547-1.64-2.687-1.031-1.141-2.422-1.797-1.375-.657-2.937-.657-1.563 0-2.922.657-1.36.656-2.406 1.828-1.032 1.156-1.641 2.703-.594 1.531-.594 3.297zm40.003 10.313h-2.719v-11.64q0-3.72-1.109-5.39-1.094-1.688-3.375-1.688-1.187 0-2.39.437-1.204.438-2.22 1.25-1.015.797-1.827 1.89-.797 1.094-1.157 2.376v12.765h-2.718v-20.843h2.484v4.718q1.281-2.28 3.656-3.672 2.375-1.406 5.172-1.406 1.734 0 2.922.64 1.203.641 1.922 1.813.719 1.157 1.031 2.844.328 1.672.328 3.703v12.203zm8.96-8.078q0-2.64.813-4.203.828-1.562 2.594-2.594.797-.484 1.75-.984.969-.5 1.797-1.219.844-.719 1.422-1.719.594-1 .594-2.484 0-1.312-.47-2.266-.452-.968-1.218-1.625-.75-.671-1.734-.984-.985-.328-2.016-.328-2.172 0-3.875 1.187-1.687 1.172-2.578 2.891l-1.875-1.187q.562-1.25 1.437-2.204.891-.968 1.985-1.625 1.094-.656 2.36-1 1.265-.343 2.577-.343 1.485 0 2.875.468 1.407.454 2.5 1.422 1.11.953 1.766 2.39.656 1.438.656 3.36 0 1.61-.469 2.72-.453 1.093-1.218 1.89-.75.797-1.735 1.375-.968.578-1.968 1.14-.72.407-1.36.828-.64.407-1.172 1.079-.515.656-.812 1.625-.297.953-.297 2.39h-2.328zm.048 8.078v-4.28h2.36v4.28h-2.36z" fill="#fff"/><path d="M399.585 280.008V250.52c0-16.286 13.203-29.489 29.488-29.489h56.37v-8.425l16.851 16.85-16.85 16.851v-8.425h-56.37c-6.98 0-12.638 5.658-12.638 12.638v29.488z" fill="#400d9a" fill-rule="evenodd"/><path d="M399.585 275.992v29.488c0 16.286 13.203 29.489 29.488 29.489h56.37v8.425l16.851-16.85-16.85-16.851v8.425h-56.37c-6.98 0-12.638-5.658-12.638-12.638v-29.488z" fill="#400d9a" fill-rule="evenodd"/><path d="M379.097 158.822h143.685v57.007H379.097z" fill="none"/><path d="M426.308 175.823l7.438 12.219 7.484-12.22h2.422l-8.797 14.266v8.454h-2.234v-8.516l-8.766-14.203h2.453zm27.457 23.031q-1.812 0-3.343-.687-1.516-.688-2.641-1.875-1.11-1.204-1.734-2.766-.625-1.578-.625-3.375 0-1.75.625-3.297.625-1.562 1.718-2.719 1.11-1.172 2.641-1.86 1.547-.687 3.328-.687 1.828 0 3.344.688 1.531.687 2.61 1.875 1.093 1.172 1.702 2.719.61 1.53.61 3.25v.53q0 .25-.031.345h-14.282q.094 1.343.625 2.484.532 1.125 1.36 1.969.843.828 1.906 1.297 1.078.453 2.297.453.797 0 1.594-.219.796-.234 1.468-.61.672-.39 1.22-.952.546-.563.827-1.235l1.89.516q-.39.937-1.093 1.687t-1.625 1.313q-.922.562-2.047.86-1.125.296-2.344.296zm6.157-9.531q-.11-1.344-.641-2.438-.516-1.11-1.344-1.906-.812-.812-1.89-1.25-1.063-.453-2.282-.453-1.203 0-2.296.453-1.094.438-1.907 1.25-.812.797-1.312 1.922-.5 1.11-.594 2.422h12.266zm10.971 9.531q-1.953 0-3.812-.625-1.86-.64-3.203-1.86l1-1.468q1.406 1.14 2.859 1.719 1.453.578 3.125.578 2.016 0 3.203-.813 1.203-.812 1.203-2.328 0-.703-.312-1.156-.313-.469-.938-.813-.625-.359-1.578-.625-.937-.28-2.187-.562-1.438-.36-2.5-.703-1.047-.36-1.735-.797-.687-.453-1.031-1.11-.328-.656-.328-1.656 0-1.25.484-2.203.5-.969 1.344-1.578.86-.625 1.984-.937 1.14-.329 2.422-.329 1.922 0 3.485.625 1.562.61 2.53 1.641l-1.062 1.281q-.922-.968-2.25-1.437-1.328-.485-2.765-.485-.86 0-1.61.188-.734.172-1.297.562-.546.375-.875.97-.312.577-.312 1.39 0 .672.219 1.094.218.406.734.718.516.297 1.297.547.781.235 1.906.485 1.594.39 2.813.78 1.218.376 2.03.891.813.5 1.235 1.235.422.734.422 1.797 0 2.297-1.765 3.64-1.766 1.344-4.735 1.344z" fill="#fff"/><path d="M379.097 336.428h143.685v57.008H379.097z" fill="none"/><path d="M434.161 357.585v18.563h-2.25v-22.719h1.735l15.031 18.906V353.46h2.25v22.688h-1.953l-14.813-18.563zm29.11 18.875q-1.812 0-3.327-.687-1.5-.688-2.61-1.86-1.094-1.187-1.703-2.75-.61-1.578-.61-3.296 0-1.766.626-3.329.625-1.578 1.718-2.75 1.11-1.187 2.61-1.89 1.515-.703 3.297-.703 1.797 0 3.312.703 1.531.703 2.625 1.89 1.11 1.172 1.735 2.75.625 1.563.625 3.329 0 1.718-.61 3.296-.61 1.563-1.719 2.75-1.093 1.172-2.625 1.86-1.515.687-3.343.687zm-6.046-8.562q0 1.406.484 2.61.485 1.187 1.297 2.109.813.906 1.906 1.421 1.11.516 2.36.516 1.25 0 2.343-.531 1.11-.531 1.938-1.438.844-.922 1.312-2.125.485-1.218.485-2.625 0-1.39-.485-2.609-.468-1.234-1.312-2.14-.828-.923-1.938-1.454-1.093-.531-2.343-.531t-2.344.531q-1.078.531-1.906 1.469-.828.922-1.313 2.156-.484 1.235-.484 2.64z" fill="#fff"/><path d="M522.782 194.123h324.536v67.402H522.782z" fill="none"/><path d="M534.907 212.32h2.719v24.485q0 1.156.64 1.828.641.656 1.797.656.438 0 1.032-.125.609-.125 1.125-.328l.484 2.203q-.766.328-1.875.516-1.094.203-1.89.203-1.876 0-2.954-1.047-1.078-1.063-1.078-2.985V212.32zm19.63 29.61q-2.281 0-4.156-.86-1.875-.86-3.266-2.344-1.375-1.484-2.14-3.437-.75-1.969-.75-4.125 0-2.203.78-4.156.782-1.969 2.157-3.438 1.375-1.484 3.25-2.36 1.89-.89 4.125-.89 2.25 0 4.14.89 1.907.876 3.282 2.36 1.39 1.469 2.156 3.438.782 1.953.782 4.156 0 2.156-.766 4.125-.75 1.953-2.14 3.437-1.376 1.485-3.282 2.344-1.89.86-4.172.86zm-7.562-10.72q0 1.75.593 3.25.61 1.5 1.625 2.641 1.032 1.141 2.407 1.782 1.375.64 2.937.64 1.563 0 2.938-.656 1.39-.656 2.422-1.797 1.046-1.14 1.64-2.656.61-1.531.61-3.297 0-1.719-.61-3.25-.594-1.547-1.64-2.687-1.032-1.141-2.422-1.797-1.375-.657-2.938-.657-1.562 0-2.922.657-1.36.656-2.406 1.828-1.031 1.156-1.64 2.703-.594 1.531-.594 3.297zm31.362 10.72q-2.281 0-4.156-.86-1.875-.86-3.266-2.344-1.375-1.484-2.14-3.437-.75-1.969-.75-4.125 0-2.203.78-4.156.782-1.969 2.157-3.438 1.375-1.484 3.25-2.36 1.89-.89 4.125-.89 2.25 0 4.14.89 1.907.876 3.282 2.36 1.39 1.469 2.156 3.438.781 1.953.781 4.156 0 2.156-.765 4.125-.75 1.953-2.14 3.437-1.376 1.485-3.282 2.344-1.89.86-4.172.86zm-7.562-10.72q0 1.75.593 3.25.61 1.5 1.625 2.641 1.032 1.141 2.407 1.782 1.375.64 2.937.64 1.563 0 2.938-.656 1.39-.656 2.421-1.797 1.047-1.14 1.641-2.656.61-1.531.61-3.297 0-1.719-.61-3.25-.594-1.547-1.64-2.687-1.032-1.141-2.422-1.797-1.375-.657-2.938-.657-1.562 0-2.922.657-1.36.656-2.406 1.828-1.031 1.156-1.64 2.703-.594 1.531-.594 3.297zm37.362 10.313l-7.672-10.687-4.484 4.172v6.515h-2.719V212.32h2.719v19.844l11.719-11.438h3.078l-8.516 8.516 8.844 12.281h-2.969zm15.2.407q-2.281 0-4.156-.86-1.875-.86-3.266-2.344-1.375-1.484-2.14-3.437-.75-1.969-.75-4.125 0-2.203.78-4.156.782-1.969 2.157-3.438 1.375-1.484 3.25-2.36 1.89-.89 4.125-.89 2.25 0 4.14.89 1.907.876 3.282 2.36 1.39 1.469 2.156 3.438.781 1.953.781 4.156 0 2.156-.765 4.125-.75 1.953-2.14 3.437-1.376 1.485-3.282 2.344-1.89.86-4.172.86zm-7.562-10.72q0 1.75.593 3.25.61 1.5 1.625 2.641 1.032 1.141 2.407 1.782 1.375.64 2.937.64 1.563 0 2.938-.656 1.39-.656 2.421-1.797 1.047-1.14 1.641-2.656.61-1.531.61-3.297 0-1.719-.61-3.25-.594-1.547-1.64-2.687-1.032-1.141-2.422-1.797-1.375-.657-2.938-.657-1.562 0-2.922.657-1.36.656-2.406 1.828-1.031 1.156-1.64 2.703-.594 1.531-.594 3.297zm29.003 10.72q-3.391 0-5.063-2.266-1.656-2.266-1.656-6.734v-12.25h2.719v11.765q0 7.078 4.843 7.078 1.204 0 2.36-.39 1.156-.407 2.14-1.157.985-.765 1.766-1.812.781-1.047 1.25-2.36V220.68h2.719v17.328q0 1.11.969 1.11v2.405q-.485.078-.782.078h-.422q-.953-.03-1.562-.671-.594-.641-.594-1.72v-2.405q-1.36 2.437-3.703 3.78-2.344 1.345-4.984 1.345zm27.244-1.407q-.234.125-.703.328-.453.188-1.063.391-.593.203-1.359.36-.75.156-1.594.156-.875 0-1.687-.235-.797-.234-1.406-.734-.594-.5-.954-1.266-.359-.765-.359-1.765v-14.922h-2.875v-2.156h2.875v-7.032h2.719v7.032h4.812v2.156h-4.812v14.172q.093 1.156.828 1.703.734.531 1.703.531 1.156 0 2.031-.375.89-.39 1.125-.547l.719 2.203zm2.994-8.64v-2.516h11.687v2.516h-11.687zm24.208 10.047q-2.438 0-4.766-.797-2.312-.813-4-2.328l1.25-1.844q1.75 1.437 3.563 2.156 1.828.719 3.906.719 2.531 0 4.031-1.016 1.5-1.015 1.5-2.89 0-.891-.406-1.47-.406-.577-1.187-1.015-.766-.437-1.954-.781-1.171-.344-2.734-.703-1.812-.438-3.125-.875-1.312-.438-2.187-1-.86-.563-1.282-1.375-.406-.828-.406-2.063 0-1.562.61-2.765.624-1.203 1.687-1.985 1.062-.78 2.469-1.172 1.422-.406 3.03-.406 2.392 0 4.345.781 1.968.782 3.172 2.063l-1.313 1.594q-1.172-1.188-2.828-1.782-1.656-.609-3.453-.609-1.078 0-2 .219-.922.219-1.625.703-.703.469-1.11 1.219-.39.734-.39 1.734 0 .844.281 1.36.281.515.922.906.64.375 1.61.672.984.296 2.39.625 2 .484 3.516.968 1.515.47 2.53 1.11 1.032.64 1.548 1.562.53.922.53 2.235 0 2.89-2.202 4.578-2.203 1.672-5.922 1.672zm21.12 0q-2.156 0-4-.907-1.843-.906-3.171-2.375-1.313-1.484-2.063-3.422-.734-1.937-.734-4.062 0-2.203.718-4.172.735-1.984 1.985-3.469 1.265-1.484 3-2.343 1.75-.86 3.828-.86 2.64 0 4.672 1.39 2.047 1.376 3.203 3.329V212.32h2.719v25.688q0 1.11.968 1.11v2.405q-.609.125-.968.125-.953 0-1.688-.625-.719-.625-.719-1.5v-2.047q-1.234 2.047-3.359 3.25-2.11 1.204-4.39 1.204zm.594-2.407q1 0 2.14-.39 1.141-.407 2.141-1.11 1-.703 1.704-1.64.703-.938.859-2.016v-6.437q-.406-1.094-1.172-2.032-.75-.937-1.734-1.656-.969-.719-2.094-1.11-1.125-.406-2.203-.406-1.672 0-3.031.72-1.36.718-2.344 1.905-.985 1.172-1.5 2.704-.516 1.515-.516 3.109 0 1.672.594 3.203.594 1.516 1.64 2.656 1.047 1.141 2.454 1.828 1.422.672 3.062.672zm30.599 2l-7.672-10.687-4.484 4.172v6.515h-2.719V212.32h2.719v19.844l11.718-11.438h3.079l-8.516 8.516 8.844 12.281h-2.969zm5.919-9.64v-2.516h11.687v2.516h-11.687zm48.286 9.64h-2.719v-11.64q0-3.64-1.172-5.36-1.156-1.718-3.422-1.718-1.203 0-2.265.437-1.063.438-1.969 1.25-.89.797-1.578 1.89-.672 1.094-1.031 2.423v12.718h-2.72v-11.64q0-3.719-1.124-5.39-1.125-1.688-3.438-1.688-2.359 0-4.203 1.64-1.843 1.64-2.64 4.313v12.765h-2.72V220.68h2.485v4.718q1.282-2.39 3.36-3.734 2.078-1.344 4.593-1.344 2.641 0 4.22 1.485 1.577 1.484 1.937 3.875 2.922-5.36 8.047-5.36 1.765 0 2.984.64 1.219.641 1.953 1.829.734 1.172 1.078 2.844.344 1.656.344 3.687v12.203zm5.885-29.203h2.719v24.485q0 1.156.64 1.828.64.656 1.797.656.438 0 1.031-.125.61-.125 1.125-.328l.485 2.203q-.766.328-1.875.516-1.094.203-1.89.203-1.876 0-2.954-1.047-1.078-1.063-1.078-2.985V212.32z" fill="#fff"/><path d="M522.782 293.333h324.536v67.402H522.782z" fill="none"/><path d="M534.907 311.53h2.719v24.485q0 1.156.64 1.828.641.656 1.797.656.438 0 1.032-.125.609-.125 1.125-.328l.484 2.203q-.766.328-1.875.516-1.094.203-1.89.203-1.876 0-2.954-1.047-1.078-1.063-1.078-2.985V311.53zm19.63 29.61q-2.281 0-4.156-.86-1.875-.86-3.266-2.344-1.375-1.484-2.14-3.437-.75-1.969-.75-4.125 0-2.203.78-4.156.782-1.97 2.157-3.438 1.375-1.484 3.25-2.36 1.89-.89 4.125-.89 2.25 0 4.14.89 1.907.876 3.282 2.36 1.39 1.469 2.156 3.438.782 1.953.782 4.156 0 2.156-.766 4.125-.75 1.953-2.14 3.437-1.376 1.485-3.282 2.344-1.89.86-4.172.86zm-7.562-10.72q0 1.75.593 3.25.61 1.5 1.625 2.641 1.032 1.141 2.407 1.782 1.375.64 2.937.64 1.563 0 2.938-.656 1.39-.656 2.422-1.797 1.046-1.14 1.64-2.656.61-1.531.61-3.297 0-1.719-.61-3.25-.594-1.547-1.64-2.687-1.032-1.141-2.422-1.797-1.375-.657-2.938-.657-1.562 0-2.922.657-1.36.656-2.406 1.828-1.031 1.156-1.64 2.703-.594 1.531-.594 3.297zm31.362 10.72q-2.281 0-4.156-.86-1.875-.86-3.266-2.344-1.375-1.484-2.14-3.437-.75-1.969-.75-4.125 0-2.203.78-4.156.782-1.97 2.157-3.438 1.375-1.484 3.25-2.36 1.89-.89 4.125-.89 2.25 0 4.14.89 1.907.876 3.282 2.36 1.39 1.469 2.156 3.438.781 1.953.781 4.156 0 2.156-.765 4.125-.75 1.953-2.14 3.437-1.376 1.485-3.282 2.344-1.89.86-4.172.86zm-7.562-10.72q0 1.75.593 3.25.61 1.5 1.625 2.641 1.032 1.141 2.407 1.782 1.375.64 2.937.64 1.563 0 2.938-.656 1.39-.656 2.421-1.797 1.047-1.14 1.641-2.656.61-1.531.61-3.297 0-1.719-.61-3.25-.594-1.547-1.64-2.687-1.032-1.141-2.422-1.797-1.375-.657-2.938-.657-1.562 0-2.922.657-1.36.656-2.406 1.828-1.031 1.156-1.64 2.703-.594 1.531-.594 3.297zm37.362 10.313l-7.672-10.687-4.484 4.172v6.515h-2.719V311.53h2.719v19.844l11.719-11.438h3.078l-8.516 8.516 8.844 12.281h-2.969zm15.2.407q-2.281 0-4.156-.86-1.875-.86-3.266-2.344-1.375-1.484-2.14-3.437-.75-1.969-.75-4.125 0-2.203.78-4.156.782-1.97 2.157-3.438 1.375-1.484 3.25-2.36 1.89-.89 4.125-.89 2.25 0 4.14.89 1.907.876 3.282 2.36 1.39 1.469 2.156 3.438.781 1.953.781 4.156 0 2.156-.765 4.125-.75 1.953-2.14 3.437-1.376 1.485-3.282 2.344-1.89.86-4.172.86zm-7.562-10.72q0 1.75.593 3.25.61 1.5 1.625 2.641 1.032 1.141 2.407 1.782 1.375.64 2.937.64 1.563 0 2.938-.656 1.39-.656 2.421-1.797 1.047-1.14 1.641-2.656.61-1.531.61-3.297 0-1.719-.61-3.25-.594-1.547-1.64-2.687-1.032-1.141-2.422-1.797-1.375-.657-2.938-.657-1.562 0-2.922.657-1.36.656-2.406 1.828-1.031 1.156-1.64 2.703-.594 1.531-.594 3.297zm29.003 10.72q-3.391 0-5.063-2.266-1.656-2.266-1.656-6.734v-12.25h2.719v11.765q0 7.078 4.843 7.078 1.204 0 2.36-.39 1.156-.407 2.14-1.157.985-.765 1.766-1.812.781-1.047 1.25-2.36V319.89h2.719v17.328q0 1.11.969 1.11v2.405q-.485.078-.782.078h-.422q-.953-.03-1.562-.671-.594-.641-.594-1.72v-2.405q-1.36 2.437-3.703 3.78-2.344 1.345-4.984 1.345zm27.244-1.407q-.234.125-.703.328-.453.188-1.063.391-.593.203-1.359.36-.75.156-1.594.156-.875 0-1.687-.235-.797-.234-1.406-.734-.594-.5-.954-1.266-.359-.765-.359-1.765v-14.922h-2.875v-2.156h2.875v-7.032h2.719v7.032h4.812v2.156h-4.812v14.172q.093 1.156.828 1.703.734.531 1.703.531 1.156 0 2.031-.375.89-.39 1.125-.547l.719 2.203zm2.994-8.64v-2.516h11.687v2.516h-11.687zm24.208 10.047q-2.438 0-4.766-.797-2.312-.813-4-2.328l1.25-1.844q1.75 1.437 3.563 2.156 1.828.719 3.906.719 2.531 0 4.031-1.016 1.5-1.015 1.5-2.89 0-.891-.406-1.47-.406-.577-1.187-1.015-.766-.437-1.954-.781-1.171-.344-2.734-.703-1.812-.438-3.125-.875-1.312-.438-2.187-1-.86-.563-1.282-1.375-.406-.828-.406-2.063 0-1.562.61-2.765.624-1.203 1.687-1.985 1.062-.78 2.469-1.172 1.422-.406 3.03-.406 2.392 0 4.345.781 1.968.782 3.172 2.063l-1.313 1.594q-1.172-1.188-2.828-1.782-1.656-.609-3.453-.609-1.078 0-2 .219-.922.219-1.625.703-.703.469-1.11 1.219-.39.734-.39 1.734 0 .844.281 1.36.281.515.922.906.64.375 1.61.672.984.296 2.39.625 2 .484 3.516.968 1.515.47 2.53 1.11 1.032.64 1.548 1.562.53.922.53 2.235 0 2.89-2.202 4.578-2.203 1.672-5.922 1.672zm21.12 0q-2.156 0-4-.907-1.843-.906-3.171-2.375-1.313-1.484-2.063-3.422-.734-1.937-.734-4.062 0-2.203.718-4.172.735-1.984 1.985-3.469 1.265-1.484 3-2.343 1.75-.86 3.828-.86 2.64 0 4.672 1.39 2.047 1.376 3.203 3.329V311.53h2.719v25.688q0 1.11.968 1.11v2.405q-.609.125-.968.125-.953 0-1.688-.625-.719-.625-.719-1.5v-2.047q-1.234 2.047-3.359 3.25-2.11 1.204-4.39 1.204zm.594-2.407q1 0 2.14-.39 1.141-.407 2.141-1.11 1-.703 1.704-1.64.703-.938.859-2.016v-6.437q-.406-1.094-1.172-2.032-.75-.937-1.734-1.656-.969-.719-2.094-1.11-1.125-.406-2.203-.406-1.672 0-3.031.72-1.36.718-2.344 1.905-.985 1.172-1.5 2.704-.516 1.515-.516 3.109 0 1.672.594 3.203.594 1.516 1.64 2.656 1.047 1.14 2.454 1.828 1.422.672 3.062.672zm30.599 2l-7.672-10.687-4.484 4.172v6.515h-2.719V311.53h2.719v19.844l11.718-11.438h3.079l-8.516 8.516 8.844 12.281h-2.969z" fill="#fff"/></g></svg>