<?xml version="1.0" encoding="UTF-8" standalone="no"?>
<!DOCTYPE svg PUBLIC "-//W3C//DTD SVG 1.1//EN"
 "http://www.w3.org/Graphics/SVG/1.1/DTD/svg11.dtd">
<!-- Generated by graphviz version 2.40.1 (20161225.0304)
 -->
<!-- Title: Context Pages: 1 -->
<svg width="720pt" height="582pt"
 viewBox="0.00 0.00 720.00 582.00" xmlns="http://www.w3.org/2000/svg" xmlns:xlink="http://www.w3.org/1999/xlink">
<g id="graph0" class="graph" transform="scale(1.5346 1.5346) rotate(0) translate(4 375.2533)">
<title>Context</title>
<polygon fill="none" stroke="transparent" points="-4,4 -4,-375.2533 465.1794,-375.2533 465.1794,4 -4,4"/>
<!-- root -->
<!-- connect -->
<g id="node2" class="node">
<title>connect</title>
<ellipse fill="none" stroke="none" stroke-linecap="round" cx="385.7861" cy="-233.3382" rx="48.1917" ry="18"/>
<text text-anchor="middle" x="385.7861" y="-229.6382" font-family="monospace" font-size="14.00" fill="#ffffff">connect</text>
</g>
<!-- root&#45;&#45;connect -->
<!-- host -->
<g id="node3" class="node">
<title>host</title>
<ellipse fill="none" stroke="none" stroke-linecap="round" cx="334.1965" cy="-313.6132" rx="32.4942" ry="18"/>
<text text-anchor="middle" x="334.1965" y="-309.9132" font-family="monospace" font-size="14.00" fill="#ffffff">host</text>
</g>
<!-- root&#45;&#45;host -->
<!-- port -->
<g id="node4" class="node">
<title>port</title>
<ellipse fill="none" stroke="none" stroke-linecap="round" cx="247.3967" cy="-353.2533" rx="32.4942" ry="18"/>
<text text-anchor="middle" x="247.3967" y="-349.5533" font-family="monospace" font-size="14.00" fill="#ffffff">port</text>
</g>
<!-- root&#45;&#45;port -->
<!-- tcp -->
<g id="node5" class="node">
<title>tcp</title>
<ellipse fill="none" stroke="none" stroke-linecap="round" cx="152.9449" cy="-339.6732" rx="27" ry="18"/>
<text text-anchor="middle" x="152.9449" y="-335.9732" font-family="monospace" font-size="14.00" fill="#ffffff">tcp</text>
</g>
<!-- root&#45;&#45;tcp -->
<!-- error -->
<g id="node6" class="node">
<title>error</title>
<ellipse fill="none" stroke="none" stroke-linecap="round" cx="80.829" cy="-277.1844" rx="37.8943" ry="18"/>
<text text-anchor="middle" x="80.829" y="-273.4844" font-family="monospace" font-size="14.00" fill="#ffffff">error</text>
</g>
<!-- root&#45;&#45;error -->
<!-- database -->
<g id="node7" class="node">
<title>database</title>
<ellipse fill="none" stroke="none" stroke-linecap="round" cx="53.9452" cy="-185.6267" rx="53.8905" ry="18"/>
<text text-anchor="middle" x="53.9452" y="-181.9267" font-family="monospace" font-size="14.00" fill="#ffffff">database</text>
</g>
<!-- root&#45;&#45;database -->
<!-- close -->
<g id="node8" class="node">
<title>close</title>
<ellipse fill="none" stroke="none" stroke-linecap="round" cx="80.829" cy="-94.0689" rx="37.8943" ry="18"/>
<text text-anchor="middle" x="80.829" y="-90.3689" font-family="monospace" font-size="14.00" fill="#ffffff">close</text>
</g>
<!-- root&#45;&#45;close -->
<!-- password -->
<g id="node9" class="node">
<title>password</title>
<ellipse fill="none" stroke="none" stroke-linecap="round" cx="152.9449" cy="-31.5801" rx="53.8905" ry="18"/>
<text text-anchor="middle" x="152.9449" y="-27.8801" font-family="monospace" font-size="14.00" fill="#ffffff">password</text>
</g>
<!-- root&#45;&#45;password -->
<!-- user -->
<g id="node10" class="node">
<title>user</title>
<ellipse fill="none" stroke="none" stroke-linecap="round" cx="247.3967" cy="-18" rx="32.4942" ry="18"/>
<text text-anchor="middle" x="247.3967" y="-14.3" font-family="monospace" font-size="14.00" fill="#ffffff">user</text>
</g>
<!-- root&#45;&#45;user -->
<!-- socket -->
<g id="node11" class="node">
<title>socket</title>
<ellipse fill="none" stroke="none" stroke-linecap="round" cx="334.1965" cy="-57.6402" rx="42.7926" ry="18"/>
<text text-anchor="middle" x="334.1965" y="-53.9402" font-family="monospace" font-size="14.00" fill="#ffffff">socket</text>
</g>
<!-- root&#45;&#45;socket -->
<!-- authenticate -->
<g id="node12" class="node">
<title>authenticate</title>
<ellipse fill="none" stroke="none" stroke-linecap="round" cx="385.7861" cy="-137.9151" rx="75.2868" ry="18"/>
<text text-anchor="middle" x="385.7861" y="-134.2151" font-family="monospace" font-size="14.00" fill="#ffffff">authenticate</text>
</g>
<!-- root&#45;&#45;authenticate -->
<!-- connect&#45;&#45;host -->
<g id="edge33" class="edge">
<title>connect&#45;&#45;host</title>
<path fill="none" stroke="#fff01fff" stroke-linecap="round" stroke-width="5.0" d="M374.3367,-251.1538C365.6687,-264.6415 353.8318,-283.0601 345.2598,-296.3983"/>
</g>
<!-- connect&#45;&#45;port -->
<g id="edge35" class="edge">
<title>connect&#45;&#45;port</title>
<path fill="none" stroke="#fff01fff" stroke-linecap="round" stroke-width="5.0" d="M366.5437,-250.0119C339.6584,-273.3081 291.2298,-315.2717 265.1613,-337.8602"/>
</g>
<!-- connect&#45;&#45;tcp -->
<g id="edge37" class="edge">
<title>connect&#45;&#45;tcp</title>
<path fill="none" stroke="#fff01f6f" stroke-linecap="round" stroke-width="2.5" d="M354.8666,-247.4586C307.2399,-269.2091 217.066,-310.3901 175.2616,-329.4815"/>
</g>
<!-- connect&#45;&#45;error -->
<g id="edge32" class="edge">
<title>connect&#45;&#45;error</title>
<path fill="none" stroke="#fff01f5e" stroke-linecap="round" stroke-width="2.0" d="M340.7887,-239.8078C279.9835,-248.5503 172.7816,-263.9636 116.9385,-271.9926"/>
</g>
<!-- connect&#45;&#45;database -->
<g id="edge31" class="edge">
<title>connect&#45;&#45;database</title>
<path fill="none" stroke="#fff01f47" stroke-linecap="round" stroke-width="1.0" d="M340.6872,-226.8539C278.7524,-217.9491 167.761,-201.9909 103.5463,-192.7582"/>
</g>
<!-- connect&#45;&#45;password -->
<g id="edge34" class="edge">
<title>connect&#45;&#45;password</title>
<path fill="none" stroke="#fff01fda" stroke-linecap="round" stroke-width="4.5" d="M366.3347,-216.4834C322.5059,-178.5055 216.436,-86.5954 172.5047,-48.5288"/>
</g>
<!-- connect&#45;&#45;user -->
<g id="edge38" class="edge">
<title>connect&#45;&#45;user</title>
<path fill="none" stroke="#fff01fda" stroke-linecap="round" stroke-width="4.5" d="M370.1754,-216.1924C353.7516,-197.6687 327.711,-166.8823 308.7955,-137.7522 286.4014,-103.265 265.7786,-59.5961 255.0764,-35.6709"/>
</g>
<!-- connect&#45;&#45;socket -->
<g id="edge36" class="edge">
<title>connect&#45;&#45;socket</title>
<path fill="none" stroke="#fff01fda" stroke-linecap="round" stroke-width="4.5" d="M364.0788,-217.2306C343.5863,-200.2219 315.0839,-171.2607 308.7955,-137.7522 304.651,-115.668 314.6849,-91.1631 323.3386,-75.1417"/>
</g>
<!-- host&#45;&#45;port -->
<g id="edge53" class="edge">
<title>host&#45;&#45;port</title>
<path fill="none" stroke="#fff01fff" stroke-linecap="round" stroke-width="5.0" d="M309.0904,-325.0787C297.6747,-330.2921 284.192,-336.4494 272.7471,-341.6762"/>
</g>
<!-- host&#45;&#45;tcp -->
<g id="edge55" class="edge">
<title>host&#45;&#45;tcp</title>
<path fill="none" stroke="#fff01f6f" stroke-linecap="round" stroke-width="2.5" d="M302.6249,-318.1525C267.7346,-323.1689 212.1602,-331.1593 179.446,-335.8629"/>
</g>
<!-- host&#45;&#45;password -->
<g id="edge52" class="edge">
<title>host&#45;&#45;password</title>
<path fill="none" stroke="#fff01fda" stroke-linecap="round" stroke-width="4.5" d="M324.3054,-296.4535C309.9571,-271.72 282.3518,-224.7247 257.3927,-185.6267 225.4016,-135.5131 185.4398,-77.8571 165.4919,-49.3897"/>
</g>
<!-- host&#45;&#45;user -->
<g id="edge56" class="edge">
<title>host&#45;&#45;user</title>
<path fill="none" stroke="#fff01fda" stroke-linecap="round" stroke-width="4.5" d="M328.8975,-295.5662C313.3646,-242.6662 268.0703,-88.4077 252.6264,-35.8107"/>
</g>
<!-- host&#45;&#45;socket -->
<g id="edge54" class="edge">
<title>host&#45;&#45;socket</title>
<path fill="none" stroke="#fff01fda" stroke-linecap="round" stroke-width="4.5" d="M328.9087,-295.7214C320.147,-264.0229 304.0317,-195.8605 308.7955,-137.7522 310.6076,-115.6485 319.2227,-91.5503 325.9234,-75.6185"/>
</g>
<!-- port&#45;&#45;tcp -->
<g id="edge62" class="edge">
<title>port&#45;&#45;tcp</title>
<path fill="none" stroke="#fff01f6f" stroke-linecap="round" stroke-width="2.5" d="M215.6829,-348.6936C203.8926,-346.9984 190.6512,-345.0945 179.3826,-343.4744"/>
</g>
<!-- port&#45;&#45;user -->
<g id="edge63" class="edge">
<title>port&#45;&#45;user</title>
<path fill="none" stroke="#fff01fda" stroke-linecap="round" stroke-width="4.5" d="M249.1838,-335.1666C252.059,-304.4578 257.3927,-240.1438 257.3927,-185.6267 257.3927,-131.1095 252.059,-66.7955 249.1838,-36.0868"/>
</g>
<!-- port&#45;&#45;socket -->
<g id="edge61" class="edge">
<title>port&#45;&#45;socket</title>
<path fill="none" stroke="#fff01fda" stroke-linecap="round" stroke-width="4.5" d="M252.3132,-335.3212C262.5055,-298.3004 286.8241,-210.7665 308.7955,-137.7522 315.2282,-116.3753 323.0449,-91.935 328.2936,-75.7287"/>
</g>
<!-- tcp&#45;&#45;user -->
<g id="edge66" class="edge">
<title>tcp&#45;&#45;user</title>
<path fill="none" stroke="#fff01f5e" stroke-linecap="round" stroke-width="2.0" d="M156.5891,-321.4921C162.5388,-292.5154 175.0989,-234.1743 189.1985,-185.6267 205.2653,-130.3055 228.9132,-66.3621 240.4936,-35.9115"/>
</g>
<!-- error&#45;&#45;host -->
<g id="edge46" class="edge">
<title>error&#45;&#45;host</title>
<path fill="none" stroke="#fff01f5e" stroke-linecap="round" stroke-width="2.0" d="M117.1304,-282.4038C166.8007,-289.5453 255.1503,-302.248 302.3659,-309.0366"/>
</g>
<!-- error&#45;&#45;port -->
<g id="edge48" class="edge">
<title>error&#45;&#45;port</title>
<path fill="none" stroke="#fff01f5e" stroke-linecap="round" stroke-width="2.0" d="M108.3343,-289.7456C140.0282,-304.2198 191.6678,-327.8028 222.3049,-341.7943"/>
</g>
<!-- error&#45;&#45;tcp -->
<g id="edge50" class="edge">
<title>error&#45;&#45;tcp</title>
<path fill="none" stroke="#fff01f47" stroke-linecap="round" stroke-width="1.0" d="M99.0269,-292.953C110.5433,-302.932 125.3115,-315.7287 136.4792,-325.4056"/>
</g>
<!-- error&#45;&#45;password -->
<g id="edge47" class="edge">
<title>error&#45;&#45;password</title>
<path fill="none" stroke="#fff01f6f" stroke-linecap="round" stroke-width="2.5" d="M86.5819,-259.3392C92.4797,-240.9237 101.8448,-211.343 109.4904,-185.6447 124.0721,-136.6326 140.1413,-78.4854 148.0268,-49.6545"/>
</g>
<!-- error&#45;&#45;user -->
<g id="edge51" class="edge">
<title>error&#45;&#45;user</title>
<path fill="none" stroke="#fff01f6f" stroke-linecap="round" stroke-width="2.5" d="M92.0166,-259.7761C122.4336,-212.4463 206.373,-81.834 236.4753,-34.9941"/>
</g>
<!-- error&#45;&#45;socket -->
<g id="edge49" class="edge">
<title>error&#45;&#45;socket</title>
<path fill="none" stroke="#fff01f84" stroke-linecap="round" stroke-width="3.0" d="M98.7472,-260.965C121.82,-240.14 163.2308,-202.9666 199.1853,-171.7674 239.9842,-136.3645 288.4985,-95.6976 314.8357,-73.7382"/>
</g>
<!-- database&#45;&#45;host -->
<g id="edge40" class="edge">
<title>database&#45;&#45;host</title>
<path fill="none" stroke="#fff01f47" stroke-linecap="round" stroke-width="1.0" d="M85.8208,-200.1837C142.0587,-225.8667 257.7756,-278.7129 308.9287,-302.0737"/>
</g>
<!-- database&#45;&#45;port -->
<g id="edge42" class="edge">
<title>database&#45;&#45;port</title>
<path fill="none" stroke="#fff01f47" stroke-linecap="round" stroke-width="1.0" d="M73.559,-202.6221C111.3092,-235.3328 193.528,-306.5758 229.7076,-337.9256"/>
</g>
<!-- database&#45;&#45;tcp -->
<g id="edge44" class="edge">
<title>database&#45;&#45;tcp</title>
<path fill="none" stroke="#fff01f41" stroke-linecap="round" stroke-width="0.5" d="M67.9108,-203.3469C81.8751,-221.4219 103.5939,-250.524 120.1256,-277.2023 129.2891,-291.99 138.3847,-309.5936 144.6682,-322.3393"/>
</g>
<!-- database&#45;&#45;error -->
<g id="edge39" class="edge">
<title>database&#45;&#45;error</title>
<path fill="none" stroke="#fff01f41" stroke-linecap="round" stroke-width="0.5" d="M59.2566,-203.7155C63.9697,-219.7668 70.8189,-243.0932 75.5287,-259.1331"/>
</g>
<!-- database&#45;&#45;password -->
<g id="edge41" class="edge">
<title>database&#45;&#45;password</title>
<path fill="none" stroke="#fff01f47" stroke-linecap="round" stroke-width="1.0" d="M67.9172,-167.9337C81.8865,-149.8852 103.609,-120.8222 120.1252,-94.1644 129.1714,-79.5635 138.1388,-62.2151 144.4081,-49.491"/>
</g>
<!-- database&#45;&#45;user -->
<g id="edge45" class="edge">
<title>database&#45;&#45;user</title>
<path fill="none" stroke="#fff01f47" stroke-linecap="round" stroke-width="1.0" d="M73.559,-168.6312C111.3092,-135.9205 193.528,-64.6775 229.7076,-33.3277"/>
</g>
<!-- database&#45;&#45;socket -->
<g id="edge43" class="edge">
<title>database&#45;&#45;socket</title>
<path fill="none" stroke="#fff01f47" stroke-linecap="round" stroke-width="1.0" d="M85.8208,-171.0696C140.6241,-146.0418 251.9104,-95.219 304.8899,-71.0241"/>
</g>
<!-- close&#45;&#45;connect -->
<g id="edge22" class="edge">
<title>close&#45;&#45;connect</title>
<path fill="none" stroke="#fff01f5e" stroke-linecap="round" stroke-width="2.0" d="M108.1603,-106.5507C165.0303,-132.5224 295.7424,-192.2166 355.2633,-219.3989"/>
</g>
<!-- close&#45;&#45;host -->
<g id="edge25" class="edge">
<title>close&#45;&#45;host</title>
<path fill="none" stroke="#fff01f5e" stroke-linecap="round" stroke-width="2.0" d="M98.7472,-110.2883C121.82,-131.1133 163.2308,-168.2867 199.1853,-199.486 240.6797,-235.4923 290.1547,-276.9436 316.163,-298.6217"/>
</g>
<!-- close&#45;&#45;port -->
<g id="edge27" class="edge">
<title>close&#45;&#45;port</title>
<path fill="none" stroke="#fff01f5e" stroke-linecap="round" stroke-width="2.0" d="M92.0166,-111.4772C122.4336,-158.807 206.373,-289.4193 236.4753,-336.2592"/>
</g>
<!-- close&#45;&#45;tcp -->
<g id="edge29" class="edge">
<title>close&#45;&#45;tcp</title>
<path fill="none" stroke="#fff01f47" stroke-linecap="round" stroke-width="1.0" d="M86.581,-111.9214C92.4782,-130.3445 101.8427,-159.9371 109.4904,-185.6447 124.0677,-234.6466 140.1388,-292.7796 148.0257,-321.6033"/>
</g>
<!-- close&#45;&#45;error -->
<g id="edge24" class="edge">
<title>close&#45;&#45;error</title>
<path fill="none" stroke="#fff01f5e" stroke-linecap="round" stroke-width="2.0" d="M89.8983,-111.7992C98.2957,-129.882 109.4919,-158.9902 109.4904,-185.6447 109.4889,-212.2897 98.2934,-241.3861 89.897,-259.4615"/>
</g>
<!-- close&#45;&#45;database -->
<g id="edge23" class="edge">
<title>close&#45;&#45;database</title>
<path fill="none" stroke="#fff01f41" stroke-linecap="round" stroke-width="0.5" d="M75.5176,-112.1578C70.8045,-128.2091 63.9553,-151.5354 59.2455,-167.5754"/>
</g>
<!-- close&#45;&#45;password -->
<g id="edge26" class="edge">
<title>close&#45;&#45;password</title>
<path fill="none" stroke="#fff01f6f" stroke-linecap="round" stroke-width="2.5" d="M99.0269,-78.3004C109.5419,-69.1891 122.7677,-57.7288 133.4887,-48.439"/>
</g>
<!-- close&#45;&#45;user -->
<g id="edge30" class="edge">
<title>close&#45;&#45;user</title>
<path fill="none" stroke="#fff01f6f" stroke-linecap="round" stroke-width="2.5" d="M109.335,-82.0779C131.8992,-72.4763 164.1435,-58.5109 192.0139,-45.5122 202.3276,-40.702 213.5955,-35.1583 223.2591,-30.3133"/>
</g>
<!-- close&#45;&#45;socket -->
<g id="edge28" class="edge">
<title>close&#45;&#45;socket</title>
<path fill="none" stroke="#fff01f9d" stroke-linecap="round" stroke-width="3.5" d="M117.1304,-88.8496C163.7904,-82.1409 244.5833,-70.5246 293.3458,-63.5136"/>
</g>
<!-- password&#45;&#45;port -->
<g id="edge57" class="edge">
<title>password&#45;&#45;port</title>
<path fill="none" stroke="#fff01fda" stroke-linecap="round" stroke-width="4.5" d="M156.5891,-49.7612C162.5388,-78.7379 175.0989,-137.079 189.1985,-185.6267 205.2653,-240.9479 228.9132,-304.8912 240.4936,-335.3418"/>
</g>
<!-- password&#45;&#45;tcp -->
<g id="edge59" class="edge">
<title>password&#45;&#45;tcp</title>
<path fill="none" stroke="#fff01f5e" stroke-linecap="round" stroke-width="2.0" d="M152.9449,-49.9301C152.9449,-104.7274 152.9449,-266.7478 152.9449,-321.4194"/>
</g>
<!-- password&#45;&#45;user -->
<g id="edge60" class="edge">
<title>password&#45;&#45;user</title>
<path fill="none" stroke="#fff01fff" stroke-linecap="round" stroke-width="5.5" d="M202.6602,-24.4321C207.1045,-23.7931 211.5193,-23.1584 215.7465,-22.5506"/>
</g>
<!-- password&#45;&#45;socket -->
<g id="edge58" class="edge">
<title>password&#45;&#45;socket</title>
<path fill="none" stroke="#fff01fda" stroke-linecap="round" stroke-width="4.5" d="M202.9525,-38.7701C231.4538,-42.868 266.713,-47.9375 293.506,-51.7898"/>
</g>
<!-- socket&#45;&#45;tcp -->
<g id="edge64" class="edge">
<title>socket&#45;&#45;tcp</title>
<path fill="none" stroke="#fff01f6f" stroke-linecap="round" stroke-width="2.5" d="M324.0636,-75.2164C309.6487,-100.0581 282.2124,-146.7471 257.3927,-185.6267 224.8801,-236.5573 184.1346,-295.2783 164.5322,-323.2327"/>
</g>
<!-- socket&#45;&#45;user -->
<g id="edge65" class="edge">
<title>socket&#45;&#45;user</title>
<path fill="none" stroke="#fff01fda" stroke-linecap="round" stroke-width="4.5" d="M304.8101,-44.2198C294.3834,-39.4581 282.748,-34.1444 272.6923,-29.5521"/>
</g>
<!-- authenticate&#45;&#45;connect -->
<g id="edge13" class="edge">
<title>authenticate&#45;&#45;connect</title>
<path fill="none" stroke="#fff01fba" stroke-linecap="round" stroke-width="4.0" d="M385.7861,-156.3137C385.7861,-173.3192 385.7861,-198.4364 385.7861,-215.3197"/>
</g>
<!-- authenticate&#45;&#45;host -->
<g id="edge16" class="edge">
<title>authenticate&#45;&#45;host</title>
<path fill="none" stroke="#fff01fba" stroke-linecap="round" stroke-width="4.0" d="M373.2041,-155.8973C361.0887,-174.3565 343.5382,-204.3953 336.0904,-233.338 330.7402,-254.1291 331.1416,-278.9556 332.3109,-295.4387"/>
</g>
<!-- authenticate&#45;&#45;port -->
<g id="edge18" class="edge">
<title>authenticate&#45;&#45;port</title>
<path fill="none" stroke="#fff01fba" stroke-linecap="round" stroke-width="4.0" d="M374.2252,-155.9044C347.9806,-196.7418 284.1873,-296.006 258.4423,-336.066"/>
</g>
<!-- authenticate&#45;&#45;tcp -->
<g id="edge20" class="edge">
<title>authenticate&#45;&#45;tcp</title>
<path fill="none" stroke="#fff01f5e" stroke-linecap="round" stroke-width="2.0" d="M365.5303,-155.4669C320.167,-194.7744 211.1354,-289.2509 169.4934,-325.3338"/>
</g>
<!-- authenticate&#45;&#45;error -->
<g id="edge15" class="edge">
<title>authenticate&#45;&#45;error</title>
<path fill="none" stroke="#fff01fba" stroke-linecap="round" stroke-width="4.0" d="M350.8037,-153.8911C289.4753,-181.8988 163.8018,-239.292 108.2612,-264.6565"/>
</g>
<!-- authenticate&#45;&#45;database -->
<g id="edge14" class="edge">
<title>authenticate&#45;&#45;database</title>
<path fill="none" stroke="#fff01f47" stroke-linecap="round" stroke-width="1.0" d="M321.0161,-147.2277C257.358,-156.3803 161.5771,-170.1515 103.6833,-178.4754"/>
</g>
<!-- authenticate&#45;&#45;close -->
<g id="edge12" class="edge">
<title>authenticate&#45;&#45;close</title>
<path fill="none" stroke="#fff01f9d" stroke-linecap="round" stroke-width="3.5" d="M321.1126,-128.6165C259.0448,-119.6925 167.5319,-106.5349 117.2449,-99.3047"/>
</g>
<!-- authenticate&#45;&#45;password -->
<g id="edge17" class="edge">
<title>authenticate&#45;&#45;password</title>
<path fill="none" stroke="#fff01fff" stroke-linecap="round" stroke-width="5.5" d="M350.6753,-121.8806C305.7019,-101.3419 228.3947,-66.0369 184.9645,-46.203"/>
</g>
<!-- authenticate&#45;&#45;user -->
<g id="edge21" class="edge">
<title>authenticate&#45;&#45;user</title>
<path fill="none" stroke="#fff01fff" stroke-linecap="round" stroke-width="5.5" d="M363.0893,-120.7063C346.1078,-107.6087 322.4945,-88.9204 302.6597,-71.4671 288.8292,-59.2972 273.8509,-44.711 262.9813,-33.8501"/>
</g>
<!-- authenticate&#45;&#45;socket -->
<g id="edge19" class="edge">
<title>authenticate&#45;&#45;socket</title>
<path fill="none" stroke="#fff01fff" stroke-linecap="round" stroke-width="5.5" d="M374.3367,-120.0995C365.7281,-106.7042 353.9938,-88.4453 345.4364,-75.1298"/>
</g>
</g>
</svg>
