<?xml version="1.0" encoding="UTF-8" standalone="no"?>
<!-- Created with Inkscape (http://www.inkscape.org/) -->

<svg
   xmlns:dc="http://purl.org/dc/elements/1.1/"
   xmlns:cc="http://creativecommons.org/ns#"
   xmlns:rdf="http://www.w3.org/1999/02/22-rdf-syntax-ns#"
   xmlns:svg="http://www.w3.org/2000/svg"
   xmlns="http://www.w3.org/2000/svg"
   xmlns:sodipodi="http://sodipodi.sourceforge.net/DTD/sodipodi-0.dtd"
   xmlns:inkscape="http://www.inkscape.org/namespaces/inkscape"
   version="1.1"
   id="svg2"
   xml:space="preserve"
   width="207.87466"
   height="207.87466"
   viewBox="0 0 207.87465 207.87467"
   sodipodi:docname="dotconf.svg"
   inkscape:version="0.92.3 (2405546, 2018-03-11)"><metadata
     id="metadata8"><rdf:RDF><cc:Work
         rdf:about=""><dc:format>image/svg+xml</dc:format><dc:type
           rdf:resource="http://purl.org/dc/dcmitype/StillImage" /><dc:title></dc:title></cc:Work></rdf:RDF></metadata><defs
     id="defs6"><clipPath
       clipPathUnits="userSpaceOnUse"
       id="clipPath18"><path
         d="M 0,595.28 H 841.89 V 0 H 0 Z"
         id="path16"
         inkscape:connector-curvature="0" /></clipPath></defs><sodipodi:namedview
     pagecolor="#ffffff"
     bordercolor="#666666"
     borderopacity="1"
     objecttolerance="10"
     gridtolerance="10"
     guidetolerance="10"
     inkscape:pageopacity="0"
     inkscape:pageshadow="2"
     inkscape:window-width="3082"
     inkscape:window-height="1745"
     id="namedview4"
     showgrid="false"
     fit-margin-top="0"
     fit-margin-left="0"
     fit-margin-right="0"
     fit-margin-bottom="0"
     inkscape:zoom="2.3787125"
     inkscape:cx="235.56057"
     inkscape:cy="114.73351"
     inkscape:window-x="118"
     inkscape:window-y="55"
     inkscape:window-maximized="1"
     inkscape:current-layer="g10" /><g
     id="g10"
     inkscape:groupmode="layer"
     inkscape:label="logo-dotconferences-white-print"
     transform="matrix(1.3333333,0,0,-1.3333333,-29.583999,500.79359)"><g
       id="g12"><g
         id="g14"
         clip-path="url(#clipPath18)"><g
           id="g20"
           transform="translate(204.0504,270.7031)" /><g
           id="g24"
           transform="translate(280.7491,300.5049)" /><g
           id="g28"
           transform="translate(333.3629,261.4482)" /><g
           id="g32"
           transform="translate(393.1398,304.9658)" /><g
           id="g36"
           transform="translate(443.4718,291.8721)" /><g
           id="g40"
           transform="translate(497.3087,261.4482)" /><g
           id="g44"
           transform="translate(544.6241,291.8721)" /><g
           id="g48"
           transform="translate(598.4611,261.4482)" /><g
           id="g52"
           transform="translate(667.3156,268.1172)" /><g
           id="g56"
           transform="translate(727.9923,291.8721)" /><g
           id="g60"
           transform="translate(777.0597,268.5244)" /><g
           id="g64"
           transform="translate(178.094,297.6422)"><path
             d="m 0,0 c 0,-43.052 -34.901,-77.953 -77.953,-77.953 -43.052,0 -77.953,34.901 -77.953,77.953 0,43.052 34.901,77.953 77.953,77.953 C -34.901,77.953 0,43.052 0,0"
             style="fill:#fadf1a;fill-opacity:1;fill-rule:nonzero;stroke:none"
             id="path66"
             inkscape:connector-curvature="0" /></g><g
           id="g68"
           transform="translate(59.7298,295.7674)"><path
             d="m 0,0 c 0,-2.674 0.853,-4.85 2.561,-6.528 1.706,-1.679 3.71,-2.517 6.01,-2.517 2.299,0 4.249,0.847 5.852,2.543 1.602,1.695 2.403,3.871 2.403,6.529 0,2.655 -0.801,4.876 -2.403,6.66 C 12.82,8.469 10.851,9.36 8.518,9.36 6.183,9.36 4.181,8.469 2.508,6.687 0.836,4.903 0,2.675 0,0 m -1.934,-10.252 c -2.612,2.657 -3.919,6.153 -3.919,10.488 0,4.335 1.341,7.796 4.024,10.383 2.682,2.587 5.879,3.881 9.589,3.881 3.71,0 6.698,-1.573 8.963,-4.72 v 15.313 h 5.852 v -38.911 h -5.852 v 4.195 c -2.162,-3.076 -5.314,-4.614 -9.459,-4.614 -3.52,0 -6.585,1.328 -9.198,3.985"
             style="fill:#000000;fill-opacity:1;fill-rule:nonzero;stroke:none"
             id="path70"
             inkscape:connector-curvature="0" /></g><g
           id="g72"
           transform="translate(96.801,289.3177)"><path
             d="m 0,0 c 1.654,-1.696 3.754,-2.543 6.297,-2.543 2.543,0 4.642,0.847 6.297,2.543 1.654,1.695 2.482,3.889 2.482,6.581 0,2.691 -0.828,4.885 -2.482,6.581 C 10.939,14.858 8.84,15.706 6.297,15.706 3.754,15.706 1.654,14.858 0,13.162 -1.655,11.466 -2.482,9.272 -2.482,6.581 -2.482,3.889 -1.655,1.695 0,0 m 16.748,-3.619 c -2.787,-2.779 -6.27,-4.169 -10.451,-4.169 -4.18,0 -7.664,1.39 -10.451,4.169 -2.788,2.78 -4.181,6.179 -4.181,10.2 0,4.02 1.393,7.42 4.181,10.2 2.787,2.779 6.271,4.168 10.451,4.168 4.181,0 7.664,-1.389 10.451,-4.168 2.787,-2.78 4.181,-6.18 4.181,-10.2 0,-4.021 -1.394,-7.42 -4.181,-10.2"
             style="fill:#000000;fill-opacity:1;fill-rule:nonzero;stroke:none"
             id="path74"
             inkscape:connector-curvature="0" /></g><g
           id="g76"
           transform="translate(130.3763,305.128)"><path
             d="m 0,0 v -13.739 c 0,-1.329 0.348,-2.386 1.045,-3.173 0.696,-0.786 1.673,-1.179 2.926,-1.179 1.254,0 2.457,0.611 3.607,1.835 l 2.403,-4.143 c -2.056,-1.853 -4.329,-2.779 -6.82,-2.779 -2.491,0 -4.616,0.865 -6.375,2.595 -1.759,1.731 -2.639,4.065 -2.639,7.001 V 0 h -3.501 v 4.72 h 3.501 v 8.757 H 0 V 4.72 H 7.316 V 0 Z"
             style="fill:#000000;fill-opacity:1;fill-rule:nonzero;stroke:none"
             id="path78"
             inkscape:connector-curvature="0" /></g></g></g></g></svg>