<svg xmlns="http://www.w3.org/2000/svg" viewBox="0 0 277.318 149.559" height="149.558" width="277.318"><path d="M212.71 127.088c33.87-33.867 39.498-83.146 12.572-110.07C198.36-9.903 149.083-4.275 115.216 29.59c-33.867 33.866-24.07 98.568-12.57 110.07 9.293 9.293 76.2 21.293 110.064-12.572z" fill="#f89939"/><path d="M73.74 78.15C54.092 58.504 25.5 55.233 9.873 70.857c-15.62 15.622-12.355 44.22 7.297 63.865 19.652 19.654 57.195 13.969 63.863 7.295 5.396-5.387 12.361-44.215-7.293-63.865z" fill="#3499cd"/><path d="M138.166 72.595c-.154 0-.385.053-.69.155l-9.73 3.6c-3.318 6.332-6.143 13.25-8.463 20.76-2.324 7.505-3.486 13.943-3.486 19.304 0 3.578.833 6.422 2.507 8.543 1.671 2.119 3.876 3.177 6.608 3.177 2.375 0 4.871-.76 7.488-2.28 2.617-1.514 5.662-3.872 9.133-7.067v-.045c.412 2.4 1.398 4.422 2.97 6.062 2.134 2.22 4.936 3.33 8.41 3.33 3.116 0 5.96-.76 8.54-2.28 2.486-1.46 5.288-3.721 8.39-6.741.261 2.25 1 4.206 2.237 5.863 1.573 2.107 3.48 3.158 5.724 3.158 2.301 0 4.53-.865 6.686-2.601 2.158-1.74 4.515-4.434 7.068-8.084-.229 7.125 1.67 10.685 5.705 10.685 1.61 0 3.297-.585 5.06-1.76 1.76-1.175 4.681-3.707 8.767-7.587h.002c3.548-3.52 6.154-6.815 7.814-9.88 2.248-.383 4.314-1.057 6.205-2.028-3.855 6.053-5.785 10.876-5.785 14.476 0 1.942.54 3.57 1.61 4.887 1.07 1.31 2.386 1.969 3.945 1.969 3.408 0 8.24-3.048 14.48-9.1-.013.468-.04.93-.04 1.404 0 1.683.142 4.25.421 7.698l8.465-1.99c0-2.302.037-4.125.115-5.475.13-1.815.383-3.81.768-5.98.23-1.28.816-2.49 1.76-3.638l2.148-2.492a61.058 61.058 0 0 1 2.22-2.453 42.914 42.914 0 0 1 2.143-2.14c.715-.637 1.34-1.14 1.88-1.497.585-.355 1.06-.535 1.417-.535.635 0 .957.41.957 1.229 0 .814-.602 2.73-1.8 5.744-2.249 5.615-3.374 9.79-3.374 12.523 0 2.017.524 3.626 1.573 4.825 1.047 1.2 2.425 1.8 4.136 1.8 4.211 0 9.27-3.113 15.168-9.347v-4.4c-4.173 4.927-7.197 7.392-9.064 7.392-1.254 0-1.88-.768-1.88-2.305 0-1.155.753-3.656 2.261-7.51 2.193-5.62 3.29-9.656 3.29-12.105 0-1.474-.43-2.706-1.3-3.688-.865-.98-1.95-1.47-3.25-1.47-1.912 0-4.1.894-6.557 2.695-2.46 1.803-5.78 5.037-9.969 9.71.613-3.038 1.903-7.196 3.868-12.483l-9.344 1.798c-2.12 4.599-3.658 8.733-4.615 12.413a43.503 43.503 0 0 0-1.059 5.554c-2.934 2.83-4.823 4.557-5.664 5.188-.842.622-1.725.935-2.643.935-.842 0-1.513-.316-2.01-.96-.497-.633-.747-1.491-.747-2.565 0-1.147.22-2.47.652-3.963.433-1.492 1.391-4.308 2.871-8.445l3.56-9.807-3.482.154c-3.168 6.028-6.87 9.268-11.11 9.729 1.152-2.99 1.725-5.286 1.725-6.895 0-2.044-.994-3.062-2.986-3.062-2.35 0-4.195 1.117-5.535 3.35-1.344 2.237-2.012 4.335-2.012 6.304 0 1.912 1.096 3.355 3.295 4.326a50.206 50.206 0 0 1-4.523 5.715v-.008c-2.17 2.17-3.852 3.785-5.053 4.846-1.2 1.06-2.3 1.59-3.29 1.59-1.56 0-2.337-1.098-2.337-3.293 0-2.093.871-5.963 2.607-11.608l3.382-11.22h-2.148l-7.828 4.327c-1.277-2.935-3.512-4.404-6.705-4.404-2.525 0-5.44 1.073-8.733 3.218s-5.992 4.95-8.1 8.424c-1.635 2.697-2.626 5.5-2.99 8.41-2.935 2.935-5.159 4.87-6.642 5.746-1.53.904-3.138 1.358-4.824 1.358-4.316 0-6.984-2.492-8.004-7.47 11.235-3.294 16.853-7.581 16.853-12.87 0-1.99-.716-3.597-2.146-4.824-1.432-1.225-3.332-1.84-5.707-1.84-4.57 0-8.733 2.19-12.483 6.57-3.408 3.97-5.25 8.372-5.566 13.194-3.106 3.05-5.436 5.074-6.963 6.054-1.558.996-3.025 1.49-4.406 1.49-1.354 0-2.438-.648-3.256-1.953-.817-1.303-1.225-3.062-1.225-5.285 0-.997.102-2.82.307-5.476 5.106-5.541 8.858-10.75 11.26-15.63 2.403-4.876 3.601-9.92 3.601-15.128 0-1.838-.238-3.3-.71-4.387-.469-1.083-1.08-1.627-1.817-1.627zm-1.88 4.407c.434 0 .794.29 1.075.865.28.574.418 1.337.418 2.277 0 3.225-1.007 7.074-3.023 11.549a46.734 46.734 0 0 1-7.89 12.12c1.735-8.464 3.503-15.051 5.304-19.755 1.8-4.705 3.176-7.056 4.117-7.056zm53.858 20.76c1.07 0 1.924.4 2.565 1.206.635.803.957 1.922.957 3.35 0 3.676-1.129 7.694-3.389 12.049-2.264 4.353-4.67 6.53-7.223 6.53-1.049 0-1.908-.428-2.584-1.284-.676-.856-1.015-1.973-1.015-3.354 0-3.648 1.145-7.644 3.43-11.986 2.28-4.342 4.704-6.512 7.26-6.512zm-32.904.077c1.785 0 2.68 1.225 2.68 3.676 0 4.954-3.27 8.348-9.805 10.188 0-4.113.765-7.45 2.3-10.014 1.532-2.57 3.14-3.85 4.825-3.85z" fill="#fff"/><path d="M156.025 78.16q.09 1.014.507 1.555.767.98 2.66.98 1.127 0 1.983-.485.857-.495.857-1.52 0-.778-.688-1.184-.44-.248-1.735-.575l-1.612-.406q-1.544-.383-2.276-.856-1.307-.823-1.307-2.276 0-1.713 1.228-2.773 1.24-1.06 3.324-1.06 2.728 0 3.933 1.6.755 1.015.733 2.187h-1.916q-.056-.687-.484-1.25-.7-.8-2.423-.8-1.15 0-1.747.439-.586.44-.586 1.16 0 .79.778 1.263.45.282 1.33.496l1.34.327q2.187.53 2.93 1.025 1.184.778 1.184 2.445 0 1.612-1.229 2.784-1.217 1.172-3.719 1.172-2.693 0-3.82-1.217-1.116-1.228-1.194-3.032h1.95zm2.998-8.576zm12.036-.057q2.04 0 3.313.992 1.284.992 1.543 3.414h-1.972q-.18-1.115-.822-1.848-.643-.743-2.063-.743-1.938 0-2.772 1.893-.54 1.228-.54 3.03 0 1.816.766 3.055.766 1.24 2.411 1.24 1.262 0 1.995-.767.744-.777 1.025-2.118h1.972q-.338 2.4-1.69 3.516-1.352 1.104-3.46 1.104-2.366 0-3.775-1.724-1.408-1.735-1.408-4.327 0-3.178 1.543-4.948 1.544-1.77 3.933-1.77zm-.316.057zm7.201.349h2.062v12.013h-2.062zm0-4.542h2.062v2.3h-2.062zm5.094 0h1.95v9.613l5.206-5.127h2.592l-4.62 4.519 4.88 7.55h-2.593l-3.764-6.085-1.702 1.555v4.53h-1.95V65.39zm11.584 4.542h2.063v12.013h-2.063zm0-4.542h2.063v2.3h-2.063zm5.545 1.116h2.051v3.37h1.927v1.656h-1.927v7.877q0 .63.428.846.237.123.79.123h.315q.17-.01.394-.033v1.6q-.35.1-.732.146-.372.046-.812.046-1.42 0-1.927-.722-.507-.732-.507-1.893v-7.99h-1.634v-1.656h1.634z" font-size="23.08" font-family="Helvetica" fill="#fff"/></svg>