<svg xmlns="http://www.w3.org/2000/svg" viewBox="0 0 273.88758 141.23443" height="150.65" width="292.147"><defs><marker orient="auto" id="e" overflow="visible"><path d="M-5.231-2.42L1.324-.01-5.23 2.401c1.047-1.423 1.041-3.37 0-4.821z" fill="#fff" fill-rule="evenodd" stroke="#fff" stroke-width=".375" stroke-linejoin="round"/></marker><marker orient="auto" id="d" overflow="visible"><path d="M-5.231-2.42L1.324-.01-5.23 2.401c1.047-1.423 1.041-3.37 0-4.821z" fill="#fff" fill-rule="evenodd" stroke="#fff" stroke-width=".375" stroke-linejoin="round"/></marker><marker id="c" orient="auto" overflow="visible"><path d="M-5.231-2.42L1.324-.01-5.23 2.401c1.047-1.423 1.041-3.37 0-4.821z" fill="#fff" fill-rule="evenodd" stroke="#fff" stroke-width=".375" stroke-linejoin="round"/></marker><marker orient="auto" id="b" overflow="visible"><path d="M-5.231-2.42L1.324-.01-5.23 2.401c1.047-1.423 1.041-3.37 0-4.821z" fill="#fff" fill-rule="evenodd" stroke="#fff" stroke-width=".375" stroke-linejoin="round"/></marker><marker id="a" orient="auto" overflow="visible"><path d="M-5.231-2.42L1.324-.01-5.23 2.401c1.047-1.423 1.041-3.37 0-4.821z" fill="#fff" fill-rule="evenodd" stroke="#fff" stroke-width=".375" stroke-linejoin="round"/></marker></defs><g transform="translate(-152.42 -364.32)"><circle cx="173.894" cy="484.082" r="21.191" fill="#4eb1ba" stroke="#fff" stroke-width=".565" stroke-linejoin="round"/><text style="line-height:125%;-inkscape-font-specification:STIXIntegralsUpD" x="173.833" y="480.737" font-weight="400" font-size="12.5" font-family="STIXIntegralsUpD" letter-spacing="0" word-spacing="0"><tspan x="173.833" y="480.737" style="-inkscape-font-specification:monospace;text-align:center" font-family="monospace" text-anchor="middle">1</tspan><tspan x="173.833" y="496.362" style="-inkscape-font-specification:monospace;text-align:center" font-family="monospace" text-anchor="middle">2016</tspan></text></g><g transform="translate(-169.021 -413.288)"><circle r="21.191" cy="483.905" cx="230.993" fill="#cb8c1d" stroke="#fff" stroke-width=".565" stroke-linejoin="round"/><text y="480.56" x="230.932" style="line-height:125%;-inkscape-font-specification:STIXIntegralsUpD" font-weight="400" font-size="12.5" font-family="STIXIntegralsUpD" letter-spacing="0" word-spacing="0"><tspan style="-inkscape-font-specification:monospace;text-align:center" y="480.56" x="230.932" font-family="monospace" text-anchor="middle">2</tspan><tspan style="-inkscape-font-specification:monospace;text-align:center" y="496.185" x="230.932" font-family="monospace" text-anchor="middle">2014</tspan></text></g><g transform="translate(-147.082 -462.255)"><circle cx="284.026" cy="483.728" r="21.191" fill="#4eb1ba" stroke="#fff" stroke-width=".565" stroke-linejoin="round"/><text style="line-height:125%;-inkscape-font-specification:STIXIntegralsUpD" x="283.965" y="480.383" font-weight="400" font-size="12.5" font-family="STIXIntegralsUpD" letter-spacing="0" word-spacing="0"><tspan x="283.965" y="480.383" style="-inkscape-font-specification:monospace;text-align:center" font-family="monospace" text-anchor="middle">3</tspan><tspan x="283.965" y="496.008" style="-inkscape-font-specification:monospace;text-align:center" font-family="monospace" text-anchor="middle">2016</tspan></text></g><g transform="translate(-167.408 -365.028)"><circle r="21.191" cy="484.789" cx="338.826" fill="#f1684e" stroke="#fff" stroke-width=".565" stroke-linejoin="round"/><text y="481.444" x="338.765" style="line-height:125%;-inkscape-font-specification:STIXIntegralsUpD" font-weight="400" font-size="12.5" font-family="STIXIntegralsUpD" letter-spacing="0" word-spacing="0"><tspan style="-inkscape-font-specification:monospace;text-align:center" y="481.444" x="338.765" font-family="monospace" text-anchor="middle">5</tspan><tspan style="-inkscape-font-specification:monospace;text-align:center" y="497.069" x="338.765" font-family="monospace" text-anchor="middle">2015</tspan></text></g><g transform="translate(-180.297 -414.525)"><circle cx="392.213" cy="485.142" r="21.191" fill="#cb8c1d" stroke="#fff" stroke-width=".565" stroke-linejoin="round"/><text style="line-height:125%;-inkscape-font-specification:STIXIntegralsUpD" x="392.152" y="481.798" font-weight="400" font-size="12.5" font-family="STIXIntegralsUpD" letter-spacing="0" word-spacing="0"><tspan x="392.152" y="481.798" style="-inkscape-font-specification:monospace;text-align:center" font-family="monospace" text-anchor="middle">7</tspan><tspan x="392.152" y="497.423" style="-inkscape-font-specification:monospace;text-align:center" font-family="monospace" text-anchor="middle">2014</tspan></text></g><g transform="translate(-139.799 -365.381)"><circle r="21.191" cy="485.142" cx="392.213" fill="#fff" stroke="#fff" stroke-width=".565" stroke-linejoin="round"/><text y="481.798" x="392.152" style="line-height:125%;-inkscape-font-specification:STIXIntegralsUpD" font-weight="400" font-size="12.5" font-family="STIXIntegralsUpD" letter-spacing="0" word-spacing="0"><tspan style="-inkscape-font-specification:monospace;text-align:center" y="481.798" x="392.152" font-family="monospace" text-anchor="middle">8</tspan><tspan style="-inkscape-font-specification:monospace;text-align:center" y="497.423" x="392.152" font-family="monospace" text-anchor="middle">-1</tspan></text></g><path d="M321.19 447.913l38.365 25.167" fill="none" stroke="#fff" stroke-width=".971" marker-end="url(#a)" transform="translate(-166.502 -414.879)"/><path d="M285.456 447.898l-38.366 25.166" fill="none" stroke="#fff" stroke-width=".971" marker-end="url(#b)" transform="translate(-166.502 -414.879)"/><path d="M364.964 501.832l-12.904 15.317" fill="none" stroke="#fff" stroke-width=".942" marker-end="url(#c)" transform="translate(-166.502 -414.879)"/><path d="M391.447 501.832l12.904 15.317" fill="none" stroke="#fff" stroke-width=".942" marker-end="url(#d)" transform="translate(-166.502 -414.879)"/><path d="M214.964 501.832l-12.904 15.317" fill="none" stroke="#fff" stroke-width=".942" marker-end="url(#e)" transform="translate(-166.502 -414.879)"/></svg>