<svg xmlns="http://www.w3.org/2000/svg" xmlns:xlink="http://www.w3.org/1999/xlink" width="766.4" height="533.119" viewBox="0 0 574.8 399.839"><path d="M354.84 284.578c0-63.391 49.128-114.778 109.738-114.778 60.613 0 109.742 51.387 109.742 114.778 0 63.39-49.13 114.78-109.742 114.78-60.61 0-109.739-51.39-109.739-114.78zm0 0" fill="#0063ff" fill-opacity=".051" fill-rule="evenodd" stroke="#000" stroke-width=".96" stroke-miterlimit="10" stroke-dasharray="3.84,2.88"/><use xlink:href="#a" x="208.771" y="65.06" width="100%" height="100%" transform="translate(-129.48 -100.801)"/><use xlink:href="#a" x="324.615" y="65.06" width="100%" height="100%" transform="translate(-129.48 -100.801)"/><use xlink:href="#a" x="497.163" y="65.06" width="100%" height="100%" transform="translate(-129.48 -100.801)"/><path d="M341.52 115.32C341.52 51.898 390.627.48 451.198.48c60.57 0 109.68 51.418 109.68 114.84 0 63.418-49.11 114.84-109.68 114.84-60.57 0-109.68-51.422-109.68-114.84zm0 0" fill="#0063ff" fill-opacity=".051" fill-rule="evenodd" stroke="#000" stroke-width=".96" stroke-miterlimit="10" stroke-dasharray="3.84,2.88"/><path d="M288.597 201.66c0-63.39 49.113-114.782 109.684-114.782 60.566 0 109.68 51.391 109.68 114.782 0 63.39-49.114 114.777-109.68 114.777-60.57 0-109.684-51.387-109.684-114.777zm0 0M.48 205.02c0-63.392 49.11-114.782 109.68-114.782 60.57 0 109.68 51.39 109.68 114.781 0 63.39-49.11 114.781-109.68 114.781C49.59 319.8.48 268.41.48 205.02zm0 0" fill="#0063ff" fill-opacity=".051" fill-rule="evenodd" stroke="#000" stroke-width=".96" stroke-miterlimit="10" stroke-dasharray="3.84,2.88"/><path d="M103.14 204.539l50.899-86.282h98.242l50.898 86.282-50.898 86.28h-98.242zm0 0M303.18 204.539h98.25M401.418 204.46l49.132 85.09M401.46 203.918l50.887-86.258" fill="none" stroke="#000" stroke-width="3" stroke-miterlimit="10"/><path d="M197.097 124.378h12.121v-12.12h-12.12zm0 0" fill="#0f7a0c" fill-rule="evenodd" stroke="#000" stroke-width="3" stroke-miterlimit="10"/><path d="M394.5 208.98l10.917-18.84 10.922 18.84zm0 0" fill="#d73800" fill-rule="evenodd" stroke="#000" stroke-width="3" stroke-miterlimit="10"/><path d="M197.097 296.82h12.121v-12.121h-12.12zm0 0M123.058 166.257h12.121V154.14h-12.12zm0 0M270.78 252.777h12.118V240.66h-12.117zm0 0" fill="#0f7a0c" fill-rule="evenodd" stroke="#000" stroke-width="3" stroke-miterlimit="10"/><path d="M122.94 253.738h12.118V241.62h-12.117zm0 0" fill="#0075d4" fill-rule="evenodd" stroke="#000" stroke-width="3" stroke-miterlimit="10"/><path d="M348.898 209.937h12.121v-12h-12.121zm0 0" fill="#0f7a0c" fill-rule="evenodd" stroke="#000" stroke-width="3" stroke-miterlimit="10"/><path d="M421.378 165.3H433.5v-12h-12.122zm0 0" fill="#0075d4" fill-rule="evenodd" stroke="#000" stroke-width="3" stroke-miterlimit="10"/><path d="M419.94 251.937h12.118v-12h-12.117zm0 0M271.5 166.62h12.12V154.5H271.5zm0 0" fill="#0f7a0c" fill-rule="evenodd" stroke="#000" stroke-width="3" stroke-miterlimit="10"/><path d="M142.02 124.02l10.92-18.72 10.919 18.72zm0 0M240.18 125.097l10.917-18.719 10.922 18.72zm0 0M96.417 209.218l10.922-18.84 10.918 18.84zm0 0M144.898 294.66l10.922-18.84 10.918 18.84zm0 0M240.18 295.62l10.917-18.843 10.922 18.844zm0 0M292.14 208.98l10.918-18.84 10.922 18.84zm0 0M439.738 294.058l10.922-18.84 10.918 18.84zm0 0M442.859 123.3l10.922-18.84 10.918 18.84zm0 0" fill="#d73800" fill-rule="evenodd" stroke="#000" stroke-width="3" stroke-miterlimit="10"/><path d="M196.32 204.238c0-63.418 49.11-114.84 109.68-114.84 60.57 0 109.68 51.422 109.68 114.84 0 63.422-49.11 114.84-109.68 114.84-60.57 0-109.68-51.418-109.68-114.84zm0 0" fill="#0063ff" fill-opacity=".051" fill-rule="evenodd" stroke="#000" stroke-width=".96" stroke-miterlimit="10" stroke-dasharray="3.84,2.88"/><path d="M137.878 126.058c0-63.39 49.11-114.781 109.68-114.781 60.57 0 109.68 51.39 109.68 114.781 0 63.39-49.11 114.781-109.68 114.781-60.57 0-109.68-51.39-109.68-114.78zm0 0" fill="#0063ff" fill-opacity=".051" fill-rule="evenodd" stroke="#000" stroke-width=".96" stroke-miterlimit="10" stroke-dasharray="3.84,2.88"/><path d="M139.68 280.918c0-63.418 49.109-114.84 109.679-114.84s109.68 51.422 109.68 114.84c0 63.425-49.11 114.84-109.68 114.84-60.57 0-109.68-51.415-109.68-114.84zm0 0" fill="#0063ff" fill-opacity=".051" fill-rule="evenodd" stroke="#000" stroke-width=".96" stroke-miterlimit="10" stroke-dasharray="3.84,2.88"/></svg>