<svg xmlns="http://www.w3.org/2000/svg" viewBox="0 0 514.86615 240.47879" stroke-miterlimit="10" width="514.866" height="240.479" fill="none" stroke-linecap="square"><clipPath id="a"><path d="M0 0h960v540H0V0z"/></clipPath><g clip-path="url(#a)" transform="translate(-169.051 -277.655)"><path d="M463.932 346.428l118.645-52.819 14.71 33.008-118.647 52.82z" fill="none"/><path d="M487.402 362.645l-4.624-10.376 3.526-1.57q1.242-.553 2.354-.552 1.106-.013 2.038.427.94.42 1.674 1.222.733.802 1.204 1.858.528 1.185.603 2.314.084 1.109-.267 2.086-.344.957-1.092 1.735-.748.778-1.89 1.286l-3.526 1.57zm5.144-8.533q-.413-.928-1.02-1.599-.607-.67-1.375-1.012-.754-.349-1.636-.332-.868.01-1.81.43l-2.498 1.111 3.822 8.578 2.498-1.112q.97-.432 1.552-1.085.59-.673.835-1.466.246-.793.138-1.686-.093-.9-.506-1.827zm7.084 3.26q-.543.242-1.076.274-.54.017-1.036-.138-.489-.175-.865-.521-.383-.36-.606-.86-.216-.485-.178-1.014.052-.537.332-1.02.288-.505.804-.923.509-.432 1.208-.743.585-.26 1.23-.428.643-.167 1.197-.19l-.305-.686q-.452-1.013-1.283-1.344-.832-.331-1.846.12-.585.26-1.097.762t-.943 1.224l-.635-.504q1.025-1.654 2.41-2.27 1.441-.642 2.617-.19 1.17.436 1.8 1.85l1.533 3.439q.184.414.555.249l.388.87q-.223.151-.366.215-.371.165-.668.075-.303-.105-.464-.427l-.296-.586q-.222.92-.856 1.647-.64.712-1.554 1.119zm-.109-.858q.785-.35 1.3-.921.523-.592.635-1.223.086-.192.08-.36 0-.19-.063-.332l-.553-1.242q-.582.037-1.17.179-.572.135-1.129.383-1.042.464-1.516 1.205-.465.72-.147 1.434.159.357.441.607.277.236.621.357.344.12.73.102.4-.024.77-.19zm9.587-3.977l-.2.242q-.139.148-.335.321-.183.167-.443.35-.245.179-.545.312-.329.146-.666.194-.324.042-.62-.049-.298-.09-.561-.297-.256-.229-.415-.586l-2.43-5.452-1.041.464-.357-.799 1.042-.464-1.144-2.569.999-.445 1.145 2.57 1.755-.782.357.8-1.756.78 2.302 5.167q.22.416.58.495.36.079.703-.074.428-.19.678-.473.265-.289.325-.384l.627.678zm3.385-.891q-.543.241-1.076.273-.54.018-1.036-.137-.489-.176-.865-.521-.383-.36-.606-.86-.216-.485-.178-1.015.052-.536.332-1.02.288-.505.804-.922.509-.432 1.208-.743.585-.26 1.23-.428.643-.167 1.197-.191l-.305-.685q-.452-1.013-1.284-1.344-.831-.331-1.845.12-.585.26-1.097.762t-.943 1.224l-.635-.504q1.025-1.654 2.41-2.27 1.441-.642 2.617-.19 1.17.436 1.8 1.85l1.533 3.439q.184.414.555.248l.388.87q-.223.152-.366.215-.371.166-.668.075-.303-.104-.464-.426l-.296-.587q-.222.92-.856 1.647-.64.713-1.554 1.12zm-.109-.858q.785-.35 1.3-.921.523-.592.635-1.224.086-.192.08-.36 0-.189-.063-.331l-.553-1.242q-.582.037-1.17.178-.572.136-1.129.383-1.042.464-1.516 1.205-.465.72-.147 1.435.159.356.441.607.277.236.621.356t.73.103q.4-.024.77-.19zm10.621-12.066q-1 .48-1.508 1.338-.507.859-.414 1.912l2.112 4.738-.985.439-3.396-7.622.928-.413.814 1.827q.04-1.061.531-1.878.491-.818 1.32-1.186.113-.05.191-.069l.407.914zm7.682 4.824q-.828.368-1.667.366-.825-.01-1.58-.323-.763-.328-1.366-.914-.604-.587-.966-1.4-.363-.814-.389-1.64-.032-.84.232-1.591.272-.771.832-1.397.56-.625 1.373-.987.842-.375 1.667-.366.84.003 1.567.329.74.32 1.324.898.597.572.953 1.372l.102.228q.05.114.055.163l-6.509 2.898q.317.595.794 1.015.472.406 1.015.626.55.2 1.131.197.581-.002 1.138-.25.371-.165.683-.424.327-.265.55-.57.232-.325.36-.69.142-.371.137-.728l.973-.16q.005.512-.17 1-.162.483-.476.93-.3.441-.756.799-.45.371-1.007.619zm.872-5.605q-.316-.595-.781-.986-.472-.406-1.002-.598-.536-.205-1.125-.183-.574.016-1.131.264t-.967.67q-.397.416-.617.959-.212.522-.211 1.137.015.61.239 1.228l5.595-2.491zm7.366 1.938q-.785.35-1.574.307-.774-.049-1.473-.388-.69-.36-1.259-.944-.56-.606-.904-1.377-.356-.799-.403-1.633-.032-.84.211-1.6.244-.758.775-1.37.525-.627 1.281-.964.443-.197.914-.253.471-.056.923 0 .46.034.894.2.433.167.82.422l-.667-1.499.885-.394 4.19 9.405q.185.414.563.263l.381.857q-.144.098-.287.162l-.257.114q-.355.124-.712-.025-.343-.155-.496-.498l-1.691-3.796q-.175 1.104-.706 1.87-.538.753-1.408 1.14zm-.088-1.004q.442-.197.764-.512.315-.328.542-.703.22-.389.33-.831.12-.464.146-.903l-1.05-2.355q-.235-.374-.65-.616-.402-.25-.88-.362-.484-.126-.982-.092-.484.027-.898.211-.614.273-1.007.773-.4.486-.594 1.086-.18.593-.132 1.239.048.645.309 1.23.273.614.721 1.082.448.467.99.722.555.25 1.169.284.622.014 1.222-.253zm8.55-2.764q-1.242.553-2.218.013-.969-.56-1.7-2.202l-1.997-4.482.985-.438 1.92 4.31q1.152 2.583 2.922 1.795.442-.197.792-.524.359-.347.595-.777.244-.45.35-.943.113-.512.083-1.08l-2.137-4.795.985-.439 2.823 6.337q.185.414.542.255l.388.87q-.159.105-.273.156l-.157.07q-.35.138-.68.012-.321-.148-.493-.533l-.394-.885q-.1 1.122-.74 1.988-.64.867-1.596 1.293zm9.582-4.265q-.828.368-1.668.366-.825-.01-1.58-.323-.762-.328-1.366-.914-.603-.587-.966-1.4-.362-.814-.388-1.64-.033-.84.231-1.591.273-.771.832-1.397.56-.625 1.373-.987.842-.375 1.668-.366.839.003 1.566.329.741.32 1.324.898.597.572.953 1.372l.102.228q.051.114.056.163l-6.51 2.898q.317.595.795 1.015.472.405 1.014.626.551.2 1.132.197.58-.002 1.137-.25.371-.165.684-.424.326-.265.55-.57.231-.325.36-.69.142-.371.137-.728l.972-.16q.005.512-.17 1-.162.483-.475.93-.3.441-.756.799-.45.371-1.008.619zm.872-5.605q-.316-.595-.782-.986-.471-.406-1.001-.598-.537-.205-1.126-.183-.574.016-1.13.264-.557.248-.968.67-.396.416-.616.959-.212.522-.212 1.137.015.61.24 1.228l5.595-2.491zm6.951 2.122q-.9.4-1.868.49-.976.075-1.838-.208l.143-.868q.878.242 1.67.214.785-.041 1.542-.378.913-.407 1.29-1.02.392-.618.087-1.303-.147-.329-.385-.48-.238-.15-.593-.18-.356-.03-.856.039-.485.062-1.113.188-.727.135-1.282.194-.548.039-.95-.021-.404-.06-.694-.29-.29-.23-.494-.687-.255-.57-.217-1.1.031-.544.29-1.001.257-.457.708-.829.458-.392 1.043-.653.87-.387 1.712-.42.855-.038 1.493.242l-.21.795q-.626-.252-1.335-.193-.695.053-1.351.345-.4.178-.704.417-.297.217-.478.503-.18.285-.202.62-.022.335.143.706.134.3.323.455.182.141.474.182.3.02.708-.024.408-.045.973-.16.804-.152 1.443-.215.633-.076 1.113.001.472.063.81.323.347.24.557.71.47 1.057-.07 2.033-.526.97-1.882 1.573zm8.017-4.185l-.2.243q-.139.148-.335.32-.183.167-.443.351-.246.178-.545.312-.329.146-.667.194-.323.041-.62-.05-.297-.09-.56-.297-.256-.228-.415-.585l-2.43-5.452-1.042.464-.356-.8 1.042-.463-1.144-2.57.999-.444 1.145 2.569 1.755-.782.356.8-1.755.781 2.302 5.167q.22.415.58.494.36.08.702-.073.429-.19.68-.473.264-.29.324-.384l.627.678zm3.998-1.164q-.899.4-1.868.49-.976.075-1.838-.208l.144-.868q.877.242 1.67.214.784-.041 1.541-.378.914-.407 1.29-1.02.392-.618.087-1.303-.146-.329-.385-.48-.238-.15-.593-.18-.356-.03-.855.039-.486.062-1.114.188-.727.135-1.282.194-.547.039-.95-.021-.403-.06-.694-.29-.29-.23-.494-.687-.255-.57-.217-1.1.031-.544.29-1.001.258-.457.708-.829.458-.392 1.043-.653.871-.387 1.712-.42.855-.038 1.493.242l-.21.795q-.625-.252-1.335-.193-.694.053-1.351.346-.4.177-.704.416-.297.217-.477.503-.18.285-.203.62-.022.335.144.706.133.3.322.455.183.141.475.182.3.02.707-.024.408-.045.973-.16.804-.152 1.444-.215.633-.076 1.112.001.473.063.81.323.347.24.557.71.47 1.057-.07 2.033-.525.97-1.882 1.573z" fill="#fff"/><path d="M587.449 449.608a7.375 7.375 0 0 1 7.375-7.375h81.218a7.375 7.375 0 0 1 7.375 7.375v29.501a7.375 7.375 0 0 1-7.375 7.376h-81.218a7.375 7.375 0 0 1-7.375-7.376z" fill="#400d9a" fill-rule="evenodd"/><path d="M587.449 449.608a7.375 7.375 0 0 1 7.375-7.375h81.218a7.375 7.375 0 0 1 7.375 7.375v29.501a7.375 7.375 0 0 1-7.375 7.376h-81.218a7.375 7.375 0 0 1-7.375-7.376z" stroke="#595959" stroke-linecap="butt" stroke-linejoin="round"/><path d="M605.72 458.202h1.016l5.11 12.297h-1.282l-1.593-3.844h-5.532l-1.578 3.844h-1.297l5.157-12.297zm2.97 7.5l-2.47-6.078-2.515 6.078h4.984zm12.275 4.797h-1.171v-5.047q0-1.61-.485-2.328-.468-.734-1.468-.734-.516 0-1.047.187-.516.188-.953.547-.438.344-.782.828-.343.469-.5 1.016v5.53h-1.187v-9.03h1.078v2.047q.547-.985 1.578-1.594 1.031-.61 2.25-.61.75 0 1.266.282.515.28.828.78.312.5.453 1.235.14.72.14 1.61v5.28zm4.775.172q-.641 0-1.188-.219-.531-.219-.953-.594-.406-.375-.625-.89-.219-.516-.219-1.11 0-.578.266-1.078.281-.515.781-.875t1.188-.562q.703-.203 1.53-.203.704 0 1.407.125.719.125 1.266.343v-.812q0-1.188-.672-1.89-.672-.704-1.875-.704-.688 0-1.422.281-.719.266-1.469.797l-.422-.781q1.75-1.188 3.407-1.188 1.687 0 2.656.954.984.953.984 2.64v4.063q0 .484.422.484v1.047q-.297.047-.453.047-.438 0-.703-.219-.25-.234-.266-.625l-.031-.703q-.625.812-1.578 1.25-.938.422-2.031.422zm.28-.906q.923 0 1.688-.344.782-.344 1.172-.922.156-.156.235-.328.078-.188.078-.344v-1.469q-.594-.218-1.235-.343-.625-.125-1.28-.125-1.25 0-2.032.53-.766.516-.766 1.36 0 .422.156.781.172.36.454.625.28.266.671.422.407.157.86.157zm6.96-11.922h1.172v10.61q0 .5.266.796.281.281.797.281.187 0 .437-.047.266-.062.485-.14l.218.953q-.328.14-.812.219-.469.093-.813.093-.828 0-1.297-.453-.453-.469-.453-1.297v-11.015zm5.167 15.422q.14.03.265.03.14.016.266.016.312 0 .484-.093.188-.078.36-.375.171-.297.39-.86.219-.547.61-1.484l-3.922-9.031h1.203l3.344 7.937 3.109-7.937h1.125l-4.688 11.64q-.187.516-.625.875-.437.375-1.203.375-.172 0-.328-.015-.156 0-.39-.032v-1.046zm8.11-3.563l6.11-7.344h-5.97v-.89h7.25v.797l-6.077 7.343h6.062v.89h-7.375v-.796zm13.197.969q-1 0-1.828-.375-.812-.375-1.422-1.016-.593-.656-.937-1.5-.344-.844-.344-1.828 0-.953.344-1.781.344-.844.937-1.469.594-.64 1.422-1.016.828-.375 1.813-.375.984 0 1.797.375.828.375 1.422 1.016.593.64.921 1.469.329.828.329 1.765v.282q0 .14-.016.187h-7.734q.046.735.328 1.36.297.609.75 1.062.453.438 1.03.688.579.25 1.235.25.438 0 .86-.11.437-.125.797-.328.375-.219.656-.516.297-.312.453-.671l1.031.28q-.203.5-.594.907-.375.406-.89.719-.5.297-1.11.453-.593.172-1.25.172zm3.329-5.156q-.063-.735-.344-1.329-.281-.593-.735-1.03-.437-.438-1.015-.673-.578-.25-1.235-.25-.656 0-1.25.25-.593.235-1.03.672-.438.438-.72 1.047-.265.594-.312 1.313h6.64zm7.452-3q-1.203.03-2.093.656-.875.625-1.235 1.719v5.609h-1.187v-9.031h1.11v2.172q.5-1.047 1.343-1.625.86-.594 1.828-.594.14 0 .234.015v1.079z" fill="#fff"/><path d="M587.449 367.57a7.375 7.375 0 0 1 7.375-7.376h81.218a7.375 7.375 0 0 1 7.375 7.375v29.502a7.375 7.375 0 0 1-7.375 7.375h-81.218a7.375 7.375 0 0 1-7.375-7.375z" fill="#400d9a" fill-rule="evenodd"/><path d="M587.449 367.57a7.375 7.375 0 0 1 7.375-7.376h81.218a7.375 7.375 0 0 1 7.375 7.375v29.502a7.375 7.375 0 0 1-7.375 7.375h-81.218a7.375 7.375 0 0 1-7.375-7.375z" stroke="#595959" stroke-linecap="butt" stroke-linejoin="round"/><path d="M605.72 376.163h1.016l5.11 12.297h-1.282l-1.593-3.844h-5.532l-1.578 3.844h-1.297l5.157-12.297zm2.97 7.5l-2.47-6.078-2.515 6.078h4.984zm12.275 4.797h-1.171v-5.047q0-1.61-.485-2.328-.468-.734-1.468-.734-.516 0-1.047.187-.516.188-.953.547-.438.344-.782.828-.343.469-.5 1.016v5.531h-1.187v-9.031h1.078v2.047q.547-.985 1.578-1.594 1.031-.61 2.25-.61.75 0 1.266.282.515.281.828.781.312.5.453 1.234.14.72.14 1.61v5.281zm4.775.172q-.641 0-1.188-.219-.531-.219-.953-.594-.406-.375-.625-.89-.219-.516-.219-1.11 0-.578.266-1.078.281-.515.781-.875t1.188-.562q.703-.203 1.53-.203.704 0 1.407.125.719.125 1.266.343v-.812q0-1.188-.672-1.89-.672-.704-1.875-.704-.688 0-1.422.281-.719.266-1.469.797l-.422-.781q1.75-1.188 3.407-1.188 1.687 0 2.656.954.984.953.984 2.64v4.063q0 .484.422.484v1.047q-.297.047-.453.047-.438 0-.703-.219-.25-.234-.266-.625l-.031-.703q-.625.813-1.578 1.25-.938.422-2.031.422zm.28-.906q.923 0 1.688-.344.782-.344 1.172-.922.156-.156.235-.328.078-.188.078-.344v-1.469q-.594-.218-1.235-.343-.625-.125-1.28-.125-1.25 0-2.032.53-.766.516-.766 1.36 0 .422.156.781.172.36.454.625.28.266.671.422.407.157.86.157zm6.96-11.922h1.172v10.61q0 .5.266.796.281.281.797.281.187 0 .437-.047.266-.062.485-.14l.218.953q-.328.14-.812.219-.469.093-.813.093-.828 0-1.297-.453-.453-.469-.453-1.297v-11.015zm5.167 15.422q.14.03.265.03.14.016.266.016.312 0 .484-.093.188-.078.36-.375.171-.297.39-.86.219-.547.61-1.484l-3.922-9.031h1.203l3.344 7.937 3.109-7.937h1.125l-4.688 11.64q-.187.516-.625.875-.437.375-1.203.375-.172 0-.328-.015-.156 0-.39-.031v-1.047zm8.11-3.563l6.11-7.344h-5.97v-.89h7.25v.797l-6.077 7.343h6.062v.891h-7.375v-.797zm13.197.969q-1 0-1.828-.375-.812-.375-1.422-1.016-.593-.656-.937-1.5-.344-.844-.344-1.828 0-.953.344-1.781.344-.844.937-1.469.594-.64 1.422-1.016.828-.375 1.813-.375.984 0 1.797.375.828.375 1.422 1.016.593.64.921 1.469.329.828.329 1.765v.282q0 .14-.016.187h-7.734q.046.735.328 1.36.297.609.75 1.062.453.438 1.03.688.579.25 1.235.25.438 0 .86-.11.437-.125.797-.328.375-.219.656-.516.297-.312.453-.671l1.031.28q-.203.5-.594.907-.375.406-.89.719-.5.297-1.11.453-.593.172-1.25.172zm3.329-5.156q-.063-.735-.344-1.329-.281-.593-.735-1.03-.437-.438-1.015-.673-.578-.25-1.235-.25-.656 0-1.25.25-.593.235-1.03.672-.438.438-.72 1.047-.265.594-.312 1.313h6.64zm7.452-3q-1.203.03-2.093.656-.875.625-1.235 1.719v5.609h-1.187v-9.031h1.11v2.172q.5-1.047 1.343-1.625.86-.594 1.828-.594.14 0 .234.015v1.079z" fill="#fff"/><path d="M587.449 285.53a7.375 7.375 0 0 1 7.375-7.375h81.218a7.375 7.375 0 0 1 7.375 7.376v29.5a7.375 7.375 0 0 1-7.375 7.376h-81.218a7.375 7.375 0 0 1-7.375-7.375z" fill="#400d9a" fill-rule="evenodd"/><path d="M587.449 285.53a7.375 7.375 0 0 1 7.375-7.375h81.218a7.375 7.375 0 0 1 7.375 7.376v29.5a7.375 7.375 0 0 1-7.375 7.376h-81.218a7.375 7.375 0 0 1-7.375-7.375z" stroke="#595959" stroke-linecap="butt" stroke-linejoin="round"/><path d="M605.72 294.124h1.016l5.11 12.297h-1.282l-1.593-3.844h-5.532l-1.578 3.844h-1.297l5.157-12.297zm2.97 7.5l-2.47-6.078-2.515 6.078h4.984zm12.275 4.797h-1.171v-5.047q0-1.61-.485-2.328-.468-.734-1.468-.734-.516 0-1.047.187-.516.188-.953.547-.438.344-.782.828-.343.469-.5 1.016v5.531h-1.187v-9.031h1.078v2.047q.547-.985 1.578-1.594 1.031-.61 2.25-.61.75 0 1.266.282.515.281.828.781.312.5.453 1.234.14.72.14 1.61v5.281zm4.775.172q-.641 0-1.188-.219-.531-.219-.953-.594-.406-.375-.625-.89-.219-.516-.219-1.11 0-.578.266-1.078.281-.515.781-.875t1.188-.562q.703-.203 1.53-.203.704 0 1.407.125.719.125 1.266.343v-.812q0-1.188-.672-1.89-.672-.704-1.875-.704-.688 0-1.422.281-.719.266-1.469.797l-.422-.78q1.75-1.188 3.407-1.188 1.687 0 2.656.953.984.953.984 2.64v4.063q0 .484.422.484v1.047q-.297.047-.453.047-.438 0-.703-.219-.25-.234-.266-.625l-.031-.703q-.625.813-1.578 1.25-.938.422-2.031.422zm.28-.906q.923 0 1.688-.344.782-.344 1.172-.922.156-.156.235-.328.078-.188.078-.344v-1.469q-.594-.218-1.235-.343-.625-.125-1.28-.125-1.25 0-2.032.53-.766.517-.766 1.36 0 .422.156.782.172.359.454.625.28.265.671.421.407.157.86.157zm6.96-11.922h1.172v10.61q0 .5.266.796.281.281.797.281.187 0 .437-.047.266-.062.485-.14l.218.953q-.328.14-.812.219-.469.093-.813.093-.828 0-1.297-.453-.453-.469-.453-1.297v-11.015zm5.167 15.422q.14.03.265.03.14.016.266.016.312 0 .484-.093.188-.078.36-.375.171-.297.39-.86.219-.546.61-1.484l-3.922-9.031h1.203l3.344 7.937 3.109-7.937h1.125l-4.688 11.64q-.187.516-.625.875-.437.375-1.203.375-.172 0-.328-.015-.156 0-.39-.031v-1.047zm8.11-3.563l6.11-7.344h-5.97v-.89h7.25v.797l-6.077 7.343h6.062v.891h-7.375v-.797zm13.197.969q-1 0-1.828-.375-.812-.375-1.422-1.016-.593-.656-.937-1.5-.344-.843-.344-1.828 0-.953.344-1.781.344-.844.937-1.469.594-.64 1.422-1.015.828-.375 1.813-.375.984 0 1.797.375.828.375 1.422 1.015.593.64.921 1.469.329.828.329 1.766v.28q0 .141-.016.188h-7.734q.046.735.328 1.36.297.61.75 1.062.453.438 1.03.688.579.25 1.235.25.438 0 .86-.11.437-.125.797-.328.375-.219.656-.515.297-.313.453-.672l1.031.28q-.203.5-.594.907-.375.406-.89.719-.5.297-1.11.453-.593.172-1.25.172zm3.329-5.156q-.063-.735-.344-1.328-.281-.594-.735-1.032-.437-.437-1.015-.672-.578-.25-1.235-.25-.656 0-1.25.25-.593.235-1.03.672-.438.438-.72 1.047-.265.594-.312 1.313h6.64zm7.452-3q-1.203.03-2.093.656-.875.625-1.235 1.719v5.61h-1.187v-9.032h1.11v2.172q.5-1.047 1.343-1.625.86-.594 1.828-.594.14 0 .234.016v1.078z" fill="#fff"/><path d="M380.797 367.503a7.375 7.375 0 0 1 7.375-7.375h81.218a7.375 7.375 0 0 1 7.375 7.375v29.501a7.376 7.376 0 0 1-7.375 7.376h-81.218a7.375 7.375 0 0 1-7.375-7.376z" fill="#400d9a" fill-rule="evenodd"/><path d="M380.797 367.503a7.375 7.375 0 0 1 7.375-7.375h81.218a7.375 7.375 0 0 1 7.375 7.375v29.501a7.376 7.376 0 0 1-7.375 7.376h-81.218a7.375 7.375 0 0 1-7.375-7.376z" stroke="#595959" stroke-linecap="butt" stroke-linejoin="round"/><path d="M397.17 377.894v-12.297h1.204v11.219h7.109v1.078h-8.312zm13.697.172q-.985 0-1.797-.375-.813-.375-1.422-1.016-.594-.64-.922-1.484-.328-.844-.328-1.782 0-.953.344-1.797.343-.859.937-1.5.594-.64 1.406-1.015.813-.39 1.782-.39.968 0 1.796.39.829.375 1.422 1.015.594.641.938 1.5.344.844.344 1.797 0 .938-.344 1.782-.328.843-.922 1.484-.594.64-1.422 1.016-.812.375-1.812.375zm-3.266-4.641q0 .766.25 1.422.266.64.703 1.14.453.485 1.047.766.594.281 1.266.281.687 0 1.28-.28.595-.298 1.048-.782.453-.5.703-1.156.265-.672.265-1.422 0-.75-.265-1.407-.25-.671-.703-1.171-.453-.5-1.047-.782-.594-.28-1.281-.28-.672 0-1.266.28-.578.282-1.031.797-.453.5-.72 1.172-.25.656-.25 1.422zm13.576 4.64q-.985 0-1.797-.374-.813-.375-1.422-1.016-.594-.64-.922-1.484-.328-.844-.328-1.782 0-.953.344-1.797.343-.859.937-1.5.594-.64 1.406-1.015.813-.39 1.782-.39.968 0 1.797.39.828.375 1.421 1.015.594.641.938 1.5.344.844.344 1.797 0 .938-.344 1.782-.328.843-.922 1.484-.594.64-1.422 1.016-.812.375-1.812.375zm-3.266-4.64q0 .766.25 1.422.266.64.703 1.14.453.485 1.047.766.594.281 1.266.281.687 0 1.28-.28.595-.298 1.048-.782.453-.5.703-1.156.266-.672.266-1.422 0-.75-.266-1.407-.25-.671-.703-1.171-.453-.5-1.047-.782-.594-.28-1.281-.28-.672 0-1.266.28-.578.282-1.031.797-.453.5-.719 1.172-.25.656-.25 1.422zm16.185 4.469l-3.328-4.625-1.937 1.797v2.828h-1.188v-12.657h1.188v8.594l5.078-4.953h1.328l-3.688 3.703 3.829 5.313h-1.282zm6.575.172q-.985 0-1.797-.375-.813-.375-1.422-1.016-.594-.64-.922-1.484-.328-.844-.328-1.782 0-.953.344-1.797.343-.859.937-1.5.594-.64 1.406-1.015.813-.39 1.782-.39.968 0 1.797.39.828.375 1.421 1.015.594.641.938 1.5.344.844.344 1.797 0 .938-.344 1.782-.328.843-.922 1.484-.594.64-1.422 1.016-.812.375-1.812.375zm-3.266-4.641q0 .766.25 1.422.266.64.703 1.14.453.485 1.047.766.594.281 1.266.281.687 0 1.281-.28.594-.298 1.047-.782.453-.5.703-1.156.266-.672.266-1.422 0-.75-.266-1.407-.25-.671-.703-1.171-.453-.5-1.047-.782-.594-.28-1.281-.28-.672 0-1.266.28-.578.282-1.031.797-.453.5-.719 1.172-.25.656-.25 1.422zm12.56 4.64q-1.468 0-2.187-.968-.719-.985-.719-2.922v-5.313h1.172v5.094q0 3.078 2.094 3.078.515 0 1.015-.172.516-.187.938-.515.422-.328.75-.766.344-.453.562-1.031v-5.688h1.172v7.5q0 .485.422.485v1.047q-.219.03-.344.03h-.187q-.406-.015-.672-.28-.25-.282-.25-.75v-1.047q-.594 1.062-1.61 1.64-1.015.579-2.156.579zm11.793-.609q-.094.063-.297.156-.203.079-.468.172-.25.078-.579.14-.328.079-.687.079-.39 0-.734-.11-.344-.109-.61-.312-.25-.219-.406-.547-.156-.343-.156-.765v-6.47h-1.25v-.937h1.25v-3.046h1.172v3.046h2.078v.938h-2.078v6.14q.03.5.343.735.328.234.75.234.5 0 .875-.156.39-.172.485-.25l.312.953zM407.987 399.066q-1.063 0-2.063-.344-1-.344-1.734-1l.547-.797q.75.61 1.531.922.797.312 1.703.312 1.094 0 1.734-.437.657-.438.657-1.25 0-.39-.172-.64t-.516-.438q-.328-.188-.844-.328-.515-.157-1.187-.313-.781-.187-1.36-.375-.562-.203-.937-.437-.375-.25-.562-.594-.172-.36-.172-.906 0-.672.265-1.188.266-.516.72-.86.468-.343 1.077-.515.625-.172 1.313-.172 1.047 0 1.89.344.844.328 1.375.89l-.578.688q-.5-.516-1.219-.766-.718-.265-1.5-.265-.468 0-.875.093-.39.094-.703.313-.297.203-.468.531-.172.313-.172.735 0 .375.11.593.124.22.405.391.282.172.703.297.422.125 1.032.265.86.204 1.515.422.672.203 1.11.485.437.265.656.672.234.39.234.968 0 1.25-.953 1.985-.953.719-2.562.719zm9.345 0q-1 0-1.828-.375-.813-.375-1.422-1.016-.594-.656-.938-1.5t-.344-1.828q0-.953.344-1.781.344-.844.938-1.47.593-.64 1.422-1.015.828-.375 1.812-.375.984 0 1.797.375.828.375 1.422 1.016.594.64.922 1.469.328.828.328 1.765v.281q0 .141-.016.188h-7.734q.047.734.328 1.36.297.609.75 1.062.453.437 1.031.687.578.25 1.235.25.437 0 .859-.11.438-.124.797-.327.375-.219.656-.516.297-.312.453-.672l1.031.282q-.203.5-.593.906-.375.406-.89.719-.5.296-1.11.453-.594.172-1.25.172zm3.328-5.157q-.063-.734-.344-1.328-.281-.594-.734-1.031-.438-.438-1.016-.672-.578-.25-1.234-.25-.657 0-1.25.25-.594.234-1.032.672-.437.437-.718 1.047-.266.594-.313 1.312h6.64zm7.453-3q-1.203.031-2.094.657-.875.625-1.234 1.718v5.61h-1.188v-9.032h1.11v2.172q.5-1.047 1.343-1.625.86-.593 1.828-.593.14 0 .235.015v1.078zm4.27 7.985l-3.673-9.032h1.22l3.093 7.938 3.125-7.938h1.14l-3.671 9.032h-1.235zm10.438.172q-1 0-1.828-.375-.812-.375-1.422-1.016-.594-.656-.937-1.5-.344-.844-.344-1.828 0-.953.344-1.781.343-.844.937-1.47.594-.64 1.422-1.015.828-.375 1.813-.375.984 0 1.796.375.829.375 1.422 1.016.594.64.922 1.469.328.828.328 1.765v.281q0 .141-.015.188h-7.735q.047.734.329 1.36.296.609.75 1.062.453.437 1.03.687.579.25 1.235.25.438 0 .86-.11.437-.124.796-.327.375-.219.657-.516.297-.312.453-.672l1.031.282q-.203.5-.594.906-.375.406-.89.719-.5.296-1.11.453-.593.172-1.25.172zm3.328-5.157q-.062-.734-.343-1.328-.282-.594-.735-1.031-.437-.438-1.015-.672-.579-.25-1.235-.25-.656 0-1.25.25-.594.234-1.031.672-.438.437-.719 1.047-.265.594-.312 1.312h6.64zm7.453-3q-1.203.031-2.094.657-.875.625-1.234 1.718v5.61h-1.187v-9.032h1.109v2.172q.5-1.047 1.344-1.625.86-.593 1.828-.593.14 0 .234.015v1.078z" fill="#fff"/><path d="M169.551 367.489a7.375 7.375 0 0 1 7.376-7.376h81.217a7.375 7.375 0 0 1 7.376 7.376v29.5a7.375 7.375 0 0 1-7.376 7.376h-81.217a7.375 7.375 0 0 1-7.376-7.375z" fill="#400d9a" fill-rule="evenodd"/><path d="M169.551 367.489a7.375 7.375 0 0 1 7.376-7.376h81.217a7.375 7.375 0 0 1 7.376 7.376v29.5a7.375 7.375 0 0 1-7.376 7.376h-81.217a7.375 7.375 0 0 1-7.376-7.375z" stroke="#595959" stroke-linecap="butt" stroke-linejoin="round"/><path d="M200.092 386.582q-1.719 1.891-3.953 1.891-1.25 0-2.297-.531-1.047-.547-1.828-1.422-.766-.89-1.203-2-.422-1.125-.422-2.313 0-1.234.422-2.359t1.187-1.969q.766-.86 1.797-1.375 1.047-.515 2.266-.515.906 0 1.64.203.75.203 1.329.562.593.344 1.015.844.422.484.719 1.078l-.937.625q-.61-1.14-1.579-1.672-.968-.547-2.203-.547-1.015 0-1.843.438-.829.422-1.407 1.14-.578.72-.89 1.657-.313.922-.313 1.906 0 1.047.36 1.984.359.938.984 1.641.625.688 1.453 1.11.844.421 1.828.421 1.063 0 2.016-.5.969-.5 1.86-1.562v-2.047h-2.75v-.938h3.765v6.047h-1.016v-1.797zm3.266 1.797v-9.031h1.188v9.031h-1.188zm0-10.922v-1.734h1.188v1.734h-1.188zm8.106 10.485q-.094.062-.297.156-.203.078-.469.172-.25.078-.578.14-.328.079-.687.079-.39 0-.735-.11-.343-.11-.609-.312-.25-.219-.406-.547-.156-.344-.156-.766v-6.469h-1.25v-.937h1.25v-3.047h1.171v3.047h2.079v.937h-2.079v6.141q.032.5.344.734.328.235.75.235.5 0 .875-.156.39-.172.485-.25l.312.953zm11.43-11.86v12.297h-1.203v-5.75h-7.297v5.75h-1.203v-12.297h1.203v5.47h7.297v-5.47h1.203zm5.663 12.47q-1.469 0-2.188-.97-.718-.984-.718-2.921v-5.313h1.172v5.094q0 3.078 2.093 3.078.516 0 1.016-.172.516-.187.937-.516.422-.328.75-.765.344-.453.563-1.031v-5.688h1.172v7.5q0 .484.422.484v1.047q-.219.031-.344.031h-.188q-.406-.015-.671-.28-.25-.282-.25-.75v-1.048q-.594 1.063-1.61 1.641-1.015.578-2.156.578zm11.887 0q-1.079 0-1.97-.532-.89-.547-1.39-1.39v1.75h-1.062v-12.657h1.187v5.516q.594-.922 1.438-1.485.86-.562 1.984-.562.953 0 1.703.406.766.39 1.281 1.063.532.671.813 1.515.297.828.297 1.719 0 .953-.328 1.797t-.907 1.484q-.562.625-1.359 1-.781.375-1.687.375zm-.282-1.032q.75 0 1.36-.297.625-.312 1.062-.828.438-.516.688-1.156.25-.657.25-1.344 0-.719-.235-1.375-.234-.656-.656-1.156-.422-.516-1.016-.813-.593-.312-1.312-.312-.531 0-1 .187-.469.172-.875.485-.39.312-.703.718-.313.407-.516.86v2.812q.063.469.36.875.312.406.734.703.422.282.906.469.5.172.953.172z" fill="#fff"/><path d="M556.595 303.965l-62.393 28.252" fill="none"/><path d="M556.595 303.965l-56.928 25.777" stroke="#fff" stroke-linecap="butt" stroke-linejoin="round"/><path d="M498.986 328.237l-3.453 3.377 4.816-.368z" fill="#fff" fill-rule="evenodd" stroke="#fff" stroke-linecap="butt"/><path d="M555.367 470.486l-59.937-28.252" fill="none"/><path d="M555.367 470.486l-54.51-25.693" stroke="#fff" stroke-linecap="butt" stroke-linejoin="round"/><path d="M501.562 443.299l-4.81-.441 3.401 3.429z" fill="#fff" fill-rule="evenodd" stroke="#fff" stroke-linecap="butt"/><path d="M562.183 390.695h-60.158" fill="none"/><path d="M562.183 390.695h-54.158" stroke="#fff" stroke-linecap="butt" stroke-linejoin="round"/><path d="M508.025 389.043l-4.538 1.652 4.538 1.652z" fill="#fff" fill-rule="evenodd" stroke="#fff" stroke-linecap="butt"/><path d="M470.995 390.696h125.984v36.157H470.995z" fill="none"/><path d="M483.889 415.056v-11.36h3.859q1.36 0 2.375.453 1.016.438 1.688 1.219.687.766 1.03 1.797.345 1.031.345 2.187 0 1.297-.391 2.36-.375 1.047-1.094 1.797-.703.734-1.703 1.14-1 .407-2.25.407h-3.86zm8.172-5.704q0-1.015-.282-1.875-.281-.859-.843-1.484-.547-.625-1.36-.969-.797-.343-1.828-.343h-2.734v9.39h2.734q1.063 0 1.86-.36.812-.374 1.359-1 .547-.624.812-1.484.282-.859.282-1.875zm5.143 5.86q-.594 0-1.094-.188-.5-.203-.89-.547-.376-.359-.579-.828-.203-.484-.203-1.031 0-.531.25-1 .266-.469.719-.797.469-.344 1.11-.515.64-.188 1.405-.188.641 0 1.297.11.657.109 1.172.312v-.75q0-1.11-.625-1.75-.625-.64-1.734-.64-.64 0-1.313.25-.672.25-1.36.734l-.374-.72q1.61-1.093 3.125-1.093 1.578 0 2.469.89.89.876.89 2.423v3.765q0 .453.407.453v.954q-.266.046-.422.046-.407 0-.641-.203-.234-.218-.25-.578l-.031-.656q-.578.75-1.453 1.156-.875.39-1.875.39zm.25-.828q.859 0 1.562-.313.719-.328 1.078-.86.157-.14.219-.296.078-.172.078-.328v-1.36q-.547-.203-1.14-.312-.579-.11-1.188-.11-1.14 0-1.875.485-.719.469-.719 1.25 0 .39.156.734.157.328.422.578.266.25.625.391.375.14.782.14zm10.376.265l-.281.14q-.188.079-.438.157-.234.078-.547.14-.297.063-.625.063-.36 0-.687-.093-.313-.094-.547-.297-.234-.203-.39-.5-.141-.313-.141-.703v-5.97h-1.14v-.874h1.14v-2.813h1.093v2.813h1.922v.875h-1.922v5.656q.032.469.329.688.296.218.671.218.47 0 .813-.156.36-.156.453-.219l.297.875zm3.454.563q-.594 0-1.094-.188-.5-.203-.89-.547-.376-.359-.579-.828-.203-.484-.203-1.031 0-.531.25-1 .266-.469.719-.797.469-.344 1.11-.515.64-.188 1.405-.188.641 0 1.297.11.657.109 1.172.312v-.75q0-1.11-.625-1.75-.625-.64-1.734-.64-.64 0-1.313.25-.672.25-1.36.734l-.374-.72q1.61-1.093 3.125-1.093 1.578 0 2.469.89.89.876.89 2.423v3.765q0 .453.407.453v.954q-.266.046-.422.046-.407 0-.64-.203-.235-.218-.25-.578l-.032-.656q-.578.75-1.453 1.156-.875.39-1.875.39zm.25-.828q.86 0 1.562-.313.719-.328 1.078-.86.157-.14.22-.296.077-.172.077-.328v-1.36q-.547-.203-1.14-.312-.579-.11-1.188-.11-1.14 0-1.875.485-.719.469-.719 1.25 0 .39.157.734.156.328.421.578.266.25.625.391.375.14.782.14zm14.612-6.703q-1.11.03-1.922.609-.812.578-1.156 1.578v5.188h-1.078v-8.344h1.016v2q.468-.953 1.25-1.5.78-.547 1.687-.547.125 0 .203.016v1zm5.054 7.53q-.907 0-1.672-.343-.75-.344-1.313-.937-.562-.61-.875-1.391-.312-.781-.312-1.672 0-.89.312-1.656.313-.781.86-1.36.562-.593 1.328-.937.765-.344 1.656-.344.922 0 1.672.344.766.344 1.297.937.547.594.844 1.36.312.765.312 1.64v.25q0 .125-.016.172h-7.125q.047.672.313 1.25.266.563.672.985.422.406.953.64.531.235 1.14.235.407 0 .797-.11.407-.11.735-.297.344-.203.61-.484.28-.281.421-.61l.953.25q-.203.47-.562.844-.344.375-.813.657-.453.28-1.015.422-.563.156-1.172.156zm3.078-4.765q-.047-.672-.313-1.219-.265-.562-.672-.953-.406-.406-.953-.625-.53-.218-1.14-.218-.61 0-1.157.218-.53.219-.953.625-.406.39-.656.953-.234.563-.281 1.22h6.125zm5.939 4.766q-.86 0-1.563-.36-.687-.359-1.187-.953-.485-.61-.766-1.375-.266-.781-.266-1.625 0-.875.297-1.656.313-.781.844-1.375.531-.594 1.266-.937.734-.36 1.562-.36.485 0 .938.14.453.141.843.376.407.219.735.547.328.328.578.718v-1.64h.969v10.297q0 .453.406.468v.938q-.172.031-.328.031h-.281q-.375-.031-.641-.312-.25-.282-.25-.657v-4.156q-.61.938-1.406 1.422-.797.469-1.75.469zm.328-.953q.484 0 .906-.157.422-.171.781-.421.36-.266.641-.625.297-.375.5-.766v-2.578q-.063-.438-.344-.828-.265-.391-.656-.688-.39-.312-.86-.484-.453-.172-.906-.172-.672 0-1.234.297-.563.281-.984.75-.407.469-.625 1.078-.22.61-.22 1.25 0 .672.22 1.281.218.61.609 1.063.406.453.953.734.563.266 1.219.266zm8.934.953q-1.359 0-2.03-.89-.657-.907-.657-2.704v-4.906h1.078v4.719q0 2.828 1.937 2.828.485 0 .938-.157.469-.171.86-.468.406-.313.702-.72.313-.421.516-.952v-5.25h1.078v6.937q0 .453.39.453v.954q-.187.03-.312.03h-.172q-.375-.015-.625-.265-.234-.266-.234-.687v-.97q-.547.985-1.484 1.516-.938.532-1.985.532zm10.489 0q-.906 0-1.672-.344-.75-.344-1.313-.937-.562-.61-.875-1.391-.312-.781-.312-1.672 0-.89.312-1.656.313-.781.86-1.36.562-.593 1.328-.937.766-.344 1.656-.344.922 0 1.672.344.766.344 1.297.937.547.594.844 1.36.312.765.312 1.64v.25q0 .125-.015.172h-7.125q.046.672.312 1.25.266.563.672.985.422.406.953.64.531.235 1.14.235.407 0 .798-.11.406-.11.734-.297.344-.203.61-.484.28-.281.421-.61l.953.25q-.203.47-.562.844-.344.375-.813.657-.453.28-1.015.422-.563.156-1.172.156zm3.078-4.766q-.047-.672-.313-1.219-.265-.562-.671-.953-.407-.406-.954-.625-.53-.218-1.14-.218-.61 0-1.156.218-.532.219-.954.625-.406.39-.656.953-.234.563-.281 1.22h6.125zm5.486 4.766q-.985 0-1.907-.313-.921-.328-1.593-.937l.484-.735q.703.579 1.438.875.734.282 1.562.282 1 0 1.594-.407.61-.406.61-1.156 0-.36-.157-.594-.156-.234-.469-.406-.312-.172-.797-.312-.468-.141-1.093-.282-.72-.171-1.25-.343-.516-.188-.86-.407-.344-.218-.515-.546-.172-.329-.172-.829 0-.625.25-1.093.25-.485.672-.797.421-.313.984-.469.578-.172 1.219-.172.953 0 1.734.313.797.312 1.266.828l-.516.64q-.469-.484-1.14-.718-.657-.235-1.376-.235-.437 0-.812.094-.36.078-.64.266-.282.187-.438.484-.156.297-.156.703 0 .328.109.547.11.203.36.36.265.14.656.265.39.125.953.25.797.187 1.406.39.61.188 1.016.454.406.25.609.625.219.36.219.875 0 1.156-.89 1.828-.876.672-2.36.672zm9.026-.563l-.281.14q-.188.079-.438.157-.234.078-.547.14-.296.063-.625.063-.359 0-.687-.093-.313-.094-.547-.297-.234-.203-.39-.5-.141-.313-.141-.703v-5.97h-1.14v-.874h1.14v-2.813h1.094v2.813h1.921v.875h-1.921v5.656q.03.469.328.688.297.218.672.218.468 0 .812-.156.36-.156.453-.219l.297.875zm4.126.563q-.985 0-1.907-.313-.921-.328-1.593-.937l.484-.735q.703.579 1.438.875.734.282 1.562.282 1 0 1.594-.407.61-.406.61-1.156 0-.36-.157-.594-.156-.234-.469-.406-.312-.172-.797-.312-.468-.141-1.093-.282-.72-.171-1.25-.343-.516-.188-.86-.407-.344-.218-.515-.546-.172-.329-.172-.829 0-.625.25-1.093.25-.485.672-.797.421-.313.984-.469.578-.172 1.219-.172.953 0 1.734.313.797.312 1.266.828l-.516.64q-.469-.484-1.14-.718-.657-.235-1.376-.235-.437 0-.812.094-.36.078-.64.266-.282.187-.438.484-.156.297-.156.703 0 .328.109.547.11.203.36.36.265.14.656.265.39.125.953.25.797.187 1.406.39.61.188 1.016.454.406.25.609.625.219.36.219.875 0 1.156-.89 1.828-.876.672-2.36.672z" fill="#fff"/><path d="M468.714 432.842l117.26 52.284-14.709 33.008-117.26-52.284z" fill="none"/><path d="M471.673 460.834l4.623-10.376 3.525 1.571q1.242.554 1.985 1.381.75.814 1.045 1.8.316.98.21 2.062-.105 1.082-.576 2.138-.528 1.185-1.317 1.996-.768.804-1.73 1.196-.941.385-2.02.348-1.079-.036-2.22-.545l-3.525-1.571zm9.785-1.882q.413-.928.506-1.827.093-.9-.166-1.7-.245-.793-.848-1.438-.588-.639-1.53-1.059l-2.497-1.113-3.822 8.577 2.497 1.114q.97.433 1.845.429.895-.012 1.648-.36.754-.348 1.347-1.025.606-.67 1.02-1.598zm2.312 7.447q-.542-.242-.922-.617-.374-.39-.591-.862-.197-.481-.191-.992.011-.525.234-1.025.216-.485.635-.812.434-.32.981-.435.568-.123 1.223-.019.662.09 1.36.401.586.261 1.14.629.556.367.944.762l.305-.685q.452-1.013.142-1.853-.31-.84-1.324-1.291-.585-.261-1.3-.306-.716-.046-1.54.117l-.05-.81q1.915-.343 3.299.274 1.441.643 1.892 1.819.457 1.162-.172 2.575l-1.533 3.44q-.184.413.187.579l-.388.87q-.262-.065-.405-.129-.37-.165-.502-.446-.125-.295.007-.63l.238-.612q-.833.45-1.797.464-.959 0-1.872-.407zm.566-.655q.784.35 1.554.35.79-.006 1.334-.345.2-.065.32-.182.142-.125.206-.268l.553-1.242q-.417-.408-.914-.75-.484-.335-1.04-.583-1.042-.465-1.91-.321-.847.135-1.165.849-.16.356-.157.734.01.363.15.7.141.337.412.611.286.281.657.447zm9.368 4.468l-.314.014q-.203-.005-.463-.035-.246-.025-.557-.095-.296-.064-.596-.197-.328-.147-.59-.366-.247-.213-.378-.494-.132-.28-.154-.615 0-.343.158-.7l2.43-5.452-1.042-.464.356-.8 1.042.465 1.145-2.57.999.446-1.145 2.57 1.755.782-.356.8-1.755-.783-2.303 5.166q-.162.44.02.762.182.32.525.473.428.19.805.188.392.004.503-.015l-.085.92zm2.926 1.92q-.542-.241-.923-.616-.374-.39-.59-.863-.197-.48-.192-.991.012-.526.235-1.025.216-.485.635-.812.433-.32.98-.435.569-.123 1.224-.02.661.09 1.36.402.586.261 1.14.628.555.367.944.763l.305-.685q.451-1.013.141-1.853-.31-.84-1.323-1.291-.585-.261-1.3-.307-.716-.045-1.54.118l-.05-.81q1.914-.343 3.298.274 1.442.643 1.893 1.819.457 1.162-.173 2.575l-1.532 3.44q-.185.413.186.579l-.388.87q-.261-.065-.404-.129-.371-.165-.502-.446-.126-.296.007-.63l.238-.612q-.833.45-1.798.464-.958 0-1.871-.407zm.565-.654q.785.35 1.554.35.79-.006 1.335-.345.2-.065.32-.182.142-.126.205-.268l.554-1.242q-.417-.408-.915-.75-.483-.335-1.04-.583-1.042-.465-1.91-.322-.847.136-1.165.85-.159.356-.156.734.01.363.15.7.14.336.412.611.285.281.656.447zm16.075-.172q-1.026-.424-2.004-.226-.977.197-1.698.97l-2.112 4.739-.984-.44 3.396-7.62.927.413-.814 1.827q.816-.68 1.753-.861.936-.182 1.763.187.115.051.18.097l-.407.914zm1.55 8.937q-.828-.37-1.387-.995-.545-.62-.818-1.39-.265-.787-.233-1.627.033-.841.395-1.655.363-.813.96-1.385.603-.587 1.338-.892.756-.313 1.595-.316.839-.002 1.652.36.842.376 1.387.996.56.625.803 1.384.258.765.218 1.585-.027.827-.383 1.626l-.102.229q-.05.114-.084.15l-6.507-2.901q-.23.633-.224 1.269.014.622.213 1.173.22.542.61.973.39.43.947.678.37.166.772.225.415.066.791.028.397-.046.754-.194.371-.143.633-.385l.77.616q-.377.346-.858.542-.467.202-1.01.269-.527.072-1.098-.029-.578-.086-1.134-.334zm4.75-3.1q.231-.633.211-1.24-.013-.622-.225-1.144-.206-.537-.616-.96-.397-.416-.953-.664-.557-.248-1.145-.27-.575-.017-1.125.182-.53.191-.987.603-.443.419-.753.999l5.594 2.494zm3.485 6.772q-.785-.35-1.28-.965-.482-.608-.697-1.354-.195-.754-.14-1.568.075-.822.419-1.592.356-.8.945-1.392.604-.587 1.33-.912.727-.326 1.538-.341.817-.03 1.573.308.443.197.8.51.356.313.617.686.282.365.448.799.167.433.236.892l.668-1.5.884.395-4.19 9.406q-.185.414.18.593l-.382.857q-.17-.042-.312-.105l-.257-.115q-.33-.181-.458-.546-.114-.359.039-.701l1.691-3.797q-.938.608-1.863.726-.918.104-1.789-.284zm.688-.737q.442.197.891.226.455.015.885-.067.437-.096.84-.31.424-.222.768-.496l1.05-2.355q.12-.425.023-.896-.084-.465-.32-.895-.23-.445-.588-.793-.344-.341-.758-.526-.613-.273-1.248-.231-.628.027-1.204.284-.562.263-1.01.73-.448.468-.708 1.053-.274.614-.322 1.26-.048.645.124 1.218.187.58.572 1.059.405.471 1.005.739zm7.772 4.509q-1.242-.554-1.493-1.64-.23-1.096.501-2.737l1.997-4.482.985.44-1.92 4.31q-1.152 2.583.618 3.372.442.197.92.239.497.034.975-.078.498-.12.935-.37.457-.259.859-.661l2.137-4.796.984.44-2.824 6.336q-.184.414.173.573l-.388.87q-.184-.047-.298-.098l-.157-.07q-.336-.167-.463-.497-.106-.338.066-.723l.394-.885q-.9.676-1.972.78-1.073.103-2.03-.323zm9.58 4.271q-.829-.37-1.388-.995-.545-.62-.817-1.39-.266-.786-.233-1.627.032-.841.395-1.655.362-.813.96-1.385.603-.587 1.338-.892.755-.313 1.594-.315.84-.002 1.653.36.842.376 1.387.995.56.626.803 1.384.258.765.217 1.586-.026.826-.382 1.626l-.102.228q-.05.114-.084.15l-6.508-2.901q-.23.633-.223 1.269.014.622.213 1.173.22.543.61.973.39.43.946.679.371.165.772.224.416.066.792.028.397-.045.754-.194.371-.142.633-.385l.769.617q-.377.345-.857.541-.467.203-1.01.269-.528.072-1.099-.028-.577-.087-1.134-.335zm4.75-3.1q.23-.632.21-1.24-.013-.622-.225-1.144-.205-.537-.616-.96-.396-.415-.953-.664-.556-.248-1.145-.27-.574-.017-1.125.182-.53.192-.987.604-.443.418-.753.998l5.594 2.494zm3.07 6.587q-.898-.4-1.613-1.061-.708-.675-1.074-1.506l.741-.473q.407.814.957 1.384.556.556 1.313.894.913.407 1.62.278.722-.123 1.028-.808.146-.329.099-.606-.048-.278-.263-.562-.216-.285-.6-.61-.372-.32-.885-.703-.587-.45-1.002-.823-.394-.38-.62-.72-.224-.34-.248-.71-.023-.37.18-.827.255-.57.674-.897.425-.34.938-.454.512-.114 1.09-.027.598.078 1.183.339.87.388 1.457.992.6.61.818 1.272l-.731.375q-.231-.634-.75-1.121-.503-.482-1.16-.774-.4-.179-.78-.246-.36-.075-.693-.018-.333.057-.597.264-.264.208-.429.58-.133.299-.123.543.018.23.182.475.186.236.492.51.305.273.768.616.652.496 1.126.93.48.419.743.827.27.394.302.82.054.416-.156.887-.47 1.057-1.558 1.308-1.072.257-2.428-.347zm8.474 3.162l-.314.014q-.203-.005-.463-.035-.246-.024-.557-.094-.297-.064-.596-.198-.329-.146-.59-.365-.247-.213-.379-.494-.131-.281-.153-.616-.001-.343.158-.7l2.43-5.451-1.043-.465.356-.8 1.042.465 1.145-2.569.999.446-1.145 2.569 1.755.782-.356.8-1.755-.783-2.302 5.166q-.162.441.02.762.182.32.524.473.428.191.806.189.392.004.503-.016l-.085.92zm3.539 2.194q-.9-.4-1.614-1.061-.708-.675-1.074-1.506l.741-.473q.407.814.957 1.384.556.556 1.313.894.913.407 1.62.278.723-.123 1.028-.808.146-.329.099-.606-.048-.278-.263-.562-.215-.285-.6-.61-.371-.32-.885-.703-.587-.45-1.002-.823-.394-.38-.62-.72-.224-.34-.248-.71-.023-.37.18-.827.255-.57.674-.897.425-.34.938-.454.512-.114 1.09-.027.598.078 1.183.339.87.388 1.457.992.6.61.819 1.271l-.732.376q-.231-.634-.75-1.121-.503-.482-1.16-.774-.4-.179-.78-.246-.36-.075-.693-.018-.333.057-.597.264-.263.208-.429.579-.133.3-.123.544.018.23.182.475.186.236.492.51.306.273.768.616.652.496 1.126.93.48.419.743.827.27.394.302.819.054.417-.156.888-.47 1.056-1.558 1.307-1.072.258-2.428-.347z" fill="#fff"/></g></svg>