<svg xmlns="http://www.w3.org/2000/svg" viewBox="0 0 514.86615 217.96275" stroke-miterlimit="10" width="514.866" height="217.963" fill="none" stroke-linecap="square"><clipPath id="a"><path d="M0 0h960v540H0V0z"/></clipPath><g clip-path="url(#a)" transform="translate(-169.051 -273.375)"><path d="M280.325 273.375L398.5 326.037l-14.709 33.008-118.173-52.662z" fill="none"/><path d="M312.473 313.361q.984.439 1.792.354.828-.093 1.48-.52.66-.442 1.16-1.143.5-.7.85-1.486l2.334-5.238 1.014.452-2.334 5.238q-.465 1.042-1.127 1.875-.648.84-1.486 1.34-.832.484-1.865.537-1.012.045-2.211-.49-1.227-.546-1.872-1.364-.645-.817-.835-1.774-.168-.965.017-1.994.205-1.038.644-2.023l2.334-5.237 1.013.451-2.334 5.238q-.362.813-.549 1.654-.186.84-.068 1.612.118.771.595 1.428.477.658 1.448 1.09zm14.283-5.062l.87.388-.313 12.297-1.084-.484.102-3.837-4.667-2.08-2.771 2.648-1.1-.49 8.963-8.442zm-.291 7.448l.185-6.058-4.395 4.182 4.21 1.876zm12.16.168q-.22-.697-.814-1.321-.588-.638-1.53-1.058-1.37-.61-2.233-.362-.857.234-1.252 1.118-.21.471-.172.847.038.376.279.757.261.374.733.772.487.405 1.153.907.751.54 1.306 1.061.575.513.9 1.051.325.539.358 1.118.053.57-.265 1.284-.318.714-.839 1.115-.5.393-1.158.527-.659.134-1.42 0-.755-.148-1.569-.51-2.412-1.075-3.5-3.356l.89-.613q.137.42.402.863.27.429.653.838.402.402.894.758.491.356 1.09.623 1.242.553 2.124.416.903-.145 1.304-1.044.216-.485.163-.903-.054-.417-.346-.838-.277-.414-.786-.846-.502-.446-1.196-.96-.746-.555-1.27-1.029-.518-.487-.813-.978-.274-.498-.297-1.022-.024-.523.256-1.151.318-.714.837-1.15.526-.45 1.19-.598.672-.163 1.426-.05.76.1 1.573.462 1.042.464 1.715 1.14.674.677 1.076 1.54l-.862.592zm10.634 3.49l-3.696-1.647-4.223 9.476-1.028-.458 4.223-9.476-3.696-1.648.4-.899 8.42 3.753-.4.899zm-.41 11.347q-.899-.4-1.614-1.061-.708-.675-1.074-1.505l.742-.474q.407.814.956 1.384.557.556 1.313.893.914.407 1.621.278.722-.123 1.028-.808.146-.329.098-.606-.047-.278-.262-.562-.216-.284-.601-.61-.37-.32-.885-.702-.586-.45-1.001-.823-.395-.38-.62-.72-.225-.34-.248-.71-.024-.37.18-.826.254-.571.673-.898.426-.34.938-.454.513-.114 1.09-.028.598.079 1.183.34.871.387 1.457.99.601.61.82 1.272l-.732.376q-.231-.634-.75-1.121-.504-.481-1.16-.774-.4-.178-.78-.245-.36-.075-.694-.018-.333.057-.597.264-.263.208-.429.579-.133.3-.122.544.017.23.182.475.185.236.491.51.306.272.769.616.651.495 1.125.929.48.42.744.827.269.394.302.819.053.417-.156.888-.471 1.056-1.558 1.308-1.073.257-2.429-.347z" fill="#fff"/><path d="M587.449 449.608a7.375 7.375 0 0 1 7.375-7.375h81.218a7.375 7.375 0 0 1 7.375 7.375v29.501a7.375 7.375 0 0 1-7.375 7.376h-81.218a7.375 7.375 0 0 1-7.375-7.376z" fill="#400d9a" fill-rule="evenodd"/><path d="M587.449 449.608a7.375 7.375 0 0 1 7.375-7.375h81.218a7.375 7.375 0 0 1 7.375 7.375v29.501a7.375 7.375 0 0 1-7.375 7.376h-81.218a7.375 7.375 0 0 1-7.375-7.376z" stroke="#595959" stroke-linecap="butt" stroke-linejoin="round"/><path d="M605.72 458.202h1.016l5.11 12.297h-1.282l-1.593-3.844h-5.532l-1.578 3.844h-1.297l5.157-12.297zm2.97 7.5l-2.47-6.078-2.515 6.078h4.984zm12.275 4.797h-1.171v-5.047q0-1.61-.485-2.328-.468-.734-1.468-.734-.516 0-1.047.187-.516.188-.953.547-.438.344-.782.828-.343.469-.5 1.016v5.53h-1.187v-9.03h1.078v2.047q.547-.985 1.578-1.594 1.031-.61 2.25-.61.75 0 1.266.282.515.28.828.78.312.5.453 1.235.14.72.14 1.61v5.28zm4.775.172q-.641 0-1.188-.219-.531-.219-.953-.594-.406-.375-.625-.89-.219-.516-.219-1.11 0-.578.266-1.078.281-.515.781-.875t1.188-.562q.703-.203 1.53-.203.704 0 1.407.125.719.125 1.266.343v-.812q0-1.188-.672-1.89-.672-.704-1.875-.704-.688 0-1.422.281-.719.266-1.469.797l-.422-.781q1.75-1.188 3.407-1.188 1.687 0 2.656.954.984.953.984 2.64v4.063q0 .484.422.484v1.047q-.297.047-.453.047-.438 0-.703-.219-.25-.234-.266-.625l-.031-.703q-.625.812-1.578 1.25-.938.422-2.031.422zm.28-.906q.923 0 1.688-.344.782-.344 1.172-.922.156-.156.235-.328.078-.188.078-.344v-1.469q-.594-.218-1.235-.343-.625-.125-1.28-.125-1.25 0-2.032.53-.766.516-.766 1.36 0 .422.156.781.172.36.454.625.28.266.671.422.407.157.86.157zm6.96-11.922h1.172v10.61q0 .5.266.796.281.281.797.281.187 0 .437-.047.266-.062.485-.14l.218.953q-.328.14-.812.219-.469.093-.813.093-.828 0-1.297-.453-.453-.469-.453-1.297v-11.015zm5.167 15.422q.14.03.265.03.14.016.266.016.312 0 .484-.093.188-.078.36-.375.171-.297.39-.86.219-.547.61-1.484l-3.922-9.031h1.203l3.344 7.937 3.109-7.937h1.125l-4.688 11.64q-.187.516-.625.875-.437.375-1.203.375-.172 0-.328-.015-.156 0-.39-.032v-1.046zm8.11-3.563l6.11-7.344h-5.97v-.89h7.25v.797l-6.077 7.343h6.062v.89h-7.375v-.796zm13.197.969q-1 0-1.828-.375-.812-.375-1.422-1.016-.593-.656-.937-1.5-.344-.844-.344-1.828 0-.953.344-1.781.344-.844.937-1.469.594-.64 1.422-1.016.828-.375 1.813-.375.984 0 1.797.375.828.375 1.422 1.016.593.64.921 1.469.329.828.329 1.765v.282q0 .14-.016.187h-7.734q.046.735.328 1.36.297.609.75 1.062.453.438 1.03.688.579.25 1.235.25.438 0 .86-.11.437-.125.797-.328.375-.219.656-.516.297-.312.453-.671l1.031.28q-.203.5-.594.907-.375.406-.89.719-.5.297-1.11.453-.593.172-1.25.172zm3.329-5.156q-.063-.735-.344-1.329-.281-.593-.735-1.03-.437-.438-1.015-.673-.578-.25-1.235-.25-.656 0-1.25.25-.593.235-1.03.672-.438.438-.72 1.047-.265.594-.312 1.313h6.64zm7.452-3q-1.203.03-2.093.656-.875.625-1.235 1.719v5.609h-1.187v-9.031h1.11v2.172q.5-1.047 1.343-1.625.86-.594 1.828-.594.14 0 .234.015v1.079z" fill="#fff"/><path d="M587.449 367.57a7.375 7.375 0 0 1 7.375-7.376h81.218a7.375 7.375 0 0 1 7.375 7.375v29.502a7.375 7.375 0 0 1-7.375 7.375h-81.218a7.375 7.375 0 0 1-7.375-7.375z" fill="#400d9a" fill-rule="evenodd"/><path d="M587.449 367.57a7.375 7.375 0 0 1 7.375-7.376h81.218a7.375 7.375 0 0 1 7.375 7.375v29.502a7.375 7.375 0 0 1-7.375 7.375h-81.218a7.375 7.375 0 0 1-7.375-7.375z" stroke="#595959" stroke-linecap="butt" stroke-linejoin="round"/><path d="M605.72 376.163h1.016l5.11 12.297h-1.282l-1.593-3.844h-5.532l-1.578 3.844h-1.297l5.157-12.297zm2.97 7.5l-2.47-6.078-2.515 6.078h4.984zm12.275 4.797h-1.171v-5.047q0-1.61-.485-2.328-.468-.734-1.468-.734-.516 0-1.047.187-.516.188-.953.547-.438.344-.782.828-.343.469-.5 1.016v5.531h-1.187v-9.031h1.078v2.047q.547-.985 1.578-1.594 1.031-.61 2.25-.61.75 0 1.266.282.515.281.828.781.312.5.453 1.234.14.72.14 1.61v5.281zm4.775.172q-.641 0-1.188-.219-.531-.219-.953-.594-.406-.375-.625-.89-.219-.516-.219-1.11 0-.578.266-1.078.281-.515.781-.875t1.188-.562q.703-.203 1.53-.203.704 0 1.407.125.719.125 1.266.343v-.812q0-1.188-.672-1.89-.672-.704-1.875-.704-.688 0-1.422.281-.719.266-1.469.797l-.422-.781q1.75-1.188 3.407-1.188 1.687 0 2.656.954.984.953.984 2.64v4.063q0 .484.422.484v1.047q-.297.047-.453.047-.438 0-.703-.219-.25-.234-.266-.625l-.031-.703q-.625.813-1.578 1.25-.938.422-2.031.422zm.28-.906q.923 0 1.688-.344.782-.344 1.172-.922.156-.156.235-.328.078-.188.078-.344v-1.469q-.594-.218-1.235-.343-.625-.125-1.28-.125-1.25 0-2.032.53-.766.516-.766 1.36 0 .422.156.781.172.36.454.625.28.266.671.422.407.157.86.157zm6.96-11.922h1.172v10.61q0 .5.266.796.281.281.797.281.187 0 .437-.047.266-.062.485-.14l.218.953q-.328.14-.812.219-.469.093-.813.093-.828 0-1.297-.453-.453-.469-.453-1.297v-11.015zm5.167 15.422q.14.03.265.03.14.016.266.016.312 0 .484-.093.188-.078.36-.375.171-.297.39-.86.219-.547.61-1.484l-3.922-9.031h1.203l3.344 7.937 3.109-7.937h1.125l-4.688 11.64q-.187.516-.625.875-.437.375-1.203.375-.172 0-.328-.015-.156 0-.39-.031v-1.047zm8.11-3.563l6.11-7.344h-5.97v-.89h7.25v.797l-6.077 7.343h6.062v.891h-7.375v-.797zm13.197.969q-1 0-1.828-.375-.812-.375-1.422-1.016-.593-.656-.937-1.5-.344-.844-.344-1.828 0-.953.344-1.781.344-.844.937-1.469.594-.64 1.422-1.016.828-.375 1.813-.375.984 0 1.797.375.828.375 1.422 1.016.593.64.921 1.469.329.828.329 1.765v.282q0 .14-.016.187h-7.734q.046.735.328 1.36.297.609.75 1.062.453.438 1.03.688.579.25 1.235.25.438 0 .86-.11.437-.125.797-.328.375-.219.656-.516.297-.312.453-.671l1.031.28q-.203.5-.594.907-.375.406-.89.719-.5.297-1.11.453-.593.172-1.25.172zm3.329-5.156q-.063-.735-.344-1.329-.281-.593-.735-1.03-.437-.438-1.015-.673-.578-.25-1.235-.25-.656 0-1.25.25-.593.235-1.03.672-.438.438-.72 1.047-.265.594-.312 1.313h6.64zm7.452-3q-1.203.03-2.093.656-.875.625-1.235 1.719v5.609h-1.187v-9.031h1.11v2.172q.5-1.047 1.343-1.625.86-.594 1.828-.594.14 0 .234.015v1.079z" fill="#fff"/><path d="M587.449 285.53a7.375 7.375 0 0 1 7.375-7.375h81.218a7.375 7.375 0 0 1 7.375 7.376v29.5a7.375 7.375 0 0 1-7.375 7.376h-81.218a7.375 7.375 0 0 1-7.375-7.375z" fill="#400d9a" fill-rule="evenodd"/><path d="M587.449 285.53a7.375 7.375 0 0 1 7.375-7.375h81.218a7.375 7.375 0 0 1 7.375 7.376v29.5a7.375 7.375 0 0 1-7.375 7.376h-81.218a7.375 7.375 0 0 1-7.375-7.375z" stroke="#595959" stroke-linecap="butt" stroke-linejoin="round"/><path d="M605.72 294.124h1.016l5.11 12.297h-1.282l-1.593-3.844h-5.532l-1.578 3.844h-1.297l5.157-12.297zm2.97 7.5l-2.47-6.078-2.515 6.078h4.984zm12.275 4.797h-1.171v-5.047q0-1.61-.485-2.328-.468-.734-1.468-.734-.516 0-1.047.187-.516.188-.953.547-.438.344-.782.828-.343.469-.5 1.016v5.531h-1.187v-9.031h1.078v2.047q.547-.985 1.578-1.594 1.031-.61 2.25-.61.75 0 1.266.282.515.281.828.781.312.5.453 1.234.14.72.14 1.61v5.281zm4.775.172q-.641 0-1.188-.219-.531-.219-.953-.594-.406-.375-.625-.89-.219-.516-.219-1.11 0-.578.266-1.078.281-.515.781-.875t1.188-.562q.703-.203 1.53-.203.704 0 1.407.125.719.125 1.266.343v-.812q0-1.188-.672-1.89-.672-.704-1.875-.704-.688 0-1.422.281-.719.266-1.469.797l-.422-.78q1.75-1.188 3.407-1.188 1.687 0 2.656.953.984.953.984 2.64v4.063q0 .484.422.484v1.047q-.297.047-.453.047-.438 0-.703-.219-.25-.234-.266-.625l-.031-.703q-.625.813-1.578 1.25-.938.422-2.031.422zm.28-.906q.923 0 1.688-.344.782-.344 1.172-.922.156-.156.235-.328.078-.188.078-.344v-1.469q-.594-.218-1.235-.343-.625-.125-1.28-.125-1.25 0-2.032.53-.766.517-.766 1.36 0 .422.156.782.172.359.454.625.28.265.671.421.407.157.86.157zm6.96-11.922h1.172v10.61q0 .5.266.796.281.281.797.281.187 0 .437-.047.266-.062.485-.14l.218.953q-.328.14-.812.219-.469.093-.813.093-.828 0-1.297-.453-.453-.469-.453-1.297v-11.015zm5.167 15.422q.14.03.265.03.14.016.266.016.312 0 .484-.093.188-.078.36-.375.171-.297.39-.86.219-.546.61-1.484l-3.922-9.031h1.203l3.344 7.937 3.109-7.937h1.125l-4.688 11.64q-.187.516-.625.875-.437.375-1.203.375-.172 0-.328-.015-.156 0-.39-.031v-1.047zm8.11-3.563l6.11-7.344h-5.97v-.89h7.25v.797l-6.077 7.343h6.062v.891h-7.375v-.797zm13.197.969q-1 0-1.828-.375-.812-.375-1.422-1.016-.593-.656-.937-1.5-.344-.843-.344-1.828 0-.953.344-1.781.344-.844.937-1.469.594-.64 1.422-1.015.828-.375 1.813-.375.984 0 1.797.375.828.375 1.422 1.015.593.64.921 1.469.329.828.329 1.766v.28q0 .141-.016.188h-7.734q.046.735.328 1.36.297.61.75 1.062.453.438 1.03.688.579.25 1.235.25.438 0 .86-.11.437-.125.797-.328.375-.219.656-.515.297-.313.453-.672l1.031.28q-.203.5-.594.907-.375.406-.89.719-.5.297-1.11.453-.593.172-1.25.172zm3.329-5.156q-.063-.735-.344-1.328-.281-.594-.735-1.032-.437-.437-1.015-.672-.578-.25-1.235-.25-.656 0-1.25.25-.593.235-1.03.672-.438.438-.72 1.047-.265.594-.312 1.313h6.64zm7.452-3q-1.203.03-2.093.656-.875.625-1.235 1.719v5.61h-1.187v-9.032h1.11v2.172q.5-1.047 1.343-1.625.86-.594 1.828-.594.14 0 .234.016v1.078z" fill="#fff"/><path d="M380.797 367.503a7.375 7.375 0 0 1 7.375-7.375h81.218a7.375 7.375 0 0 1 7.375 7.375v29.501a7.376 7.376 0 0 1-7.375 7.376h-81.218a7.375 7.375 0 0 1-7.375-7.376z" fill="#400d9a" fill-rule="evenodd"/><path d="M380.797 367.503a7.375 7.375 0 0 1 7.375-7.375h81.218a7.375 7.375 0 0 1 7.375 7.375v29.501a7.376 7.376 0 0 1-7.375 7.376h-81.218a7.375 7.375 0 0 1-7.375-7.376z" stroke="#595959" stroke-linecap="butt" stroke-linejoin="round"/><path d="M397.17 377.894v-12.297h1.204v11.219h7.109v1.078h-8.312zm13.697.172q-.985 0-1.797-.375-.813-.375-1.422-1.016-.594-.64-.922-1.484-.328-.844-.328-1.782 0-.953.344-1.797.343-.859.937-1.5.594-.64 1.406-1.015.813-.39 1.782-.39.968 0 1.796.39.829.375 1.422 1.015.594.641.938 1.5.344.844.344 1.797 0 .938-.344 1.782-.328.843-.922 1.484-.594.64-1.422 1.016-.812.375-1.812.375zm-3.266-4.641q0 .766.25 1.422.266.64.703 1.14.453.485 1.047.766.594.281 1.266.281.687 0 1.28-.28.595-.298 1.048-.782.453-.5.703-1.156.265-.672.265-1.422 0-.75-.265-1.407-.25-.671-.703-1.171-.453-.5-1.047-.782-.594-.28-1.281-.28-.672 0-1.266.28-.578.282-1.031.797-.453.5-.72 1.172-.25.656-.25 1.422zm13.576 4.64q-.985 0-1.797-.374-.813-.375-1.422-1.016-.594-.64-.922-1.484-.328-.844-.328-1.782 0-.953.344-1.797.343-.859.937-1.5.594-.64 1.406-1.015.813-.39 1.782-.39.968 0 1.797.39.828.375 1.421 1.015.594.641.938 1.5.344.844.344 1.797 0 .938-.344 1.782-.328.843-.922 1.484-.594.64-1.422 1.016-.812.375-1.812.375zm-3.266-4.64q0 .766.25 1.422.266.64.703 1.14.453.485 1.047.766.594.281 1.266.281.687 0 1.28-.28.595-.298 1.048-.782.453-.5.703-1.156.266-.672.266-1.422 0-.75-.266-1.407-.25-.671-.703-1.171-.453-.5-1.047-.782-.594-.28-1.281-.28-.672 0-1.266.28-.578.282-1.031.797-.453.5-.719 1.172-.25.656-.25 1.422zm16.185 4.469l-3.328-4.625-1.937 1.797v2.828h-1.188v-12.657h1.188v8.594l5.078-4.953h1.328l-3.688 3.703 3.829 5.313h-1.282zm6.575.172q-.985 0-1.797-.375-.813-.375-1.422-1.016-.594-.64-.922-1.484-.328-.844-.328-1.782 0-.953.344-1.797.343-.859.937-1.5.594-.64 1.406-1.015.813-.39 1.782-.39.968 0 1.797.39.828.375 1.421 1.015.594.641.938 1.5.344.844.344 1.797 0 .938-.344 1.782-.328.843-.922 1.484-.594.64-1.422 1.016-.812.375-1.812.375zm-3.266-4.641q0 .766.25 1.422.266.64.703 1.14.453.485 1.047.766.594.281 1.266.281.687 0 1.281-.28.594-.298 1.047-.782.453-.5.703-1.156.266-.672.266-1.422 0-.75-.266-1.407-.25-.671-.703-1.171-.453-.5-1.047-.782-.594-.28-1.281-.28-.672 0-1.266.28-.578.282-1.031.797-.453.5-.719 1.172-.25.656-.25 1.422zm12.56 4.64q-1.468 0-2.187-.968-.719-.985-.719-2.922v-5.313h1.172v5.094q0 3.078 2.094 3.078.515 0 1.015-.172.516-.187.938-.515.422-.328.75-.766.344-.453.562-1.031v-5.688h1.172v7.5q0 .485.422.485v1.047q-.219.03-.344.03h-.187q-.406-.015-.672-.28-.25-.282-.25-.75v-1.047q-.594 1.062-1.61 1.64-1.015.579-2.156.579zm11.793-.609q-.094.063-.297.156-.203.079-.468.172-.25.078-.579.14-.328.079-.687.079-.39 0-.734-.11-.344-.109-.61-.312-.25-.219-.406-.547-.156-.343-.156-.765v-6.47h-1.25v-.937h1.25v-3.046h1.172v3.046h2.078v.938h-2.078v6.14q.03.5.343.735.328.234.75.234.5 0 .875-.156.39-.172.485-.25l.312.953zM407.987 399.066q-1.063 0-2.063-.344-1-.344-1.734-1l.547-.797q.75.61 1.531.922.797.312 1.703.312 1.094 0 1.734-.437.657-.438.657-1.25 0-.39-.172-.64t-.516-.438q-.328-.188-.844-.328-.515-.157-1.187-.313-.781-.187-1.36-.375-.562-.203-.937-.437-.375-.25-.562-.594-.172-.36-.172-.906 0-.672.265-1.188.266-.516.72-.86.468-.343 1.077-.515.625-.172 1.313-.172 1.047 0 1.89.344.844.328 1.375.89l-.578.688q-.5-.516-1.219-.766-.718-.265-1.5-.265-.468 0-.875.093-.39.094-.703.313-.297.203-.468.531-.172.313-.172.735 0 .375.11.593.124.22.405.391.282.172.703.297.422.125 1.032.265.86.204 1.515.422.672.203 1.11.485.437.265.656.672.234.39.234.968 0 1.25-.953 1.985-.953.719-2.562.719zm9.345 0q-1 0-1.828-.375-.813-.375-1.422-1.016-.594-.656-.938-1.5t-.344-1.828q0-.953.344-1.781.344-.844.938-1.47.593-.64 1.422-1.015.828-.375 1.812-.375.984 0 1.797.375.828.375 1.422 1.016.594.64.922 1.469.328.828.328 1.765v.281q0 .141-.016.188h-7.734q.047.734.328 1.36.297.609.75 1.062.453.437 1.031.687.578.25 1.235.25.437 0 .859-.11.438-.124.797-.327.375-.219.656-.516.297-.312.453-.672l1.031.282q-.203.5-.593.906-.375.406-.89.719-.5.296-1.11.453-.594.172-1.25.172zm3.328-5.157q-.063-.734-.344-1.328-.281-.594-.734-1.031-.438-.438-1.016-.672-.578-.25-1.234-.25-.657 0-1.25.25-.594.234-1.032.672-.437.437-.718 1.047-.266.594-.313 1.312h6.64zm7.453-3q-1.203.031-2.094.657-.875.625-1.234 1.718v5.61h-1.188v-9.032h1.11v2.172q.5-1.047 1.343-1.625.86-.593 1.828-.593.14 0 .235.015v1.078zm4.27 7.985l-3.673-9.032h1.22l3.093 7.938 3.125-7.938h1.14l-3.671 9.032h-1.235zm10.438.172q-1 0-1.828-.375-.812-.375-1.422-1.016-.594-.656-.937-1.5-.344-.844-.344-1.828 0-.953.344-1.781.343-.844.937-1.47.594-.64 1.422-1.015.828-.375 1.813-.375.984 0 1.796.375.829.375 1.422 1.016.594.64.922 1.469.328.828.328 1.765v.281q0 .141-.015.188h-7.735q.047.734.329 1.36.296.609.75 1.062.453.437 1.03.687.579.25 1.235.25.438 0 .86-.11.437-.124.796-.327.375-.219.657-.516.297-.312.453-.672l1.031.282q-.203.5-.594.906-.375.406-.89.719-.5.296-1.11.453-.593.172-1.25.172zm3.328-5.157q-.062-.734-.343-1.328-.282-.594-.735-1.031-.437-.438-1.015-.672-.579-.25-1.235-.25-.656 0-1.25.25-.594.234-1.031.672-.438.437-.719 1.047-.265.594-.312 1.312h6.64zm7.453-3q-1.203.031-2.094.657-.875.625-1.234 1.718v5.61h-1.187v-9.032h1.109v2.172q.5-1.047 1.344-1.625.86-.593 1.828-.593.14 0 .234.015v1.078z" fill="#fff"/><path d="M169.551 367.489a7.375 7.375 0 0 1 7.376-7.376h81.217a7.375 7.375 0 0 1 7.376 7.376v29.5a7.375 7.375 0 0 1-7.376 7.376h-81.217a7.375 7.375 0 0 1-7.376-7.375z" fill="#400d9a" fill-rule="evenodd"/><path d="M169.551 367.489a7.375 7.375 0 0 1 7.376-7.376h81.217a7.375 7.375 0 0 1 7.376 7.376v29.5a7.375 7.375 0 0 1-7.376 7.376h-81.217a7.375 7.375 0 0 1-7.376-7.375z" stroke="#595959" stroke-linecap="butt" stroke-linejoin="round"/><path d="M200.092 386.582q-1.719 1.891-3.953 1.891-1.25 0-2.297-.531-1.047-.547-1.828-1.422-.766-.89-1.203-2-.422-1.125-.422-2.313 0-1.234.422-2.359t1.187-1.969q.766-.86 1.797-1.375 1.047-.515 2.266-.515.906 0 1.64.203.75.203 1.329.562.593.344 1.015.844.422.484.719 1.078l-.937.625q-.61-1.14-1.579-1.672-.968-.547-2.203-.547-1.015 0-1.843.438-.829.422-1.407 1.14-.578.72-.89 1.657-.313.922-.313 1.906 0 1.047.36 1.984.359.938.984 1.641.625.688 1.453 1.11.844.421 1.828.421 1.063 0 2.016-.5.969-.5 1.86-1.562v-2.047h-2.75v-.938h3.765v6.047h-1.016v-1.797zm3.266 1.797v-9.031h1.188v9.031h-1.188zm0-10.922v-1.734h1.188v1.734h-1.188zm8.106 10.485q-.094.062-.297.156-.203.078-.469.172-.25.078-.578.14-.328.079-.687.079-.39 0-.735-.11-.343-.11-.609-.312-.25-.219-.406-.547-.156-.344-.156-.766v-6.469h-1.25v-.937h1.25v-3.047h1.171v3.047h2.079v.937h-2.079v6.141q.032.5.344.734.328.235.75.235.5 0 .875-.156.39-.172.485-.25l.312.953zm11.43-11.86v12.297h-1.203v-5.75h-7.297v5.75h-1.203v-12.297h1.203v5.47h7.297v-5.47h1.203zm5.663 12.47q-1.469 0-2.188-.97-.718-.984-.718-2.921v-5.313h1.172v5.094q0 3.078 2.093 3.078.516 0 1.016-.172.516-.187.937-.516.422-.328.75-.765.344-.453.563-1.031v-5.688h1.172v7.5q0 .484.422.484v1.047q-.219.031-.344.031h-.188q-.406-.015-.671-.28-.25-.282-.25-.75v-1.048q-.594 1.063-1.61 1.641-1.015.578-2.156.578zm11.887 0q-1.079 0-1.97-.532-.89-.547-1.39-1.39v1.75h-1.062v-12.657h1.187v5.516q.594-.922 1.438-1.485.86-.562 1.984-.562.953 0 1.703.406.766.39 1.281 1.063.532.671.813 1.515.297.828.297 1.719 0 .953-.328 1.797t-.907 1.484q-.562.625-1.359 1-.781.375-1.687.375zm-.282-1.032q.75 0 1.36-.297.625-.312 1.062-.828.438-.516.688-1.156.25-.657.25-1.344 0-.719-.235-1.375-.234-.656-.656-1.156-.422-.516-1.016-.813-.593-.312-1.312-.312-.531 0-1 .187-.469.172-.875.485-.39.312-.703.718-.313.407-.516.86v2.812q.063.469.36.875.312.406.734.703.422.282.906.469.5.172.953.172z" fill="#fff"/><path d="M283.2 314.88l80.346 37.732" fill="none"/><path d="M283.2 314.88l74.916 35.182" stroke="#fff" stroke-linecap="butt" stroke-linejoin="round"/><path d="M357.413 351.557l4.81.434-3.405-3.424z" fill="#fff" fill-rule="evenodd" stroke="#fff" stroke-linecap="butt"/><path d="M169.551 285.53a7.375 7.375 0 0 1 7.376-7.375h81.217a7.375 7.375 0 0 1 7.376 7.376v29.5a7.375 7.375 0 0 1-7.376 7.376h-81.217a7.375 7.375 0 0 1-7.376-7.375z" fill="#400d9a" fill-rule="evenodd"/><path d="M169.551 285.53a7.375 7.375 0 0 1 7.376-7.375h81.217a7.375 7.375 0 0 1 7.376 7.376v29.5a7.375 7.375 0 0 1-7.376 7.376h-81.217a7.375 7.375 0 0 1-7.376-7.375z" stroke="#595959" stroke-linecap="butt" stroke-linejoin="round"/><path d="M192.058 303.234q0 .672-.266 1.235-.265.547-.718.953-.453.406-1.047.64-.594.22-1.281.22h-5.579v-11.829h5.688q.625 0 1.125.266.5.265.844.703.359.422.547.969.187.53.187 1.078 0 .906-.453 1.656-.438.734-1.25 1.094 1.016.297 1.61 1.125.593.812.593 1.89zm-1.172-.203q0-.437-.156-.844-.14-.406-.422-.703-.266-.312-.64-.5-.376-.203-.813-.203h-4.531v4.485h4.422q.453 0 .843-.172.39-.188.672-.5.297-.313.453-.719.172-.406.172-.844zm-6.562-7.562v4.36h4.078q.422 0 .797-.173.375-.187.64-.484.266-.297.422-.688.156-.39.156-.828 0-.453-.156-.844-.14-.406-.406-.687-.25-.297-.594-.469-.344-.187-.765-.187h-4.172zm11.89 10.984q-.625 0-1.157-.203-.515-.219-.906-.578-.39-.375-.61-.86-.218-.5-.218-1.062 0-.563.266-1.047.265-.484.75-.828.484-.36 1.14-.547.672-.187 1.485-.187.656 0 1.343.125.688.109 1.219.312v-.781q0-1.14-.656-1.813-.64-.687-1.797-.687-.672 0-1.375.281-.688.266-1.406.75l-.407-.734q1.688-1.14 3.266-1.14 1.64 0 2.563.921.937.906.937 2.531v3.906q0 .47.422.47v1q-.281.046-.438.046-.437 0-.671-.219-.235-.218-.266-.593l-.031-.688q-.594.781-1.5 1.203-.907.422-1.953.422zm.265-.875q.875 0 1.61-.328.75-.328 1.14-.89.14-.141.219-.313.078-.188.078-.328v-1.422q-.578-.219-1.187-.328-.594-.125-1.235-.125-1.203 0-1.953.5t-.75 1.328q0 .39.156.75.172.344.438.61.281.25.656.406.39.14.828.14zm10.875.875q-1.032 0-1.891-.515-.86-.516-1.344-1.344v1.687h-1.015v-12.156h1.125v5.297q.593-.89 1.406-1.422.812-.547 1.906-.547.906 0 1.625.39.735.376 1.235 1.016.515.641.78 1.454.282.812.282 1.656 0 .922-.312 1.734-.313.813-.875 1.422-.547.61-1.313.969-.75.36-1.61.36zm-.266-1q.719 0 1.297-.297.594-.297 1.016-.781.437-.5.671-1.11.25-.624.25-1.296 0-.688-.234-1.313-.219-.64-.625-1.125-.406-.5-.984-.781-.578-.297-1.266-.297-.516 0-.969.172-.437.172-.828.484-.375.297-.687.688-.297.39-.5.828v2.688q.078.453.359.843.297.39.703.672.406.281.875.453.485.172.922.172zm10.043 1q-.954 0-1.75-.36-.782-.359-1.375-.984-.579-.625-.907-1.437-.312-.828-.312-1.75t.312-1.719q.328-.812.907-1.422.578-.61 1.375-.969.796-.359 1.734-.359.937 0 1.734.36.797.359 1.36.984.562.61.875 1.406.328.797.328 1.703v.266q0 .125-.016.172h-7.437q.047.703.328 1.297.281.593.703 1.03.437.423.984.673.563.234 1.203.234.422 0 .829-.11.421-.124.765-.312.36-.203.64-.5.282-.297.438-.64l.969.265q-.187.485-.562.875-.36.39-.844.688-.485.281-1.078.437-.578.172-1.203.172zm3.187-4.969q-.047-.703-.328-1.265-.266-.578-.688-1-.421-.422-.984-.64-.562-.235-1.187-.235-.641 0-1.204.234-.562.219-1 .64-.421.423-.687 1-.25.579-.297 1.266h6.375zm2.887-7.359h1.14v10.188q0 .484.266.765.265.266.75.266.172 0 .422-.047t.468-.125l.204.906q-.313.14-.782.219-.453.078-.781.078-.781 0-1.234-.438-.453-.437-.453-1.234v-10.578zm4.905 12.156V298.5h-1.203v-.89h1.203v-.235q0-1.61.672-2.516.687-.906 1.875-.906.516 0 1 .156.484.141.828.391l-.344.828q-.234-.187-.578-.281-.344-.11-.687-.11-.813 0-1.235.625-.406.61-.406 1.782v.265h2.406v.891h-2.406v7.781h-1.125zm5.075 0v-8.672h1.125v8.672h-1.125zm0-10.5v-1.656h1.125v1.656h-1.125zm6.506 10.672q-1.016 0-1.985-.328-.953-.344-1.656-.969l.516-.781q.734.61 1.484.906.766.297 1.625.297 1.047 0 1.672-.422t.625-1.203q0-.375-.172-.61-.156-.25-.484-.421-.313-.188-.813-.328-.484-.14-1.14-.297-.75-.172-1.297-.36-.547-.187-.907-.421-.359-.235-.546-.579-.172-.343-.172-.859 0-.64.265-1.14.266-.5.703-.829.438-.328 1.032-.484.593-.172 1.25-.172 1 0 1.812.328.828.328 1.328.86l-.547.656q-.484-.5-1.187-.75-.688-.25-1.438-.25-.453 0-.843.094-.375.093-.672.296-.281.204-.453.516-.157.297-.157.719 0 .344.11.562.125.22.39.375.266.157.672.282.407.125.985.265.843.188 1.468.39.641.204 1.063.47.422.265.64.656.22.375.22.922 0 1.203-.923 1.906-.906.703-2.468.703zm12.533-.172h-1.14v-4.844q0-1.484-.516-2.218-.5-.735-1.484-.735-.47 0-.954.204-.468.187-.89.515t-.735.781q-.296.454-.453.985v5.312h-1.125v-12.156h1.125v5.438q.516-.97 1.438-1.532.922-.578 1.984-.578.75 0 1.266.281.515.266.844.766.343.484.484 1.188.156.687.156 1.515v5.078z" fill="#fff"/><path d="M298.507 418.088c0 3.433 11.133 6.216 24.866 6.216s24.866-2.783 24.866-6.216v62.181c0 3.433-11.133 6.217-24.866 6.217s-24.866-2.784-24.866-6.217z" fill="#400d9a" fill-rule="evenodd"/><path d="M298.507 418.088c0-3.433 11.133-6.217 24.866-6.217s24.866 2.784 24.866 6.217-11.133 6.216-24.866 6.216-24.866-2.783-24.866-6.216z" fill="#8c6dc2" fill-rule="evenodd"/><path d="M348.239 418.088c0 3.433-11.133 6.216-24.866 6.216s-24.866-2.783-24.866-6.216c0-3.433 11.133-6.217 24.866-6.217s24.866 2.784 24.866 6.217v62.181c0 3.433-11.133 6.217-24.866 6.217s-24.866-2.784-24.866-6.217v-62.181" fill="none"/><path d="M348.239 418.088c0 3.433-11.133 6.216-24.866 6.216s-24.866-2.783-24.866-6.216c0-3.433 11.133-6.217 24.866-6.217s24.866 2.784 24.866 6.217v62.181c0 3.433-11.133 6.217-24.866 6.217s-24.866-2.784-24.866-6.217v-62.181" stroke="#595959" stroke-linecap="butt" stroke-linejoin="round"/><path d="M322.77 457.27q-1.844 2.03-4.25 2.03-1.344 0-2.485-.578-1.125-.578-1.953-1.53-.828-.954-1.297-2.157-.468-1.203-.468-2.469 0-1.328.453-2.531.468-1.219 1.28-2.14.829-.923 1.938-1.47 1.125-.562 2.454-.562.968 0 1.765.219.813.219 1.438.61.625.374 1.078.905.453.532.765 1.157l-1 .672q-.656-1.22-1.703-1.797-1.047-.578-2.36-.578-1.108 0-2 .468-.874.453-1.5 1.235-.624.765-.968 1.765-.328 1-.328 2.063 0 1.125.375 2.14.39 1 1.063 1.75.671.75 1.562 1.204.906.453 1.984.453 1.125 0 2.157-.532 1.047-.53 2-1.687v-2.203h-2.953v-1.016h4.046v6.516h-1.093v-1.938zm3.53 1.937v-9.719h1.265v9.719H326.3zm0-11.75v-1.875h1.265v1.875H326.3zm8.723 11.281q-.11.063-.328.156-.22.094-.5.188-.266.093-.625.156-.36.078-.75.078-.407 0-.782-.11-.375-.109-.656-.343-.281-.234-.453-.578-.156-.36-.156-.828v-6.969h-1.344v-1h1.344v-3.281h1.265v3.281h2.235v1h-2.235v6.61q.032.546.375.796.36.25.797.25.547 0 .953-.172.407-.187.532-.265l.328 1.031z" fill="#fff"/><path d="M363.545 451.358l59.937-28.252" fill="none"/><path d="M363.545 451.358l54.51-25.694" stroke="#fff" stroke-linecap="butt" stroke-linejoin="round"/><path d="M418.759 427.158l3.4-3.429-4.809.44z" fill="#fff" fill-rule="evenodd" stroke="#fff" stroke-linecap="butt"/><path d="M351.404 458.582l82.992-38.677 15.275 32.756-82.992 38.677z" fill="none"/><path d="M373.21 475.295L368.409 465l4.348-2.026q.665-.31 1.35-.284.698.019 1.32.28.622.262 1.105.744.498.475.775 1.07.264.566.339 1.17.082.582-.024 1.131-.106.55-.399 1.03-.293.482-.756.818l4.376 2.805-1.147.534-4.192-2.666-3.045 1.419 1.77 3.795-1.02.475zm-1.173-5.176l3.356-1.565q.454-.21.736-.566.276-.37.372-.829.11-.465.06-.942-.041-.497-.26-.965-.21-.453-.579-.798-.374-.36-.803-.54-.435-.193-.903-.2-.475-.02-.9.179l-3.272 1.524 2.193 4.702zm12.408.113q-.538.25-1.07.292-.54.027-1.039-.12-.492-.167-.874-.506-.389-.353-.62-.849-.224-.481-.196-1.012.043-.537.315-1.026.28-.51.788-.936.5-.44 1.195-.764.58-.27 1.222-.448.64-.178 1.194-.212l-.317-.68q-.469-1.005-1.306-1.322-.838-.316-1.843.152-.58.27-1.084.781-.503.51-.922 1.24l-.643-.493q.996-1.671 2.37-2.311 1.43-.667 2.614-.236 1.177.417 1.83 1.819l1.592 3.413q.192.41.56.239l.403.863q-.221.155-.363.221-.368.172-.666.087-.305-.1-.471-.419l-.306-.581q-.207.924-.828 1.661-.628.724-1.535 1.146zm-.123-.857q.779-.363 1.284-.943.513-.6.614-1.234.082-.194.073-.362-.002-.188-.068-.33l-.575-1.232q-.581.047-1.166.199-.57.145-1.122.402-1.034.482-1.495 1.231-.453.729-.123 1.437.165.354.452.6.28.23.627.345.346.114.731.09.4-.031.768-.203zm12.054-14.081l.963-.45.283 9.074-.821.383-3.41-3.1.18 4.605-.806.376-6.784-6.044.963-.449 5.812 5.256-.174-4.108-2.722-2.472.822-.383 2.14 2.002-.172-2.92.85-.396.144 3.674 3.036 2.774-.304-7.822zm12.666 3.475q-.78.363-1.611.354-.818-.016-1.55-.33-.718-.32-1.311-.888-.6-.583-.956-1.347-.376-.808-.452-1.634-.067-.848.135-1.597.202-.75.68-1.352.492-.608 1.257-.965.949-.442 1.923-.275.982.146 1.723.662l-2.153-4.616.991-.462 4.345 9.318q.192.41.546.245l.403.864q-.207.148-.334.208-.354.165-.715.057-.36-.108-.506-.42l-.343-.736q-.11.948-.684 1.75-.567.781-1.388 1.164zm-.19-.963q.367-.172.712-.505.338-.347.573-.767.25-.426.346-.885.097-.459-.025-.867l-1.09-2.337q-.326-.33-.768-.538-.428-.215-.9-.305-.48-.104-.957-.054-.462.043-.859.228-.609.284-.98.784-.376.486-.532 1.076-.156.59-.082 1.228.073.638.344 1.218.284.61.754 1.063.47.453 1.044.685.574.233 1.202.25.622.003 1.217-.274zm8.006-2.68q-.538.25-1.07.292-.54.027-1.039-.12-.492-.167-.874-.506-.389-.353-.62-.849-.224-.481-.196-1.011.043-.537.315-1.026.28-.51.788-.936.5-.44 1.195-.764.58-.27 1.222-.449.64-.178 1.194-.212l-.317-.68q-.469-1.005-1.306-1.321-.837-.317-1.843.152-.58.27-1.084.78-.503.511-.922 1.24l-.643-.493q.996-1.67 2.37-2.31 1.43-.667 2.614-.236 1.177.416 1.83 1.818l1.592 3.413q.192.41.56.24l.403.863q-.221.155-.363.22-.368.172-.666.087-.305-.1-.471-.418l-.306-.582q-.207.924-.828 1.662-.628.724-1.535 1.146zm-.123-.856q.779-.363 1.284-.943.513-.601.614-1.235.082-.193.073-.361-.002-.189-.068-.33l-.575-1.233q-.581.047-1.166.2-.57.144-1.122.402-1.034.481-1.495 1.23-.453.729-.123 1.437.165.354.452.6.28.231.627.345.346.115.731.09.4-.03.768-.202zm9.517-4.143l-.195.247q-.137.15-.33.326-.18.17-.437.359-.243.182-.54.32-.326.152-.663.206-.323.047-.621-.038-.298-.086-.565-.289-.26-.223-.425-.577l-2.523-5.41-1.034.482-.37-.793 1.034-.482-1.188-2.549.991-.462 1.189 2.55 1.742-.813.37.793-1.742.812 2.39 5.126q.227.412.588.485.362.073.702-.086.425-.198.67-.484.26-.294.318-.39l.64.667zm3.368-.949q-.538.251-1.07.292-.54.028-1.039-.119-.491-.167-.874-.506-.388-.353-.62-.85-.224-.48-.196-1.011.043-.537.315-1.026.28-.51.788-.936.501-.44 1.195-.764.58-.27 1.222-.448.64-.178 1.194-.212l-.317-.68q-.469-1.005-1.306-1.322-.837-.317-1.843.152-.58.27-1.084.781-.503.51-.922 1.24l-.643-.493q.996-1.671 2.37-2.311 1.43-.667 2.614-.236 1.177.417 1.83 1.819l1.592 3.412q.192.411.56.24l.403.863q-.22.155-.363.22-.368.173-.666.087-.305-.099-.471-.418l-.306-.581q-.207.923-.828 1.661-.628.724-1.535 1.146zm-.123-.856q.779-.363 1.284-.943.513-.601.614-1.234.082-.194.073-.362-.002-.189-.068-.33l-.574-1.232q-.582.047-1.166.198-.57.146-1.123.403-1.034.482-1.495 1.231-.453.728-.123 1.436.165.354.452.6.28.231.627.346.346.114.731.09.4-.031.768-.203z" fill="#fff"/></g></svg>