<svg xmlns="http://www.w3.org/2000/svg" viewBox="0 0 514.86615 213.60959" stroke-miterlimit="10" width="514.866" height="213.61" fill="none" stroke-linecap="square"><clipPath id="a"><path d="M0 0h960v540H0V0z"/></clipPath><g clip-path="url(#a)" transform="translate(-169.051 -273.375)"><path d="M280.325 273.375L398.5 326.037l-14.709 33.008-118.173-52.662z" fill="none"/><path d="M284.61 300.945q.985.439 1.792.354.829-.093 1.481-.52.659-.443 1.16-1.144.5-.7.85-1.485l2.334-5.238 1.013.451-2.334 5.238q-.464 1.042-1.127 1.876-.648.84-1.486 1.34-.832.484-1.865.537-1.012.045-2.21-.49-1.228-.546-1.873-1.364-.645-.818-.834-1.775-.17-.964.016-1.994.206-1.037.644-2.022l2.334-5.238 1.014.452-2.334 5.238q-.363.813-.55 1.654-.186.84-.067 1.612.118.77.595 1.428.477.657 1.447 1.09zm14.283-5.062l.871.388-.313 12.296-1.085-.483.102-3.838-4.667-2.08-2.771 2.649-1.099-.49 8.962-8.442zm-.29 7.448l.184-6.059-4.395 4.183 4.21 1.876zm12.16.167q-.22-.696-.815-1.32-.588-.639-1.53-1.058-1.37-.611-2.233-.363-.857.234-1.251 1.119-.21.471-.173.847.038.376.279.757.261.373.734.772.486.405 1.152.907.752.54 1.306 1.06.576.514.9 1.052.325.538.358 1.117.053.571-.265 1.285t-.838 1.115q-.5.392-1.16.527-.658.134-1.419 0-.755-.148-1.568-.51-2.412-1.076-3.5-3.357l.889-.613q.138.42.402.864.27.428.653.838.402.402.894.758.491.356 1.09.623 1.242.553 2.125.416.902-.145 1.303-1.044.216-.486.163-.903-.054-.417-.345-.838-.277-.414-.786-.846-.503-.447-1.197-.961-.745-.555-1.27-1.028-.518-.488-.813-.978-.274-.499-.297-1.022-.023-.524.256-1.152.318-.713.838-1.149.525-.45 1.19-.599.671-.162 1.425-.049.76.1 1.573.462 1.042.464 1.716 1.14.673.677 1.075 1.54l-.862.591zm10.633 3.49l-3.696-1.647-4.223 9.477-1.028-.458 4.223-9.477-3.696-1.647.4-.9 8.421 3.753-.4.9zm7.653 6.695q-1.026-.423-2.003-.226-.978.198-1.699.971l-2.111 4.739-.985-.44 3.396-7.62.928.413-.814 1.827q.816-.68 1.752-.862.936-.181 1.764.188.114.05.18.097l-.408.913zm1.55 8.936q-.827-.369-1.387-.994-.545-.62-.817-1.39-.266-.786-.233-1.627t.395-1.654q.362-.814.96-1.386.603-.587 1.338-.892.755-.313 1.595-.316.839-.002 1.652.36.842.376 1.387.995.56.626.803 1.384.258.765.218 1.585-.026.827-.382 1.626l-.102.228q-.051.115-.084.151l-6.508-2.9q-.231.633-.224 1.269.014.622.213 1.172.22.543.61.974.39.43.946.678.372.165.773.224.415.066.791.028.397-.045.754-.194.372-.143.634-.385l.768.616q-.376.346-.857.542-.466.202-1.009.269-.528.072-1.1-.029-.577-.086-1.133-.334zm4.752-3.1q.23-.633.21-1.24-.013-.622-.225-1.144-.206-.537-.616-.96-.397-.415-.953-.663-.557-.248-1.145-.271-.575-.016-1.125.183-.53.191-.988.603-.443.419-.753 1l5.595 2.492zm3.485 6.77q-.785-.35-1.281-.964-.482-.608-.697-1.354-.194-.753-.14-1.567.076-.822.42-1.593.355-.799.945-1.392.603-.586 1.33-.912.727-.326 1.538-.341.817-.03 1.573.307.442.198.8.51.356.313.617.686.282.366.448.799.167.433.236.892l.668-1.499.885.394-4.192 9.406q-.184.414.18.593l-.38.857q-.17-.042-.313-.105l-.257-.115q-.33-.181-.458-.546-.114-.359.039-.701l1.691-3.797q-.938.609-1.863.727-.919.104-1.79-.284zm.687-.736q.443.197.892.226.455.014.885-.068.437-.096.84-.31.424-.221.768-.496l1.05-2.354q.12-.425.022-.897-.083-.465-.32-.895-.229-.444-.587-.792-.344-.342-.758-.526-.613-.273-1.248-.231-.628.028-1.204.284-.562.263-1.01.73-.448.468-.709 1.053-.273.614-.321 1.26-.049.645.124 1.218.186.58.571 1.059.406.471 1.005.739zm7.773 4.507q-1.241-.553-1.492-1.64-.231-1.095.5-2.737l1.997-4.481.985.439-1.92 4.31q-1.152 2.583.618 3.372.442.197.92.239.498.034.976-.079.498-.12.935-.37.457-.258.858-.66l2.137-4.796.985.439-2.824 6.337q-.184.413.173.572l-.388.871q-.184-.048-.298-.099-.115-.05-.157-.07-.337-.167-.463-.497-.106-.338.066-.723l.394-.885q-.9.677-1.973.78-1.072.104-2.029-.322zm9.58 4.27q-.827-.37-1.387-.995-.545-.62-.817-1.391-.266-.786-.233-1.626.033-.841.395-1.655.362-.813.96-1.385.603-.587 1.338-.892.755-.314 1.595-.316.839-.002 1.652.36.842.375 1.387.995.56.625.803 1.384.258.765.218 1.585-.026.827-.382 1.626l-.102.228q-.051.114-.084.15l-6.508-2.9q-.231.633-.224 1.27.014.622.213 1.172.22.543.61.973.39.43.946.679.372.165.773.224.415.066.792.028.396-.046.753-.194.372-.143.634-.385l.768.616q-.376.345-.857.542-.466.202-1.009.268-.528.073-1.1-.028-.577-.086-1.133-.334zm4.752-3.101q.23-.633.21-1.24-.013-.622-.225-1.144-.206-.537-.616-.96-.397-.415-.953-.663-.557-.248-1.145-.271-.575-.017-1.125.183-.53.191-.988.603-.443.419-.753.999l5.595 2.493zm3.07 6.586q-.898-.4-1.613-1.061-.709-.675-1.074-1.505l.741-.474q.407.814.957 1.384.556.556 1.313.893.913.407 1.62.278.723-.123 1.028-.808.146-.329.099-.606-.047-.278-.263-.562-.215-.284-.6-.61-.371-.32-.885-.702-.587-.45-1.002-.823-.395-.38-.62-.72-.224-.34-.248-.71-.023-.37.18-.826.255-.571.674-.898.425-.34.938-.454.512-.114 1.09-.028.598.079 1.183.34.87.387 1.457.99.6.61.819 1.272l-.732.376q-.23-.634-.75-1.121-.503-.481-1.16-.774-.4-.178-.78-.245-.36-.075-.693-.018-.333.057-.597.264-.264.208-.429.579-.134.3-.123.544.018.23.182.475.186.236.492.51.306.272.768.616.652.495 1.126.929.48.42.743.827.27.394.302.82.054.416-.156.887-.47 1.056-1.557 1.308-1.073.257-2.429-.347zm8.475 3.16l-.314.014q-.204-.005-.464-.035-.246-.024-.556-.094-.297-.064-.597-.198-.328-.146-.59-.365-.247-.213-.378-.494-.132-.28-.154-.616 0-.342.158-.7l2.43-5.451-1.042-.464.356-.8 1.042.465 1.145-2.57.999.446-1.145 2.569 1.755.782-.356.8-1.755-.783-2.303 5.167q-.162.44.02.761.182.32.525.474.428.19.806.187.392.004.503-.015l-.085.92zm3.54 2.193q-.9-.4-1.615-1.061-.708-.675-1.074-1.505l.741-.474q.407.815.957 1.385.557.556 1.313.893.913.407 1.621.277.722-.123 1.027-.808.147-.328.1-.606-.048-.277-.264-.562-.215-.284-.6-.61-.371-.319-.885-.702-.586-.45-1.002-.822-.394-.382-.62-.721-.224-.34-.248-.71-.023-.37.18-.826.255-.57.674-.897.425-.341.938-.455.512-.113 1.09-.027.598.078 1.183.339.87.388 1.457.991.6.61.819 1.272l-.732.375q-.23-.633-.749-1.12-.504-.482-1.16-.774-.4-.179-.78-.246-.36-.074-.694-.018-.333.057-.597.265-.263.207-.429.578-.133.3-.122.544.017.23.181.475.186.236.492.51.306.273.769.616.651.496 1.125.93.48.419.743.826.27.394.303.82.053.417-.157.888-.47 1.056-1.557 1.307-1.073.258-2.429-.347z" fill="#fff"/><path d="M587.449 449.608a7.375 7.375 0 0 1 7.375-7.375h81.218a7.375 7.375 0 0 1 7.375 7.375v29.501a7.375 7.375 0 0 1-7.375 7.376h-81.218a7.375 7.375 0 0 1-7.375-7.376z" fill="#400d9a" fill-rule="evenodd"/><path d="M587.449 449.608a7.375 7.375 0 0 1 7.375-7.375h81.218a7.375 7.375 0 0 1 7.375 7.375v29.501a7.375 7.375 0 0 1-7.375 7.376h-81.218a7.375 7.375 0 0 1-7.375-7.376z" stroke="#595959" stroke-linecap="butt" stroke-linejoin="round"/><path d="M605.72 458.202h1.016l5.11 12.297h-1.282l-1.593-3.844h-5.532l-1.578 3.844h-1.297l5.157-12.297zm2.97 7.5l-2.47-6.078-2.515 6.078h4.984zm12.275 4.797h-1.171v-5.047q0-1.61-.485-2.328-.468-.734-1.468-.734-.516 0-1.047.187-.516.188-.953.547-.438.344-.782.828-.343.469-.5 1.016v5.53h-1.187v-9.03h1.078v2.047q.547-.985 1.578-1.594 1.031-.61 2.25-.61.75 0 1.266.282.515.28.828.78.312.5.453 1.235.14.72.14 1.61v5.28zm4.775.172q-.641 0-1.188-.219-.531-.219-.953-.594-.406-.375-.625-.89-.219-.516-.219-1.11 0-.578.266-1.078.281-.515.781-.875t1.188-.562q.703-.203 1.53-.203.704 0 1.407.125.719.125 1.266.343v-.812q0-1.188-.672-1.89-.672-.704-1.875-.704-.688 0-1.422.281-.719.266-1.469.797l-.422-.781q1.75-1.188 3.407-1.188 1.687 0 2.656.954.984.953.984 2.64v4.063q0 .484.422.484v1.047q-.297.047-.453.047-.438 0-.703-.219-.25-.234-.266-.625l-.031-.703q-.625.812-1.578 1.25-.938.422-2.031.422zm.28-.906q.923 0 1.688-.344.782-.344 1.172-.922.156-.156.235-.328.078-.188.078-.344v-1.469q-.594-.218-1.235-.343-.625-.125-1.28-.125-1.25 0-2.032.53-.766.516-.766 1.36 0 .422.156.781.172.36.454.625.28.266.671.422.407.157.86.157zm6.96-11.922h1.172v10.61q0 .5.266.796.281.281.797.281.187 0 .437-.047.266-.062.485-.14l.218.953q-.328.14-.812.219-.469.093-.813.093-.828 0-1.297-.453-.453-.469-.453-1.297v-11.015zm5.167 15.422q.14.03.265.03.14.016.266.016.312 0 .484-.093.188-.078.36-.375.171-.297.39-.86.219-.547.61-1.484l-3.922-9.031h1.203l3.344 7.937 3.109-7.937h1.125l-4.688 11.64q-.187.516-.625.875-.437.375-1.203.375-.172 0-.328-.015-.156 0-.39-.032v-1.046zm8.11-3.563l6.11-7.344h-5.97v-.89h7.25v.797l-6.077 7.343h6.062v.89h-7.375v-.796zm13.197.969q-1 0-1.828-.375-.812-.375-1.422-1.016-.593-.656-.937-1.5-.344-.844-.344-1.828 0-.953.344-1.781.344-.844.937-1.469.594-.64 1.422-1.016.828-.375 1.813-.375.984 0 1.797.375.828.375 1.422 1.016.593.64.921 1.469.329.828.329 1.765v.282q0 .14-.016.187h-7.734q.046.735.328 1.36.297.609.75 1.062.453.438 1.03.688.579.25 1.235.25.438 0 .86-.11.437-.125.797-.328.375-.219.656-.516.297-.312.453-.671l1.031.28q-.203.5-.594.907-.375.406-.89.719-.5.297-1.11.453-.593.172-1.25.172zm3.329-5.156q-.063-.735-.344-1.329-.281-.593-.735-1.03-.437-.438-1.015-.673-.578-.25-1.235-.25-.656 0-1.25.25-.593.235-1.03.672-.438.438-.72 1.047-.265.594-.312 1.313h6.64zm7.452-3q-1.203.03-2.093.656-.875.625-1.235 1.719v5.609h-1.187v-9.031h1.11v2.172q.5-1.047 1.343-1.625.86-.594 1.828-.594.14 0 .234.015v1.079z" fill="#fff"/><path d="M587.449 367.57a7.375 7.375 0 0 1 7.375-7.376h81.218a7.375 7.375 0 0 1 7.375 7.375v29.502a7.375 7.375 0 0 1-7.375 7.375h-81.218a7.375 7.375 0 0 1-7.375-7.375z" fill="#400d9a" fill-rule="evenodd"/><path d="M587.449 367.57a7.375 7.375 0 0 1 7.375-7.376h81.218a7.375 7.375 0 0 1 7.375 7.375v29.502a7.375 7.375 0 0 1-7.375 7.375h-81.218a7.375 7.375 0 0 1-7.375-7.375z" stroke="#595959" stroke-linecap="butt" stroke-linejoin="round"/><path d="M605.72 376.163h1.016l5.11 12.297h-1.282l-1.593-3.844h-5.532l-1.578 3.844h-1.297l5.157-12.297zm2.97 7.5l-2.47-6.078-2.515 6.078h4.984zm12.275 4.797h-1.171v-5.047q0-1.61-.485-2.328-.468-.734-1.468-.734-.516 0-1.047.187-.516.188-.953.547-.438.344-.782.828-.343.469-.5 1.016v5.531h-1.187v-9.031h1.078v2.047q.547-.985 1.578-1.594 1.031-.61 2.25-.61.75 0 1.266.282.515.281.828.781.312.5.453 1.234.14.72.14 1.61v5.281zm4.775.172q-.641 0-1.188-.219-.531-.219-.953-.594-.406-.375-.625-.89-.219-.516-.219-1.11 0-.578.266-1.078.281-.515.781-.875t1.188-.562q.703-.203 1.53-.203.704 0 1.407.125.719.125 1.266.343v-.812q0-1.188-.672-1.89-.672-.704-1.875-.704-.688 0-1.422.281-.719.266-1.469.797l-.422-.781q1.75-1.188 3.407-1.188 1.687 0 2.656.954.984.953.984 2.64v4.063q0 .484.422.484v1.047q-.297.047-.453.047-.438 0-.703-.219-.25-.234-.266-.625l-.031-.703q-.625.813-1.578 1.25-.938.422-2.031.422zm.28-.906q.923 0 1.688-.344.782-.344 1.172-.922.156-.156.235-.328.078-.188.078-.344v-1.469q-.594-.218-1.235-.343-.625-.125-1.28-.125-1.25 0-2.032.53-.766.516-.766 1.36 0 .422.156.781.172.36.454.625.28.266.671.422.407.157.86.157zm6.96-11.922h1.172v10.61q0 .5.266.796.281.281.797.281.187 0 .437-.047.266-.062.485-.14l.218.953q-.328.14-.812.219-.469.093-.813.093-.828 0-1.297-.453-.453-.469-.453-1.297v-11.015zm5.167 15.422q.14.03.265.03.14.016.266.016.312 0 .484-.093.188-.078.36-.375.171-.297.39-.86.219-.547.61-1.484l-3.922-9.031h1.203l3.344 7.937 3.109-7.937h1.125l-4.688 11.64q-.187.516-.625.875-.437.375-1.203.375-.172 0-.328-.015-.156 0-.39-.031v-1.047zm8.11-3.563l6.11-7.344h-5.97v-.89h7.25v.797l-6.077 7.343h6.062v.891h-7.375v-.797zm13.197.969q-1 0-1.828-.375-.812-.375-1.422-1.016-.593-.656-.937-1.5-.344-.844-.344-1.828 0-.953.344-1.781.344-.844.937-1.469.594-.64 1.422-1.016.828-.375 1.813-.375.984 0 1.797.375.828.375 1.422 1.016.593.64.921 1.469.329.828.329 1.765v.282q0 .14-.016.187h-7.734q.046.735.328 1.36.297.609.75 1.062.453.438 1.03.688.579.25 1.235.25.438 0 .86-.11.437-.125.797-.328.375-.219.656-.516.297-.312.453-.671l1.031.28q-.203.5-.594.907-.375.406-.89.719-.5.297-1.11.453-.593.172-1.25.172zm3.329-5.156q-.063-.735-.344-1.329-.281-.593-.735-1.03-.437-.438-1.015-.673-.578-.25-1.235-.25-.656 0-1.25.25-.593.235-1.03.672-.438.438-.72 1.047-.265.594-.312 1.313h6.64zm7.452-3q-1.203.03-2.093.656-.875.625-1.235 1.719v5.609h-1.187v-9.031h1.11v2.172q.5-1.047 1.343-1.625.86-.594 1.828-.594.14 0 .234.015v1.079z" fill="#fff"/><path d="M587.449 285.53a7.375 7.375 0 0 1 7.375-7.375h81.218a7.375 7.375 0 0 1 7.375 7.376v29.5a7.375 7.375 0 0 1-7.375 7.376h-81.218a7.375 7.375 0 0 1-7.375-7.375z" fill="#400d9a" fill-rule="evenodd"/><path d="M587.449 285.53a7.375 7.375 0 0 1 7.375-7.375h81.218a7.375 7.375 0 0 1 7.375 7.376v29.5a7.375 7.375 0 0 1-7.375 7.376h-81.218a7.375 7.375 0 0 1-7.375-7.375z" stroke="#595959" stroke-linecap="butt" stroke-linejoin="round"/><path d="M605.72 294.124h1.016l5.11 12.297h-1.282l-1.593-3.844h-5.532l-1.578 3.844h-1.297l5.157-12.297zm2.97 7.5l-2.47-6.078-2.515 6.078h4.984zm12.275 4.797h-1.171v-5.047q0-1.61-.485-2.328-.468-.734-1.468-.734-.516 0-1.047.187-.516.188-.953.547-.438.344-.782.828-.343.469-.5 1.016v5.531h-1.187v-9.031h1.078v2.047q.547-.985 1.578-1.594 1.031-.61 2.25-.61.75 0 1.266.282.515.281.828.781.312.5.453 1.234.14.72.14 1.61v5.281zm4.775.172q-.641 0-1.188-.219-.531-.219-.953-.594-.406-.375-.625-.89-.219-.516-.219-1.11 0-.578.266-1.078.281-.515.781-.875t1.188-.562q.703-.203 1.53-.203.704 0 1.407.125.719.125 1.266.343v-.812q0-1.188-.672-1.89-.672-.704-1.875-.704-.688 0-1.422.281-.719.266-1.469.797l-.422-.78q1.75-1.188 3.407-1.188 1.687 0 2.656.953.984.953.984 2.64v4.063q0 .484.422.484v1.047q-.297.047-.453.047-.438 0-.703-.219-.25-.234-.266-.625l-.031-.703q-.625.813-1.578 1.25-.938.422-2.031.422zm.28-.906q.923 0 1.688-.344.782-.344 1.172-.922.156-.156.235-.328.078-.188.078-.344v-1.469q-.594-.218-1.235-.343-.625-.125-1.28-.125-1.25 0-2.032.53-.766.517-.766 1.36 0 .422.156.782.172.359.454.625.28.265.671.421.407.157.86.157zm6.96-11.922h1.172v10.61q0 .5.266.796.281.281.797.281.187 0 .437-.047.266-.062.485-.14l.218.953q-.328.14-.812.219-.469.093-.813.093-.828 0-1.297-.453-.453-.469-.453-1.297v-11.015zm5.167 15.422q.14.03.265.03.14.016.266.016.312 0 .484-.093.188-.078.36-.375.171-.297.39-.86.219-.546.61-1.484l-3.922-9.031h1.203l3.344 7.937 3.109-7.937h1.125l-4.688 11.64q-.187.516-.625.875-.437.375-1.203.375-.172 0-.328-.015-.156 0-.39-.031v-1.047zm8.11-3.563l6.11-7.344h-5.97v-.89h7.25v.797l-6.077 7.343h6.062v.891h-7.375v-.797zm13.197.969q-1 0-1.828-.375-.812-.375-1.422-1.016-.593-.656-.937-1.5-.344-.843-.344-1.828 0-.953.344-1.781.344-.844.937-1.469.594-.64 1.422-1.015.828-.375 1.813-.375.984 0 1.797.375.828.375 1.422 1.015.593.64.921 1.469.329.828.329 1.766v.28q0 .141-.016.188h-7.734q.046.735.328 1.36.297.61.75 1.062.453.438 1.03.688.579.25 1.235.25.438 0 .86-.11.437-.125.797-.328.375-.219.656-.515.297-.313.453-.672l1.031.28q-.203.5-.594.907-.375.406-.89.719-.5.297-1.11.453-.593.172-1.25.172zm3.329-5.156q-.063-.735-.344-1.328-.281-.594-.735-1.032-.437-.437-1.015-.672-.578-.25-1.235-.25-.656 0-1.25.25-.593.235-1.03.672-.438.438-.72 1.047-.265.594-.312 1.313h6.64zm7.452-3q-1.203.03-2.093.656-.875.625-1.235 1.719v5.61h-1.187v-9.032h1.11v2.172q.5-1.047 1.343-1.625.86-.594 1.828-.594.14 0 .234.016v1.078z" fill="#fff"/><path d="M380.797 367.503a7.375 7.375 0 0 1 7.375-7.375h81.218a7.375 7.375 0 0 1 7.375 7.375v29.501a7.376 7.376 0 0 1-7.375 7.376h-81.218a7.375 7.375 0 0 1-7.375-7.376z" fill="#400d9a" fill-rule="evenodd"/><path d="M380.797 367.503a7.375 7.375 0 0 1 7.375-7.375h81.218a7.375 7.375 0 0 1 7.375 7.375v29.501a7.376 7.376 0 0 1-7.375 7.376h-81.218a7.375 7.375 0 0 1-7.375-7.376z" stroke="#595959" stroke-linecap="butt" stroke-linejoin="round"/><path d="M397.17 377.894v-12.297h1.204v11.219h7.109v1.078h-8.312zm13.697.172q-.985 0-1.797-.375-.813-.375-1.422-1.016-.594-.64-.922-1.484-.328-.844-.328-1.782 0-.953.344-1.797.343-.859.937-1.5.594-.64 1.406-1.015.813-.39 1.782-.39.968 0 1.796.39.829.375 1.422 1.015.594.641.938 1.5.344.844.344 1.797 0 .938-.344 1.782-.328.843-.922 1.484-.594.64-1.422 1.016-.812.375-1.812.375zm-3.266-4.641q0 .766.25 1.422.266.64.703 1.14.453.485 1.047.766.594.281 1.266.281.687 0 1.28-.28.595-.298 1.048-.782.453-.5.703-1.156.265-.672.265-1.422 0-.75-.265-1.407-.25-.671-.703-1.171-.453-.5-1.047-.782-.594-.28-1.281-.28-.672 0-1.266.28-.578.282-1.031.797-.453.5-.72 1.172-.25.656-.25 1.422zm13.576 4.64q-.985 0-1.797-.374-.813-.375-1.422-1.016-.594-.64-.922-1.484-.328-.844-.328-1.782 0-.953.344-1.797.343-.859.937-1.5.594-.64 1.406-1.015.813-.39 1.782-.39.968 0 1.797.39.828.375 1.421 1.015.594.641.938 1.5.344.844.344 1.797 0 .938-.344 1.782-.328.843-.922 1.484-.594.64-1.422 1.016-.812.375-1.812.375zm-3.266-4.64q0 .766.25 1.422.266.64.703 1.14.453.485 1.047.766.594.281 1.266.281.687 0 1.28-.28.595-.298 1.048-.782.453-.5.703-1.156.266-.672.266-1.422 0-.75-.266-1.407-.25-.671-.703-1.171-.453-.5-1.047-.782-.594-.28-1.281-.28-.672 0-1.266.28-.578.282-1.031.797-.453.5-.719 1.172-.25.656-.25 1.422zm16.185 4.469l-3.328-4.625-1.937 1.797v2.828h-1.188v-12.657h1.188v8.594l5.078-4.953h1.328l-3.688 3.703 3.829 5.313h-1.282zm6.575.172q-.985 0-1.797-.375-.813-.375-1.422-1.016-.594-.64-.922-1.484-.328-.844-.328-1.782 0-.953.344-1.797.343-.859.937-1.5.594-.64 1.406-1.015.813-.39 1.782-.39.968 0 1.797.39.828.375 1.421 1.015.594.641.938 1.5.344.844.344 1.797 0 .938-.344 1.782-.328.843-.922 1.484-.594.64-1.422 1.016-.812.375-1.812.375zm-3.266-4.641q0 .766.25 1.422.266.64.703 1.14.453.485 1.047.766.594.281 1.266.281.687 0 1.281-.28.594-.298 1.047-.782.453-.5.703-1.156.266-.672.266-1.422 0-.75-.266-1.407-.25-.671-.703-1.171-.453-.5-1.047-.782-.594-.28-1.281-.28-.672 0-1.266.28-.578.282-1.031.797-.453.5-.719 1.172-.25.656-.25 1.422zm12.56 4.64q-1.468 0-2.187-.968-.719-.985-.719-2.922v-5.313h1.172v5.094q0 3.078 2.094 3.078.515 0 1.015-.172.516-.187.938-.515.422-.328.75-.766.344-.453.562-1.031v-5.688h1.172v7.5q0 .485.422.485v1.047q-.219.03-.344.03h-.187q-.406-.015-.672-.28-.25-.282-.25-.75v-1.047q-.594 1.062-1.61 1.64-1.015.579-2.156.579zm11.793-.609q-.094.063-.297.156-.203.079-.468.172-.25.078-.579.14-.328.079-.687.079-.39 0-.734-.11-.344-.109-.61-.312-.25-.219-.406-.547-.156-.343-.156-.765v-6.47h-1.25v-.937h1.25v-3.046h1.172v3.046h2.078v.938h-2.078v6.14q.03.5.343.735.328.234.75.234.5 0 .875-.156.39-.172.485-.25l.312.953zM407.987 399.066q-1.063 0-2.063-.344-1-.344-1.734-1l.547-.797q.75.61 1.531.922.797.312 1.703.312 1.094 0 1.734-.437.657-.438.657-1.25 0-.39-.172-.64t-.516-.438q-.328-.188-.844-.328-.515-.157-1.187-.313-.781-.187-1.36-.375-.562-.203-.937-.437-.375-.25-.562-.594-.172-.36-.172-.906 0-.672.265-1.188.266-.516.72-.86.468-.343 1.077-.515.625-.172 1.313-.172 1.047 0 1.89.344.844.328 1.375.89l-.578.688q-.5-.516-1.219-.766-.718-.265-1.5-.265-.468 0-.875.093-.39.094-.703.313-.297.203-.468.531-.172.313-.172.735 0 .375.11.593.124.22.405.391.282.172.703.297.422.125 1.032.265.86.204 1.515.422.672.203 1.11.485.437.265.656.672.234.39.234.968 0 1.25-.953 1.985-.953.719-2.562.719zm9.345 0q-1 0-1.828-.375-.813-.375-1.422-1.016-.594-.656-.938-1.5t-.344-1.828q0-.953.344-1.781.344-.844.938-1.47.593-.64 1.422-1.015.828-.375 1.812-.375.984 0 1.797.375.828.375 1.422 1.016.594.64.922 1.469.328.828.328 1.765v.281q0 .141-.016.188h-7.734q.047.734.328 1.36.297.609.75 1.062.453.437 1.031.687.578.25 1.235.25.437 0 .859-.11.438-.124.797-.327.375-.219.656-.516.297-.312.453-.672l1.031.282q-.203.5-.593.906-.375.406-.89.719-.5.296-1.11.453-.594.172-1.25.172zm3.328-5.157q-.063-.734-.344-1.328-.281-.594-.734-1.031-.438-.438-1.016-.672-.578-.25-1.234-.25-.657 0-1.25.25-.594.234-1.032.672-.437.437-.718 1.047-.266.594-.313 1.312h6.64zm7.453-3q-1.203.031-2.094.657-.875.625-1.234 1.718v5.61h-1.188v-9.032h1.11v2.172q.5-1.047 1.343-1.625.86-.593 1.828-.593.14 0 .235.015v1.078zm4.27 7.985l-3.673-9.032h1.22l3.093 7.938 3.125-7.938h1.14l-3.671 9.032h-1.235zm10.438.172q-1 0-1.828-.375-.812-.375-1.422-1.016-.594-.656-.937-1.5-.344-.844-.344-1.828 0-.953.344-1.781.343-.844.937-1.47.594-.64 1.422-1.015.828-.375 1.813-.375.984 0 1.796.375.829.375 1.422 1.016.594.64.922 1.469.328.828.328 1.765v.281q0 .141-.015.188h-7.735q.047.734.329 1.36.296.609.75 1.062.453.437 1.03.687.579.25 1.235.25.438 0 .86-.11.437-.124.796-.327.375-.219.657-.516.297-.312.453-.672l1.031.282q-.203.5-.594.906-.375.406-.89.719-.5.296-1.11.453-.593.172-1.25.172zm3.328-5.157q-.062-.734-.343-1.328-.282-.594-.735-1.031-.437-.438-1.015-.672-.579-.25-1.235-.25-.656 0-1.25.25-.594.234-1.031.672-.438.437-.719 1.047-.265.594-.312 1.312h6.64zm7.453-3q-1.203.031-2.094.657-.875.625-1.234 1.718v5.61h-1.187v-9.032h1.109v2.172q.5-1.047 1.344-1.625.86-.593 1.828-.593.14 0 .234.015v1.078z" fill="#fff"/><path d="M169.551 367.489a7.375 7.375 0 0 1 7.376-7.376h81.217a7.375 7.375 0 0 1 7.376 7.376v29.5a7.375 7.375 0 0 1-7.376 7.376h-81.217a7.375 7.375 0 0 1-7.376-7.375z" fill="#400d9a" fill-rule="evenodd"/><path d="M169.551 367.489a7.375 7.375 0 0 1 7.376-7.376h81.217a7.375 7.375 0 0 1 7.376 7.376v29.5a7.375 7.375 0 0 1-7.376 7.376h-81.217a7.375 7.375 0 0 1-7.376-7.375z" stroke="#595959" stroke-linecap="butt" stroke-linejoin="round"/><path d="M200.092 386.582q-1.719 1.891-3.953 1.891-1.25 0-2.297-.531-1.047-.547-1.828-1.422-.766-.89-1.203-2-.422-1.125-.422-2.313 0-1.234.422-2.359t1.187-1.969q.766-.86 1.797-1.375 1.047-.515 2.266-.515.906 0 1.64.203.75.203 1.329.562.593.344 1.015.844.422.484.719 1.078l-.937.625q-.61-1.14-1.579-1.672-.968-.547-2.203-.547-1.015 0-1.843.438-.829.422-1.407 1.14-.578.72-.89 1.657-.313.922-.313 1.906 0 1.047.36 1.984.359.938.984 1.641.625.688 1.453 1.11.844.421 1.828.421 1.063 0 2.016-.5.969-.5 1.86-1.562v-2.047h-2.75v-.938h3.765v6.047h-1.016v-1.797zm3.266 1.797v-9.031h1.188v9.031h-1.188zm0-10.922v-1.734h1.188v1.734h-1.188zm8.106 10.485q-.094.062-.297.156-.203.078-.469.172-.25.078-.578.14-.328.079-.687.079-.39 0-.735-.11-.343-.11-.609-.312-.25-.219-.406-.547-.156-.344-.156-.766v-6.469h-1.25v-.937h1.25v-3.047h1.171v3.047h2.079v.937h-2.079v6.141q.032.5.344.734.328.235.75.235.5 0 .875-.156.39-.172.485-.25l.312.953zm11.43-11.86v12.297h-1.203v-5.75h-7.297v5.75h-1.203v-12.297h1.203v5.47h7.297v-5.47h1.203zm5.663 12.47q-1.469 0-2.188-.97-.718-.984-.718-2.921v-5.313h1.172v5.094q0 3.078 2.093 3.078.516 0 1.016-.172.516-.187.937-.516.422-.328.75-.765.344-.453.563-1.031v-5.688h1.172v7.5q0 .484.422.484v1.047q-.219.031-.344.031h-.188q-.406-.015-.671-.28-.25-.282-.25-.75v-1.048q-.594 1.063-1.61 1.641-1.015.578-2.156.578zm11.887 0q-1.079 0-1.97-.532-.89-.547-1.39-1.39v1.75h-1.062v-12.657h1.187v5.516q.594-.922 1.438-1.485.86-.562 1.984-.562.953 0 1.703.406.766.39 1.281 1.063.532.671.813 1.515.297.828.297 1.719 0 .953-.328 1.797t-.907 1.484q-.562.625-1.359 1-.781.375-1.687.375zm-.282-1.032q.75 0 1.36-.297.625-.312 1.062-.828.438-.516.688-1.156.25-.657.25-1.344 0-.719-.235-1.375-.234-.656-.656-1.156-.422-.516-1.016-.813-.593-.312-1.312-.312-.531 0-1 .187-.469.172-.875.485-.39.312-.703.718-.313.407-.516.86v2.812q.063.469.36.875.312.406.734.703.422.282.906.469.5.172.953.172z" fill="#fff"/><path d="M363.546 352.612L283.2 314.88" fill="none"/><path d="M363.546 352.612l-74.915-35.182" stroke="#fff" stroke-linecap="butt" stroke-linejoin="round"/><path d="M289.333 315.935l-4.81-.434 3.406 3.425z" fill="#fff" fill-rule="evenodd" stroke="#fff" stroke-linecap="butt"/><path d="M169.551 285.53a7.375 7.375 0 0 1 7.376-7.375h81.217a7.375 7.375 0 0 1 7.376 7.376v29.5a7.375 7.375 0 0 1-7.376 7.376h-81.217a7.375 7.375 0 0 1-7.376-7.375z" fill="#400d9a" fill-rule="evenodd"/><path d="M169.551 285.53a7.375 7.375 0 0 1 7.376-7.375h81.217a7.375 7.375 0 0 1 7.376 7.376v29.5a7.375 7.375 0 0 1-7.376 7.376h-81.217a7.375 7.375 0 0 1-7.376-7.375z" stroke="#595959" stroke-linecap="butt" stroke-linejoin="round"/><path d="M192.058 303.234q0 .672-.266 1.235-.265.547-.718.953-.453.406-1.047.64-.594.22-1.281.22h-5.579v-11.829h5.688q.625 0 1.125.266.5.265.844.703.359.422.547.969.187.53.187 1.078 0 .906-.453 1.656-.438.734-1.25 1.094 1.016.297 1.61 1.125.593.812.593 1.89zm-1.172-.203q0-.437-.156-.844-.14-.406-.422-.703-.266-.312-.64-.5-.376-.203-.813-.203h-4.531v4.485h4.422q.453 0 .843-.172.39-.188.672-.5.297-.313.453-.719.172-.406.172-.844zm-6.562-7.562v4.36h4.078q.422 0 .797-.173.375-.187.64-.484.266-.297.422-.688.156-.39.156-.828 0-.453-.156-.844-.14-.406-.406-.687-.25-.297-.594-.469-.344-.187-.765-.187h-4.172zm11.89 10.984q-.625 0-1.157-.203-.515-.219-.906-.578-.39-.375-.61-.86-.218-.5-.218-1.062 0-.563.266-1.047.265-.484.75-.828.484-.36 1.14-.547.672-.187 1.485-.187.656 0 1.343.125.688.109 1.219.312v-.781q0-1.14-.656-1.813-.64-.687-1.797-.687-.672 0-1.375.281-.688.266-1.406.75l-.407-.734q1.688-1.14 3.266-1.14 1.64 0 2.563.921.937.906.937 2.531v3.906q0 .47.422.47v1q-.281.046-.438.046-.437 0-.671-.219-.235-.218-.266-.593l-.031-.688q-.594.781-1.5 1.203-.907.422-1.953.422zm.265-.875q.875 0 1.61-.328.75-.328 1.14-.89.14-.141.219-.313.078-.188.078-.328v-1.422q-.578-.219-1.187-.328-.594-.125-1.235-.125-1.203 0-1.953.5t-.75 1.328q0 .39.156.75.172.344.438.61.281.25.656.406.39.14.828.14zm10.875.875q-1.032 0-1.891-.515-.86-.516-1.344-1.344v1.687h-1.015v-12.156h1.125v5.297q.593-.89 1.406-1.422.812-.547 1.906-.547.906 0 1.625.39.735.376 1.235 1.016.515.641.78 1.454.282.812.282 1.656 0 .922-.312 1.734-.313.813-.875 1.422-.547.61-1.313.969-.75.36-1.61.36zm-.266-1q.719 0 1.297-.297.594-.297 1.016-.781.437-.5.671-1.11.25-.624.25-1.296 0-.688-.234-1.313-.219-.64-.625-1.125-.406-.5-.984-.781-.578-.297-1.266-.297-.516 0-.969.172-.437.172-.828.484-.375.297-.687.688-.297.39-.5.828v2.688q.078.453.359.843.297.39.703.672.406.281.875.453.485.172.922.172zm10.043 1q-.954 0-1.75-.36-.782-.359-1.375-.984-.579-.625-.907-1.437-.312-.828-.312-1.75t.312-1.719q.328-.812.907-1.422.578-.61 1.375-.969.796-.359 1.734-.359.937 0 1.734.36.797.359 1.36.984.562.61.875 1.406.328.797.328 1.703v.266q0 .125-.016.172h-7.437q.047.703.328 1.297.281.593.703 1.03.437.423.984.673.563.234 1.203.234.422 0 .829-.11.421-.124.765-.312.36-.203.64-.5.282-.297.438-.64l.969.265q-.187.485-.562.875-.36.39-.844.688-.485.281-1.078.437-.578.172-1.203.172zm3.187-4.969q-.047-.703-.328-1.265-.266-.578-.688-1-.421-.422-.984-.64-.562-.235-1.187-.235-.641 0-1.204.234-.562.219-1 .64-.421.423-.687 1-.25.579-.297 1.266h6.375zm2.887-7.359h1.14v10.188q0 .484.266.765.265.266.75.266.172 0 .422-.047t.468-.125l.204.906q-.313.14-.782.219-.453.078-.781.078-.781 0-1.234-.438-.453-.437-.453-1.234v-10.578zm4.905 12.156V298.5h-1.203v-.89h1.203v-.235q0-1.61.672-2.516.687-.906 1.875-.906.516 0 1 .156.484.141.828.391l-.344.828q-.234-.187-.578-.281-.344-.11-.687-.11-.813 0-1.235.625-.406.61-.406 1.782v.265h2.406v.891h-2.406v7.781h-1.125zm5.075 0v-8.672h1.125v8.672h-1.125zm0-10.5v-1.656h1.125v1.656h-1.125zm6.506 10.672q-1.016 0-1.985-.328-.953-.344-1.656-.969l.516-.781q.734.61 1.484.906.766.297 1.625.297 1.047 0 1.672-.422t.625-1.203q0-.375-.172-.61-.156-.25-.484-.421-.313-.188-.813-.328-.484-.14-1.14-.297-.75-.172-1.297-.36-.547-.187-.907-.421-.359-.235-.546-.579-.172-.343-.172-.859 0-.64.265-1.14.266-.5.703-.829.438-.328 1.032-.484.593-.172 1.25-.172 1 0 1.812.328.828.328 1.328.86l-.547.656q-.484-.5-1.187-.75-.688-.25-1.438-.25-.453 0-.843.094-.375.093-.672.296-.281.204-.453.516-.157.297-.157.719 0 .344.11.562.125.22.39.375.266.157.672.282.407.125.985.265.843.188 1.468.39.641.204 1.063.47.422.265.64.656.22.375.22.922 0 1.203-.923 1.906-.906.703-2.468.703zm12.533-.172h-1.14v-4.844q0-1.484-.516-2.218-.5-.735-1.484-.735-.47 0-.954.204-.468.187-.89.515t-.735.781q-.296.454-.453.985v5.312h-1.125v-12.156h1.125v5.438q.516-.97 1.438-1.532.922-.578 1.984-.578.75 0 1.266.281.515.266.844.766.343.484.484 1.188.156.687.156 1.515v5.078z" fill="#fff"/></g></svg>