<svg xmlns="http://www.w3.org/2000/svg" version="1.2" width="481.142" height="335.215" viewBox="0 0 12730.222 8869.222" preserveAspectRatio="xMidYMid" fill-rule="evenodd" stroke-width="28.222" stroke-linejoin="round"><defs class="ClipPathGroup"><clipPath id="a"><path d="M0 0h21000v29700H0z"/></clipPath></defs><g class="SlideGroup"><g class="Slide" clip-path="url(#a)" transform="translate(-3524.889 -2890.889)"><g class="Page"><g class="com.sun.star.drawing.CustomShape"><path class="BoundingBox" fill="none" d="M8619 2904h2544v1274H8619z"/><path d="M8831 2905c-106 0-211 105-211 211v848c0 106 105 212 211 212h2118c106 0 212-106 212-212v-848c0-106-106-211-212-211zm-211 0zm2541 1271z" fill="#400d9a"/><path d="M8831 2905c-106 0-211 105-211 211v848c0 106 105 212 211 212h2118c106 0 212-106 212-212v-848c0-106-106-211-212-211z" fill="none" stroke="#595959"/><text class="TextShape"><tspan class="TextParagraph" font-size="635" font-weight="400" font-family="'PT Sans',sans-serif"><tspan class="TextPosition" x="9230" y="3777"><tspan fill="#fff">a &gt; 5</tspan></tspan></tspan></text></g><g class="com.sun.star.drawing.CustomShape"><path class="BoundingBox" fill="none" d="M5062 5444h2543v1274H5062z"/><path d="M5274 5445c-106 0-211 105-211 211v848c0 106 105 212 211 212h2117c106 0 212-106 212-212v-848c0-106-106-211-212-211zm-211 0zm2540 1271z" fill="#400d9a"/><path d="M5274 5445c-106 0-211 105-211 211v848c0 106 105 212 211 212h2117c106 0 212-106 212-212v-848c0-106-106-211-212-211z" fill="none" stroke="#595959"/><text class="TextShape"><tspan class="TextParagraph" font-size="635" font-weight="400" font-family="'PT Sans',sans-serif"><tspan class="TextPosition" x="5658" y="6317"><tspan fill="#fff">b &gt; 1</tspan></tspan></tspan></text></g><g class="com.sun.star.drawing.CustomShape"><path class="BoundingBox" fill="none" d="M12048 5444h2544v1274h-2544z"/><path d="M12260 5445c-106 0-211 105-211 211v848c0 106 105 212 211 212h2118c106 0 212-106 212-212v-848c0-106-106-211-212-211zm-211 0zm2541 1271z" fill="#400d9a"/><path d="M12260 5445c-106 0-211 105-211 211v848c0 106 105 212 211 212h2118c106 0 212-106 212-212v-848c0-106-106-211-212-211z" fill="none" stroke="#595959"/><text class="TextShape"><tspan class="TextParagraph" font-size="635" font-weight="400" font-family="'PT Sans',sans-serif"><tspan class="TextPosition" x="12248" y="6317"><tspan fill="#fff">c is true</tspan></tspan></tspan></text></g><g class="com.sun.star.drawing.CustomShape"><path class="BoundingBox" fill="none" d="M3538 7935h2543v1274H3538z"/><path d="M3750 7936c-106 0-211 105-211 211v848c0 106 105 212 211 212h2117c106 0 212-106 212-212v-848c0-106-106-211-212-211zm-211 0zm2540 1271z" fill="#400d9a"/><path d="M3750 7936c-106 0-211 105-211 211v848c0 106 105 212 211 212h2117c106 0 212-106 212-212v-848c0-106-106-211-212-211z" fill="none" stroke="#595959"/><text class="TextShape"><tspan class="TextParagraph" font-size="635" font-weight="400" font-family="'PT Sans',sans-serif"><tspan class="TextPosition" x="3640" y="8808"><tspan fill="#fff">c is false</tspan></tspan></tspan></text></g><g class="com.sun.star.drawing.CustomShape"><path class="BoundingBox" fill="none" d="M6714 7935h2544v1274H6714z"/><path d="M6926 7936c-106 0-211 105-211 211v848c0 106 105 212 211 212h2118c106 0 212-106 212-212v-848c0-106-106-211-212-211zm-211 0zm2541 1271z" fill="#400d9a"/><path d="M6926 7936c-106 0-211 105-211 211v848c0 106 105 212 211 212h2118c106 0 212-106 212-212v-848c0-106-106-211-212-211z" fill="none" stroke="#595959"/><text class="TextShape"><tspan class="TextParagraph" font-size="635" font-weight="400" font-family="'PT Sans',sans-serif"><tspan class="TextPosition" x="7310" y="8808"><tspan fill="#fff">b &lt; 4</tspan></tspan></tspan></text></g><g class="com.sun.star.drawing.CustomShape"><path class="BoundingBox" fill="none" d="M10524 7935h2544v1274h-2544z"/><path d="M10736 7936c-106 0-211 105-211 211v848c0 106 105 212 211 212h2118c106 0 212-106 212-212v-848c0-106-106-211-212-211zm-211 0zm2541 1271z" fill="#400d9a"/><path d="M10736 7936c-106 0-211 105-211 211v848c0 106 105 212 211 212h2118c106 0 212-106 212-212v-848c0-106-106-211-212-211z" fill="none" stroke="#595959"/><text class="TextShape"><tspan class="TextParagraph" font-size="635" font-weight="400" font-family="'PT Sans',sans-serif"><tspan class="TextPosition" x="10961" y="8808"><tspan fill="#fff">a &lt; 10</tspan></tspan></tspan></text></g><g class="com.sun.star.drawing.CustomShape"><path class="BoundingBox" fill="none" d="M13699 7935h2544v1274h-2544z"/><path d="M13911 7936c-106 0-211 105-211 211v848c0 106 105 212 211 212h2118c106 0 212-106 212-212v-848c0-106-106-211-212-211zm-211 0zm2541 1271z" fill="#400d9a"/><path d="M13911 7936c-106 0-211 105-211 211v848c0 106 105 212 211 212h2118c106 0 212-106 212-212v-848c0-106-106-211-212-211z" fill="none" stroke="#595959"/><text class="TextShape"><tspan class="TextParagraph" font-size="635" font-weight="400" font-family="'PT Sans',sans-serif"><tspan class="TextPosition" x="14295" y="8808"><tspan fill="#fff">b &gt; 2</tspan></tspan></tspan></text></g><g class="com.sun.star.drawing.ConnectorShape"><path class="BoundingBox" fill="none" d="M6333 4174h3559v1272H6333z"/><path d="M9890 4175L6607 5347" fill="none" stroke="#fff"/><path d="M6333 5445l321-7-68-191z" fill="#fff"/></g><g class="com.sun.star.drawing.ConnectorShape"><path class="BoundingBox" fill="none" d="M9889 4174h3431v1272H9889z"/><path d="M9890 4175l3156 1169" fill="none" stroke="#fff"/><path d="M13319 5445l-250-201-71 190z" fill="#fff"/></g><g class="com.sun.star.drawing.ConnectorShape"><path class="BoundingBox" fill="none" d="M4809 6714h1526v1223H4809z"/><path d="M6333 6715L5036 7754" fill="none" stroke="#fff"/><path d="M4809 7936l301-111-127-159z" fill="#fff"/></g><g class="com.sun.star.drawing.ConnectorShape"><path class="BoundingBox" fill="none" d="M6332 6714h1654v1223H6332z"/><path d="M6333 6715l1418 1048" fill="none" stroke="#fff"/><path d="M7985 7936l-185-263-120 164z" fill="#fff"/></g><g class="com.sun.star.drawing.ConnectorShape"><path class="BoundingBox" fill="none" d="M11795 6714h1526v1223h-1526z"/><path d="M13319 6715l-1297 1039" fill="none" stroke="#fff"/><path d="M11795 7936l301-111-127-159z" fill="#fff"/></g><g class="com.sun.star.drawing.ConnectorShape"><path class="BoundingBox" fill="none" d="M13318 6714h1653v1223h-1653z"/><path d="M13319 6715l1417 1048" fill="none" stroke="#fff"/><path d="M14970 7936l-184-263-121 164z" fill="#fff"/></g><g class="com.sun.star.drawing.CustomShape"><path class="BoundingBox" fill="none" d="M3539 10475h2544v1274H3539z"/><path d="M4810 10476c720 0 1270 275 1270 635s-550 635-1270 635-1270-275-1270-635 550-635 1270-635z" fill="none" stroke="#595959"/><text class="TextShape"><tspan class="TextParagraph" font-size="635" font-weight="400" font-family="'PT Sans',sans-serif"><tspan class="TextPosition" x="4601" y="11348"><tspan fill="#fff">α</tspan></tspan></tspan></text></g><g class="com.sun.star.drawing.CustomShape"><path class="BoundingBox" fill="none" d="M6714 10475h2544v1274H6714z"/><path d="M7985 10476c720 0 1270 275 1270 635s-550 635-1270 635-1270-275-1270-635 550-635 1270-635z" fill="none" stroke="#595959"/><text class="TextShape"><tspan class="TextParagraph" font-size="635" font-weight="400" font-family="'PT Sans',sans-serif"><tspan class="TextPosition" x="7782" y="11348"><tspan fill="#fff">β</tspan></tspan></tspan></text></g><g class="com.sun.star.drawing.CustomShape"><path class="BoundingBox" fill="none" d="M10524 10475h2544v1274h-2544z"/><path d="M11795 10476c720 0 1270 275 1270 635s-550 635-1270 635-1270-275-1270-635 550-635 1270-635z" fill="none" stroke="#595959"/><text class="TextShape"><tspan class="TextParagraph" font-size="635" font-weight="400" font-family="'PT Sans',sans-serif"><tspan class="TextPosition" x="11607" y="11348"><tspan fill="#fff">γ</tspan></tspan></tspan></text></g><g class="com.sun.star.drawing.CustomShape"><path class="BoundingBox" fill="none" d="M13699 10475h2544v1274h-2544z"/><path d="M14970 10476c720 0 1270 275 1270 635s-550 635-1270 635-1270-275-1270-635 550-635 1270-635z" fill="none" stroke="#595959"/><text class="TextShape"><tspan class="TextParagraph" font-size="635" font-weight="400" font-family="'PT Sans',sans-serif"><tspan class="TextPosition" x="14761" y="11348"><tspan fill="#fff">α</tspan></tspan></tspan></text></g><g class="com.sun.star.drawing.ConnectorShape"><path class="BoundingBox" fill="none" d="M4708 9205h205v1272h-205z"/><path d="M4809 9206l1 979" fill="none" stroke="#fff"/><path d="M4810 10476l101-305-203 1z" fill="#fff"/></g><g class="com.sun.star.drawing.ConnectorShape"><path class="BoundingBox" fill="none" d="M7883 9205h205v1272h-205z"/><path d="M7985 9206v979" fill="none" stroke="#fff"/><path d="M7985 10476l102-304h-203z" fill="#fff"/></g><g class="com.sun.star.drawing.ConnectorShape"><path class="BoundingBox" fill="none" d="M11693 9205h205v1272h-205z"/><path d="M11795 9206v979" fill="none" stroke="#fff"/><path d="M11795 10476l102-304h-203z" fill="#fff"/></g><g class="com.sun.star.drawing.ConnectorShape"><path class="BoundingBox" fill="none" d="M14868 9205h205v1272h-205z"/><path d="M14970 9206v979" fill="none" stroke="#fff"/><path d="M14970 10476l102-304h-203z" fill="#fff"/></g></g></g></g></svg>