<svg xmlns="http://www.w3.org/2000/svg" viewBox="0 0 816.27655 196.66405" stroke-miterlimit="10" width="816.277" height="196.664" fill="none" stroke-linecap="square"><clipPath id="a"><path d="M0 0h960v540H0V0z"/></clipPath><g clip-path="url(#a)" transform="translate(-133.15 -100.297)"><path d="M292.241 100.297H654.92v53.92H292.24z" fill="none"/><path d="M311.262 148.103q-2.437 0-4.766-.797-2.312-.813-4-2.328l1.25-1.844q1.75 1.438 3.563 2.156 1.828.72 3.906.72 2.531 0 4.031-1.017 1.5-1.015 1.5-2.89 0-.89-.406-1.469-.406-.578-1.187-1.016-.766-.437-1.953-.78-1.172-.345-2.735-.704-1.812-.437-3.125-.875-1.312-.437-2.187-1-.86-.562-1.282-1.375-.406-.828-.406-2.062 0-1.563.61-2.766.625-1.203 1.687-1.984 1.063-.782 2.469-1.172 1.422-.407 3.031-.407 2.39 0 4.344.782 1.969.781 3.172 2.062l-1.313 1.594q-1.172-1.188-2.828-1.781-1.656-.61-3.453-.61-1.078 0-2 .22-.922.218-1.625.702-.703.469-1.11 1.219-.39.734-.39 1.734 0 .844.281 1.36.281.515.922.906.64.375 1.61.672.984.297 2.39.625 2 .484 3.516.969 1.515.468 2.531 1.109 1.031.64 1.547 1.562.531.922.531 2.235 0 2.89-2.203 4.578-2.203 1.672-5.922 1.672zm22.964-18.844q-2.765.078-4.812 1.516-2.031 1.437-2.875 3.968v12.954h-2.719v-20.844h2.563v5q1.156-2.39 3.11-3.75 1.968-1.36 4.202-1.36.328 0 .531.032v2.484zm2.197 7.953q0-2.203.75-4.156.765-1.953 2.14-3.406 1.39-1.469 3.313-2.313 1.922-.844 4.234-.844 2.953 0 5.156 1.344 2.204 1.344 3.329 3.625l-2.641.828q-.89-1.593-2.469-2.484-1.578-.906-3.5-.906-1.594 0-2.984.64-1.375.641-2.39 1.75-1.016 1.094-1.61 2.61-.578 1.515-.578 3.312 0 1.766.593 3.328.61 1.563 1.641 2.703 1.047 1.141 2.422 1.797 1.39.657 2.953.657 1 0 1.969-.282.984-.28 1.828-.78.844-.5 1.437-1.142.61-.64.844-1.359l2.688.797q-.453 1.125-1.297 2.062-.828.938-1.969 1.641-1.14.703-2.531 1.078-1.375.39-2.844.39-2.281 0-4.203-.859-1.922-.859-3.328-2.359-1.39-1.5-2.172-3.453-.781-1.969-.781-4.219zm22.99.844v-2.516h11.688v2.516h-11.687zm25.85 10.047q-2.157 0-4-.906-1.844-.907-3.172-2.375-1.313-1.485-2.063-3.422-.734-1.938-.734-4.063 0-2.203.719-4.172.734-1.984 1.984-3.468 1.266-1.485 3-2.344 1.75-.86 3.828-.86 2.64 0 4.672 1.391 2.047 1.375 3.203 3.328v-12.719h2.719v25.688q0 1.11.969 1.11v2.406q-.61.125-.97.125-.952 0-1.687-.625-.718-.625-.718-1.5v-2.047q-1.235 2.047-3.36 3.25-2.11 1.203-4.39 1.203zm.593-2.406q1 0 2.141-.391 1.14-.406 2.14-1.11 1-.703 1.704-1.64.703-.938.86-2.016v-6.437q-.407-1.094-1.173-2.031-.75-.938-1.734-1.657-.969-.718-2.094-1.109-1.125-.406-2.203-.406-1.672 0-3.031.718-1.36.72-2.344 1.907-.984 1.172-1.5 2.703-.516 1.515-.516 3.11 0 1.671.594 3.202.594 1.516 1.64 2.657 1.048 1.14 2.454 1.828 1.422.672 3.062.672zm35.771-26.407l-18.89 28.407h-3.079l18.875-28.407h3.094zm4.238-.797h2.719v24.485q0 1.156.64 1.828.641.656 1.797.656.438 0 1.032-.125.609-.125 1.125-.328l.484 2.203q-.766.328-1.875.516-1.094.203-1.89.203-1.876 0-2.954-1.047-1.078-1.062-1.078-2.984v-25.407zm19.63 29.61q-2.281 0-4.156-.86-1.875-.859-3.266-2.343-1.375-1.485-2.14-3.438-.75-1.969-.75-4.125 0-2.203.78-4.156.782-1.969 2.157-3.438 1.375-1.484 3.25-2.359 1.89-.89 4.125-.89 2.25 0 4.14.89 1.907.875 3.282 2.36 1.39 1.468 2.156 3.437.781 1.953.781 4.156 0 2.156-.765 4.125-.75 1.953-2.14 3.438-1.376 1.484-3.282 2.343-1.89.86-4.172.86zm-7.562-10.719q0 1.75.593 3.25.61 1.5 1.625 2.64 1.032 1.141 2.407 1.782 1.375.64 2.937.64 1.563 0 2.938-.656 1.39-.656 2.421-1.797 1.047-1.14 1.641-2.656.61-1.531.61-3.297 0-1.718-.61-3.25-.594-1.547-1.64-2.687-1.032-1.14-2.422-1.797-1.375-.656-2.938-.656-1.562 0-2.922.656t-2.406 1.828q-1.031 1.156-1.64 2.703-.594 1.531-.594 3.297zm31.362 10.719q-2.281 0-4.156-.86-1.875-.859-3.266-2.343-1.375-1.485-2.14-3.438-.75-1.969-.75-4.125 0-2.203.78-4.156.782-1.969 2.157-3.438 1.375-1.484 3.25-2.359 1.89-.89 4.125-.89 2.25 0 4.14.89 1.907.875 3.282 2.36 1.39 1.468 2.156 3.437.781 1.953.781 4.156 0 2.156-.765 4.125-.75 1.953-2.14 3.438-1.376 1.484-3.282 2.343-1.89.86-4.172.86zm-7.562-10.719q0 1.75.593 3.25.61 1.5 1.625 2.64 1.032 1.141 2.407 1.782 1.375.64 2.937.64 1.563 0 2.938-.656 1.39-.656 2.421-1.797 1.047-1.14 1.641-2.656.61-1.531.61-3.297 0-1.718-.61-3.25-.594-1.547-1.64-2.687-1.032-1.14-2.422-1.797-1.375-.656-2.938-.656-1.562 0-2.922.656t-2.406 1.828q-1.031 1.156-1.64 2.703-.594 1.531-.594 3.297zm37.362 10.313l-7.672-10.688-4.484 4.172v6.516h-2.719v-29.204h2.719v19.844l11.719-11.437h3.078l-8.516 8.515 8.844 12.282h-2.969zm15.2.406q-2.281 0-4.156-.86-1.875-.859-3.266-2.343-1.375-1.485-2.14-3.438-.75-1.969-.75-4.125 0-2.203.78-4.156.782-1.969 2.157-3.438 1.375-1.484 3.25-2.359 1.89-.89 4.125-.89 2.25 0 4.14.89 1.907.875 3.282 2.36 1.39 1.468 2.156 3.437.781 1.953.781 4.156 0 2.156-.765 4.125-.75 1.953-2.14 3.438-1.376 1.484-3.282 2.343-1.89.86-4.172.86zm-7.562-10.719q0 1.75.593 3.25.61 1.5 1.625 2.64 1.032 1.141 2.407 1.782 1.374.64 2.937.64 1.563 0 2.938-.656 1.39-.656 2.421-1.797 1.047-1.14 1.641-2.656.61-1.531.61-3.297 0-1.718-.61-3.25-.594-1.547-1.64-2.687-1.032-1.14-2.423-1.797-1.375-.656-2.937-.656-1.563 0-2.922.656-1.36.656-2.406 1.828-1.031 1.156-1.64 2.703-.594 1.531-.594 3.297zm29.003 10.719q-3.391 0-5.063-2.266-1.656-2.265-1.656-6.734v-12.25h2.719v11.765q0 7.079 4.843 7.079 1.203 0 2.36-.391 1.156-.406 2.14-1.156.985-.766 1.766-1.813t1.25-2.36v-13.124h2.719v17.328q0 1.11.968 1.11v2.406q-.484.078-.78.078h-.423q-.953-.032-1.562-.672-.594-.64-.594-1.719v-2.406q-1.36 2.437-3.703 3.781-2.344 1.344-4.984 1.344zm27.244-1.406q-.234.125-.703.328-.453.187-1.063.39-.593.203-1.359.36-.75.156-1.594.156-.875 0-1.687-.234-.797-.235-1.407-.735-.593-.5-.953-1.265-.359-.766-.359-1.766v-14.922h-2.875v-2.156h2.875v-7.031h2.719v7.03h4.812v2.157h-4.812v14.172q.093 1.156.828 1.703.734.531 1.703.531 1.156 0 2.031-.375.89-.39 1.125-.547l.719 2.204zm2.994-8.641v-2.516h11.687v2.516h-11.687zm24.208 10.047q-2.438 0-4.766-.797-2.312-.813-4-2.328l1.25-1.844q1.75 1.438 3.563 2.156 1.828.72 3.906.72 2.531 0 4.031-1.017 1.5-1.015 1.5-2.89 0-.89-.406-1.469-.406-.578-1.188-1.016-.765-.437-1.953-.78-1.172-.345-2.734-.704-1.813-.437-3.125-.875-1.313-.437-2.188-1-.859-.562-1.28-1.375-.407-.828-.407-2.062 0-1.563.61-2.766.624-1.203 1.687-1.984 1.062-.782 2.469-1.172 1.421-.407 3.03-.407 2.391 0 4.345.782 1.968.781 3.171 2.062l-1.312 1.594q-1.172-1.188-2.828-1.781-1.656-.61-3.453-.61-1.078 0-2 .22-.922.218-1.625.702-.703.469-1.11 1.219-.39.734-.39 1.734 0 .844.281 1.36.281.515.922.906.64.375 1.61.672.984.297 2.39.625 2 .484 3.515.969 1.516.468 2.532 1.109 1.031.64 1.547 1.562.53.922.53 2.235 0 2.89-2.202 4.578-2.203 1.672-5.922 1.672zm21.12 0q-2.156 0-4-.906-1.843-.907-3.171-2.375-1.313-1.485-2.063-3.422-.734-1.938-.734-4.063 0-2.203.718-4.172.735-1.984 1.985-3.468 1.265-1.485 3-2.344 1.75-.86 3.828-.86 2.64 0 4.672 1.391 2.047 1.375 3.203 3.328v-12.719h2.719v25.688q0 1.11.968 1.11v2.406q-.609.125-.968.125-.953 0-1.688-.625-.719-.625-.719-1.5v-2.047q-1.234 2.047-3.359 3.25-2.11 1.203-4.39 1.203zm.594-2.406q1 0 2.14-.391 1.141-.406 2.141-1.11 1-.703 1.704-1.64.703-.938.859-2.016v-6.437q-.406-1.094-1.172-2.031-.75-.938-1.734-1.657-.97-.718-2.094-1.109-1.125-.406-2.203-.406-1.672 0-3.031.718-1.36.72-2.344 1.907-.985 1.172-1.5 2.703-.516 1.515-.516 3.11 0 1.671.594 3.202.594 1.516 1.64 2.657 1.047 1.14 2.454 1.828 1.422.672 3.062.672zm30.599 2l-7.672-10.688-4.484 4.172v6.516h-2.72v-29.204h2.72v19.844l11.718-11.437h3.079l-8.516 8.515 8.844 12.282h-2.97z" fill="#fff"/><path d="M133.15 243.04h284.094v53.92H133.15z" fill="none"/><path d="M154.099 290.846q-2.438 0-4.766-.797-2.312-.813-4-2.328l1.25-1.844q1.75 1.437 3.563 2.156 1.828.719 3.906.719 2.531 0 4.031-1.016 1.5-1.015 1.5-2.89 0-.891-.406-1.47-.406-.577-1.188-1.015-.765-.437-1.953-.781-1.172-.344-2.734-.703-1.813-.438-3.125-.875-1.313-.438-2.188-1-.859-.563-1.28-1.375-.407-.828-.407-2.063 0-1.562.61-2.765.624-1.203 1.687-1.985 1.062-.78 2.469-1.172 1.421-.406 3.03-.406 2.391 0 4.345.781 1.968.782 3.171 2.063l-1.312 1.594q-1.172-1.188-2.828-1.782-1.656-.609-3.453-.609-1.078 0-2 .219-.922.219-1.625.703-.703.469-1.11 1.219-.39.734-.39 1.734 0 .844.281 1.36.281.515.922.906.64.375 1.61.672.984.296 2.39.625 2 .484 3.515.968 1.516.47 2.532 1.11 1.031.64 1.547 1.562.53.922.53 2.235 0 2.89-2.202 4.578-2.203 1.672-5.922 1.672zm22.964-18.844q-2.765.078-4.812 1.515-2.032 1.438-2.875 3.97v12.952h-2.719v-20.843h2.562v5q1.157-2.391 3.11-3.75 1.969-1.36 4.203-1.36.328 0 .531.031v2.485zm2.196 7.953q0-2.203.75-4.156.766-1.953 2.141-3.407 1.39-1.468 3.313-2.312 1.921-.844 4.234-.844 2.953 0 5.156 1.344t3.328 3.625l-2.64.828q-.89-1.594-2.469-2.484-1.578-.907-3.5-.907-1.594 0-2.984.641-1.375.64-2.391 1.75-1.016 1.094-1.61 2.61-.578 1.515-.578 3.312 0 1.766.594 3.328.61 1.563 1.64 2.703 1.048 1.14 2.423 1.797 1.39.656 2.953.656 1 0 1.969-.28.984-.282 1.828-.782.843-.5 1.437-1.14.61-.641.844-1.36l2.687.797q-.453 1.125-1.296 2.062-.829.938-1.97 1.64-1.14.704-2.53 1.079-1.375.39-2.844.39-2.281 0-4.203-.859-1.922-.86-3.328-2.36-1.391-1.5-2.172-3.452-.782-1.969-.782-4.219zm22.992.844v-2.516h11.687v2.516h-11.687zm25.848 10.047q-2.156 0-4-.907-1.843-.906-3.171-2.375-1.313-1.484-2.063-3.422-.734-1.937-.734-4.062 0-2.203.718-4.172.735-1.984 1.985-3.469 1.265-1.484 3-2.343 1.75-.86 3.828-.86 2.64 0 4.672 1.39 2.047 1.376 3.203 3.329v-12.719h2.719v25.688q0 1.11.968 1.11v2.405q-.609.125-.968.125-.953 0-1.688-.625-.719-.625-.719-1.5v-2.047q-1.234 2.047-3.359 3.25-2.11 1.204-4.39 1.204zm.594-2.407q1 0 2.14-.39 1.141-.407 2.141-1.11 1-.703 1.704-1.64.703-.938.859-2.016v-6.437q-.406-1.094-1.172-2.032-.75-.937-1.734-1.656-.97-.719-2.094-1.11-1.125-.406-2.203-.406-1.672 0-3.031.72-1.36.718-2.344 1.905-.985 1.172-1.5 2.704-.516 1.515-.516 3.109 0 1.672.594 3.203.594 1.516 1.64 2.656 1.047 1.141 2.454 1.828 1.422.672 3.062.672zm35.77-26.406l-18.89 28.406h-3.078l18.875-28.406h3.094zm4.239-.797h2.719v24.485q0 1.156.64 1.828.64.656 1.797.656.438 0 1.031-.125.61-.125 1.125-.328l.485 2.203q-.766.328-1.875.516-1.094.203-1.89.203-1.876 0-2.954-1.047-1.078-1.063-1.078-2.985v-25.406zm19.63 29.61q-2.281 0-4.156-.86-1.875-.86-3.266-2.344-1.375-1.484-2.14-3.437-.75-1.969-.75-4.125 0-2.203.78-4.156.782-1.969 2.157-3.438 1.375-1.484 3.25-2.36 1.89-.89 4.125-.89 2.25 0 4.14.89 1.907.876 3.282 2.36 1.39 1.469 2.156 3.438.781 1.953.781 4.156 0 2.156-.765 4.125-.75 1.953-2.141 3.437-1.375 1.485-3.281 2.344-1.89.86-4.172.86zm-7.563-10.72q0 1.75.594 3.25.61 1.5 1.625 2.641 1.031 1.141 2.406 1.782 1.375.64 2.938.64 1.562 0 2.937-.656 1.391-.656 2.422-1.797 1.047-1.14 1.64-2.656.61-1.531.61-3.297 0-1.719-.61-3.25-.593-1.547-1.64-2.687-1.031-1.141-2.422-1.797-1.375-.657-2.937-.657-1.563 0-2.922.657-1.36.656-2.406 1.828-1.032 1.156-1.64 2.703-.595 1.531-.595 3.297zm31.363 10.72q-2.281 0-4.156-.86-1.875-.86-3.266-2.344-1.375-1.484-2.14-3.437-.75-1.969-.75-4.125 0-2.203.78-4.156.782-1.969 2.157-3.438 1.375-1.484 3.25-2.36 1.89-.89 4.125-.89 2.25 0 4.14.89 1.907.876 3.282 2.36 1.39 1.469 2.156 3.438.781 1.953.781 4.156 0 2.156-.765 4.125-.75 1.953-2.141 3.437-1.375 1.485-3.281 2.344-1.89.86-4.172.86zm-7.563-10.72q0 1.75.594 3.25.61 1.5 1.625 2.641 1.031 1.141 2.406 1.782 1.375.64 2.938.64 1.562 0 2.937-.656 1.391-.656 2.422-1.797 1.047-1.14 1.64-2.656.61-1.531.61-3.297 0-1.719-.61-3.25-.593-1.547-1.64-2.687-1.031-1.141-2.422-1.797-1.375-.657-2.937-.657-1.563 0-2.922.657-1.36.656-2.406 1.828-1.032 1.156-1.64 2.703-.595 1.531-.595 3.297zm37.363 10.313l-7.672-10.687-4.484 4.172v6.515h-2.72v-29.203h2.72v19.844l11.718-11.438h3.078l-8.515 8.516 8.844 12.281h-2.97zm15.2.407q-2.281 0-4.156-.86-1.875-.86-3.266-2.344-1.375-1.484-2.14-3.437-.75-1.969-.75-4.125 0-2.203.78-4.156.782-1.969 2.157-3.438 1.375-1.484 3.25-2.36 1.89-.89 4.125-.89 2.25 0 4.14.89 1.907.876 3.282 2.36 1.39 1.469 2.156 3.438.781 1.953.781 4.156 0 2.156-.765 4.125-.75 1.953-2.141 3.437-1.375 1.485-3.281 2.344-1.891.86-4.172.86zm-7.563-10.72q0 1.75.594 3.25.61 1.5 1.625 2.641 1.031 1.141 2.406 1.782 1.375.64 2.938.64 1.562 0 2.937-.656 1.39-.656 2.422-1.797 1.047-1.14 1.64-2.656.61-1.531.61-3.297 0-1.719-.61-3.25-.593-1.547-1.64-2.687-1.031-1.141-2.422-1.797-1.375-.657-2.937-.657-1.563 0-2.922.657-1.36.656-2.406 1.828-1.032 1.156-1.641 2.703-.594 1.531-.594 3.297zm29.003 10.72q-3.39 0-5.062-2.266-1.656-2.266-1.656-6.734v-12.25h2.718v11.765q0 7.078 4.844 7.078 1.203 0 2.36-.39 1.156-.407 2.14-1.157.985-.765 1.766-1.812.781-1.047 1.25-2.36v-13.124h2.719v17.328q0 1.11.968 1.11v2.405q-.484.078-.781.078h-.422q-.953-.03-1.562-.671-.594-.641-.594-1.72v-2.405q-1.36 2.437-3.703 3.78-2.344 1.345-4.985 1.345zm27.245-1.407q-.235.125-.703.328-.454.188-1.063.391-.594.203-1.36.36-.75.156-1.593.156-.875 0-1.688-.235-.796-.234-1.406-.734-.594-.5-.953-1.266-.36-.765-.36-1.765v-14.922h-2.874v-2.156h2.875v-7.032h2.718v7.032h4.813v2.156h-4.813v14.172q.094 1.156.829 1.703.734.531 1.703.531 1.156 0 2.031-.375.89-.39 1.125-.547l.719 2.203z" fill="#fff"/><path d="M514.56 243.04h434.866v53.92H514.56z" fill="none"/><path d="M537.415 290.846q-2.437 0-4.765-.797-2.313-.813-4-2.328l1.25-1.844q1.75 1.437 3.562 2.156 1.828.719 3.906.719 2.532 0 4.032-1.016 1.5-1.015 1.5-2.89 0-.891-.407-1.47-.406-.577-1.187-1.015-.766-.437-1.953-.781-1.172-.344-2.735-.703-1.812-.438-3.125-.875-1.312-.438-2.187-1-.86-.563-1.281-1.375-.407-.828-.407-2.063 0-1.562.61-2.765.625-1.203 1.687-1.985 1.063-.78 2.469-1.172 1.422-.406 3.031-.406 2.39 0 4.344.781 1.969.782 3.172 2.063l-1.313 1.594q-1.172-1.188-2.828-1.782-1.656-.609-3.453-.609-1.078 0-2 .219-.922.219-1.625.703-.703.469-1.11 1.219-.39.734-.39 1.734 0 .844.281 1.36.282.515.922.906.64.375 1.61.672.984.296 2.39.625 2 .484 3.516.968 1.515.47 2.531 1.11 1.031.64 1.547 1.562.531.922.531 2.235 0 2.89-2.203 4.578-2.203 1.672-5.922 1.672zm22.965-18.844q-2.766.078-4.813 1.515-2.031 1.438-2.875 3.97v12.952h-2.719v-20.843h2.563v5q1.156-2.391 3.11-3.75 1.968-1.36 4.202-1.36.328 0 .532.031v2.485zm2.196 7.953q0-2.203.75-4.156.765-1.953 2.14-3.407 1.391-1.468 3.313-2.312 1.922-.844 4.234-.844 2.953 0 5.156 1.344 2.204 1.344 3.329 3.625l-2.641.828q-.89-1.594-2.469-2.484-1.578-.907-3.5-.907-1.594 0-2.984.641-1.375.64-2.39 1.75-1.016 1.094-1.61 2.61-.578 1.515-.578 3.312 0 1.766.593 3.328.61 1.563 1.641 2.703 1.047 1.14 2.422 1.797 1.39.656 2.953.656 1 0 1.969-.28.984-.282 1.828-.782.844-.5 1.437-1.14.61-.641.844-1.36l2.688.797q-.453 1.125-1.297 2.062-.828.938-1.969 1.64-1.14.704-2.531 1.079-1.375.39-2.844.39-2.281 0-4.203-.859-1.922-.86-3.328-2.36-1.39-1.5-2.172-3.452-.781-1.969-.781-4.219zm22.99.844v-2.516h11.688v2.516h-11.687zm25.85 10.047q-2.157 0-4-.907-1.844-.906-3.172-2.375-1.313-1.484-2.063-3.422-.734-1.937-.734-4.062 0-2.203.719-4.172.734-1.984 1.984-3.469 1.266-1.484 3-2.343 1.75-.86 3.828-.86 2.64 0 4.672 1.39 2.047 1.376 3.203 3.329v-12.719h2.719v25.688q0 1.11.969 1.11v2.405q-.61.125-.969.125-.953 0-1.688-.625-.718-.625-.718-1.5v-2.047q-1.235 2.047-3.36 3.25-2.109 1.204-4.39 1.204zm.593-2.407q1 0 2.141-.39 1.14-.407 2.14-1.11 1-.703 1.704-1.64.703-.938.86-2.016v-6.437q-.407-1.094-1.173-2.032-.75-.937-1.734-1.656-.969-.719-2.094-1.11-1.125-.406-2.203-.406-1.672 0-3.031.72-1.36.718-2.344 1.905-.984 1.172-1.5 2.704-.516 1.515-.516 3.109 0 1.672.594 3.203.594 1.516 1.64 2.656 1.048 1.141 2.454 1.828 1.422.672 3.062.672zm35.771-26.406l-18.89 28.406h-3.079l18.875-28.406h3.094zm4.238-.797h2.719v24.485q0 1.156.64 1.828.641.656 1.797.656.438 0 1.032-.125.609-.125 1.125-.328l.484 2.203q-.766.328-1.875.516-1.094.203-1.89.203-1.876 0-2.954-1.047-1.078-1.063-1.078-2.985v-25.406zm19.63 29.61q-2.281 0-4.156-.86-1.875-.86-3.266-2.344-1.375-1.484-2.14-3.437-.75-1.969-.75-4.125 0-2.203.78-4.156.782-1.969 2.157-3.438 1.375-1.484 3.25-2.36 1.89-.89 4.125-.89 2.25 0 4.14.89 1.907.876 3.282 2.36 1.39 1.469 2.156 3.438.782 1.953.782 4.156 0 2.156-.766 4.125-.75 1.953-2.14 3.437-1.376 1.485-3.282 2.344-1.89.86-4.172.86zm-7.562-10.72q0 1.75.593 3.25.61 1.5 1.625 2.641 1.032 1.141 2.407 1.782 1.375.64 2.937.64 1.563 0 2.938-.656 1.39-.656 2.422-1.797 1.046-1.14 1.64-2.656.61-1.531.61-3.297 0-1.719-.61-3.25-.594-1.547-1.64-2.687-1.032-1.141-2.422-1.797-1.375-.657-2.938-.657-1.562 0-2.922.657-1.36.656-2.406 1.828-1.031 1.156-1.64 2.703-.594 1.531-.594 3.297zm31.362 10.72q-2.281 0-4.156-.86-1.875-.86-3.266-2.344-1.375-1.484-2.14-3.437-.75-1.969-.75-4.125 0-2.203.78-4.156.782-1.969 2.157-3.438 1.375-1.484 3.25-2.36 1.89-.89 4.125-.89 2.25 0 4.14.89 1.907.876 3.282 2.36 1.39 1.469 2.156 3.438.781 1.953.781 4.156 0 2.156-.765 4.125-.75 1.953-2.14 3.437-1.376 1.485-3.282 2.344-1.89.86-4.172.86zm-7.562-10.72q0 1.75.593 3.25.61 1.5 1.625 2.641 1.032 1.141 2.407 1.782 1.375.64 2.937.64 1.563 0 2.938-.656 1.39-.656 2.421-1.797 1.047-1.14 1.641-2.656.61-1.531.61-3.297 0-1.719-.61-3.25-.594-1.547-1.64-2.687-1.032-1.141-2.422-1.797-1.375-.657-2.938-.657-1.562 0-2.922.657-1.36.656-2.406 1.828-1.031 1.156-1.64 2.703-.594 1.531-.594 3.297zm37.362 10.313l-7.672-10.687-4.484 4.172v6.515h-2.719v-29.203h2.719v19.844l11.719-11.438h3.078l-8.516 8.516 8.844 12.281h-2.969zm15.2.407q-2.281 0-4.156-.86-1.875-.86-3.266-2.344-1.375-1.484-2.14-3.437-.75-1.969-.75-4.125 0-2.203.78-4.156.782-1.969 2.157-3.438 1.375-1.484 3.25-2.36 1.89-.89 4.125-.89 2.25 0 4.14.89 1.907.876 3.282 2.36 1.39 1.469 2.156 3.438.781 1.953.781 4.156 0 2.156-.765 4.125-.75 1.953-2.14 3.437-1.376 1.485-3.282 2.344-1.89.86-4.172.86zm-7.562-10.72q0 1.75.593 3.25.61 1.5 1.625 2.641 1.032 1.141 2.407 1.782 1.375.64 2.937.64 1.563 0 2.938-.656 1.39-.656 2.421-1.797 1.047-1.14 1.641-2.656.61-1.531.61-3.297 0-1.719-.61-3.25-.594-1.547-1.64-2.687-1.032-1.141-2.422-1.797-1.375-.657-2.938-.657-1.562 0-2.922.657-1.36.656-2.406 1.828-1.031 1.156-1.64 2.703-.594 1.531-.594 3.297zm29.003 10.72q-3.391 0-5.063-2.266-1.656-2.266-1.656-6.734v-12.25h2.719v11.765q0 7.078 4.843 7.078 1.204 0 2.36-.39 1.156-.407 2.14-1.157.985-.765 1.766-1.812.781-1.047 1.25-2.36v-13.124h2.719v17.328q0 1.11.969 1.11v2.405q-.485.078-.782.078h-.422q-.953-.03-1.562-.671-.594-.641-.594-1.72v-2.405q-1.36 2.437-3.703 3.78-2.344 1.345-4.984 1.345zm27.244-1.407q-.234.125-.703.328-.453.188-1.063.391-.593.203-1.359.36-.75.156-1.594.156-.875 0-1.687-.235-.797-.234-1.407-.734-.593-.5-.953-1.266-.359-.765-.359-1.765v-14.922h-2.875v-2.156h2.875v-7.032h2.719v7.032h4.812v2.156h-4.812v14.172q.093 1.156.828 1.703.734.531 1.703.531 1.156 0 2.031-.375.89-.39 1.125-.547l.719 2.203zm2.994-8.64v-2.516h11.687v2.516h-11.687zm24.208 10.047q-2.438 0-4.766-.797-2.312-.813-4-2.328l1.25-1.844q1.75 1.437 3.563 2.156 1.828.719 3.906.719 2.531 0 4.031-1.016 1.5-1.015 1.5-2.89 0-.891-.406-1.47-.406-.577-1.187-1.015-.766-.437-1.954-.781-1.171-.344-2.734-.703-1.812-.438-3.125-.875-1.312-.438-2.187-1-.86-.563-1.282-1.375-.406-.828-.406-2.063 0-1.562.61-2.765.624-1.203 1.687-1.985 1.062-.78 2.469-1.172 1.422-.406 3.03-.406 2.392 0 4.345.781 1.968.782 3.172 2.063l-1.313 1.594q-1.172-1.188-2.828-1.782-1.656-.609-3.453-.609-1.078 0-2 .219-.922.219-1.625.703-.703.469-1.11 1.219-.39.734-.39 1.734 0 .844.281 1.36.281.515.922.906.64.375 1.61.672.984.296 2.39.625 2 .484 3.516.968 1.515.47 2.53 1.11 1.032.64 1.548 1.562.53.922.53 2.235 0 2.89-2.202 4.578-2.203 1.672-5.922 1.672zm21.12 0q-2.156 0-4-.907-1.843-.906-3.171-2.375-1.313-1.484-2.063-3.422-.734-1.937-.734-4.062 0-2.203.718-4.172.735-1.984 1.985-3.469 1.265-1.484 3-2.343 1.75-.86 3.828-.86 2.64 0 4.672 1.39 2.047 1.376 3.203 3.329v-12.719h2.719v25.688q0 1.11.968 1.11v2.405q-.609.125-.968.125-.953 0-1.688-.625-.719-.625-.719-1.5v-2.047q-1.234 2.047-3.359 3.25-2.11 1.204-4.39 1.204zm.594-2.407q1 0 2.14-.39 1.141-.407 2.141-1.11 1-.703 1.704-1.64.703-.938.859-2.016v-6.437q-.406-1.094-1.172-2.032-.75-.937-1.734-1.656-.969-.719-2.094-1.11-1.125-.406-2.203-.406-1.672 0-3.031.72-1.36.718-2.344 1.905-.985 1.172-1.5 2.704-.516 1.515-.516 3.109 0 1.672.594 3.203.594 1.516 1.64 2.656 1.047 1.141 2.454 1.828 1.422.672 3.062.672zm30.599 2l-7.672-10.687-4.484 4.172v6.515h-2.72v-29.203h2.72v19.844l11.718-11.438h3.079l-8.516 8.516 8.844 12.281h-2.97zm5.919-9.64v-2.516h11.687v2.516h-11.687zm48.286 9.64h-2.719V278.8q0-3.64-1.172-5.36-1.156-1.718-3.422-1.718-1.203 0-2.265.437-1.063.438-1.969 1.25-.89.797-1.578 1.89-.672 1.094-1.031 2.423v12.718h-2.719V278.8q0-3.719-1.125-5.39-1.125-1.688-3.438-1.688-2.359 0-4.203 1.64-1.843 1.64-2.64 4.313v12.765h-2.719v-20.843h2.484v4.718q1.282-2.39 3.36-3.734 2.078-1.344 4.593-1.344 2.641 0 4.22 1.485 1.577 1.484 1.937 3.875 2.922-5.36 8.047-5.36 1.765 0 2.984.64 1.219.641 1.953 1.829.734 1.172 1.078 2.844.344 1.656.344 3.687v12.203zm5.885-29.203h2.719v24.485q0 1.156.64 1.828.64.656 1.797.656.438 0 1.031-.125.61-.125 1.125-.328l.485 2.203q-.766.328-1.875.516-1.094.203-1.89.203-1.876 0-2.954-1.047-1.078-1.063-1.078-2.985v-25.406z" fill="#fff"/><path d="M417.232 154.855l-142.048 88.22" fill="none"/><path d="M417.232 154.855l-136.95 85.055" stroke="#fff" stroke-linecap="butt" stroke-linejoin="round"/><path d="M279.41 238.507l-2.984 3.797 4.727-.991z" fill="#fff" fill-rule="evenodd" stroke="#fff" stroke-linecap="butt"/><path d="M523.905 154.858l142.048 88.19" fill="none"/><path d="M523.905 154.858l136.95 85.025" stroke="#fff" stroke-linecap="butt" stroke-linejoin="round"/><path d="M659.984 241.286l4.727.99-2.984-3.797z" fill="#fff" fill-rule="evenodd" stroke="#fff" stroke-linecap="butt"/><path d="M256.534 212.43l110.142-68.788 19.15 30.646-110.142 68.787z" fill="none"/><path d="M295.451 216.974q-.729.455-1.529.531-.8.076-1.552-.154-.752-.23-1.41-.723-.644-.5-1.074-1.189-.464-.742-.64-1.554-.183-.824-.074-1.593.123-.776.537-1.44.42-.686 1.161-1.15.902-.562 1.854-.512.958.028 1.865.42l-.927-1.485.821-.513 4.439 7.102q.455.73.524 1.46.078.743-.159 1.425-.224.674-.744 1.257-.507.575-1.21 1.013-1.218.762-2.247.796-1.007.04-1.926-.4l.288-.806q.846.411 1.734.299.888-.113 1.696-.618.517-.322.877-.75.38-.422.552-.915.184-.502.11-1.063-.067-.548-.423-1.118l-.87-1.392q.025.925-.442 1.769-.462.823-1.231 1.303zm-.228-.926q.41-.256.704-.642.298-.408.459-.858.174-.459.195-.896.014-.45-.119-.81l-1.366-2.186q-.386-.293-.85-.446-.459-.174-.93-.192-.468-.04-.922.06-.454.099-.838.339-.596.372-.916.922-.307.541-.381 1.159-.07.596.08 1.22.165.617.496 1.147.356.57.878.962.521.393 1.12.553.61.153 1.215.089.618-.073 1.175-.42zm5.906-2.75l-6.02-9.633 4.07-2.54q.622-.39 1.305-.447.695-.066 1.345.118.649.184 1.187.603.552.41.9.967.33.53.478 1.12.152.568.114 1.126-.038.558-.27 1.071-.232.514-.651.904l4.686 2.25-1.074.671-4.485-2.136-2.85 1.78 2.22 3.55-.955.597zm-1.794-4.994l3.14-1.962q.425-.265.661-.652.23-.401.269-.868.053-.475-.055-.942-.102-.489-.375-.926-.265-.424-.673-.722-.416-.312-.863-.438-.455-.14-.92-.088-.474.038-.872.286l-3.061 1.912 2.749 4.4zm10.656-.54l-6.02-9.633 3.99-2.491q.622-.39 1.305-.447.696-.066 1.332.126.649.184 1.2.595.565.403.913.959.373.596.522 1.277.14.667.034 1.323-.106.656-.457 1.244-.347.566-.97.955l-3.114 1.945 2.22 3.551-.955.596zm-1.795-4.995l3.075-1.92q.424-.265.66-.652.23-.401.278-.855.053-.475-.063-.955-.103-.489-.376-.926-.273-.438-.68-.736-.416-.311-.864-.437-.455-.14-.92-.088-.466.051-.864.3l-2.995 1.87 2.75 4.4zm6.545-4.769q-.539-.861-.772-1.913-.233-1.051-.072-2.091.152-1.054.735-2.007.597-.962 1.684-1.641 1.285-.803 2.564-.79 1.292.003 2.304.679l-.46.914q-.516-.323-1.068-.44-.538-.124-1.046-.083-.496.033-.964.197-.456.156-.854.404-.874.546-1.313 1.318-.44.772-.534 1.623-.095.851.114 1.716.214.843.669 1.571.505.809 1.239 1.364.734.555 1.567.826.824.259 1.702.19.87-.083 1.639-.563.41-.257.768-.627.358-.371.615-.845.27-.482.394-1.02.138-.546.065-1.164l1.052-.086q.101.692-.058 1.381-.154.668-.489 1.282-.343.601-.835 1.11-.479.503-1.035.85-.994.621-2.094.718-1.095.076-2.13-.254-1.036-.33-1.922-1.01-.886-.681-1.465-1.609zm19.26-5.047q-.728.455-1.555.548-.813.084-1.578-.138-.752-.23-1.41-.723-.665-.505-1.113-1.22-.472-.756-.647-1.567-.17-.833-.061-1.602.11-.768.51-1.424.415-.664 1.13-1.11.888-.555 1.875-.509.993.025 1.791.448l-2.7-4.32.928-.58 5.449 8.72q.24.384.571.177l.505.808q-.187.173-.306.247-.332.207-.703.144-.37-.063-.553-.355l-.43-.689q.006.954-.466 1.82-.467.845-1.236 1.325zm-.305-.933q.344-.215.646-.587.293-.386.475-.832.196-.453.236-.92.04-.467-.131-.858l-1.366-2.186q-.365-.289-.828-.441-.451-.161-.931-.193-.489-.044-.956.063-.454.1-.825.331-.57.356-.877.897-.314.529-.397 1.133-.083.605.067 1.229.151.624.49 1.168.357.57.878.962.522.393 1.12.553.598.161 1.224.102.618-.073 1.175-.42zm8.893-4.43q-.769.48-1.6.594-.819.106-1.61-.1-.8-.218-1.48-.715-.679-.497-1.15-1.253-.473-.755-.613-1.57-.15-.828.009-1.608.162-.801.63-1.498.467-.698 1.222-1.17.782-.488 1.6-.593.832-.114 1.597.108.779.214 1.436.706.67.483 1.135 1.225l.132.212q.066.106.078.154l-6.043 3.775q.395.545.927.894.523.336 1.091.479.574.121 1.148.038.575-.082 1.092-.405.345-.215.618-.515.287-.308.466-.64.183-.355.26-.734.09-.388.035-.74l.94-.293q.077.505-.03 1.013-.092.5-.34.987-.236.479-.639.896-.394.43-.91.753zm.085-5.672q-.396-.545-.91-.868-.524-.336-1.076-.452-.56-.13-1.14-.025-.566.095-1.083.418-.517.323-.864.798-.335.467-.478 1.035-.137.547-.051 1.156.1.601.407 1.183l5.195-3.245zm5.081 2.261l-3.958-6.334-.967.605-.464-.742.968-.605-.116-.185q-.812-1.299-.719-2.388.093-1.09 1.06-1.694.425-.265.892-.373.472-.129.888-.112l.122.845q-.276-.03-.604.064-.328.094-.62.276-.65.406-.68 1.125-.024.697.572 1.65l.132.213 1.949-1.217.463.742-1.948 1.217 3.958 6.334-.928.58zm6.576-3.922q-.835.521-1.783.745-.955.21-1.848.049l.021-.88q.903.118 1.683-.019.772-.15 1.475-.59.848-.529 1.136-1.188.302-.667-.096-1.303-.19-.305-.447-.421-.257-.116-.613-.096-.356.02-.841.157-.472.129-1.077.34-.7.236-1.242.371-.537.114-.944.111-.408-.003-.728-.19-.32-.188-.584-.612-.331-.53-.368-1.06-.044-.543.148-1.032.192-.488.586-.918.4-.452.943-.792.808-.505 1.637-.654.841-.157 1.512.032l-.098.817q-.654-.163-1.348-.005-.681.149-1.29.53-.372.231-.64.51-.264.256-.403.564-.139.308-.114.642.025.335.24.68.174.278.382.405.2.115.496.115.3-.022.697-.123.398-.1.941-.293.775-.263 1.4-.413.616-.164 1.101-.154.477-.003.848.207.376.19.65.626.612.981.213 2.023-.386 1.033-1.645 1.82z" fill="#fff"/><path d="M573.333 143.61l110.11 68.85-19.15 30.647-110.11-68.85z" fill="none"/><path d="M580.989 163.344l.927.58-5.191 8.308q-.249.397-.178.755.072.358.47.606.145.092.368.176.237.093.46.121l-.3.863q-.332-.06-.744-.225-.413-.166-.69-.34-.637-.398-.784-.987-.134-.582.272-1.231l5.39-8.626zm.381 14.207q-.768-.48-1.222-1.17-.454-.69-.616-1.49-.15-.794 0-1.623.162-.82.618-1.548.472-.756 1.15-1.252.68-.497 1.458-.71.791-.206 1.61-.1.826.093 1.581.565t1.214 1.183q.467.697.616 1.49.149.794 0 1.622-.15.829-.621 1.584-.455.729-1.134 1.226-.666.505-1.444.718-.779.214-1.61.1-.831-.115-1.6-.595zm-.288-5.23q-.373.596-.497 1.237-.116.628-.011 1.228.117.608.44 1.123.331.502.861.833.53.332 1.135.396.617.073 1.202-.095.598-.161 1.12-.554.534-.384.907-.98.364-.583.475-1.232.133-.655.015-1.263-.104-.6-.44-1.123-.323-.515-.853-.846-.53-.332-1.135-.396-.59-.057-1.197.117-.598.16-1.128.566-.521.393-.894.99zm18.76 6.755l.9.563-7.455 5.18-.768-.481.742-4.549-3.763 2.66-.755-.472 1.375-8.982.9.564-1.241 7.737 3.35-2.383.591-3.63.768.481-.513 2.885 2.355-1.734.795.497-3.003 2.122-.674 4.057 6.396-4.515zm-.382 5.05l.53-.848 3.96 2.477-.53.848-3.96-2.477zm10.045-2.951l.927.58-5.191 8.308q-.249.397-.177.755.07.358.468.606.146.091.37.176.236.093.458.12l-.3.864q-.33-.06-.743-.226-.412-.165-.69-.34-.636-.397-.784-.987-.134-.581.272-1.23l5.39-8.626zm.421 14.231q-.768-.48-1.235-1.178-.454-.689-.616-1.49-.154-.815-.005-1.644.149-.828.62-1.583.473-.755 1.143-1.24.68-.496 1.45-.696.791-.206 1.622-.091.832.114 1.587.586.782.49 1.235 1.178.467.698.603 1.483.15.793-.005 1.6-.14.815-.604 1.557l-.133.212q-.066.106-.104.138l-6.041-3.778q-.317.595-.398 1.226-.073.618.048 1.19.143.569.469 1.05.326.48.843.803.344.215.733.33.403.122.78.137.4.01.774-.087.387-.09.68-.294l.676.718q-.42.29-.924.417-.49.136-1.037.126-.533-.002-1.084-.18-.56-.167-1.077-.49zm5.136-2.41q.316-.594.38-1.198.073-.618-.064-1.165-.13-.56-.477-1.035-.335-.467-.851-.79-.517-.324-1.097-.428-.566-.096-1.139.025-.551.116-1.061.46-.497.353-.885.884l5.194 3.248zm1.983 6.677l1.533-8.881.954.596-1.459 7.73 6.335-4.681.887.555L618 200.27l-.954-.597zm8.075 5.234q-.768-.48-1.235-1.178-.454-.689-.616-1.49-.154-.816-.005-1.644t.62-1.583q.473-.756 1.144-1.24.679-.496 1.449-.697.791-.205 1.623-.09.83.114 1.586.586.782.489 1.235 1.178.467.697.603 1.483.15.793-.005 1.6-.14.815-.604 1.557l-.133.212q-.066.106-.104.137l-6.041-3.777q-.316.594-.398 1.226-.073.617.048 1.19.143.569.469 1.05.326.48.843.803.344.215.734.33.402.122.78.137.399.01.773-.088.387-.09.68-.293l.676.717q-.42.29-.924.418-.49.136-1.037.126-.533-.002-1.084-.181-.56-.166-1.077-.489zm5.136-2.41q.316-.594.38-1.199.073-.618-.064-1.164-.13-.56-.477-1.036-.334-.467-.851-.79-.517-.323-1.096-.427-.567-.096-1.14.024-.551.116-1.061.46-.497.354-.885.885l5.194 3.248zm6.097-4.535l.927.58-5.191 8.308q-.249.398-.178.755.072.358.469.607.146.09.37.175.236.093.458.121l-.3.863q-.33-.06-.743-.225-.413-.166-.69-.34-.637-.397-.784-.987-.134-.582.271-1.23l5.39-8.627zm10.102 6.704l.808.505-2.019 12.135-1.007-.63.635-3.786-4.332-2.709-3.112 2.237-1.02-.637 10.047-7.115zm-1.323 7.336l1.025-5.975-4.933 3.531 3.908 2.444zm1.493 6.167l6.02-9.633 3.988 2.494q.622.389.973.977.365.596.47 1.252.12.665-.007 1.34-.115.685-.462 1.241-.373.596-.92 1.029-.538.419-1.174.61-.636.193-1.318.135-.66-.063-1.283-.453l-3.114-1.946-2.219 3.55-.954-.596zm3.703-3.802l3.074 1.922q.424.265.876.308.46.03.889-.126.45-.16.831-.475.394-.307.668-.744.273-.437.362-.934.098-.51.015-.968-.074-.47-.324-.866t-.648-.644l-2.994-1.873-2.749 4.4zm4.735 9.079l6.02-9.634.954.597-6.02 9.633-.954-.596z" fill="#fff"/></g></svg>